<?xml version="1.0" encoding="UTF-8" standalone="no"?>
<!DOCTYPE svg PUBLIC "-//W3C//DTD SVG 1.1//EN"
 "http://www.w3.org/Graphics/SVG/1.1/DTD/svg11.dtd">
<!-- Generated by graphviz version 13.1.2 (20250808.2320)
 -->
<!-- Title: application/tests/AssetManagerTest.cpp Pages: 1 -->
<!--zoomable 288 -->

<svg id="main" version="1.1" xmlns="http://www.w3.org/2000/svg" xmlns:xlink="http://www.w3.org/1999/xlink" xml:space="preserve" onload="init(evt)">

<style type="text/css"><![CDATA[
.node, .edge {opacity: 0.7;}
.node.selected, .edge.selected {opacity: 1;}
.edge:hover path { stroke: red; }
.edge:hover polygon { stroke: red; fill: red; }
]]></style>

<defs>
  <circle id="rim" cx="0" cy="0" r="7"/>
  <circle id="rim2" cx="0" cy="0" r="3.5"/>
  <g id="zoomPlus">
    <use xlink:href="#rim" fill="#404040"><set attributeName="fill" to="#808080" begin="zoomplus.mouseover" end="zoomplus.mouseout"/></use>
    <path d="M-4,0h8M0,-4v8" fill="none" stroke="white" stroke-width="1.5" pointer-events="none"/>
  </g>
  <g id="zoomMin">
    <use xlink:href="#rim" fill="#404040"><set attributeName="fill" to="#808080" begin="zoomminus.mouseover" end="zoomminus.mouseout"/></use>
    <path d="M-4,0h8" fill="none" stroke="white" stroke-width="1.5" pointer-events="none"/>
  </g>
  <g id="arrowUp" transform="translate(30 24)">
    <use xlink:href="#rim"/>
    <path pointer-events="none" fill="none" stroke="white" stroke-width="1.5" d="M0,-3.0v7 M-2.5,-0.5L0,-3.0L2.5,-0.5"/>
  </g>
  <g id="arrowRight" transform="rotate(90) translate(36 -43)">
    <use xlink:href="#rim"/>
    <path pointer-events="none" fill="none" stroke="white" stroke-width="1.5" d="M0,-3.0v7 M-2.5,-0.5L0,-3.0L2.5,-0.5"/>
  </g>
  <g id="arrowDown" transform="rotate(180) translate(-30 -48)">
    <use xlink:href="#rim"/>
    <path pointer-events="none" fill="none" stroke="white" stroke-width="1.5" d="M0,-3.0v7 M-2.5,-0.5L0,-3.0L2.5,-0.5"/>
  </g>
  <g id="arrowLeft" transform="rotate(270) translate(-36 17)">
    <use xlink:href="#rim"/>
    <path pointer-events="none" fill="none" stroke="white" stroke-width="1.5" d="M0,-3.0v7 M-2.5,-0.5L0,-3.0L2.5,-0.5"/>
  </g>
  <g id="resetDef">
    <use xlink:href="#rim2" fill="#404040"><set attributeName="fill" to="#808080" begin="reset.mouseover" end="reset.mouseout"/></use>
  </g>
</defs>
<script type="application/ecmascript">
var viewWidth = 526;
var viewHeight = 288;
var sectionId = 'dynsection-0';
</script>
<script type="application/ecmascript" xlink:href="svg.min.js"/>
<svg id="graph" class="graph">
<g id="viewport">
<title>application/tests/AssetManagerTest.cpp</title>
<!-- Node1 -->
<g id="Node000001" class="node">
<title>Node1</title>
<g id="a_Node000001"><a xlink:title=" ">
<polygon fill="#999999" stroke="#666666" points="310,-280 156.75,-280 156.75,-248 310,-248 310,-280"/>
<text xml:space="preserve" text-anchor="start" x="164.75" y="-266.5" font-family="Helvetica,sans-Serif" font-size="10.00">application/tests/AssetManager</text>
<text xml:space="preserve" text-anchor="middle" x="233.38" y="-254.5" font-family="Helvetica,sans-Serif" font-size="10.00">Test.cpp</text>
</a>
</g>
</g>
<!-- Node2 -->
<g id="Node000002" class="node">
<title>Node2</title>
<g id="a_Node000002"><a xlink:title=" ">
<polygon fill="#e0e0e0" stroke="#999999" points="70.75,-206 0,-206 0,-186 70.75,-186 70.75,-206"/>
<text xml:space="preserve" text-anchor="middle" x="35.38" y="-192.5" font-family="Helvetica,sans-Serif" font-size="10.00">gtest/gtest.h</text>
</a>
</g>
</g>
<!-- Node1&#45;&gt;Node2 -->
<g id="edge1_Node000001_Node000002" class="edge">
<title>Node1&#45;&gt;Node2</title>
<g id="a_edge1_Node000001_Node000002"><a xlink:title=" ">
<path fill="none" stroke="#63b8ff" d="M186.95,-247.53C152.8,-236.14 106.89,-220.84 74.58,-210.07"/>
<polygon fill="#63b8ff" stroke="#63b8ff" points="75.78,-206.78 65.19,-206.94 73.57,-213.42 75.78,-206.78"/>
</a>
</g>
</g>
<!-- Node3 -->
<g id="Node000003" class="node">
<title>Node3</title>
<g id="a_Node000003"><a xlink:title=" ">
<polygon fill="#e0e0e0" stroke="#999999" points="229.88,-20 168.88,-20 168.88,0 229.88,0 229.88,-20"/>
<text xml:space="preserve" text-anchor="middle" x="199.38" y="-6.5" font-family="Helvetica,sans-Serif" font-size="10.00">filesystem</text>
</a>
</g>
</g>
<!-- Node1&#45;&gt;Node3 -->
<g id="edge2_Node000001_Node000003" class="edge">
<title>Node1&#45;&gt;Node3</title>
<g id="a_edge2_Node000001_Node000003"><a xlink:title=" ">
<path fill="none" stroke="#63b8ff" d="M210.14,-247.82C182.01,-227.88 136.07,-189.97 117.38,-144 99.02,-98.88 146.76,-51.62 176.9,-27.42"/>
<polygon fill="#63b8ff" stroke="#63b8ff" points="179,-30.22 184.77,-21.33 174.72,-24.69 179,-30.22"/>
</a>
</g>
</g>
<!-- Node4 -->
<g id="Node000004" class="node">
<title>Node4</title>
<g id="a_Node000004"><a xlink:title=" ">
<polygon fill="#e0e0e0" stroke="#999999" points="489.88,-206 440.88,-206 440.88,-186 489.88,-186 489.88,-206"/>
<text xml:space="preserve" text-anchor="middle" x="465.38" y="-192.5" font-family="Helvetica,sans-Serif" font-size="10.00">fstream</text>
</a>
</g>
</g>
<!-- Node1&#45;&gt;Node4 -->
<g id="edge3_Node000001_Node000004" class="edge">
<title>Node1&#45;&gt;Node4</title>
<g id="a_edge3_Node000001_Node000004"><a xlink:title=" ">
<path fill="none" stroke="#63b8ff" d="M306.13,-247.59C344.22,-238.72 391.34,-226.46 432.38,-212 433.5,-211.6 434.64,-211.18 435.79,-210.74"/>
<polygon fill="#63b8ff" stroke="#63b8ff" points="436.78,-214.12 444.67,-207.04 434.09,-207.66 436.78,-214.12"/>
</a>
</g>
</g>
<!-- Node5 -->
<g id="Node000005" class="node">
<title>Node5</title>
<g id="a_Node000005"><a xlink:href="AssetManager_8hpp.html" target="_top" xlink:title=" ">
<polygon fill="white" stroke="#666666" points="408.62,-144 304.12,-144 304.12,-112 408.62,-112 408.62,-144"/>
<text xml:space="preserve" text-anchor="start" x="312.12" y="-130.5" font-family="Helvetica,sans-Serif" font-size="10.00">../../src/Utils/Assets</text>
<text xml:space="preserve" text-anchor="middle" x="356.38" y="-118.5" font-family="Helvetica,sans-Serif" font-size="10.00">/AssetManager.hpp</text>
</a>
</g>
</g>
<!-- Node1&#45;&gt;Node5 -->
<g id="edge4_Node000001_Node000005" class="edge">
<title>Node1&#45;&gt;Node5</title>
<g id="a_edge4_Node000001_Node000005"><a xlink:title=" ">
<path fill="none" stroke="#63b8ff" d="M239.74,-247.58C247.61,-229.83 262.33,-200.48 281.38,-180 291.97,-168.6 305.56,-158.41 318.25,-150.18"/>
<polygon fill="#63b8ff" stroke="#63b8ff" points="319.8,-153.34 326.44,-145.09 316.1,-147.4 319.8,-153.34"/>
</a>
</g>
</g>
<!-- Node9 -->
<g id="Node000009" class="node">
<title>Node9</title>
<g id="a_Node000009"><a xlink:href="AssetManagerFactory_8hpp.html" target="_top" xlink:title=" ">
<polygon fill="white" stroke="#666666" points="422.88,-212 289.88,-212 289.88,-180 422.88,-180 422.88,-212"/>
<text xml:space="preserve" text-anchor="start" x="297.88" y="-198.5" font-family="Helvetica,sans-Serif" font-size="10.00">../../src/Utils/Assets</text>
<text xml:space="preserve" text-anchor="middle" x="356.38" y="-186.5" font-family="Helvetica,sans-Serif" font-size="10.00">/AssetManagerFactory.hpp</text>
</a>
</g>
</g>
<!-- Node1&#45;&gt;Node9 -->
<g id="edge9_Node000001_Node000009" class="edge">
<title>Node1&#45;&gt;Node9</title>
<g id="a_edge9_Node000001_Node000009"><a xlink:title=" ">
<path fill="none" stroke="#63b8ff" d="M262.21,-247.53C278.79,-238.63 299.83,-227.34 317.81,-217.69"/>
<polygon fill="#63b8ff" stroke="#63b8ff" points="319.23,-220.91 326.38,-213.09 315.92,-214.74 319.23,-220.91"/>
</a>
</g>
</g>
<!-- Node11 -->
<g id="Node000011" class="node">
<title>Node11</title>
<g id="a_Node000011"><a xlink:href="MockAssetManager_8hpp.html" target="_top" xlink:title=" ">
<polygon fill="white" stroke="#666666" points="248.25,-138 126.5,-138 126.5,-118 248.25,-118 248.25,-138"/>
<text xml:space="preserve" text-anchor="middle" x="187.38" y="-124.5" font-family="Helvetica,sans-Serif" font-size="10.00">MockAssetManager.hpp</text>
</a>
</g>
</g>
<!-- Node1&#45;&gt;Node11 -->
<g id="edge15_Node000001_Node000011" class="edge">
<title>Node1&#45;&gt;Node11</title>
<g id="a_edge15_Node000001_Node000011"><a xlink:title=" ">
<path fill="none" stroke="#63b8ff" d="M228.1,-247.63C219.75,-223.31 203.49,-175.95 194.24,-149.01"/>
<polygon fill="#63b8ff" stroke="#63b8ff" points="197.59,-147.98 191.03,-139.66 190.97,-150.25 197.59,-147.98"/>
</a>
</g>
</g>
<!-- Node6 -->
<g id="Node000006" class="node">
<title>Node6</title>
<g id="a_Node000006"><a xlink:href="IAssetManager_8hpp.html" target="_top" xlink:title=" ">
<polygon fill="white" stroke="#666666" points="332.25,-76 174.5,-76 174.5,-56 332.25,-56 332.25,-76"/>
<text xml:space="preserve" text-anchor="middle" x="253.38" y="-62.5" font-family="Helvetica,sans-Serif" font-size="10.00">Utils/Assets/IAssetManager.hpp</text>
</a>
</g>
</g>
<!-- Node5&#45;&gt;Node6 -->
<g id="edge5_Node000005_Node000006" class="edge">
<title>Node5&#45;&gt;Node6</title>
<g id="a_edge5_Node000005_Node000006"><a xlink:title=" ">
<path fill="none" stroke="#63b8ff" d="M329.85,-111.55C314.35,-102.52 294.87,-91.17 279.45,-82.19"/>
<polygon fill="#63b8ff" stroke="#63b8ff" points="281.24,-79.18 270.83,-77.17 277.71,-85.23 281.24,-79.18"/>
</a>
</g>
</g>
<!-- Node7 -->
<g id="Node000007" class="node">
<title>Node7</title>
<g id="a_Node000007"><a xlink:title=" ">
<polygon fill="#e0e0e0" stroke="#999999" points="462,-76 410.75,-76 410.75,-56 462,-56 462,-76"/>
<text xml:space="preserve" text-anchor="middle" x="436.38" y="-62.5" font-family="Helvetica,sans-Serif" font-size="10.00">memory</text>
</a>
</g>
</g>
<!-- Node5&#45;&gt;Node7 -->
<g id="edge7_Node000005_Node000007" class="edge">
<title>Node5&#45;&gt;Node7</title>
<g id="a_edge7_Node000005_Node000007"><a xlink:title=" ">
<path fill="none" stroke="#63b8ff" d="M376.98,-111.55C388.55,-102.87 402.98,-92.04 414.72,-83.24"/>
<polygon fill="#63b8ff" stroke="#63b8ff" points="416.72,-86.12 422.62,-77.32 412.52,-80.52 416.72,-86.12"/>
</a>
</g>
</g>
<!-- Node8 -->
<g id="Node000008" class="node">
<title>Node8</title>
<g id="a_Node000008"><a xlink:title=" ">
<polygon fill="#e0e0e0" stroke="#999999" points="392.88,-76 349.88,-76 349.88,-56 392.88,-56 392.88,-76"/>
<text xml:space="preserve" text-anchor="middle" x="371.38" y="-62.5" font-family="Helvetica,sans-Serif" font-size="10.00">mutex</text>
</a>
</g>
</g>
<!-- Node5&#45;&gt;Node8 -->
<g id="edge8_Node000005_Node000008" class="edge">
<title>Node5&#45;&gt;Node8</title>
<g id="a_edge8_Node000005_Node000008"><a xlink:title=" ">
<path fill="none" stroke="#63b8ff" d="M360.24,-111.55C362.08,-104.17 364.31,-95.24 366.29,-87.32"/>
<polygon fill="#63b8ff" stroke="#63b8ff" points="369.63,-88.43 368.66,-77.88 362.83,-86.73 369.63,-88.43"/>
</a>
</g>
</g>
<!-- Node6&#45;&gt;Node3 -->
<g id="edge6_Node000006_Node000003" class="edge">
<title>Node6&#45;&gt;Node3</title>
<g id="a_edge6_Node000006_Node000003"><a xlink:title=" ">
<path fill="none" stroke="#63b8ff" d="M243.97,-55.59C236.46,-48.08 225.73,-37.35 216.68,-28.3"/>
<polygon fill="#63b8ff" stroke="#63b8ff" points="219.29,-25.96 209.74,-21.37 214.34,-30.91 219.29,-25.96"/>
</a>
</g>
</g>
<!-- Node9&#45;&gt;Node3 -->
<g id="edge12_Node000009_Node000003" class="edge">
<title>Node9&#45;&gt;Node3</title>
<g id="a_edge12_Node000009_Node000003"><a xlink:title=" ">
<path fill="none" stroke="#63b8ff" d="M423.37,-181.47C460.86,-172.38 502.26,-159.3 513.38,-144 521.74,-132.49 517.87,-125.49 513.38,-112 503.54,-82.49 497.97,-72.15 471.38,-56 433.45,-32.98 307.83,-19.7 241.4,-14.13"/>
<polygon fill="#63b8ff" stroke="#63b8ff" points="241.87,-10.66 231.62,-13.33 241.3,-17.63 241.87,-10.66"/>
</a>
</g>
</g>
<!-- Node9&#45;&gt;Node5 -->
<g id="edge10_Node000009_Node000005" class="edge">
<title>Node9&#45;&gt;Node5</title>
<g id="a_edge10_Node000009_Node000005"><a xlink:title=" ">
<path fill="none" stroke="#63b8ff" d="M356.38,-179.69C356.38,-172.53 356.38,-163.79 356.38,-155.59"/>
<polygon fill="#63b8ff" stroke="#63b8ff" points="359.88,-155.74 356.38,-145.74 352.88,-155.74 359.88,-155.74"/>
</a>
</g>
</g>
<!-- Node9&#45;&gt;Node6 -->
<g id="edge11_Node000009_Node000006" class="edge">
<title>Node9&#45;&gt;Node6</title>
<g id="a_edge11_Node000009_Node000006"><a xlink:title=" ">
<path fill="none" stroke="#63b8ff" d="M333.99,-179.53C321.59,-170.21 306.49,-157.56 295.38,-144 280.92,-126.38 269.01,-103.04 261.61,-86.7"/>
<polygon fill="#63b8ff" stroke="#63b8ff" points="264.85,-85.37 257.65,-77.6 258.44,-88.16 264.85,-85.37"/>
</a>
</g>
</g>
<!-- Node9&#45;&gt;Node7 -->
<g id="edge13_Node000009_Node000007" class="edge">
<title>Node9&#45;&gt;Node7</title>
<g id="a_edge13_Node000009_Node000007"><a xlink:title=" ">
<path fill="none" stroke="#63b8ff" d="M381.38,-179.67C393.95,-170.74 408.38,-158.4 417.38,-144 428.18,-126.69 432.85,-103.61 434.86,-87.25"/>
<polygon fill="#63b8ff" stroke="#63b8ff" points="438.29,-88.05 435.79,-77.76 431.33,-87.37 438.29,-88.05"/>
</a>
</g>
</g>
<!-- Node10 -->
<g id="Node000010" class="node">
<title>Node10</title>
<g id="a_Node000010"><a xlink:title=" ">
<polygon fill="#e0e0e0" stroke="#999999" points="504.38,-138 464.38,-138 464.38,-118 504.38,-118 504.38,-138"/>
<text xml:space="preserve" text-anchor="middle" x="484.38" y="-124.5" font-family="Helvetica,sans-Serif" font-size="10.00">string</text>
</a>
</g>
</g>
<!-- Node9&#45;&gt;Node10 -->
<g id="edge14_Node000009_Node000010" class="edge">
<title>Node9&#45;&gt;Node10</title>
<g id="a_edge14_Node000009_Node000010"><a xlink:title=" ">
<path fill="none" stroke="#63b8ff" d="M386.39,-179.53C407.4,-168.69 435.31,-154.3 455.96,-143.65"/>
<polygon fill="#63b8ff" stroke="#63b8ff" points="457.4,-146.85 464.68,-139.15 454.19,-140.63 457.4,-146.85"/>
</a>
</g>
</g>
<!-- Node11&#45;&gt;Node3 -->
<g id="edge17_Node000011_Node000003" class="edge">
<title>Node11&#45;&gt;Node3</title>
<g id="a_edge17_Node000011_Node000003"><a xlink:title=" ">
<path fill="none" stroke="#63b8ff" d="M180.76,-117.77C171.87,-104.18 157.99,-78.02 165.38,-56 168.74,-45.97 175.32,-36.39 181.81,-28.66"/>
<polygon fill="#63b8ff" stroke="#63b8ff" points="184.29,-31.13 188.42,-21.38 179.11,-26.43 184.29,-31.13"/>
</a>
</g>
</g>
<!-- Node11&#45;&gt;Node6 -->
<g id="edge16_Node000011_Node000006" class="edge">
<title>Node11&#45;&gt;Node6</title>
<g id="a_edge16_Node000011_Node000006"><a xlink:title=" ">
<path fill="none" stroke="#63b8ff" d="M197.69,-117.62C207.63,-108.59 222.89,-94.72 234.92,-83.78"/>
<polygon fill="#63b8ff" stroke="#63b8ff" points="237.19,-86.45 242.23,-77.13 232.48,-81.27 237.19,-86.45"/>
</a>
</g>
</g>
</g>
</svg>

<g id="navigator" transform="translate(0 0)" fill="#404254">
  <rect fill="#f2f5e9" fill-opacity="0.5" stroke="#606060" stroke-width=".5" x="0" y="0" width="60" height="60"/>
  <use id="zoomplus" xlink:href="#zoomPlus" x="17" y="9" onmousedown="handleZoom(evt,'in')"/>
  <use id="zoomminus" xlink:href="#zoomMin" x="42" y="9" onmousedown="handleZoom(evt,'out')"/>
  <use id="reset" xlink:href="#resetDef" x="30" y="36" onmousedown="handleReset()"/>
   <use id="arrowup" xlink:href="#arrowUp" x="0" y="0" onmousedown="handlePan(0,-1)"/>
  <use id="arrowright" xlink:href="#arrowRight" x="0" y="0" onmousedown="handlePan(1,0)"/>
  <use id="arrowdown" xlink:href="#arrowDown" x="0" y="0" onmousedown="handlePan(0,1)"/>
  <use id="arrowleft" xlink:href="#arrowLeft" x="0" y="0" onmousedown="handlePan(-1,0)"/>
</g>
<svg viewBox="0 0 15 15" width="100%" height="30px" preserveAspectRatio="xMaxYMin meet">
 <g id="arrow_out" transform="scale(0.3 0.3)">
  <a xlink:href="AssetManagerTest_8cpp__incl_org.svg" target="_base">
   <rect id="button" ry="5" rx="5" y="6" x="6" height="38" width="38"
        fill="#f2f5e9" fill-opacity="0.5" stroke="#606060" stroke-width="1.0"/>
   <path id="arrow"
     d="M 11.500037,31.436501 C 11.940474,20.09759 22.043105,11.32322 32.158766,21.979434 L 37.068811,17.246167 C 37.068811,17.246167 37.088388,32 37.088388,32 L 22.160133,31.978069 C 22.160133,31.978069 26.997745,27.140456 26.997745,27.140456 C 18.528582,18.264221 13.291696,25.230495 11.500037,31.436501 z"
     style="fill:#404040;"/>
  </a>
 </g>
</svg>

<style type='text/css'>
<![CDATA[
[data-mouse-over-selected='false'] { opacity: 0.7; }
[data-mouse-over-selected='true']  { opacity: 1.0; }
]]>
</style>
<script type="application/ecmascript"><![CDATA[
document.addEventListener('DOMContentLoaded', (event) => {
  highlightEdges();
  highlightAdjacentNodes();
});
]]></script>
</svg>
