<?xml version="1.0" encoding="UTF-8" standalone="no"?>
<!DOCTYPE svg PUBLIC "-//W3C//DTD SVG 1.1//EN"
 "http://www.w3.org/Graphics/SVG/1.1/DTD/svg11.dtd">
<!-- Generated by graphviz version 13.1.2 (20250808.2320)
 -->
<!-- Title: dotnamecpp::v1::DotNameBotLib::stop Pages: 1 -->
<svg width="342pt" height="90pt"
 viewBox="0.00 0.00 342.00 90.00" xmlns="http://www.w3.org/2000/svg" xmlns:xlink="http://www.w3.org/1999/xlink">
<g id="graph0" class="graph" transform="scale(1 1) rotate(0) translate(4 86)">
<title>dotnamecpp::v1::DotNameBotLib::stop</title>
<!-- Node1 -->
<g id="Node000001" class="node">
<title>Node1</title>
<g id="a_Node000001"><a xlink:title="Stop all running bots.">
<polygon fill="#999999" stroke="#666666" points="333.5,-57 184.75,-57 184.75,-25 333.5,-25 333.5,-57"/>
<text xml:space="preserve" text-anchor="start" x="192.75" y="-43.5" font-family="Helvetica,sans-Serif" font-size="10.00">dotnamecpp::v1::DotNameBot</text>
<text xml:space="preserve" text-anchor="middle" x="259.12" y="-31.5" font-family="Helvetica,sans-Serif" font-size="10.00">Lib::stop</text>
</a>
</g>
</g>
<!-- Node2 -->
<g id="Node000002" class="node">
<title>Node2</title>
<g id="a_Node000002"><a xlink:href="classdotnamecpp_1_1v1_1_1DotNameBotLib.html#abc0f7ffd4ef59f4d7f685917d2be3914" target="_top" xlink:title="Run the bot orchestrator.">
<polygon fill="white" stroke="#666666" points="148.75,-82 0,-82 0,-50 148.75,-50 148.75,-82"/>
<text xml:space="preserve" text-anchor="start" x="8" y="-68.5" font-family="Helvetica,sans-Serif" font-size="10.00">dotnamecpp::v1::DotNameBot</text>
<text xml:space="preserve" text-anchor="middle" x="74.38" y="-56.5" font-family="Helvetica,sans-Serif" font-size="10.00">Lib::run</text>
</a>
</g>
</g>
<!-- Node1&#45;&gt;Node2 -->
<g id="edge1_Node000001_Node000002" class="edge">
<title>Node1&#45;&gt;Node2</title>
<g id="a_edge1_Node000001_Node000002"><a xlink:title=" ">
<path fill="none" stroke="#63b8ff" d="M173.09,-52.63C165.09,-53.73 157.04,-54.83 149.16,-55.91"/>
<polygon fill="#63b8ff" stroke="#63b8ff" points="173.39,-56.12 182.82,-51.3 172.44,-49.19 173.39,-56.12"/>
</a>
</g>
</g>
<!-- Node3 -->
<g id="Node000003" class="node">
<title>Node3</title>
<g id="a_Node000003"><a xlink:href="classdotnamecpp_1_1v1_1_1DotNameBotLib.html#a32b01a22a5f71db61c86bec25efc232f" target="_top" xlink:title="Destroy the object.">
<polygon fill="white" stroke="#666666" points="148.75,-32 0,-32 0,0 148.75,0 148.75,-32"/>
<text xml:space="preserve" text-anchor="start" x="8" y="-18.5" font-family="Helvetica,sans-Serif" font-size="10.00">dotnamecpp::v1::DotNameBot</text>
<text xml:space="preserve" text-anchor="middle" x="74.38" y="-6.5" font-family="Helvetica,sans-Serif" font-size="10.00">Lib::~DotNameBotLib</text>
</a>
</g>
</g>
<!-- Node1&#45;&gt;Node3 -->
<g id="edge2_Node000001_Node000003" class="edge">
<title>Node1&#45;&gt;Node3</title>
<g id="a_edge2_Node000001_Node000003"><a xlink:title=" ">
<path fill="none" stroke="#63b8ff" d="M173.09,-29.37C165.09,-28.27 157.04,-27.17 149.16,-26.09"/>
<polygon fill="#63b8ff" stroke="#63b8ff" points="172.44,-32.81 182.82,-30.7 173.39,-25.88 172.44,-32.81"/>
</a>
</g>
</g>
</g>
</svg>
