<?xml version="1.0" encoding="UTF-8" standalone="no"?>
<!DOCTYPE svg PUBLIC "-//W3C//DTD SVG 1.1//EN"
 "http://www.w3.org/Graphics/SVG/1.1/DTD/svg11.dtd">
<!-- Generated by graphviz version 13.1.2 (20250808.2320)
 -->
<!-- Title: dotnamecpp::discordbot::DiscordBot::getName Pages: 1 -->
<svg width="285pt" height="90pt"
 viewBox="0.00 0.00 285.00 90.00" xmlns="http://www.w3.org/2000/svg" xmlns:xlink="http://www.w3.org/1999/xlink">
<g id="graph0" class="graph" transform="scale(1 1) rotate(0) translate(4 86)">
<title>dotnamecpp::discordbot::DiscordBot::getName</title>
<!-- Node1 -->
<g id="Node000001" class="node">
<title>Node1</title>
<g id="a_Node000001"><a xlink:title="Get the Name object.">
<polygon fill="#999999" stroke="#666666" points="276.5,-57 156.25,-57 156.25,-25 276.5,-25 276.5,-57"/>
<text xml:space="preserve" text-anchor="start" x="164.25" y="-43.5" font-family="Helvetica,sans-Serif" font-size="10.00">dotnamecpp::discordbot</text>
<text xml:space="preserve" text-anchor="middle" x="216.38" y="-31.5" font-family="Helvetica,sans-Serif" font-size="10.00">::DiscordBot::getName</text>
</a>
</g>
</g>
<!-- Node2 -->
<g id="Node000002" class="node">
<title>Node2</title>
<g id="a_Node000002"><a xlink:href="classdotnamecpp_1_1discordbot_1_1DiscordBot.html#a5c2963ad0b530b93f96f5646de023b69" target="_top" xlink:title="Initialize the Discord bot.">
<polygon fill="white" stroke="#666666" points="120.25,-82 0,-82 0,-50 120.25,-50 120.25,-82"/>
<text xml:space="preserve" text-anchor="start" x="8" y="-68.5" font-family="Helvetica,sans-Serif" font-size="10.00">dotnamecpp::discordbot</text>
<text xml:space="preserve" text-anchor="middle" x="60.12" y="-56.5" font-family="Helvetica,sans-Serif" font-size="10.00">::DiscordBot::initialize</text>
</a>
</g>
</g>
<!-- Node1&#45;&gt;Node2 -->
<g id="edge1_Node000001_Node000002" class="edge">
<title>Node1&#45;&gt;Node2</title>
<g id="a_edge1_Node000001_Node000002"><a xlink:title=" ">
<path fill="none" stroke="#63b8ff" d="M144.85,-52.43C136.77,-53.74 128.59,-55.07 120.67,-56.35"/>
<polygon fill="#63b8ff" stroke="#63b8ff" points="145.37,-55.89 154.69,-50.84 144.25,-48.98 145.37,-55.89"/>
</a>
</g>
</g>
<!-- Node3 -->
<g id="Node000003" class="node">
<title>Node3</title>
<g id="a_Node000003"><a xlink:href="classdotnamecpp_1_1discordbot_1_1DiscordBot.html#a5f6245ac4c780609c215c1081ff097b8" target="_top" xlink:title="Start the Discord bot.">
<polygon fill="white" stroke="#666666" points="120.25,-32 0,-32 0,0 120.25,0 120.25,-32"/>
<text xml:space="preserve" text-anchor="start" x="8" y="-18.5" font-family="Helvetica,sans-Serif" font-size="10.00">dotnamecpp::discordbot</text>
<text xml:space="preserve" text-anchor="middle" x="60.12" y="-6.5" font-family="Helvetica,sans-Serif" font-size="10.00">::DiscordBot::start</text>
</a>
</g>
</g>
<!-- Node1&#45;&gt;Node3 -->
<g id="edge2_Node000001_Node000003" class="edge">
<title>Node1&#45;&gt;Node3</title>
<g id="a_edge2_Node000001_Node000003"><a xlink:title=" ">
<path fill="none" stroke="#63b8ff" d="M144.85,-29.57C136.77,-28.26 128.59,-26.93 120.67,-25.65"/>
<polygon fill="#63b8ff" stroke="#63b8ff" points="144.25,-33.02 154.69,-31.16 145.37,-26.11 144.25,-33.02"/>
</a>
</g>
</g>
</g>
</svg>
