<?xml version="1.0" encoding="UTF-8" standalone="no"?>
<!DOCTYPE svg PUBLIC "-//W3C//DTD SVG 1.1//EN"
 "http://www.w3.org/Graphics/SVG/1.1/DTD/svg11.dtd">
<!-- Generated by graphviz version 13.1.2 (20250808.2320)
 -->
<!-- Title: dotnamecpp::discordbot::DiscordBot::DiscordBot Pages: 1 -->
<svg width="692pt" height="90pt"
 viewBox="0.00 0.00 692.00 90.00" xmlns="http://www.w3.org/2000/svg" xmlns:xlink="http://www.w3.org/1999/xlink">
<g id="graph0" class="graph" transform="scale(1 1) rotate(0) translate(4 86)">
<title>dotnamecpp::discordbot::DiscordBot::DiscordBot</title>
<!-- Node1 -->
<g id="Node000001" class="node">
<title>Node1</title>
<g id="a_Node000001"><a xlink:title=" ">
<polygon fill="#999999" stroke="#666666" points="125.5,-57 0,-57 0,-25 125.5,-25 125.5,-57"/>
<text xml:space="preserve" text-anchor="start" x="8" y="-43.5" font-family="Helvetica,sans-Serif" font-size="10.00">dotnamecpp::discordbot</text>
<text xml:space="preserve" text-anchor="middle" x="62.75" y="-31.5" font-family="Helvetica,sans-Serif" font-size="10.00">::DiscordBot::DiscordBot</text>
</a>
</g>
</g>
<!-- Node2 -->
<g id="Node000002" class="node">
<title>Node2</title>
<g id="a_Node000002"><a xlink:href="classdotnamecpp_1_1utils_1_1UtilsFactory.html#aff59f9352b744e132ab2bbf5371eb52a" target="_top" xlink:title=" ">
<polygon fill="white" stroke="#666666" points="298.25,-63 161.5,-63 161.5,-19 298.25,-19 298.25,-63"/>
<text xml:space="preserve" text-anchor="start" x="169.5" y="-49.5" font-family="Helvetica,sans-Serif" font-size="10.00">dotnamecpp::utils::</text>
<text xml:space="preserve" text-anchor="start" x="169.5" y="-37.5" font-family="Helvetica,sans-Serif" font-size="10.00">UtilsFactory::createCustom</text>
<text xml:space="preserve" text-anchor="middle" x="229.88" y="-25.5" font-family="Helvetica,sans-Serif" font-size="10.00">StringsLoader</text>
</a>
</g>
</g>
<!-- Node1&#45;&gt;Node2 -->
<g id="edge1_Node000001_Node000002" class="edge">
<title>Node1&#45;&gt;Node2</title>
<g id="a_edge1_Node000001_Node000002"><a xlink:title=" ">
<path fill="none" stroke="#63b8ff" d="M125.71,-41C133.54,-41 141.65,-41 149.7,-41"/>
<polygon fill="#63b8ff" stroke="#63b8ff" points="149.52,-44.5 159.52,-41 149.52,-37.5 149.52,-44.5"/>
</a>
</g>
</g>
<!-- Node3 -->
<g id="Node000003" class="node">
<title>Node3</title>
<g id="a_Node000003"><a xlink:href="classdotnamecpp_1_1utils_1_1UtilsFactory.html#a9fcea5e7ff94872b54a8c01eb2d9c965" target="_top" xlink:title=" ">
<polygon fill="white" stroke="#666666" points="498,-57 334.25,-57 334.25,-25 498,-25 498,-57"/>
<text xml:space="preserve" text-anchor="start" x="342.25" y="-43.5" font-family="Helvetica,sans-Serif" font-size="10.00">dotnamecpp::utils::</text>
<text xml:space="preserve" text-anchor="middle" x="416.12" y="-31.5" font-family="Helvetica,sans-Serif" font-size="10.00">UtilsFactory::createJsonSerializer</text>
</a>
</g>
</g>
<!-- Node2&#45;&gt;Node3 -->
<g id="edge2_Node000002_Node000003" class="edge">
<title>Node2&#45;&gt;Node3</title>
<g id="a_edge2_Node000002_Node000003"><a xlink:title=" ">
<path fill="none" stroke="#63b8ff" d="M298.7,-41C306.51,-41 314.57,-41 322.64,-41"/>
<polygon fill="#63b8ff" stroke="#63b8ff" points="322.5,-44.5 332.5,-41 322.5,-37.5 322.5,-44.5"/>
</a>
</g>
</g>
<!-- Node4 -->
<g id="Node000004" class="node">
<title>Node4</title>
<g id="a_Node000004"><a xlink:href="classdotnamecpp_1_1utils_1_1UtilsFactory.html#ad559863ad0bfa1fe1805f82089cfe948" target="_top" xlink:title=" ">
<polygon fill="white" stroke="#666666" points="683.5,-82 534,-82 534,-50 683.5,-50 683.5,-82"/>
<text xml:space="preserve" text-anchor="start" x="542" y="-68.5" font-family="Helvetica,sans-Serif" font-size="10.00">dotnamecpp::utils::</text>
<text xml:space="preserve" text-anchor="middle" x="608.75" y="-56.5" font-family="Helvetica,sans-Serif" font-size="10.00">UtilsFactory::createFileReader</text>
</a>
</g>
</g>
<!-- Node3&#45;&gt;Node4 -->
<g id="edge3_Node000003_Node000004" class="edge">
<title>Node3&#45;&gt;Node4</title>
<g id="a_edge3_Node000003_Node000004"><a xlink:title=" ">
<path fill="none" stroke="#63b8ff" d="M498.24,-51.64C506.23,-52.69 514.36,-53.75 522.39,-54.81"/>
<polygon fill="#63b8ff" stroke="#63b8ff" points="521.78,-58.26 532.15,-56.09 522.69,-51.32 521.78,-58.26"/>
</a>
</g>
</g>
<!-- Node5 -->
<g id="Node000005" class="node">
<title>Node5</title>
<g id="a_Node000005"><a xlink:href="classdotnamecpp_1_1utils_1_1UtilsFactory.html#aa935a454b1b16e1f69ee05949cf37701" target="_top" xlink:title=" ">
<polygon fill="white" stroke="#666666" points="680.5,-32 537,-32 537,0 680.5,0 680.5,-32"/>
<text xml:space="preserve" text-anchor="start" x="545" y="-18.5" font-family="Helvetica,sans-Serif" font-size="10.00">dotnamecpp::utils::</text>
<text xml:space="preserve" text-anchor="middle" x="608.75" y="-6.5" font-family="Helvetica,sans-Serif" font-size="10.00">UtilsFactory::createFileWriter</text>
</a>
</g>
</g>
<!-- Node3&#45;&gt;Node5 -->
<g id="edge4_Node000003_Node000005" class="edge">
<title>Node3&#45;&gt;Node5</title>
<g id="a_edge4_Node000003_Node000005"><a xlink:title=" ">
<path fill="none" stroke="#63b8ff" d="M498.24,-30.36C507.22,-29.18 516.37,-27.98 525.36,-26.8"/>
<polygon fill="#63b8ff" stroke="#63b8ff" points="525.69,-30.29 535.15,-25.52 524.78,-23.35 525.69,-30.29"/>
</a>
</g>
</g>
</g>
</svg>
