<?xml version="1.0" encoding="UTF-8" standalone="no"?>
<!DOCTYPE svg PUBLIC "-//W3C//DTD SVG 1.1//EN"
 "http://www.w3.org/Graphics/SVG/1.1/DTD/svg11.dtd">
<!-- Generated by graphviz version 13.1.2 (20250808.2320)
 -->
<!-- Title: dotnamecpp::v1::DotNameBotLib::operator= Pages: 1 -->
<svg width="469pt" height="190pt"
 viewBox="0.00 0.00 469.00 190.00" xmlns="http://www.w3.org/2000/svg" xmlns:xlink="http://www.w3.org/1999/xlink">

<svg id="main" version="1.1" xmlns="http://www.w3.org/2000/svg" xmlns:xlink="http://www.w3.org/1999/xlink" xml:space="preserve">

<style type="text/css"><![CDATA[
.node, .edge {opacity: 0.7;}
.node.selected, .edge.selected {opacity: 1;}
.edge:hover path { stroke: red; }
.edge:hover polygon { stroke: red; fill: red; }
]]></style>
<script type="application/ecmascript" xlink:href="svg.min.js"/>
<svg id="graph" class="graph">
<g id="graph0" class="graph" transform="scale(1 1) rotate(0) translate(4 186)">
<title>dotnamecpp::v1::DotNameBotLib::operator=</title>
<!-- Node1 -->
<g id="Node000001" class="node">
<title>Node1</title>
<g id="a_Node000001"><a xlink:title=" ">
<polygon fill="#999999" stroke="#666666" points="148.75,-107 0,-107 0,-75 148.75,-75 148.75,-107"/>
<text xml:space="preserve" text-anchor="start" x="8" y="-93.5" font-family="Helvetica,sans-Serif" font-size="10.00">dotnamecpp::v1::DotNameBot</text>
<text xml:space="preserve" text-anchor="middle" x="74.38" y="-81.5" font-family="Helvetica,sans-Serif" font-size="10.00">Lib::operator=</text>
</a>
</g>
</g>
<!-- Node2 -->
<g id="Node000002" class="node">
<title>Node2</title>
<g id="a_Node000002"><a xlink:href="classdotnamecpp_1_1v1_1_1DotNameBotLib.html#ae52e0d55f95c209a522a006a93a84df9" target="_top" xlink:title="Construct a new object.">
<polygon fill="white" stroke="#666666" points="333.5,-182 184.75,-182 184.75,-150 333.5,-150 333.5,-182"/>
<text xml:space="preserve" text-anchor="start" x="192.75" y="-168.5" font-family="Helvetica,sans-Serif" font-size="10.00">dotnamecpp::v1::DotNameBot</text>
<text xml:space="preserve" text-anchor="middle" x="259.12" y="-156.5" font-family="Helvetica,sans-Serif" font-size="10.00">Lib::DotNameBotLib</text>
</a>
</g>
</g>
<!-- Node1&#45;&gt;Node2 -->
<g id="edge1_Node000001_Node000002" class="edge">
<title>Node1&#45;&gt;Node2</title>
<g id="a_edge1_Node000001_Node000002"><a xlink:title=" ">
<path fill="none" stroke="#63b8ff" d="M108.99,-107.43C130.43,-117.64 158.95,-130.74 184.75,-141 188.78,-142.6 192.97,-144.2 197.2,-145.77"/>
<polygon fill="#63b8ff" stroke="#63b8ff" points="195.74,-148.96 206.33,-149.07 198.12,-142.38 195.74,-148.96"/>
</a>
</g>
</g>
<!-- Node4 -->
<g id="Node000004" class="node">
<title>Node4</title>
<g id="a_Node000004"><a xlink:href="classdotnamecpp_1_1v1_1_1DotNameBotLib.html#ab68e0404a5a6e9d8ab37b5e276a3d305" target="_top" xlink:title="Get the assets directory path.">
<polygon fill="white" stroke="#666666" points="333.5,-132 184.75,-132 184.75,-100 333.5,-100 333.5,-132"/>
<text xml:space="preserve" text-anchor="start" x="192.75" y="-118.5" font-family="Helvetica,sans-Serif" font-size="10.00">dotnamecpp::v1::DotNameBot</text>
<text xml:space="preserve" text-anchor="middle" x="259.12" y="-106.5" font-family="Helvetica,sans-Serif" font-size="10.00">Lib::getAssetsPath</text>
</a>
</g>
</g>
<!-- Node1&#45;&gt;Node4 -->
<g id="edge3_Node000001_Node000004" class="edge">
<title>Node1&#45;&gt;Node4</title>
<g id="a_edge3_Node000001_Node000004"><a xlink:title=" ">
<path fill="none" stroke="#63b8ff" d="M149.18,-101.1C157.06,-102.17 165.12,-103.28 173.11,-104.37"/>
<polygon fill="#63b8ff" stroke="#63b8ff" points="172.46,-107.81 182.84,-105.7 173.41,-100.88 172.46,-107.81"/>
</a>
</g>
</g>
<!-- Node5 -->
<g id="Node000005" class="node">
<title>Node5</title>
<g id="a_Node000005"><a xlink:href="classdotnamecpp_1_1v1_1_1DotNameBotLib.html#a2a23b105d66905c1a4dbbb1dd0ae0ebc" target="_top" xlink:title="Get access to the bot orchestrator for custom bot registration.">
<polygon fill="white" stroke="#666666" points="333.5,-82 184.75,-82 184.75,-50 333.5,-50 333.5,-82"/>
<text xml:space="preserve" text-anchor="start" x="192.75" y="-68.5" font-family="Helvetica,sans-Serif" font-size="10.00">dotnamecpp::v1::DotNameBot</text>
<text xml:space="preserve" text-anchor="middle" x="259.12" y="-56.5" font-family="Helvetica,sans-Serif" font-size="10.00">Lib::getOrchestrator</text>
</a>
</g>
</g>
<!-- Node1&#45;&gt;Node5 -->
<g id="edge4_Node000001_Node000005" class="edge">
<title>Node1&#45;&gt;Node5</title>
<g id="a_edge4_Node000001_Node000005"><a xlink:title=" ">
<path fill="none" stroke="#63b8ff" d="M149.18,-80.9C157.06,-79.83 165.12,-78.72 173.11,-77.63"/>
<polygon fill="#63b8ff" stroke="#63b8ff" points="173.41,-81.12 182.84,-76.3 172.46,-74.19 173.41,-81.12"/>
</a>
</g>
</g>
<!-- Node6 -->
<g id="Node000006" class="node">
<title>Node6</title>
<g id="a_Node000006"><a xlink:href="classdotnamecpp_1_1v1_1_1DotNameBotLib.html#a1a291f6a6400a3cd1e88f14343c64084" target="_top" xlink:title="Get access to the service container for custom implementations.">
<polygon fill="white" stroke="#666666" points="333.5,-32 184.75,-32 184.75,0 333.5,0 333.5,-32"/>
<text xml:space="preserve" text-anchor="start" x="192.75" y="-18.5" font-family="Helvetica,sans-Serif" font-size="10.00">dotnamecpp::v1::DotNameBot</text>
<text xml:space="preserve" text-anchor="middle" x="259.12" y="-6.5" font-family="Helvetica,sans-Serif" font-size="10.00">Lib::getServices</text>
</a>
</g>
</g>
<!-- Node1&#45;&gt;Node6 -->
<g id="edge5_Node000001_Node000006" class="edge">
<title>Node1&#45;&gt;Node6</title>
<g id="a_edge5_Node000001_Node000006"><a xlink:title=" ">
<path fill="none" stroke="#63b8ff" d="M108.99,-74.57C130.43,-64.36 158.95,-51.26 184.75,-41 188.78,-39.4 192.97,-37.8 197.2,-36.23"/>
<polygon fill="#63b8ff" stroke="#63b8ff" points="198.12,-39.62 206.33,-32.93 195.74,-33.04 198.12,-39.62"/>
</a>
</g>
</g>
<!-- Node3 -->
<g id="Node000003" class="node">
<title>Node3</title>
<g id="a_Node000003"><a xlink:href="classOrchestrator.html#af145638b5eec3c1fb5befa8440a6c85b" target="_top" xlink:title="Add a lifecycle&#45;managed entity (bot, service, etc.)">
<polygon fill="white" stroke="#666666" points="461.25,-176 369.5,-176 369.5,-156 461.25,-156 461.25,-176"/>
<text xml:space="preserve" text-anchor="middle" x="415.38" y="-162.5" font-family="Helvetica,sans-Serif" font-size="10.00">Orchestrator::add</text>
</a>
</g>
</g>
<!-- Node2&#45;&gt;Node3 -->
<g id="edge2_Node000002_Node000003" class="edge">
<title>Node2&#45;&gt;Node3</title>
<g id="a_edge2_Node000002_Node000003"><a xlink:title=" ">
<path fill="none" stroke="#63b8ff" d="M333.64,-166C341.77,-166 349.96,-166 357.83,-166"/>
<polygon fill="#63b8ff" stroke="#63b8ff" points="357.6,-169.5 367.6,-166 357.6,-162.5 357.6,-169.5"/>
</a>
</g>
</g>
</g>
</svg>
</svg>

<style type='text/css'>
<![CDATA[
[data-mouse-over-selected='false'] { opacity: 0.7; }
[data-mouse-over-selected='true']  { opacity: 1.0; }
]]>
</style>
<script type="application/ecmascript"><![CDATA[
document.addEventListener('DOMContentLoaded', (event) => {
  highlightEdges();
  highlightAdjacentNodes();
});
]]></script>
</svg>
