<?xml version="1.0" encoding="UTF-8" standalone="no"?>
<!DOCTYPE svg PUBLIC "-//W3C//DTD SVG 1.1//EN"
 "http://www.w3.org/Graphics/SVG/1.1/DTD/svg11.dtd">
<!-- Generated by graphviz version 13.1.2 (20250808.2320)
 -->
<!-- Title: dotnamecpp::discordbot::DiscordBot::getName Pages: 1 -->
<svg width="285pt" height="108pt"
 viewBox="0.00 0.00 285.00 108.00" xmlns="http://www.w3.org/2000/svg" xmlns:xlink="http://www.w3.org/1999/xlink">
<g id="graph0" class="graph" transform="scale(1 1) rotate(0) translate(4 104)">
<title>dotnamecpp::discordbot::DiscordBot::getName</title>
<!-- Node1 -->
<g id="Node000001" class="node">
<title>Node1</title>
<g id="a_Node000001"><a xlink:title="Get the Name object.">
<polygon fill="#999999" stroke="#666666" points="276.5,-66 156.25,-66 156.25,-34 276.5,-34 276.5,-66"/>
<text xml:space="preserve" text-anchor="start" x="164.25" y="-52.5" font-family="Helvetica,sans-Serif" font-size="10.00">dotnamecpp::discordbot</text>
<text xml:space="preserve" text-anchor="middle" x="216.38" y="-40.5" font-family="Helvetica,sans-Serif" font-size="10.00">::DiscordBot::getName</text>
</a>
</g>
</g>
<!-- Node2 -->
<g id="Node000002" class="node">
<title>Node2</title>
<g id="a_Node000002"><a xlink:href="classdotnamecpp_1_1discordbot_1_1DiscordBot.html#a5c2963ad0b530b93f96f5646de023b69" target="_top" xlink:title="Initialize the Discord bot.">
<polygon fill="white" stroke="#666666" points="120.25,-100 0,-100 0,-68 120.25,-68 120.25,-100"/>
<text xml:space="preserve" text-anchor="start" x="8" y="-86.5" font-family="Helvetica,sans-Serif" font-size="10.00">dotnamecpp::discordbot</text>
<text xml:space="preserve" text-anchor="middle" x="60.12" y="-74.5" font-family="Helvetica,sans-Serif" font-size="10.00">::DiscordBot::initialize</text>
</a>
</g>
</g>
<!-- Node1&#45;&gt;Node2 -->
<g id="edge1_Node000001_Node000002" class="edge">
<title>Node1&#45;&gt;Node2</title>
<g id="a_edge1_Node000001_Node000002"><a xlink:title=" ">
<path fill="none" stroke="#63b8ff" d="M145.13,-65.48C136.96,-67.28 128.68,-69.11 120.67,-70.87"/>
<polygon fill="#63b8ff" stroke="#63b8ff" points="145.69,-68.94 154.7,-63.37 144.18,-62.11 145.69,-68.94"/>
</a>
</g>
</g>
<!-- Node3 -->
<g id="Node000003" class="node">
<title>Node3</title>
<g id="a_Node000003"><a xlink:href="classdotnamecpp_1_1discordbot_1_1DiscordBot.html#a5f6245ac4c780609c215c1081ff097b8" target="_top" xlink:title="Start the Discord bot.">
<polygon fill="white" stroke="#666666" points="120.25,-32 0,-32 0,0 120.25,0 120.25,-32"/>
<text xml:space="preserve" text-anchor="start" x="8" y="-18.5" font-family="Helvetica,sans-Serif" font-size="10.00">dotnamecpp::discordbot</text>
<text xml:space="preserve" text-anchor="middle" x="60.12" y="-6.5" font-family="Helvetica,sans-Serif" font-size="10.00">::DiscordBot::start</text>
</a>
</g>
</g>
<!-- Node1&#45;&gt;Node3 -->
<g id="edge2_Node000001_Node000003" class="edge">
<title>Node1&#45;&gt;Node3</title>
<g id="a_edge2_Node000001_Node000003"><a xlink:title=" ">
<path fill="none" stroke="#63b8ff" d="M145.13,-34.52C136.96,-32.72 128.68,-30.89 120.67,-29.13"/>
<polygon fill="#63b8ff" stroke="#63b8ff" points="144.18,-37.89 154.7,-36.63 145.69,-31.06 144.18,-37.89"/>
</a>
</g>
</g>
<!-- Node3&#45;&gt;Node3 -->
<g id="edge3_Node000003_Node000003" class="edge">
<title>Node3&#45;&gt;Node3</title>
<g id="a_edge3_Node000003_Node000003"><a xlink:title=" ">
<path fill="none" stroke="#63b8ff" d="M86.16,-43.71C81.82,-47.48 73.14,-50 60.12,-50 36.32,-50 27.02,-41.58 32.23,-32.44"/>
<polygon fill="#63b8ff" stroke="#63b8ff" points="89.6,-44.37 87.77,-33.94 82.69,-43.23 89.6,-44.37"/>
</a>
</g>
</g>
</g>
</svg>
