<?xml version="1.0" encoding="UTF-8" standalone="no"?>
<!DOCTYPE svg PUBLIC "-//W3C//DTD SVG 1.1//EN"
 "http://www.w3.org/Graphics/SVG/1.1/DTD/svg11.dtd">
<!-- Generated by graphviz version 13.1.2 (20250808.2320)
 -->
<!-- Title: dotnamecpp::v1::DotNameBotLib::operator= Pages: 1 -->
<svg width="526pt" height="78pt"
 viewBox="0.00 0.00 526.00 78.00" xmlns="http://www.w3.org/2000/svg" xmlns:xlink="http://www.w3.org/1999/xlink">
<g id="graph0" class="graph" transform="scale(1 1) rotate(0) translate(4 74)">
<title>dotnamecpp::v1::DotNameBotLib::operator=</title>
<!-- Node1 -->
<g id="Node000001" class="node">
<title>Node1</title>
<g id="a_Node000001"><a xlink:title=" ">
<polygon fill="#999999" stroke="#666666" points="148.75,-54 0,-54 0,-22 148.75,-22 148.75,-54"/>
<text xml:space="preserve" text-anchor="start" x="8" y="-40.5" font-family="Helvetica,sans-Serif" font-size="10.00">dotnamecpp::v1::DotNameBot</text>
<text xml:space="preserve" text-anchor="middle" x="74.38" y="-28.5" font-family="Helvetica,sans-Serif" font-size="10.00">Lib::operator=</text>
</a>
</g>
</g>
<!-- Node2 -->
<g id="Node000002" class="node">
<title>Node2</title>
<g id="a_Node000002"><a xlink:href="classdotnamecpp_1_1v1_1_1DotNameBotLib.html#a63804da7fabebf5d7a06691687a8ec0d" target="_top" xlink:title=" ">
<polygon fill="white" stroke="#666666" points="333.5,-54 184.75,-54 184.75,-22 333.5,-22 333.5,-54"/>
<text xml:space="preserve" text-anchor="start" x="192.75" y="-40.5" font-family="Helvetica,sans-Serif" font-size="10.00">dotnamecpp::v1::DotNameBot</text>
<text xml:space="preserve" text-anchor="middle" x="259.12" y="-28.5" font-family="Helvetica,sans-Serif" font-size="10.00">Lib::DotNameBotLib</text>
</a>
</g>
</g>
<!-- Node1&#45;&gt;Node2 -->
<g id="edge1_Node000001_Node000002" class="edge">
<title>Node1&#45;&gt;Node2</title>
<g id="a_edge1_Node000001_Node000002"><a xlink:title=" ">
<path fill="none" stroke="#63b8ff" d="M149.18,-38C156.97,-38 164.93,-38 172.83,-38"/>
<polygon fill="#63b8ff" stroke="#63b8ff" points="172.83,-41.5 182.83,-38 172.83,-34.5 172.83,-41.5"/>
</a>
</g>
</g>
<!-- Node3 -->
<g id="Node000003" class="node">
<title>Node3</title>
<g id="a_Node000003"><a xlink:href="classOrchestrator.html#af145638b5eec3c1fb5befa8440a6c85b" target="_top" xlink:title="Add a lifecycle&#45;managed entity (bot, service, etc.)">
<polygon fill="white" stroke="#666666" points="489.75,-70 398,-70 398,-50 489.75,-50 489.75,-70"/>
<text xml:space="preserve" text-anchor="middle" x="443.88" y="-56.5" font-family="Helvetica,sans-Serif" font-size="10.00">Orchestrator::add</text>
</a>
</g>
</g>
<!-- Node2&#45;&gt;Node3 -->
<g id="edge2_Node000002_Node000003" class="edge">
<title>Node2&#45;&gt;Node3</title>
<g id="a_edge2_Node000002_Node000003"><a xlink:title=" ">
<path fill="none" stroke="#63b8ff" d="M333.93,-46.88C351.48,-49 369.92,-51.22 386.54,-53.22"/>
<polygon fill="#63b8ff" stroke="#63b8ff" points="385.88,-56.66 396.22,-54.38 386.71,-49.71 385.88,-56.66"/>
</a>
</g>
</g>
<!-- Node4 -->
<g id="Node000004" class="node">
<title>Node4</title>
<g id="a_Node000004"><a xlink:href="classdotnamecpp_1_1v1_1_1DotNameBotLib.html#a815e934c0126c1b5f89b46011bfd22b3" target="_top" xlink:title=" ">
<polygon fill="white" stroke="#666666" points="518.25,-32 369.5,-32 369.5,0 518.25,0 518.25,-32"/>
<text xml:space="preserve" text-anchor="start" x="377.5" y="-18.5" font-family="Helvetica,sans-Serif" font-size="10.00">dotnamecpp::v1::DotNameBot</text>
<text xml:space="preserve" text-anchor="middle" x="443.88" y="-6.5" font-family="Helvetica,sans-Serif" font-size="10.00">Lib::startOrchestration</text>
</a>
</g>
</g>
<!-- Node2&#45;&gt;Node4 -->
<g id="edge3_Node000002_Node000004" class="edge">
<title>Node2&#45;&gt;Node4</title>
<g id="a_edge3_Node000002_Node000004"><a xlink:title=" ">
<path fill="none" stroke="#63b8ff" d="M333.93,-29.12C341.81,-28.17 349.87,-27.2 357.86,-26.23"/>
<polygon fill="#63b8ff" stroke="#63b8ff" points="358.08,-29.73 367.59,-25.06 357.24,-22.78 358.08,-29.73"/>
</a>
</g>
</g>
</g>
</svg>
