<?xml version="1.0" encoding="UTF-8" standalone="no"?>
<!DOCTYPE svg PUBLIC "-//W3C//DTD SVG 1.1//EN"
 "http://www.w3.org/Graphics/SVG/1.1/DTD/svg11.dtd">
<!-- Generated by graphviz version 13.1.2 (20250808.2320)
 -->
<!-- Title: dotnamecpp::utils::UtilsFactory::createJsonSerializer Pages: 1 -->
<svg width="506pt" height="102pt"
 viewBox="0.00 0.00 506.00 102.00" xmlns="http://www.w3.org/2000/svg" xmlns:xlink="http://www.w3.org/1999/xlink">
<g id="graph0" class="graph" transform="scale(1 1) rotate(0) translate(4 98)">
<title>dotnamecpp::utils::UtilsFactory::createJsonSerializer</title>
<!-- Node1 -->
<g id="Node000001" class="node">
<title>Node1</title>
<g id="a_Node000001"><a xlink:title=" ">
<polygon fill="#999999" stroke="#666666" points="498,-66 334.25,-66 334.25,-34 498,-34 498,-66"/>
<text xml:space="preserve" text-anchor="start" x="342.25" y="-52.5" font-family="Helvetica,sans-Serif" font-size="10.00">dotnamecpp::utils::</text>
<text xml:space="preserve" text-anchor="middle" x="416.12" y="-40.5" font-family="Helvetica,sans-Serif" font-size="10.00">UtilsFactory::createJsonSerializer</text>
</a>
</g>
</g>
<!-- Node2 -->
<g id="Node000002" class="node">
<title>Node2</title>
<g id="a_Node000002"><a xlink:href="classdotnamecpp_1_1utils_1_1UtilsFactory.html#afcf1273b868694eaeb8390bc41241049" target="_top" xlink:title=" ">
<polygon fill="white" stroke="#666666" points="296,-94 163.75,-94 163.75,-62 296,-62 296,-94"/>
<text xml:space="preserve" text-anchor="start" x="171.75" y="-80.5" font-family="Helvetica,sans-Serif" font-size="10.00">dotnamecpp::utils::</text>
<text xml:space="preserve" text-anchor="middle" x="229.88" y="-68.5" font-family="Helvetica,sans-Serif" font-size="10.00">UtilsFactory::createBundle</text>
</a>
</g>
</g>
<!-- Node1&#45;&gt;Node2 -->
<g id="edge1_Node000001_Node000002" class="edge">
<title>Node1&#45;&gt;Node2</title>
<g id="a_edge1_Node000001_Node000002"><a xlink:title=" ">
<path fill="none" stroke="#63b8ff" d="M322.57,-64.07C313.7,-65.41 304.84,-66.76 296.31,-68.06"/>
<polygon fill="#63b8ff" stroke="#63b8ff" points="322.92,-67.55 332.28,-62.59 321.87,-60.63 322.92,-67.55"/>
</a>
</g>
</g>
<!-- Node3 -->
<g id="Node000003" class="node">
<title>Node3</title>
<g id="a_Node000003"><a xlink:href="classdotnamecpp_1_1utils_1_1UtilsFactory.html#aff59f9352b744e132ab2bbf5371eb52a" target="_top" xlink:title=" ">
<polygon fill="white" stroke="#666666" points="298.25,-44 161.5,-44 161.5,0 298.25,0 298.25,-44"/>
<text xml:space="preserve" text-anchor="start" x="169.5" y="-30.5" font-family="Helvetica,sans-Serif" font-size="10.00">dotnamecpp::utils::</text>
<text xml:space="preserve" text-anchor="start" x="169.5" y="-18.5" font-family="Helvetica,sans-Serif" font-size="10.00">UtilsFactory::createCustom</text>
<text xml:space="preserve" text-anchor="middle" x="229.88" y="-6.5" font-family="Helvetica,sans-Serif" font-size="10.00">StringsLoader</text>
</a>
</g>
</g>
<!-- Node1&#45;&gt;Node3 -->
<g id="edge2_Node000001_Node000003" class="edge">
<title>Node1&#45;&gt;Node3</title>
<g id="a_edge2_Node000001_Node000003"><a xlink:title=" ">
<path fill="none" stroke="#63b8ff" d="M322.42,-35.91C314.38,-34.69 306.35,-33.47 298.56,-32.29"/>
<polygon fill="#63b8ff" stroke="#63b8ff" points="321.87,-39.37 332.28,-37.41 322.92,-32.45 321.87,-39.37"/>
</a>
</g>
</g>
<!-- Node4 -->
<g id="Node000004" class="node">
<title>Node4</title>
<g id="a_Node000004"><a xlink:href="classdotnamecpp_1_1discordbot_1_1DiscordBot.html#a5f59e738c73cd0ae6516b5214ba37f60" target="_top" xlink:title=" ">
<polygon fill="white" stroke="#666666" points="125.5,-38 0,-38 0,-6 125.5,-6 125.5,-38"/>
<text xml:space="preserve" text-anchor="start" x="8" y="-24.5" font-family="Helvetica,sans-Serif" font-size="10.00">dotnamecpp::discordbot</text>
<text xml:space="preserve" text-anchor="middle" x="62.75" y="-12.5" font-family="Helvetica,sans-Serif" font-size="10.00">::DiscordBot::DiscordBot</text>
</a>
</g>
</g>
<!-- Node3&#45;&gt;Node4 -->
<g id="edge3_Node000003_Node000004" class="edge">
<title>Node3&#45;&gt;Node4</title>
<g id="a_edge3_Node000003_Node000004"><a xlink:title=" ">
<path fill="none" stroke="#63b8ff" d="M149.93,-22C141.89,-22 133.8,-22 125.97,-22"/>
<polygon fill="#63b8ff" stroke="#63b8ff" points="149.72,-25.5 159.72,-22 149.72,-18.5 149.72,-25.5"/>
</a>
</g>
</g>
</g>
</svg>
