<?xml version="1.0" encoding="UTF-8" standalone="no"?>
<!DOCTYPE svg PUBLIC "-//W3C//DTD SVG 1.1//EN"
 "http://www.w3.org/Graphics/SVG/1.1/DTD/svg11.dtd">
<!-- Generated by graphviz version 13.1.2 (20250808.2320)
 -->
<!-- Title: dotnamecpp::discordbot::DiscordBot::stop Pages: 1 -->
<svg width="296pt" height="58pt"
 viewBox="0.00 0.00 296.00 58.00" xmlns="http://www.w3.org/2000/svg" xmlns:xlink="http://www.w3.org/1999/xlink">
<g id="graph0" class="graph" transform="scale(1 1) rotate(0) translate(4 54)">
<title>dotnamecpp::discordbot::DiscordBot::stop</title>
<!-- Node1 -->
<g id="Node000001" class="node">
<title>Node1</title>
<g id="a_Node000001"><a xlink:title="Stop the Discord bot.">
<polygon fill="#999999" stroke="#666666" points="287.75,-32 167.5,-32 167.5,0 287.75,0 287.75,-32"/>
<text xml:space="preserve" text-anchor="start" x="175.5" y="-18.5" font-family="Helvetica,sans-Serif" font-size="10.00">dotnamecpp::discordbot</text>
<text xml:space="preserve" text-anchor="middle" x="227.62" y="-6.5" font-family="Helvetica,sans-Serif" font-size="10.00">::DiscordBot::stop</text>
</a>
</g>
</g>
<!-- Node1&#45;&gt;Node1 -->
<g id="edge1_Node000001_Node000001" class="edge">
<title>Node1&#45;&gt;Node1</title>
<g id="a_edge1_Node000001_Node000001"><a xlink:title=" ">
<path fill="none" stroke="#63b8ff" d="M254.6,-43.71C250.1,-47.48 241.11,-50 227.62,-50 202.96,-50 193.33,-41.58 198.73,-32.44"/>
<polygon fill="#63b8ff" stroke="#63b8ff" points="258.04,-44.38 256.27,-33.93 251.14,-43.2 258.04,-44.38"/>
</a>
</g>
</g>
<!-- Node2 -->
<g id="Node000002" class="node">
<title>Node2</title>
<g id="a_Node000002"><a xlink:href="classdotnamecpp_1_1discordbot_1_1DiscordBot.html#aafee82c8d5c93b399b478f28ea336e7a" target="_top" xlink:title=" ">
<polygon fill="white" stroke="#666666" points="131.5,-32 0,-32 0,0 131.5,0 131.5,-32"/>
<text xml:space="preserve" text-anchor="start" x="8" y="-18.5" font-family="Helvetica,sans-Serif" font-size="10.00">dotnamecpp::discordbot</text>
<text xml:space="preserve" text-anchor="middle" x="65.75" y="-6.5" font-family="Helvetica,sans-Serif" font-size="10.00">::DiscordBot::~DiscordBot</text>
</a>
</g>
</g>
<!-- Node1&#45;&gt;Node2 -->
<g id="edge2_Node000001_Node000002" class="edge">
<title>Node1&#45;&gt;Node2</title>
<g id="a_edge2_Node000001_Node000002"><a xlink:title=" ">
<path fill="none" stroke="#63b8ff" d="M155.66,-16C147.78,-16 139.78,-16 131.97,-16"/>
<polygon fill="#63b8ff" stroke="#63b8ff" points="155.58,-19.5 165.58,-16 155.58,-12.5 155.58,-19.5"/>
</a>
</g>
</g>
</g>
</svg>
