<?xml version="1.0" encoding="UTF-8" standalone="no"?>
<!DOCTYPE svg PUBLIC "-//W3C//DTD SVG 1.1//EN"
 "http://www.w3.org/Graphics/SVG/1.1/DTD/svg11.dtd">
<!-- Generated by graphviz version 13.1.2 (20250808.2320)
 -->
<!-- Title: dotnamecpp::v1::DotNameBotLib::DotNameBotLib Pages: 1 -->
<svg width="342pt" height="190pt"
 viewBox="0.00 0.00 342.00 190.00" xmlns="http://www.w3.org/2000/svg" xmlns:xlink="http://www.w3.org/1999/xlink">
<g id="graph0" class="graph" transform="scale(1 1) rotate(0) translate(4 186)">
<title>dotnamecpp::v1::DotNameBotLib::DotNameBotLib</title>
<!-- Node1 -->
<g id="Node000001" class="node">
<title>Node1</title>
<g id="a_Node000001"><a xlink:title="Construct a new object.">
<polygon fill="#999999" stroke="#666666" points="333.5,-107 184.75,-107 184.75,-75 333.5,-75 333.5,-107"/>
<text xml:space="preserve" text-anchor="start" x="192.75" y="-93.5" font-family="Helvetica,sans-Serif" font-size="10.00">dotnamecpp::v1::DotNameBot</text>
<text xml:space="preserve" text-anchor="middle" x="259.12" y="-81.5" font-family="Helvetica,sans-Serif" font-size="10.00">Lib::DotNameBotLib</text>
</a>
</g>
</g>
<!-- Node2 -->
<g id="Node000002" class="node">
<title>Node2</title>
<g id="a_Node000002"><a xlink:href="classdotnamecpp_1_1v1_1_1DotNameBotLib.html#ab374c3465be88ad1b20cadc305d717ee" target="_top" xlink:title="Copy and move operations are deleted.">
<polygon fill="white" stroke="#666666" points="148.75,-182 0,-182 0,-150 148.75,-150 148.75,-182"/>
<text xml:space="preserve" text-anchor="start" x="8" y="-168.5" font-family="Helvetica,sans-Serif" font-size="10.00">dotnamecpp::v1::DotNameBot</text>
<text xml:space="preserve" text-anchor="middle" x="74.38" y="-156.5" font-family="Helvetica,sans-Serif" font-size="10.00">Lib::DotNameBotLib</text>
</a>
</g>
</g>
<!-- Node1&#45;&gt;Node2 -->
<g id="edge1_Node000001_Node000002" class="edge">
<title>Node1&#45;&gt;Node2</title>
<g id="a_edge1_Node000001_Node000002"><a xlink:title=" ">
<path fill="none" stroke="#63b8ff" d="M214.25,-112.28C194.44,-121.57 170.62,-132.3 148.75,-141 141.37,-143.93 133.5,-146.84 125.75,-149.59"/>
<polygon fill="#63b8ff" stroke="#63b8ff" points="215.6,-115.51 223.14,-108.07 212.6,-109.18 215.6,-115.51"/>
</a>
</g>
</g>
<!-- Node3 -->
<g id="Node000003" class="node">
<title>Node3</title>
<g id="a_Node000003"><a xlink:href="classdotnamecpp_1_1v1_1_1DotNameBotLib.html#a1f5dcbe232a7e66a327641490a35cbcf" target="_top" xlink:title=" ">
<polygon fill="white" stroke="#666666" points="148.75,-132 0,-132 0,-100 148.75,-100 148.75,-132"/>
<text xml:space="preserve" text-anchor="start" x="8" y="-118.5" font-family="Helvetica,sans-Serif" font-size="10.00">dotnamecpp::v1::DotNameBot</text>
<text xml:space="preserve" text-anchor="middle" x="74.38" y="-106.5" font-family="Helvetica,sans-Serif" font-size="10.00">Lib::DotNameBotLib</text>
</a>
</g>
</g>
<!-- Node1&#45;&gt;Node3 -->
<g id="edge2_Node000001_Node000003" class="edge">
<title>Node1&#45;&gt;Node3</title>
<g id="a_edge2_Node000001_Node000003"><a xlink:title=" ">
<path fill="none" stroke="#63b8ff" d="M173.09,-102.63C165.09,-103.73 157.04,-104.83 149.16,-105.91"/>
<polygon fill="#63b8ff" stroke="#63b8ff" points="173.39,-106.12 182.82,-101.3 172.44,-99.19 173.39,-106.12"/>
</a>
</g>
</g>
<!-- Node4 -->
<g id="Node000004" class="node">
<title>Node4</title>
<g id="a_Node000004"><a xlink:href="classdotnamecpp_1_1v1_1_1DotNameBotLib.html#a6b63d7f6b34fc161b9eb7ac490871584" target="_top" xlink:title=" ">
<polygon fill="white" stroke="#666666" points="148.75,-82 0,-82 0,-50 148.75,-50 148.75,-82"/>
<text xml:space="preserve" text-anchor="start" x="8" y="-68.5" font-family="Helvetica,sans-Serif" font-size="10.00">dotnamecpp::v1::DotNameBot</text>
<text xml:space="preserve" text-anchor="middle" x="74.38" y="-56.5" font-family="Helvetica,sans-Serif" font-size="10.00">Lib::operator=</text>
</a>
</g>
</g>
<!-- Node1&#45;&gt;Node4 -->
<g id="edge3_Node000001_Node000004" class="edge">
<title>Node1&#45;&gt;Node4</title>
<g id="a_edge3_Node000001_Node000004"><a xlink:title=" ">
<path fill="none" stroke="#63b8ff" d="M173.09,-79.37C165.09,-78.27 157.04,-77.17 149.16,-76.09"/>
<polygon fill="#63b8ff" stroke="#63b8ff" points="172.44,-82.81 182.82,-80.7 173.39,-75.88 172.44,-82.81"/>
</a>
</g>
</g>
<!-- Node5 -->
<g id="Node000005" class="node">
<title>Node5</title>
<g id="a_Node000005"><a xlink:href="classdotnamecpp_1_1v1_1_1DotNameBotLib.html#a16323839bbe707a325febf0a29583248" target="_top" xlink:title=" ">
<polygon fill="white" stroke="#666666" points="148.75,-32 0,-32 0,0 148.75,0 148.75,-32"/>
<text xml:space="preserve" text-anchor="start" x="8" y="-18.5" font-family="Helvetica,sans-Serif" font-size="10.00">dotnamecpp::v1::DotNameBot</text>
<text xml:space="preserve" text-anchor="middle" x="74.38" y="-6.5" font-family="Helvetica,sans-Serif" font-size="10.00">Lib::operator=</text>
</a>
</g>
</g>
<!-- Node1&#45;&gt;Node5 -->
<g id="edge4_Node000001_Node000005" class="edge">
<title>Node1&#45;&gt;Node5</title>
<g id="a_edge4_Node000001_Node000005"><a xlink:title=" ">
<path fill="none" stroke="#63b8ff" d="M214.25,-69.72C194.44,-60.43 170.62,-49.7 148.75,-41 141.37,-38.07 133.5,-35.16 125.75,-32.41"/>
<polygon fill="#63b8ff" stroke="#63b8ff" points="212.6,-72.82 223.14,-73.93 215.6,-66.49 212.6,-72.82"/>
</a>
</g>
</g>
</g>
</svg>
