<?xml version="1.0" encoding="UTF-8" standalone="no"?>
<!DOCTYPE svg PUBLIC "-//W3C//DTD SVG 1.1//EN"
 "http://www.w3.org/Graphics/SVG/1.1/DTD/svg11.dtd">
<!-- Generated by graphviz version 13.1.2 (20250808.2320)
 -->
<!-- Title: ILifeCycle::ILifeCycle Pages: 1 -->
<svg width="265pt" height="142pt"
 viewBox="0.00 0.00 265.00 142.00" xmlns="http://www.w3.org/2000/svg" xmlns:xlink="http://www.w3.org/1999/xlink">
<g id="graph0" class="graph" transform="scale(1 1) rotate(0) translate(4 138)">
<title>ILifeCycle::ILifeCycle</title>
<!-- Node1 -->
<g id="Node000001" class="node">
<title>Node1</title>
<g id="a_Node000001"><a xlink:title=" ">
<polygon fill="#999999" stroke="#666666" points="257,-77 146.5,-77 146.5,-57 257,-57 257,-77"/>
<text xml:space="preserve" text-anchor="middle" x="201.75" y="-63.5" font-family="Helvetica,sans-Serif" font-size="10.00">ILifeCycle::ILifeCycle</text>
</a>
</g>
</g>
<!-- Node2 -->
<g id="Node000002" class="node">
<title>Node2</title>
<g id="a_Node000002"><a xlink:href="classILifeCycle.html#a6ef5c4d6e474988f4654f761d7951a59" target="_top" xlink:title=" ">
<polygon fill="white" stroke="#666666" points="110.5,-134 0,-134 0,-114 110.5,-114 110.5,-134"/>
<text xml:space="preserve" text-anchor="middle" x="55.25" y="-120.5" font-family="Helvetica,sans-Serif" font-size="10.00">ILifeCycle::ILifeCycle</text>
</a>
</g>
</g>
<!-- Node1&#45;&gt;Node2 -->
<g id="edge1_Node000001_Node000002" class="edge">
<title>Node1&#45;&gt;Node2</title>
<g id="a_edge1_Node000001_Node000002"><a xlink:title=" ">
<path fill="none" stroke="#63b8ff" d="M166.72,-81.91C149.9,-89.13 129.24,-97.78 110.5,-105 102.96,-107.91 94.76,-110.87 87.07,-113.58"/>
<polygon fill="#63b8ff" stroke="#63b8ff" points="167.98,-85.18 175.77,-78 165.2,-78.76 167.98,-85.18"/>
</a>
</g>
</g>
<!-- Node3 -->
<g id="Node000003" class="node">
<title>Node3</title>
<g id="a_Node000003"><a xlink:href="classILifeCycle.html#a0be6fd7fa06617b62a28e818f2810970" target="_top" xlink:title=" ">
<polygon fill="white" stroke="#666666" points="110.5,-96 0,-96 0,-76 110.5,-76 110.5,-96"/>
<text xml:space="preserve" text-anchor="middle" x="55.25" y="-82.5" font-family="Helvetica,sans-Serif" font-size="10.00">ILifeCycle::ILifeCycle</text>
</a>
</g>
</g>
<!-- Node1&#45;&gt;Node3 -->
<g id="edge2_Node000001_Node000003" class="edge">
<title>Node1&#45;&gt;Node3</title>
<g id="a_edge2_Node000001_Node000003"><a xlink:title=" ">
<path fill="none" stroke="#63b8ff" d="M134.91,-75.66C126.9,-76.71 118.78,-77.78 110.96,-78.81"/>
<polygon fill="#63b8ff" stroke="#63b8ff" points="135.16,-79.15 144.62,-74.38 134.25,-72.21 135.16,-79.15"/>
</a>
</g>
</g>
<!-- Node4 -->
<g id="Node000004" class="node">
<title>Node4</title>
<g id="a_Node000004"><a xlink:href="classILifeCycle.html#a410325ff7ae3c89f8dc637f8e3fa395e" target="_top" xlink:title=" ">
<polygon fill="white" stroke="#666666" points="109,-58 1.5,-58 1.5,-38 109,-38 109,-58"/>
<text xml:space="preserve" text-anchor="middle" x="55.25" y="-44.5" font-family="Helvetica,sans-Serif" font-size="10.00">ILifeCycle::operator=</text>
</a>
</g>
</g>
<!-- Node1&#45;&gt;Node4 -->
<g id="edge3_Node000001_Node000004" class="edge">
<title>Node1&#45;&gt;Node4</title>
<g id="a_edge3_Node000001_Node000004"><a xlink:title=" ">
<path fill="none" stroke="#63b8ff" d="M134.86,-58.34C126.21,-57.2 117.44,-56.05 109.04,-54.94"/>
<polygon fill="#63b8ff" stroke="#63b8ff" points="134.25,-61.79 144.62,-59.62 135.16,-54.85 134.25,-61.79"/>
</a>
</g>
</g>
<!-- Node5 -->
<g id="Node000005" class="node">
<title>Node5</title>
<g id="a_Node000005"><a xlink:href="classILifeCycle.html#abb9391517095b322cace242d57a04a39" target="_top" xlink:title=" ">
<polygon fill="white" stroke="#666666" points="109,-20 1.5,-20 1.5,0 109,0 109,-20"/>
<text xml:space="preserve" text-anchor="middle" x="55.25" y="-6.5" font-family="Helvetica,sans-Serif" font-size="10.00">ILifeCycle::operator=</text>
</a>
</g>
</g>
<!-- Node1&#45;&gt;Node5 -->
<g id="edge4_Node000001_Node000005" class="edge">
<title>Node1&#45;&gt;Node5</title>
<g id="a_edge4_Node000001_Node000005"><a xlink:title=" ">
<path fill="none" stroke="#63b8ff" d="M166.72,-52.09C149.9,-44.87 129.24,-36.22 110.5,-29 102.96,-26.09 94.76,-23.13 87.07,-20.42"/>
<polygon fill="#63b8ff" stroke="#63b8ff" points="165.2,-55.24 175.77,-56 167.98,-48.82 165.2,-55.24"/>
</a>
</g>
</g>
</g>
</svg>
