<?xml version="1.0" encoding="UTF-8" standalone="no"?>
<!DOCTYPE svg PUBLIC "-//W3C//DTD SVG 1.1//EN"
 "http://www.w3.org/Graphics/SVG/1.1/DTD/svg11.dtd">
<!-- Generated by graphviz version 13.1.2 (20250808.2320)
 -->
<!-- Title: dotnamecpp::v1::DotNameBotLib::startOrchestration Pages: 1 -->
<!--zoomable 190 -->

<svg id="main" version="1.1" xmlns="http://www.w3.org/2000/svg" xmlns:xlink="http://www.w3.org/1999/xlink" xml:space="preserve" onload="init(evt)">

<style type="text/css"><![CDATA[
.node, .edge {opacity: 0.7;}
.node.selected, .edge.selected {opacity: 1;}
.edge:hover path { stroke: red; }
.edge:hover polygon { stroke: red; fill: red; }
]]></style>

<defs>
  <circle id="rim" cx="0" cy="0" r="7"/>
  <circle id="rim2" cx="0" cy="0" r="3.5"/>
  <g id="zoomPlus">
    <use xlink:href="#rim" fill="#404040"><set attributeName="fill" to="#808080" begin="zoomplus.mouseover" end="zoomplus.mouseout"/></use>
    <path d="M-4,0h8M0,-4v8" fill="none" stroke="white" stroke-width="1.5" pointer-events="none"/>
  </g>
  <g id="zoomMin">
    <use xlink:href="#rim" fill="#404040"><set attributeName="fill" to="#808080" begin="zoomminus.mouseover" end="zoomminus.mouseout"/></use>
    <path d="M-4,0h8" fill="none" stroke="white" stroke-width="1.5" pointer-events="none"/>
  </g>
  <g id="arrowUp" transform="translate(30 24)">
    <use xlink:href="#rim"/>
    <path pointer-events="none" fill="none" stroke="white" stroke-width="1.5" d="M0,-3.0v7 M-2.5,-0.5L0,-3.0L2.5,-0.5"/>
  </g>
  <g id="arrowRight" transform="rotate(90) translate(36 -43)">
    <use xlink:href="#rim"/>
    <path pointer-events="none" fill="none" stroke="white" stroke-width="1.5" d="M0,-3.0v7 M-2.5,-0.5L0,-3.0L2.5,-0.5"/>
  </g>
  <g id="arrowDown" transform="rotate(180) translate(-30 -48)">
    <use xlink:href="#rim"/>
    <path pointer-events="none" fill="none" stroke="white" stroke-width="1.5" d="M0,-3.0v7 M-2.5,-0.5L0,-3.0L2.5,-0.5"/>
  </g>
  <g id="arrowLeft" transform="rotate(270) translate(-36 17)">
    <use xlink:href="#rim"/>
    <path pointer-events="none" fill="none" stroke="white" stroke-width="1.5" d="M0,-3.0v7 M-2.5,-0.5L0,-3.0L2.5,-0.5"/>
  </g>
  <g id="resetDef">
    <use xlink:href="#rim2" fill="#404040"><set attributeName="fill" to="#808080" begin="reset.mouseover" end="reset.mouseout"/></use>
  </g>
</defs>
<script type="application/ecmascript">
var viewWidth = 526;
var viewHeight = 190;
var sectionId = 'dynsection-7';
</script>
<script type="application/ecmascript" xlink:href="svg.min.js"/>
<svg id="graph" class="graph">
<g id="viewport">
<title>dotnamecpp::v1::DotNameBotLib::startOrchestration</title>
<!-- Node1 -->
<g id="Node000001" class="node">
<title>Node1</title>
<g id="a_Node000001"><a xlink:title=" ">
<polygon fill="#999999" stroke="#666666" points="518.25,-107 369.5,-107 369.5,-75 518.25,-75 518.25,-107"/>
<text xml:space="preserve" text-anchor="start" x="377.5" y="-93.5" font-family="Helvetica,sans-Serif" font-size="10.00">dotnamecpp::v1::DotNameBot</text>
<text xml:space="preserve" text-anchor="middle" x="443.88" y="-81.5" font-family="Helvetica,sans-Serif" font-size="10.00">Lib::startOrchestration</text>
</a>
</g>
</g>
<!-- Node2 -->
<g id="Node000002" class="node">
<title>Node2</title>
<g id="a_Node000002"><a xlink:href="classdotnamecpp_1_1v1_1_1DotNameBotLib.html#a63804da7fabebf5d7a06691687a8ec0d" target="_top" xlink:title=" ">
<polygon fill="white" stroke="#666666" points="333.5,-107 184.75,-107 184.75,-75 333.5,-75 333.5,-107"/>
<text xml:space="preserve" text-anchor="start" x="192.75" y="-93.5" font-family="Helvetica,sans-Serif" font-size="10.00">dotnamecpp::v1::DotNameBot</text>
<text xml:space="preserve" text-anchor="middle" x="259.12" y="-81.5" font-family="Helvetica,sans-Serif" font-size="10.00">Lib::DotNameBotLib</text>
</a>
</g>
</g>
<!-- Node1&#45;&gt;Node2 -->
<g id="edge1_Node000001_Node000002" class="edge">
<title>Node1&#45;&gt;Node2</title>
<g id="a_edge1_Node000001_Node000002"><a xlink:title=" ">
<path fill="none" stroke="#63b8ff" d="M357.56,-91C349.66,-91 341.69,-91 333.91,-91"/>
<polygon fill="#63b8ff" stroke="#63b8ff" points="357.56,-94.5 367.56,-91 357.56,-87.5 357.56,-94.5"/>
</a>
</g>
</g>
<!-- Node3 -->
<g id="Node000003" class="node">
<title>Node3</title>
<g id="a_Node000003"><a xlink:href="classdotnamecpp_1_1v1_1_1DotNameBotLib.html#ab374c3465be88ad1b20cadc305d717ee" target="_top" xlink:title=" ">
<polygon fill="white" stroke="#666666" points="148.75,-182 0,-182 0,-150 148.75,-150 148.75,-182"/>
<text xml:space="preserve" text-anchor="start" x="8" y="-168.5" font-family="Helvetica,sans-Serif" font-size="10.00">dotnamecpp::v1::DotNameBot</text>
<text xml:space="preserve" text-anchor="middle" x="74.38" y="-156.5" font-family="Helvetica,sans-Serif" font-size="10.00">Lib::DotNameBotLib</text>
</a>
</g>
</g>
<!-- Node2&#45;&gt;Node3 -->
<g id="edge2_Node000002_Node000003" class="edge">
<title>Node2&#45;&gt;Node3</title>
<g id="a_edge2_Node000002_Node000003"><a xlink:title=" ">
<path fill="none" stroke="#63b8ff" d="M214.25,-112.28C194.44,-121.57 170.62,-132.3 148.75,-141 141.37,-143.93 133.5,-146.84 125.75,-149.59"/>
<polygon fill="#63b8ff" stroke="#63b8ff" points="215.6,-115.51 223.14,-108.07 212.6,-109.18 215.6,-115.51"/>
</a>
</g>
</g>
<!-- Node4 -->
<g id="Node000004" class="node">
<title>Node4</title>
<g id="a_Node000004"><a xlink:href="classdotnamecpp_1_1v1_1_1DotNameBotLib.html#a1f5dcbe232a7e66a327641490a35cbcf" target="_top" xlink:title=" ">
<polygon fill="white" stroke="#666666" points="148.75,-132 0,-132 0,-100 148.75,-100 148.75,-132"/>
<text xml:space="preserve" text-anchor="start" x="8" y="-118.5" font-family="Helvetica,sans-Serif" font-size="10.00">dotnamecpp::v1::DotNameBot</text>
<text xml:space="preserve" text-anchor="middle" x="74.38" y="-106.5" font-family="Helvetica,sans-Serif" font-size="10.00">Lib::DotNameBotLib</text>
</a>
</g>
</g>
<!-- Node2&#45;&gt;Node4 -->
<g id="edge3_Node000002_Node000004" class="edge">
<title>Node2&#45;&gt;Node4</title>
<g id="a_edge3_Node000002_Node000004"><a xlink:title=" ">
<path fill="none" stroke="#63b8ff" d="M173.09,-102.63C165.09,-103.73 157.04,-104.83 149.16,-105.91"/>
<polygon fill="#63b8ff" stroke="#63b8ff" points="173.39,-106.12 182.82,-101.3 172.44,-99.19 173.39,-106.12"/>
</a>
</g>
</g>
<!-- Node5 -->
<g id="Node000005" class="node">
<title>Node5</title>
<g id="a_Node000005"><a xlink:href="classdotnamecpp_1_1v1_1_1DotNameBotLib.html#a6b63d7f6b34fc161b9eb7ac490871584" target="_top" xlink:title=" ">
<polygon fill="white" stroke="#666666" points="148.75,-82 0,-82 0,-50 148.75,-50 148.75,-82"/>
<text xml:space="preserve" text-anchor="start" x="8" y="-68.5" font-family="Helvetica,sans-Serif" font-size="10.00">dotnamecpp::v1::DotNameBot</text>
<text xml:space="preserve" text-anchor="middle" x="74.38" y="-56.5" font-family="Helvetica,sans-Serif" font-size="10.00">Lib::operator=</text>
</a>
</g>
</g>
<!-- Node2&#45;&gt;Node5 -->
<g id="edge4_Node000002_Node000005" class="edge">
<title>Node2&#45;&gt;Node5</title>
<g id="a_edge4_Node000002_Node000005"><a xlink:title=" ">
<path fill="none" stroke="#63b8ff" d="M173.09,-79.37C165.09,-78.27 157.04,-77.17 149.16,-76.09"/>
<polygon fill="#63b8ff" stroke="#63b8ff" points="172.44,-82.81 182.82,-80.7 173.39,-75.88 172.44,-82.81"/>
</a>
</g>
</g>
<!-- Node6 -->
<g id="Node000006" class="node">
<title>Node6</title>
<g id="a_Node000006"><a xlink:href="classdotnamecpp_1_1v1_1_1DotNameBotLib.html#a16323839bbe707a325febf0a29583248" target="_top" xlink:title=" ">
<polygon fill="white" stroke="#666666" points="148.75,-32 0,-32 0,0 148.75,0 148.75,-32"/>
<text xml:space="preserve" text-anchor="start" x="8" y="-18.5" font-family="Helvetica,sans-Serif" font-size="10.00">dotnamecpp::v1::DotNameBot</text>
<text xml:space="preserve" text-anchor="middle" x="74.38" y="-6.5" font-family="Helvetica,sans-Serif" font-size="10.00">Lib::operator=</text>
</a>
</g>
</g>
<!-- Node2&#45;&gt;Node6 -->
<g id="edge5_Node000002_Node000006" class="edge">
<title>Node2&#45;&gt;Node6</title>
<g id="a_edge5_Node000002_Node000006"><a xlink:title=" ">
<path fill="none" stroke="#63b8ff" d="M214.25,-69.72C194.44,-60.43 170.62,-49.7 148.75,-41 141.37,-38.07 133.5,-35.16 125.75,-32.41"/>
<polygon fill="#63b8ff" stroke="#63b8ff" points="212.6,-72.82 223.14,-73.93 215.6,-66.49 212.6,-72.82"/>
</a>
</g>
</g>
</g>
</svg>

<g id="navigator" transform="translate(0 0)" fill="#404254">
  <rect fill="#f2f5e9" fill-opacity="0.5" stroke="#606060" stroke-width=".5" x="0" y="0" width="60" height="60"/>
  <use id="zoomplus" xlink:href="#zoomPlus" x="17" y="9" onmousedown="handleZoom(evt,'in')"/>
  <use id="zoomminus" xlink:href="#zoomMin" x="42" y="9" onmousedown="handleZoom(evt,'out')"/>
  <use id="reset" xlink:href="#resetDef" x="30" y="36" onmousedown="handleReset()"/>
   <use id="arrowup" xlink:href="#arrowUp" x="0" y="0" onmousedown="handlePan(0,-1)"/>
  <use id="arrowright" xlink:href="#arrowRight" x="0" y="0" onmousedown="handlePan(1,0)"/>
  <use id="arrowdown" xlink:href="#arrowDown" x="0" y="0" onmousedown="handlePan(0,1)"/>
  <use id="arrowleft" xlink:href="#arrowLeft" x="0" y="0" onmousedown="handlePan(-1,0)"/>
</g>
<svg viewBox="0 0 15 15" width="100%" height="30px" preserveAspectRatio="xMaxYMin meet">
 <g id="arrow_out" transform="scale(0.3 0.3)">
  <a xlink:href="classdotnamecpp_1_1v1_1_1DotNameBotLib_a815e934c0126c1b5f89b46011bfd22b3_icgraph_org.svg" target="_base">
   <rect id="button" ry="5" rx="5" y="6" x="6" height="38" width="38"
        fill="#f2f5e9" fill-opacity="0.5" stroke="#606060" stroke-width="1.0"/>
   <path id="arrow"
     d="M 11.500037,31.436501 C 11.940474,20.09759 22.043105,11.32322 32.158766,21.979434 L 37.068811,17.246167 C 37.068811,17.246167 37.088388,32 37.088388,32 L 22.160133,31.978069 C 22.160133,31.978069 26.997745,27.140456 26.997745,27.140456 C 18.528582,18.264221 13.291696,25.230495 11.500037,31.436501 z"
     style="fill:#404040;"/>
  </a>
 </g>
</svg>

<style type='text/css'>
<![CDATA[
[data-mouse-over-selected='false'] { opacity: 0.7; }
[data-mouse-over-selected='true']  { opacity: 1.0; }
]]>
</style>
<script type="application/ecmascript"><![CDATA[
document.addEventListener('DOMContentLoaded', (event) => {
  highlightEdges();
  highlightAdjacentNodes();
});
]]></script>
</svg>
