<?xml version="1.0" encoding="UTF-8" standalone="no"?>
<!DOCTYPE svg PUBLIC "-//W3C//DTD SVG 1.1//EN"
 "http://www.w3.org/Graphics/SVG/1.1/DTD/svg11.dtd">
<!-- Generated by graphviz version 13.1.2 (20250808.2320)
 -->
<!-- Title: ServiceContainer::ServiceContainer Pages: 1 -->
<svg width="312pt" height="166pt"
 viewBox="0.00 0.00 312.00 166.00" xmlns="http://www.w3.org/2000/svg" xmlns:xlink="http://www.w3.org/1999/xlink">
<g id="graph0" class="graph" transform="scale(1 1) rotate(0) translate(4 162)">
<title>ServiceContainer::ServiceContainer</title>
<!-- Node1 -->
<g id="Node000001" class="node">
<title>Node1</title>
<g id="a_Node000001"><a xlink:title=" ">
<polygon fill="#999999" stroke="#666666" points="304.25,-104 174.25,-104 174.25,-72 304.25,-72 304.25,-104"/>
<text xml:space="preserve" text-anchor="start" x="182.25" y="-90.5" font-family="Helvetica,sans-Serif" font-size="10.00">ServiceContainer::Service</text>
<text xml:space="preserve" text-anchor="middle" x="239.25" y="-78.5" font-family="Helvetica,sans-Serif" font-size="10.00">Container</text>
</a>
</g>
</g>
<!-- Node2 -->
<g id="Node000002" class="node">
<title>Node2</title>
<g id="a_Node000002"><a xlink:href="classServiceContainer.html#a8a99dfde262c96da6581673a6ab28eb4" target="_top" xlink:title=" ">
<polygon fill="white" stroke="#666666" points="138.25,-158 0,-158 0,-138 138.25,-138 138.25,-158"/>
<text xml:space="preserve" text-anchor="middle" x="69.12" y="-144.5" font-family="Helvetica,sans-Serif" font-size="10.00">ServiceContainer::operator=</text>
</a>
</g>
</g>
<!-- Node1&#45;&gt;Node2 -->
<g id="edge1_Node000001_Node000002" class="edge">
<title>Node1&#45;&gt;Node2</title>
<g id="a_edge1_Node000001_Node000002"><a xlink:title=" ">
<path fill="none" stroke="#63b8ff" d="M190.68,-108.84C174.23,-115.68 155.58,-123.06 138.25,-129 129.42,-132.03 119.83,-134.93 110.71,-137.52"/>
<polygon fill="#63b8ff" stroke="#63b8ff" points="191.88,-112.13 199.74,-105.02 189.16,-105.68 191.88,-112.13"/>
</a>
</g>
</g>
<!-- Node3 -->
<g id="Node000003" class="node">
<title>Node3</title>
<g id="a_Node000003"><a xlink:href="classServiceContainer.html#aa560be08997f1fc5fa282437aa961f9a" target="_top" xlink:title=" ">
<polygon fill="white" stroke="#666666" points="138.25,-120 0,-120 0,-100 138.25,-100 138.25,-120"/>
<text xml:space="preserve" text-anchor="middle" x="69.12" y="-106.5" font-family="Helvetica,sans-Serif" font-size="10.00">ServiceContainer::operator=</text>
</a>
</g>
</g>
<!-- Node1&#45;&gt;Node3 -->
<g id="edge2_Node000001_Node000003" class="edge">
<title>Node1&#45;&gt;Node3</title>
<g id="a_edge2_Node000001_Node000003"><a xlink:title=" ">
<path fill="none" stroke="#63b8ff" d="M162.93,-97.86C154.88,-98.91 146.71,-99.98 138.75,-101.02"/>
<polygon fill="#63b8ff" stroke="#63b8ff" points="163.25,-101.34 172.71,-96.58 162.34,-94.4 163.25,-101.34"/>
</a>
</g>
</g>
<!-- Node4 -->
<g id="Node000004" class="node">
<title>Node4</title>
<g id="a_Node000004"><a xlink:href="classServiceContainer.html#a7a674fa2b2bcb15c0cd8385a33368112" target="_top" xlink:title=" ">
<polygon fill="white" stroke="#666666" points="134.12,-82 4.12,-82 4.12,-50 134.12,-50 134.12,-82"/>
<text xml:space="preserve" text-anchor="start" x="12.12" y="-68.5" font-family="Helvetica,sans-Serif" font-size="10.00">ServiceContainer::Service</text>
<text xml:space="preserve" text-anchor="middle" x="69.12" y="-56.5" font-family="Helvetica,sans-Serif" font-size="10.00">Container</text>
</a>
</g>
</g>
<!-- Node1&#45;&gt;Node4 -->
<g id="edge3_Node000001_Node000004" class="edge">
<title>Node1&#45;&gt;Node4</title>
<g id="a_edge3_Node000001_Node000004"><a xlink:title=" ">
<path fill="none" stroke="#63b8ff" d="M162.81,-78.13C153.37,-76.89 143.79,-75.64 134.54,-74.43"/>
<polygon fill="#63b8ff" stroke="#63b8ff" points="162.34,-81.6 172.71,-79.42 163.25,-74.66 162.34,-81.6"/>
</a>
</g>
</g>
<!-- Node5 -->
<g id="Node000005" class="node">
<title>Node5</title>
<g id="a_Node000005"><a xlink:href="classServiceContainer.html#ac9c9b92273263cecff1a0ae46adc7547" target="_top" xlink:title=" ">
<polygon fill="white" stroke="#666666" points="134.12,-32 4.12,-32 4.12,0 134.12,0 134.12,-32"/>
<text xml:space="preserve" text-anchor="start" x="12.12" y="-18.5" font-family="Helvetica,sans-Serif" font-size="10.00">ServiceContainer::Service</text>
<text xml:space="preserve" text-anchor="middle" x="69.12" y="-6.5" font-family="Helvetica,sans-Serif" font-size="10.00">Container</text>
</a>
</g>
</g>
<!-- Node1&#45;&gt;Node5 -->
<g id="edge4_Node000001_Node000005" class="edge">
<title>Node1&#45;&gt;Node5</title>
<g id="a_edge4_Node000001_Node000005"><a xlink:title=" ">
<path fill="none" stroke="#63b8ff" d="M195.31,-66.81C177.77,-58.42 157.19,-48.91 138.25,-41 131.27,-38.09 123.83,-35.17 116.51,-32.4"/>
<polygon fill="#63b8ff" stroke="#63b8ff" points="193.35,-69.75 203.88,-70.94 196.39,-63.44 193.35,-69.75"/>
</a>
</g>
</g>
</g>
</svg>
