<?xml version="1.0" encoding="UTF-8" standalone="no"?>
<!DOCTYPE svg PUBLIC "-//W3C//DTD SVG 1.1//EN"
 "http://www.w3.org/Graphics/SVG/1.1/DTD/svg11.dtd">
<!-- Generated by graphviz version 13.1.2 (20250808.2320)
 -->
<!-- Title: dotnamecpp::v1::DotNameBotLib::DotNameBotLib Pages: 1 -->
<svg width="342pt" height="78pt"
 viewBox="0.00 0.00 342.00 78.00" xmlns="http://www.w3.org/2000/svg" xmlns:xlink="http://www.w3.org/1999/xlink">
<g id="graph0" class="graph" transform="scale(1 1) rotate(0) translate(4 74)">
<title>dotnamecpp::v1::DotNameBotLib::DotNameBotLib</title>
<!-- Node1 -->
<g id="Node000001" class="node">
<title>Node1</title>
<g id="a_Node000001"><a xlink:title=" ">
<polygon fill="#999999" stroke="#666666" points="148.75,-54 0,-54 0,-22 148.75,-22 148.75,-54"/>
<text xml:space="preserve" text-anchor="start" x="8" y="-40.5" font-family="Helvetica,sans-Serif" font-size="10.00">dotnamecpp::v1::DotNameBot</text>
<text xml:space="preserve" text-anchor="middle" x="74.38" y="-28.5" font-family="Helvetica,sans-Serif" font-size="10.00">Lib::DotNameBotLib</text>
</a>
</g>
</g>
<!-- Node2 -->
<g id="Node000002" class="node">
<title>Node2</title>
<g id="a_Node000002"><a xlink:href="classOrchestrator.html#af145638b5eec3c1fb5befa8440a6c85b" target="_top" xlink:title="Add a lifecycle&#45;managed entity (bot, service, etc.)">
<polygon fill="white" stroke="#666666" points="305,-70 213.25,-70 213.25,-50 305,-50 305,-70"/>
<text xml:space="preserve" text-anchor="middle" x="259.12" y="-56.5" font-family="Helvetica,sans-Serif" font-size="10.00">Orchestrator::add</text>
</a>
</g>
</g>
<!-- Node1&#45;&gt;Node2 -->
<g id="edge1_Node000001_Node000002" class="edge">
<title>Node1&#45;&gt;Node2</title>
<g id="a_edge1_Node000001_Node000002"><a xlink:title=" ">
<path fill="none" stroke="#63b8ff" d="M149.18,-46.88C166.73,-49 185.17,-51.22 201.79,-53.22"/>
<polygon fill="#63b8ff" stroke="#63b8ff" points="201.13,-56.66 211.47,-54.38 201.96,-49.71 201.13,-56.66"/>
</a>
</g>
</g>
<!-- Node3 -->
<g id="Node000003" class="node">
<title>Node3</title>
<g id="a_Node000003"><a xlink:href="classdotnamecpp_1_1v1_1_1DotNameBotLib.html#a815e934c0126c1b5f89b46011bfd22b3" target="_top" xlink:title=" ">
<polygon fill="white" stroke="#666666" points="333.5,-32 184.75,-32 184.75,0 333.5,0 333.5,-32"/>
<text xml:space="preserve" text-anchor="start" x="192.75" y="-18.5" font-family="Helvetica,sans-Serif" font-size="10.00">dotnamecpp::v1::DotNameBot</text>
<text xml:space="preserve" text-anchor="middle" x="259.12" y="-6.5" font-family="Helvetica,sans-Serif" font-size="10.00">Lib::startOrchestration</text>
</a>
</g>
</g>
<!-- Node1&#45;&gt;Node3 -->
<g id="edge2_Node000001_Node000003" class="edge">
<title>Node1&#45;&gt;Node3</title>
<g id="a_edge2_Node000001_Node000003"><a xlink:title=" ">
<path fill="none" stroke="#63b8ff" d="M149.18,-29.12C157.06,-28.17 165.12,-27.2 173.11,-26.23"/>
<polygon fill="#63b8ff" stroke="#63b8ff" points="173.33,-29.73 182.84,-25.06 172.49,-22.78 173.33,-29.73"/>
</a>
</g>
</g>
</g>
</svg>
