<?xml version="1.0" encoding="UTF-8" standalone="no"?>
<!DOCTYPE svg PUBLIC "-//W3C//DTD SVG 1.1//EN"
 "http://www.w3.org/Graphics/SVG/1.1/DTD/svg11.dtd">
<!-- Generated by graphviz version 13.1.2 (20250808.2320)
 -->
<!-- Title: application/tests/ConsoleLoggerTest.cpp Pages: 1 -->
<svg width="826pt" height="220pt"
 viewBox="0.00 0.00 826.00 220.00" xmlns="http://www.w3.org/2000/svg" xmlns:xlink="http://www.w3.org/1999/xlink">
<g id="graph0" class="graph" transform="scale(1 1) rotate(0) translate(4 216)">
<title>application/tests/ConsoleLoggerTest.cpp</title>
<!-- Node1 -->
<g id="Node000001" class="node">
<title>Node1</title>
<g id="a_Node000001"><a xlink:title=" ">
<polygon fill="#999999" stroke="#666666" points="251.5,-212 125.25,-212 125.25,-180 251.5,-180 251.5,-212"/>
<text xml:space="preserve" text-anchor="start" x="133.25" y="-198.5" font-family="Helvetica,sans-Serif" font-size="10.00">application/tests/Console</text>
<text xml:space="preserve" text-anchor="middle" x="188.38" y="-186.5" font-family="Helvetica,sans-Serif" font-size="10.00">LoggerTest.cpp</text>
</a>
</g>
</g>
<!-- Node2 -->
<g id="Node000002" class="node">
<title>Node2</title>
<g id="a_Node000002"><a xlink:title=" ">
<polygon fill="#e0e0e0" stroke="#999999" points="70.75,-138 0,-138 0,-118 70.75,-118 70.75,-138"/>
<text xml:space="preserve" text-anchor="middle" x="35.38" y="-124.5" font-family="Helvetica,sans-Serif" font-size="10.00">gtest/gtest.h</text>
</a>
</g>
</g>
<!-- Node1&#45;&gt;Node2 -->
<g id="edge1_Node000001_Node000002" class="edge">
<title>Node1&#45;&gt;Node2</title>
<g id="a_edge1_Node000001_Node000002"><a xlink:title=" ">
<path fill="none" stroke="#63b8ff" d="M152.5,-179.53C126.81,-168.44 92.49,-153.64 67.65,-142.92"/>
<polygon fill="#63b8ff" stroke="#63b8ff" points="69.26,-139.81 58.69,-139.06 66.49,-146.23 69.26,-139.81"/>
</a>
</g>
</g>
<!-- Node3 -->
<g id="Node000003" class="node">
<title>Node3</title>
<g id="a_Node000003"><a xlink:title=" ">
<polygon fill="#e0e0e0" stroke="#999999" points="172,-76 126.75,-76 126.75,-56 172,-56 172,-76"/>
<text xml:space="preserve" text-anchor="middle" x="149.38" y="-62.5" font-family="Helvetica,sans-Serif" font-size="10.00">chrono</text>
</a>
</g>
</g>
<!-- Node1&#45;&gt;Node3 -->
<g id="edge2_Node000001_Node000003" class="edge">
<title>Node1&#45;&gt;Node3</title>
<g id="a_edge2_Node000001_Node000003"><a xlink:title=" ">
<path fill="none" stroke="#63b8ff" d="M183.67,-179.56C176.64,-156.47 163.37,-112.94 155.56,-87.31"/>
<polygon fill="#63b8ff" stroke="#63b8ff" points="158.92,-86.32 152.66,-77.77 152.22,-88.36 158.92,-86.32"/>
</a>
</g>
</g>
<!-- Node4 -->
<g id="Node000004" class="node">
<title>Node4</title>
<g id="a_Node000004"><a xlink:title=" ">
<polygon fill="#e0e0e0" stroke="#999999" points="238.88,-76 189.88,-76 189.88,-56 238.88,-56 238.88,-76"/>
<text xml:space="preserve" text-anchor="middle" x="214.38" y="-62.5" font-family="Helvetica,sans-Serif" font-size="10.00">fstream</text>
</a>
</g>
</g>
<!-- Node1&#45;&gt;Node4 -->
<g id="edge3_Node000001_Node000004" class="edge">
<title>Node1&#45;&gt;Node4</title>
<g id="a_edge3_Node000001_Node000004"><a xlink:title=" ">
<path fill="none" stroke="#63b8ff" d="M191.51,-179.56C196.2,-156.47 205.04,-112.94 210.25,-87.31"/>
<polygon fill="#63b8ff" stroke="#63b8ff" points="213.62,-88.31 212.18,-77.81 206.76,-86.91 213.62,-88.31"/>
</a>
</g>
</g>
<!-- Node5 -->
<g id="Node000005" class="node">
<title>Node5</title>
<g id="a_Node000005"><a xlink:title=" ">
<polygon fill="#e0e0e0" stroke="#999999" points="199,-20 147.75,-20 147.75,0 199,0 199,-20"/>
<text xml:space="preserve" text-anchor="middle" x="173.38" y="-6.5" font-family="Helvetica,sans-Serif" font-size="10.00">memory</text>
</a>
</g>
</g>
<!-- Node1&#45;&gt;Node5 -->
<g id="edge4_Node000001_Node000005" class="edge">
<title>Node1&#45;&gt;Node5</title>
<g id="a_edge4_Node000001_Node000005"><a xlink:title=" ">
<path fill="none" stroke="#63b8ff" d="M175.5,-179.72C158.3,-158.22 128.69,-117.05 117.38,-76 115.01,-67.43 113.53,-64.02 117.38,-56 123.19,-43.86 134.06,-33.95 144.69,-26.56"/>
<polygon fill="#63b8ff" stroke="#63b8ff" points="146.4,-29.62 152.95,-21.3 142.64,-23.72 146.4,-29.62"/>
</a>
</g>
</g>
<!-- Node6 -->
<g id="Node000006" class="node">
<title>Node6</title>
<g id="a_Node000006"><a xlink:title=" ">
<polygon fill="#e0e0e0" stroke="#999999" points="540.88,-138 497.88,-138 497.88,-118 540.88,-118 540.88,-138"/>
<text xml:space="preserve" text-anchor="middle" x="519.38" y="-124.5" font-family="Helvetica,sans-Serif" font-size="10.00">thread</text>
</a>
</g>
</g>
<!-- Node1&#45;&gt;Node6 -->
<g id="edge5_Node000001_Node000006" class="edge">
<title>Node1&#45;&gt;Node6</title>
<g id="a_edge5_Node000001_Node000006"><a xlink:title=" ">
<path fill="none" stroke="#63b8ff" d="M251.94,-189.73C313.77,-183.34 409.77,-170 489.38,-144 490.34,-143.68 491.32,-143.34 492.3,-142.98"/>
<polygon fill="#63b8ff" stroke="#63b8ff" points="493.46,-146.29 501.23,-139.08 490.66,-139.87 493.46,-146.29"/>
</a>
</g>
</g>
<!-- Node7 -->
<g id="Node000007" class="node">
<title>Node7</title>
<g id="a_Node000007"><a xlink:href="ConsoleLogger_8hpp.html" target="_top" xlink:title=" ">
<polygon fill="white" stroke="#666666" points="479.88,-144 376.88,-144 376.88,-112 479.88,-112 479.88,-144"/>
<text xml:space="preserve" text-anchor="start" x="384.88" y="-130.5" font-family="Helvetica,sans-Serif" font-size="10.00">../../src/Utils/Logger</text>
<text xml:space="preserve" text-anchor="middle" x="428.38" y="-118.5" font-family="Helvetica,sans-Serif" font-size="10.00">/ConsoleLogger.hpp</text>
</a>
</g>
</g>
<!-- Node1&#45;&gt;Node7 -->
<g id="edge6_Node000001_Node000007" class="edge">
<title>Node1&#45;&gt;Node7</title>
<g id="a_edge6_Node000001_Node000007"><a xlink:title=" ">
<path fill="none" stroke="#63b8ff" d="M244.64,-179.53C280.96,-169.54 328.25,-156.53 365.76,-146.22"/>
<polygon fill="#63b8ff" stroke="#63b8ff" points="366.38,-149.68 375.1,-143.65 364.53,-142.93 366.38,-149.68"/>
</a>
</g>
</g>
<!-- Node7&#45;&gt;Node3 -->
<g id="edge13_Node000007_Node000003" class="edge">
<title>Node7&#45;&gt;Node3</title>
<g id="a_edge13_Node000007_Node000003"><a xlink:title=" ">
<path fill="none" stroke="#63b8ff" d="M376.81,-117.64C328.92,-108.67 255.41,-94.19 183.41,-76.62"/>
<polygon fill="#63b8ff" stroke="#63b8ff" points="184.36,-73.25 173.81,-74.25 182.68,-80.04 184.36,-73.25"/>
</a>
</g>
</g>
<!-- Node7&#45;&gt;Node4 -->
<g id="edge14_Node000007_Node000004" class="edge">
<title>Node7&#45;&gt;Node4</title>
<g id="a_edge14_Node000007_Node000004"><a xlink:title=" ">
<path fill="none" stroke="#63b8ff" d="M376.57,-112.48C337.45,-101.51 284.78,-86.74 250.22,-77.05"/>
<polygon fill="#63b8ff" stroke="#63b8ff" points="251.27,-73.71 240.69,-74.38 249.38,-80.45 251.27,-73.71"/>
</a>
</g>
</g>
<!-- Node8 -->
<g id="Node000008" class="node">
<title>Node8</title>
<g id="a_Node000008"><a xlink:href="ILogger_8hpp.html" target="_top" xlink:title=" ">
<polygon fill="white" stroke="#666666" points="430.88,-76 363.88,-76 363.88,-56 430.88,-56 430.88,-76"/>
<text xml:space="preserve" text-anchor="middle" x="397.38" y="-62.5" font-family="Helvetica,sans-Serif" font-size="10.00">ILogger.hpp</text>
</a>
</g>
</g>
<!-- Node7&#45;&gt;Node8 -->
<g id="edge7_Node000007_Node000008" class="edge">
<title>Node7&#45;&gt;Node8</title>
<g id="a_edge7_Node000007_Node000008"><a xlink:title=" ">
<path fill="none" stroke="#63b8ff" d="M420.39,-111.55C416.45,-103.91 411.64,-94.61 407.44,-86.49"/>
<polygon fill="#63b8ff" stroke="#63b8ff" points="410.63,-85.03 402.93,-77.75 404.41,-88.24 410.63,-85.03"/>
</a>
</g>
</g>
<!-- Node9 -->
<g id="Node000009" class="node">
<title>Node9</title>
<g id="a_Node000009"><a xlink:title=" ">
<polygon fill="#e0e0e0" stroke="#999999" points="352.5,-20 292.25,-20 292.25,0 352.5,0 352.5,-20"/>
<text xml:space="preserve" text-anchor="middle" x="322.38" y="-6.5" font-family="Helvetica,sans-Serif" font-size="10.00">fmt/core.h</text>
</a>
</g>
</g>
<!-- Node7&#45;&gt;Node9 -->
<g id="edge22_Node000007_Node000009" class="edge">
<title>Node7&#45;&gt;Node9</title>
<g id="a_edge22_Node000007_Node000009"><a xlink:title=" ">
<path fill="none" stroke="#63b8ff" d="M399.84,-111.63C385.19,-102.69 367.85,-90.35 355.38,-76 343.82,-62.7 335.07,-44.64 329.5,-30.94"/>
<polygon fill="#63b8ff" stroke="#63b8ff" points="332.79,-29.75 325.96,-21.65 326.25,-32.24 332.79,-29.75"/>
</a>
</g>
</g>
<!-- Node11 -->
<g id="Node000011" class="node">
<title>Node11</title>
<g id="a_Node000011"><a xlink:title=" ">
<polygon fill="#e0e0e0" stroke="#999999" points="485,-20 433.75,-20 433.75,0 485,0 485,-20"/>
<text xml:space="preserve" text-anchor="middle" x="459.38" y="-6.5" font-family="Helvetica,sans-Serif" font-size="10.00">sstream</text>
</a>
</g>
</g>
<!-- Node7&#45;&gt;Node11 -->
<g id="edge19_Node000007_Node000011" class="edge">
<title>Node7&#45;&gt;Node11</title>
<g id="a_edge19_Node000007_Node000011"><a xlink:title=" ">
<path fill="none" stroke="#63b8ff" d="M432.43,-111.84C437.94,-91.22 447.8,-54.29 453.95,-31.31"/>
<polygon fill="#63b8ff" stroke="#63b8ff" points="457.26,-32.46 456.46,-21.9 450.5,-30.66 457.26,-32.46"/>
</a>
</g>
</g>
<!-- Node12 -->
<g id="Node000012" class="node">
<title>Node12</title>
<g id="a_Node000012"><a xlink:title=" ">
<polygon fill="#e0e0e0" stroke="#999999" points="543.38,-20 503.38,-20 503.38,0 543.38,0 543.38,-20"/>
<text xml:space="preserve" text-anchor="middle" x="523.38" y="-6.5" font-family="Helvetica,sans-Serif" font-size="10.00">string</text>
</a>
</g>
</g>
<!-- Node7&#45;&gt;Node12 -->
<g id="edge20_Node000007_Node000012" class="edge">
<title>Node7&#45;&gt;Node12</title>
<g id="a_edge20_Node000007_Node000012"><a xlink:title=" ">
<path fill="none" stroke="#63b8ff" d="M440.79,-111.84C458.22,-90.56 489.88,-51.9 508.53,-29.13"/>
<polygon fill="#63b8ff" stroke="#63b8ff" points="511.06,-31.56 514.69,-21.61 505.64,-27.13 511.06,-31.56"/>
</a>
</g>
</g>
<!-- Node13 -->
<g id="Node000013" class="node">
<title>Node13</title>
<g id="a_Node000013"><a xlink:title=" ">
<polygon fill="#e0e0e0" stroke="#999999" points="575.25,-76 525.5,-76 525.5,-56 575.25,-56 575.25,-76"/>
<text xml:space="preserve" text-anchor="middle" x="550.38" y="-62.5" font-family="Helvetica,sans-Serif" font-size="10.00">iomanip</text>
</a>
</g>
</g>
<!-- Node7&#45;&gt;Node13 -->
<g id="edge15_Node000007_Node000013" class="edge">
<title>Node7&#45;&gt;Node13</title>
<g id="a_edge15_Node000007_Node000013"><a xlink:title=" ">
<path fill="none" stroke="#63b8ff" d="M459.79,-111.55C478.68,-102.26 502.56,-90.52 521.05,-81.42"/>
<polygon fill="#63b8ff" stroke="#63b8ff" points="522.46,-84.63 529.89,-77.08 519.37,-78.35 522.46,-84.63"/>
</a>
</g>
</g>
<!-- Node14 -->
<g id="Node000014" class="node">
<title>Node14</title>
<g id="a_Node000014"><a xlink:title=" ">
<polygon fill="#e0e0e0" stroke="#999999" points="647.12,-76 593.62,-76 593.62,-56 647.12,-56 647.12,-76"/>
<text xml:space="preserve" text-anchor="middle" x="620.38" y="-62.5" font-family="Helvetica,sans-Serif" font-size="10.00">iostream</text>
</a>
</g>
</g>
<!-- Node7&#45;&gt;Node14 -->
<g id="edge16_Node000007_Node000014" class="edge">
<title>Node7&#45;&gt;Node14</title>
<g id="a_edge16_Node000007_Node000014"><a xlink:title=" ">
<path fill="none" stroke="#63b8ff" d="M477.82,-111.55C510.43,-101.36 552.5,-88.21 582.47,-78.85"/>
<polygon fill="#63b8ff" stroke="#63b8ff" points="583.37,-82.23 591.87,-75.91 581.28,-75.55 583.37,-82.23"/>
</a>
</g>
</g>
<!-- Node15 -->
<g id="Node000015" class="node">
<title>Node15</title>
<g id="a_Node000015"><a xlink:title=" ">
<polygon fill="#e0e0e0" stroke="#999999" points="699.75,-76 665,-76 665,-56 699.75,-56 699.75,-76"/>
<text xml:space="preserve" text-anchor="middle" x="682.38" y="-62.5" font-family="Helvetica,sans-Serif" font-size="10.00">map</text>
</a>
</g>
</g>
<!-- Node7&#45;&gt;Node15 -->
<g id="edge17_Node000007_Node000015" class="edge">
<title>Node7&#45;&gt;Node15</title>
<g id="a_edge17_Node000007_Node000015"><a xlink:title=" ">
<path fill="none" stroke="#63b8ff" d="M480.26,-114.13C483.35,-113.4 486.4,-112.69 489.38,-112 559.89,-95.73 581.27,-96.35 653.52,-76.56"/>
<polygon fill="#63b8ff" stroke="#63b8ff" points="654.41,-79.94 663.1,-73.89 652.53,-73.2 654.41,-79.94"/>
</a>
</g>
</g>
<!-- Node16 -->
<g id="Node000016" class="node">
<title>Node16</title>
<g id="a_Node000016"><a xlink:title=" ">
<polygon fill="#e0e0e0" stroke="#999999" points="760.88,-76 717.88,-76 717.88,-56 760.88,-56 760.88,-76"/>
<text xml:space="preserve" text-anchor="middle" x="739.38" y="-62.5" font-family="Helvetica,sans-Serif" font-size="10.00">mutex</text>
</a>
</g>
</g>
<!-- Node7&#45;&gt;Node16 -->
<g id="edge18_Node000007_Node000016" class="edge">
<title>Node7&#45;&gt;Node16</title>
<g id="a_edge18_Node000007_Node000016"><a xlink:title=" ">
<path fill="none" stroke="#63b8ff" d="M480.23,-113.96C483.32,-113.27 486.38,-112.61 489.38,-112 582.52,-92.92 610.19,-97.42 706.34,-76.21"/>
<polygon fill="#63b8ff" stroke="#63b8ff" points="706.98,-79.66 715.97,-74.05 705.44,-72.83 706.98,-79.66"/>
</a>
</g>
</g>
<!-- Node17 -->
<g id="Node000017" class="node">
<title>Node17</title>
<g id="a_Node000017"><a xlink:title=" ">
<polygon fill="#e0e0e0" stroke="#999999" points="818,-76 778.75,-76 778.75,-56 818,-56 818,-76"/>
<text xml:space="preserve" text-anchor="middle" x="798.38" y="-62.5" font-family="Helvetica,sans-Serif" font-size="10.00">utility</text>
</a>
</g>
</g>
<!-- Node7&#45;&gt;Node17 -->
<g id="edge21_Node000007_Node000017" class="edge">
<title>Node7&#45;&gt;Node17</title>
<g id="a_edge21_Node000007_Node000017"><a xlink:title=" ">
<path fill="none" stroke="#63b8ff" d="M480.2,-113.83C483.3,-113.18 486.37,-112.56 489.38,-112 609.65,-89.58 645.46,-102.59 767.42,-76.33"/>
<polygon fill="#63b8ff" stroke="#63b8ff" points="767.82,-79.83 776.83,-74.26 766.31,-73 767.82,-79.83"/>
</a>
</g>
</g>
<!-- Node18 -->
<g id="Node000018" class="node">
<title>Node18</title>
<g id="a_Node000018"><a xlink:title=" ">
<polygon fill="#e0e0e0" stroke="#999999" points="307.62,-76 257.12,-76 257.12,-56 307.62,-56 307.62,-76"/>
<text xml:space="preserve" text-anchor="middle" x="282.38" y="-62.5" font-family="Helvetica,sans-Serif" font-size="10.00">unistd.h</text>
</a>
</g>
</g>
<!-- Node7&#45;&gt;Node18 -->
<g id="edge23_Node000007_Node000018" class="edge">
<title>Node7&#45;&gt;Node18</title>
<g id="a_edge23_Node000007_Node000018"><a xlink:title=" ">
<path fill="none" stroke="#63b8ff" d="M390.78,-111.55C367.54,-102 337.99,-89.86 315.62,-80.66"/>
<polygon fill="#63b8ff" stroke="#63b8ff" points="317.25,-77.55 306.67,-76.98 314.59,-84.02 317.25,-77.55"/>
</a>
</g>
</g>
<!-- Node8&#45;&gt;Node5 -->
<g id="edge10_Node000008_Node000005" class="edge">
<title>Node8&#45;&gt;Node5</title>
<g id="a_edge10_Node000008_Node000005"><a xlink:title=" ">
<path fill="none" stroke="#63b8ff" d="M363.84,-56.92C322.7,-47 253.17,-30.24 210.47,-19.94"/>
<polygon fill="#63b8ff" stroke="#63b8ff" points="211.45,-16.58 200.91,-17.64 209.81,-23.38 211.45,-16.58"/>
</a>
</g>
</g>
<!-- Node8&#45;&gt;Node9 -->
<g id="edge8_Node000008_Node000009" class="edge">
<title>Node8&#45;&gt;Node9</title>
<g id="a_edge8_Node000008_Node000009"><a xlink:title=" ">
<path fill="none" stroke="#63b8ff" d="M384.31,-55.59C373.41,-47.74 357.62,-36.38 344.72,-27.09"/>
<polygon fill="#63b8ff" stroke="#63b8ff" points="346.93,-24.37 336.77,-21.36 342.84,-30.05 346.93,-24.37"/>
</a>
</g>
</g>
<!-- Node10 -->
<g id="Node000010" class="node">
<title>Node10</title>
<g id="a_Node000010"><a xlink:title=" ">
<polygon fill="#e0e0e0" stroke="#999999" points="416,-20 370.75,-20 370.75,0 416,0 416,-20"/>
<text xml:space="preserve" text-anchor="middle" x="393.38" y="-6.5" font-family="Helvetica,sans-Serif" font-size="10.00">cstdint</text>
</a>
</g>
</g>
<!-- Node8&#45;&gt;Node10 -->
<g id="edge9_Node000008_Node000010" class="edge">
<title>Node8&#45;&gt;Node10</title>
<g id="a_edge9_Node000008_Node000010"><a xlink:title=" ">
<path fill="none" stroke="#63b8ff" d="M396.68,-55.59C396.19,-49.01 395.52,-39.96 394.91,-31.73"/>
<polygon fill="#63b8ff" stroke="#63b8ff" points="398.4,-31.52 394.18,-21.81 391.42,-32.04 398.4,-31.52"/>
</a>
</g>
</g>
<!-- Node8&#45;&gt;Node11 -->
<g id="edge11_Node000008_Node000011" class="edge">
<title>Node8&#45;&gt;Node11</title>
<g id="a_edge11_Node000008_Node000011"><a xlink:title=" ">
<path fill="none" stroke="#63b8ff" d="M408.17,-55.59C416.98,-47.93 429.63,-36.91 440.15,-27.75"/>
<polygon fill="#63b8ff" stroke="#63b8ff" points="442.32,-30.5 447.56,-21.29 437.72,-25.22 442.32,-30.5"/>
</a>
</g>
</g>
<!-- Node8&#45;&gt;Node12 -->
<g id="edge12_Node000008_Node000012" class="edge">
<title>Node8&#45;&gt;Node12</title>
<g id="a_edge12_Node000008_Node000012"><a xlink:title=" ">
<path fill="none" stroke="#63b8ff" d="M419.32,-55.59C439.56,-46.92 469.81,-33.96 492.48,-24.24"/>
<polygon fill="#63b8ff" stroke="#63b8ff" points="493.73,-27.51 501.54,-20.36 490.97,-21.08 493.73,-27.51"/>
</a>
</g>
</g>
</g>
</svg>
