<?xml version="1.0" encoding="UTF-8" standalone="no"?>
<!DOCTYPE svg PUBLIC "-//W3C//DTD SVG 1.1//EN"
 "http://www.w3.org/Graphics/SVG/1.1/DTD/svg11.dtd">
<!-- Generated by graphviz version 13.1.2 (20250808.2320)
 -->
<!-- Title: include/DotNameBotLib/DotNameBotLib.hpp Pages: 1 -->
<svg width="296pt" height="96pt"
 viewBox="0.00 0.00 296.00 96.00" xmlns="http://www.w3.org/2000/svg" xmlns:xlink="http://www.w3.org/1999/xlink">
<g id="graph0" class="graph" transform="scale(1 1) rotate(0) translate(4 92)">
<title>include/DotNameBotLib/DotNameBotLib.hpp</title>
<!-- Node1 -->
<g id="Node000001" class="node">
<title>Node1</title>
<g id="a_Node000001"><a xlink:title=" ">
<polygon fill="#999999" stroke="#666666" points="210.12,-88 90.62,-88 90.62,-56 210.12,-56 210.12,-88"/>
<text xml:space="preserve" text-anchor="start" x="98.62" y="-74.5" font-family="Helvetica,sans-Serif" font-size="10.00">include/DotNameBotLib</text>
<text xml:space="preserve" text-anchor="middle" x="150.38" y="-62.5" font-family="Helvetica,sans-Serif" font-size="10.00">/DotNameBotLib.hpp</text>
</a>
</g>
</g>
<!-- Node2 -->
<g id="Node000002" class="node">
<title>Node2</title>
<g id="a_Node000002"><a xlink:href="Application_8cpp.html" target="_top" xlink:title=" ">
<polygon fill="white" stroke="#666666" points="148.75,-20 0,-20 0,0 148.75,0 148.75,-20"/>
<text xml:space="preserve" text-anchor="middle" x="74.38" y="-6.5" font-family="Helvetica,sans-Serif" font-size="10.00">application/src/Application.cpp</text>
</a>
</g>
</g>
<!-- Node1&#45;&gt;Node2 -->
<g id="edge1_Node000001_Node000002" class="edge">
<title>Node1&#45;&gt;Node2</title>
<g id="a_edge1_Node000001_Node000002"><a xlink:title=" ">
<path fill="none" stroke="#63b8ff" d="M121.77,-48.42C109.48,-38.71 95.79,-27.9 86.29,-20.41"/>
<polygon fill="#63b8ff" stroke="#63b8ff" points="119.6,-51.16 129.62,-54.61 123.94,-45.67 119.6,-51.16"/>
</a>
</g>
</g>
<!-- Node3 -->
<g id="Node000003" class="node">
<title>Node3</title>
<g id="a_Node000003"><a xlink:href="DotNameBotLib_8cpp.html" target="_top" xlink:title=" ">
<polygon fill="white" stroke="#666666" points="287.88,-20 166.88,-20 166.88,0 287.88,0 287.88,-20"/>
<text xml:space="preserve" text-anchor="middle" x="227.38" y="-6.5" font-family="Helvetica,sans-Serif" font-size="10.00">src/DotNameBotLib.cpp</text>
</a>
</g>
</g>
<!-- Node1&#45;&gt;Node3 -->
<g id="edge2_Node000001_Node000003" class="edge">
<title>Node1&#45;&gt;Node3</title>
<g id="a_edge2_Node000001_Node000003"><a xlink:title=" ">
<path fill="none" stroke="#63b8ff" d="M178.99,-48.7C191.54,-38.92 205.59,-27.98 215.3,-20.41"/>
<polygon fill="#63b8ff" stroke="#63b8ff" points="177.14,-45.71 171.4,-54.62 181.44,-51.23 177.14,-45.71"/>
</a>
</g>
</g>
</g>
</svg>
