<?xml version="1.0" encoding="UTF-8" standalone="no"?>
<!DOCTYPE svg PUBLIC "-//W3C//DTD SVG 1.1//EN"
 "http://www.w3.org/Graphics/SVG/1.1/DTD/svg11.dtd">
<!-- Generated by graphviz version 13.1.2 (20250808.2320)
 -->
<!-- Title: application/tests/FileReaderTest.cpp Pages: 1 -->
<svg width="443pt" height="264pt"
 viewBox="0.00 0.00 443.00 264.00" xmlns="http://www.w3.org/2000/svg" xmlns:xlink="http://www.w3.org/1999/xlink">

<svg id="main" version="1.1" xmlns="http://www.w3.org/2000/svg" xmlns:xlink="http://www.w3.org/1999/xlink" xml:space="preserve">

<style type="text/css"><![CDATA[
.node, .edge {opacity: 0.7;}
.node.selected, .edge.selected {opacity: 1;}
.edge:hover path { stroke: red; }
.edge:hover polygon { stroke: red; fill: red; }
]]></style>
<script type="application/ecmascript" xlink:href="svg.min.js"/>
<svg id="graph" class="graph">
<g id="graph0" class="graph" transform="scale(1 1) rotate(0) translate(4 260)">
<title>application/tests/FileReaderTest.cpp</title>
<!-- Node1 -->
<g id="Node000001" class="node">
<title>Node1</title>
<g id="a_Node000001"><a xlink:title=" ">
<polygon fill="#999999" stroke="#666666" points="377.38,-256 239.88,-256 239.88,-224 377.38,-224 377.38,-256"/>
<text xml:space="preserve" text-anchor="start" x="247.88" y="-242.5" font-family="Helvetica,sans-Serif" font-size="10.00">application/tests/FileReader</text>
<text xml:space="preserve" text-anchor="middle" x="308.62" y="-230.5" font-family="Helvetica,sans-Serif" font-size="10.00">Test.cpp</text>
</a>
</g>
</g>
<!-- Node2 -->
<g id="Node000002" class="node">
<title>Node2</title>
<g id="a_Node000002"><a xlink:title=" ">
<polygon fill="#e0e0e0" stroke="#999999" points="106,-188 35.25,-188 35.25,-168 106,-168 106,-188"/>
<text xml:space="preserve" text-anchor="middle" x="70.62" y="-174.5" font-family="Helvetica,sans-Serif" font-size="10.00">gtest/gtest.h</text>
</a>
</g>
</g>
<!-- Node1&#45;&gt;Node2 -->
<g id="edge1_Node000001_Node000002" class="edge">
<title>Node1&#45;&gt;Node2</title>
<g id="a_edge1_Node000001_Node000002"><a xlink:title=" ">
<path fill="none" stroke="#63b8ff" d="M247.33,-223.55C206.77,-213.32 154.4,-200.12 117.23,-190.75"/>
<polygon fill="#63b8ff" stroke="#63b8ff" points="118.23,-187.39 107.68,-188.34 116.52,-194.18 118.23,-187.39"/>
</a>
</g>
</g>
<!-- Node3 -->
<g id="Node000003" class="node">
<title>Node3</title>
<g id="a_Node000003"><a xlink:href="FileReader_8hpp.html" target="_top" xlink:title=" ">
<polygon fill="white" stroke="#666666" points="280.75,-188 124.5,-188 124.5,-168 280.75,-168 280.75,-188"/>
<text xml:space="preserve" text-anchor="middle" x="202.62" y="-174.5" font-family="Helvetica,sans-Serif" font-size="10.00">Utils/Filesystem/FileReader.hpp</text>
</a>
</g>
</g>
<!-- Node1&#45;&gt;Node3 -->
<g id="edge2_Node000001_Node000003" class="edge">
<title>Node1&#45;&gt;Node3</title>
<g id="a_edge2_Node000001_Node000003"><a xlink:title=" ">
<path fill="none" stroke="#63b8ff" d="M281.33,-223.55C265.23,-214.43 244.95,-202.96 229.01,-193.93"/>
<polygon fill="#63b8ff" stroke="#63b8ff" points="230.99,-191.03 220.56,-189.15 227.54,-197.13 230.99,-191.03"/>
</a>
</g>
</g>
<!-- Node9 -->
<g id="Node000009" class="node">
<title>Node9</title>
<g id="a_Node000009"><a xlink:title=" ">
<polygon fill="#e0e0e0" stroke="#999999" points="311.62,-20 271.62,-20 271.62,0 311.62,0 311.62,-20"/>
<text xml:space="preserve" text-anchor="middle" x="291.62" y="-6.5" font-family="Helvetica,sans-Serif" font-size="10.00">string</text>
</a>
</g>
</g>
<!-- Node1&#45;&gt;Node9 -->
<g id="edge16_Node000001_Node000009" class="edge">
<title>Node1&#45;&gt;Node9</title>
<g id="a_edge16_Node000001_Node000009"><a xlink:title=" ">
<path fill="none" stroke="#63b8ff" d="M316.64,-223.61C332.34,-191.25 363.53,-114.33 338.62,-56 333.82,-44.74 324.66,-34.95 315.69,-27.4"/>
<polygon fill="#63b8ff" stroke="#63b8ff" points="317.86,-24.66 307.81,-21.31 313.58,-30.19 317.86,-24.66"/>
</a>
</g>
</g>
<!-- Node11 -->
<g id="Node000011" class="node">
<title>Node11</title>
<g id="a_Node000011"><a xlink:title=" ">
<polygon fill="#e0e0e0" stroke="#999999" points="329.12,-76 268.12,-76 268.12,-56 329.12,-56 329.12,-76"/>
<text xml:space="preserve" text-anchor="middle" x="298.62" y="-62.5" font-family="Helvetica,sans-Serif" font-size="10.00">filesystem</text>
</a>
</g>
</g>
<!-- Node1&#45;&gt;Node11 -->
<g id="edge14_Node000001_Node000011" class="edge">
<title>Node1&#45;&gt;Node11</title>
<g id="a_edge14_Node000001_Node000011"><a xlink:title=" ">
<path fill="none" stroke="#63b8ff" d="M307.74,-223.74C305.93,-192.69 301.83,-122.18 299.81,-87.31"/>
<polygon fill="#63b8ff" stroke="#63b8ff" points="303.32,-87.5 299.25,-77.72 296.33,-87.91 303.32,-87.5"/>
</a>
</g>
</g>
<!-- Node13 -->
<g id="Node000013" class="node">
<title>Node13</title>
<g id="a_Node000013"><a xlink:title=" ">
<polygon fill="#e0e0e0" stroke="#999999" points="435.12,-188 386.12,-188 386.12,-168 435.12,-168 435.12,-188"/>
<text xml:space="preserve" text-anchor="middle" x="410.62" y="-174.5" font-family="Helvetica,sans-Serif" font-size="10.00">fstream</text>
</a>
</g>
</g>
<!-- Node1&#45;&gt;Node13 -->
<g id="edge15_Node000001_Node000013" class="edge">
<title>Node1&#45;&gt;Node13</title>
<g id="a_edge15_Node000001_Node000013"><a xlink:title=" ">
<path fill="none" stroke="#63b8ff" d="M334.89,-223.55C350.24,-214.52 369.53,-203.17 384.8,-194.19"/>
<polygon fill="#63b8ff" stroke="#63b8ff" points="386.48,-197.26 393.33,-189.18 382.93,-191.23 386.48,-197.26"/>
</a>
</g>
</g>
<!-- Node4 -->
<g id="Node000004" class="node">
<title>Node4</title>
<g id="a_Node000004"><a xlink:href="IFileReader_8hpp.html" target="_top" xlink:title=" ">
<polygon fill="white" stroke="#666666" points="266.25,-132 107,-132 107,-112 266.25,-112 266.25,-132"/>
<text xml:space="preserve" text-anchor="middle" x="186.62" y="-118.5" font-family="Helvetica,sans-Serif" font-size="10.00">Utils/Filesystem/IFileReader.hpp</text>
</a>
</g>
</g>
<!-- Node3&#45;&gt;Node4 -->
<g id="edge3_Node000003_Node000004" class="edge">
<title>Node3&#45;&gt;Node4</title>
<g id="a_edge3_Node000003_Node000004"><a xlink:title=" ">
<path fill="none" stroke="#63b8ff" d="M199.84,-167.59C197.84,-160.86 195.08,-151.53 192.6,-143.15"/>
<polygon fill="#63b8ff" stroke="#63b8ff" points="196.01,-142.34 189.81,-133.75 189.3,-144.33 196.01,-142.34"/>
</a>
</g>
</g>
<!-- Node5 -->
<g id="Node000005" class="node">
<title>Node5</title>
<g id="a_Node000005"><a xlink:href="UtilsError_8hpp.html" target="_top" xlink:title=" ">
<polygon fill="white" stroke="#666666" points="211.25,-76 112,-76 112,-56 211.25,-56 211.25,-76"/>
<text xml:space="preserve" text-anchor="middle" x="161.62" y="-62.5" font-family="Helvetica,sans-Serif" font-size="10.00">Utils/UtilsError.hpp</text>
</a>
</g>
</g>
<!-- Node4&#45;&gt;Node5 -->
<g id="edge4_Node000004_Node000005" class="edge">
<title>Node4&#45;&gt;Node5</title>
<g id="a_edge4_Node000004_Node000005"><a xlink:title=" ">
<path fill="none" stroke="#63b8ff" d="M182.27,-111.59C179.08,-104.7 174.64,-95.1 170.69,-86.57"/>
<polygon fill="#63b8ff" stroke="#63b8ff" points="173.94,-85.28 166.57,-77.67 167.59,-88.22 173.94,-85.28"/>
</a>
</g>
</g>
<!-- Node6 -->
<g id="Node000006" class="node">
<title>Node6</title>
<g id="a_Node000006"><a xlink:title=" ">
<polygon fill="#e0e0e0" stroke="#999999" points="45.25,-20 0,-20 0,0 45.25,0 45.25,-20"/>
<text xml:space="preserve" text-anchor="middle" x="22.62" y="-6.5" font-family="Helvetica,sans-Serif" font-size="10.00">cstdint</text>
</a>
</g>
</g>
<!-- Node4&#45;&gt;Node6 -->
<g id="edge10_Node000004_Node000006" class="edge">
<title>Node4&#45;&gt;Node6</title>
<g id="a_edge10_Node000004_Node000006"><a xlink:title=" ">
<path fill="none" stroke="#63b8ff" d="M109.05,-111.58C84.71,-105.1 59.55,-94.23 41.62,-76 30.02,-64.2 25.43,-45.73 23.65,-31.48"/>
<polygon fill="#63b8ff" stroke="#63b8ff" points="27.17,-31.51 22.84,-21.84 20.19,-32.1 27.17,-31.51"/>
</a>
</g>
</g>
<!-- Node4&#45;&gt;Node9 -->
<g id="edge12_Node000004_Node000009" class="edge">
<title>Node4&#45;&gt;Node9</title>
<g id="a_edge12_Node000004_Node000009"><a xlink:title=" ">
<path fill="none" stroke="#63b8ff" d="M195.58,-111.62C213.17,-93.19 252.48,-52.01 274.98,-28.44"/>
<polygon fill="#63b8ff" stroke="#63b8ff" points="277.28,-31.1 281.65,-21.45 272.21,-26.27 277.28,-31.1"/>
</a>
</g>
</g>
<!-- Node4&#45;&gt;Node11 -->
<g id="edge11_Node000004_Node000011" class="edge">
<title>Node4&#45;&gt;Node11</title>
<g id="a_edge11_Node000004_Node000011"><a xlink:title=" ">
<path fill="none" stroke="#63b8ff" d="M206.13,-111.59C223.37,-103.28 248.78,-91.03 268.61,-81.47"/>
<polygon fill="#63b8ff" stroke="#63b8ff" points="270.11,-84.63 277.6,-77.14 267.07,-78.33 270.11,-84.63"/>
</a>
</g>
</g>
<!-- Node12 -->
<g id="Node000012" class="node">
<title>Node12</title>
<g id="a_Node000012"><a xlink:title=" ">
<polygon fill="#e0e0e0" stroke="#999999" points="94.12,-76 51.12,-76 51.12,-56 94.12,-56 94.12,-76"/>
<text xml:space="preserve" text-anchor="middle" x="72.62" y="-62.5" font-family="Helvetica,sans-Serif" font-size="10.00">vector</text>
</a>
</g>
</g>
<!-- Node4&#45;&gt;Node12 -->
<g id="edge13_Node000004_Node000012" class="edge">
<title>Node4&#45;&gt;Node12</title>
<g id="a_edge13_Node000004_Node000012"><a xlink:title=" ">
<path fill="none" stroke="#63b8ff" d="M166.77,-111.59C149.14,-103.24 123.12,-90.92 102.9,-81.34"/>
<polygon fill="#63b8ff" stroke="#63b8ff" points="104.54,-78.25 94.01,-77.13 101.54,-84.57 104.54,-78.25"/>
</a>
</g>
</g>
<!-- Node5&#45;&gt;Node6 -->
<g id="edge5_Node000005_Node000006" class="edge">
<title>Node5&#45;&gt;Node6</title>
<g id="a_edge5_Node000005_Node000006"><a xlink:title=" ">
<path fill="none" stroke="#63b8ff" d="M137.41,-55.59C114.92,-46.85 81.21,-33.76 56.14,-24.02"/>
<polygon fill="#63b8ff" stroke="#63b8ff" points="57.64,-20.85 47.05,-20.49 55.1,-27.37 57.64,-20.85"/>
</a>
</g>
</g>
<!-- Node7 -->
<g id="Node000007" class="node">
<title>Node7</title>
<g id="a_Node000007"><a xlink:title=" ">
<polygon fill="#e0e0e0" stroke="#999999" points="253.5,-20 203.75,-20 203.75,0 253.5,0 253.5,-20"/>
<text xml:space="preserve" text-anchor="middle" x="228.62" y="-6.5" font-family="Helvetica,sans-Serif" font-size="10.00">optional</text>
</a>
</g>
</g>
<!-- Node5&#45;&gt;Node7 -->
<g id="edge6_Node000005_Node000007" class="edge">
<title>Node5&#45;&gt;Node7</title>
<g id="a_edge6_Node000005_Node000007"><a xlink:title=" ">
<path fill="none" stroke="#63b8ff" d="M173.3,-55.59C182.9,-47.85 196.75,-36.69 208.19,-27.47"/>
<polygon fill="#63b8ff" stroke="#63b8ff" points="210.32,-30.25 215.91,-21.25 205.93,-24.8 210.32,-30.25"/>
</a>
</g>
</g>
<!-- Node8 -->
<g id="Node000008" class="node">
<title>Node8</title>
<g id="a_Node000008"><a xlink:title=" ">
<polygon fill="#e0e0e0" stroke="#999999" points="122,-20 63.25,-20 63.25,0 122,0 122,-20"/>
<text xml:space="preserve" text-anchor="middle" x="92.62" y="-6.5" font-family="Helvetica,sans-Serif" font-size="10.00">stdexcept</text>
</a>
</g>
</g>
<!-- Node5&#45;&gt;Node8 -->
<g id="edge7_Node000005_Node000008" class="edge">
<title>Node5&#45;&gt;Node8</title>
<g id="a_edge7_Node000005_Node000008"><a xlink:title=" ">
<path fill="none" stroke="#63b8ff" d="M149.61,-55.59C139.61,-47.77 125.16,-36.46 113.32,-27.19"/>
<polygon fill="#63b8ff" stroke="#63b8ff" points="115.73,-24.64 105.7,-21.23 111.42,-30.15 115.73,-24.64"/>
</a>
</g>
</g>
<!-- Node5&#45;&gt;Node9 -->
<g id="edge8_Node000005_Node000009" class="edge">
<title>Node5&#45;&gt;Node9</title>
<g id="a_edge8_Node000005_Node000009"><a xlink:title=" ">
<path fill="none" stroke="#63b8ff" d="M184.27,-55.59C205.5,-46.78 237.4,-33.53 260.91,-23.76"/>
<polygon fill="#63b8ff" stroke="#63b8ff" points="262.08,-27.06 269.98,-19.99 259.4,-20.6 262.08,-27.06"/>
</a>
</g>
</g>
<!-- Node10 -->
<g id="Node000010" class="node">
<title>Node10</title>
<g id="a_Node000010"><a xlink:title=" ">
<polygon fill="#e0e0e0" stroke="#999999" points="185.25,-20 140,-20 140,0 185.25,0 185.25,-20"/>
<text xml:space="preserve" text-anchor="middle" x="162.62" y="-6.5" font-family="Helvetica,sans-Serif" font-size="10.00">variant</text>
</a>
</g>
</g>
<!-- Node5&#45;&gt;Node10 -->
<g id="edge9_Node000005_Node000010" class="edge">
<title>Node5&#45;&gt;Node10</title>
<g id="a_edge9_Node000005_Node000010"><a xlink:title=" ">
<path fill="none" stroke="#63b8ff" d="M161.8,-55.59C161.92,-49.01 162.09,-39.96 162.24,-31.73"/>
<polygon fill="#63b8ff" stroke="#63b8ff" points="165.74,-31.87 162.42,-21.81 158.74,-31.75 165.74,-31.87"/>
</a>
</g>
</g>
</g>
</svg>
</svg>

<style type='text/css'>
<![CDATA[
[data-mouse-over-selected='false'] { opacity: 0.7; }
[data-mouse-over-selected='true']  { opacity: 1.0; }
]]>
</style>
<script type="application/ecmascript"><![CDATA[
document.addEventListener('DOMContentLoaded', (event) => {
  highlightEdges();
  highlightAdjacentNodes();
});
]]></script>
</svg>
