<?xml version="1.0" encoding="UTF-8" standalone="no"?>
<!DOCTYPE svg PUBLIC "-//W3C//DTD SVG 1.1//EN"
 "http://www.w3.org/Graphics/SVG/1.1/DTD/svg11.dtd">
<!-- Generated by graphviz version 13.1.2 (20250808.2320)
 -->
<!-- Title: src/Utils/Assets/IAssetManager.hpp Pages: 1 -->
<svg width="1136pt" height="288pt"
 viewBox="0.00 0.00 1136.00 288.00" xmlns="http://www.w3.org/2000/svg" xmlns:xlink="http://www.w3.org/1999/xlink">
<g id="graph0" class="graph" transform="scale(1 1) rotate(0) translate(4 284)">
<title>src/Utils/Assets/IAssetManager.hpp</title>
<!-- Node1 -->
<g id="Node000001" class="node">
<title>Node1</title>
<g id="a_Node000001"><a xlink:title=" ">
<polygon fill="#999999" stroke="#666666" points="460.25,-280 286,-280 286,-260 460.25,-260 460.25,-280"/>
<text xml:space="preserve" text-anchor="middle" x="373.12" y="-266.5" font-family="Helvetica,sans-Serif" font-size="10.00">src/Utils/Assets/IAssetManager.hpp</text>
</a>
</g>
</g>
<!-- Node2 -->
<g id="Node000002" class="node">
<title>Node2</title>
<g id="a_Node000002"><a xlink:href="MockAssetManager_8hpp.html" target="_top" xlink:title=" ">
<polygon fill="white" stroke="#666666" points="345,-224 205.25,-224 205.25,-192 345,-192 345,-224"/>
<text xml:space="preserve" text-anchor="start" x="213.25" y="-210.5" font-family="Helvetica,sans-Serif" font-size="10.00">application/tests/MockAsset</text>
<text xml:space="preserve" text-anchor="middle" x="275.12" y="-198.5" font-family="Helvetica,sans-Serif" font-size="10.00">Manager.hpp</text>
</a>
</g>
</g>
<!-- Node1&#45;&gt;Node2 -->
<g id="edge1_Node000001_Node000002" class="edge">
<title>Node1&#45;&gt;Node2</title>
<g id="a_edge1_Node000001_Node000002"><a xlink:title=" ">
<path fill="none" stroke="#63b8ff" d="M348.34,-253.83C333.62,-244.81 315.01,-233.42 300.23,-224.37"/>
<polygon fill="#63b8ff" stroke="#63b8ff" points="346.17,-256.6 356.52,-258.83 349.82,-250.63 346.17,-256.6"/>
</a>
</g>
</g>
<!-- Node4 -->
<g id="Node000004" class="node">
<title>Node4</title>
<g id="a_Node000004"><a xlink:href="AssetManager_8hpp.html" target="_top" xlink:title=" ">
<polygon fill="white" stroke="#666666" points="186.75,-218 15.5,-218 15.5,-198 186.75,-198 186.75,-218"/>
<text xml:space="preserve" text-anchor="middle" x="101.12" y="-204.5" font-family="Helvetica,sans-Serif" font-size="10.00">src/Utils/Assets/AssetManager.hpp</text>
</a>
</g>
</g>
<!-- Node1&#45;&gt;Node4 -->
<g id="edge3_Node000001_Node000004" class="edge">
<title>Node1&#45;&gt;Node4</title>
<g id="a_edge3_Node000001_Node000004"><a xlink:title=" ">
<path fill="none" stroke="#63b8ff" d="M319.12,-257.09C267.76,-245.76 191.49,-228.93 144.12,-218.48"/>
<polygon fill="#63b8ff" stroke="#63b8ff" points="318.33,-260.5 328.85,-259.23 319.84,-253.66 318.33,-260.5"/>
</a>
</g>
</g>
<!-- Node6 -->
<g id="Node000006" class="node">
<title>Node6</title>
<g id="a_Node000006"><a xlink:href="AssetManagerFactory_8hpp.html" target="_top" xlink:title=" ">
<polygon fill="white" stroke="#666666" points="395.37,-156 242.87,-156 242.87,-124 395.37,-124 395.37,-156"/>
<text xml:space="preserve" text-anchor="start" x="250.87" y="-142.5" font-family="Helvetica,sans-Serif" font-size="10.00">src/Utils/Assets/AssetManager</text>
<text xml:space="preserve" text-anchor="middle" x="319.12" y="-130.5" font-family="Helvetica,sans-Serif" font-size="10.00">Factory.hpp</text>
</a>
</g>
</g>
<!-- Node1&#45;&gt;Node6 -->
<g id="edge9_Node000001_Node000006" class="edge">
<title>Node1&#45;&gt;Node6</title>
<g id="a_edge9_Node000001_Node000006"><a xlink:title=" ">
<path fill="none" stroke="#63b8ff" d="M370.13,-248.46C367.32,-232.56 362.31,-210.24 354.12,-192 348.32,-179.07 339.2,-165.91 331.72,-156.2"/>
<polygon fill="#63b8ff" stroke="#63b8ff" points="366.64,-248.83 371.68,-258.14 373.55,-247.72 366.64,-248.83"/>
</a>
</g>
</g>
<!-- Node8 -->
<g id="Node000008" class="node">
<title>Node8</title>
<g id="a_Node000008"><a xlink:href="CustomStringsLoader_8hpp.html" target="_top" xlink:title=" ">
<polygon fill="white" stroke="#666666" points="558.62,-224 413.62,-224 413.62,-192 558.62,-192 558.62,-224"/>
<text xml:space="preserve" text-anchor="start" x="421.62" y="-210.5" font-family="Helvetica,sans-Serif" font-size="10.00">src/Utils/Json/CustomStrings</text>
<text xml:space="preserve" text-anchor="middle" x="486.12" y="-198.5" font-family="Helvetica,sans-Serif" font-size="10.00">Loader.hpp</text>
</a>
</g>
</g>
<!-- Node1&#45;&gt;Node8 -->
<g id="edge10_Node000001_Node000008" class="edge">
<title>Node1&#45;&gt;Node8</title>
<g id="a_edge10_Node000001_Node000008"><a xlink:title=" ">
<path fill="none" stroke="#63b8ff" d="M400.73,-254.34C417.85,-245.25 439.81,-233.59 457.17,-224.37"/>
<polygon fill="#63b8ff" stroke="#63b8ff" points="399.31,-251.13 392.12,-258.92 402.59,-257.32 399.31,-251.13"/>
</a>
</g>
</g>
<!-- Node10 -->
<g id="Node000010" class="node">
<title>Node10</title>
<g id="a_Node000010"><a xlink:href="UtilsFactory_8hpp.html" target="_top" xlink:title=" ">
<polygon fill="white" stroke="#666666" points="770.62,-218 643.62,-218 643.62,-198 770.62,-198 770.62,-218"/>
<text xml:space="preserve" text-anchor="middle" x="707.12" y="-204.5" font-family="Helvetica,sans-Serif" font-size="10.00">src/Utils/UtilsFactory.hpp</text>
</a>
</g>
</g>
<!-- Node1&#45;&gt;Node10 -->
<g id="edge13_Node000001_Node000010" class="edge">
<title>Node1&#45;&gt;Node10</title>
<g id="a_edge13_Node000001_Node000010"><a xlink:title=" ">
<path fill="none" stroke="#63b8ff" d="M436.67,-257.58C499.75,-246.25 595.3,-229.09 654.33,-218.48"/>
<polygon fill="#63b8ff" stroke="#63b8ff" points="436.39,-254.08 427.17,-259.29 437.63,-260.97 436.39,-254.08"/>
</a>
</g>
</g>
<!-- Node3 -->
<g id="Node000003" class="node">
<title>Node3</title>
<g id="a_Node000003"><a xlink:href="AssetManagerTest_8cpp.html" target="_top" xlink:title=" ">
<polygon fill="white" stroke="#666666" points="291.75,-88 138.5,-88 138.5,-56 291.75,-56 291.75,-88"/>
<text xml:space="preserve" text-anchor="start" x="146.5" y="-74.5" font-family="Helvetica,sans-Serif" font-size="10.00">application/tests/AssetManager</text>
<text xml:space="preserve" text-anchor="middle" x="215.12" y="-62.5" font-family="Helvetica,sans-Serif" font-size="10.00">Test.cpp</text>
</a>
</g>
</g>
<!-- Node2&#45;&gt;Node3 -->
<g id="edge2_Node000002_Node000003" class="edge">
<title>Node2&#45;&gt;Node3</title>
<g id="a_edge2_Node000002_Node000003"><a xlink:title=" ">
<path fill="none" stroke="#63b8ff" d="M252.34,-183.24C245.61,-175.13 238.8,-165.66 234.12,-156 223.43,-133.92 218.61,-105.57 216.55,-88.37"/>
<polygon fill="#63b8ff" stroke="#63b8ff" points="249.57,-185.39 258.79,-190.62 254.84,-180.79 249.57,-185.39"/>
</a>
</g>
</g>
<!-- Node4&#45;&gt;Node3 -->
<g id="edge4_Node000004_Node000003" class="edge">
<title>Node4&#45;&gt;Node3</title>
<g id="a_edge4_Node000004_Node000003"><a xlink:title=" ">
<path fill="none" stroke="#63b8ff" d="M54.16,-193.47C35.84,-185.65 16.73,-173.73 6.12,-156 -1.18,-143.79 -2.66,-135.19 6.12,-124 22.59,-103.03 85.68,-89.59 138.27,-81.8"/>
<polygon fill="#63b8ff" stroke="#63b8ff" points="52.78,-196.69 63.37,-197.07 55.33,-190.17 52.78,-196.69"/>
</a>
</g>
</g>
<!-- Node5 -->
<g id="Node000005" class="node">
<title>Node5</title>
<g id="a_Node000005"><a xlink:href="AssetManager_8cpp.html" target="_top" xlink:title=" ">
<polygon fill="white" stroke="#666666" points="186.75,-150 15.5,-150 15.5,-130 186.75,-130 186.75,-150"/>
<text xml:space="preserve" text-anchor="middle" x="101.12" y="-136.5" font-family="Helvetica,sans-Serif" font-size="10.00">src/Utils/Assets/AssetManager.cpp</text>
</a>
</g>
</g>
<!-- Node4&#45;&gt;Node5 -->
<g id="edge5_Node000004_Node000005" class="edge">
<title>Node4&#45;&gt;Node5</title>
<g id="a_edge5_Node000004_Node000005"><a xlink:title=" ">
<path fill="none" stroke="#63b8ff" d="M101.12,-186.28C101.12,-174.27 101.12,-159.74 101.12,-150.44"/>
<polygon fill="#63b8ff" stroke="#63b8ff" points="97.62,-186.03 101.12,-196.03 104.62,-186.03 97.62,-186.03"/>
</a>
</g>
</g>
<!-- Node4&#45;&gt;Node6 -->
<g id="edge6_Node000004_Node000006" class="edge">
<title>Node4&#45;&gt;Node6</title>
<g id="a_edge6_Node000004_Node000006"><a xlink:title=" ">
<path fill="none" stroke="#63b8ff" d="M143.36,-194.21C179.03,-183.41 230.22,-167.92 268.17,-156.43"/>
<polygon fill="#63b8ff" stroke="#63b8ff" points="142.36,-190.86 133.81,-197.11 144.39,-197.56 142.36,-190.86"/>
</a>
</g>
</g>
<!-- Node6&#45;&gt;Node3 -->
<g id="edge7_Node000006_Node000003" class="edge">
<title>Node6&#45;&gt;Node3</title>
<g id="a_edge7_Node000006_Node000003"><a xlink:title=" ">
<path fill="none" stroke="#63b8ff" d="M285.29,-117.53C270.3,-108.02 253.02,-97.05 239.36,-88.38"/>
<polygon fill="#63b8ff" stroke="#63b8ff" points="283.14,-120.31 293.46,-122.71 286.9,-114.4 283.14,-120.31"/>
</a>
</g>
</g>
<!-- Node7 -->
<g id="Node000007" class="node">
<title>Node7</title>
<g id="a_Node000007"><a xlink:href="UtilsFactory_8cpp.html" target="_top" xlink:title=" ">
<polygon fill="white" stroke="#666666" points="569.62,-82 442.62,-82 442.62,-62 569.62,-62 569.62,-82"/>
<text xml:space="preserve" text-anchor="middle" x="506.12" y="-68.5" font-family="Helvetica,sans-Serif" font-size="10.00">src/Utils/UtilsFactory.cpp</text>
</a>
</g>
</g>
<!-- Node6&#45;&gt;Node7 -->
<g id="edge8_Node000006_Node000007" class="edge">
<title>Node6&#45;&gt;Node7</title>
<g id="a_edge8_Node000006_Node000007"><a xlink:title=" ">
<path fill="none" stroke="#63b8ff" d="M373.45,-119.83C408.21,-107.56 451.81,-92.17 479.32,-82.46"/>
<polygon fill="#63b8ff" stroke="#63b8ff" points="372.66,-116.39 364.39,-123.02 374.99,-122.99 372.66,-116.39"/>
</a>
</g>
</g>
<!-- Node8&#45;&gt;Node7 -->
<g id="edge12_Node000008_Node000007" class="edge">
<title>Node8&#45;&gt;Node7</title>
<g id="a_edge12_Node000008_Node000007"><a xlink:title=" ">
<path fill="none" stroke="#63b8ff" d="M537.31,-186.07C549.57,-178.5 561.12,-168.6 568.12,-156 575.03,-143.57 574.2,-136.86 568.12,-124 559.26,-105.22 539.71,-91.03 524.92,-82.44"/>
<polygon fill="#63b8ff" stroke="#63b8ff" points="535.71,-182.96 528.72,-190.92 539.15,-189.05 535.71,-182.96"/>
</a>
</g>
</g>
<!-- Node9 -->
<g id="Node000009" class="node">
<title>Node9</title>
<g id="a_Node000009"><a xlink:href="CustomStringsLoader_8cpp.html" target="_top" xlink:title=" ">
<polygon fill="white" stroke="#666666" points="558.62,-156 413.62,-156 413.62,-124 558.62,-124 558.62,-156"/>
<text xml:space="preserve" text-anchor="start" x="421.62" y="-142.5" font-family="Helvetica,sans-Serif" font-size="10.00">src/Utils/Json/CustomStrings</text>
<text xml:space="preserve" text-anchor="middle" x="486.12" y="-130.5" font-family="Helvetica,sans-Serif" font-size="10.00">Loader.cpp</text>
</a>
</g>
</g>
<!-- Node8&#45;&gt;Node9 -->
<g id="edge11_Node000008_Node000009" class="edge">
<title>Node8&#45;&gt;Node9</title>
<g id="a_edge11_Node000008_Node000009"><a xlink:title=" ">
<path fill="none" stroke="#63b8ff" d="M486.12,-180.31C486.12,-172.12 486.12,-163.38 486.12,-156.22"/>
<polygon fill="#63b8ff" stroke="#63b8ff" points="482.62,-180.18 486.12,-190.18 489.62,-180.18 482.62,-180.18"/>
</a>
</g>
</g>
<!-- Node10&#45;&gt;Node7 -->
<g id="edge25_Node000010_Node000007" class="edge">
<title>Node10&#45;&gt;Node7</title>
<g id="a_edge25_Node000010_Node000007"><a xlink:title=" ">
<path fill="none" stroke="#63b8ff" d="M684.28,-191.44C659.64,-174.69 619.2,-147.3 584.12,-124 562.02,-109.32 536.23,-92.52 520.54,-82.34"/>
<polygon fill="#63b8ff" stroke="#63b8ff" points="682.03,-194.14 692.27,-196.87 685.97,-188.35 682.03,-194.14"/>
</a>
</g>
</g>
<!-- Node11 -->
<g id="Node000011" class="node">
<title>Node11</title>
<g id="a_Node000011"><a xlink:href="Application_8cpp.html" target="_top" xlink:title=" ">
<polygon fill="white" stroke="#666666" points="736.5,-82 587.75,-82 587.75,-62 736.5,-62 736.5,-82"/>
<text xml:space="preserve" text-anchor="middle" x="662.12" y="-68.5" font-family="Helvetica,sans-Serif" font-size="10.00">application/src/Application.cpp</text>
</a>
</g>
</g>
<!-- Node10&#45;&gt;Node11 -->
<g id="edge14_Node000010_Node000011" class="edge">
<title>Node10&#45;&gt;Node11</title>
<g id="a_edge14_Node000010_Node000011"><a xlink:title=" ">
<path fill="none" stroke="#63b8ff" d="M696.59,-188.03C691.68,-178.61 686.07,-166.93 682.12,-156 672.77,-130.07 666.45,-98 663.69,-82.41"/>
<polygon fill="#63b8ff" stroke="#63b8ff" points="693.35,-189.39 701.17,-196.54 699.51,-186.07 693.35,-189.39"/>
</a>
</g>
</g>
<!-- Node12 -->
<g id="Node000012" class="node">
<title>Node12</title>
<g id="a_Node000012"><a xlink:href="DotNameBotLib_8hpp.html" target="_top" xlink:title=" ">
<polygon fill="white" stroke="#666666" points="810.87,-156 691.37,-156 691.37,-124 810.87,-124 810.87,-156"/>
<text xml:space="preserve" text-anchor="start" x="699.37" y="-142.5" font-family="Helvetica,sans-Serif" font-size="10.00">include/DotNameBotLib</text>
<text xml:space="preserve" text-anchor="middle" x="751.12" y="-130.5" font-family="Helvetica,sans-Serif" font-size="10.00">/DotNameBotLib.hpp</text>
</a>
</g>
</g>
<!-- Node10&#45;&gt;Node12 -->
<g id="edge15_Node000010_Node000012" class="edge">
<title>Node10&#45;&gt;Node12</title>
<g id="a_edge15_Node000010_Node000012"><a xlink:title=" ">
<path fill="none" stroke="#63b8ff" d="M719.77,-188.03C726.48,-177.97 734.62,-165.76 740.92,-156.3"/>
<polygon fill="#63b8ff" stroke="#63b8ff" points="716.9,-186.02 714.27,-196.28 722.73,-189.91 716.9,-186.02"/>
</a>
</g>
</g>
<!-- Node14 -->
<g id="Node000014" class="node">
<title>Node14</title>
<g id="a_Node000014"><a xlink:href="DiscordBot_8hpp.html" target="_top" xlink:title=" ">
<polygon fill="white" stroke="#666666" points="1128,-82 976.25,-82 976.25,-62 1128,-62 1128,-82"/>
<text xml:space="preserve" text-anchor="middle" x="1052.12" y="-68.5" font-family="Helvetica,sans-Serif" font-size="10.00">src/DiscordBot/DiscordBot.hpp</text>
</a>
</g>
</g>
<!-- Node10&#45;&gt;Node14 -->
<g id="edge18_Node000010_Node000014" class="edge">
<title>Node10&#45;&gt;Node14</title>
<g id="a_edge18_Node000010_Node000014"><a xlink:title=" ">
<path fill="none" stroke="#63b8ff" d="M782.12,-203.68C836.21,-198.64 909.52,-186.25 967.12,-156 1002.37,-137.49 1032.78,-99.72 1045.62,-82.24"/>
<polygon fill="#63b8ff" stroke="#63b8ff" points="782.06,-200.17 772.39,-204.51 782.66,-207.14 782.06,-200.17"/>
</a>
</g>
</g>
<!-- Node16 -->
<g id="Node000016" class="node">
<title>Node16</title>
<g id="a_Node000016"><a xlink:href="RssManager_8hpp.html" target="_top" xlink:title=" ">
<polygon fill="white" stroke="#666666" points="958,-150 830.25,-150 830.25,-130 958,-130 958,-150"/>
<text xml:space="preserve" text-anchor="middle" x="894.12" y="-136.5" font-family="Helvetica,sans-Serif" font-size="10.00">src/Rss/RssManager.hpp</text>
</a>
</g>
</g>
<!-- Node10&#45;&gt;Node16 -->
<g id="edge21_Node000010_Node000016" class="edge">
<title>Node10&#45;&gt;Node16</title>
<g id="a_edge21_Node000010_Node000016"><a xlink:title=" ">
<path fill="none" stroke="#63b8ff" d="M744.58,-193.78C780.93,-180.95 835.19,-161.8 867.38,-150.44"/>
<polygon fill="#63b8ff" stroke="#63b8ff" points="743.61,-190.41 735.34,-197.04 745.94,-197.01 743.61,-190.41"/>
</a>
</g>
</g>
<!-- Node12&#45;&gt;Node11 -->
<g id="edge16_Node000012_Node000011" class="edge">
<title>Node12&#45;&gt;Node11</title>
<g id="a_edge16_Node000012_Node000011"><a xlink:title=" ">
<path fill="none" stroke="#63b8ff" d="M721.51,-117.04C705.6,-105.24 686.8,-91.3 674.69,-82.32"/>
<polygon fill="#63b8ff" stroke="#63b8ff" points="719.15,-119.65 729.27,-122.79 723.32,-114.02 719.15,-119.65"/>
</a>
</g>
</g>
<!-- Node13 -->
<g id="Node000013" class="node">
<title>Node13</title>
<g id="a_Node000013"><a xlink:href="DotNameBotLib_8cpp.html" target="_top" xlink:title=" ">
<polygon fill="white" stroke="#666666" points="862.62,-20 741.62,-20 741.62,0 862.62,0 862.62,-20"/>
<text xml:space="preserve" text-anchor="middle" x="802.12" y="-6.5" font-family="Helvetica,sans-Serif" font-size="10.00">src/DotNameBotLib.cpp</text>
</a>
</g>
</g>
<!-- Node12&#45;&gt;Node13 -->
<g id="edge17_Node000012_Node000013" class="edge">
<title>Node12&#45;&gt;Node13</title>
<g id="a_edge17_Node000012_Node000013"><a xlink:title=" ">
<path fill="none" stroke="#63b8ff" d="M761.45,-113.07C772.89,-84.36 790.73,-39.59 798.41,-20.33"/>
<polygon fill="#63b8ff" stroke="#63b8ff" points="758.29,-111.57 757.84,-122.15 764.79,-114.16 758.29,-111.57"/>
</a>
</g>
</g>
<!-- Node14&#45;&gt;Node13 -->
<g id="edge20_Node000014_Node000013" class="edge">
<title>Node14&#45;&gt;Node13</title>
<g id="a_edge20_Node000014_Node000013"><a xlink:title=" ">
<path fill="none" stroke="#63b8ff" d="M1001.59,-58.87C954.4,-47.55 884.91,-30.87 841.65,-20.48"/>
<polygon fill="#63b8ff" stroke="#63b8ff" points="1000.77,-62.28 1011.32,-61.21 1002.41,-55.47 1000.77,-62.28"/>
</a>
</g>
</g>
<!-- Node15 -->
<g id="Node000015" class="node">
<title>Node15</title>
<g id="a_Node000015"><a xlink:href="DiscordBot_8cpp.html" target="_top" xlink:title=" ">
<polygon fill="white" stroke="#666666" points="1128,-20 976.25,-20 976.25,0 1128,0 1128,-20"/>
<text xml:space="preserve" text-anchor="middle" x="1052.12" y="-6.5" font-family="Helvetica,sans-Serif" font-size="10.00">src/DiscordBot/DiscordBot.cpp</text>
</a>
</g>
</g>
<!-- Node14&#45;&gt;Node15 -->
<g id="edge19_Node000014_Node000015" class="edge">
<title>Node14&#45;&gt;Node15</title>
<g id="a_edge19_Node000014_Node000015"><a xlink:title=" ">
<path fill="none" stroke="#63b8ff" d="M1052.12,-50.25C1052.12,-39.97 1052.12,-28.09 1052.12,-20.11"/>
<polygon fill="#63b8ff" stroke="#63b8ff" points="1048.62,-50.11 1052.12,-60.11 1055.62,-50.11 1048.62,-50.11"/>
</a>
</g>
</g>
<!-- Node16&#45;&gt;Node13 -->
<g id="edge23_Node000016_Node000013" class="edge">
<title>Node16&#45;&gt;Node13</title>
<g id="a_edge23_Node000016_Node000013"><a xlink:title=" ">
<path fill="none" stroke="#63b8ff" d="M863.19,-124.12C848.39,-115.51 831.64,-103.33 821.12,-88 806.63,-66.88 803.17,-35.8 802.36,-20.39"/>
<polygon fill="#63b8ff" stroke="#63b8ff" points="861.24,-127.04 871.69,-128.77 864.6,-120.9 861.24,-127.04"/>
</a>
</g>
</g>
<!-- Node16&#45;&gt;Node14 -->
<g id="edge22_Node000016_Node000014" class="edge">
<title>Node16&#45;&gt;Node14</title>
<g id="a_edge22_Node000016_Node000014"><a xlink:title=" ">
<path fill="none" stroke="#63b8ff" d="M927.37,-125.11C958.06,-112.29 1002.8,-93.61 1029.53,-82.44"/>
<polygon fill="#63b8ff" stroke="#63b8ff" points="926.04,-121.88 918.16,-128.96 928.74,-128.34 926.04,-121.88"/>
</a>
</g>
</g>
<!-- Node17 -->
<g id="Node000017" class="node">
<title>Node17</title>
<g id="a_Node000017"><a xlink:href="RssManager_8cpp.html" target="_top" xlink:title=" ">
<polygon fill="white" stroke="#666666" points="958,-82 830.25,-82 830.25,-62 958,-62 958,-82"/>
<text xml:space="preserve" text-anchor="middle" x="894.12" y="-68.5" font-family="Helvetica,sans-Serif" font-size="10.00">src/Rss/RssManager.cpp</text>
</a>
</g>
</g>
<!-- Node16&#45;&gt;Node17 -->
<g id="edge24_Node000016_Node000017" class="edge">
<title>Node16&#45;&gt;Node17</title>
<g id="a_edge24_Node000016_Node000017"><a xlink:title=" ">
<path fill="none" stroke="#63b8ff" d="M894.12,-118.28C894.12,-106.27 894.12,-91.74 894.12,-82.44"/>
<polygon fill="#63b8ff" stroke="#63b8ff" points="890.62,-118.03 894.12,-128.03 897.62,-118.03 890.62,-118.03"/>
</a>
</g>
</g>
</g>
</svg>
