<?xml version="1.0" encoding="UTF-8" standalone="no"?>
<!DOCTYPE svg PUBLIC "-//W3C//DTD SVG 1.1//EN"
 "http://www.w3.org/Graphics/SVG/1.1/DTD/svg11.dtd">
<!-- Generated by graphviz version 13.1.2 (20250808.2320)
 -->
<!-- Title: src/Utils/Assets/IAssetManager.hpp Pages: 1 -->
<svg width="1322pt" height="232pt"
 viewBox="0.00 0.00 1322.00 232.00" xmlns="http://www.w3.org/2000/svg" xmlns:xlink="http://www.w3.org/1999/xlink">
<g id="graph0" class="graph" transform="scale(1 1) rotate(0) translate(4 228)">
<title>src/Utils/Assets/IAssetManager.hpp</title>
<!-- Node1 -->
<g id="Node000001" class="node">
<title>Node1</title>
<g id="a_Node000001"><a xlink:title=" ">
<polygon fill="#999999" stroke="#666666" points="468,-224 293.75,-224 293.75,-204 468,-204 468,-224"/>
<text xml:space="preserve" text-anchor="middle" x="380.88" y="-210.5" font-family="Helvetica,sans-Serif" font-size="10.00">src/Utils/Assets/IAssetManager.hpp</text>
</a>
</g>
</g>
<!-- Node2 -->
<g id="Node000002" class="node">
<title>Node2</title>
<g id="a_Node000002"><a xlink:href="MockAssetManager_8hpp.html" target="_top" xlink:title=" ">
<polygon fill="white" stroke="#666666" points="139.75,-168 0,-168 0,-136 139.75,-136 139.75,-168"/>
<text xml:space="preserve" text-anchor="start" x="8" y="-154.5" font-family="Helvetica,sans-Serif" font-size="10.00">application/tests/MockAsset</text>
<text xml:space="preserve" text-anchor="middle" x="69.88" y="-142.5" font-family="Helvetica,sans-Serif" font-size="10.00">Manager.hpp</text>
</a>
</g>
</g>
<!-- Node1&#45;&gt;Node2 -->
<g id="edge1_Node000001_Node000002" class="edge">
<title>Node1&#45;&gt;Node2</title>
<g id="a_edge1_Node000001_Node000002"><a xlink:title=" ">
<path fill="none" stroke="#63b8ff" d="M320.96,-201.44C269.3,-191.47 194.66,-177.07 140.19,-166.57"/>
<polygon fill="#63b8ff" stroke="#63b8ff" points="319.97,-204.81 330.45,-203.27 321.3,-197.94 319.97,-204.81"/>
</a>
</g>
</g>
<!-- Node4 -->
<g id="Node000004" class="node">
<title>Node4</title>
<g id="a_Node000004"><a xlink:href="AssetManager_8hpp.html" target="_top" xlink:title=" ">
<polygon fill="white" stroke="#666666" points="352.5,-162 181.25,-162 181.25,-142 352.5,-142 352.5,-162"/>
<text xml:space="preserve" text-anchor="middle" x="266.88" y="-148.5" font-family="Helvetica,sans-Serif" font-size="10.00">src/Utils/Assets/AssetManager.hpp</text>
</a>
</g>
</g>
<!-- Node1&#45;&gt;Node4 -->
<g id="edge3_Node000001_Node000004" class="edge">
<title>Node1&#45;&gt;Node4</title>
<g id="a_edge3_Node000001_Node000004"><a xlink:title=" ">
<path fill="none" stroke="#63b8ff" d="M352.97,-198.31C331.62,-187.08 302.84,-171.93 284.56,-162.31"/>
<polygon fill="#63b8ff" stroke="#63b8ff" points="351.24,-201.36 361.72,-202.92 354.5,-195.17 351.24,-201.36"/>
</a>
</g>
</g>
<!-- Node6 -->
<g id="Node000006" class="node">
<title>Node6</title>
<g id="a_Node000006"><a xlink:href="AssetManagerFactory_8hpp.html" target="_top" xlink:title=" ">
<polygon fill="white" stroke="#666666" points="451.12,-100 298.62,-100 298.62,-68 451.12,-68 451.12,-100"/>
<text xml:space="preserve" text-anchor="start" x="306.62" y="-86.5" font-family="Helvetica,sans-Serif" font-size="10.00">src/Utils/Assets/AssetManager</text>
<text xml:space="preserve" text-anchor="middle" x="374.88" y="-74.5" font-family="Helvetica,sans-Serif" font-size="10.00">Factory.hpp</text>
</a>
</g>
</g>
<!-- Node1&#45;&gt;Node6 -->
<g id="edge9_Node000001_Node000006" class="edge">
<title>Node1&#45;&gt;Node6</title>
<g id="a_edge9_Node000001_Node000006"><a xlink:title=" ">
<path fill="none" stroke="#63b8ff" d="M379.91,-192.46C378.71,-166.73 376.67,-123.24 375.59,-100.27"/>
<polygon fill="#63b8ff" stroke="#63b8ff" points="376.41,-192.46 380.37,-202.28 383.4,-192.13 376.41,-192.46"/>
</a>
</g>
</g>
<!-- Node8 -->
<g id="Node000008" class="node">
<title>Node8</title>
<g id="a_Node000008"><a xlink:href="CustomStringsLoader_8hpp.html" target="_top" xlink:title=" ">
<polygon fill="white" stroke="#666666" points="554.38,-168 409.38,-168 409.38,-136 554.38,-136 554.38,-168"/>
<text xml:space="preserve" text-anchor="start" x="417.38" y="-154.5" font-family="Helvetica,sans-Serif" font-size="10.00">src/Utils/Json/CustomStrings</text>
<text xml:space="preserve" text-anchor="middle" x="481.88" y="-142.5" font-family="Helvetica,sans-Serif" font-size="10.00">Loader.hpp</text>
</a>
</g>
</g>
<!-- Node1&#45;&gt;Node8 -->
<g id="edge10_Node000001_Node000008" class="edge">
<title>Node1&#45;&gt;Node8</title>
<g id="a_edge10_Node000001_Node000008"><a xlink:title=" ">
<path fill="none" stroke="#63b8ff" d="M406.42,-197.83C421.59,-188.81 440.77,-177.42 456,-168.37"/>
<polygon fill="#63b8ff" stroke="#63b8ff" points="404.77,-194.74 397.96,-202.85 408.34,-200.75 404.77,-194.74"/>
</a>
</g>
</g>
<!-- Node10 -->
<g id="Node000010" class="node">
<title>Node10</title>
<g id="a_Node000010"><a xlink:href="UtilsFactory_8hpp.html" target="_top" xlink:title=" ">
<polygon fill="white" stroke="#666666" points="826.38,-162 699.38,-162 699.38,-142 826.38,-142 826.38,-162"/>
<text xml:space="preserve" text-anchor="middle" x="762.88" y="-148.5" font-family="Helvetica,sans-Serif" font-size="10.00">src/Utils/UtilsFactory.hpp</text>
</a>
</g>
</g>
<!-- Node1&#45;&gt;Node10 -->
<g id="edge13_Node000001_Node000010" class="edge">
<title>Node1&#45;&gt;Node10</title>
<g id="a_edge13_Node000001_Node000010"><a xlink:title=" ">
<path fill="none" stroke="#63b8ff" d="M452.22,-201.79C524.34,-190.47 634.56,-173.15 702.49,-162.48"/>
<polygon fill="#63b8ff" stroke="#63b8ff" points="451.81,-198.31 442.48,-203.32 452.9,-205.23 451.81,-198.31"/>
</a>
</g>
</g>
<!-- Node3 -->
<g id="Node000003" class="node">
<title>Node3</title>
<g id="a_Node000003"><a xlink:href="AssetManagerTest_8cpp.html" target="_top" xlink:title=" ">
<polygon fill="white" stroke="#666666" points="347.5,-32 194.25,-32 194.25,0 347.5,0 347.5,-32"/>
<text xml:space="preserve" text-anchor="start" x="202.25" y="-18.5" font-family="Helvetica,sans-Serif" font-size="10.00">application/tests/AssetManager</text>
<text xml:space="preserve" text-anchor="middle" x="270.88" y="-6.5" font-family="Helvetica,sans-Serif" font-size="10.00">Test.cpp</text>
</a>
</g>
</g>
<!-- Node2&#45;&gt;Node3 -->
<g id="edge2_Node000002_Node000003" class="edge">
<title>Node2&#45;&gt;Node3</title>
<g id="a_edge2_Node000002_Node000003"><a xlink:title=" ">
<path fill="none" stroke="#63b8ff" d="M58.74,-125.18C52.93,-107.31 49.35,-83.95 61.88,-68 78.34,-47.03 141.43,-33.59 194.02,-25.8"/>
<polygon fill="#63b8ff" stroke="#63b8ff" points="55.37,-126.15 62.1,-134.33 61.94,-123.73 55.37,-126.15"/>
</a>
</g>
</g>
<!-- Node4&#45;&gt;Node3 -->
<g id="edge4_Node000004_Node000003" class="edge">
<title>Node4&#45;&gt;Node3</title>
<g id="a_edge4_Node000004_Node000003"><a xlink:title=" ">
<path fill="none" stroke="#63b8ff" d="M267.48,-130.62C268.29,-103.57 269.7,-56.41 270.42,-32.24"/>
<polygon fill="#63b8ff" stroke="#63b8ff" points="264,-130.18 267.2,-140.28 270.99,-130.39 264,-130.18"/>
</a>
</g>
</g>
<!-- Node5 -->
<g id="Node000005" class="node">
<title>Node5</title>
<g id="a_Node000005"><a xlink:href="AssetManager_8cpp.html" target="_top" xlink:title=" ">
<polygon fill="white" stroke="#666666" points="242.5,-94 71.25,-94 71.25,-74 242.5,-74 242.5,-94"/>
<text xml:space="preserve" text-anchor="middle" x="156.88" y="-80.5" font-family="Helvetica,sans-Serif" font-size="10.00">src/Utils/Assets/AssetManager.cpp</text>
</a>
</g>
</g>
<!-- Node4&#45;&gt;Node5 -->
<g id="edge5_Node000004_Node000005" class="edge">
<title>Node4&#45;&gt;Node5</title>
<g id="a_edge5_Node000004_Node000005"><a xlink:title=" ">
<path fill="none" stroke="#63b8ff" d="M241.44,-135.74C220.19,-122.99 190.56,-105.21 172.61,-94.44"/>
<polygon fill="#63b8ff" stroke="#63b8ff" points="239.44,-138.62 249.82,-140.77 243.04,-132.62 239.44,-138.62"/>
</a>
</g>
</g>
<!-- Node4&#45;&gt;Node6 -->
<g id="edge6_Node000004_Node000006" class="edge">
<title>Node4&#45;&gt;Node6</title>
<g id="a_edge6_Node000004_Node000006"><a xlink:title=" ">
<path fill="none" stroke="#63b8ff" d="M291.85,-135.74C309.27,-125.09 332.41,-110.95 349.84,-100.3"/>
<polygon fill="#63b8ff" stroke="#63b8ff" points="290.35,-132.55 283.64,-140.75 294,-138.53 290.35,-132.55"/>
</a>
</g>
</g>
<!-- Node6&#45;&gt;Node3 -->
<g id="edge7_Node000006_Node000003" class="edge">
<title>Node6&#45;&gt;Node3</title>
<g id="a_edge7_Node000006_Node000003"><a xlink:title=" ">
<path fill="none" stroke="#63b8ff" d="M341.04,-61.53C326.06,-52.02 308.77,-41.05 295.11,-32.38"/>
<polygon fill="#63b8ff" stroke="#63b8ff" points="338.89,-64.31 349.21,-66.71 342.65,-58.4 338.89,-64.31"/>
</a>
</g>
</g>
<!-- Node7 -->
<g id="Node000007" class="node">
<title>Node7</title>
<g id="a_Node000007"><a xlink:href="UtilsFactory_8cpp.html" target="_top" xlink:title=" ">
<polygon fill="white" stroke="#666666" points="542.38,-26 415.38,-26 415.38,-6 542.38,-6 542.38,-26"/>
<text xml:space="preserve" text-anchor="middle" x="478.88" y="-12.5" font-family="Helvetica,sans-Serif" font-size="10.00">src/Utils/UtilsFactory.cpp</text>
</a>
</g>
</g>
<!-- Node6&#45;&gt;Node7 -->
<g id="edge8_Node000006_Node000007" class="edge">
<title>Node6&#45;&gt;Node7</title>
<g id="a_edge8_Node000006_Node000007"><a xlink:title=" ">
<path fill="none" stroke="#63b8ff" d="M408.89,-61.41C427.52,-49.59 449.65,-35.54 463.97,-26.46"/>
<polygon fill="#63b8ff" stroke="#63b8ff" points="407.1,-58.4 400.54,-66.71 410.86,-64.31 407.1,-58.4"/>
</a>
</g>
</g>
<!-- Node8&#45;&gt;Node7 -->
<g id="edge12_Node000008_Node000007" class="edge">
<title>Node8&#45;&gt;Node7</title>
<g id="a_edge12_Node000008_Node000007"><a xlink:title=" ">
<path fill="none" stroke="#63b8ff" d="M481.28,-124.21C480.6,-93.9 479.53,-46.16 479.08,-26.22"/>
<polygon fill="#63b8ff" stroke="#63b8ff" points="477.77,-124.2 481.5,-134.12 484.77,-124.04 477.77,-124.2"/>
</a>
</g>
</g>
<!-- Node9 -->
<g id="Node000009" class="node">
<title>Node9</title>
<g id="a_Node000009"><a xlink:href="CustomStringsLoader_8cpp.html" target="_top" xlink:title=" ">
<polygon fill="white" stroke="#666666" points="652.38,-100 507.38,-100 507.38,-68 652.38,-68 652.38,-100"/>
<text xml:space="preserve" text-anchor="start" x="515.38" y="-86.5" font-family="Helvetica,sans-Serif" font-size="10.00">src/Utils/Json/CustomStrings</text>
<text xml:space="preserve" text-anchor="middle" x="579.88" y="-74.5" font-family="Helvetica,sans-Serif" font-size="10.00">Loader.cpp</text>
</a>
</g>
</g>
<!-- Node8&#45;&gt;Node9 -->
<g id="edge11_Node000008_Node000009" class="edge">
<title>Node8&#45;&gt;Node9</title>
<g id="a_edge11_Node000008_Node000009"><a xlink:title=" ">
<path fill="none" stroke="#63b8ff" d="M513.92,-129.42C527.96,-119.96 544.12,-109.08 556.93,-100.45"/>
<polygon fill="#63b8ff" stroke="#63b8ff" points="512.2,-126.36 505.86,-134.85 516.11,-132.16 512.2,-126.36"/>
</a>
</g>
</g>
<!-- Node10&#45;&gt;Node7 -->
<g id="edge25_Node000010_Node000007" class="edge">
<title>Node10&#45;&gt;Node7</title>
<g id="a_edge25_Node000010_Node000007"><a xlink:title=" ">
<path fill="none" stroke="#63b8ff" d="M746.22,-133.51C727.4,-114.73 695.07,-85.28 661.88,-68 622.09,-47.29 572.92,-34.19 535.58,-26.46"/>
<polygon fill="#63b8ff" stroke="#63b8ff" points="743.53,-135.76 753.03,-140.45 748.52,-130.86 743.53,-135.76"/>
</a>
</g>
</g>
<!-- Node11 -->
<g id="Node000011" class="node">
<title>Node11</title>
<g id="a_Node000011"><a xlink:href="Application_8cpp.html" target="_top" xlink:title=" ">
<polygon fill="white" stroke="#666666" points="815.25,-26 666.5,-26 666.5,-6 815.25,-6 815.25,-26"/>
<text xml:space="preserve" text-anchor="middle" x="740.88" y="-12.5" font-family="Helvetica,sans-Serif" font-size="10.00">application/src/Application.cpp</text>
</a>
</g>
</g>
<!-- Node10&#45;&gt;Node11 -->
<g id="edge14_Node000010_Node000011" class="edge">
<title>Node10&#45;&gt;Node11</title>
<g id="a_edge14_Node000010_Node000011"><a xlink:title=" ">
<path fill="none" stroke="#63b8ff" d="M751,-132.03C745.88,-122.75 740.47,-111.18 737.88,-100 731.82,-73.87 736.15,-41.9 738.97,-26.36"/>
<polygon fill="#63b8ff" stroke="#63b8ff" points="747.84,-133.57 755.93,-140.41 753.88,-130.02 747.84,-133.57"/>
</a>
</g>
</g>
<!-- Node12 -->
<g id="Node000012" class="node">
<title>Node12</title>
<g id="a_Node000012"><a xlink:href="DotNameBotLib_8hpp.html" target="_top" xlink:title=" ">
<polygon fill="white" stroke="#666666" points="866.62,-100 747.12,-100 747.12,-68 866.62,-68 866.62,-100"/>
<text xml:space="preserve" text-anchor="start" x="755.12" y="-86.5" font-family="Helvetica,sans-Serif" font-size="10.00">include/DotNameBotLib</text>
<text xml:space="preserve" text-anchor="middle" x="806.88" y="-74.5" font-family="Helvetica,sans-Serif" font-size="10.00">/DotNameBotLib.hpp</text>
</a>
</g>
</g>
<!-- Node10&#45;&gt;Node12 -->
<g id="edge15_Node000010_Node000012" class="edge">
<title>Node10&#45;&gt;Node12</title>
<g id="a_edge15_Node000010_Node000012"><a xlink:title=" ">
<path fill="none" stroke="#63b8ff" d="M775.52,-132.03C782.23,-121.97 790.37,-109.76 796.67,-100.3"/>
<polygon fill="#63b8ff" stroke="#63b8ff" points="772.65,-130.02 770.02,-140.28 778.48,-133.91 772.65,-130.02"/>
</a>
</g>
</g>
<!-- Node14 -->
<g id="Node000014" class="node">
<title>Node14</title>
<g id="a_Node000014"><a xlink:href="DiscordBot_8hpp.html" target="_top" xlink:title=" ">
<polygon fill="white" stroke="#666666" points="1036.75,-94 885,-94 885,-74 1036.75,-74 1036.75,-94"/>
<text xml:space="preserve" text-anchor="middle" x="960.88" y="-80.5" font-family="Helvetica,sans-Serif" font-size="10.00">src/DiscordBot/DiscordBot.hpp</text>
</a>
</g>
</g>
<!-- Node10&#45;&gt;Node14 -->
<g id="edge18_Node000010_Node000014" class="edge">
<title>Node10&#45;&gt;Node14</title>
<g id="a_edge18_Node000010_Node000014"><a xlink:title=" ">
<path fill="none" stroke="#63b8ff" d="M802.04,-137.95C840.52,-125.12 898.33,-105.85 932.56,-94.44"/>
<polygon fill="#63b8ff" stroke="#63b8ff" points="801.06,-134.58 792.68,-141.07 803.27,-141.22 801.06,-134.58"/>
</a>
</g>
</g>
<!-- Node16 -->
<g id="Node000016" class="node">
<title>Node16</title>
<g id="a_Node000016"><a xlink:href="RssManager_8hpp.html" target="_top" xlink:title=" ">
<polygon fill="white" stroke="#666666" points="1182.75,-94 1055,-94 1055,-74 1182.75,-74 1182.75,-94"/>
<text xml:space="preserve" text-anchor="middle" x="1118.88" y="-80.5" font-family="Helvetica,sans-Serif" font-size="10.00">src/Rss/RssManager.hpp</text>
</a>
</g>
</g>
<!-- Node10&#45;&gt;Node16 -->
<g id="edge21_Node000010_Node000016" class="edge">
<title>Node10&#45;&gt;Node16</title>
<g id="a_edge21_Node000010_Node000016"><a xlink:title=" ">
<path fill="none" stroke="#63b8ff" d="M828.83,-139.58C886.24,-129.53 971.65,-114.31 1045.88,-100 1054.9,-98.26 1064.53,-96.33 1073.74,-94.45"/>
<polygon fill="#63b8ff" stroke="#63b8ff" points="828.47,-136.09 819.22,-141.26 829.67,-142.99 828.47,-136.09"/>
</a>
</g>
</g>
<!-- Node12&#45;&gt;Node11 -->
<g id="edge16_Node000012_Node000011" class="edge">
<title>Node12&#45;&gt;Node11</title>
<g id="a_edge16_Node000012_Node000011"><a xlink:title=" ">
<path fill="none" stroke="#63b8ff" d="M783.58,-59.71C772.08,-48.2 758.84,-34.97 750.19,-26.32"/>
<polygon fill="#63b8ff" stroke="#63b8ff" points="780.95,-62.03 790.5,-66.62 785.9,-57.08 780.95,-62.03"/>
</a>
</g>
</g>
<!-- Node13 -->
<g id="Node000013" class="node">
<title>Node13</title>
<g id="a_Node000013"><a xlink:href="DotNameBotLib_8cpp.html" target="_top" xlink:title=" ">
<polygon fill="white" stroke="#666666" points="998.38,-26 877.38,-26 877.38,-6 998.38,-6 998.38,-26"/>
<text xml:space="preserve" text-anchor="middle" x="937.88" y="-12.5" font-family="Helvetica,sans-Serif" font-size="10.00">src/DotNameBotLib.cpp</text>
</a>
</g>
</g>
<!-- Node12&#45;&gt;Node13 -->
<g id="edge17_Node000012_Node000013" class="edge">
<title>Node12&#45;&gt;Node13</title>
<g id="a_edge17_Node000012_Node000013"><a xlink:title=" ">
<path fill="none" stroke="#63b8ff" d="M847.79,-62.39C871.64,-50.37 900.57,-35.79 919.1,-26.46"/>
<polygon fill="#63b8ff" stroke="#63b8ff" points="846.3,-59.22 838.94,-66.84 849.45,-65.47 846.3,-59.22"/>
</a>
</g>
</g>
<!-- Node14&#45;&gt;Node13 -->
<g id="edge20_Node000014_Node000013" class="edge">
<title>Node14&#45;&gt;Node13</title>
<g id="a_edge20_Node000014_Node000013"><a xlink:title=" ">
<path fill="none" stroke="#63b8ff" d="M953.92,-63.03C949.68,-50.89 944.48,-35.94 941.16,-26.44"/>
<polygon fill="#63b8ff" stroke="#63b8ff" points="950.49,-63.82 957.08,-72.11 957.1,-61.52 950.49,-63.82"/>
</a>
</g>
</g>
<!-- Node15 -->
<g id="Node000015" class="node">
<title>Node15</title>
<g id="a_Node000015"><a xlink:href="DiscordBot_8cpp.html" target="_top" xlink:title=" ">
<polygon fill="white" stroke="#666666" points="1167.75,-26 1016,-26 1016,-6 1167.75,-6 1167.75,-26"/>
<text xml:space="preserve" text-anchor="middle" x="1091.88" y="-12.5" font-family="Helvetica,sans-Serif" font-size="10.00">src/DiscordBot/DiscordBot.cpp</text>
</a>
</g>
</g>
<!-- Node14&#45;&gt;Node15 -->
<g id="edge19_Node000014_Node000015" class="edge">
<title>Node14&#45;&gt;Node15</title>
<g id="a_edge19_Node000014_Node000015"><a xlink:title=" ">
<path fill="none" stroke="#63b8ff" d="M989.79,-68.43C1015.18,-55.64 1051.37,-37.41 1073.14,-26.44"/>
<polygon fill="#63b8ff" stroke="#63b8ff" points="988.35,-65.24 981,-72.86 991.5,-71.49 988.35,-65.24"/>
</a>
</g>
</g>
<!-- Node16&#45;&gt;Node13 -->
<g id="edge23_Node000016_Node000013" class="edge">
<title>Node16&#45;&gt;Node13</title>
<g id="a_edge23_Node000016_Node000013"><a xlink:title=" ">
<path fill="none" stroke="#63b8ff" d="M1082.17,-69.61C1046.99,-56.79 994.79,-37.75 963.76,-26.44"/>
<polygon fill="#63b8ff" stroke="#63b8ff" points="1080.93,-72.89 1091.52,-73.03 1083.32,-66.31 1080.93,-72.89"/>
</a>
</g>
</g>
<!-- Node16&#45;&gt;Node15 -->
<g id="edge22_Node000016_Node000015" class="edge">
<title>Node16&#45;&gt;Node15</title>
<g id="a_edge22_Node000016_Node000015"><a xlink:title=" ">
<path fill="none" stroke="#63b8ff" d="M1110.71,-63.03C1105.74,-50.89 1099.62,-35.94 1095.74,-26.44"/>
<polygon fill="#63b8ff" stroke="#63b8ff" points="1107.41,-64.21 1114.43,-72.14 1113.89,-61.56 1107.41,-64.21"/>
</a>
</g>
</g>
<!-- Node17 -->
<g id="Node000017" class="node">
<title>Node17</title>
<g id="a_Node000017"><a xlink:href="RssManager_8cpp.html" target="_top" xlink:title=" ">
<polygon fill="white" stroke="#666666" points="1313.75,-26 1186,-26 1186,-6 1313.75,-6 1313.75,-26"/>
<text xml:space="preserve" text-anchor="middle" x="1249.88" y="-12.5" font-family="Helvetica,sans-Serif" font-size="10.00">src/Rss/RssManager.cpp</text>
</a>
</g>
</g>
<!-- Node16&#45;&gt;Node17 -->
<g id="edge24_Node000016_Node000017" class="edge">
<title>Node16&#45;&gt;Node17</title>
<g id="a_edge24_Node000016_Node000017"><a xlink:title=" ">
<path fill="none" stroke="#63b8ff" d="M1147.79,-68.43C1173.18,-55.64 1209.37,-37.41 1231.14,-26.44"/>
<polygon fill="#63b8ff" stroke="#63b8ff" points="1146.35,-65.24 1139,-72.86 1149.5,-71.49 1146.35,-65.24"/>
</a>
</g>
</g>
</g>
</svg>
