<?xml version="1.0" encoding="UTF-8" standalone="no"?>
<!DOCTYPE svg PUBLIC "-//W3C//DTD SVG 1.1//EN"
 "http://www.w3.org/Graphics/SVG/1.1/DTD/svg11.dtd">
<!-- Generated by graphviz version 13.1.2 (20250808.2320)
 -->
<!-- Title: src/Utils/Json/ICustomStringsLoader.hpp Pages: 1 -->
<svg width="810pt" height="232pt"
 viewBox="0.00 0.00 810.00 232.00" xmlns="http://www.w3.org/2000/svg" xmlns:xlink="http://www.w3.org/1999/xlink">
<g id="graph0" class="graph" transform="scale(1 1) rotate(0) translate(4 228)">
<title>src/Utils/Json/ICustomStringsLoader.hpp</title>
<!-- Node1 -->
<g id="Node000001" class="node">
<title>Node1</title>
<g id="a_Node000001"><a xlink:title=" ">
<polygon fill="#999999" stroke="#666666" points="377.5,-224 229.5,-224 229.5,-192 377.5,-192 377.5,-224"/>
<text xml:space="preserve" text-anchor="start" x="237.5" y="-210.5" font-family="Helvetica,sans-Serif" font-size="10.00">src/Utils/Json/ICustomStrings</text>
<text xml:space="preserve" text-anchor="middle" x="303.5" y="-198.5" font-family="Helvetica,sans-Serif" font-size="10.00">Loader.hpp</text>
</a>
</g>
</g>
<!-- Node2 -->
<g id="Node000002" class="node">
<title>Node2</title>
<g id="a_Node000002"><a xlink:href="CustomStringsLoader_8hpp.html" target="_top" xlink:title=" ">
<polygon fill="white" stroke="#666666" points="299,-156 154,-156 154,-124 299,-124 299,-156"/>
<text xml:space="preserve" text-anchor="start" x="162" y="-142.5" font-family="Helvetica,sans-Serif" font-size="10.00">src/Utils/Json/CustomStrings</text>
<text xml:space="preserve" text-anchor="middle" x="226.5" y="-130.5" font-family="Helvetica,sans-Serif" font-size="10.00">Loader.hpp</text>
</a>
</g>
</g>
<!-- Node1&#45;&gt;Node2 -->
<g id="edge1_Node000001_Node000002" class="edge">
<title>Node1&#45;&gt;Node2</title>
<g id="a_edge1_Node000001_Node000002"><a xlink:title=" ">
<path fill="none" stroke="#63b8ff" d="M277.04,-184.32C266.32,-175.13 254.21,-164.75 244.53,-156.45"/>
<polygon fill="#63b8ff" stroke="#63b8ff" points="274.62,-186.86 284.49,-190.71 279.18,-181.54 274.62,-186.86"/>
</a>
</g>
</g>
<!-- Node5 -->
<g id="Node000005" class="node">
<title>Node5</title>
<g id="a_Node000005"><a xlink:href="UtilsFactory_8hpp.html" target="_top" xlink:title=" ">
<polygon fill="white" stroke="#666666" points="518,-150 391,-150 391,-130 518,-130 518,-150"/>
<text xml:space="preserve" text-anchor="middle" x="454.5" y="-136.5" font-family="Helvetica,sans-Serif" font-size="10.00">src/Utils/UtilsFactory.hpp</text>
</a>
</g>
</g>
<!-- Node1&#45;&gt;Node5 -->
<g id="edge4_Node000001_Node000005" class="edge">
<title>Node1&#45;&gt;Node5</title>
<g id="a_edge4_Node000001_Node000005"><a xlink:title=" ">
<path fill="none" stroke="#63b8ff" d="M349.19,-187.03C376.95,-174.9 411.12,-159.96 432.86,-150.46"/>
<polygon fill="#63b8ff" stroke="#63b8ff" points="348.05,-183.71 340.29,-190.92 350.85,-190.12 348.05,-183.71"/>
</a>
</g>
</g>
<!-- Node3 -->
<g id="Node000003" class="node">
<title>Node3</title>
<g id="a_Node000003"><a xlink:href="CustomStringsLoader_8cpp.html" target="_top" xlink:title=" ">
<polygon fill="white" stroke="#666666" points="145,-88 0,-88 0,-56 145,-56 145,-88"/>
<text xml:space="preserve" text-anchor="start" x="8" y="-74.5" font-family="Helvetica,sans-Serif" font-size="10.00">src/Utils/Json/CustomStrings</text>
<text xml:space="preserve" text-anchor="middle" x="72.5" y="-62.5" font-family="Helvetica,sans-Serif" font-size="10.00">Loader.cpp</text>
</a>
</g>
</g>
<!-- Node2&#45;&gt;Node3 -->
<g id="edge2_Node000002_Node000003" class="edge">
<title>Node2&#45;&gt;Node3</title>
<g id="a_edge2_Node000002_Node000003"><a xlink:title=" ">
<path fill="none" stroke="#63b8ff" d="M179.89,-119.03C157.03,-109.23 129.91,-97.61 108.65,-88.49"/>
<polygon fill="#63b8ff" stroke="#63b8ff" points="178.43,-122.21 189,-122.93 181.19,-115.77 178.43,-122.21"/>
</a>
</g>
</g>
<!-- Node4 -->
<g id="Node000004" class="node">
<title>Node4</title>
<g id="a_Node000004"><a xlink:href="UtilsFactory_8cpp.html" target="_top" xlink:title=" ">
<polygon fill="white" stroke="#666666" points="290,-82 163,-82 163,-62 290,-62 290,-82"/>
<text xml:space="preserve" text-anchor="middle" x="226.5" y="-68.5" font-family="Helvetica,sans-Serif" font-size="10.00">src/Utils/UtilsFactory.cpp</text>
</a>
</g>
</g>
<!-- Node2&#45;&gt;Node4 -->
<g id="edge3_Node000002_Node000004" class="edge">
<title>Node2&#45;&gt;Node4</title>
<g id="a_edge3_Node000002_Node000004"><a xlink:title=" ">
<path fill="none" stroke="#63b8ff" d="M226.5,-112.31C226.5,-101.67 226.5,-90.13 226.5,-82.32"/>
<polygon fill="#63b8ff" stroke="#63b8ff" points="223,-112.18 226.5,-122.18 230,-112.18 223,-112.18"/>
</a>
</g>
</g>
<!-- Node5&#45;&gt;Node4 -->
<g id="edge16_Node000005_Node000004" class="edge">
<title>Node5&#45;&gt;Node4</title>
<g id="a_edge16_Node000005_Node000004"><a xlink:title=" ">
<path fill="none" stroke="#63b8ff" d="M410.82,-126.36C366.52,-113.53 298.95,-93.97 259.11,-82.44"/>
<polygon fill="#63b8ff" stroke="#63b8ff" points="409.8,-129.7 420.38,-129.12 411.75,-122.98 409.8,-129.7"/>
</a>
</g>
</g>
<!-- Node6 -->
<g id="Node000006" class="node">
<title>Node6</title>
<g id="a_Node000006"><a xlink:href="Application_8cpp.html" target="_top" xlink:title=" ">
<polygon fill="white" stroke="#666666" points="801.88,-20 653.12,-20 653.12,0 801.88,0 801.88,-20"/>
<text xml:space="preserve" text-anchor="middle" x="727.5" y="-6.5" font-family="Helvetica,sans-Serif" font-size="10.00">application/src/Application.cpp</text>
</a>
</g>
</g>
<!-- Node5&#45;&gt;Node6 -->
<g id="edge5_Node000005_Node000006" class="edge">
<title>Node5&#45;&gt;Node6</title>
<g id="a_edge5_Node000005_Node000006"><a xlink:title=" ">
<path fill="none" stroke="#63b8ff" d="M529.59,-136.82C608.34,-132.77 724.52,-121.18 752.5,-88 769.44,-67.91 748.29,-36.08 735.66,-20.39"/>
<polygon fill="#63b8ff" stroke="#63b8ff" points="529.58,-133.32 519.76,-137.3 529.92,-140.31 529.58,-133.32"/>
</a>
</g>
</g>
<!-- Node7 -->
<g id="Node000007" class="node">
<title>Node7</title>
<g id="a_Node000007"><a xlink:href="DotNameBotLib_8hpp.html" target="_top" xlink:title=" ">
<polygon fill="white" stroke="#666666" points="743.25,-88 623.75,-88 623.75,-56 743.25,-56 743.25,-88"/>
<text xml:space="preserve" text-anchor="start" x="631.75" y="-74.5" font-family="Helvetica,sans-Serif" font-size="10.00">include/DotNameBotLib</text>
<text xml:space="preserve" text-anchor="middle" x="683.5" y="-62.5" font-family="Helvetica,sans-Serif" font-size="10.00">/DotNameBotLib.hpp</text>
</a>
</g>
</g>
<!-- Node5&#45;&gt;Node7 -->
<g id="edge6_Node000005_Node000007" class="edge">
<title>Node5&#45;&gt;Node7</title>
<g id="a_edge6_Node000005_Node000007"><a xlink:title=" ">
<path fill="none" stroke="#63b8ff" d="M497.9,-126.49C535.41,-115.68 589.77,-100.01 629.97,-88.43"/>
<polygon fill="#63b8ff" stroke="#63b8ff" points="497.4,-122.99 488.76,-129.12 499.34,-129.72 497.4,-122.99"/>
</a>
</g>
</g>
<!-- Node9 -->
<g id="Node000009" class="node">
<title>Node9</title>
<g id="a_Node000009"><a xlink:href="DiscordBot_8hpp.html" target="_top" xlink:title=" ">
<polygon fill="white" stroke="#666666" points="605.38,-82 453.62,-82 453.62,-62 605.38,-62 605.38,-82"/>
<text xml:space="preserve" text-anchor="middle" x="529.5" y="-68.5" font-family="Helvetica,sans-Serif" font-size="10.00">src/DiscordBot/DiscordBot.hpp</text>
</a>
</g>
</g>
<!-- Node5&#45;&gt;Node9 -->
<g id="edge9_Node000005_Node000009" class="edge">
<title>Node5&#45;&gt;Node9</title>
<g id="a_edge9_Node000005_Node000009"><a xlink:title=" ">
<path fill="none" stroke="#63b8ff" d="M473.85,-121.97C488.15,-109.39 507.09,-92.72 518.77,-82.44"/>
<polygon fill="#63b8ff" stroke="#63b8ff" points="471.58,-119.31 466.38,-128.54 476.2,-124.57 471.58,-119.31"/>
</a>
</g>
</g>
<!-- Node11 -->
<g id="Node000011" class="node">
<title>Node11</title>
<g id="a_Node000011"><a xlink:href="RssManager_8hpp.html" target="_top" xlink:title=" ">
<polygon fill="white" stroke="#666666" points="435.38,-82 307.62,-82 307.62,-62 435.38,-62 435.38,-82"/>
<text xml:space="preserve" text-anchor="middle" x="371.5" y="-68.5" font-family="Helvetica,sans-Serif" font-size="10.00">src/Rss/RssManager.hpp</text>
</a>
</g>
</g>
<!-- Node5&#45;&gt;Node11 -->
<g id="edge12_Node000005_Node000011" class="edge">
<title>Node5&#45;&gt;Node11</title>
<g id="a_edge12_Node000005_Node000011"><a xlink:title=" ">
<path fill="none" stroke="#63b8ff" d="M433.99,-122.69C418.06,-110.03 396.55,-92.92 383.37,-82.44"/>
<polygon fill="#63b8ff" stroke="#63b8ff" points="431.42,-125.12 441.42,-128.6 435.77,-119.64 431.42,-125.12"/>
</a>
</g>
</g>
<!-- Node7&#45;&gt;Node6 -->
<g id="edge7_Node000007_Node000006" class="edge">
<title>Node7&#45;&gt;Node6</title>
<g id="a_edge7_Node000007_Node000006"><a xlink:title=" ">
<path fill="none" stroke="#63b8ff" d="M701.54,-46.4C708.25,-37.24 715.48,-27.39 720.6,-20.41"/>
<polygon fill="#63b8ff" stroke="#63b8ff" points="698.82,-44.19 695.73,-54.33 704.46,-48.33 698.82,-44.19"/>
</a>
</g>
</g>
<!-- Node8 -->
<g id="Node000008" class="node">
<title>Node8</title>
<g id="a_Node000008"><a xlink:href="DotNameBotLib_8cpp.html" target="_top" xlink:title=" ">
<polygon fill="white" stroke="#666666" points="612,-20 491,-20 491,0 612,0 612,-20"/>
<text xml:space="preserve" text-anchor="middle" x="551.5" y="-6.5" font-family="Helvetica,sans-Serif" font-size="10.00">src/DotNameBotLib.cpp</text>
</a>
</g>
</g>
<!-- Node7&#45;&gt;Node8 -->
<g id="edge8_Node000007_Node000008" class="edge">
<title>Node7&#45;&gt;Node8</title>
<g id="a_edge8_Node000007_Node000008"><a xlink:title=" ">
<path fill="none" stroke="#63b8ff" d="M639.1,-50.82C616.48,-40.54 590.06,-28.53 572.2,-20.41"/>
<polygon fill="#63b8ff" stroke="#63b8ff" points="637.58,-53.97 648.13,-54.92 640.47,-47.6 637.58,-53.97"/>
</a>
</g>
</g>
<!-- Node9&#45;&gt;Node8 -->
<g id="edge11_Node000009_Node000008" class="edge">
<title>Node9&#45;&gt;Node8</title>
<g id="a_edge11_Node000009_Node000008"><a xlink:title=" ">
<path fill="none" stroke="#63b8ff" d="M536.86,-50.93C540.68,-40.5 545.17,-28.26 548.16,-20.11"/>
<polygon fill="#63b8ff" stroke="#63b8ff" points="533.62,-49.61 533.46,-60.2 540.19,-52.02 533.62,-49.61"/>
</a>
</g>
</g>
<!-- Node10 -->
<g id="Node000010" class="node">
<title>Node10</title>
<g id="a_Node000010"><a xlink:href="DiscordBot_8cpp.html" target="_top" xlink:title=" ">
<polygon fill="white" stroke="#666666" points="473.38,-20 321.62,-20 321.62,0 473.38,0 473.38,-20"/>
<text xml:space="preserve" text-anchor="middle" x="397.5" y="-6.5" font-family="Helvetica,sans-Serif" font-size="10.00">src/DiscordBot/DiscordBot.cpp</text>
</a>
</g>
</g>
<!-- Node9&#45;&gt;Node10 -->
<g id="edge10_Node000009_Node000010" class="edge">
<title>Node9&#45;&gt;Node10</title>
<g id="a_edge10_Node000009_Node000010"><a xlink:title=" ">
<path fill="none" stroke="#63b8ff" d="M498.53,-56.92C473.69,-45.63 439.53,-30.1 417.98,-20.31"/>
<polygon fill="#63b8ff" stroke="#63b8ff" points="496.95,-60.05 507.5,-61 499.84,-53.67 496.95,-60.05"/>
</a>
</g>
</g>
<!-- Node11&#45;&gt;Node8 -->
<g id="edge14_Node000011_Node000008" class="edge">
<title>Node11&#45;&gt;Node8</title>
<g id="a_edge14_Node000011_Node000008"><a xlink:title=" ">
<path fill="none" stroke="#63b8ff" d="M410.55,-57.98C444.52,-46.66 492.94,-30.52 523.28,-20.41"/>
<polygon fill="#63b8ff" stroke="#63b8ff" points="409.44,-54.66 401.06,-61.15 411.65,-61.3 409.44,-54.66"/>
</a>
</g>
</g>
<!-- Node11&#45;&gt;Node10 -->
<g id="edge13_Node000011_Node000010" class="edge">
<title>Node11&#45;&gt;Node10</title>
<g id="a_edge13_Node000011_Node000010"><a xlink:title=" ">
<path fill="none" stroke="#63b8ff" d="M380.05,-51.27C384.6,-40.76 389.98,-28.35 393.55,-20.11"/>
<polygon fill="#63b8ff" stroke="#63b8ff" points="376.93,-49.67 376.16,-60.24 383.35,-52.45 376.93,-49.67"/>
</a>
</g>
</g>
<!-- Node12 -->
<g id="Node000012" class="node">
<title>Node12</title>
<g id="a_Node000012"><a xlink:href="RssManager_8cpp.html" target="_top" xlink:title=" ">
<polygon fill="white" stroke="#666666" points="303.38,-20 175.62,-20 175.62,0 303.38,0 303.38,-20"/>
<text xml:space="preserve" text-anchor="middle" x="239.5" y="-6.5" font-family="Helvetica,sans-Serif" font-size="10.00">src/Rss/RssManager.cpp</text>
</a>
</g>
</g>
<!-- Node11&#45;&gt;Node12 -->
<g id="edge15_Node000011_Node000012" class="edge">
<title>Node11&#45;&gt;Node12</title>
<g id="a_edge15_Node000011_Node000012"><a xlink:title=" ">
<path fill="none" stroke="#63b8ff" d="M340.53,-56.92C315.69,-45.63 281.53,-30.1 259.98,-20.31"/>
<polygon fill="#63b8ff" stroke="#63b8ff" points="338.95,-60.05 349.5,-61 341.84,-53.67 338.95,-60.05"/>
</a>
</g>
</g>
</g>
</svg>
