<?xml version="1.0" encoding="UTF-8" standalone="no"?>
<!DOCTYPE svg PUBLIC "-//W3C//DTD SVG 1.1//EN"
 "http://www.w3.org/Graphics/SVG/1.1/DTD/svg11.dtd">
<!-- Generated by graphviz version 13.1.2 (20250808.2320)
 -->
<!-- Title: src/Utils/Json/ICustomStringsLoader.hpp Pages: 1 -->
<svg width="697pt" height="288pt"
 viewBox="0.00 0.00 697.00 288.00" xmlns="http://www.w3.org/2000/svg" xmlns:xlink="http://www.w3.org/1999/xlink">
<g id="graph0" class="graph" transform="scale(1 1) rotate(0) translate(4 284)">
<title>src/Utils/Json/ICustomStringsLoader.hpp</title>
<!-- Node1 -->
<g id="Node000001" class="node">
<title>Node1</title>
<g id="a_Node000001"><a xlink:title=" ">
<polygon fill="#999999" stroke="#666666" points="377.5,-280 229.5,-280 229.5,-248 377.5,-248 377.5,-280"/>
<text xml:space="preserve" text-anchor="start" x="237.5" y="-266.5" font-family="Helvetica,sans-Serif" font-size="10.00">src/Utils/Json/ICustomStrings</text>
<text xml:space="preserve" text-anchor="middle" x="303.5" y="-254.5" font-family="Helvetica,sans-Serif" font-size="10.00">Loader.hpp</text>
</a>
</g>
</g>
<!-- Node2 -->
<g id="Node000002" class="node">
<title>Node2</title>
<g id="a_Node000002"><a xlink:href="CustomStringsLoader_8hpp.html" target="_top" xlink:title=" ">
<polygon fill="white" stroke="#666666" points="299,-212 154,-212 154,-180 299,-180 299,-212"/>
<text xml:space="preserve" text-anchor="start" x="162" y="-198.5" font-family="Helvetica,sans-Serif" font-size="10.00">src/Utils/Json/CustomStrings</text>
<text xml:space="preserve" text-anchor="middle" x="226.5" y="-186.5" font-family="Helvetica,sans-Serif" font-size="10.00">Loader.hpp</text>
</a>
</g>
</g>
<!-- Node1&#45;&gt;Node2 -->
<g id="edge1_Node000001_Node000002" class="edge">
<title>Node1&#45;&gt;Node2</title>
<g id="a_edge1_Node000001_Node000002"><a xlink:title=" ">
<path fill="none" stroke="#63b8ff" d="M277.04,-240.32C266.32,-231.13 254.21,-220.75 244.53,-212.45"/>
<polygon fill="#63b8ff" stroke="#63b8ff" points="274.62,-242.86 284.49,-246.71 279.18,-237.54 274.62,-242.86"/>
</a>
</g>
</g>
<!-- Node5 -->
<g id="Node000005" class="node">
<title>Node5</title>
<g id="a_Node000005"><a xlink:href="UtilsFactory_8hpp.html" target="_top" xlink:title=" ">
<polygon fill="white" stroke="#666666" points="459,-206 332,-206 332,-186 459,-186 459,-206"/>
<text xml:space="preserve" text-anchor="middle" x="395.5" y="-192.5" font-family="Helvetica,sans-Serif" font-size="10.00">src/Utils/UtilsFactory.hpp</text>
</a>
</g>
</g>
<!-- Node1&#45;&gt;Node5 -->
<g id="edge4_Node000001_Node000005" class="edge">
<title>Node1&#45;&gt;Node5</title>
<g id="a_edge4_Node000001_Node000005"><a xlink:title=" ">
<path fill="none" stroke="#63b8ff" d="M334.11,-241.04C350.56,-229.24 369.99,-215.3 382.51,-206.32"/>
<polygon fill="#63b8ff" stroke="#63b8ff" points="332.15,-238.14 326.07,-246.81 336.23,-243.82 332.15,-238.14"/>
</a>
</g>
</g>
<!-- Node3 -->
<g id="Node000003" class="node">
<title>Node3</title>
<g id="a_Node000003"><a xlink:href="CustomStringsLoader_8cpp.html" target="_top" xlink:title=" ">
<polygon fill="white" stroke="#666666" points="145,-144 0,-144 0,-112 145,-112 145,-144"/>
<text xml:space="preserve" text-anchor="start" x="8" y="-130.5" font-family="Helvetica,sans-Serif" font-size="10.00">src/Utils/Json/CustomStrings</text>
<text xml:space="preserve" text-anchor="middle" x="72.5" y="-118.5" font-family="Helvetica,sans-Serif" font-size="10.00">Loader.cpp</text>
</a>
</g>
</g>
<!-- Node2&#45;&gt;Node3 -->
<g id="edge2_Node000002_Node000003" class="edge">
<title>Node2&#45;&gt;Node3</title>
<g id="a_edge2_Node000002_Node000003"><a xlink:title=" ">
<path fill="none" stroke="#63b8ff" d="M179.89,-175.03C157.03,-165.23 129.91,-153.61 108.65,-144.49"/>
<polygon fill="#63b8ff" stroke="#63b8ff" points="178.43,-178.21 189,-178.93 181.19,-171.77 178.43,-178.21"/>
</a>
</g>
</g>
<!-- Node4 -->
<g id="Node000004" class="node">
<title>Node4</title>
<g id="a_Node000004"><a xlink:href="UtilsFactory_8cpp.html" target="_top" xlink:title=" ">
<polygon fill="white" stroke="#666666" points="290,-138 163,-138 163,-118 290,-118 290,-138"/>
<text xml:space="preserve" text-anchor="middle" x="226.5" y="-124.5" font-family="Helvetica,sans-Serif" font-size="10.00">src/Utils/UtilsFactory.cpp</text>
</a>
</g>
</g>
<!-- Node2&#45;&gt;Node4 -->
<g id="edge3_Node000002_Node000004" class="edge">
<title>Node2&#45;&gt;Node4</title>
<g id="a_edge3_Node000002_Node000004"><a xlink:title=" ">
<path fill="none" stroke="#63b8ff" d="M226.5,-168.31C226.5,-157.67 226.5,-146.13 226.5,-138.32"/>
<polygon fill="#63b8ff" stroke="#63b8ff" points="223,-168.18 226.5,-178.18 230,-168.18 223,-168.18"/>
</a>
</g>
</g>
<!-- Node5&#45;&gt;Node4 -->
<g id="edge16_Node000005_Node000004" class="edge">
<title>Node5&#45;&gt;Node4</title>
<g id="a_edge16_Node000005_Node000004"><a xlink:title=" ">
<path fill="none" stroke="#63b8ff" d="M360.8,-181.45C327.96,-168.62 279.51,-149.7 250.67,-138.44"/>
<polygon fill="#63b8ff" stroke="#63b8ff" points="359.29,-184.62 369.88,-184.99 361.83,-178.1 359.29,-184.62"/>
</a>
</g>
</g>
<!-- Node6 -->
<g id="Node000006" class="node">
<title>Node6</title>
<g id="a_Node000006"><a xlink:href="Application_8cpp.html" target="_top" xlink:title=" ">
<polygon fill="white" stroke="#666666" points="674.88,-76 526.12,-76 526.12,-56 674.88,-56 674.88,-76"/>
<text xml:space="preserve" text-anchor="middle" x="600.5" y="-62.5" font-family="Helvetica,sans-Serif" font-size="10.00">application/src/Application.cpp</text>
</a>
</g>
</g>
<!-- Node5&#45;&gt;Node6 -->
<g id="edge5_Node000005_Node000006" class="edge">
<title>Node5&#45;&gt;Node6</title>
<g id="a_edge5_Node000005_Node000006"><a xlink:title=" ">
<path fill="none" stroke="#63b8ff" d="M422.16,-180.12C439.75,-170.17 463.2,-156.63 483.5,-144 505.27,-130.45 510.1,-126.11 531.5,-112 550.25,-99.64 571.95,-85.51 585.93,-76.44"/>
<polygon fill="#63b8ff" stroke="#63b8ff" points="420.87,-176.83 413.88,-184.79 424.31,-182.93 420.87,-176.83"/>
</a>
</g>
</g>
<!-- Node7 -->
<g id="Node000007" class="node">
<title>Node7</title>
<g id="a_Node000007"><a xlink:href="DotNameBotLib_8hpp.html" target="_top" xlink:title=" ">
<polygon fill="white" stroke="#666666" points="660.25,-144 540.75,-144 540.75,-112 660.25,-112 660.25,-144"/>
<text xml:space="preserve" text-anchor="start" x="548.75" y="-130.5" font-family="Helvetica,sans-Serif" font-size="10.00">include/DotNameBotLib</text>
<text xml:space="preserve" text-anchor="middle" x="600.5" y="-118.5" font-family="Helvetica,sans-Serif" font-size="10.00">/DotNameBotLib.hpp</text>
</a>
</g>
</g>
<!-- Node5&#45;&gt;Node7 -->
<g id="edge6_Node000005_Node000007" class="edge">
<title>Node5&#45;&gt;Node7</title>
<g id="a_edge6_Node000005_Node000007"><a xlink:title=" ">
<path fill="none" stroke="#63b8ff" d="M435.65,-182.07C469.18,-171.28 517.05,-155.87 552.58,-144.43"/>
<polygon fill="#63b8ff" stroke="#63b8ff" points="434.76,-178.68 426.31,-185.08 436.9,-185.35 434.76,-178.68"/>
</a>
</g>
</g>
<!-- Node9 -->
<g id="Node000009" class="node">
<title>Node9</title>
<g id="a_Node000009"><a xlink:href="DiscordBot_8hpp.html" target="_top" xlink:title=" ">
<polygon fill="white" stroke="#666666" points="324.38,-76 172.62,-76 172.62,-56 324.38,-56 324.38,-76"/>
<text xml:space="preserve" text-anchor="middle" x="248.5" y="-62.5" font-family="Helvetica,sans-Serif" font-size="10.00">src/DiscordBot/DiscordBot.hpp</text>
</a>
</g>
</g>
<!-- Node5&#45;&gt;Node9 -->
<g id="edge9_Node000005_Node000009" class="edge">
<title>Node5&#45;&gt;Node9</title>
<g id="a_edge9_Node000005_Node000009"><a xlink:title=" ">
<path fill="none" stroke="#63b8ff" d="M376.65,-178.58C345.49,-151.45 284.24,-98.12 259.37,-76.47"/>
<polygon fill="#63b8ff" stroke="#63b8ff" points="373.95,-180.87 383.79,-184.8 378.54,-175.59 373.95,-180.87"/>
</a>
</g>
</g>
<!-- Node11 -->
<g id="Node000011" class="node">
<title>Node11</title>
<g id="a_Node000011"><a xlink:href="RssManager_8hpp.html" target="_top" xlink:title=" ">
<polygon fill="white" stroke="#666666" points="474.38,-138 346.62,-138 346.62,-118 474.38,-118 474.38,-138"/>
<text xml:space="preserve" text-anchor="middle" x="410.5" y="-124.5" font-family="Helvetica,sans-Serif" font-size="10.00">src/Rss/RssManager.hpp</text>
</a>
</g>
</g>
<!-- Node5&#45;&gt;Node11 -->
<g id="edge12_Node000005_Node000011" class="edge">
<title>Node5&#45;&gt;Node11</title>
<g id="a_edge12_Node000005_Node000011"><a xlink:title=" ">
<path fill="none" stroke="#63b8ff" d="M400.12,-174.65C402.87,-162.58 406.22,-147.84 408.35,-138.44"/>
<polygon fill="#63b8ff" stroke="#63b8ff" points="396.79,-173.54 397.98,-184.07 403.61,-175.09 396.79,-173.54"/>
</a>
</g>
</g>
<!-- Node7&#45;&gt;Node6 -->
<g id="edge7_Node000007_Node000006" class="edge">
<title>Node7&#45;&gt;Node6</title>
<g id="a_edge7_Node000007_Node000006"><a xlink:title=" ">
<path fill="none" stroke="#63b8ff" d="M600.5,-100.08C600.5,-91.6 600.5,-82.8 600.5,-76.41"/>
<polygon fill="#63b8ff" stroke="#63b8ff" points="597,-100.03 600.5,-110.03 604,-100.03 597,-100.03"/>
</a>
</g>
</g>
<!-- Node8 -->
<g id="Node000008" class="node">
<title>Node8</title>
<g id="a_Node000008"><a xlink:href="DotNameBotLib_8cpp.html" target="_top" xlink:title=" ">
<polygon fill="white" stroke="#666666" points="559,-20 438,-20 438,0 559,0 559,-20"/>
<text xml:space="preserve" text-anchor="middle" x="498.5" y="-6.5" font-family="Helvetica,sans-Serif" font-size="10.00">src/DotNameBotLib.cpp</text>
</a>
</g>
</g>
<!-- Node7&#45;&gt;Node8 -->
<g id="edge8_Node000007_Node000008" class="edge">
<title>Node7&#45;&gt;Node8</title>
<g id="a_edge8_Node000007_Node000008"><a xlink:title=" ">
<path fill="none" stroke="#63b8ff" d="M651.72,-106.61C676.87,-93.57 698.81,-75.48 683.5,-56 668.13,-36.44 606.89,-24.33 559.03,-17.66"/>
<polygon fill="#63b8ff" stroke="#63b8ff" points="650.43,-103.35 642.97,-110.87 653.5,-109.64 650.43,-103.35"/>
</a>
</g>
</g>
<!-- Node9&#45;&gt;Node8 -->
<g id="edge11_Node000009_Node000008" class="edge">
<title>Node9&#45;&gt;Node8</title>
<g id="a_edge11_Node000009_Node000008"><a xlink:title=" ">
<path fill="none" stroke="#63b8ff" d="M303.47,-53.13C348.94,-43.31 412.65,-29.54 454.72,-20.46"/>
<polygon fill="#63b8ff" stroke="#63b8ff" points="302.85,-49.68 293.81,-55.21 304.33,-56.52 302.85,-49.68"/>
</a>
</g>
</g>
<!-- Node10 -->
<g id="Node000010" class="node">
<title>Node10</title>
<g id="a_Node000010"><a xlink:href="DiscordBot_8cpp.html" target="_top" xlink:title=" ">
<polygon fill="white" stroke="#666666" points="324.38,-20 172.62,-20 172.62,0 324.38,0 324.38,-20"/>
<text xml:space="preserve" text-anchor="middle" x="248.5" y="-6.5" font-family="Helvetica,sans-Serif" font-size="10.00">src/DiscordBot/DiscordBot.cpp</text>
</a>
</g>
</g>
<!-- Node9&#45;&gt;Node10 -->
<g id="edge10_Node000009_Node000010" class="edge">
<title>Node9&#45;&gt;Node10</title>
<g id="a_edge10_Node000009_Node000010"><a xlink:title=" ">
<path fill="none" stroke="#63b8ff" d="M248.5,-44.13C248.5,-35.9 248.5,-26.85 248.5,-20.3"/>
<polygon fill="#63b8ff" stroke="#63b8ff" points="245,-44.08 248.5,-54.08 252,-44.08 245,-44.08"/>
</a>
</g>
</g>
<!-- Node11&#45;&gt;Node8 -->
<g id="edge14_Node000011_Node000008" class="edge">
<title>Node11&#45;&gt;Node8</title>
<g id="a_edge14_Node000011_Node000008"><a xlink:title=" ">
<path fill="none" stroke="#63b8ff" d="M439.05,-111.85C453.07,-103.08 469.14,-90.84 479.5,-76 491.61,-58.65 496.08,-33.56 497.67,-20.2"/>
<polygon fill="#63b8ff" stroke="#63b8ff" points="437.44,-108.74 430.61,-116.84 441,-114.76 437.44,-108.74"/>
</a>
</g>
</g>
<!-- Node11&#45;&gt;Node9 -->
<g id="edge13_Node000011_Node000009" class="edge">
<title>Node11&#45;&gt;Node9</title>
<g id="a_edge13_Node000011_Node000009"><a xlink:title=" ">
<path fill="none" stroke="#63b8ff" d="M374.56,-113.69C344.02,-102.38 300.96,-86.43 273.9,-76.41"/>
<polygon fill="#63b8ff" stroke="#63b8ff" points="373.18,-116.91 383.77,-117.1 375.61,-110.34 373.18,-116.91"/>
</a>
</g>
</g>
<!-- Node12 -->
<g id="Node000012" class="node">
<title>Node12</title>
<g id="a_Node000012"><a xlink:href="RssManager_8cpp.html" target="_top" xlink:title=" ">
<polygon fill="white" stroke="#666666" points="470.38,-76 342.62,-76 342.62,-56 470.38,-56 470.38,-76"/>
<text xml:space="preserve" text-anchor="middle" x="406.5" y="-62.5" font-family="Helvetica,sans-Serif" font-size="10.00">src/Rss/RssManager.cpp</text>
</a>
</g>
</g>
<!-- Node11&#45;&gt;Node12 -->
<g id="edge15_Node000011_Node000012" class="edge">
<title>Node11&#45;&gt;Node12</title>
<g id="a_edge15_Node000011_Node000012"><a xlink:title=" ">
<path fill="none" stroke="#63b8ff" d="M409.12,-106.25C408.43,-95.97 407.64,-84.09 407.11,-76.11"/>
<polygon fill="#63b8ff" stroke="#63b8ff" points="405.62,-106.37 409.77,-116.11 412.6,-105.9 405.62,-106.37"/>
</a>
</g>
</g>
</g>
</svg>
