<?xml version="1.0" encoding="UTF-8" standalone="no"?>
<!DOCTYPE svg PUBLIC "-//W3C//DTD SVG 1.1//EN"
 "http://www.w3.org/Graphics/SVG/1.1/DTD/svg11.dtd">
<!-- Generated by graphviz version 13.1.2 (20250808.2320)
 -->
<!-- Title: src/Utils/Filesystem/IDirectoryManager.hpp Pages: 1 -->
<svg width="780pt" height="232pt"
 viewBox="0.00 0.00 780.00 232.00" xmlns="http://www.w3.org/2000/svg" xmlns:xlink="http://www.w3.org/1999/xlink">
<g id="graph0" class="graph" transform="scale(1 1) rotate(0) translate(4 228)">
<title>src/Utils/Filesystem/IDirectoryManager.hpp</title>
<!-- Node1 -->
<g id="Node000001" class="node">
<title>Node1</title>
<g id="a_Node000001"><a xlink:title=" ">
<polygon fill="#999999" stroke="#666666" points="327.5,-224 209.5,-224 209.5,-192 327.5,-192 327.5,-224"/>
<text xml:space="preserve" text-anchor="start" x="217.5" y="-210.5" font-family="Helvetica,sans-Serif" font-size="10.00">src/Utils/Filesystem</text>
<text xml:space="preserve" text-anchor="middle" x="268.5" y="-198.5" font-family="Helvetica,sans-Serif" font-size="10.00">/IDirectoryManager.hpp</text>
</a>
</g>
</g>
<!-- Node2 -->
<g id="Node000002" class="node">
<title>Node2</title>
<g id="a_Node000002"><a xlink:href="DirectoryManager_8hpp.html" target="_top" xlink:title=" ">
<polygon fill="white" stroke="#666666" points="254,-156 139,-156 139,-124 254,-124 254,-156"/>
<text xml:space="preserve" text-anchor="start" x="147" y="-142.5" font-family="Helvetica,sans-Serif" font-size="10.00">src/Utils/Filesystem</text>
<text xml:space="preserve" text-anchor="middle" x="196.5" y="-130.5" font-family="Helvetica,sans-Serif" font-size="10.00">/DirectoryManager.hpp</text>
</a>
</g>
</g>
<!-- Node1&#45;&gt;Node2 -->
<g id="edge1_Node000001_Node000002" class="edge">
<title>Node1&#45;&gt;Node2</title>
<g id="a_edge1_Node000001_Node000002"><a xlink:title=" ">
<path fill="none" stroke="#63b8ff" d="M243.4,-183.99C233.37,-174.79 222.09,-164.46 213.11,-156.22"/>
<polygon fill="#63b8ff" stroke="#63b8ff" points="240.95,-186.49 250.69,-190.67 245.68,-181.33 240.95,-186.49"/>
</a>
</g>
</g>
<!-- Node5 -->
<g id="Node000005" class="node">
<title>Node5</title>
<g id="a_Node000005"><a xlink:href="UtilsFactory_8hpp.html" target="_top" xlink:title=" ">
<polygon fill="white" stroke="#666666" points="484,-150 357,-150 357,-130 484,-130 484,-150"/>
<text xml:space="preserve" text-anchor="middle" x="420.5" y="-136.5" font-family="Helvetica,sans-Serif" font-size="10.00">src/Utils/UtilsFactory.hpp</text>
</a>
</g>
</g>
<!-- Node1&#45;&gt;Node5 -->
<g id="edge4_Node000001_Node000005" class="edge">
<title>Node1&#45;&gt;Node5</title>
<g id="a_edge4_Node000001_Node000005"><a xlink:title=" ">
<path fill="none" stroke="#63b8ff" d="M314.49,-187.03C342.44,-174.9 376.83,-159.96 398.71,-150.46"/>
<polygon fill="#63b8ff" stroke="#63b8ff" points="313.3,-183.73 305.53,-190.92 316.09,-190.15 313.3,-183.73"/>
</a>
</g>
</g>
<!-- Node3 -->
<g id="Node000003" class="node">
<title>Node3</title>
<g id="a_Node000003"><a xlink:href="DirectoryManager_8cpp.html" target="_top" xlink:title=" ">
<polygon fill="white" stroke="#666666" points="115,-88 0,-88 0,-56 115,-56 115,-88"/>
<text xml:space="preserve" text-anchor="start" x="8" y="-74.5" font-family="Helvetica,sans-Serif" font-size="10.00">src/Utils/Filesystem</text>
<text xml:space="preserve" text-anchor="middle" x="57.5" y="-62.5" font-family="Helvetica,sans-Serif" font-size="10.00">/DirectoryManager.cpp</text>
</a>
</g>
</g>
<!-- Node2&#45;&gt;Node3 -->
<g id="edge2_Node000002_Node000003" class="edge">
<title>Node2&#45;&gt;Node3</title>
<g id="a_edge2_Node000002_Node000003"><a xlink:title=" ">
<path fill="none" stroke="#63b8ff" d="M153.55,-118.61C133.02,-108.86 108.84,-97.38 89.89,-88.38"/>
<polygon fill="#63b8ff" stroke="#63b8ff" points="152.01,-121.75 162.54,-122.88 155.01,-115.43 152.01,-121.75"/>
</a>
</g>
</g>
<!-- Node4 -->
<g id="Node000004" class="node">
<title>Node4</title>
<g id="a_Node000004"><a xlink:href="UtilsFactory_8cpp.html" target="_top" xlink:title=" ">
<polygon fill="white" stroke="#666666" points="260,-82 133,-82 133,-62 260,-62 260,-82"/>
<text xml:space="preserve" text-anchor="middle" x="196.5" y="-68.5" font-family="Helvetica,sans-Serif" font-size="10.00">src/Utils/UtilsFactory.cpp</text>
</a>
</g>
</g>
<!-- Node2&#45;&gt;Node4 -->
<g id="edge3_Node000002_Node000004" class="edge">
<title>Node2&#45;&gt;Node4</title>
<g id="a_edge3_Node000002_Node000004"><a xlink:title=" ">
<path fill="none" stroke="#63b8ff" d="M196.5,-112.31C196.5,-101.67 196.5,-90.13 196.5,-82.32"/>
<polygon fill="#63b8ff" stroke="#63b8ff" points="193,-112.18 196.5,-122.18 200,-112.18 193,-112.18"/>
</a>
</g>
</g>
<!-- Node5&#45;&gt;Node4 -->
<g id="edge16_Node000005_Node000004" class="edge">
<title>Node5&#45;&gt;Node4</title>
<g id="a_edge16_Node000005_Node000004"><a xlink:title=" ">
<path fill="none" stroke="#63b8ff" d="M377.59,-126.36C334.06,-113.53 267.68,-93.97 228.53,-82.44"/>
<polygon fill="#63b8ff" stroke="#63b8ff" points="376.37,-129.65 386.95,-129.12 378.35,-122.93 376.37,-129.65"/>
</a>
</g>
</g>
<!-- Node6 -->
<g id="Node000006" class="node">
<title>Node6</title>
<g id="a_Node000006"><a xlink:href="Application_8cpp.html" target="_top" xlink:title=" ">
<polygon fill="white" stroke="#666666" points="771.88,-20 623.12,-20 623.12,0 771.88,0 771.88,-20"/>
<text xml:space="preserve" text-anchor="middle" x="697.5" y="-6.5" font-family="Helvetica,sans-Serif" font-size="10.00">application/src/Application.cpp</text>
</a>
</g>
</g>
<!-- Node5&#45;&gt;Node6 -->
<g id="edge5_Node000005_Node000006" class="edge">
<title>Node5&#45;&gt;Node6</title>
<g id="a_edge5_Node000005_Node000006"><a xlink:title=" ">
<path fill="none" stroke="#63b8ff" d="M495.89,-137.01C575.71,-133.12 694.04,-121.67 722.5,-88 739.47,-67.93 718.31,-36.09 705.67,-20.39"/>
<polygon fill="#63b8ff" stroke="#63b8ff" points="495.76,-133.51 485.93,-137.46 496.07,-140.5 495.76,-133.51"/>
</a>
</g>
</g>
<!-- Node7 -->
<g id="Node000007" class="node">
<title>Node7</title>
<g id="a_Node000007"><a xlink:href="DotNameBotLib_8hpp.html" target="_top" xlink:title=" ">
<polygon fill="white" stroke="#666666" points="713.25,-88 593.75,-88 593.75,-56 713.25,-56 713.25,-88"/>
<text xml:space="preserve" text-anchor="start" x="601.75" y="-74.5" font-family="Helvetica,sans-Serif" font-size="10.00">include/DotNameBotLib</text>
<text xml:space="preserve" text-anchor="middle" x="653.5" y="-62.5" font-family="Helvetica,sans-Serif" font-size="10.00">/DotNameBotLib.hpp</text>
</a>
</g>
</g>
<!-- Node5&#45;&gt;Node7 -->
<g id="edge6_Node000005_Node000007" class="edge">
<title>Node5&#45;&gt;Node7</title>
<g id="a_edge6_Node000005_Node000007"><a xlink:title=" ">
<path fill="none" stroke="#63b8ff" d="M464.65,-126.49C502.82,-115.68 558.13,-100.01 599.04,-88.43"/>
<polygon fill="#63b8ff" stroke="#63b8ff" points="464.01,-123.04 455.34,-129.13 465.91,-129.77 464.01,-123.04"/>
</a>
</g>
</g>
<!-- Node9 -->
<g id="Node000009" class="node">
<title>Node9</title>
<g id="a_Node000009"><a xlink:href="DiscordBot_8hpp.html" target="_top" xlink:title=" ">
<polygon fill="white" stroke="#666666" points="575.38,-82 423.62,-82 423.62,-62 575.38,-62 575.38,-82"/>
<text xml:space="preserve" text-anchor="middle" x="499.5" y="-68.5" font-family="Helvetica,sans-Serif" font-size="10.00">src/DiscordBot/DiscordBot.hpp</text>
</a>
</g>
</g>
<!-- Node5&#45;&gt;Node9 -->
<g id="edge9_Node000005_Node000009" class="edge">
<title>Node5&#45;&gt;Node9</title>
<g id="a_edge9_Node000005_Node000009"><a xlink:title=" ">
<path fill="none" stroke="#63b8ff" d="M440.45,-122.33C455.56,-109.71 475.77,-92.82 488.2,-82.44"/>
<polygon fill="#63b8ff" stroke="#63b8ff" points="438.41,-119.48 432.98,-128.57 442.9,-124.85 438.41,-119.48"/>
</a>
</g>
</g>
<!-- Node11 -->
<g id="Node000011" class="node">
<title>Node11</title>
<g id="a_Node000011"><a xlink:href="RssManager_8hpp.html" target="_top" xlink:title=" ">
<polygon fill="white" stroke="#666666" points="405.38,-82 277.62,-82 277.62,-62 405.38,-62 405.38,-82"/>
<text xml:space="preserve" text-anchor="middle" x="341.5" y="-68.5" font-family="Helvetica,sans-Serif" font-size="10.00">src/Rss/RssManager.hpp</text>
</a>
</g>
</g>
<!-- Node5&#45;&gt;Node11 -->
<g id="edge12_Node000005_Node000011" class="edge">
<title>Node5&#45;&gt;Node11</title>
<g id="a_edge12_Node000005_Node000011"><a xlink:title=" ">
<path fill="none" stroke="#63b8ff" d="M400.55,-122.33C385.44,-109.71 365.23,-92.82 352.8,-82.44"/>
<polygon fill="#63b8ff" stroke="#63b8ff" points="398.1,-124.85 408.02,-128.57 402.59,-119.48 398.1,-124.85"/>
</a>
</g>
</g>
<!-- Node7&#45;&gt;Node6 -->
<g id="edge7_Node000007_Node000006" class="edge">
<title>Node7&#45;&gt;Node6</title>
<g id="a_edge7_Node000007_Node000006"><a xlink:title=" ">
<path fill="none" stroke="#63b8ff" d="M671.54,-46.4C678.25,-37.24 685.48,-27.39 690.6,-20.41"/>
<polygon fill="#63b8ff" stroke="#63b8ff" points="668.82,-44.19 665.73,-54.33 674.46,-48.33 668.82,-44.19"/>
</a>
</g>
</g>
<!-- Node8 -->
<g id="Node000008" class="node">
<title>Node8</title>
<g id="a_Node000008"><a xlink:href="DotNameBotLib_8cpp.html" target="_top" xlink:title=" ">
<polygon fill="white" stroke="#666666" points="582,-20 461,-20 461,0 582,0 582,-20"/>
<text xml:space="preserve" text-anchor="middle" x="521.5" y="-6.5" font-family="Helvetica,sans-Serif" font-size="10.00">src/DotNameBotLib.cpp</text>
</a>
</g>
</g>
<!-- Node7&#45;&gt;Node8 -->
<g id="edge8_Node000007_Node000008" class="edge">
<title>Node7&#45;&gt;Node8</title>
<g id="a_edge8_Node000007_Node000008"><a xlink:title=" ">
<path fill="none" stroke="#63b8ff" d="M609.1,-50.82C586.48,-40.54 560.06,-28.53 542.2,-20.41"/>
<polygon fill="#63b8ff" stroke="#63b8ff" points="607.58,-53.97 618.13,-54.92 610.47,-47.6 607.58,-53.97"/>
</a>
</g>
</g>
<!-- Node9&#45;&gt;Node8 -->
<g id="edge11_Node000009_Node000008" class="edge">
<title>Node9&#45;&gt;Node8</title>
<g id="a_edge11_Node000009_Node000008"><a xlink:title=" ">
<path fill="none" stroke="#63b8ff" d="M506.86,-50.93C510.68,-40.5 515.17,-28.26 518.16,-20.11"/>
<polygon fill="#63b8ff" stroke="#63b8ff" points="503.62,-49.61 503.46,-60.2 510.19,-52.02 503.62,-49.61"/>
</a>
</g>
</g>
<!-- Node10 -->
<g id="Node000010" class="node">
<title>Node10</title>
<g id="a_Node000010"><a xlink:href="DiscordBot_8cpp.html" target="_top" xlink:title=" ">
<polygon fill="white" stroke="#666666" points="443.38,-20 291.62,-20 291.62,0 443.38,0 443.38,-20"/>
<text xml:space="preserve" text-anchor="middle" x="367.5" y="-6.5" font-family="Helvetica,sans-Serif" font-size="10.00">src/DiscordBot/DiscordBot.cpp</text>
</a>
</g>
</g>
<!-- Node9&#45;&gt;Node10 -->
<g id="edge10_Node000009_Node000010" class="edge">
<title>Node9&#45;&gt;Node10</title>
<g id="a_edge10_Node000009_Node000010"><a xlink:title=" ">
<path fill="none" stroke="#63b8ff" d="M468.53,-56.92C443.69,-45.63 409.53,-30.1 387.98,-20.31"/>
<polygon fill="#63b8ff" stroke="#63b8ff" points="466.95,-60.05 477.5,-61 469.84,-53.67 466.95,-60.05"/>
</a>
</g>
</g>
<!-- Node11&#45;&gt;Node8 -->
<g id="edge14_Node000011_Node000008" class="edge">
<title>Node11&#45;&gt;Node8</title>
<g id="a_edge14_Node000011_Node000008"><a xlink:title=" ">
<path fill="none" stroke="#63b8ff" d="M380.55,-57.98C414.52,-46.66 462.94,-30.52 493.28,-20.41"/>
<polygon fill="#63b8ff" stroke="#63b8ff" points="379.44,-54.66 371.06,-61.15 381.65,-61.3 379.44,-54.66"/>
</a>
</g>
</g>
<!-- Node11&#45;&gt;Node10 -->
<g id="edge13_Node000011_Node000010" class="edge">
<title>Node11&#45;&gt;Node10</title>
<g id="a_edge13_Node000011_Node000010"><a xlink:title=" ">
<path fill="none" stroke="#63b8ff" d="M350.05,-51.27C354.6,-40.76 359.98,-28.35 363.55,-20.11"/>
<polygon fill="#63b8ff" stroke="#63b8ff" points="346.93,-49.67 346.16,-60.24 353.35,-52.45 346.93,-49.67"/>
</a>
</g>
</g>
<!-- Node12 -->
<g id="Node000012" class="node">
<title>Node12</title>
<g id="a_Node000012"><a xlink:href="RssManager_8cpp.html" target="_top" xlink:title=" ">
<polygon fill="white" stroke="#666666" points="273.38,-20 145.62,-20 145.62,0 273.38,0 273.38,-20"/>
<text xml:space="preserve" text-anchor="middle" x="209.5" y="-6.5" font-family="Helvetica,sans-Serif" font-size="10.00">src/Rss/RssManager.cpp</text>
</a>
</g>
</g>
<!-- Node11&#45;&gt;Node12 -->
<g id="edge15_Node000011_Node000012" class="edge">
<title>Node11&#45;&gt;Node12</title>
<g id="a_edge15_Node000011_Node000012"><a xlink:title=" ">
<path fill="none" stroke="#63b8ff" d="M310.53,-56.92C285.69,-45.63 251.53,-30.1 229.98,-20.31"/>
<polygon fill="#63b8ff" stroke="#63b8ff" points="308.95,-60.05 319.5,-61 311.84,-53.67 308.95,-60.05"/>
</a>
</g>
</g>
</g>
</svg>
