<?xml version="1.0" encoding="UTF-8" standalone="no"?>
<!DOCTYPE svg PUBLIC "-//W3C//DTD SVG 1.1//EN"
 "http://www.w3.org/Graphics/SVG/1.1/DTD/svg11.dtd">
<!-- Generated by graphviz version 13.1.2 (20250808.2320)
 -->
<!-- Title: src/Utils/Filesystem/IDirectoryManager.hpp Pages: 1 -->
<svg width="667pt" height="288pt"
 viewBox="0.00 0.00 667.00 288.00" xmlns="http://www.w3.org/2000/svg" xmlns:xlink="http://www.w3.org/1999/xlink">
<g id="graph0" class="graph" transform="scale(1 1) rotate(0) translate(4 284)">
<title>src/Utils/Filesystem/IDirectoryManager.hpp</title>
<!-- Node1 -->
<g id="Node000001" class="node">
<title>Node1</title>
<g id="a_Node000001"><a xlink:title=" ">
<polygon fill="#999999" stroke="#666666" points="324.5,-280 206.5,-280 206.5,-248 324.5,-248 324.5,-280"/>
<text xml:space="preserve" text-anchor="start" x="214.5" y="-266.5" font-family="Helvetica,sans-Serif" font-size="10.00">src/Utils/Filesystem</text>
<text xml:space="preserve" text-anchor="middle" x="265.5" y="-254.5" font-family="Helvetica,sans-Serif" font-size="10.00">/IDirectoryManager.hpp</text>
</a>
</g>
</g>
<!-- Node2 -->
<g id="Node000002" class="node">
<title>Node2</title>
<g id="a_Node000002"><a xlink:href="DirectoryManager_8hpp.html" target="_top" xlink:title=" ">
<polygon fill="white" stroke="#666666" points="254,-212 139,-212 139,-180 254,-180 254,-212"/>
<text xml:space="preserve" text-anchor="start" x="147" y="-198.5" font-family="Helvetica,sans-Serif" font-size="10.00">src/Utils/Filesystem</text>
<text xml:space="preserve" text-anchor="middle" x="196.5" y="-186.5" font-family="Helvetica,sans-Serif" font-size="10.00">/DirectoryManager.hpp</text>
</a>
</g>
</g>
<!-- Node1&#45;&gt;Node2 -->
<g id="edge1_Node000001_Node000002" class="edge">
<title>Node1&#45;&gt;Node2</title>
<g id="a_edge1_Node000001_Node000002"><a xlink:title=" ">
<path fill="none" stroke="#63b8ff" d="M241.44,-239.99C231.83,-230.79 221.02,-220.46 212.42,-212.22"/>
<polygon fill="#63b8ff" stroke="#63b8ff" points="238.76,-242.26 248.4,-246.65 243.6,-237.2 238.76,-242.26"/>
</a>
</g>
</g>
<!-- Node5 -->
<g id="Node000005" class="node">
<title>Node5</title>
<g id="a_Node000005"><a xlink:href="UtilsFactory_8hpp.html" target="_top" xlink:title=" ">
<polygon fill="white" stroke="#666666" points="421,-206 294,-206 294,-186 421,-186 421,-206"/>
<text xml:space="preserve" text-anchor="middle" x="357.5" y="-192.5" font-family="Helvetica,sans-Serif" font-size="10.00">src/Utils/UtilsFactory.hpp</text>
</a>
</g>
</g>
<!-- Node1&#45;&gt;Node5 -->
<g id="edge4_Node000001_Node000005" class="edge">
<title>Node1&#45;&gt;Node5</title>
<g id="a_edge4_Node000001_Node000005"><a xlink:title=" ">
<path fill="none" stroke="#63b8ff" d="M296.11,-241.04C312.56,-229.24 331.99,-215.3 344.51,-206.32"/>
<polygon fill="#63b8ff" stroke="#63b8ff" points="294.15,-238.14 288.07,-246.81 298.23,-243.82 294.15,-238.14"/>
</a>
</g>
</g>
<!-- Node3 -->
<g id="Node000003" class="node">
<title>Node3</title>
<g id="a_Node000003"><a xlink:href="DirectoryManager_8cpp.html" target="_top" xlink:title=" ">
<polygon fill="white" stroke="#666666" points="115,-144 0,-144 0,-112 115,-112 115,-144"/>
<text xml:space="preserve" text-anchor="start" x="8" y="-130.5" font-family="Helvetica,sans-Serif" font-size="10.00">src/Utils/Filesystem</text>
<text xml:space="preserve" text-anchor="middle" x="57.5" y="-118.5" font-family="Helvetica,sans-Serif" font-size="10.00">/DirectoryManager.cpp</text>
</a>
</g>
</g>
<!-- Node2&#45;&gt;Node3 -->
<g id="edge2_Node000002_Node000003" class="edge">
<title>Node2&#45;&gt;Node3</title>
<g id="a_edge2_Node000002_Node000003"><a xlink:title=" ">
<path fill="none" stroke="#63b8ff" d="M153.55,-174.61C133.02,-164.86 108.84,-153.38 89.89,-144.38"/>
<polygon fill="#63b8ff" stroke="#63b8ff" points="152.01,-177.75 162.54,-178.88 155.01,-171.43 152.01,-177.75"/>
</a>
</g>
</g>
<!-- Node4 -->
<g id="Node000004" class="node">
<title>Node4</title>
<g id="a_Node000004"><a xlink:href="UtilsFactory_8cpp.html" target="_top" xlink:title=" ">
<polygon fill="white" stroke="#666666" points="260,-138 133,-138 133,-118 260,-118 260,-138"/>
<text xml:space="preserve" text-anchor="middle" x="196.5" y="-124.5" font-family="Helvetica,sans-Serif" font-size="10.00">src/Utils/UtilsFactory.cpp</text>
</a>
</g>
</g>
<!-- Node2&#45;&gt;Node4 -->
<g id="edge3_Node000002_Node000004" class="edge">
<title>Node2&#45;&gt;Node4</title>
<g id="a_edge3_Node000002_Node000004"><a xlink:title=" ">
<path fill="none" stroke="#63b8ff" d="M196.5,-168.31C196.5,-157.67 196.5,-146.13 196.5,-138.32"/>
<polygon fill="#63b8ff" stroke="#63b8ff" points="193,-168.18 196.5,-178.18 200,-168.18 193,-168.18"/>
</a>
</g>
</g>
<!-- Node5&#45;&gt;Node4 -->
<g id="edge16_Node000005_Node000004" class="edge">
<title>Node5&#45;&gt;Node4</title>
<g id="a_edge16_Node000005_Node000004"><a xlink:title=" ">
<path fill="none" stroke="#63b8ff" d="M324.03,-181.28C292.75,-168.46 246.88,-149.65 219.52,-138.44"/>
<polygon fill="#63b8ff" stroke="#63b8ff" points="322.45,-184.42 333.03,-184.97 325.11,-177.94 322.45,-184.42"/>
</a>
</g>
</g>
<!-- Node6 -->
<g id="Node000006" class="node">
<title>Node6</title>
<g id="a_Node000006"><a xlink:href="Application_8cpp.html" target="_top" xlink:title=" ">
<polygon fill="white" stroke="#666666" points="644.88,-76 496.12,-76 496.12,-56 644.88,-56 644.88,-76"/>
<text xml:space="preserve" text-anchor="middle" x="570.5" y="-62.5" font-family="Helvetica,sans-Serif" font-size="10.00">application/src/Application.cpp</text>
</a>
</g>
</g>
<!-- Node5&#45;&gt;Node6 -->
<g id="edge5_Node000005_Node000006" class="edge">
<title>Node5&#45;&gt;Node6</title>
<g id="a_edge5_Node000005_Node000006"><a xlink:title=" ">
<path fill="none" stroke="#63b8ff" d="M386.81,-180.39C406.04,-170.57 431.59,-157.08 453.5,-144 475.52,-130.86 480.1,-126.11 501.5,-112 520.25,-99.64 541.95,-85.51 555.93,-76.44"/>
<polygon fill="#63b8ff" stroke="#63b8ff" points="385.26,-177.25 377.92,-184.89 388.42,-183.5 385.26,-177.25"/>
</a>
</g>
</g>
<!-- Node7 -->
<g id="Node000007" class="node">
<title>Node7</title>
<g id="a_Node000007"><a xlink:href="DotNameBotLib_8hpp.html" target="_top" xlink:title=" ">
<polygon fill="white" stroke="#666666" points="630.25,-144 510.75,-144 510.75,-112 630.25,-112 630.25,-144"/>
<text xml:space="preserve" text-anchor="start" x="518.75" y="-130.5" font-family="Helvetica,sans-Serif" font-size="10.00">include/DotNameBotLib</text>
<text xml:space="preserve" text-anchor="middle" x="570.5" y="-118.5" font-family="Helvetica,sans-Serif" font-size="10.00">/DotNameBotLib.hpp</text>
</a>
</g>
</g>
<!-- Node5&#45;&gt;Node7 -->
<g id="edge6_Node000005_Node000007" class="edge">
<title>Node5&#45;&gt;Node7</title>
<g id="a_edge6_Node000005_Node000007"><a xlink:title=" ">
<path fill="none" stroke="#63b8ff" d="M398.77,-182.21C433.62,-171.41 483.64,-155.92 520.71,-144.43"/>
<polygon fill="#63b8ff" stroke="#63b8ff" points="397.98,-178.79 389.46,-185.1 400.05,-185.48 397.98,-178.79"/>
</a>
</g>
</g>
<!-- Node9 -->
<g id="Node000009" class="node">
<title>Node9</title>
<g id="a_Node000009"><a xlink:href="DiscordBot_8hpp.html" target="_top" xlink:title=" ">
<polygon fill="white" stroke="#666666" points="294.38,-76 142.62,-76 142.62,-56 294.38,-56 294.38,-76"/>
<text xml:space="preserve" text-anchor="middle" x="218.5" y="-62.5" font-family="Helvetica,sans-Serif" font-size="10.00">src/DiscordBot/DiscordBot.hpp</text>
</a>
</g>
</g>
<!-- Node5&#45;&gt;Node9 -->
<g id="edge9_Node000005_Node000009" class="edge">
<title>Node5&#45;&gt;Node9</title>
<g id="a_edge9_Node000005_Node000009"><a xlink:title=" ">
<path fill="none" stroke="#63b8ff" d="M339.59,-177.78C321.93,-160.87 294.07,-134.42 269.5,-112 255.72,-99.43 239.52,-85.23 229.14,-76.21"/>
<polygon fill="#63b8ff" stroke="#63b8ff" points="337.1,-180.24 346.74,-184.63 341.95,-175.19 337.1,-180.24"/>
</a>
</g>
</g>
<!-- Node11 -->
<g id="Node000011" class="node">
<title>Node11</title>
<g id="a_Node000011"><a xlink:href="RssManager_8hpp.html" target="_top" xlink:title=" ">
<polygon fill="white" stroke="#666666" points="444.38,-138 316.62,-138 316.62,-118 444.38,-118 444.38,-138"/>
<text xml:space="preserve" text-anchor="middle" x="380.5" y="-124.5" font-family="Helvetica,sans-Serif" font-size="10.00">src/Rss/RssManager.hpp</text>
</a>
</g>
</g>
<!-- Node5&#45;&gt;Node11 -->
<g id="edge12_Node000005_Node000011" class="edge">
<title>Node5&#45;&gt;Node11</title>
<g id="a_edge12_Node000005_Node000011"><a xlink:title=" ">
<path fill="none" stroke="#63b8ff" d="M364.46,-175.03C368.69,-162.89 373.9,-147.94 377.21,-138.44"/>
<polygon fill="#63b8ff" stroke="#63b8ff" points="361.28,-173.52 361.29,-184.11 367.89,-175.82 361.28,-173.52"/>
</a>
</g>
</g>
<!-- Node7&#45;&gt;Node6 -->
<g id="edge7_Node000007_Node000006" class="edge">
<title>Node7&#45;&gt;Node6</title>
<g id="a_edge7_Node000007_Node000006"><a xlink:title=" ">
<path fill="none" stroke="#63b8ff" d="M570.5,-100.08C570.5,-91.6 570.5,-82.8 570.5,-76.41"/>
<polygon fill="#63b8ff" stroke="#63b8ff" points="567,-100.03 570.5,-110.03 574,-100.03 567,-100.03"/>
</a>
</g>
</g>
<!-- Node8 -->
<g id="Node000008" class="node">
<title>Node8</title>
<g id="a_Node000008"><a xlink:href="DotNameBotLib_8cpp.html" target="_top" xlink:title=" ">
<polygon fill="white" stroke="#666666" points="529,-20 408,-20 408,0 529,0 529,-20"/>
<text xml:space="preserve" text-anchor="middle" x="468.5" y="-6.5" font-family="Helvetica,sans-Serif" font-size="10.00">src/DotNameBotLib.cpp</text>
</a>
</g>
</g>
<!-- Node7&#45;&gt;Node8 -->
<g id="edge8_Node000007_Node000008" class="edge">
<title>Node7&#45;&gt;Node8</title>
<g id="a_edge8_Node000007_Node000008"><a xlink:title=" ">
<path fill="none" stroke="#63b8ff" d="M621.72,-106.61C646.87,-93.57 668.81,-75.48 653.5,-56 638.13,-36.44 576.89,-24.33 529.03,-17.66"/>
<polygon fill="#63b8ff" stroke="#63b8ff" points="620.43,-103.35 612.97,-110.87 623.5,-109.64 620.43,-103.35"/>
</a>
</g>
</g>
<!-- Node9&#45;&gt;Node8 -->
<g id="edge11_Node000009_Node000008" class="edge">
<title>Node9&#45;&gt;Node8</title>
<g id="a_edge11_Node000009_Node000008"><a xlink:title=" ">
<path fill="none" stroke="#63b8ff" d="M273.47,-53.13C318.94,-43.31 382.65,-29.54 424.72,-20.46"/>
<polygon fill="#63b8ff" stroke="#63b8ff" points="272.85,-49.68 263.81,-55.21 274.33,-56.52 272.85,-49.68"/>
</a>
</g>
</g>
<!-- Node10 -->
<g id="Node000010" class="node">
<title>Node10</title>
<g id="a_Node000010"><a xlink:href="DiscordBot_8cpp.html" target="_top" xlink:title=" ">
<polygon fill="white" stroke="#666666" points="294.38,-20 142.62,-20 142.62,0 294.38,0 294.38,-20"/>
<text xml:space="preserve" text-anchor="middle" x="218.5" y="-6.5" font-family="Helvetica,sans-Serif" font-size="10.00">src/DiscordBot/DiscordBot.cpp</text>
</a>
</g>
</g>
<!-- Node9&#45;&gt;Node10 -->
<g id="edge10_Node000009_Node000010" class="edge">
<title>Node9&#45;&gt;Node10</title>
<g id="a_edge10_Node000009_Node000010"><a xlink:title=" ">
<path fill="none" stroke="#63b8ff" d="M218.5,-44.13C218.5,-35.9 218.5,-26.85 218.5,-20.3"/>
<polygon fill="#63b8ff" stroke="#63b8ff" points="215,-44.08 218.5,-54.08 222,-44.08 215,-44.08"/>
</a>
</g>
</g>
<!-- Node11&#45;&gt;Node8 -->
<g id="edge14_Node000011_Node000008" class="edge">
<title>Node11&#45;&gt;Node8</title>
<g id="a_edge14_Node000011_Node000008"><a xlink:title=" ">
<path fill="none" stroke="#63b8ff" d="M409.05,-111.85C423.07,-103.08 439.14,-90.84 449.5,-76 461.61,-58.65 466.08,-33.56 467.67,-20.2"/>
<polygon fill="#63b8ff" stroke="#63b8ff" points="407.44,-108.74 400.61,-116.84 411,-114.76 407.44,-108.74"/>
</a>
</g>
</g>
<!-- Node11&#45;&gt;Node9 -->
<g id="edge13_Node000011_Node000009" class="edge">
<title>Node11&#45;&gt;Node9</title>
<g id="a_edge13_Node000011_Node000009"><a xlink:title=" ">
<path fill="none" stroke="#63b8ff" d="M344.56,-113.69C314.02,-102.38 270.96,-86.43 243.9,-76.41"/>
<polygon fill="#63b8ff" stroke="#63b8ff" points="343.18,-116.91 353.77,-117.1 345.61,-110.34 343.18,-116.91"/>
</a>
</g>
</g>
<!-- Node12 -->
<g id="Node000012" class="node">
<title>Node12</title>
<g id="a_Node000012"><a xlink:href="RssManager_8cpp.html" target="_top" xlink:title=" ">
<polygon fill="white" stroke="#666666" points="440.38,-76 312.62,-76 312.62,-56 440.38,-56 440.38,-76"/>
<text xml:space="preserve" text-anchor="middle" x="376.5" y="-62.5" font-family="Helvetica,sans-Serif" font-size="10.00">src/Rss/RssManager.cpp</text>
</a>
</g>
</g>
<!-- Node11&#45;&gt;Node12 -->
<g id="edge15_Node000011_Node000012" class="edge">
<title>Node11&#45;&gt;Node12</title>
<g id="a_edge15_Node000011_Node000012"><a xlink:title=" ">
<path fill="none" stroke="#63b8ff" d="M379.12,-106.25C378.43,-95.97 377.64,-84.09 377.11,-76.11"/>
<polygon fill="#63b8ff" stroke="#63b8ff" points="375.62,-106.37 379.77,-116.11 382.6,-105.9 375.62,-106.37"/>
</a>
</g>
</g>
</g>
</svg>
