<?xml version="1.0" encoding="UTF-8" standalone="no"?>
<!DOCTYPE svg PUBLIC "-//W3C//DTD SVG 1.1//EN"
 "http://www.w3.org/Graphics/SVG/1.1/DTD/svg11.dtd">
<!-- Generated by graphviz version 13.1.2 (20250808.2320)
 -->
<!-- Title: src/Utils/Json/IJsonSerializer.hpp Pages: 1 -->
<!--zoomable 220 -->

<svg id="main" version="1.1" xmlns="http://www.w3.org/2000/svg" xmlns:xlink="http://www.w3.org/1999/xlink" xml:space="preserve" onload="init(evt)">

<style type="text/css"><![CDATA[
.node, .edge {opacity: 0.7;}
.node.selected, .edge.selected {opacity: 1;}
.edge:hover path { stroke: red; }
.edge:hover polygon { stroke: red; fill: red; }
]]></style>

<defs>
  <circle id="rim" cx="0" cy="0" r="7"/>
  <circle id="rim2" cx="0" cy="0" r="3.5"/>
  <g id="zoomPlus">
    <use xlink:href="#rim" fill="#404040"><set attributeName="fill" to="#808080" begin="zoomplus.mouseover" end="zoomplus.mouseout"/></use>
    <path d="M-4,0h8M0,-4v8" fill="none" stroke="white" stroke-width="1.5" pointer-events="none"/>
  </g>
  <g id="zoomMin">
    <use xlink:href="#rim" fill="#404040"><set attributeName="fill" to="#808080" begin="zoomminus.mouseover" end="zoomminus.mouseout"/></use>
    <path d="M-4,0h8" fill="none" stroke="white" stroke-width="1.5" pointer-events="none"/>
  </g>
  <g id="arrowUp" transform="translate(30 24)">
    <use xlink:href="#rim"/>
    <path pointer-events="none" fill="none" stroke="white" stroke-width="1.5" d="M0,-3.0v7 M-2.5,-0.5L0,-3.0L2.5,-0.5"/>
  </g>
  <g id="arrowRight" transform="rotate(90) translate(36 -43)">
    <use xlink:href="#rim"/>
    <path pointer-events="none" fill="none" stroke="white" stroke-width="1.5" d="M0,-3.0v7 M-2.5,-0.5L0,-3.0L2.5,-0.5"/>
  </g>
  <g id="arrowDown" transform="rotate(180) translate(-30 -48)">
    <use xlink:href="#rim"/>
    <path pointer-events="none" fill="none" stroke="white" stroke-width="1.5" d="M0,-3.0v7 M-2.5,-0.5L0,-3.0L2.5,-0.5"/>
  </g>
  <g id="arrowLeft" transform="rotate(270) translate(-36 17)">
    <use xlink:href="#rim"/>
    <path pointer-events="none" fill="none" stroke="white" stroke-width="1.5" d="M0,-3.0v7 M-2.5,-0.5L0,-3.0L2.5,-0.5"/>
  </g>
  <g id="resetDef">
    <use xlink:href="#rim2" fill="#404040"><set attributeName="fill" to="#808080" begin="reset.mouseover" end="reset.mouseout"/></use>
  </g>
</defs>
<script type="application/ecmascript">
var viewWidth = 1100;
var viewHeight = 220;
var sectionId = 'dynsection-1';
</script>
<script type="application/ecmascript" xlink:href="svg.min.js"/>
<svg id="graph" class="graph">
<g id="viewport">
<title>src/Utils/Json/IJsonSerializer.hpp</title>
<!-- Node1 -->
<g id="Node000001" class="node">
<title>Node1</title>
<g id="a_Node000001"><a xlink:title=" ">
<polygon fill="#999999" stroke="#666666" points="487,-212 324,-212 324,-192 487,-192 487,-212"/>
<text xml:space="preserve" text-anchor="middle" x="405.5" y="-198.5" font-family="Helvetica,sans-Serif" font-size="10.00">src/Utils/Json/IJsonSerializer.hpp</text>
</a>
</g>
</g>
<!-- Node2 -->
<g id="Node000002" class="node">
<title>Node2</title>
<g id="a_Node000002"><a xlink:href="CustomStringsLoader_8hpp.html" target="_top" xlink:title=" ">
<polygon fill="white" stroke="#666666" points="307,-156 162,-156 162,-124 307,-124 307,-156"/>
<text xml:space="preserve" text-anchor="start" x="170" y="-142.5" font-family="Helvetica,sans-Serif" font-size="10.00">src/Utils/Json/CustomStrings</text>
<text xml:space="preserve" text-anchor="middle" x="234.5" y="-130.5" font-family="Helvetica,sans-Serif" font-size="10.00">Loader.hpp</text>
</a>
</g>
</g>
<!-- Node1&#45;&gt;Node2 -->
<g id="edge1_Node000001_Node000002" class="edge">
<title>Node1&#45;&gt;Node2</title>
<g id="a_edge1_Node000001_Node000002"><a xlink:title=" ">
<path fill="none" stroke="#63b8ff" d="M368.09,-187.87C341.75,-178.63 306.38,-166.22 278.65,-156.49"/>
<polygon fill="#63b8ff" stroke="#63b8ff" points="366.76,-191.12 377.35,-191.12 369.08,-184.51 366.76,-191.12"/>
</a>
</g>
</g>
<!-- Node5 -->
<g id="Node000005" class="node">
<title>Node5</title>
<g id="a_Node000005"><a xlink:href="JsonSerializer_8hpp.html" target="_top" xlink:title=" ">
<polygon fill="white" stroke="#666666" points="485.5,-150 325.5,-150 325.5,-130 485.5,-130 485.5,-150"/>
<text xml:space="preserve" text-anchor="middle" x="405.5" y="-136.5" font-family="Helvetica,sans-Serif" font-size="10.00">src/Utils/Json/JsonSerializer.hpp</text>
</a>
</g>
</g>
<!-- Node1&#45;&gt;Node5 -->
<g id="edge4_Node000001_Node000005" class="edge">
<title>Node1&#45;&gt;Node5</title>
<g id="a_edge4_Node000001_Node000005"><a xlink:title=" ">
<path fill="none" stroke="#63b8ff" d="M405.5,-180.25C405.5,-169.97 405.5,-158.09 405.5,-150.11"/>
<polygon fill="#63b8ff" stroke="#63b8ff" points="402,-180.11 405.5,-190.11 409,-180.11 402,-180.11"/>
</a>
</g>
</g>
<!-- Node7 -->
<g id="Node000007" class="node">
<title>Node7</title>
<g id="a_Node000007"><a xlink:href="UtilsFactory_8hpp.html" target="_top" xlink:title=" ">
<polygon fill="white" stroke="#666666" points="640,-150 513,-150 513,-130 640,-130 640,-150"/>
<text xml:space="preserve" text-anchor="middle" x="576.5" y="-136.5" font-family="Helvetica,sans-Serif" font-size="10.00">src/Utils/UtilsFactory.hpp</text>
</a>
</g>
</g>
<!-- Node1&#45;&gt;Node7 -->
<g id="edge7_Node000001_Node000007" class="edge">
<title>Node1&#45;&gt;Node7</title>
<g id="a_edge7_Node000001_Node000007"><a xlink:title=" ">
<path fill="none" stroke="#63b8ff" d="M443.02,-187.84C475.27,-176.52 521,-160.47 549.69,-150.41"/>
<polygon fill="#63b8ff" stroke="#63b8ff" points="441.92,-184.51 433.65,-191.12 444.24,-191.12 441.92,-184.51"/>
</a>
</g>
</g>
<!-- Node3 -->
<g id="Node000003" class="node">
<title>Node3</title>
<g id="a_Node000003"><a xlink:href="CustomStringsLoader_8cpp.html" target="_top" xlink:title=" ">
<polygon fill="white" stroke="#666666" points="145,-88 0,-88 0,-56 145,-56 145,-88"/>
<text xml:space="preserve" text-anchor="start" x="8" y="-74.5" font-family="Helvetica,sans-Serif" font-size="10.00">src/Utils/Json/CustomStrings</text>
<text xml:space="preserve" text-anchor="middle" x="72.5" y="-62.5" font-family="Helvetica,sans-Serif" font-size="10.00">Loader.cpp</text>
</a>
</g>
</g>
<!-- Node2&#45;&gt;Node3 -->
<g id="edge2_Node000002_Node000003" class="edge">
<title>Node2&#45;&gt;Node3</title>
<g id="a_edge2_Node000002_Node000003"><a xlink:title=" ">
<path fill="none" stroke="#63b8ff" d="M186.12,-119.29C161.94,-109.44 133.1,-97.69 110.52,-88.49"/>
<polygon fill="#63b8ff" stroke="#63b8ff" points="184.54,-122.42 195.12,-122.95 187.18,-115.94 184.54,-122.42"/>
</a>
</g>
</g>
<!-- Node4 -->
<g id="Node000004" class="node">
<title>Node4</title>
<g id="a_Node000004"><a xlink:href="UtilsFactory_8cpp.html" target="_top" xlink:title=" ">
<polygon fill="white" stroke="#666666" points="469,-82 342,-82 342,-62 469,-62 469,-82"/>
<text xml:space="preserve" text-anchor="middle" x="405.5" y="-68.5" font-family="Helvetica,sans-Serif" font-size="10.00">src/Utils/UtilsFactory.cpp</text>
</a>
</g>
</g>
<!-- Node2&#45;&gt;Node4 -->
<g id="edge3_Node000002_Node000004" class="edge">
<title>Node2&#45;&gt;Node4</title>
<g id="a_edge3_Node000002_Node000004"><a xlink:title=" ">
<path fill="none" stroke="#63b8ff" d="M285,-119.51C316.65,-107.29 356.05,-92.09 380.99,-82.46"/>
<polygon fill="#63b8ff" stroke="#63b8ff" points="284.07,-116.11 276,-122.98 286.59,-122.65 284.07,-116.11"/>
</a>
</g>
</g>
<!-- Node5&#45;&gt;Node4 -->
<g id="edge6_Node000005_Node000004" class="edge">
<title>Node5&#45;&gt;Node4</title>
<g id="a_edge6_Node000005_Node000004"><a xlink:title=" ">
<path fill="none" stroke="#63b8ff" d="M405.5,-118.28C405.5,-106.27 405.5,-91.74 405.5,-82.44"/>
<polygon fill="#63b8ff" stroke="#63b8ff" points="402,-118.03 405.5,-128.03 409,-118.03 402,-118.03"/>
</a>
</g>
</g>
<!-- Node6 -->
<g id="Node000006" class="node">
<title>Node6</title>
<g id="a_Node000006"><a xlink:href="JsonSerializer_8cpp.html" target="_top" xlink:title=" ">
<polygon fill="white" stroke="#666666" points="323.5,-82 163.5,-82 163.5,-62 323.5,-62 323.5,-82"/>
<text xml:space="preserve" text-anchor="middle" x="243.5" y="-68.5" font-family="Helvetica,sans-Serif" font-size="10.00">src/Utils/Json/JsonSerializer.cpp</text>
</a>
</g>
</g>
<!-- Node5&#45;&gt;Node6 -->
<g id="edge5_Node000005_Node000006" class="edge">
<title>Node5&#45;&gt;Node6</title>
<g id="a_edge5_Node000005_Node000006"><a xlink:title=" ">
<path fill="none" stroke="#63b8ff" d="M371.82,-125.28C340.35,-112.46 294.2,-93.65 266.67,-82.44"/>
<polygon fill="#63b8ff" stroke="#63b8ff" points="370.31,-128.44 380.89,-128.97 372.95,-121.96 370.31,-128.44"/>
</a>
</g>
</g>
<!-- Node7&#45;&gt;Node4 -->
<g id="edge19_Node000007_Node000004" class="edge">
<title>Node7&#45;&gt;Node4</title>
<g id="a_edge19_Node000007_Node000004"><a xlink:title=" ">
<path fill="none" stroke="#63b8ff" d="M541.39,-125.45C508.16,-112.62 459.14,-93.7 429.95,-82.44"/>
<polygon fill="#63b8ff" stroke="#63b8ff" points="540,-128.66 550.59,-129 542.52,-122.13 540,-128.66"/>
</a>
</g>
</g>
<!-- Node8 -->
<g id="Node000008" class="node">
<title>Node8</title>
<g id="a_Node000008"><a xlink:href="Application_8cpp.html" target="_top" xlink:title=" ">
<polygon fill="white" stroke="#666666" points="615.88,-20 467.12,-20 467.12,0 615.88,0 615.88,-20"/>
<text xml:space="preserve" text-anchor="middle" x="541.5" y="-6.5" font-family="Helvetica,sans-Serif" font-size="10.00">application/src/Application.cpp</text>
</a>
</g>
</g>
<!-- Node7&#45;&gt;Node8 -->
<g id="edge8_Node000007_Node000008" class="edge">
<title>Node7&#45;&gt;Node8</title>
<g id="a_edge8_Node000007_Node000008"><a xlink:title=" ">
<path fill="none" stroke="#63b8ff" d="M549.01,-123.36C536.63,-114.69 523.29,-102.69 516.5,-88 505.65,-64.53 523.31,-35.02 534.1,-20.28"/>
<polygon fill="#63b8ff" stroke="#63b8ff" points="547.02,-126.25 557.32,-128.76 550.84,-120.38 547.02,-126.25"/>
</a>
</g>
</g>
<!-- Node9 -->
<g id="Node000009" class="node">
<title>Node9</title>
<g id="a_Node000009"><a xlink:href="DotNameBotLib_8hpp.html" target="_top" xlink:title=" ">
<polygon fill="white" stroke="#666666" points="645.25,-88 525.75,-88 525.75,-56 645.25,-56 645.25,-88"/>
<text xml:space="preserve" text-anchor="start" x="533.75" y="-74.5" font-family="Helvetica,sans-Serif" font-size="10.00">include/DotNameBotLib</text>
<text xml:space="preserve" text-anchor="middle" x="585.5" y="-62.5" font-family="Helvetica,sans-Serif" font-size="10.00">/DotNameBotLib.hpp</text>
</a>
</g>
</g>
<!-- Node7&#45;&gt;Node9 -->
<g id="edge9_Node000007_Node000009" class="edge">
<title>Node7&#45;&gt;Node9</title>
<g id="a_edge9_Node000007_Node000009"><a xlink:title=" ">
<path fill="none" stroke="#63b8ff" d="M579.31,-118.43C580.63,-108.69 582.19,-97.26 583.41,-88.3"/>
<polygon fill="#63b8ff" stroke="#63b8ff" points="575.88,-117.66 577.99,-128.04 582.81,-118.61 575.88,-117.66"/>
</a>
</g>
</g>
<!-- Node11 -->
<g id="Node000011" class="node">
<title>Node11</title>
<g id="a_Node000011"><a xlink:href="DiscordBot_8hpp.html" target="_top" xlink:title=" ">
<polygon fill="white" stroke="#666666" points="815.38,-82 663.62,-82 663.62,-62 815.38,-62 815.38,-82"/>
<text xml:space="preserve" text-anchor="middle" x="739.5" y="-68.5" font-family="Helvetica,sans-Serif" font-size="10.00">src/DiscordBot/DiscordBot.hpp</text>
</a>
</g>
</g>
<!-- Node7&#45;&gt;Node11 -->
<g id="edge12_Node000007_Node000011" class="edge">
<title>Node7&#45;&gt;Node11</title>
<g id="a_edge12_Node000007_Node000011"><a xlink:title=" ">
<path fill="none" stroke="#63b8ff" d="M610.38,-125.28C642.05,-112.46 688.49,-93.65 716.19,-82.44"/>
<polygon fill="#63b8ff" stroke="#63b8ff" points="609.21,-121.98 601.26,-128.98 611.84,-128.47 609.21,-121.98"/>
</a>
</g>
</g>
<!-- Node13 -->
<g id="Node000013" class="node">
<title>Node13</title>
<g id="a_Node000013"><a xlink:href="RssManager_8hpp.html" target="_top" xlink:title=" ">
<polygon fill="white" stroke="#666666" points="961.38,-82 833.62,-82 833.62,-62 961.38,-62 961.38,-82"/>
<text xml:space="preserve" text-anchor="middle" x="897.5" y="-68.5" font-family="Helvetica,sans-Serif" font-size="10.00">src/Rss/RssManager.hpp</text>
</a>
</g>
</g>
<!-- Node7&#45;&gt;Node13 -->
<g id="edge15_Node000007_Node000013" class="edge">
<title>Node7&#45;&gt;Node13</title>
<g id="a_edge15_Node000007_Node000013"><a xlink:title=" ">
<path fill="none" stroke="#63b8ff" d="M633.66,-127.25C695.79,-114.47 793.89,-94.3 851.33,-82.49"/>
<polygon fill="#63b8ff" stroke="#63b8ff" points="633.06,-123.8 623.97,-129.24 634.47,-130.65 633.06,-123.8"/>
</a>
</g>
</g>
<!-- Node9&#45;&gt;Node8 -->
<g id="edge10_Node000009_Node000008" class="edge">
<title>Node9&#45;&gt;Node8</title>
<g id="a_edge10_Node000009_Node000008"><a xlink:title=" ">
<path fill="none" stroke="#63b8ff" d="M567.46,-46.4C560.75,-37.24 553.52,-27.39 548.4,-20.41"/>
<polygon fill="#63b8ff" stroke="#63b8ff" points="564.54,-48.33 573.27,-54.33 570.18,-44.19 564.54,-48.33"/>
</a>
</g>
</g>
<!-- Node10 -->
<g id="Node000010" class="node">
<title>Node10</title>
<g id="a_Node000010"><a xlink:href="DotNameBotLib_8cpp.html" target="_top" xlink:title=" ">
<polygon fill="white" stroke="#666666" points="777,-20 656,-20 656,0 777,0 777,-20"/>
<text xml:space="preserve" text-anchor="middle" x="716.5" y="-6.5" font-family="Helvetica,sans-Serif" font-size="10.00">src/DotNameBotLib.cpp</text>
</a>
</g>
</g>
<!-- Node9&#45;&gt;Node10 -->
<g id="edge11_Node000009_Node000010" class="edge">
<title>Node9&#45;&gt;Node10</title>
<g id="a_edge11_Node000009_Node000010"><a xlink:title=" ">
<path fill="none" stroke="#63b8ff" d="M629.57,-50.82C652.01,-40.54 678.23,-28.53 695.96,-20.41"/>
<polygon fill="#63b8ff" stroke="#63b8ff" points="628.25,-47.57 620.61,-54.92 631.16,-53.94 628.25,-47.57"/>
</a>
</g>
</g>
<!-- Node11&#45;&gt;Node10 -->
<g id="edge14_Node000011_Node000010" class="edge">
<title>Node11&#45;&gt;Node10</title>
<g id="a_edge14_Node000011_Node000010"><a xlink:title=" ">
<path fill="none" stroke="#63b8ff" d="M731.81,-50.93C727.81,-40.5 723.12,-28.26 719.99,-20.11"/>
<polygon fill="#63b8ff" stroke="#63b8ff" points="728.52,-52.13 735.36,-60.21 735.05,-49.62 728.52,-52.13"/>
</a>
</g>
</g>
<!-- Node12 -->
<g id="Node000012" class="node">
<title>Node12</title>
<g id="a_Node000012"><a xlink:href="DiscordBot_8cpp.html" target="_top" xlink:title=" ">
<polygon fill="white" stroke="#666666" points="946.38,-20 794.62,-20 794.62,0 946.38,0 946.38,-20"/>
<text xml:space="preserve" text-anchor="middle" x="870.5" y="-6.5" font-family="Helvetica,sans-Serif" font-size="10.00">src/DiscordBot/DiscordBot.cpp</text>
</a>
</g>
</g>
<!-- Node11&#45;&gt;Node12 -->
<g id="edge13_Node000011_Node000012" class="edge">
<title>Node11&#45;&gt;Node12</title>
<g id="a_edge13_Node000011_Node000012"><a xlink:title=" ">
<path fill="none" stroke="#63b8ff" d="M770.24,-56.92C794.89,-45.63 828.79,-30.1 850.17,-20.31"/>
<polygon fill="#63b8ff" stroke="#63b8ff" points="768.98,-53.65 761.34,-60.99 771.89,-60.01 768.98,-53.65"/>
</a>
</g>
</g>
<!-- Node13&#45;&gt;Node10 -->
<g id="edge17_Node000013_Node000010" class="edge">
<title>Node13&#45;&gt;Node10</title>
<g id="a_edge17_Node000013_Node000010"><a xlink:title=" ">
<path fill="none" stroke="#63b8ff" d="M858.68,-58.13C824.5,-46.8 775.51,-30.56 744.88,-20.41"/>
<polygon fill="#63b8ff" stroke="#63b8ff" points="857.19,-61.32 867.78,-61.15 859.39,-54.68 857.19,-61.32"/>
</a>
</g>
</g>
<!-- Node13&#45;&gt;Node12 -->
<g id="edge16_Node000013_Node000012" class="edge">
<title>Node13&#45;&gt;Node12</title>
<g id="a_edge16_Node000013_Node000012"><a xlink:title=" ">
<path fill="none" stroke="#63b8ff" d="M888.62,-51.27C883.89,-40.76 878.31,-28.35 874.6,-20.11"/>
<polygon fill="#63b8ff" stroke="#63b8ff" points="885.36,-52.56 892.66,-60.24 891.75,-49.69 885.36,-52.56"/>
</a>
</g>
</g>
<!-- Node14 -->
<g id="Node000014" class="node">
<title>Node14</title>
<g id="a_Node000014"><a xlink:href="RssManager_8cpp.html" target="_top" xlink:title=" ">
<polygon fill="white" stroke="#666666" points="1092.38,-20 964.62,-20 964.62,0 1092.38,0 1092.38,-20"/>
<text xml:space="preserve" text-anchor="middle" x="1028.5" y="-6.5" font-family="Helvetica,sans-Serif" font-size="10.00">src/Rss/RssManager.cpp</text>
</a>
</g>
</g>
<!-- Node13&#45;&gt;Node14 -->
<g id="edge18_Node000013_Node000014" class="edge">
<title>Node13&#45;&gt;Node14</title>
<g id="a_edge18_Node000013_Node000014"><a xlink:title=" ">
<path fill="none" stroke="#63b8ff" d="M928.24,-56.92C952.89,-45.63 986.79,-30.1 1008.17,-20.31"/>
<polygon fill="#63b8ff" stroke="#63b8ff" points="926.98,-53.65 919.34,-60.99 929.89,-60.01 926.98,-53.65"/>
</a>
</g>
</g>
</g>
</svg>

<g id="navigator" transform="translate(0 0)" fill="#404254">
  <rect fill="#f2f5e9" fill-opacity="0.5" stroke="#606060" stroke-width=".5" x="0" y="0" width="60" height="60"/>
  <use id="zoomplus" xlink:href="#zoomPlus" x="17" y="9" onmousedown="handleZoom(evt,'in')"/>
  <use id="zoomminus" xlink:href="#zoomMin" x="42" y="9" onmousedown="handleZoom(evt,'out')"/>
  <use id="reset" xlink:href="#resetDef" x="30" y="36" onmousedown="handleReset()"/>
   <use id="arrowup" xlink:href="#arrowUp" x="0" y="0" onmousedown="handlePan(0,-1)"/>
  <use id="arrowright" xlink:href="#arrowRight" x="0" y="0" onmousedown="handlePan(1,0)"/>
  <use id="arrowdown" xlink:href="#arrowDown" x="0" y="0" onmousedown="handlePan(0,1)"/>
  <use id="arrowleft" xlink:href="#arrowLeft" x="0" y="0" onmousedown="handlePan(-1,0)"/>
</g>
<svg viewBox="0 0 15 15" width="100%" height="30px" preserveAspectRatio="xMaxYMin meet">
 <g id="arrow_out" transform="scale(0.3 0.3)">
  <a xlink:href="IJsonSerializer_8hpp__dep__incl_org.svg" target="_base">
   <rect id="button" ry="5" rx="5" y="6" x="6" height="38" width="38"
        fill="#f2f5e9" fill-opacity="0.5" stroke="#606060" stroke-width="1.0"/>
   <path id="arrow"
     d="M 11.500037,31.436501 C 11.940474,20.09759 22.043105,11.32322 32.158766,21.979434 L 37.068811,17.246167 C 37.068811,17.246167 37.088388,32 37.088388,32 L 22.160133,31.978069 C 22.160133,31.978069 26.997745,27.140456 26.997745,27.140456 C 18.528582,18.264221 13.291696,25.230495 11.500037,31.436501 z"
     style="fill:#404040;"/>
  </a>
 </g>
</svg>

<style type='text/css'>
<![CDATA[
[data-mouse-over-selected='false'] { opacity: 0.7; }
[data-mouse-over-selected='true']  { opacity: 1.0; }
]]>
</style>
<script type="application/ecmascript"><![CDATA[
document.addEventListener('DOMContentLoaded', (event) => {
  highlightEdges();
  highlightAdjacentNodes();
});
]]></script>
</svg>
