<?xml version="1.0" encoding="UTF-8" standalone="no"?>
<!DOCTYPE svg PUBLIC "-//W3C//DTD SVG 1.1//EN"
 "http://www.w3.org/Graphics/SVG/1.1/DTD/svg11.dtd">
<!-- Generated by graphviz version 13.1.2 (20250808.2320)
 -->
<!-- Title: src/Utils/Json/IJsonSerializer.hpp Pages: 1 -->
<!--zoomable 276 -->

<svg id="main" version="1.1" xmlns="http://www.w3.org/2000/svg" xmlns:xlink="http://www.w3.org/1999/xlink" xml:space="preserve" onload="init(evt)">

<style type="text/css"><![CDATA[
.node, .edge {opacity: 0.7;}
.node.selected, .edge.selected {opacity: 1;}
.edge:hover path { stroke: red; }
.edge:hover polygon { stroke: red; fill: red; }
]]></style>

<defs>
  <circle id="rim" cx="0" cy="0" r="7"/>
  <circle id="rim2" cx="0" cy="0" r="3.5"/>
  <g id="zoomPlus">
    <use xlink:href="#rim" fill="#404040"><set attributeName="fill" to="#808080" begin="zoomplus.mouseover" end="zoomplus.mouseout"/></use>
    <path d="M-4,0h8M0,-4v8" fill="none" stroke="white" stroke-width="1.5" pointer-events="none"/>
  </g>
  <g id="zoomMin">
    <use xlink:href="#rim" fill="#404040"><set attributeName="fill" to="#808080" begin="zoomminus.mouseover" end="zoomminus.mouseout"/></use>
    <path d="M-4,0h8" fill="none" stroke="white" stroke-width="1.5" pointer-events="none"/>
  </g>
  <g id="arrowUp" transform="translate(30 24)">
    <use xlink:href="#rim"/>
    <path pointer-events="none" fill="none" stroke="white" stroke-width="1.5" d="M0,-3.0v7 M-2.5,-0.5L0,-3.0L2.5,-0.5"/>
  </g>
  <g id="arrowRight" transform="rotate(90) translate(36 -43)">
    <use xlink:href="#rim"/>
    <path pointer-events="none" fill="none" stroke="white" stroke-width="1.5" d="M0,-3.0v7 M-2.5,-0.5L0,-3.0L2.5,-0.5"/>
  </g>
  <g id="arrowDown" transform="rotate(180) translate(-30 -48)">
    <use xlink:href="#rim"/>
    <path pointer-events="none" fill="none" stroke="white" stroke-width="1.5" d="M0,-3.0v7 M-2.5,-0.5L0,-3.0L2.5,-0.5"/>
  </g>
  <g id="arrowLeft" transform="rotate(270) translate(-36 17)">
    <use xlink:href="#rim"/>
    <path pointer-events="none" fill="none" stroke="white" stroke-width="1.5" d="M0,-3.0v7 M-2.5,-0.5L0,-3.0L2.5,-0.5"/>
  </g>
  <g id="resetDef">
    <use xlink:href="#rim2" fill="#404040"><set attributeName="fill" to="#808080" begin="reset.mouseover" end="reset.mouseout"/></use>
  </g>
</defs>
<script type="application/ecmascript">
var viewWidth = 982;
var viewHeight = 276;
var sectionId = 'dynsection-1';
</script>
<script type="application/ecmascript" xlink:href="svg.min.js"/>
<svg id="graph" class="graph">
<g id="viewport">
<title>src/Utils/Json/IJsonSerializer.hpp</title>
<!-- Node1 -->
<g id="Node000001" class="node">
<title>Node1</title>
<g id="a_Node000001"><a xlink:title=" ">
<polygon fill="#999999" stroke="#666666" points="487,-268 324,-268 324,-248 487,-248 487,-268"/>
<text xml:space="preserve" text-anchor="middle" x="405.5" y="-254.5" font-family="Helvetica,sans-Serif" font-size="10.00">src/Utils/Json/IJsonSerializer.hpp</text>
</a>
</g>
</g>
<!-- Node2 -->
<g id="Node000002" class="node">
<title>Node2</title>
<g id="a_Node000002"><a xlink:href="CustomStringsLoader_8hpp.html" target="_top" xlink:title=" ">
<polygon fill="white" stroke="#666666" points="307,-212 162,-212 162,-180 307,-180 307,-212"/>
<text xml:space="preserve" text-anchor="start" x="170" y="-198.5" font-family="Helvetica,sans-Serif" font-size="10.00">src/Utils/Json/CustomStrings</text>
<text xml:space="preserve" text-anchor="middle" x="234.5" y="-186.5" font-family="Helvetica,sans-Serif" font-size="10.00">Loader.hpp</text>
</a>
</g>
</g>
<!-- Node1&#45;&gt;Node2 -->
<g id="edge1_Node000001_Node000002" class="edge">
<title>Node1&#45;&gt;Node2</title>
<g id="a_edge1_Node000001_Node000002"><a xlink:title=" ">
<path fill="none" stroke="#63b8ff" d="M368.09,-243.87C341.75,-234.63 306.38,-222.22 278.65,-212.49"/>
<polygon fill="#63b8ff" stroke="#63b8ff" points="366.76,-247.12 377.35,-247.12 369.08,-240.51 366.76,-247.12"/>
</a>
</g>
</g>
<!-- Node5 -->
<g id="Node000005" class="node">
<title>Node5</title>
<g id="a_Node000005"><a xlink:href="JsonSerializer_8hpp.html" target="_top" xlink:title=" ">
<polygon fill="white" stroke="#666666" points="485.5,-206 325.5,-206 325.5,-186 485.5,-186 485.5,-206"/>
<text xml:space="preserve" text-anchor="middle" x="405.5" y="-192.5" font-family="Helvetica,sans-Serif" font-size="10.00">src/Utils/Json/JsonSerializer.hpp</text>
</a>
</g>
</g>
<!-- Node1&#45;&gt;Node5 -->
<g id="edge4_Node000001_Node000005" class="edge">
<title>Node1&#45;&gt;Node5</title>
<g id="a_edge4_Node000001_Node000005"><a xlink:title=" ">
<path fill="none" stroke="#63b8ff" d="M405.5,-236.25C405.5,-225.97 405.5,-214.09 405.5,-206.11"/>
<polygon fill="#63b8ff" stroke="#63b8ff" points="402,-236.11 405.5,-246.11 409,-236.11 402,-236.11"/>
</a>
</g>
</g>
<!-- Node7 -->
<g id="Node000007" class="node">
<title>Node7</title>
<g id="a_Node000007"><a xlink:href="UtilsFactory_8hpp.html" target="_top" xlink:title=" ">
<polygon fill="white" stroke="#666666" points="664,-206 537,-206 537,-186 664,-186 664,-206"/>
<text xml:space="preserve" text-anchor="middle" x="600.5" y="-192.5" font-family="Helvetica,sans-Serif" font-size="10.00">src/Utils/UtilsFactory.hpp</text>
</a>
</g>
</g>
<!-- Node1&#45;&gt;Node7 -->
<g id="edge7_Node000001_Node000007" class="edge">
<title>Node1&#45;&gt;Node7</title>
<g id="a_edge7_Node000001_Node000007"><a xlink:title=" ">
<path fill="none" stroke="#63b8ff" d="M446.84,-244.28C483.69,-232.94 536.78,-216.61 569.92,-206.41"/>
<polygon fill="#63b8ff" stroke="#63b8ff" points="445.94,-240.89 437.42,-247.18 448,-247.58 445.94,-240.89"/>
</a>
</g>
</g>
<!-- Node3 -->
<g id="Node000003" class="node">
<title>Node3</title>
<g id="a_Node000003"><a xlink:href="CustomStringsLoader_8cpp.html" target="_top" xlink:title=" ">
<polygon fill="white" stroke="#666666" points="145,-144 0,-144 0,-112 145,-112 145,-144"/>
<text xml:space="preserve" text-anchor="start" x="8" y="-130.5" font-family="Helvetica,sans-Serif" font-size="10.00">src/Utils/Json/CustomStrings</text>
<text xml:space="preserve" text-anchor="middle" x="72.5" y="-118.5" font-family="Helvetica,sans-Serif" font-size="10.00">Loader.cpp</text>
</a>
</g>
</g>
<!-- Node2&#45;&gt;Node3 -->
<g id="edge2_Node000002_Node000003" class="edge">
<title>Node2&#45;&gt;Node3</title>
<g id="a_edge2_Node000002_Node000003"><a xlink:title=" ">
<path fill="none" stroke="#63b8ff" d="M186.12,-175.29C161.94,-165.44 133.1,-153.69 110.52,-144.49"/>
<polygon fill="#63b8ff" stroke="#63b8ff" points="184.54,-178.42 195.12,-178.95 187.18,-171.94 184.54,-178.42"/>
</a>
</g>
</g>
<!-- Node4 -->
<g id="Node000004" class="node">
<title>Node4</title>
<g id="a_Node000004"><a xlink:href="UtilsFactory_8cpp.html" target="_top" xlink:title=" ">
<polygon fill="white" stroke="#666666" points="469,-138 342,-138 342,-118 469,-118 469,-138"/>
<text xml:space="preserve" text-anchor="middle" x="405.5" y="-124.5" font-family="Helvetica,sans-Serif" font-size="10.00">src/Utils/UtilsFactory.cpp</text>
</a>
</g>
</g>
<!-- Node2&#45;&gt;Node4 -->
<g id="edge3_Node000002_Node000004" class="edge">
<title>Node2&#45;&gt;Node4</title>
<g id="a_edge3_Node000002_Node000004"><a xlink:title=" ">
<path fill="none" stroke="#63b8ff" d="M285,-175.51C316.65,-163.29 356.05,-148.09 380.99,-138.46"/>
<polygon fill="#63b8ff" stroke="#63b8ff" points="284.07,-172.11 276,-178.98 286.59,-178.65 284.07,-172.11"/>
</a>
</g>
</g>
<!-- Node5&#45;&gt;Node4 -->
<g id="edge6_Node000005_Node000004" class="edge">
<title>Node5&#45;&gt;Node4</title>
<g id="a_edge6_Node000005_Node000004"><a xlink:title=" ">
<path fill="none" stroke="#63b8ff" d="M405.5,-174.28C405.5,-162.27 405.5,-147.74 405.5,-138.44"/>
<polygon fill="#63b8ff" stroke="#63b8ff" points="402,-174.03 405.5,-184.03 409,-174.03 402,-174.03"/>
</a>
</g>
</g>
<!-- Node6 -->
<g id="Node000006" class="node">
<title>Node6</title>
<g id="a_Node000006"><a xlink:href="JsonSerializer_8cpp.html" target="_top" xlink:title=" ">
<polygon fill="white" stroke="#666666" points="323.5,-138 163.5,-138 163.5,-118 323.5,-118 323.5,-138"/>
<text xml:space="preserve" text-anchor="middle" x="243.5" y="-124.5" font-family="Helvetica,sans-Serif" font-size="10.00">src/Utils/Json/JsonSerializer.cpp</text>
</a>
</g>
</g>
<!-- Node5&#45;&gt;Node6 -->
<g id="edge5_Node000005_Node000006" class="edge">
<title>Node5&#45;&gt;Node6</title>
<g id="a_edge5_Node000005_Node000006"><a xlink:title=" ">
<path fill="none" stroke="#63b8ff" d="M371.82,-181.28C340.35,-168.46 294.2,-149.65 266.67,-138.44"/>
<polygon fill="#63b8ff" stroke="#63b8ff" points="370.31,-184.44 380.89,-184.97 372.95,-177.96 370.31,-184.44"/>
</a>
</g>
</g>
<!-- Node7&#45;&gt;Node4 -->
<g id="edge19_Node000007_Node000004" class="edge">
<title>Node7&#45;&gt;Node4</title>
<g id="a_edge19_Node000007_Node000004"><a xlink:title=" ">
<path fill="none" stroke="#63b8ff" d="M561.93,-181.95C524.03,-169.12 467.1,-149.85 433.39,-138.44"/>
<polygon fill="#63b8ff" stroke="#63b8ff" points="560.53,-185.17 571.13,-185.06 562.78,-178.54 560.53,-185.17"/>
</a>
</g>
</g>
<!-- Node8 -->
<g id="Node000008" class="node">
<title>Node8</title>
<g id="a_Node000008"><a xlink:href="Application_8cpp.html" target="_top" xlink:title=" ">
<polygon fill="white" stroke="#666666" points="620.88,-76 472.12,-76 472.12,-56 620.88,-56 620.88,-76"/>
<text xml:space="preserve" text-anchor="middle" x="546.5" y="-62.5" font-family="Helvetica,sans-Serif" font-size="10.00">application/src/Application.cpp</text>
</a>
</g>
</g>
<!-- Node7&#45;&gt;Node8 -->
<g id="edge8_Node000007_Node000008" class="edge">
<title>Node7&#45;&gt;Node8</title>
<g id="a_edge8_Node000007_Node000008"><a xlink:title=" ">
<path fill="none" stroke="#63b8ff" d="M610.83,-175.49C618.61,-157.91 626.26,-131.86 615.5,-112 606.37,-95.15 587.89,-83.61 572.36,-76.44"/>
<polygon fill="#63b8ff" stroke="#63b8ff" points="607.77,-173.78 606.55,-184.3 614.06,-176.84 607.77,-173.78"/>
</a>
</g>
</g>
<!-- Node9 -->
<g id="Node000009" class="node">
<title>Node9</title>
<g id="a_Node000009"><a xlink:href="DotNameBotLib_8hpp.html" target="_top" xlink:title=" ">
<polygon fill="white" stroke="#666666" points="606.25,-144 486.75,-144 486.75,-112 606.25,-112 606.25,-144"/>
<text xml:space="preserve" text-anchor="start" x="494.75" y="-130.5" font-family="Helvetica,sans-Serif" font-size="10.00">include/DotNameBotLib</text>
<text xml:space="preserve" text-anchor="middle" x="546.5" y="-118.5" font-family="Helvetica,sans-Serif" font-size="10.00">/DotNameBotLib.hpp</text>
</a>
</g>
</g>
<!-- Node7&#45;&gt;Node9 -->
<g id="edge9_Node000007_Node000009" class="edge">
<title>Node7&#45;&gt;Node9</title>
<g id="a_edge9_Node000007_Node000009"><a xlink:title=" ">
<path fill="none" stroke="#63b8ff" d="M585.5,-176.67C577.17,-166.48 566.92,-153.96 559.02,-144.3"/>
<polygon fill="#63b8ff" stroke="#63b8ff" points="582.76,-178.85 591.8,-184.37 588.18,-174.42 582.76,-178.85"/>
</a>
</g>
</g>
<!-- Node11 -->
<g id="Node000011" class="node">
<title>Node11</title>
<g id="a_Node000011"><a xlink:href="DiscordBot_8hpp.html" target="_top" xlink:title=" ">
<polygon fill="white" stroke="#666666" points="974.38,-76 822.62,-76 822.62,-56 974.38,-56 974.38,-76"/>
<text xml:space="preserve" text-anchor="middle" x="898.5" y="-62.5" font-family="Helvetica,sans-Serif" font-size="10.00">src/DiscordBot/DiscordBot.hpp</text>
</a>
</g>
</g>
<!-- Node7&#45;&gt;Node11 -->
<g id="edge12_Node000007_Node000011" class="edge">
<title>Node7&#45;&gt;Node11</title>
<g id="a_edge12_Node000007_Node000011"><a xlink:title=" ">
<path fill="none" stroke="#63b8ff" d="M675.53,-184.86C715.91,-177.36 765.66,-164.73 806.5,-144 841.6,-126.18 875.02,-92.7 890.11,-76.4"/>
<polygon fill="#63b8ff" stroke="#63b8ff" points="675.13,-181.37 665.89,-186.57 676.35,-188.27 675.13,-181.37"/>
</a>
</g>
</g>
<!-- Node13 -->
<g id="Node000013" class="node">
<title>Node13</title>
<g id="a_Node000013"><a xlink:href="RssManager_8hpp.html" target="_top" xlink:title=" ">
<polygon fill="white" stroke="#666666" points="797.38,-138 669.62,-138 669.62,-118 797.38,-118 797.38,-138"/>
<text xml:space="preserve" text-anchor="middle" x="733.5" y="-124.5" font-family="Helvetica,sans-Serif" font-size="10.00">src/Rss/RssManager.hpp</text>
</a>
</g>
</g>
<!-- Node7&#45;&gt;Node13 -->
<g id="edge15_Node000007_Node000013" class="edge">
<title>Node7&#45;&gt;Node13</title>
<g id="a_edge15_Node000007_Node000013"><a xlink:title=" ">
<path fill="none" stroke="#63b8ff" d="M629.86,-180.43C655.63,-167.64 692.37,-149.41 714.48,-138.44"/>
<polygon fill="#63b8ff" stroke="#63b8ff" points="628.31,-177.29 620.91,-184.87 631.42,-183.56 628.31,-177.29"/>
</a>
</g>
</g>
<!-- Node9&#45;&gt;Node8 -->
<g id="edge10_Node000009_Node000008" class="edge">
<title>Node9&#45;&gt;Node8</title>
<g id="a_edge10_Node000009_Node000008"><a xlink:title=" ">
<path fill="none" stroke="#63b8ff" d="M546.5,-100.08C546.5,-91.6 546.5,-82.8 546.5,-76.41"/>
<polygon fill="#63b8ff" stroke="#63b8ff" points="543,-100.03 546.5,-110.03 550,-100.03 543,-100.03"/>
</a>
</g>
</g>
<!-- Node10 -->
<g id="Node000010" class="node">
<title>Node10</title>
<g id="a_Node000010"><a xlink:href="DotNameBotLib_8cpp.html" target="_top" xlink:title=" ">
<polygon fill="white" stroke="#666666" points="709,-20 588,-20 588,0 709,0 709,-20"/>
<text xml:space="preserve" text-anchor="middle" x="648.5" y="-6.5" font-family="Helvetica,sans-Serif" font-size="10.00">src/DotNameBotLib.cpp</text>
</a>
</g>
</g>
<!-- Node9&#45;&gt;Node10 -->
<g id="edge11_Node000009_Node000010" class="edge">
<title>Node9&#45;&gt;Node10</title>
<g id="a_edge11_Node000009_Node000010"><a xlink:title=" ">
<path fill="none" stroke="#63b8ff" d="M495.28,-106.61C470.13,-93.57 448.19,-75.48 463.5,-56 478.87,-36.44 540.11,-24.33 587.97,-17.66"/>
<polygon fill="#63b8ff" stroke="#63b8ff" points="493.5,-109.64 504.03,-110.87 496.57,-103.35 493.5,-109.64"/>
</a>
</g>
</g>
<!-- Node11&#45;&gt;Node10 -->
<g id="edge14_Node000011_Node000010" class="edge">
<title>Node11&#45;&gt;Node10</title>
<g id="a_edge14_Node000011_Node000010"><a xlink:title=" ">
<path fill="none" stroke="#63b8ff" d="M843.53,-53.13C798.06,-43.31 734.35,-29.54 692.28,-20.46"/>
<polygon fill="#63b8ff" stroke="#63b8ff" points="842.67,-56.52 853.19,-55.21 844.15,-49.68 842.67,-56.52"/>
</a>
</g>
</g>
<!-- Node12 -->
<g id="Node000012" class="node">
<title>Node12</title>
<g id="a_Node000012"><a xlink:href="DiscordBot_8cpp.html" target="_top" xlink:title=" ">
<polygon fill="white" stroke="#666666" points="974.38,-20 822.62,-20 822.62,0 974.38,0 974.38,-20"/>
<text xml:space="preserve" text-anchor="middle" x="898.5" y="-6.5" font-family="Helvetica,sans-Serif" font-size="10.00">src/DiscordBot/DiscordBot.cpp</text>
</a>
</g>
</g>
<!-- Node11&#45;&gt;Node12 -->
<g id="edge13_Node000011_Node000012" class="edge">
<title>Node11&#45;&gt;Node12</title>
<g id="a_edge13_Node000011_Node000012"><a xlink:title=" ">
<path fill="none" stroke="#63b8ff" d="M898.5,-44.13C898.5,-35.9 898.5,-26.85 898.5,-20.3"/>
<polygon fill="#63b8ff" stroke="#63b8ff" points="895,-44.08 898.5,-54.08 902,-44.08 895,-44.08"/>
</a>
</g>
</g>
<!-- Node13&#45;&gt;Node10 -->
<g id="edge17_Node000013_Node000010" class="edge">
<title>Node13&#45;&gt;Node10</title>
<g id="a_edge17_Node000013_Node000010"><a xlink:title=" ">
<path fill="none" stroke="#63b8ff" d="M706.07,-111.51C692.69,-102.68 677.38,-90.49 667.5,-76 655.57,-58.52 651.03,-33.48 649.38,-20.16"/>
<polygon fill="#63b8ff" stroke="#63b8ff" points="704.19,-114.46 714.53,-116.79 707.9,-108.53 704.19,-114.46"/>
</a>
</g>
</g>
<!-- Node13&#45;&gt;Node11 -->
<g id="edge16_Node000013_Node000011" class="edge">
<title>Node13&#45;&gt;Node11</title>
<g id="a_edge16_Node000013_Node000011"><a xlink:title=" ">
<path fill="none" stroke="#63b8ff" d="M769.7,-113.84C800.82,-102.52 844.94,-86.47 872.63,-76.41"/>
<polygon fill="#63b8ff" stroke="#63b8ff" points="768.91,-110.4 760.7,-117.11 771.3,-116.98 768.91,-110.4"/>
</a>
</g>
</g>
<!-- Node14 -->
<g id="Node000014" class="node">
<title>Node14</title>
<g id="a_Node000014"><a xlink:href="RssManager_8cpp.html" target="_top" xlink:title=" ">
<polygon fill="white" stroke="#666666" points="804.38,-76 676.62,-76 676.62,-56 804.38,-56 804.38,-76"/>
<text xml:space="preserve" text-anchor="middle" x="740.5" y="-62.5" font-family="Helvetica,sans-Serif" font-size="10.00">src/Rss/RssManager.cpp</text>
</a>
</g>
</g>
<!-- Node13&#45;&gt;Node14 -->
<g id="edge18_Node000013_Node000014" class="edge">
<title>Node13&#45;&gt;Node14</title>
<g id="a_edge18_Node000013_Node000014"><a xlink:title=" ">
<path fill="none" stroke="#63b8ff" d="M735.92,-106.25C737.12,-95.97 738.51,-84.09 739.44,-76.11"/>
<polygon fill="#63b8ff" stroke="#63b8ff" points="732.45,-105.78 734.77,-116.12 739.4,-106.59 732.45,-105.78"/>
</a>
</g>
</g>
</g>
</svg>

<g id="navigator" transform="translate(0 0)" fill="#404254">
  <rect fill="#f2f5e9" fill-opacity="0.5" stroke="#606060" stroke-width=".5" x="0" y="0" width="60" height="60"/>
  <use id="zoomplus" xlink:href="#zoomPlus" x="17" y="9" onmousedown="handleZoom(evt,'in')"/>
  <use id="zoomminus" xlink:href="#zoomMin" x="42" y="9" onmousedown="handleZoom(evt,'out')"/>
  <use id="reset" xlink:href="#resetDef" x="30" y="36" onmousedown="handleReset()"/>
   <use id="arrowup" xlink:href="#arrowUp" x="0" y="0" onmousedown="handlePan(0,-1)"/>
  <use id="arrowright" xlink:href="#arrowRight" x="0" y="0" onmousedown="handlePan(1,0)"/>
  <use id="arrowdown" xlink:href="#arrowDown" x="0" y="0" onmousedown="handlePan(0,1)"/>
  <use id="arrowleft" xlink:href="#arrowLeft" x="0" y="0" onmousedown="handlePan(-1,0)"/>
</g>
<svg viewBox="0 0 15 15" width="100%" height="30px" preserveAspectRatio="xMaxYMin meet">
 <g id="arrow_out" transform="scale(0.3 0.3)">
  <a xlink:href="IJsonSerializer_8hpp__dep__incl_org.svg" target="_base">
   <rect id="button" ry="5" rx="5" y="6" x="6" height="38" width="38"
        fill="#f2f5e9" fill-opacity="0.5" stroke="#606060" stroke-width="1.0"/>
   <path id="arrow"
     d="M 11.500037,31.436501 C 11.940474,20.09759 22.043105,11.32322 32.158766,21.979434 L 37.068811,17.246167 C 37.068811,17.246167 37.088388,32 37.088388,32 L 22.160133,31.978069 C 22.160133,31.978069 26.997745,27.140456 26.997745,27.140456 C 18.528582,18.264221 13.291696,25.230495 11.500037,31.436501 z"
     style="fill:#404040;"/>
  </a>
 </g>
</svg>

<style type='text/css'>
<![CDATA[
[data-mouse-over-selected='false'] { opacity: 0.7; }
[data-mouse-over-selected='true']  { opacity: 1.0; }
]]>
</style>
<script type="application/ecmascript"><![CDATA[
document.addEventListener('DOMContentLoaded', (event) => {
  highlightEdges();
  highlightAdjacentNodes();
});
]]></script>
</svg>
