<?xml version="1.0" encoding="UTF-8" standalone="no"?>
<!DOCTYPE svg PUBLIC "-//W3C//DTD SVG 1.1//EN"
 "http://www.w3.org/Graphics/SVG/1.1/DTD/svg11.dtd">
<!-- Generated by graphviz version 13.1.2 (20250808.2320)
 -->
<!-- Title: src/ILifeCycle/ILifeCycle.hpp Pages: 1 -->
<svg width="415pt" height="208pt"
 viewBox="0.00 0.00 415.00 208.00" xmlns="http://www.w3.org/2000/svg" xmlns:xlink="http://www.w3.org/1999/xlink">
<g id="graph0" class="graph" transform="scale(1 1) rotate(0) translate(4 204)">
<title>src/ILifeCycle/ILifeCycle.hpp</title>
<!-- Node1 -->
<g id="Node000001" class="node">
<title>Node1</title>
<g id="a_Node000001"><a xlink:title=" ">
<polygon fill="#999999" stroke="#666666" points="284.25,-200 141.5,-200 141.5,-180 284.25,-180 284.25,-200"/>
<text xml:space="preserve" text-anchor="middle" x="212.88" y="-186.5" font-family="Helvetica,sans-Serif" font-size="10.00">src/ILifeCycle/ILifeCycle.hpp</text>
</a>
</g>
</g>
<!-- Node2 -->
<g id="Node000002" class="node">
<title>Node2</title>
<g id="a_Node000002"><a xlink:href="DiscordBot_8hpp.html" target="_top" xlink:title=" ">
<polygon fill="white" stroke="#666666" points="201.75,-144 50,-144 50,-124 201.75,-124 201.75,-144"/>
<text xml:space="preserve" text-anchor="middle" x="125.88" y="-130.5" font-family="Helvetica,sans-Serif" font-size="10.00">src/DiscordBot/DiscordBot.hpp</text>
</a>
</g>
</g>
<!-- Node1&#45;&gt;Node2 -->
<g id="edge1_Node000001_Node000002" class="edge">
<title>Node1&#45;&gt;Node2</title>
<g id="a_edge1_Node000001_Node000002"><a xlink:title=" ">
<path fill="none" stroke="#63b8ff" d="M187.97,-173.54C172.87,-164.17 154.08,-152.51 141.15,-144.48"/>
<polygon fill="#63b8ff" stroke="#63b8ff" points="186.09,-176.5 196.43,-178.8 189.78,-170.55 186.09,-176.5"/>
</a>
</g>
</g>
<!-- Node5 -->
<g id="Node000005" class="node">
<title>Node5</title>
<g id="a_Node000005"><a xlink:href="Orchestrator_8hpp.html" target="_top" xlink:title=" ">
<polygon fill="white" stroke="#666666" points="382,-144 219.75,-144 219.75,-124 382,-124 382,-144"/>
<text xml:space="preserve" text-anchor="middle" x="300.88" y="-130.5" font-family="Helvetica,sans-Serif" font-size="10.00">src/Orchestrator/Orchestrator.hpp</text>
</a>
</g>
</g>
<!-- Node1&#45;&gt;Node5 -->
<g id="edge4_Node000001_Node000005" class="edge">
<title>Node1&#45;&gt;Node5</title>
<g id="a_edge4_Node000001_Node000005"><a xlink:title=" ">
<path fill="none" stroke="#63b8ff" d="M237.63,-173.81C252.98,-164.39 272.22,-152.58 285.43,-144.48"/>
<polygon fill="#63b8ff" stroke="#63b8ff" points="236.19,-170.59 229.49,-178.8 239.85,-176.56 236.19,-170.59"/>
</a>
</g>
</g>
<!-- Node3 -->
<g id="Node000003" class="node">
<title>Node3</title>
<g id="a_Node000003"><a xlink:href="DiscordBot_8cpp.html" target="_top" xlink:title=" ">
<polygon fill="white" stroke="#666666" points="151.75,-82 0,-82 0,-62 151.75,-62 151.75,-82"/>
<text xml:space="preserve" text-anchor="middle" x="75.88" y="-68.5" font-family="Helvetica,sans-Serif" font-size="10.00">src/DiscordBot/DiscordBot.cpp</text>
</a>
</g>
</g>
<!-- Node2&#45;&gt;Node3 -->
<g id="edge2_Node000002_Node000003" class="edge">
<title>Node2&#45;&gt;Node3</title>
<g id="a_edge2_Node000002_Node000003"><a xlink:title=" ">
<path fill="none" stroke="#63b8ff" d="M110.81,-114.92C101.79,-104.1 90.7,-90.79 83.47,-82.11"/>
<polygon fill="#63b8ff" stroke="#63b8ff" points="108,-117.02 117.09,-122.46 113.38,-112.54 108,-117.02"/>
</a>
</g>
</g>
<!-- Node4 -->
<g id="Node000004" class="node">
<title>Node4</title>
<g id="a_Node000004"><a xlink:href="DotNameBotLib_8cpp.html" target="_top" xlink:title=" ">
<polygon fill="white" stroke="#666666" points="240.38,-20 119.38,-20 119.38,0 240.38,0 240.38,-20"/>
<text xml:space="preserve" text-anchor="middle" x="179.88" y="-6.5" font-family="Helvetica,sans-Serif" font-size="10.00">src/DotNameBotLib.cpp</text>
</a>
</g>
</g>
<!-- Node2&#45;&gt;Node4 -->
<g id="edge3_Node000002_Node000004" class="edge">
<title>Node2&#45;&gt;Node4</title>
<g id="a_edge3_Node000002_Node000004"><a xlink:title=" ">
<path fill="none" stroke="#63b8ff" d="M142.5,-115.23C149.06,-107.39 156.15,-97.75 160.88,-88 171.93,-65.2 176.91,-35.4 178.83,-20.44"/>
<polygon fill="#63b8ff" stroke="#63b8ff" points="139.94,-112.84 135.95,-122.66 145.19,-117.47 139.94,-112.84"/>
</a>
</g>
</g>
<!-- Node6 -->
<g id="Node000006" class="node">
<title>Node6</title>
<g id="a_Node000006"><a xlink:href="DotNameBotLib_8hpp.html" target="_top" xlink:title=" ">
<polygon fill="white" stroke="#666666" points="360.62,-88 241.12,-88 241.12,-56 360.62,-56 360.62,-88"/>
<text xml:space="preserve" text-anchor="start" x="249.12" y="-74.5" font-family="Helvetica,sans-Serif" font-size="10.00">include/DotNameBotLib</text>
<text xml:space="preserve" text-anchor="middle" x="300.88" y="-62.5" font-family="Helvetica,sans-Serif" font-size="10.00">/DotNameBotLib.hpp</text>
</a>
</g>
</g>
<!-- Node5&#45;&gt;Node6 -->
<g id="edge5_Node000005_Node000006" class="edge">
<title>Node5&#45;&gt;Node6</title>
<g id="a_edge5_Node000005_Node000006"><a xlink:title=" ">
<path fill="none" stroke="#63b8ff" d="M300.88,-112.31C300.88,-104.37 300.88,-95.46 300.88,-88.14"/>
<polygon fill="#63b8ff" stroke="#63b8ff" points="297.38,-112.11 300.88,-122.11 304.38,-112.11 297.38,-112.11"/>
</a>
</g>
</g>
<!-- Node6&#45;&gt;Node4 -->
<g id="edge7_Node000006_Node000004" class="edge">
<title>Node6&#45;&gt;Node4</title>
<g id="a_edge7_Node000006_Node000004"><a xlink:title=" ">
<path fill="none" stroke="#63b8ff" d="M259.61,-50.54C239,-40.32 215.07,-28.45 198.85,-20.41"/>
<polygon fill="#63b8ff" stroke="#63b8ff" points="257.84,-53.57 268.36,-54.88 260.95,-47.3 257.84,-53.57"/>
</a>
</g>
</g>
<!-- Node7 -->
<g id="Node000007" class="node">
<title>Node7</title>
<g id="a_Node000007"><a xlink:href="Application_8cpp.html" target="_top" xlink:title=" ">
<polygon fill="white" stroke="#666666" points="407.25,-20 258.5,-20 258.5,0 407.25,0 407.25,-20"/>
<text xml:space="preserve" text-anchor="middle" x="332.88" y="-6.5" font-family="Helvetica,sans-Serif" font-size="10.00">application/src/Application.cpp</text>
</a>
</g>
</g>
<!-- Node6&#45;&gt;Node7 -->
<g id="edge6_Node000006_Node000007" class="edge">
<title>Node6&#45;&gt;Node7</title>
<g id="a_edge6_Node000006_Node000007"><a xlink:title=" ">
<path fill="none" stroke="#63b8ff" d="M314.46,-45.53C319.21,-36.62 324.25,-27.17 327.86,-20.41"/>
<polygon fill="#63b8ff" stroke="#63b8ff" points="311.45,-43.74 309.83,-54.21 317.62,-47.04 311.45,-43.74"/>
</a>
</g>
</g>
</g>
</svg>
