<?xml version="1.0" encoding="UTF-8" standalone="no"?>
<!DOCTYPE svg PUBLIC "-//W3C//DTD SVG 1.1//EN"
 "http://www.w3.org/Graphics/SVG/1.1/DTD/svg11.dtd">
<!-- Generated by graphviz version 13.1.2 (20250808.2320)
 -->
<!-- Title: src/Utils/Logger/ILogger.hpp Pages: 1 -->
<!--zoomable 288 -->

<svg id="main" version="1.1" xmlns="http://www.w3.org/2000/svg" xmlns:xlink="http://www.w3.org/1999/xlink" xml:space="preserve" onload="init(evt)">

<style type="text/css"><![CDATA[
.node, .edge {opacity: 0.7;}
.node.selected, .edge.selected {opacity: 1;}
.edge:hover path { stroke: red; }
.edge:hover polygon { stroke: red; fill: red; }
]]></style>

<defs>
  <circle id="rim" cx="0" cy="0" r="7"/>
  <circle id="rim2" cx="0" cy="0" r="3.5"/>
  <g id="zoomPlus">
    <use xlink:href="#rim" fill="#404040"><set attributeName="fill" to="#808080" begin="zoomplus.mouseover" end="zoomplus.mouseout"/></use>
    <path d="M-4,0h8M0,-4v8" fill="none" stroke="white" stroke-width="1.5" pointer-events="none"/>
  </g>
  <g id="zoomMin">
    <use xlink:href="#rim" fill="#404040"><set attributeName="fill" to="#808080" begin="zoomminus.mouseover" end="zoomminus.mouseout"/></use>
    <path d="M-4,0h8" fill="none" stroke="white" stroke-width="1.5" pointer-events="none"/>
  </g>
  <g id="arrowUp" transform="translate(30 24)">
    <use xlink:href="#rim"/>
    <path pointer-events="none" fill="none" stroke="white" stroke-width="1.5" d="M0,-3.0v7 M-2.5,-0.5L0,-3.0L2.5,-0.5"/>
  </g>
  <g id="arrowRight" transform="rotate(90) translate(36 -43)">
    <use xlink:href="#rim"/>
    <path pointer-events="none" fill="none" stroke="white" stroke-width="1.5" d="M0,-3.0v7 M-2.5,-0.5L0,-3.0L2.5,-0.5"/>
  </g>
  <g id="arrowDown" transform="rotate(180) translate(-30 -48)">
    <use xlink:href="#rim"/>
    <path pointer-events="none" fill="none" stroke="white" stroke-width="1.5" d="M0,-3.0v7 M-2.5,-0.5L0,-3.0L2.5,-0.5"/>
  </g>
  <g id="arrowLeft" transform="rotate(270) translate(-36 17)">
    <use xlink:href="#rim"/>
    <path pointer-events="none" fill="none" stroke="white" stroke-width="1.5" d="M0,-3.0v7 M-2.5,-0.5L0,-3.0L2.5,-0.5"/>
  </g>
  <g id="resetDef">
    <use xlink:href="#rim2" fill="#404040"><set attributeName="fill" to="#808080" begin="reset.mouseover" end="reset.mouseout"/></use>
  </g>
</defs>
<script type="application/ecmascript">
var viewWidth = 1011;
var viewHeight = 288;
var sectionId = 'dynsection-1';
</script>
<script type="application/ecmascript" xlink:href="svg.min.js"/>
<svg id="graph" class="graph">
<g id="viewport">
<title>src/Utils/Logger/ILogger.hpp</title>
<!-- Node1 -->
<g id="Node000001" class="node">
<title>Node1</title>
<g id="a_Node000001"><a xlink:title=" ">
<polygon fill="#999999" stroke="#666666" points="418.62,-280 279.62,-280 279.62,-260 418.62,-260 418.62,-280"/>
<text xml:space="preserve" text-anchor="middle" x="349.12" y="-266.5" font-family="Helvetica,sans-Serif" font-size="10.00">src/Utils/Logger/ILogger.hpp</text>
</a>
</g>
</g>
<!-- Node2 -->
<g id="Node000002" class="node">
<title>Node2</title>
<g id="a_Node000002"><a xlink:href="ConsoleLogger_8hpp.html" target="_top" xlink:title=" ">
<polygon fill="white" stroke="#666666" points="158.12,-224 34.12,-224 34.12,-192 158.12,-192 158.12,-224"/>
<text xml:space="preserve" text-anchor="start" x="42.12" y="-210.5" font-family="Helvetica,sans-Serif" font-size="10.00">src/Utils/Logger/Console</text>
<text xml:space="preserve" text-anchor="middle" x="96.12" y="-198.5" font-family="Helvetica,sans-Serif" font-size="10.00">Logger.hpp</text>
</a>
</g>
</g>
<!-- Node1&#45;&gt;Node2 -->
<g id="edge1_Node000001_Node000002" class="edge">
<title>Node1&#45;&gt;Node2</title>
<g id="a_edge1_Node000001_Node000002"><a xlink:title=" ">
<path fill="none" stroke="#63b8ff" d="M298.14,-256.91C257.81,-247.35 201.35,-233.95 158.36,-223.76"/>
<polygon fill="#63b8ff" stroke="#63b8ff" points="297.3,-260.31 307.84,-259.21 298.92,-253.5 297.3,-260.31"/>
</a>
</g>
</g>
<!-- Node5 -->
<g id="Node000005" class="node">
<title>Node5</title>
<g id="a_Node000005"><a xlink:href="LoggerFactory_8hpp.html" target="_top" xlink:title=" ">
<polygon fill="white" stroke="#666666" points="344.25,-218 176,-218 176,-198 344.25,-198 344.25,-218"/>
<text xml:space="preserve" text-anchor="middle" x="260.12" y="-204.5" font-family="Helvetica,sans-Serif" font-size="10.00">src/Utils/Logger/LoggerFactory.hpp</text>
</a>
</g>
</g>
<!-- Node1&#45;&gt;Node5 -->
<g id="edge4_Node000001_Node000005" class="edge">
<title>Node1&#45;&gt;Node5</title>
<g id="a_edge4_Node000001_Node000005"><a xlink:title=" ">
<path fill="none" stroke="#63b8ff" d="M325.72,-253.22C309.24,-242.11 287.74,-227.62 273.93,-218.31"/>
<polygon fill="#63b8ff" stroke="#63b8ff" points="323.72,-256.09 333.96,-258.78 327.63,-250.29 323.72,-256.09"/>
</a>
</g>
</g>
<!-- Node7 -->
<g id="Node000007" class="node">
<title>Node7</title>
<g id="a_Node000007"><a xlink:href="UtilsFactory_8hpp.html" target="_top" xlink:title=" ">
<polygon fill="white" stroke="#666666" points="535.62,-150 408.62,-150 408.62,-130 535.62,-130 535.62,-150"/>
<text xml:space="preserve" text-anchor="middle" x="472.12" y="-136.5" font-family="Helvetica,sans-Serif" font-size="10.00">src/Utils/UtilsFactory.hpp</text>
</a>
</g>
</g>
<!-- Node1&#45;&gt;Node7 -->
<g id="edge23_Node000001_Node000007" class="edge">
<title>Node1&#45;&gt;Node7</title>
<g id="a_edge23_Node000001_Node000007"><a xlink:title=" ">
<path fill="none" stroke="#63b8ff" d="M430.06,-258.06C470.33,-250.78 512.97,-239.65 525.12,-224 544.73,-198.75 507.42,-166.1 485.87,-150.34"/>
<polygon fill="#63b8ff" stroke="#63b8ff" points="429.55,-254.6 420.29,-259.75 430.74,-261.49 429.55,-254.6"/>
</a>
</g>
</g>
<!-- Node15 -->
<g id="Node000015" class="node">
<title>Node15</title>
<g id="a_Node000015"><a xlink:href="NullLogger_8hpp.html" target="_top" xlink:title=" ">
<polygon fill="white" stroke="#666666" points="515.75,-218 362.5,-218 362.5,-198 515.75,-198 515.75,-218"/>
<text xml:space="preserve" text-anchor="middle" x="439.12" y="-204.5" font-family="Helvetica,sans-Serif" font-size="10.00">src/Utils/Logger/NullLogger.hpp</text>
</a>
</g>
</g>
<!-- Node1&#45;&gt;Node15 -->
<g id="edge20_Node000001_Node000015" class="edge">
<title>Node1&#45;&gt;Node15</title>
<g id="a_edge20_Node000001_Node000015"><a xlink:title=" ">
<path fill="none" stroke="#63b8ff" d="M372.32,-253.54C389.04,-242.39 411.06,-227.71 425.16,-218.31"/>
<polygon fill="#63b8ff" stroke="#63b8ff" points="370.83,-250.33 364.45,-258.79 374.71,-256.15 370.83,-250.33"/>
</a>
</g>
</g>
<!-- Node3 -->
<g id="Node000003" class="node">
<title>Node3</title>
<g id="a_Node000003"><a xlink:href="ConsoleLoggerTest_8cpp.html" target="_top" xlink:title=" ">
<polygon fill="white" stroke="#666666" points="126.25,-156 0,-156 0,-124 126.25,-124 126.25,-156"/>
<text xml:space="preserve" text-anchor="start" x="8" y="-142.5" font-family="Helvetica,sans-Serif" font-size="10.00">application/tests/Console</text>
<text xml:space="preserve" text-anchor="middle" x="63.12" y="-130.5" font-family="Helvetica,sans-Serif" font-size="10.00">LoggerTest.cpp</text>
</a>
</g>
</g>
<!-- Node2&#45;&gt;Node3 -->
<g id="edge2_Node000002_Node000003" class="edge">
<title>Node2&#45;&gt;Node3</title>
<g id="a_edge2_Node000002_Node000003"><a xlink:title=" ">
<path fill="none" stroke="#63b8ff" d="M83.35,-181.45C79.09,-172.93 74.48,-163.71 70.74,-156.22"/>
<polygon fill="#63b8ff" stroke="#63b8ff" points="80.19,-182.96 87.79,-190.34 86.45,-179.83 80.19,-182.96"/>
</a>
</g>
</g>
<!-- Node4 -->
<g id="Node000004" class="node">
<title>Node4</title>
<g id="a_Node000004"><a xlink:href="LoggerFactory_8cpp.html" target="_top" xlink:title=" ">
<polygon fill="white" stroke="#666666" points="312.25,-150 144,-150 144,-130 312.25,-130 312.25,-150"/>
<text xml:space="preserve" text-anchor="middle" x="228.12" y="-136.5" font-family="Helvetica,sans-Serif" font-size="10.00">src/Utils/Logger/LoggerFactory.cpp</text>
</a>
</g>
</g>
<!-- Node2&#45;&gt;Node4 -->
<g id="edge3_Node000002_Node000004" class="edge">
<title>Node2&#45;&gt;Node4</title>
<g id="a_edge3_Node000002_Node000004"><a xlink:title=" ">
<path fill="none" stroke="#63b8ff" d="M137.35,-186.39C161.38,-174.37 190.54,-159.79 209.2,-150.46"/>
<polygon fill="#63b8ff" stroke="#63b8ff" points="135.81,-183.25 128.43,-190.85 138.94,-189.51 135.81,-183.25"/>
</a>
</g>
</g>
<!-- Node5&#45;&gt;Node4 -->
<g id="edge5_Node000005_Node000004" class="edge">
<title>Node5&#45;&gt;Node4</title>
<g id="a_edge5_Node000005_Node000004"><a xlink:title=" ">
<path fill="none" stroke="#63b8ff" d="M250.62,-187.4C244.7,-175.2 237.36,-160.04 232.7,-150.44"/>
<polygon fill="#63b8ff" stroke="#63b8ff" points="247.37,-188.71 254.88,-196.18 253.67,-185.66 247.37,-188.71"/>
</a>
</g>
</g>
<!-- Node6 -->
<g id="Node000006" class="node">
<title>Node6</title>
<g id="a_Node000006"><a xlink:href="UtilsFactory_8cpp.html" target="_top" xlink:title=" ">
<polygon fill="white" stroke="#666666" points="379.62,-82 252.62,-82 252.62,-62 379.62,-62 379.62,-82"/>
<text xml:space="preserve" text-anchor="middle" x="316.12" y="-68.5" font-family="Helvetica,sans-Serif" font-size="10.00">src/Utils/UtilsFactory.cpp</text>
</a>
</g>
</g>
<!-- Node5&#45;&gt;Node6 -->
<g id="edge6_Node000005_Node000006" class="edge">
<title>Node5&#45;&gt;Node6</title>
<g id="a_edge6_Node000005_Node000006"><a xlink:title=" ">
<path fill="none" stroke="#63b8ff" d="M287.69,-191.72C300.38,-183.06 314.14,-170.95 321.12,-156 332.62,-131.41 324.53,-98.18 319.43,-82.25"/>
<polygon fill="#63b8ff" stroke="#63b8ff" points="286.18,-188.53 279.61,-196.85 289.93,-194.44 286.18,-188.53"/>
</a>
</g>
</g>
<!-- Node5&#45;&gt;Node7 -->
<g id="edge7_Node000005_Node000007" class="edge">
<title>Node5&#45;&gt;Node7</title>
<g id="a_edge7_Node000005_Node000007"><a xlink:title=" ">
<path fill="none" stroke="#63b8ff" d="M301.26,-194.19C342.47,-181.37 404.92,-161.92 441.81,-150.44"/>
<polygon fill="#63b8ff" stroke="#63b8ff" points="300.45,-190.78 291.94,-197.09 302.53,-197.46 300.45,-190.78"/>
</a>
</g>
</g>
<!-- Node7&#45;&gt;Node6 -->
<g id="edge19_Node000007_Node000006" class="edge">
<title>Node7&#45;&gt;Node6</title>
<g id="a_edge19_Node000007_Node000006"><a xlink:title=" ">
<path fill="none" stroke="#63b8ff" d="M439.3,-125.11C409,-112.29 364.83,-93.61 338.43,-82.44"/>
<polygon fill="#63b8ff" stroke="#63b8ff" points="437.81,-128.28 448.38,-128.95 440.53,-121.83 437.81,-128.28"/>
</a>
</g>
</g>
<!-- Node8 -->
<g id="Node000008" class="node">
<title>Node8</title>
<g id="a_Node000008"><a xlink:href="Application_8cpp.html" target="_top" xlink:title=" ">
<polygon fill="white" stroke="#666666" points="526.5,-20 377.75,-20 377.75,0 526.5,0 526.5,-20"/>
<text xml:space="preserve" text-anchor="middle" x="452.12" y="-6.5" font-family="Helvetica,sans-Serif" font-size="10.00">application/src/Application.cpp</text>
</a>
</g>
</g>
<!-- Node7&#45;&gt;Node8 -->
<g id="edge8_Node000007_Node000008" class="edge">
<title>Node7&#45;&gt;Node8</title>
<g id="a_edge8_Node000007_Node000008"><a xlink:title=" ">
<path fill="none" stroke="#63b8ff" d="M451.34,-121.93C442.04,-112.93 432.06,-101.06 427.12,-88 417.98,-63.81 434.9,-34.61 445.13,-20.11"/>
<polygon fill="#63b8ff" stroke="#63b8ff" points="448.98,-124.51 458.75,-128.61 453.66,-119.31 448.98,-124.51"/>
</a>
</g>
</g>
<!-- Node9 -->
<g id="Node000009" class="node">
<title>Node9</title>
<g id="a_Node000009"><a xlink:href="DotNameBotLib_8hpp.html" target="_top" xlink:title=" ">
<polygon fill="white" stroke="#666666" points="555.88,-88 436.38,-88 436.38,-56 555.88,-56 555.88,-88"/>
<text xml:space="preserve" text-anchor="start" x="444.38" y="-74.5" font-family="Helvetica,sans-Serif" font-size="10.00">include/DotNameBotLib</text>
<text xml:space="preserve" text-anchor="middle" x="496.12" y="-62.5" font-family="Helvetica,sans-Serif" font-size="10.00">/DotNameBotLib.hpp</text>
</a>
</g>
</g>
<!-- Node7&#45;&gt;Node9 -->
<g id="edge9_Node000007_Node000009" class="edge">
<title>Node7&#45;&gt;Node9</title>
<g id="a_edge9_Node000007_Node000009"><a xlink:title=" ">
<path fill="none" stroke="#63b8ff" d="M479.49,-118.75C483.06,-108.94 487.27,-97.36 490.56,-88.3"/>
<polygon fill="#63b8ff" stroke="#63b8ff" points="476.21,-117.53 476.08,-128.12 482.79,-119.92 476.21,-117.53"/>
</a>
</g>
</g>
<!-- Node11 -->
<g id="Node000011" class="node">
<title>Node11</title>
<g id="a_Node000011"><a xlink:href="DiscordBot_8hpp.html" target="_top" xlink:title=" ">
<polygon fill="white" stroke="#666666" points="726,-82 574.25,-82 574.25,-62 726,-62 726,-82"/>
<text xml:space="preserve" text-anchor="middle" x="650.12" y="-68.5" font-family="Helvetica,sans-Serif" font-size="10.00">src/DiscordBot/DiscordBot.hpp</text>
</a>
</g>
</g>
<!-- Node7&#45;&gt;Node11 -->
<g id="edge12_Node000007_Node000011" class="edge">
<title>Node7&#45;&gt;Node11</title>
<g id="a_edge12_Node000007_Node000011"><a xlink:title=" ">
<path fill="none" stroke="#63b8ff" d="M508.22,-125.61C542.82,-112.79 594.16,-93.75 624.67,-82.44"/>
<polygon fill="#63b8ff" stroke="#63b8ff" points="507.21,-122.26 499.05,-129.02 509.64,-128.82 507.21,-122.26"/>
</a>
</g>
</g>
<!-- Node13 -->
<g id="Node000013" class="node">
<title>Node13</title>
<g id="a_Node000013"><a xlink:href="RssManager_8hpp.html" target="_top" xlink:title=" ">
<polygon fill="white" stroke="#666666" points="872,-82 744.25,-82 744.25,-62 872,-62 872,-82"/>
<text xml:space="preserve" text-anchor="middle" x="808.12" y="-68.5" font-family="Helvetica,sans-Serif" font-size="10.00">src/Rss/RssManager.hpp</text>
</a>
</g>
</g>
<!-- Node7&#45;&gt;Node13 -->
<g id="edge15_Node000007_Node000013" class="edge">
<title>Node7&#45;&gt;Node13</title>
<g id="a_edge15_Node000007_Node000013"><a xlink:title=" ">
<path fill="none" stroke="#63b8ff" d="M532.9,-127.41C586.23,-117.2 665.86,-101.83 735.12,-88 744.01,-86.23 753.49,-84.3 762.58,-82.44"/>
<polygon fill="#63b8ff" stroke="#63b8ff" points="532.25,-123.97 523.09,-129.29 533.57,-130.85 532.25,-123.97"/>
</a>
</g>
</g>
<!-- Node9&#45;&gt;Node8 -->
<g id="edge10_Node000009_Node000008" class="edge">
<title>Node9&#45;&gt;Node8</title>
<g id="a_edge10_Node000009_Node000008"><a xlink:title=" ">
<path fill="none" stroke="#63b8ff" d="M478.09,-46.4C471.37,-37.24 464.14,-27.39 459.02,-20.41"/>
<polygon fill="#63b8ff" stroke="#63b8ff" points="475.16,-48.33 483.9,-54.33 480.81,-44.19 475.16,-48.33"/>
</a>
</g>
</g>
<!-- Node10 -->
<g id="Node000010" class="node">
<title>Node10</title>
<g id="a_Node000010"><a xlink:href="DotNameBotLib_8cpp.html" target="_top" xlink:title=" ">
<polygon fill="white" stroke="#666666" points="687.62,-20 566.62,-20 566.62,0 687.62,0 687.62,-20"/>
<text xml:space="preserve" text-anchor="middle" x="627.12" y="-6.5" font-family="Helvetica,sans-Serif" font-size="10.00">src/DotNameBotLib.cpp</text>
</a>
</g>
</g>
<!-- Node9&#45;&gt;Node10 -->
<g id="edge11_Node000009_Node000010" class="edge">
<title>Node9&#45;&gt;Node10</title>
<g id="a_edge11_Node000009_Node000010"><a xlink:title=" ">
<path fill="none" stroke="#63b8ff" d="M540.19,-50.82C562.64,-40.54 588.86,-28.53 606.58,-20.41"/>
<polygon fill="#63b8ff" stroke="#63b8ff" points="538.87,-47.57 531.24,-54.92 541.79,-53.94 538.87,-47.57"/>
</a>
</g>
</g>
<!-- Node11&#45;&gt;Node10 -->
<g id="edge14_Node000011_Node000010" class="edge">
<title>Node11&#45;&gt;Node10</title>
<g id="a_edge14_Node000011_Node000010"><a xlink:title=" ">
<path fill="none" stroke="#63b8ff" d="M642.43,-50.93C638.43,-40.5 633.74,-28.26 630.62,-20.11"/>
<polygon fill="#63b8ff" stroke="#63b8ff" points="639.14,-52.13 645.99,-60.21 645.68,-49.62 639.14,-52.13"/>
</a>
</g>
</g>
<!-- Node12 -->
<g id="Node000012" class="node">
<title>Node12</title>
<g id="a_Node000012"><a xlink:href="DiscordBot_8cpp.html" target="_top" xlink:title=" ">
<polygon fill="white" stroke="#666666" points="857,-20 705.25,-20 705.25,0 857,0 857,-20"/>
<text xml:space="preserve" text-anchor="middle" x="781.12" y="-6.5" font-family="Helvetica,sans-Serif" font-size="10.00">src/DiscordBot/DiscordBot.cpp</text>
</a>
</g>
</g>
<!-- Node11&#45;&gt;Node12 -->
<g id="edge13_Node000011_Node000012" class="edge">
<title>Node11&#45;&gt;Node12</title>
<g id="a_edge13_Node000011_Node000012"><a xlink:title=" ">
<path fill="none" stroke="#63b8ff" d="M680.86,-56.92C705.51,-45.63 739.42,-30.1 760.8,-20.31"/>
<polygon fill="#63b8ff" stroke="#63b8ff" points="679.6,-53.65 671.97,-60.99 682.52,-60.01 679.6,-53.65"/>
</a>
</g>
</g>
<!-- Node13&#45;&gt;Node10 -->
<g id="edge17_Node000013_Node000010" class="edge">
<title>Node13&#45;&gt;Node10</title>
<g id="a_edge17_Node000013_Node000010"><a xlink:title=" ">
<path fill="none" stroke="#63b8ff" d="M769.31,-58.13C735.12,-46.8 686.14,-30.56 655.51,-20.41"/>
<polygon fill="#63b8ff" stroke="#63b8ff" points="767.81,-61.32 778.41,-61.15 770.02,-54.68 767.81,-61.32"/>
</a>
</g>
</g>
<!-- Node13&#45;&gt;Node12 -->
<g id="edge16_Node000013_Node000012" class="edge">
<title>Node13&#45;&gt;Node12</title>
<g id="a_edge16_Node000013_Node000012"><a xlink:title=" ">
<path fill="none" stroke="#63b8ff" d="M799.24,-51.27C794.52,-40.76 788.93,-28.35 785.23,-20.11"/>
<polygon fill="#63b8ff" stroke="#63b8ff" points="795.99,-52.56 803.29,-60.24 802.37,-49.69 795.99,-52.56"/>
</a>
</g>
</g>
<!-- Node14 -->
<g id="Node000014" class="node">
<title>Node14</title>
<g id="a_Node000014"><a xlink:href="RssManager_8cpp.html" target="_top" xlink:title=" ">
<polygon fill="white" stroke="#666666" points="1003,-20 875.25,-20 875.25,0 1003,0 1003,-20"/>
<text xml:space="preserve" text-anchor="middle" x="939.12" y="-6.5" font-family="Helvetica,sans-Serif" font-size="10.00">src/Rss/RssManager.cpp</text>
</a>
</g>
</g>
<!-- Node13&#45;&gt;Node14 -->
<g id="edge18_Node000013_Node000014" class="edge">
<title>Node13&#45;&gt;Node14</title>
<g id="a_edge18_Node000013_Node000014"><a xlink:title=" ">
<path fill="none" stroke="#63b8ff" d="M838.86,-56.92C863.51,-45.63 897.42,-30.1 918.8,-20.31"/>
<polygon fill="#63b8ff" stroke="#63b8ff" points="837.6,-53.65 829.97,-60.99 840.52,-60.01 837.6,-53.65"/>
</a>
</g>
</g>
<!-- Node15&#45;&gt;Node4 -->
<g id="edge21_Node000015_Node000004" class="edge">
<title>Node15&#45;&gt;Node4</title>
<g id="a_edge21_Node000015_Node000004"><a xlink:title=" ">
<path fill="none" stroke="#63b8ff" d="M397.92,-194.11C356.91,-181.28 294.94,-161.9 258.3,-150.44"/>
<polygon fill="#63b8ff" stroke="#63b8ff" points="396.86,-197.45 407.45,-197.09 398.95,-190.77 396.86,-197.45"/>
</a>
</g>
</g>
<!-- Node15&#45;&gt;Node7 -->
<g id="edge22_Node000015_Node000007" class="edge">
<title>Node15&#45;&gt;Node7</title>
<g id="a_edge22_Node000015_Node000007"><a xlink:title=" ">
<path fill="none" stroke="#63b8ff" d="M448.92,-187.4C455.03,-175.2 462.61,-160.04 467.41,-150.44"/>
<polygon fill="#63b8ff" stroke="#63b8ff" points="445.87,-185.68 444.53,-196.19 452.13,-188.81 445.87,-185.68"/>
</a>
</g>
</g>
</g>
</svg>

<g id="navigator" transform="translate(0 0)" fill="#404254">
  <rect fill="#f2f5e9" fill-opacity="0.5" stroke="#606060" stroke-width=".5" x="0" y="0" width="60" height="60"/>
  <use id="zoomplus" xlink:href="#zoomPlus" x="17" y="9" onmousedown="handleZoom(evt,'in')"/>
  <use id="zoomminus" xlink:href="#zoomMin" x="42" y="9" onmousedown="handleZoom(evt,'out')"/>
  <use id="reset" xlink:href="#resetDef" x="30" y="36" onmousedown="handleReset()"/>
   <use id="arrowup" xlink:href="#arrowUp" x="0" y="0" onmousedown="handlePan(0,-1)"/>
  <use id="arrowright" xlink:href="#arrowRight" x="0" y="0" onmousedown="handlePan(1,0)"/>
  <use id="arrowdown" xlink:href="#arrowDown" x="0" y="0" onmousedown="handlePan(0,1)"/>
  <use id="arrowleft" xlink:href="#arrowLeft" x="0" y="0" onmousedown="handlePan(-1,0)"/>
</g>
<svg viewBox="0 0 15 15" width="100%" height="30px" preserveAspectRatio="xMaxYMin meet">
 <g id="arrow_out" transform="scale(0.3 0.3)">
  <a xlink:href="ILogger_8hpp__dep__incl_org.svg" target="_base">
   <rect id="button" ry="5" rx="5" y="6" x="6" height="38" width="38"
        fill="#f2f5e9" fill-opacity="0.5" stroke="#606060" stroke-width="1.0"/>
   <path id="arrow"
     d="M 11.500037,31.436501 C 11.940474,20.09759 22.043105,11.32322 32.158766,21.979434 L 37.068811,17.246167 C 37.068811,17.246167 37.088388,32 37.088388,32 L 22.160133,31.978069 C 22.160133,31.978069 26.997745,27.140456 26.997745,27.140456 C 18.528582,18.264221 13.291696,25.230495 11.500037,31.436501 z"
     style="fill:#404040;"/>
  </a>
 </g>
</svg>

<style type='text/css'>
<![CDATA[
[data-mouse-over-selected='false'] { opacity: 0.7; }
[data-mouse-over-selected='true']  { opacity: 1.0; }
]]>
</style>
<script type="application/ecmascript"><![CDATA[
document.addEventListener('DOMContentLoaded', (event) => {
  highlightEdges();
  highlightAdjacentNodes();
});
]]></script>
</svg>
