<?xml version="1.0" encoding="UTF-8" standalone="no"?>
<!DOCTYPE svg PUBLIC "-//W3C//DTD SVG 1.1//EN"
 "http://www.w3.org/Graphics/SVG/1.1/DTD/svg11.dtd">
<!-- Generated by graphviz version 13.1.2 (20250808.2320)
 -->
<!-- Title: src/Utils/Logger/ILogger.hpp Pages: 1 -->
<svg width="850pt" height="344pt"
 viewBox="0.00 0.00 850.00 344.00" xmlns="http://www.w3.org/2000/svg" xmlns:xlink="http://www.w3.org/1999/xlink">
<g id="graph0" class="graph" transform="scale(1 1) rotate(0) translate(4 340)">
<title>src/Utils/Logger/ILogger.hpp</title>
<!-- Node1 -->
<g id="Node000001" class="node">
<title>Node1</title>
<g id="a_Node000001"><a xlink:title=" ">
<polygon fill="#999999" stroke="#666666" points="382.62,-336 243.62,-336 243.62,-316 382.62,-316 382.62,-336"/>
<text xml:space="preserve" text-anchor="middle" x="313.12" y="-322.5" font-family="Helvetica,sans-Serif" font-size="10.00">src/Utils/Logger/ILogger.hpp</text>
</a>
</g>
</g>
<!-- Node2 -->
<g id="Node000002" class="node">
<title>Node2</title>
<g id="a_Node000002"><a xlink:href="ConsoleLogger_8hpp.html" target="_top" xlink:title=" ">
<polygon fill="white" stroke="#666666" points="129.12,-280 5.12,-280 5.12,-248 129.12,-248 129.12,-280"/>
<text xml:space="preserve" text-anchor="start" x="13.12" y="-266.5" font-family="Helvetica,sans-Serif" font-size="10.00">src/Utils/Logger/Console</text>
<text xml:space="preserve" text-anchor="middle" x="67.12" y="-254.5" font-family="Helvetica,sans-Serif" font-size="10.00">Logger.hpp</text>
</a>
</g>
</g>
<!-- Node1&#45;&gt;Node2 -->
<g id="edge1_Node000001_Node000002" class="edge">
<title>Node1&#45;&gt;Node2</title>
<g id="a_edge1_Node000001_Node000002"><a xlink:title=" ">
<path fill="none" stroke="#63b8ff" d="M263.45,-312.89C224.84,-303.47 171.05,-290.35 129.54,-280.22"/>
<polygon fill="#63b8ff" stroke="#63b8ff" points="262.4,-316.23 272.95,-315.2 264.06,-309.43 262.4,-316.23"/>
</a>
</g>
</g>
<!-- Node5 -->
<g id="Node000005" class="node">
<title>Node5</title>
<g id="a_Node000005"><a xlink:href="LoggerFactory_8hpp.html" target="_top" xlink:title=" ">
<polygon fill="white" stroke="#666666" points="487.25,-274 319,-274 319,-254 487.25,-254 487.25,-274"/>
<text xml:space="preserve" text-anchor="middle" x="403.12" y="-260.5" font-family="Helvetica,sans-Serif" font-size="10.00">src/Utils/Logger/LoggerFactory.hpp</text>
</a>
</g>
</g>
<!-- Node1&#45;&gt;Node5 -->
<g id="edge4_Node000001_Node000005" class="edge">
<title>Node1&#45;&gt;Node5</title>
<g id="a_edge4_Node000001_Node000005"><a xlink:title=" ">
<path fill="none" stroke="#63b8ff" d="M336.32,-309.54C353.04,-298.39 375.06,-283.71 389.16,-274.31"/>
<polygon fill="#63b8ff" stroke="#63b8ff" points="334.83,-306.33 328.45,-314.79 338.71,-312.15 334.83,-306.33"/>
</a>
</g>
</g>
<!-- Node7 -->
<g id="Node000007" class="node">
<title>Node7</title>
<g id="a_Node000007"><a xlink:href="UtilsFactory_8hpp.html" target="_top" xlink:title=" ">
<polygon fill="white" stroke="#666666" points="552.62,-206 425.62,-206 425.62,-186 552.62,-186 552.62,-206"/>
<text xml:space="preserve" text-anchor="middle" x="489.12" y="-192.5" font-family="Helvetica,sans-Serif" font-size="10.00">src/Utils/UtilsFactory.hpp</text>
</a>
</g>
</g>
<!-- Node1&#45;&gt;Node7 -->
<g id="edge23_Node000001_Node000007" class="edge">
<title>Node1&#45;&gt;Node7</title>
<g id="a_edge23_Node000001_Node000007"><a xlink:title=" ">
<path fill="none" stroke="#63b8ff" d="M394.42,-314.95C437.09,-307.82 483.15,-296.55 496.12,-280 513.08,-258.38 501.01,-223.13 493.66,-206.39"/>
<polygon fill="#63b8ff" stroke="#63b8ff" points="393.91,-311.48 384.59,-316.52 395.01,-318.4 393.91,-311.48"/>
</a>
</g>
</g>
<!-- Node15 -->
<g id="Node000015" class="node">
<title>Node15</title>
<g id="a_Node000015"><a xlink:href="NullLogger_8hpp.html" target="_top" xlink:title=" ">
<polygon fill="white" stroke="#666666" points="300.75,-274 147.5,-274 147.5,-254 300.75,-254 300.75,-274"/>
<text xml:space="preserve" text-anchor="middle" x="224.12" y="-260.5" font-family="Helvetica,sans-Serif" font-size="10.00">src/Utils/Logger/NullLogger.hpp</text>
</a>
</g>
</g>
<!-- Node1&#45;&gt;Node15 -->
<g id="edge20_Node000001_Node000015" class="edge">
<title>Node1&#45;&gt;Node15</title>
<g id="a_edge20_Node000001_Node000015"><a xlink:title=" ">
<path fill="none" stroke="#63b8ff" d="M289.72,-309.22C273.24,-298.11 251.74,-283.62 237.93,-274.31"/>
<polygon fill="#63b8ff" stroke="#63b8ff" points="287.72,-312.09 297.96,-314.78 291.63,-306.29 287.72,-312.09"/>
</a>
</g>
</g>
<!-- Node3 -->
<g id="Node000003" class="node">
<title>Node3</title>
<g id="a_Node000003"><a xlink:href="ConsoleLoggerTest_8cpp.html" target="_top" xlink:title=" ">
<polygon fill="white" stroke="#666666" points="126.25,-212 0,-212 0,-180 126.25,-180 126.25,-212"/>
<text xml:space="preserve" text-anchor="start" x="8" y="-198.5" font-family="Helvetica,sans-Serif" font-size="10.00">application/tests/Console</text>
<text xml:space="preserve" text-anchor="middle" x="63.12" y="-186.5" font-family="Helvetica,sans-Serif" font-size="10.00">LoggerTest.cpp</text>
</a>
</g>
</g>
<!-- Node2&#45;&gt;Node3 -->
<g id="edge2_Node000002_Node000003" class="edge">
<title>Node2&#45;&gt;Node3</title>
<g id="a_edge2_Node000002_Node000003"><a xlink:title=" ">
<path fill="none" stroke="#63b8ff" d="M65.51,-236.31C65.01,-228.12 64.48,-219.38 64.05,-212.22"/>
<polygon fill="#63b8ff" stroke="#63b8ff" points="62.01,-236.41 66.11,-246.18 68.99,-235.99 62.01,-236.41"/>
</a>
</g>
</g>
<!-- Node4 -->
<g id="Node000004" class="node">
<title>Node4</title>
<g id="a_Node000004"><a xlink:href="LoggerFactory_8cpp.html" target="_top" xlink:title=" ">
<polygon fill="white" stroke="#666666" points="312.25,-206 144,-206 144,-186 312.25,-186 312.25,-206"/>
<text xml:space="preserve" text-anchor="middle" x="228.12" y="-192.5" font-family="Helvetica,sans-Serif" font-size="10.00">src/Utils/Logger/LoggerFactory.cpp</text>
</a>
</g>
</g>
<!-- Node2&#45;&gt;Node4 -->
<g id="edge3_Node000002_Node000004" class="edge">
<title>Node2&#45;&gt;Node4</title>
<g id="a_edge3_Node000002_Node000004"><a xlink:title=" ">
<path fill="none" stroke="#63b8ff" d="M115.45,-243.19C145.12,-231.03 181.77,-216 205.05,-206.46"/>
<polygon fill="#63b8ff" stroke="#63b8ff" points="114.2,-239.92 106.27,-246.95 116.85,-246.4 114.2,-239.92"/>
</a>
</g>
</g>
<!-- Node5&#45;&gt;Node4 -->
<g id="edge5_Node000005_Node000004" class="edge">
<title>Node5&#45;&gt;Node4</title>
<g id="a_edge5_Node000005_Node000004"><a xlink:title=" ">
<path fill="none" stroke="#63b8ff" d="M367.63,-249.61C333.62,-236.79 283.15,-217.75 253.15,-206.44"/>
<polygon fill="#63b8ff" stroke="#63b8ff" points="366.04,-252.76 376.64,-253.01 368.51,-246.21 366.04,-252.76"/>
</a>
</g>
</g>
<!-- Node6 -->
<g id="Node000006" class="node">
<title>Node6</title>
<g id="a_Node000006"><a xlink:href="UtilsFactory_8cpp.html" target="_top" xlink:title=" ">
<polygon fill="white" stroke="#666666" points="401.62,-138 274.62,-138 274.62,-118 401.62,-118 401.62,-138"/>
<text xml:space="preserve" text-anchor="middle" x="338.12" y="-124.5" font-family="Helvetica,sans-Serif" font-size="10.00">src/Utils/UtilsFactory.cpp</text>
</a>
</g>
</g>
<!-- Node5&#45;&gt;Node6 -->
<g id="edge6_Node000005_Node000006" class="edge">
<title>Node5&#45;&gt;Node6</title>
<g id="a_edge6_Node000005_Node000006"><a xlink:title=" ">
<path fill="none" stroke="#63b8ff" d="M393.71,-243.59C379.5,-214.3 353.14,-159.95 342.62,-138.27"/>
<polygon fill="#63b8ff" stroke="#63b8ff" points="390.48,-244.96 398,-252.43 396.78,-241.9 390.48,-244.96"/>
</a>
</g>
</g>
<!-- Node5&#45;&gt;Node7 -->
<g id="edge7_Node000005_Node000007" class="edge">
<title>Node5&#45;&gt;Node7</title>
<g id="a_edge7_Node000005_Node000007"><a xlink:title=" ">
<path fill="none" stroke="#63b8ff" d="M424.38,-246.69C440.88,-234.03 463.17,-216.92 476.83,-206.44"/>
<polygon fill="#63b8ff" stroke="#63b8ff" points="422.45,-243.76 416.65,-252.62 426.71,-249.31 422.45,-243.76"/>
</a>
</g>
</g>
<!-- Node7&#45;&gt;Node6 -->
<g id="edge19_Node000007_Node000006" class="edge">
<title>Node7&#45;&gt;Node6</title>
<g id="a_edge19_Node000007_Node000006"><a xlink:title=" ">
<path fill="none" stroke="#63b8ff" d="M456.96,-180.94C427.65,-168.13 385.15,-149.56 359.72,-138.44"/>
<polygon fill="#63b8ff" stroke="#63b8ff" points="455.54,-184.14 466.1,-184.94 458.34,-177.73 455.54,-184.14"/>
</a>
</g>
</g>
<!-- Node8 -->
<g id="Node000008" class="node">
<title>Node8</title>
<g id="a_Node000008"><a xlink:href="Application_8cpp.html" target="_top" xlink:title=" ">
<polygon fill="white" stroke="#666666" points="827.5,-76 678.75,-76 678.75,-56 827.5,-56 827.5,-76"/>
<text xml:space="preserve" text-anchor="middle" x="753.12" y="-62.5" font-family="Helvetica,sans-Serif" font-size="10.00">application/src/Application.cpp</text>
</a>
</g>
</g>
<!-- Node7&#45;&gt;Node8 -->
<g id="edge8_Node000007_Node000008" class="edge">
<title>Node7&#45;&gt;Node8</title>
<g id="a_edge8_Node000007_Node000008"><a xlink:title=" ">
<path fill="none" stroke="#63b8ff" d="M519,-180.68C540.25,-170.48 569.46,-156.43 595.12,-144 645.38,-119.66 704.53,-90.77 734.17,-76.28"/>
<polygon fill="#63b8ff" stroke="#63b8ff" points="517.54,-177.49 510.04,-184.97 520.57,-183.8 517.54,-177.49"/>
</a>
</g>
</g>
<!-- Node9 -->
<g id="Node000009" class="node">
<title>Node9</title>
<g id="a_Node000009"><a xlink:href="DotNameBotLib_8hpp.html" target="_top" xlink:title=" ">
<polygon fill="white" stroke="#666666" points="812.88,-144 693.38,-144 693.38,-112 812.88,-112 812.88,-144"/>
<text xml:space="preserve" text-anchor="start" x="701.38" y="-130.5" font-family="Helvetica,sans-Serif" font-size="10.00">include/DotNameBotLib</text>
<text xml:space="preserve" text-anchor="middle" x="753.12" y="-118.5" font-family="Helvetica,sans-Serif" font-size="10.00">/DotNameBotLib.hpp</text>
</a>
</g>
</g>
<!-- Node7&#45;&gt;Node9 -->
<g id="edge9_Node000007_Node000009" class="edge">
<title>Node7&#45;&gt;Node9</title>
<g id="a_edge9_Node000007_Node000009"><a xlink:title=" ">
<path fill="none" stroke="#63b8ff" d="M537.88,-182.81C581.63,-171.87 645.99,-155.78 692.93,-144.05"/>
<polygon fill="#63b8ff" stroke="#63b8ff" points="537.27,-179.36 528.42,-185.18 538.97,-186.15 537.27,-179.36"/>
</a>
</g>
</g>
<!-- Node11 -->
<g id="Node000011" class="node">
<title>Node11</title>
<g id="a_Node000011"><a xlink:href="DiscordBot_8hpp.html" target="_top" xlink:title=" ">
<polygon fill="white" stroke="#666666" points="477,-76 325.25,-76 325.25,-56 477,-56 477,-76"/>
<text xml:space="preserve" text-anchor="middle" x="401.12" y="-62.5" font-family="Helvetica,sans-Serif" font-size="10.00">src/DiscordBot/DiscordBot.hpp</text>
</a>
</g>
</g>
<!-- Node7&#45;&gt;Node11 -->
<g id="edge12_Node000007_Node000011" class="edge">
<title>Node7&#45;&gt;Node11</title>
<g id="a_edge12_Node000007_Node000011"><a xlink:title=" ">
<path fill="none" stroke="#63b8ff" d="M474.39,-177.18C466.61,-167.55 457.07,-155.33 449.12,-144 432.49,-120.26 414.97,-90.87 406.43,-76.21"/>
<polygon fill="#63b8ff" stroke="#63b8ff" points="471.45,-179.12 480.49,-184.66 476.87,-174.7 471.45,-179.12"/>
</a>
</g>
</g>
<!-- Node13 -->
<g id="Node000013" class="node">
<title>Node13</title>
<g id="a_Node000013"><a xlink:href="RssManager_8hpp.html" target="_top" xlink:title=" ">
<polygon fill="white" stroke="#666666" points="586,-138 458.25,-138 458.25,-118 586,-118 586,-138"/>
<text xml:space="preserve" text-anchor="middle" x="522.12" y="-124.5" font-family="Helvetica,sans-Serif" font-size="10.00">src/Rss/RssManager.hpp</text>
</a>
</g>
</g>
<!-- Node7&#45;&gt;Node13 -->
<g id="edge15_Node000007_Node000013" class="edge">
<title>Node7&#45;&gt;Node13</title>
<g id="a_edge15_Node000007_Node000013"><a xlink:title=" ">
<path fill="none" stroke="#63b8ff" d="M498.92,-175.4C505.03,-163.2 512.61,-148.04 517.41,-138.44"/>
<polygon fill="#63b8ff" stroke="#63b8ff" points="495.87,-173.68 494.53,-184.19 502.13,-176.81 495.87,-173.68"/>
</a>
</g>
</g>
<!-- Node9&#45;&gt;Node8 -->
<g id="edge10_Node000009_Node000008" class="edge">
<title>Node9&#45;&gt;Node8</title>
<g id="a_edge10_Node000009_Node000008"><a xlink:title=" ">
<path fill="none" stroke="#63b8ff" d="M753.12,-100.08C753.12,-91.6 753.12,-82.8 753.12,-76.41"/>
<polygon fill="#63b8ff" stroke="#63b8ff" points="749.63,-100.03 753.13,-110.03 756.63,-100.03 749.63,-100.03"/>
</a>
</g>
</g>
<!-- Node10 -->
<g id="Node000010" class="node">
<title>Node10</title>
<g id="a_Node000010"><a xlink:href="DotNameBotLib_8cpp.html" target="_top" xlink:title=" ">
<polygon fill="white" stroke="#666666" points="590.62,-20 469.62,-20 469.62,0 590.62,0 590.62,-20"/>
<text xml:space="preserve" text-anchor="middle" x="530.12" y="-6.5" font-family="Helvetica,sans-Serif" font-size="10.00">src/DotNameBotLib.cpp</text>
</a>
</g>
</g>
<!-- Node9&#45;&gt;Node10 -->
<g id="edge11_Node000009_Node000010" class="edge">
<title>Node9&#45;&gt;Node10</title>
<g id="a_edge11_Node000009_Node000010"><a xlink:title=" ">
<path fill="none" stroke="#63b8ff" d="M803.95,-106.62C829.76,-93.34 852.54,-75 836.12,-56 805.11,-20.09 671.05,-12.31 591.03,-10.94"/>
<polygon fill="#63b8ff" stroke="#63b8ff" points="802.43,-103.47 794.96,-110.97 805.48,-109.77 802.43,-103.47"/>
</a>
</g>
</g>
<!-- Node11&#45;&gt;Node10 -->
<g id="edge14_Node000011_Node000010" class="edge">
<title>Node11&#45;&gt;Node10</title>
<g id="a_edge14_Node000011_Node000010"><a xlink:title=" ">
<path fill="none" stroke="#63b8ff" d="M433.92,-51.27C456.93,-41.64 487.11,-29.01 507.48,-20.48"/>
<polygon fill="#63b8ff" stroke="#63b8ff" points="432.86,-47.92 424.99,-55.01 435.57,-54.38 432.86,-47.92"/>
</a>
</g>
</g>
<!-- Node12 -->
<g id="Node000012" class="node">
<title>Node12</title>
<g id="a_Node000012"><a xlink:href="DiscordBot_8cpp.html" target="_top" xlink:title=" ">
<polygon fill="white" stroke="#666666" points="452,-20 300.25,-20 300.25,0 452,0 452,-20"/>
<text xml:space="preserve" text-anchor="middle" x="376.12" y="-6.5" font-family="Helvetica,sans-Serif" font-size="10.00">src/DiscordBot/DiscordBot.cpp</text>
</a>
</g>
</g>
<!-- Node11&#45;&gt;Node12 -->
<g id="edge13_Node000011_Node000012" class="edge">
<title>Node11&#45;&gt;Node12</title>
<g id="a_edge13_Node000011_Node000012"><a xlink:title=" ">
<path fill="none" stroke="#63b8ff" d="M392,-45.29C388.05,-36.75 383.61,-27.16 380.43,-20.3"/>
<polygon fill="#63b8ff" stroke="#63b8ff" points="388.76,-46.62 396.13,-54.22 395.11,-43.68 388.76,-46.62"/>
</a>
</g>
</g>
<!-- Node13&#45;&gt;Node10 -->
<g id="edge17_Node000013_Node000010" class="edge">
<title>Node13&#45;&gt;Node10</title>
<g id="a_edge17_Node000013_Node000010"><a xlink:title=" ">
<path fill="none" stroke="#63b8ff" d="M522.14,-106.41C522.29,-92.22 522.76,-72.94 524.12,-56 525.12,-43.59 527.18,-29.36 528.6,-20.28"/>
<polygon fill="#63b8ff" stroke="#63b8ff" points="518.64,-106.26 522.09,-116.28 525.64,-106.3 518.64,-106.26"/>
</a>
</g>
</g>
<!-- Node13&#45;&gt;Node11 -->
<g id="edge16_Node000013_Node000011" class="edge">
<title>Node13&#45;&gt;Node11</title>
<g id="a_edge16_Node000013_Node000011"><a xlink:title=" ">
<path fill="none" stroke="#63b8ff" d="M493.12,-112.62C470.4,-101.35 439.47,-86.01 419.9,-76.31"/>
<polygon fill="#63b8ff" stroke="#63b8ff" points="491.35,-115.65 501.86,-116.95 494.46,-109.37 491.35,-115.65"/>
</a>
</g>
</g>
<!-- Node14 -->
<g id="Node000014" class="node">
<title>Node14</title>
<g id="a_Node000014"><a xlink:href="RssManager_8cpp.html" target="_top" xlink:title=" ">
<polygon fill="white" stroke="#666666" points="661,-76 533.25,-76 533.25,-56 661,-56 661,-76"/>
<text xml:space="preserve" text-anchor="middle" x="597.12" y="-62.5" font-family="Helvetica,sans-Serif" font-size="10.00">src/Rss/RssManager.cpp</text>
</a>
</g>
</g>
<!-- Node13&#45;&gt;Node14 -->
<g id="edge18_Node000013_Node000014" class="edge">
<title>Node13&#45;&gt;Node14</title>
<g id="a_edge18_Node000013_Node000014"><a xlink:title=" ">
<path fill="none" stroke="#63b8ff" d="M542.69,-110.55C556.56,-99.45 574.34,-85.23 585.73,-76.11"/>
<polygon fill="#63b8ff" stroke="#63b8ff" points="540.65,-107.7 535.03,-116.68 545.02,-113.17 540.65,-107.7"/>
</a>
</g>
</g>
<!-- Node15&#45;&gt;Node4 -->
<g id="edge21_Node000015_Node000004" class="edge">
<title>Node15&#45;&gt;Node4</title>
<g id="a_edge21_Node000015_Node000004"><a xlink:title=" ">
<path fill="none" stroke="#63b8ff" d="M225.38,-242.28C226.11,-230.27 226.99,-215.74 227.55,-206.44"/>
<polygon fill="#63b8ff" stroke="#63b8ff" points="221.9,-241.84 224.79,-252.03 228.89,-242.26 221.9,-241.84"/>
</a>
</g>
</g>
<!-- Node15&#45;&gt;Node7 -->
<g id="edge22_Node000015_Node000007" class="edge">
<title>Node15&#45;&gt;Node7</title>
<g id="a_edge22_Node000015_Node000007"><a xlink:title=" ">
<path fill="none" stroke="#63b8ff" d="M273.26,-250.76C324.71,-237.95 404.43,-218.09 451.23,-206.44"/>
<polygon fill="#63b8ff" stroke="#63b8ff" points="272.42,-247.36 263.56,-253.18 274.11,-254.16 272.42,-247.36"/>
</a>
</g>
</g>
</g>
</svg>
