<?xml version="1.0" encoding="UTF-8" standalone="no"?>
<!DOCTYPE svg PUBLIC "-//W3C//DTD SVG 1.1//EN"
 "http://www.w3.org/Graphics/SVG/1.1/DTD/svg11.dtd">
<!-- Generated by graphviz version 13.1.2 (20250808.2320)
 -->
<!-- Title: src/Utils/Platform/IPlatformInfo.hpp Pages: 1 -->
<svg width="1153pt" height="288pt"
 viewBox="0.00 0.00 1153.00 288.00" xmlns="http://www.w3.org/2000/svg" xmlns:xlink="http://www.w3.org/1999/xlink">
<g id="graph0" class="graph" transform="scale(1 1) rotate(0) translate(4 284)">
<title>src/Utils/Platform/IPlatformInfo.hpp</title>
<!-- Node1 -->
<g id="Node000001" class="node">
<title>Node1</title>
<g id="a_Node000001"><a xlink:title=" ">
<polygon fill="#999999" stroke="#666666" points="535.25,-280 441.25,-280 441.25,-248 535.25,-248 535.25,-280"/>
<text xml:space="preserve" text-anchor="start" x="449.25" y="-266.5" font-family="Helvetica,sans-Serif" font-size="10.00">src/Utils/Platform</text>
<text xml:space="preserve" text-anchor="middle" x="488.25" y="-254.5" font-family="Helvetica,sans-Serif" font-size="10.00">/IPlatformInfo.hpp</text>
</a>
</g>
</g>
<!-- Node2 -->
<g id="Node000002" class="node">
<title>Node2</title>
<g id="a_Node000002"><a xlink:href="EmscriptenPlatformInfo_8hpp.html" target="_top" xlink:title=" ">
<polygon fill="white" stroke="#666666" points="275.5,-212 135,-212 135,-180 275.5,-180 275.5,-212"/>
<text xml:space="preserve" text-anchor="start" x="143" y="-198.5" font-family="Helvetica,sans-Serif" font-size="10.00">src/Utils/Platform</text>
<text xml:space="preserve" text-anchor="middle" x="205.25" y="-186.5" font-family="Helvetica,sans-Serif" font-size="10.00">/EmscriptenPlatformInfo.hpp</text>
</a>
</g>
</g>
<!-- Node1&#45;&gt;Node2 -->
<g id="edge1_Node000001_Node000002" class="edge">
<title>Node1&#45;&gt;Node2</title>
<g id="a_edge1_Node000001_Node000002"><a xlink:title=" ">
<path fill="none" stroke="#63b8ff" d="M429.88,-249.39C383.84,-238.65 319.6,-223.67 271.6,-212.47"/>
<polygon fill="#63b8ff" stroke="#63b8ff" points="428.87,-252.75 439.41,-251.61 430.46,-245.93 428.87,-252.75"/>
</a>
</g>
</g>
<!-- Node5 -->
<g id="Node000005" class="node">
<title>Node5</title>
<g id="a_Node000005"><a xlink:href="PlatformInfoFactory_8hpp.html" target="_top" xlink:title=" ">
<polygon fill="white" stroke="#666666" points="694.88,-212 571.62,-212 571.62,-180 694.88,-180 694.88,-212"/>
<text xml:space="preserve" text-anchor="start" x="579.62" y="-198.5" font-family="Helvetica,sans-Serif" font-size="10.00">src/Utils/Platform</text>
<text xml:space="preserve" text-anchor="middle" x="633.25" y="-186.5" font-family="Helvetica,sans-Serif" font-size="10.00">/PlatformInfoFactory.hpp</text>
</a>
</g>
</g>
<!-- Node1&#45;&gt;Node5 -->
<g id="edge4_Node000001_Node000005" class="edge">
<title>Node1&#45;&gt;Node5</title>
<g id="a_edge4_Node000001_Node000005"><a xlink:title=" ">
<path fill="none" stroke="#63b8ff" d="M532.72,-242.76C554.12,-233.02 579.37,-221.52 599.22,-212.49"/>
<polygon fill="#63b8ff" stroke="#63b8ff" points="531.28,-239.57 523.62,-246.9 534.18,-245.94 531.28,-239.57"/>
</a>
</g>
</g>
<!-- Node7 -->
<g id="Node000007" class="node">
<title>Node7</title>
<g id="a_Node000007"><a xlink:href="UnixPlatformInfo_8hpp.html" target="_top" xlink:title=" ">
<polygon fill="white" stroke="#666666" points="404.88,-212 293.62,-212 293.62,-180 404.88,-180 404.88,-212"/>
<text xml:space="preserve" text-anchor="start" x="301.62" y="-198.5" font-family="Helvetica,sans-Serif" font-size="10.00">src/Utils/Platform</text>
<text xml:space="preserve" text-anchor="middle" x="349.25" y="-186.5" font-family="Helvetica,sans-Serif" font-size="10.00">/UnixPlatformInfo.hpp</text>
</a>
</g>
</g>
<!-- Node1&#45;&gt;Node7 -->
<g id="edge7_Node000001_Node000007" class="edge">
<title>Node1&#45;&gt;Node7</title>
<g id="a_edge7_Node000001_Node000007"><a xlink:title=" ">
<path fill="none" stroke="#63b8ff" d="M445.3,-242.61C424.77,-232.86 400.59,-221.38 381.64,-212.38"/>
<polygon fill="#63b8ff" stroke="#63b8ff" points="443.76,-245.75 454.29,-246.88 446.76,-239.43 443.76,-245.75"/>
</a>
</g>
</g>
<!-- Node9 -->
<g id="Node000009" class="node">
<title>Node9</title>
<g id="a_Node000009"><a xlink:href="WindowsPlatformInfo_8hpp.html" target="_top" xlink:title=" ">
<polygon fill="white" stroke="#666666" points="554,-212 422.5,-212 422.5,-180 554,-180 554,-212"/>
<text xml:space="preserve" text-anchor="start" x="430.5" y="-198.5" font-family="Helvetica,sans-Serif" font-size="10.00">src/Utils/Platform</text>
<text xml:space="preserve" text-anchor="middle" x="488.25" y="-186.5" font-family="Helvetica,sans-Serif" font-size="10.00">/WindowsPlatformInfo.hpp</text>
</a>
</g>
</g>
<!-- Node1&#45;&gt;Node9 -->
<g id="edge10_Node000001_Node000009" class="edge">
<title>Node1&#45;&gt;Node9</title>
<g id="a_edge10_Node000001_Node000009"><a xlink:title=" ">
<path fill="none" stroke="#63b8ff" d="M488.25,-236.31C488.25,-228.12 488.25,-219.38 488.25,-212.22"/>
<polygon fill="#63b8ff" stroke="#63b8ff" points="484.75,-236.18 488.25,-246.18 491.75,-236.18 484.75,-236.18"/>
</a>
</g>
</g>
<!-- Node11 -->
<g id="Node000011" class="node">
<title>Node11</title>
<g id="a_Node000011"><a xlink:href="UtilsFactory_8hpp.html" target="_top" xlink:title=" ">
<polygon fill="white" stroke="#666666" points="863.75,-206 736.75,-206 736.75,-186 863.75,-186 863.75,-206"/>
<text xml:space="preserve" text-anchor="middle" x="800.25" y="-192.5" font-family="Helvetica,sans-Serif" font-size="10.00">src/Utils/UtilsFactory.hpp</text>
</a>
</g>
</g>
<!-- Node1&#45;&gt;Node11 -->
<g id="edge13_Node000001_Node000011" class="edge">
<title>Node1&#45;&gt;Node11</title>
<g id="a_edge13_Node000001_Node000011"><a xlink:title=" ">
<path fill="none" stroke="#63b8ff" d="M546.54,-250.67C607.08,-237.86 700.47,-218.11 755.46,-206.47"/>
<polygon fill="#63b8ff" stroke="#63b8ff" points="546.18,-247.17 537.12,-252.66 547.62,-254.02 546.18,-247.17"/>
</a>
</g>
</g>
<!-- Node3 -->
<g id="Node000003" class="node">
<title>Node3</title>
<g id="a_Node000003"><a xlink:href="EmscriptenPlatformInfo_8cpp.html" target="_top" xlink:title=" ">
<polygon fill="white" stroke="#666666" points="140.5,-144 0,-144 0,-112 140.5,-112 140.5,-144"/>
<text xml:space="preserve" text-anchor="start" x="8" y="-130.5" font-family="Helvetica,sans-Serif" font-size="10.00">src/Utils/Platform</text>
<text xml:space="preserve" text-anchor="middle" x="70.25" y="-118.5" font-family="Helvetica,sans-Serif" font-size="10.00">/EmscriptenPlatformInfo.cpp</text>
</a>
</g>
</g>
<!-- Node2&#45;&gt;Node3 -->
<g id="edge2_Node000002_Node000003" class="edge">
<title>Node2&#45;&gt;Node3</title>
<g id="a_edge2_Node000002_Node000003"><a xlink:title=" ">
<path fill="none" stroke="#63b8ff" d="M163.26,-174.47C143.38,-164.75 120.03,-153.34 101.7,-144.38"/>
<polygon fill="#63b8ff" stroke="#63b8ff" points="161.72,-177.61 172.24,-178.86 164.79,-171.32 161.72,-177.61"/>
</a>
</g>
</g>
<!-- Node4 -->
<g id="Node000004" class="node">
<title>Node4</title>
<g id="a_Node000004"><a xlink:href="PlatformInfoFactory_8cpp.html" target="_top" xlink:title=" ">
<polygon fill="white" stroke="#666666" points="410.88,-144 287.62,-144 287.62,-112 410.88,-112 410.88,-144"/>
<text xml:space="preserve" text-anchor="start" x="295.62" y="-130.5" font-family="Helvetica,sans-Serif" font-size="10.00">src/Utils/Platform</text>
<text xml:space="preserve" text-anchor="middle" x="349.25" y="-118.5" font-family="Helvetica,sans-Serif" font-size="10.00">/PlatformInfoFactory.cpp</text>
</a>
</g>
</g>
<!-- Node2&#45;&gt;Node4 -->
<g id="edge3_Node000002_Node000004" class="edge">
<title>Node2&#45;&gt;Node4</title>
<g id="a_edge3_Node000002_Node000004"><a xlink:title=" ">
<path fill="none" stroke="#63b8ff" d="M249.45,-174.74C270.79,-164.96 295.97,-153.42 315.7,-144.38"/>
<polygon fill="#63b8ff" stroke="#63b8ff" points="248.02,-171.55 240.39,-178.9 250.94,-177.91 248.02,-171.55"/>
</a>
</g>
</g>
<!-- Node5&#45;&gt;Node4 -->
<g id="edge5_Node000005_Node000004" class="edge">
<title>Node5&#45;&gt;Node4</title>
<g id="a_edge5_Node000005_Node000004"><a xlink:title=" ">
<path fill="none" stroke="#63b8ff" d="M560.13,-178.01C513.95,-167.27 454.94,-153.56 411.09,-143.37"/>
<polygon fill="#63b8ff" stroke="#63b8ff" points="559.27,-181.4 569.8,-180.25 560.85,-174.58 559.27,-181.4"/>
</a>
</g>
</g>
<!-- Node6 -->
<g id="Node000006" class="node">
<title>Node6</title>
<g id="a_Node000006"><a xlink:href="UtilsFactory_8cpp.html" target="_top" xlink:title=" ">
<polygon fill="white" stroke="#666666" points="704.75,-138 577.75,-138 577.75,-118 704.75,-118 704.75,-138"/>
<text xml:space="preserve" text-anchor="middle" x="641.25" y="-124.5" font-family="Helvetica,sans-Serif" font-size="10.00">src/Utils/UtilsFactory.cpp</text>
</a>
</g>
</g>
<!-- Node5&#45;&gt;Node6 -->
<g id="edge6_Node000005_Node000006" class="edge">
<title>Node5&#45;&gt;Node6</title>
<g id="a_edge6_Node000005_Node000006"><a xlink:title=" ">
<path fill="none" stroke="#63b8ff" d="M636.48,-168.31C637.77,-157.67 639.17,-146.13 640.12,-138.32"/>
<polygon fill="#63b8ff" stroke="#63b8ff" points="633.02,-167.84 635.29,-178.19 639.97,-168.68 633.02,-167.84"/>
</a>
</g>
</g>
<!-- Node7&#45;&gt;Node4 -->
<g id="edge8_Node000007_Node000004" class="edge">
<title>Node7&#45;&gt;Node4</title>
<g id="a_edge8_Node000007_Node000004"><a xlink:title=" ">
<path fill="none" stroke="#63b8ff" d="M349.25,-168.31C349.25,-160.12 349.25,-151.38 349.25,-144.22"/>
<polygon fill="#63b8ff" stroke="#63b8ff" points="345.75,-168.18 349.25,-178.18 352.75,-168.18 345.75,-168.18"/>
</a>
</g>
</g>
<!-- Node8 -->
<g id="Node000008" class="node">
<title>Node8</title>
<g id="a_Node000008"><a xlink:href="UnixPlatformInfo_8cpp.html" target="_top" xlink:title=" ">
<polygon fill="white" stroke="#666666" points="269.88,-144 158.62,-144 158.62,-112 269.88,-112 269.88,-144"/>
<text xml:space="preserve" text-anchor="start" x="166.62" y="-130.5" font-family="Helvetica,sans-Serif" font-size="10.00">src/Utils/Platform</text>
<text xml:space="preserve" text-anchor="middle" x="214.25" y="-118.5" font-family="Helvetica,sans-Serif" font-size="10.00">/UnixPlatformInfo.cpp</text>
</a>
</g>
</g>
<!-- Node7&#45;&gt;Node8 -->
<g id="edge9_Node000007_Node000008" class="edge">
<title>Node7&#45;&gt;Node8</title>
<g id="a_edge9_Node000007_Node000008"><a xlink:title=" ">
<path fill="none" stroke="#63b8ff" d="M307.26,-174.47C287.38,-164.75 264.03,-153.34 245.7,-144.38"/>
<polygon fill="#63b8ff" stroke="#63b8ff" points="305.72,-177.61 316.24,-178.86 308.79,-171.32 305.72,-177.61"/>
</a>
</g>
</g>
<!-- Node9&#45;&gt;Node4 -->
<g id="edge11_Node000009_Node000004" class="edge">
<title>Node9&#45;&gt;Node4</title>
<g id="a_edge11_Node000009_Node000004"><a xlink:title=" ">
<path fill="none" stroke="#63b8ff" d="M445.3,-174.61C424.77,-164.86 400.59,-153.38 381.64,-144.38"/>
<polygon fill="#63b8ff" stroke="#63b8ff" points="443.76,-177.75 454.29,-178.88 446.76,-171.43 443.76,-177.75"/>
</a>
</g>
</g>
<!-- Node10 -->
<g id="Node000010" class="node">
<title>Node10</title>
<g id="a_Node000010"><a xlink:href="WindowsPlatformInfo_8cpp.html" target="_top" xlink:title=" ">
<polygon fill="white" stroke="#666666" points="560,-144 428.5,-144 428.5,-112 560,-112 560,-144"/>
<text xml:space="preserve" text-anchor="start" x="436.5" y="-130.5" font-family="Helvetica,sans-Serif" font-size="10.00">src/Utils/Platform</text>
<text xml:space="preserve" text-anchor="middle" x="494.25" y="-118.5" font-family="Helvetica,sans-Serif" font-size="10.00">/WindowsPlatformInfo.cpp</text>
</a>
</g>
</g>
<!-- Node9&#45;&gt;Node10 -->
<g id="edge12_Node000009_Node000010" class="edge">
<title>Node9&#45;&gt;Node10</title>
<g id="a_edge12_Node000009_Node000010"><a xlink:title=" ">
<path fill="none" stroke="#63b8ff" d="M490.68,-168.31C491.42,-160.12 492.22,-151.38 492.87,-144.22"/>
<polygon fill="#63b8ff" stroke="#63b8ff" points="487.2,-167.91 489.78,-178.19 494.17,-168.54 487.2,-167.91"/>
</a>
</g>
</g>
<!-- Node11&#45;&gt;Node6 -->
<g id="edge25_Node000011_Node000006" class="edge">
<title>Node11&#45;&gt;Node6</title>
<g id="a_edge25_Node000011_Node000006"><a xlink:title=" ">
<path fill="none" stroke="#63b8ff" d="M767.2,-181.28C736.31,-168.46 691.01,-149.65 663.99,-138.44"/>
<polygon fill="#63b8ff" stroke="#63b8ff" points="765.49,-184.36 776.07,-184.96 768.18,-177.9 765.49,-184.36"/>
</a>
</g>
</g>
<!-- Node12 -->
<g id="Node000012" class="node">
<title>Node12</title>
<g id="a_Node000012"><a xlink:href="Application_8cpp.html" target="_top" xlink:title=" ">
<polygon fill="white" stroke="#666666" points="1130.62,-76 981.88,-76 981.88,-56 1130.62,-56 1130.62,-76"/>
<text xml:space="preserve" text-anchor="middle" x="1056.25" y="-62.5" font-family="Helvetica,sans-Serif" font-size="10.00">application/src/Application.cpp</text>
</a>
</g>
</g>
<!-- Node11&#45;&gt;Node12 -->
<g id="edge14_Node000011_Node000012" class="edge">
<title>Node11&#45;&gt;Node12</title>
<g id="a_edge14_Node000011_Node000012"><a xlink:title=" ">
<path fill="none" stroke="#63b8ff" d="M829.14,-180.56C882.03,-154.11 993.08,-98.59 1037.4,-76.43"/>
<polygon fill="#63b8ff" stroke="#63b8ff" points="827.81,-177.31 820.43,-184.91 830.94,-183.57 827.81,-177.31"/>
</a>
</g>
</g>
<!-- Node13 -->
<g id="Node000013" class="node">
<title>Node13</title>
<g id="a_Node000013"><a xlink:href="DotNameBotLib_8hpp.html" target="_top" xlink:title=" ">
<polygon fill="white" stroke="#666666" points="1116,-144 996.5,-144 996.5,-112 1116,-112 1116,-144"/>
<text xml:space="preserve" text-anchor="start" x="1004.5" y="-130.5" font-family="Helvetica,sans-Serif" font-size="10.00">include/DotNameBotLib</text>
<text xml:space="preserve" text-anchor="middle" x="1056.25" y="-118.5" font-family="Helvetica,sans-Serif" font-size="10.00">/DotNameBotLib.hpp</text>
</a>
</g>
</g>
<!-- Node11&#45;&gt;Node13 -->
<g id="edge15_Node000011_Node000013" class="edge">
<title>Node11&#45;&gt;Node13</title>
<g id="a_edge15_Node000011_Node000013"><a xlink:title=" ">
<path fill="none" stroke="#63b8ff" d="M847.95,-182.7C889.91,-171.88 951.18,-156.09 996.41,-144.43"/>
<polygon fill="#63b8ff" stroke="#63b8ff" points="847.2,-179.28 838.39,-185.17 848.95,-186.06 847.2,-179.28"/>
</a>
</g>
</g>
<!-- Node15 -->
<g id="Node000015" class="node">
<title>Node15</title>
<g id="a_Node000015"><a xlink:href="DiscordBot_8hpp.html" target="_top" xlink:title=" ">
<polygon fill="white" stroke="#666666" points="780.12,-76 628.38,-76 628.38,-56 780.12,-56 780.12,-76"/>
<text xml:space="preserve" text-anchor="middle" x="704.25" y="-62.5" font-family="Helvetica,sans-Serif" font-size="10.00">src/DiscordBot/DiscordBot.hpp</text>
</a>
</g>
</g>
<!-- Node11&#45;&gt;Node15 -->
<g id="edge18_Node000011_Node000015" class="edge">
<title>Node11&#45;&gt;Node15</title>
<g id="a_edge18_Node000011_Node000015"><a xlink:title=" ">
<path fill="none" stroke="#63b8ff" d="M782.47,-177.84C773,-168.29 761.45,-155.95 752.25,-144 734.56,-121.04 717.5,-91.3 709.31,-76.4"/>
<polygon fill="#63b8ff" stroke="#63b8ff" points="779.8,-180.12 789.37,-184.67 784.73,-175.15 779.8,-180.12"/>
</a>
</g>
</g>
<!-- Node17 -->
<g id="Node000017" class="node">
<title>Node17</title>
<g id="a_Node000017"><a xlink:href="RssManager_8hpp.html" target="_top" xlink:title=" ">
<polygon fill="white" stroke="#666666" points="889.12,-138 761.38,-138 761.38,-118 889.12,-118 889.12,-138"/>
<text xml:space="preserve" text-anchor="middle" x="825.25" y="-124.5" font-family="Helvetica,sans-Serif" font-size="10.00">src/Rss/RssManager.hpp</text>
</a>
</g>
</g>
<!-- Node11&#45;&gt;Node17 -->
<g id="edge21_Node000011_Node000017" class="edge">
<title>Node11&#45;&gt;Node17</title>
<g id="a_edge21_Node000011_Node000017"><a xlink:title=" ">
<path fill="none" stroke="#63b8ff" d="M807.81,-175.03C812.41,-162.89 818.08,-147.94 821.67,-138.44"/>
<polygon fill="#63b8ff" stroke="#63b8ff" points="804.64,-173.54 804.37,-184.13 811.18,-176.02 804.64,-173.54"/>
</a>
</g>
</g>
<!-- Node13&#45;&gt;Node12 -->
<g id="edge16_Node000013_Node000012" class="edge">
<title>Node13&#45;&gt;Node12</title>
<g id="a_edge16_Node000013_Node000012"><a xlink:title=" ">
<path fill="none" stroke="#63b8ff" d="M1056.25,-100.08C1056.25,-91.6 1056.25,-82.8 1056.25,-76.41"/>
<polygon fill="#63b8ff" stroke="#63b8ff" points="1052.75,-100.03 1056.25,-110.03 1059.75,-100.03 1052.75,-100.03"/>
</a>
</g>
</g>
<!-- Node14 -->
<g id="Node000014" class="node">
<title>Node14</title>
<g id="a_Node000014"><a xlink:href="DotNameBotLib_8cpp.html" target="_top" xlink:title=" ">
<polygon fill="white" stroke="#666666" points="893.75,-20 772.75,-20 772.75,0 893.75,0 893.75,-20"/>
<text xml:space="preserve" text-anchor="middle" x="833.25" y="-6.5" font-family="Helvetica,sans-Serif" font-size="10.00">src/DotNameBotLib.cpp</text>
</a>
</g>
</g>
<!-- Node13&#45;&gt;Node14 -->
<g id="edge17_Node000013_Node000014" class="edge">
<title>Node13&#45;&gt;Node14</title>
<g id="a_edge17_Node000013_Node000014"><a xlink:title=" ">
<path fill="none" stroke="#63b8ff" d="M1107.07,-106.62C1132.89,-93.34 1155.66,-75 1139.25,-56 1108.23,-20.09 974.18,-12.31 894.15,-10.94"/>
<polygon fill="#63b8ff" stroke="#63b8ff" points="1105.56,-103.47 1098.08,-110.97 1108.61,-109.77 1105.56,-103.47"/>
</a>
</g>
</g>
<!-- Node15&#45;&gt;Node14 -->
<g id="edge20_Node000015_Node000014" class="edge">
<title>Node15&#45;&gt;Node14</title>
<g id="a_edge20_Node000015_Node000014"><a xlink:title=" ">
<path fill="none" stroke="#63b8ff" d="M737.05,-51.27C760.06,-41.64 790.23,-29.01 810.6,-20.48"/>
<polygon fill="#63b8ff" stroke="#63b8ff" points="735.99,-47.92 728.12,-55.01 738.69,-54.38 735.99,-47.92"/>
</a>
</g>
</g>
<!-- Node16 -->
<g id="Node000016" class="node">
<title>Node16</title>
<g id="a_Node000016"><a xlink:href="DiscordBot_8cpp.html" target="_top" xlink:title=" ">
<polygon fill="white" stroke="#666666" points="755.12,-20 603.38,-20 603.38,0 755.12,0 755.12,-20"/>
<text xml:space="preserve" text-anchor="middle" x="679.25" y="-6.5" font-family="Helvetica,sans-Serif" font-size="10.00">src/DiscordBot/DiscordBot.cpp</text>
</a>
</g>
</g>
<!-- Node15&#45;&gt;Node16 -->
<g id="edge19_Node000015_Node000016" class="edge">
<title>Node15&#45;&gt;Node16</title>
<g id="a_edge19_Node000015_Node000016"><a xlink:title=" ">
<path fill="none" stroke="#63b8ff" d="M695.13,-45.29C691.17,-36.75 686.73,-27.16 683.55,-20.3"/>
<polygon fill="#63b8ff" stroke="#63b8ff" points="691.88,-46.62 699.26,-54.22 698.23,-43.68 691.88,-46.62"/>
</a>
</g>
</g>
<!-- Node17&#45;&gt;Node14 -->
<g id="edge23_Node000017_Node000014" class="edge">
<title>Node17&#45;&gt;Node14</title>
<g id="a_edge23_Node000017_Node000014"><a xlink:title=" ">
<path fill="none" stroke="#63b8ff" d="M825.26,-106.41C825.41,-92.22 825.89,-72.94 827.25,-56 828.25,-43.59 830.3,-29.36 831.72,-20.28"/>
<polygon fill="#63b8ff" stroke="#63b8ff" points="821.76,-106.26 825.21,-116.28 828.76,-106.3 821.76,-106.26"/>
</a>
</g>
</g>
<!-- Node17&#45;&gt;Node15 -->
<g id="edge22_Node000017_Node000015" class="edge">
<title>Node17&#45;&gt;Node15</title>
<g id="a_edge22_Node000017_Node000015"><a xlink:title=" ">
<path fill="none" stroke="#63b8ff" d="M796.25,-112.62C773.53,-101.35 742.6,-86.01 723.02,-76.31"/>
<polygon fill="#63b8ff" stroke="#63b8ff" points="794.47,-115.65 804.99,-116.95 797.58,-109.37 794.47,-115.65"/>
</a>
</g>
</g>
<!-- Node18 -->
<g id="Node000018" class="node">
<title>Node18</title>
<g id="a_Node000018"><a xlink:href="RssManager_8cpp.html" target="_top" xlink:title=" ">
<polygon fill="white" stroke="#666666" points="964.12,-76 836.38,-76 836.38,-56 964.12,-56 964.12,-76"/>
<text xml:space="preserve" text-anchor="middle" x="900.25" y="-62.5" font-family="Helvetica,sans-Serif" font-size="10.00">src/Rss/RssManager.cpp</text>
</a>
</g>
</g>
<!-- Node17&#45;&gt;Node18 -->
<g id="edge24_Node000017_Node000018" class="edge">
<title>Node17&#45;&gt;Node18</title>
<g id="a_edge24_Node000017_Node000018"><a xlink:title=" ">
<path fill="none" stroke="#63b8ff" d="M845.82,-110.55C859.69,-99.45 877.46,-85.23 888.86,-76.11"/>
<polygon fill="#63b8ff" stroke="#63b8ff" points="843.77,-107.7 838.15,-116.68 848.15,-113.17 843.77,-107.7"/>
</a>
</g>
</g>
</g>
</svg>
