<?xml version="1.0" encoding="UTF-8" standalone="no"?>
<!DOCTYPE svg PUBLIC "-//W3C//DTD SVG 1.1//EN"
 "http://www.w3.org/Graphics/SVG/1.1/DTD/svg11.dtd">
<!-- Generated by graphviz version 13.1.2 (20250808.2320)
 -->
<!-- Title: src/Rss/IRssService.hpp Pages: 1 -->
<svg width="611pt" height="152pt"
 viewBox="0.00 0.00 611.00 152.00" xmlns="http://www.w3.org/2000/svg" xmlns:xlink="http://www.w3.org/1999/xlink">
<g id="graph0" class="graph" transform="scale(1 1) rotate(0) translate(4 148)">
<title>src/Rss/IRssService.hpp</title>
<!-- Node1 -->
<g id="Node000001" class="node">
<title>Node1</title>
<g id="a_Node000001"><a xlink:title=" ">
<polygon fill="#999999" stroke="#666666" points="291.5,-144 165.25,-144 165.25,-124 291.5,-124 291.5,-144"/>
<text xml:space="preserve" text-anchor="middle" x="228.38" y="-130.5" font-family="Helvetica,sans-Serif" font-size="10.00">src/Rss/IRssService.hpp</text>
</a>
</g>
</g>
<!-- Node2 -->
<g id="Node000002" class="node">
<title>Node2</title>
<g id="a_Node000002"><a xlink:href="DotNameBotLib_8hpp.html" target="_top" xlink:title=" ">
<polygon fill="white" stroke="#666666" points="134.12,-88 14.62,-88 14.62,-56 134.12,-56 134.12,-88"/>
<text xml:space="preserve" text-anchor="start" x="22.62" y="-74.5" font-family="Helvetica,sans-Serif" font-size="10.00">include/DotNameBotLib</text>
<text xml:space="preserve" text-anchor="middle" x="74.38" y="-62.5" font-family="Helvetica,sans-Serif" font-size="10.00">/DotNameBotLib.hpp</text>
</a>
</g>
</g>
<!-- Node1&#45;&gt;Node2 -->
<g id="edge1_Node000001_Node000002" class="edge">
<title>Node1&#45;&gt;Node2</title>
<g id="a_edge1_Node000001_Node000002"><a xlink:title=" ">
<path fill="none" stroke="#63b8ff" d="M193.73,-119.5C170.11,-110.3 138.77,-98.09 114.13,-88.49"/>
<polygon fill="#63b8ff" stroke="#63b8ff" points="192.31,-122.71 202.9,-123.08 194.86,-116.18 192.31,-122.71"/>
</a>
</g>
</g>
<!-- Node5 -->
<g id="Node000005" class="node">
<title>Node5</title>
<g id="a_Node000005"><a xlink:href="DiscordBot_8hpp.html" target="_top" xlink:title=" ">
<polygon fill="white" stroke="#666666" points="304.25,-82 152.5,-82 152.5,-62 304.25,-62 304.25,-82"/>
<text xml:space="preserve" text-anchor="middle" x="228.38" y="-68.5" font-family="Helvetica,sans-Serif" font-size="10.00">src/DiscordBot/DiscordBot.hpp</text>
</a>
</g>
</g>
<!-- Node1&#45;&gt;Node5 -->
<g id="edge4_Node000001_Node000005" class="edge">
<title>Node1&#45;&gt;Node5</title>
<g id="a_edge4_Node000001_Node000005"><a xlink:title=" ">
<path fill="none" stroke="#63b8ff" d="M228.38,-112.25C228.38,-101.97 228.38,-90.09 228.38,-82.11"/>
<polygon fill="#63b8ff" stroke="#63b8ff" points="224.88,-112.11 228.38,-122.11 231.88,-112.11 224.88,-112.11"/>
</a>
</g>
</g>
<!-- Node7 -->
<g id="Node000007" class="node">
<title>Node7</title>
<g id="a_Node000007"><a xlink:href="RssManager_8hpp.html" target="_top" xlink:title=" ">
<polygon fill="white" stroke="#666666" points="450.25,-82 322.5,-82 322.5,-62 450.25,-62 450.25,-82"/>
<text xml:space="preserve" text-anchor="middle" x="386.38" y="-68.5" font-family="Helvetica,sans-Serif" font-size="10.00">src/Rss/RssManager.hpp</text>
</a>
</g>
</g>
<!-- Node1&#45;&gt;Node7 -->
<g id="edge7_Node000001_Node000007" class="edge">
<title>Node1&#45;&gt;Node7</title>
<g id="a_edge7_Node000001_Node000007"><a xlink:title=" ">
<path fill="none" stroke="#63b8ff" d="M263.82,-119.54C293.58,-108.24 335.32,-92.39 361.6,-82.41"/>
<polygon fill="#63b8ff" stroke="#63b8ff" points="262.58,-116.27 254.48,-123.09 265.07,-122.81 262.58,-116.27"/>
</a>
</g>
</g>
<!-- Node3 -->
<g id="Node000003" class="node">
<title>Node3</title>
<g id="a_Node000003"><a xlink:href="Application_8cpp.html" target="_top" xlink:title=" ">
<polygon fill="white" stroke="#666666" points="148.75,-20 0,-20 0,0 148.75,0 148.75,-20"/>
<text xml:space="preserve" text-anchor="middle" x="74.38" y="-6.5" font-family="Helvetica,sans-Serif" font-size="10.00">application/src/Application.cpp</text>
</a>
</g>
</g>
<!-- Node2&#45;&gt;Node3 -->
<g id="edge2_Node000002_Node000003" class="edge">
<title>Node2&#45;&gt;Node3</title>
<g id="a_edge2_Node000002_Node000003"><a xlink:title=" ">
<path fill="none" stroke="#63b8ff" d="M74.38,-44.08C74.38,-35.6 74.38,-26.8 74.38,-20.41"/>
<polygon fill="#63b8ff" stroke="#63b8ff" points="70.88,-44.03 74.38,-54.03 77.88,-44.03 70.88,-44.03"/>
</a>
</g>
</g>
<!-- Node4 -->
<g id="Node000004" class="node">
<title>Node4</title>
<g id="a_Node000004"><a xlink:href="DotNameBotLib_8cpp.html" target="_top" xlink:title=" ">
<polygon fill="white" stroke="#666666" points="287.88,-20 166.88,-20 166.88,0 287.88,0 287.88,-20"/>
<text xml:space="preserve" text-anchor="middle" x="227.38" y="-6.5" font-family="Helvetica,sans-Serif" font-size="10.00">src/DotNameBotLib.cpp</text>
</a>
</g>
</g>
<!-- Node2&#45;&gt;Node4 -->
<g id="edge3_Node000002_Node000004" class="edge">
<title>Node2&#45;&gt;Node4</title>
<g id="a_edge3_Node000002_Node000004"><a xlink:title=" ">
<path fill="none" stroke="#63b8ff" d="M124.42,-51.37C150.95,-40.97 182.3,-28.67 203.38,-20.41"/>
<polygon fill="#63b8ff" stroke="#63b8ff" points="123.22,-48.09 115.19,-55 125.77,-54.6 123.22,-48.09"/>
</a>
</g>
</g>
<!-- Node5&#45;&gt;Node4 -->
<g id="edge6_Node000005_Node000004" class="edge">
<title>Node5&#45;&gt;Node4</title>
<g id="a_edge6_Node000005_Node000004"><a xlink:title=" ">
<path fill="none" stroke="#63b8ff" d="M228.03,-50.25C227.86,-39.97 227.66,-28.09 227.53,-20.11"/>
<polygon fill="#63b8ff" stroke="#63b8ff" points="224.53,-50.17 228.19,-60.11 231.53,-50.05 224.53,-50.17"/>
</a>
</g>
</g>
<!-- Node6 -->
<g id="Node000006" class="node">
<title>Node6</title>
<g id="a_Node000006"><a xlink:href="DiscordBot_8cpp.html" target="_top" xlink:title=" ">
<polygon fill="white" stroke="#666666" points="457.25,-20 305.5,-20 305.5,0 457.25,0 457.25,-20"/>
<text xml:space="preserve" text-anchor="middle" x="381.38" y="-6.5" font-family="Helvetica,sans-Serif" font-size="10.00">src/DiscordBot/DiscordBot.cpp</text>
</a>
</g>
</g>
<!-- Node5&#45;&gt;Node6 -->
<g id="edge5_Node000005_Node000006" class="edge">
<title>Node5&#45;&gt;Node6</title>
<g id="a_edge5_Node000005_Node000006"><a xlink:title=" ">
<path fill="none" stroke="#63b8ff" d="M262.7,-57.54C291.51,-46.24 331.94,-30.39 357.38,-20.41"/>
<polygon fill="#63b8ff" stroke="#63b8ff" points="261.72,-54.16 253.69,-61.07 264.28,-60.68 261.72,-54.16"/>
</a>
</g>
</g>
<!-- Node7&#45;&gt;Node4 -->
<g id="edge9_Node000007_Node000004" class="edge">
<title>Node7&#45;&gt;Node4</title>
<g id="a_edge9_Node000007_Node000004"><a xlink:title=" ">
<path fill="none" stroke="#63b8ff" d="M351.1,-57.69C321.13,-46.38 278.87,-30.43 252.31,-20.41"/>
<polygon fill="#63b8ff" stroke="#63b8ff" points="349.52,-60.83 360.12,-61.09 351.99,-54.29 349.52,-60.83"/>
</a>
</g>
</g>
<!-- Node7&#45;&gt;Node6 -->
<g id="edge8_Node000007_Node000006" class="edge">
<title>Node7&#45;&gt;Node6</title>
<g id="a_edge8_Node000007_Node000006"><a xlink:title=" ">
<path fill="none" stroke="#63b8ff" d="M384.65,-50.25C383.79,-39.97 382.8,-28.09 382.13,-20.11"/>
<polygon fill="#63b8ff" stroke="#63b8ff" points="381.15,-50.44 385.47,-60.12 388.13,-49.86 381.15,-50.44"/>
</a>
</g>
</g>
<!-- Node8 -->
<g id="Node000008" class="node">
<title>Node8</title>
<g id="a_Node000008"><a xlink:href="RssManager_8cpp.html" target="_top" xlink:title=" ">
<polygon fill="white" stroke="#666666" points="603.25,-20 475.5,-20 475.5,0 603.25,0 603.25,-20"/>
<text xml:space="preserve" text-anchor="middle" x="539.38" y="-6.5" font-family="Helvetica,sans-Serif" font-size="10.00">src/Rss/RssManager.cpp</text>
</a>
</g>
</g>
<!-- Node7&#45;&gt;Node8 -->
<g id="edge10_Node000007_Node000008" class="edge">
<title>Node7&#45;&gt;Node8</title>
<g id="a_edge10_Node000007_Node000008"><a xlink:title=" ">
<path fill="none" stroke="#63b8ff" d="M420.7,-57.54C449.51,-46.24 489.94,-30.39 515.38,-20.41"/>
<polygon fill="#63b8ff" stroke="#63b8ff" points="419.72,-54.16 411.69,-61.07 422.28,-60.68 419.72,-54.16"/>
</a>
</g>
</g>
</g>
</svg>
