<?xml version="1.0" encoding="UTF-8" standalone="no"?>
<!DOCTYPE svg PUBLIC "-//W3C//DTD SVG 1.1//EN"
 "http://www.w3.org/Graphics/SVG/1.1/DTD/svg11.dtd">
<!-- Generated by graphviz version 13.1.2 (20250808.2320)
 -->
<!-- Title: src/Rss/IRssService.hpp Pages: 1 -->
<svg width="524pt" height="208pt"
 viewBox="0.00 0.00 524.00 208.00" xmlns="http://www.w3.org/2000/svg" xmlns:xlink="http://www.w3.org/1999/xlink">
<g id="graph0" class="graph" transform="scale(1 1) rotate(0) translate(4 204)">
<title>src/Rss/IRssService.hpp</title>
<!-- Node1 -->
<g id="Node000001" class="node">
<title>Node1</title>
<g id="a_Node000001"><a xlink:title=" ">
<polygon fill="#999999" stroke="#666666" points="345.45,-200 219.2,-200 219.2,-180 345.45,-180 345.45,-200"/>
<text xml:space="preserve" text-anchor="middle" x="282.33" y="-186.5" font-family="Helvetica,sans-Serif" font-size="10.00">src/Rss/IRssService.hpp</text>
</a>
</g>
</g>
<!-- Node2 -->
<g id="Node000002" class="node">
<title>Node2</title>
<g id="a_Node000002"><a xlink:href="DotNameBotLib_8hpp.html" target="_top" xlink:title=" ">
<polygon fill="white" stroke="#666666" points="148.08,-144 28.58,-144 28.58,-112 148.08,-112 148.08,-144"/>
<text xml:space="preserve" text-anchor="start" x="36.58" y="-130.5" font-family="Helvetica,sans-Serif" font-size="10.00">include/DotNameBotLib</text>
<text xml:space="preserve" text-anchor="middle" x="88.33" y="-118.5" font-family="Helvetica,sans-Serif" font-size="10.00">/DotNameBotLib.hpp</text>
</a>
</g>
</g>
<!-- Node1&#45;&gt;Node2 -->
<g id="edge1_Node000001_Node000002" class="edge">
<title>Node1&#45;&gt;Node2</title>
<g id="a_edge1_Node000001_Node000002"><a xlink:title=" ">
<path fill="none" stroke="#63b8ff" d="M241.08,-176.24C211.08,-166.96 170.29,-154.35 138.41,-144.49"/>
<polygon fill="#63b8ff" stroke="#63b8ff" points="239.98,-179.57 250.57,-179.18 242.05,-172.88 239.98,-179.57"/>
</a>
</g>
</g>
<!-- Node5 -->
<g id="Node000005" class="node">
<title>Node5</title>
<g id="a_Node000005"><a xlink:href="DiscordBot_8hpp.html" target="_top" xlink:title=" ">
<polygon fill="white" stroke="#666666" points="516.2,-76 364.45,-76 364.45,-56 516.2,-56 516.2,-76"/>
<text xml:space="preserve" text-anchor="middle" x="440.33" y="-62.5" font-family="Helvetica,sans-Serif" font-size="10.00">src/DiscordBot/DiscordBot.hpp</text>
</a>
</g>
</g>
<!-- Node1&#45;&gt;Node5 -->
<g id="edge4_Node000001_Node000005" class="edge">
<title>Node1&#45;&gt;Node5</title>
<g id="a_edge4_Node000001_Node000005"><a xlink:title=" ">
<path fill="none" stroke="#63b8ff" d="M309.07,-174.11C323.23,-165.84 340.67,-155.01 355.33,-144 384.94,-121.76 416.39,-91.19 431.38,-76.13"/>
<polygon fill="#63b8ff" stroke="#63b8ff" points="307.66,-170.88 300.74,-178.9 311.15,-176.95 307.66,-170.88"/>
</a>
</g>
</g>
<!-- Node7 -->
<g id="Node000007" class="node">
<title>Node7</title>
<g id="a_Node000007"><a xlink:href="RssManager_8hpp.html" target="_top" xlink:title=" ">
<polygon fill="white" stroke="#666666" points="346.2,-138 218.45,-138 218.45,-118 346.2,-118 346.2,-138"/>
<text xml:space="preserve" text-anchor="middle" x="282.33" y="-124.5" font-family="Helvetica,sans-Serif" font-size="10.00">src/Rss/RssManager.hpp</text>
</a>
</g>
</g>
<!-- Node1&#45;&gt;Node7 -->
<g id="edge7_Node000001_Node000007" class="edge">
<title>Node1&#45;&gt;Node7</title>
<g id="a_edge7_Node000001_Node000007"><a xlink:title=" ">
<path fill="none" stroke="#63b8ff" d="M282.33,-168.25C282.33,-157.97 282.33,-146.09 282.33,-138.11"/>
<polygon fill="#63b8ff" stroke="#63b8ff" points="278.83,-168.11 282.33,-178.11 285.83,-168.11 278.83,-168.11"/>
</a>
</g>
</g>
<!-- Node3 -->
<g id="Node000003" class="node">
<title>Node3</title>
<g id="a_Node000003"><a xlink:href="Application_8cpp.html" target="_top" xlink:title=" ">
<polygon fill="white" stroke="#666666" points="162.7,-76 13.95,-76 13.95,-56 162.7,-56 162.7,-76"/>
<text xml:space="preserve" text-anchor="middle" x="88.33" y="-62.5" font-family="Helvetica,sans-Serif" font-size="10.00">application/src/Application.cpp</text>
</a>
</g>
</g>
<!-- Node2&#45;&gt;Node3 -->
<g id="edge2_Node000002_Node000003" class="edge">
<title>Node2&#45;&gt;Node3</title>
<g id="a_edge2_Node000002_Node000003"><a xlink:title=" ">
<path fill="none" stroke="#63b8ff" d="M88.33,-100.08C88.33,-91.6 88.33,-82.8 88.33,-76.41"/>
<polygon fill="#63b8ff" stroke="#63b8ff" points="84.83,-100.03 88.33,-110.03 91.83,-100.03 84.83,-100.03"/>
</a>
</g>
</g>
<!-- Node4 -->
<g id="Node000004" class="node">
<title>Node4</title>
<g id="a_Node000004"><a xlink:href="DotNameBotLib_8cpp.html" target="_top" xlink:title=" ">
<polygon fill="white" stroke="#666666" points="250.83,-20 129.83,-20 129.83,0 250.83,0 250.83,-20"/>
<text xml:space="preserve" text-anchor="middle" x="190.33" y="-6.5" font-family="Helvetica,sans-Serif" font-size="10.00">src/DotNameBotLib.cpp</text>
</a>
</g>
</g>
<!-- Node2&#45;&gt;Node4 -->
<g id="edge3_Node000002_Node000004" class="edge">
<title>Node2&#45;&gt;Node4</title>
<g id="a_edge3_Node000002_Node000004"><a xlink:title=" ">
<path fill="none" stroke="#63b8ff" d="M37.11,-106.61C11.96,-93.57 -9.98,-75.48 5.33,-56 20.7,-36.44 81.93,-24.33 129.8,-17.66"/>
<polygon fill="#63b8ff" stroke="#63b8ff" points="35.33,-109.64 45.85,-110.87 38.39,-103.35 35.33,-109.64"/>
</a>
</g>
</g>
<!-- Node5&#45;&gt;Node4 -->
<g id="edge6_Node000005_Node000004" class="edge">
<title>Node5&#45;&gt;Node4</title>
<g id="a_edge6_Node000005_Node000004"><a xlink:title=" ">
<path fill="none" stroke="#63b8ff" d="M385.35,-53.13C339.89,-43.31 276.18,-29.54 234.11,-20.46"/>
<polygon fill="#63b8ff" stroke="#63b8ff" points="384.5,-56.52 395.01,-55.21 385.98,-49.68 384.5,-56.52"/>
</a>
</g>
</g>
<!-- Node6 -->
<g id="Node000006" class="node">
<title>Node6</title>
<g id="a_Node000006"><a xlink:href="DiscordBot_8cpp.html" target="_top" xlink:title=" ">
<polygon fill="white" stroke="#666666" points="516.2,-20 364.45,-20 364.45,0 516.2,0 516.2,-20"/>
<text xml:space="preserve" text-anchor="middle" x="440.33" y="-6.5" font-family="Helvetica,sans-Serif" font-size="10.00">src/DiscordBot/DiscordBot.cpp</text>
</a>
</g>
</g>
<!-- Node5&#45;&gt;Node6 -->
<g id="edge5_Node000005_Node000006" class="edge">
<title>Node5&#45;&gt;Node6</title>
<g id="a_edge5_Node000005_Node000006"><a xlink:title=" ">
<path fill="none" stroke="#63b8ff" d="M440.33,-44.13C440.33,-35.9 440.33,-26.85 440.33,-20.3"/>
<polygon fill="#63b8ff" stroke="#63b8ff" points="436.83,-44.08 440.33,-54.08 443.83,-44.08 436.83,-44.08"/>
</a>
</g>
</g>
<!-- Node7&#45;&gt;Node4 -->
<g id="edge9_Node000007_Node000004" class="edge">
<title>Node7&#45;&gt;Node4</title>
<g id="a_edge9_Node000007_Node000004"><a xlink:title=" ">
<path fill="none" stroke="#63b8ff" d="M251.96,-112.1C237.16,-103.43 220.24,-91.2 209.33,-76 196.98,-58.81 192.61,-33.66 191.09,-20.24"/>
<polygon fill="#63b8ff" stroke="#63b8ff" points="250,-115.02 260.45,-116.79 253.39,-108.89 250,-115.02"/>
</a>
</g>
</g>
<!-- Node7&#45;&gt;Node5 -->
<g id="edge8_Node000007_Node000005" class="edge">
<title>Node7&#45;&gt;Node5</title>
<g id="a_edge8_Node000007_Node000005"><a xlink:title=" ">
<path fill="none" stroke="#63b8ff" d="M317.77,-113.54C347.53,-102.24 389.27,-86.39 415.55,-76.41"/>
<polygon fill="#63b8ff" stroke="#63b8ff" points="316.54,-110.27 308.43,-117.09 319.02,-116.81 316.54,-110.27"/>
</a>
</g>
</g>
<!-- Node8 -->
<g id="Node000008" class="node">
<title>Node8</title>
<g id="a_Node000008"><a xlink:href="RssManager_8cpp.html" target="_top" xlink:title=" ">
<polygon fill="white" stroke="#666666" points="346.2,-76 218.45,-76 218.45,-56 346.2,-56 346.2,-76"/>
<text xml:space="preserve" text-anchor="middle" x="282.33" y="-62.5" font-family="Helvetica,sans-Serif" font-size="10.00">src/Rss/RssManager.cpp</text>
</a>
</g>
</g>
<!-- Node7&#45;&gt;Node8 -->
<g id="edge10_Node000007_Node000008" class="edge">
<title>Node7&#45;&gt;Node8</title>
<g id="a_edge10_Node000007_Node000008"><a xlink:title=" ">
<path fill="none" stroke="#63b8ff" d="M282.33,-106.25C282.33,-95.97 282.33,-84.09 282.33,-76.11"/>
<polygon fill="#63b8ff" stroke="#63b8ff" points="278.83,-106.11 282.33,-116.11 285.83,-106.11 278.83,-106.11"/>
</a>
</g>
</g>
</g>
</svg>
