<?xml version="1.0" encoding="UTF-8" standalone="no"?>
<!DOCTYPE svg PUBLIC "-//W3C//DTD SVG 1.1//EN"
 "http://www.w3.org/Graphics/SVG/1.1/DTD/svg11.dtd">
<!-- Generated by graphviz version 13.1.2 (20250808.2320)
 -->
<!-- Title: src/Utils/String/IStringFormatter.hpp Pages: 1 -->
<svg width="836pt" height="220pt"
 viewBox="0.00 0.00 836.00 220.00" xmlns="http://www.w3.org/2000/svg" xmlns:xlink="http://www.w3.org/1999/xlink">
<g id="graph0" class="graph" transform="scale(1 1) rotate(0) translate(4 216)">
<title>src/Utils/String/IStringFormatter.hpp</title>
<!-- Node1 -->
<g id="Node000001" class="node">
<title>Node1</title>
<g id="a_Node000001"><a xlink:title=" ">
<polygon fill="#999999" stroke="#666666" points="391.62,-212 278.88,-212 278.88,-180 391.62,-180 391.62,-212"/>
<text xml:space="preserve" text-anchor="start" x="286.88" y="-198.5" font-family="Helvetica,sans-Serif" font-size="10.00">src/Utils/String/IString</text>
<text xml:space="preserve" text-anchor="middle" x="335.25" y="-186.5" font-family="Helvetica,sans-Serif" font-size="10.00">Formatter.hpp</text>
</a>
</g>
</g>
<!-- Node2 -->
<g id="Node000002" class="node">
<title>Node2</title>
<g id="a_Node000002"><a xlink:href="StringFormatter_8hpp.html" target="_top" xlink:title=" ">
<polygon fill="white" stroke="#666666" points="337.5,-144 167,-144 167,-124 337.5,-124 337.5,-144"/>
<text xml:space="preserve" text-anchor="middle" x="252.25" y="-130.5" font-family="Helvetica,sans-Serif" font-size="10.00">src/Utils/String/StringFormatter.hpp</text>
</a>
</g>
</g>
<!-- Node1&#45;&gt;Node2 -->
<g id="edge1_Node000001_Node000002" class="edge">
<title>Node1&#45;&gt;Node2</title>
<g id="a_edge1_Node000001_Node000002"><a xlink:title=" ">
<path fill="none" stroke="#63b8ff" d="M304.8,-172.99C291.17,-163.14 275.84,-152.05 265.26,-144.41"/>
<polygon fill="#63b8ff" stroke="#63b8ff" points="302.49,-175.64 312.65,-178.66 306.6,-169.97 302.49,-175.64"/>
</a>
</g>
</g>
<!-- Node5 -->
<g id="Node000005" class="node">
<title>Node5</title>
<g id="a_Node000005"><a xlink:href="UtilsFactory_8hpp.html" target="_top" xlink:title=" ">
<polygon fill="white" stroke="#666666" points="550.75,-144 423.75,-144 423.75,-124 550.75,-124 550.75,-144"/>
<text xml:space="preserve" text-anchor="middle" x="487.25" y="-130.5" font-family="Helvetica,sans-Serif" font-size="10.00">src/Utils/UtilsFactory.hpp</text>
</a>
</g>
</g>
<!-- Node1&#45;&gt;Node5 -->
<g id="edge4_Node000001_Node000005" class="edge">
<title>Node1&#45;&gt;Node5</title>
<g id="a_edge4_Node000001_Node000005"><a xlink:title=" ">
<path fill="none" stroke="#63b8ff" d="M384.97,-175.37C411.32,-164.97 442.47,-152.67 463.42,-144.41"/>
<polygon fill="#63b8ff" stroke="#63b8ff" points="383.82,-172.07 375.8,-178.99 386.39,-178.58 383.82,-172.07"/>
</a>
</g>
</g>
<!-- Node3 -->
<g id="Node000003" class="node">
<title>Node3</title>
<g id="a_Node000003"><a xlink:href="StringFormatter_8cpp.html" target="_top" xlink:title=" ">
<polygon fill="white" stroke="#666666" points="170.5,-82 0,-82 0,-62 170.5,-62 170.5,-82"/>
<text xml:space="preserve" text-anchor="middle" x="85.25" y="-68.5" font-family="Helvetica,sans-Serif" font-size="10.00">src/Utils/String/StringFormatter.cpp</text>
</a>
</g>
</g>
<!-- Node2&#45;&gt;Node3 -->
<g id="edge2_Node000002_Node000003" class="edge">
<title>Node2&#45;&gt;Node3</title>
<g id="a_edge2_Node000002_Node000003"><a xlink:title=" ">
<path fill="none" stroke="#63b8ff" d="M215.61,-119.84C184.11,-108.52 139.45,-92.47 111.44,-82.41"/>
<polygon fill="#63b8ff" stroke="#63b8ff" points="214.14,-123.03 224.73,-123.11 216.5,-116.44 214.14,-123.03"/>
</a>
</g>
</g>
<!-- Node4 -->
<g id="Node000004" class="node">
<title>Node4</title>
<g id="a_Node000004"><a xlink:href="UtilsFactory_8cpp.html" target="_top" xlink:title=" ">
<polygon fill="white" stroke="#666666" points="315.75,-82 188.75,-82 188.75,-62 315.75,-62 315.75,-82"/>
<text xml:space="preserve" text-anchor="middle" x="252.25" y="-68.5" font-family="Helvetica,sans-Serif" font-size="10.00">src/Utils/UtilsFactory.cpp</text>
</a>
</g>
</g>
<!-- Node2&#45;&gt;Node4 -->
<g id="edge3_Node000002_Node000004" class="edge">
<title>Node2&#45;&gt;Node4</title>
<g id="a_edge3_Node000002_Node000004"><a xlink:title=" ">
<path fill="none" stroke="#63b8ff" d="M252.25,-112.25C252.25,-101.97 252.25,-90.09 252.25,-82.11"/>
<polygon fill="#63b8ff" stroke="#63b8ff" points="248.75,-112.11 252.25,-122.11 255.75,-112.11 248.75,-112.11"/>
</a>
</g>
</g>
<!-- Node5&#45;&gt;Node4 -->
<g id="edge16_Node000005_Node000004" class="edge">
<title>Node5&#45;&gt;Node4</title>
<g id="a_edge16_Node000005_Node000004"><a xlink:title=" ">
<path fill="none" stroke="#63b8ff" d="M439.19,-120.73C394.83,-109.4 329.9,-92.82 289.4,-82.48"/>
<polygon fill="#63b8ff" stroke="#63b8ff" points="438.25,-124.1 448.81,-123.18 439.98,-117.32 438.25,-124.1"/>
</a>
</g>
</g>
<!-- Node6 -->
<g id="Node000006" class="node">
<title>Node6</title>
<g id="a_Node000006"><a xlink:href="Application_8cpp.html" target="_top" xlink:title=" ">
<polygon fill="white" stroke="#666666" points="827.62,-20 678.88,-20 678.88,0 827.62,0 827.62,-20"/>
<text xml:space="preserve" text-anchor="middle" x="753.25" y="-6.5" font-family="Helvetica,sans-Serif" font-size="10.00">application/src/Application.cpp</text>
</a>
</g>
</g>
<!-- Node5&#45;&gt;Node6 -->
<g id="edge5_Node000005_Node000006" class="edge">
<title>Node5&#45;&gt;Node6</title>
<g id="a_edge5_Node000005_Node000006"><a xlink:title=" ">
<path fill="none" stroke="#63b8ff" d="M562.17,-132.08C638.97,-129.36 750.94,-119.86 778.25,-88 795.36,-68.05 774.13,-36.16 761.45,-20.42"/>
<polygon fill="#63b8ff" stroke="#63b8ff" points="562.5,-128.57 552.62,-132.39 562.72,-135.57 562.5,-128.57"/>
</a>
</g>
</g>
<!-- Node7 -->
<g id="Node000007" class="node">
<title>Node7</title>
<g id="a_Node000007"><a xlink:href="DotNameBotLib_8hpp.html" target="_top" xlink:title=" ">
<polygon fill="white" stroke="#666666" points="769,-88 649.5,-88 649.5,-56 769,-56 769,-88"/>
<text xml:space="preserve" text-anchor="start" x="657.5" y="-74.5" font-family="Helvetica,sans-Serif" font-size="10.00">include/DotNameBotLib</text>
<text xml:space="preserve" text-anchor="middle" x="709.25" y="-62.5" font-family="Helvetica,sans-Serif" font-size="10.00">/DotNameBotLib.hpp</text>
</a>
</g>
</g>
<!-- Node5&#45;&gt;Node7 -->
<g id="edge6_Node000005_Node000007" class="edge">
<title>Node5&#45;&gt;Node7</title>
<g id="a_edge6_Node000005_Node000007"><a xlink:title=" ">
<path fill="none" stroke="#63b8ff" d="M532.64,-120.73C567.14,-111.41 614.81,-98.52 651.94,-88.49"/>
<polygon fill="#63b8ff" stroke="#63b8ff" points="532.14,-117.24 523.4,-123.23 533.97,-124 532.14,-117.24"/>
</a>
</g>
</g>
<!-- Node9 -->
<g id="Node000009" class="node">
<title>Node9</title>
<g id="a_Node000009"><a xlink:href="DiscordBot_8hpp.html" target="_top" xlink:title=" ">
<polygon fill="white" stroke="#666666" points="631.12,-82 479.38,-82 479.38,-62 631.12,-62 631.12,-82"/>
<text xml:space="preserve" text-anchor="middle" x="555.25" y="-68.5" font-family="Helvetica,sans-Serif" font-size="10.00">src/DiscordBot/DiscordBot.hpp</text>
</a>
</g>
</g>
<!-- Node5&#45;&gt;Node9 -->
<g id="edge9_Node000005_Node000009" class="edge">
<title>Node5&#45;&gt;Node9</title>
<g id="a_edge9_Node000005_Node000009"><a xlink:title=" ">
<path fill="none" stroke="#63b8ff" d="M506.26,-116.22C518.78,-105.18 534.69,-91.14 544.92,-82.11"/>
<polygon fill="#63b8ff" stroke="#63b8ff" points="504.19,-113.38 499.01,-122.62 508.82,-118.63 504.19,-113.38"/>
</a>
</g>
</g>
<!-- Node11 -->
<g id="Node000011" class="node">
<title>Node11</title>
<g id="a_Node000011"><a xlink:href="RssManager_8hpp.html" target="_top" xlink:title=" ">
<polygon fill="white" stroke="#666666" points="461.12,-82 333.38,-82 333.38,-62 461.12,-62 461.12,-82"/>
<text xml:space="preserve" text-anchor="middle" x="397.25" y="-68.5" font-family="Helvetica,sans-Serif" font-size="10.00">src/Rss/RssManager.hpp</text>
</a>
</g>
</g>
<!-- Node5&#45;&gt;Node11 -->
<g id="edge12_Node000005_Node000011" class="edge">
<title>Node5&#45;&gt;Node11</title>
<g id="a_edge12_Node000005_Node000011"><a xlink:title=" ">
<path fill="none" stroke="#63b8ff" d="M464.05,-117.54C447.33,-106.39 425.31,-91.71 411.21,-82.31"/>
<polygon fill="#63b8ff" stroke="#63b8ff" points="461.67,-120.15 471.93,-122.79 465.55,-114.33 461.67,-120.15"/>
</a>
</g>
</g>
<!-- Node7&#45;&gt;Node6 -->
<g id="edge7_Node000007_Node000006" class="edge">
<title>Node7&#45;&gt;Node6</title>
<g id="a_edge7_Node000007_Node000006"><a xlink:title=" ">
<path fill="none" stroke="#63b8ff" d="M727.29,-46.4C734,-37.24 741.23,-27.39 746.35,-20.41"/>
<polygon fill="#63b8ff" stroke="#63b8ff" points="724.57,-44.19 721.48,-54.33 730.21,-48.33 724.57,-44.19"/>
</a>
</g>
</g>
<!-- Node8 -->
<g id="Node000008" class="node">
<title>Node8</title>
<g id="a_Node000008"><a xlink:href="DotNameBotLib_8cpp.html" target="_top" xlink:title=" ">
<polygon fill="white" stroke="#666666" points="637.75,-20 516.75,-20 516.75,0 637.75,0 637.75,-20"/>
<text xml:space="preserve" text-anchor="middle" x="577.25" y="-6.5" font-family="Helvetica,sans-Serif" font-size="10.00">src/DotNameBotLib.cpp</text>
</a>
</g>
</g>
<!-- Node7&#45;&gt;Node8 -->
<g id="edge8_Node000007_Node000008" class="edge">
<title>Node7&#45;&gt;Node8</title>
<g id="a_edge8_Node000007_Node000008"><a xlink:title=" ">
<path fill="none" stroke="#63b8ff" d="M664.85,-50.82C642.23,-40.54 615.81,-28.53 597.95,-20.41"/>
<polygon fill="#63b8ff" stroke="#63b8ff" points="663.33,-53.97 673.88,-54.92 666.22,-47.6 663.33,-53.97"/>
</a>
</g>
</g>
<!-- Node9&#45;&gt;Node8 -->
<g id="edge11_Node000009_Node000008" class="edge">
<title>Node9&#45;&gt;Node8</title>
<g id="a_edge11_Node000009_Node000008"><a xlink:title=" ">
<path fill="none" stroke="#63b8ff" d="M562.61,-50.93C566.43,-40.5 570.92,-28.26 573.91,-20.11"/>
<polygon fill="#63b8ff" stroke="#63b8ff" points="559.37,-49.61 559.21,-60.2 565.94,-52.02 559.37,-49.61"/>
</a>
</g>
</g>
<!-- Node10 -->
<g id="Node000010" class="node">
<title>Node10</title>
<g id="a_Node000010"><a xlink:href="DiscordBot_8cpp.html" target="_top" xlink:title=" ">
<polygon fill="white" stroke="#666666" points="499.12,-20 347.38,-20 347.38,0 499.12,0 499.12,-20"/>
<text xml:space="preserve" text-anchor="middle" x="423.25" y="-6.5" font-family="Helvetica,sans-Serif" font-size="10.00">src/DiscordBot/DiscordBot.cpp</text>
</a>
</g>
</g>
<!-- Node9&#45;&gt;Node10 -->
<g id="edge10_Node000009_Node000010" class="edge">
<title>Node9&#45;&gt;Node10</title>
<g id="a_edge10_Node000009_Node000010"><a xlink:title=" ">
<path fill="none" stroke="#63b8ff" d="M524.28,-56.92C499.44,-45.63 465.28,-30.1 443.73,-20.31"/>
<polygon fill="#63b8ff" stroke="#63b8ff" points="522.7,-60.05 533.25,-61 525.59,-53.67 522.7,-60.05"/>
</a>
</g>
</g>
<!-- Node11&#45;&gt;Node8 -->
<g id="edge14_Node000011_Node000008" class="edge">
<title>Node11&#45;&gt;Node8</title>
<g id="a_edge14_Node000011_Node000008"><a xlink:title=" ">
<path fill="none" stroke="#63b8ff" d="M436.3,-57.98C470.27,-46.66 518.69,-30.52 549.03,-20.41"/>
<polygon fill="#63b8ff" stroke="#63b8ff" points="435.19,-54.66 426.81,-61.15 437.4,-61.3 435.19,-54.66"/>
</a>
</g>
</g>
<!-- Node11&#45;&gt;Node10 -->
<g id="edge13_Node000011_Node000010" class="edge">
<title>Node11&#45;&gt;Node10</title>
<g id="a_edge13_Node000011_Node000010"><a xlink:title=" ">
<path fill="none" stroke="#63b8ff" d="M405.8,-51.27C410.35,-40.76 415.73,-28.35 419.3,-20.11"/>
<polygon fill="#63b8ff" stroke="#63b8ff" points="402.68,-49.67 401.91,-60.24 409.1,-52.45 402.68,-49.67"/>
</a>
</g>
</g>
<!-- Node12 -->
<g id="Node000012" class="node">
<title>Node12</title>
<g id="a_Node000012"><a xlink:href="RssManager_8cpp.html" target="_top" xlink:title=" ">
<polygon fill="white" stroke="#666666" points="329.12,-20 201.38,-20 201.38,0 329.12,0 329.12,-20"/>
<text xml:space="preserve" text-anchor="middle" x="265.25" y="-6.5" font-family="Helvetica,sans-Serif" font-size="10.00">src/Rss/RssManager.cpp</text>
</a>
</g>
</g>
<!-- Node11&#45;&gt;Node12 -->
<g id="edge15_Node000011_Node000012" class="edge">
<title>Node11&#45;&gt;Node12</title>
<g id="a_edge15_Node000011_Node000012"><a xlink:title=" ">
<path fill="none" stroke="#63b8ff" d="M366.28,-56.92C341.44,-45.63 307.28,-30.1 285.73,-20.31"/>
<polygon fill="#63b8ff" stroke="#63b8ff" points="364.7,-60.05 375.25,-61 367.59,-53.67 364.7,-60.05"/>
</a>
</g>
</g>
</g>
</svg>
