<?xml version="1.0" encoding="UTF-8" standalone="no"?>
<!DOCTYPE svg PUBLIC "-//W3C//DTD SVG 1.1//EN"
 "http://www.w3.org/Graphics/SVG/1.1/DTD/svg11.dtd">
<!-- Generated by graphviz version 13.1.2 (20250808.2320)
 -->
<!-- Title: src/Utils/Logger/LoggerFactory.hpp Pages: 1 -->
<svg width="869pt" height="208pt"
 viewBox="0.00 0.00 869.00 208.00" xmlns="http://www.w3.org/2000/svg" xmlns:xlink="http://www.w3.org/1999/xlink">
<g id="graph0" class="graph" transform="scale(1 1) rotate(0) translate(4 204)">
<title>src/Utils/Logger/LoggerFactory.hpp</title>
<!-- Node1 -->
<g id="Node000001" class="node">
<title>Node1</title>
<g id="a_Node000001"><a xlink:title=" ">
<polygon fill="#999999" stroke="#666666" points="280.25,-200 112,-200 112,-180 280.25,-180 280.25,-200"/>
<text xml:space="preserve" text-anchor="middle" x="196.12" y="-186.5" font-family="Helvetica,sans-Serif" font-size="10.00">src/Utils/Logger/LoggerFactory.hpp</text>
</a>
</g>
</g>
<!-- Node2 -->
<g id="Node000002" class="node">
<title>Node2</title>
<g id="a_Node000002"><a xlink:href="LoggerFactory_8cpp.html" target="_top" xlink:title=" ">
<polygon fill="white" stroke="#666666" points="168.25,-144 0,-144 0,-124 168.25,-124 168.25,-144"/>
<text xml:space="preserve" text-anchor="middle" x="84.12" y="-130.5" font-family="Helvetica,sans-Serif" font-size="10.00">src/Utils/Logger/LoggerFactory.cpp</text>
</a>
</g>
</g>
<!-- Node1&#45;&gt;Node2 -->
<g id="edge1_Node000001_Node000002" class="edge">
<title>Node1&#45;&gt;Node2</title>
<g id="a_edge1_Node000001_Node000002"><a xlink:title=" ">
<path fill="none" stroke="#63b8ff" d="M166.29,-174.61C146.49,-165.07 121.07,-152.81 103.79,-144.48"/>
<polygon fill="#63b8ff" stroke="#63b8ff" points="164.72,-177.75 175.25,-178.94 167.77,-171.44 164.72,-177.75"/>
</a>
</g>
</g>
<!-- Node3 -->
<g id="Node000003" class="node">
<title>Node3</title>
<g id="a_Node000003"><a xlink:href="UtilsFactory_8cpp.html" target="_top" xlink:title=" ">
<polygon fill="white" stroke="#666666" points="237.62,-82 110.62,-82 110.62,-62 237.62,-62 237.62,-82"/>
<text xml:space="preserve" text-anchor="middle" x="174.12" y="-68.5" font-family="Helvetica,sans-Serif" font-size="10.00">src/Utils/UtilsFactory.cpp</text>
</a>
</g>
</g>
<!-- Node1&#45;&gt;Node3 -->
<g id="edge2_Node000001_Node000003" class="edge">
<title>Node1&#45;&gt;Node3</title>
<g id="a_edge2_Node000001_Node000003"><a xlink:title=" ">
<path fill="none" stroke="#63b8ff" d="M192.19,-168.23C187.36,-142.8 179.4,-100.84 175.89,-82.3"/>
<polygon fill="#63b8ff" stroke="#63b8ff" points="188.74,-168.85 194.04,-178.02 195.62,-167.54 188.74,-168.85"/>
</a>
</g>
</g>
<!-- Node4 -->
<g id="Node000004" class="node">
<title>Node4</title>
<g id="a_Node000004"><a xlink:href="UtilsFactory_8hpp.html" target="_top" xlink:title=" ">
<polygon fill="white" stroke="#666666" points="395.62,-144 268.62,-144 268.62,-124 395.62,-124 395.62,-144"/>
<text xml:space="preserve" text-anchor="middle" x="332.12" y="-130.5" font-family="Helvetica,sans-Serif" font-size="10.00">src/Utils/UtilsFactory.hpp</text>
</a>
</g>
</g>
<!-- Node1&#45;&gt;Node4 -->
<g id="edge3_Node000001_Node000004" class="edge">
<title>Node1&#45;&gt;Node4</title>
<g id="a_edge3_Node000001_Node000004"><a xlink:title=" ">
<path fill="none" stroke="#63b8ff" d="M230.37,-175.4C254.67,-165.75 286.68,-153.05 308.25,-144.48"/>
<polygon fill="#63b8ff" stroke="#63b8ff" points="229.22,-172.09 221.22,-179.04 231.81,-178.6 229.22,-172.09"/>
</a>
</g>
</g>
<!-- Node4&#45;&gt;Node3 -->
<g id="edge15_Node000004_Node000003" class="edge">
<title>Node4&#45;&gt;Node3</title>
<g id="a_edge15_Node000004_Node000003"><a xlink:title=" ">
<path fill="none" stroke="#63b8ff" d="M296.68,-119.54C266.92,-108.24 225.18,-92.39 198.9,-82.41"/>
<polygon fill="#63b8ff" stroke="#63b8ff" points="295.43,-122.81 306.02,-123.09 297.92,-116.27 295.43,-122.81"/>
</a>
</g>
</g>
<!-- Node5 -->
<g id="Node000005" class="node">
<title>Node5</title>
<g id="a_Node000005"><a xlink:href="Application_8cpp.html" target="_top" xlink:title=" ">
<polygon fill="white" stroke="#666666" points="384.5,-20 235.75,-20 235.75,0 384.5,0 384.5,-20"/>
<text xml:space="preserve" text-anchor="middle" x="310.12" y="-6.5" font-family="Helvetica,sans-Serif" font-size="10.00">application/src/Application.cpp</text>
</a>
</g>
</g>
<!-- Node4&#45;&gt;Node5 -->
<g id="edge4_Node000004_Node000005" class="edge">
<title>Node4&#45;&gt;Node5</title>
<g id="a_edge4_Node000004_Node000005"><a xlink:title=" ">
<path fill="none" stroke="#63b8ff" d="M308.06,-116.6C299.09,-109.05 289.93,-99.26 285.12,-88 274.97,-64.22 292.33,-34.84 302.89,-20.2"/>
<polygon fill="#63b8ff" stroke="#63b8ff" points="305.89,-119.34 315.94,-122.69 310.17,-113.81 305.89,-119.34"/>
</a>
</g>
</g>
<!-- Node6 -->
<g id="Node000006" class="node">
<title>Node6</title>
<g id="a_Node000006"><a xlink:href="DotNameBotLib_8hpp.html" target="_top" xlink:title=" ">
<polygon fill="white" stroke="#666666" points="413.88,-88 294.38,-88 294.38,-56 413.88,-56 413.88,-88"/>
<text xml:space="preserve" text-anchor="start" x="302.38" y="-74.5" font-family="Helvetica,sans-Serif" font-size="10.00">include/DotNameBotLib</text>
<text xml:space="preserve" text-anchor="middle" x="354.12" y="-62.5" font-family="Helvetica,sans-Serif" font-size="10.00">/DotNameBotLib.hpp</text>
</a>
</g>
</g>
<!-- Node4&#45;&gt;Node6 -->
<g id="edge5_Node000004_Node000006" class="edge">
<title>Node4&#45;&gt;Node6</title>
<g id="a_edge5_Node000004_Node000006"><a xlink:title=" ">
<path fill="none" stroke="#63b8ff" d="M339.5,-112.87C342.47,-104.79 345.82,-95.64 348.57,-88.14"/>
<polygon fill="#63b8ff" stroke="#63b8ff" points="336.24,-111.61 336.08,-122.2 342.81,-114.02 336.24,-111.61"/>
</a>
</g>
</g>
<!-- Node8 -->
<g id="Node000008" class="node">
<title>Node8</title>
<g id="a_Node000008"><a xlink:href="DiscordBot_8hpp.html" target="_top" xlink:title=" ">
<polygon fill="white" stroke="#666666" points="584,-82 432.25,-82 432.25,-62 584,-62 584,-82"/>
<text xml:space="preserve" text-anchor="middle" x="508.12" y="-68.5" font-family="Helvetica,sans-Serif" font-size="10.00">src/DiscordBot/DiscordBot.hpp</text>
</a>
</g>
</g>
<!-- Node4&#45;&gt;Node8 -->
<g id="edge8_Node000004_Node000008" class="edge">
<title>Node4&#45;&gt;Node8</title>
<g id="a_edge8_Node000004_Node000008"><a xlink:title=" ">
<path fill="none" stroke="#63b8ff" d="M370.3,-119.98C403.52,-108.66 450.87,-92.52 480.53,-82.41"/>
<polygon fill="#63b8ff" stroke="#63b8ff" points="369.39,-116.6 361.06,-123.14 371.65,-123.22 369.39,-116.6"/>
</a>
</g>
</g>
<!-- Node10 -->
<g id="Node000010" class="node">
<title>Node10</title>
<g id="a_Node000010"><a xlink:href="RssManager_8hpp.html" target="_top" xlink:title=" ">
<polygon fill="white" stroke="#666666" points="730,-82 602.25,-82 602.25,-62 730,-62 730,-82"/>
<text xml:space="preserve" text-anchor="middle" x="666.12" y="-68.5" font-family="Helvetica,sans-Serif" font-size="10.00">src/Rss/RssManager.hpp</text>
</a>
</g>
</g>
<!-- Node4&#45;&gt;Node10 -->
<g id="edge11_Node000004_Node000010" class="edge">
<title>Node4&#45;&gt;Node10</title>
<g id="a_edge11_Node000004_Node000010"><a xlink:title=" ">
<path fill="none" stroke="#63b8ff" d="M401.5,-121.66C454.16,-112.9 528.3,-100.25 593.12,-88 602.28,-86.27 612.06,-84.33 621.39,-82.43"/>
<polygon fill="#63b8ff" stroke="#63b8ff" points="401.06,-118.18 391.77,-123.27 402.2,-125.09 401.06,-118.18"/>
</a>
</g>
</g>
<!-- Node6&#45;&gt;Node5 -->
<g id="edge6_Node000006_Node000005" class="edge">
<title>Node6&#45;&gt;Node5</title>
<g id="a_edge6_Node000006_Node000005"><a xlink:title=" ">
<path fill="none" stroke="#63b8ff" d="M336.09,-46.4C329.37,-37.24 322.14,-27.39 317.02,-20.41"/>
<polygon fill="#63b8ff" stroke="#63b8ff" points="333.16,-48.33 341.9,-54.33 338.81,-44.19 333.16,-48.33"/>
</a>
</g>
</g>
<!-- Node7 -->
<g id="Node000007" class="node">
<title>Node7</title>
<g id="a_Node000007"><a xlink:href="DotNameBotLib_8cpp.html" target="_top" xlink:title=" ">
<polygon fill="white" stroke="#666666" points="545.62,-20 424.62,-20 424.62,0 545.62,0 545.62,-20"/>
<text xml:space="preserve" text-anchor="middle" x="485.12" y="-6.5" font-family="Helvetica,sans-Serif" font-size="10.00">src/DotNameBotLib.cpp</text>
</a>
</g>
</g>
<!-- Node6&#45;&gt;Node7 -->
<g id="edge7_Node000006_Node000007" class="edge">
<title>Node6&#45;&gt;Node7</title>
<g id="a_edge7_Node000006_Node000007"><a xlink:title=" ">
<path fill="none" stroke="#63b8ff" d="M398.19,-50.82C420.64,-40.54 446.86,-28.53 464.58,-20.41"/>
<polygon fill="#63b8ff" stroke="#63b8ff" points="396.87,-47.57 389.24,-54.92 399.79,-53.94 396.87,-47.57"/>
</a>
</g>
</g>
<!-- Node8&#45;&gt;Node7 -->
<g id="edge10_Node000008_Node000007" class="edge">
<title>Node8&#45;&gt;Node7</title>
<g id="a_edge10_Node000008_Node000007"><a xlink:title=" ">
<path fill="none" stroke="#63b8ff" d="M500.43,-50.93C496.43,-40.5 491.74,-28.26 488.62,-20.11"/>
<polygon fill="#63b8ff" stroke="#63b8ff" points="497.14,-52.13 503.99,-60.21 503.68,-49.62 497.14,-52.13"/>
</a>
</g>
</g>
<!-- Node9 -->
<g id="Node000009" class="node">
<title>Node9</title>
<g id="a_Node000009"><a xlink:href="DiscordBot_8cpp.html" target="_top" xlink:title=" ">
<polygon fill="white" stroke="#666666" points="715,-20 563.25,-20 563.25,0 715,0 715,-20"/>
<text xml:space="preserve" text-anchor="middle" x="639.12" y="-6.5" font-family="Helvetica,sans-Serif" font-size="10.00">src/DiscordBot/DiscordBot.cpp</text>
</a>
</g>
</g>
<!-- Node8&#45;&gt;Node9 -->
<g id="edge9_Node000008_Node000009" class="edge">
<title>Node8&#45;&gt;Node9</title>
<g id="a_edge9_Node000008_Node000009"><a xlink:title=" ">
<path fill="none" stroke="#63b8ff" d="M538.86,-56.92C563.51,-45.63 597.42,-30.1 618.8,-20.31"/>
<polygon fill="#63b8ff" stroke="#63b8ff" points="537.6,-53.65 529.97,-60.99 540.52,-60.01 537.6,-53.65"/>
</a>
</g>
</g>
<!-- Node10&#45;&gt;Node7 -->
<g id="edge13_Node000010_Node000007" class="edge">
<title>Node10&#45;&gt;Node7</title>
<g id="a_edge13_Node000010_Node000007"><a xlink:title=" ">
<path fill="none" stroke="#63b8ff" d="M627.31,-58.13C593.12,-46.8 544.14,-30.56 513.51,-20.41"/>
<polygon fill="#63b8ff" stroke="#63b8ff" points="625.81,-61.32 636.41,-61.15 628.02,-54.68 625.81,-61.32"/>
</a>
</g>
</g>
<!-- Node10&#45;&gt;Node9 -->
<g id="edge12_Node000010_Node000009" class="edge">
<title>Node10&#45;&gt;Node9</title>
<g id="a_edge12_Node000010_Node000009"><a xlink:title=" ">
<path fill="none" stroke="#63b8ff" d="M657.24,-51.27C652.52,-40.76 646.93,-28.35 643.23,-20.11"/>
<polygon fill="#63b8ff" stroke="#63b8ff" points="653.99,-52.56 661.29,-60.24 660.37,-49.69 653.99,-52.56"/>
</a>
</g>
</g>
<!-- Node11 -->
<g id="Node000011" class="node">
<title>Node11</title>
<g id="a_Node000011"><a xlink:href="RssManager_8cpp.html" target="_top" xlink:title=" ">
<polygon fill="white" stroke="#666666" points="861,-20 733.25,-20 733.25,0 861,0 861,-20"/>
<text xml:space="preserve" text-anchor="middle" x="797.12" y="-6.5" font-family="Helvetica,sans-Serif" font-size="10.00">src/Rss/RssManager.cpp</text>
</a>
</g>
</g>
<!-- Node10&#45;&gt;Node11 -->
<g id="edge14_Node000010_Node000011" class="edge">
<title>Node10&#45;&gt;Node11</title>
<g id="a_edge14_Node000010_Node000011"><a xlink:title=" ">
<path fill="none" stroke="#63b8ff" d="M696.86,-56.92C721.51,-45.63 755.42,-30.1 776.8,-20.31"/>
<polygon fill="#63b8ff" stroke="#63b8ff" points="695.6,-53.65 687.97,-60.99 698.52,-60.01 695.6,-53.65"/>
</a>
</g>
</g>
</g>
</svg>
