<?xml version="1.0" encoding="UTF-8" standalone="no"?>
<!DOCTYPE svg PUBLIC "-//W3C//DTD SVG 1.1//EN"
 "http://www.w3.org/Graphics/SVG/1.1/DTD/svg11.dtd">
<!-- Generated by graphviz version 13.1.2 (20250808.2320)
 -->
<!-- Title: src/Utils/Logger/LoggerFactory.hpp Pages: 1 -->
<svg width="738pt" height="264pt"
 viewBox="0.00 0.00 738.00 264.00" xmlns="http://www.w3.org/2000/svg" xmlns:xlink="http://www.w3.org/1999/xlink">
<g id="graph0" class="graph" transform="scale(1 1) rotate(0) translate(4 260)">
<title>src/Utils/Logger/LoggerFactory.hpp</title>
<!-- Node1 -->
<g id="Node000001" class="node">
<title>Node1</title>
<g id="a_Node000001"><a xlink:title=" ">
<polygon fill="#999999" stroke="#666666" points="280.25,-256 112,-256 112,-236 280.25,-236 280.25,-256"/>
<text xml:space="preserve" text-anchor="middle" x="196.12" y="-242.5" font-family="Helvetica,sans-Serif" font-size="10.00">src/Utils/Logger/LoggerFactory.hpp</text>
</a>
</g>
</g>
<!-- Node2 -->
<g id="Node000002" class="node">
<title>Node2</title>
<g id="a_Node000002"><a xlink:href="LoggerFactory_8cpp.html" target="_top" xlink:title=" ">
<polygon fill="white" stroke="#666666" points="168.25,-200 0,-200 0,-180 168.25,-180 168.25,-200"/>
<text xml:space="preserve" text-anchor="middle" x="84.12" y="-186.5" font-family="Helvetica,sans-Serif" font-size="10.00">src/Utils/Logger/LoggerFactory.cpp</text>
</a>
</g>
</g>
<!-- Node1&#45;&gt;Node2 -->
<g id="edge1_Node000001_Node000002" class="edge">
<title>Node1&#45;&gt;Node2</title>
<g id="a_edge1_Node000001_Node000002"><a xlink:title=" ">
<path fill="none" stroke="#63b8ff" d="M166.29,-230.61C146.49,-221.07 121.07,-208.81 103.79,-200.48"/>
<polygon fill="#63b8ff" stroke="#63b8ff" points="164.72,-233.75 175.25,-234.94 167.77,-227.44 164.72,-233.75"/>
</a>
</g>
</g>
<!-- Node3 -->
<g id="Node000003" class="node">
<title>Node3</title>
<g id="a_Node000003"><a xlink:href="UtilsFactory_8cpp.html" target="_top" xlink:title=" ">
<polygon fill="white" stroke="#666666" points="224.62,-138 97.62,-138 97.62,-118 224.62,-118 224.62,-138"/>
<text xml:space="preserve" text-anchor="middle" x="161.12" y="-124.5" font-family="Helvetica,sans-Serif" font-size="10.00">src/Utils/UtilsFactory.cpp</text>
</a>
</g>
</g>
<!-- Node1&#45;&gt;Node3 -->
<g id="edge2_Node000001_Node000003" class="edge">
<title>Node1&#45;&gt;Node3</title>
<g id="a_edge2_Node000001_Node000003"><a xlink:title=" ">
<path fill="none" stroke="#63b8ff" d="M190.35,-224.88C186.64,-212.02 181.67,-195.01 177.12,-180 172.71,-165.44 167.39,-148.6 164.13,-138.38"/>
<polygon fill="#63b8ff" stroke="#63b8ff" points="186.93,-225.63 193.06,-234.27 193.65,-223.69 186.93,-225.63"/>
</a>
</g>
</g>
<!-- Node4 -->
<g id="Node000004" class="node">
<title>Node4</title>
<g id="a_Node000004"><a xlink:href="UtilsFactory_8hpp.html" target="_top" xlink:title=" ">
<polygon fill="white" stroke="#666666" points="419.62,-200 292.62,-200 292.62,-180 419.62,-180 419.62,-200"/>
<text xml:space="preserve" text-anchor="middle" x="356.12" y="-186.5" font-family="Helvetica,sans-Serif" font-size="10.00">src/Utils/UtilsFactory.hpp</text>
</a>
</g>
</g>
<!-- Node1&#45;&gt;Node4 -->
<g id="edge3_Node000001_Node000004" class="edge">
<title>Node1&#45;&gt;Node4</title>
<g id="a_edge3_Node000001_Node000004"><a xlink:title=" ">
<path fill="none" stroke="#63b8ff" d="M234.88,-231.92C263.64,-222.21 302.2,-209.2 328.04,-200.48"/>
<polygon fill="#63b8ff" stroke="#63b8ff" points="233.78,-228.6 225.43,-235.11 236.02,-235.23 233.78,-228.6"/>
</a>
</g>
</g>
<!-- Node4&#45;&gt;Node3 -->
<g id="edge15_Node000004_Node000003" class="edge">
<title>Node4&#45;&gt;Node3</title>
<g id="a_edge15_Node000004_Node000003"><a xlink:title=" ">
<path fill="none" stroke="#63b8ff" d="M314.78,-176.28C277.93,-164.94 224.85,-148.61 191.7,-138.41"/>
<polygon fill="#63b8ff" stroke="#63b8ff" points="313.62,-179.58 324.21,-179.18 315.68,-172.89 313.62,-179.58"/>
</a>
</g>
</g>
<!-- Node5 -->
<g id="Node000005" class="node">
<title>Node5</title>
<g id="a_Node000005"><a xlink:href="Application_8cpp.html" target="_top" xlink:title=" ">
<polygon fill="white" stroke="#666666" points="376.5,-76 227.75,-76 227.75,-56 376.5,-56 376.5,-76"/>
<text xml:space="preserve" text-anchor="middle" x="302.12" y="-62.5" font-family="Helvetica,sans-Serif" font-size="10.00">application/src/Application.cpp</text>
</a>
</g>
</g>
<!-- Node4&#45;&gt;Node5 -->
<g id="edge4_Node000004_Node000005" class="edge">
<title>Node4&#45;&gt;Node5</title>
<g id="a_edge4_Node000004_Node000005"><a xlink:title=" ">
<path fill="none" stroke="#63b8ff" d="M366.55,-169.93C373.93,-153.66 380.93,-130.1 371.12,-112 362,-95.15 343.52,-83.61 327.98,-76.44"/>
<polygon fill="#63b8ff" stroke="#63b8ff" points="363.6,-168.01 362.26,-178.52 369.86,-171.14 363.6,-168.01"/>
</a>
</g>
</g>
<!-- Node6 -->
<g id="Node000006" class="node">
<title>Node6</title>
<g id="a_Node000006"><a xlink:href="DotNameBotLib_8hpp.html" target="_top" xlink:title=" ">
<polygon fill="white" stroke="#666666" points="361.88,-144 242.38,-144 242.38,-112 361.88,-112 361.88,-144"/>
<text xml:space="preserve" text-anchor="start" x="250.38" y="-130.5" font-family="Helvetica,sans-Serif" font-size="10.00">include/DotNameBotLib</text>
<text xml:space="preserve" text-anchor="middle" x="302.12" y="-118.5" font-family="Helvetica,sans-Serif" font-size="10.00">/DotNameBotLib.hpp</text>
</a>
</g>
</g>
<!-- Node4&#45;&gt;Node6 -->
<g id="edge5_Node000004_Node000006" class="edge">
<title>Node4&#45;&gt;Node6</title>
<g id="a_edge5_Node000004_Node000006"><a xlink:title=" ">
<path fill="none" stroke="#63b8ff" d="M340.01,-171.1C332.29,-162.51 323.13,-152.34 315.75,-144.14"/>
<polygon fill="#63b8ff" stroke="#63b8ff" points="337.38,-173.41 346.67,-178.5 342.59,-168.73 337.38,-173.41"/>
</a>
</g>
</g>
<!-- Node8 -->
<g id="Node000008" class="node">
<title>Node8</title>
<g id="a_Node000008"><a xlink:href="DiscordBot_8hpp.html" target="_top" xlink:title=" ">
<polygon fill="white" stroke="#666666" points="730,-76 578.25,-76 578.25,-56 730,-56 730,-76"/>
<text xml:space="preserve" text-anchor="middle" x="654.12" y="-62.5" font-family="Helvetica,sans-Serif" font-size="10.00">src/DiscordBot/DiscordBot.hpp</text>
</a>
</g>
</g>
<!-- Node4&#45;&gt;Node8 -->
<g id="edge8_Node000004_Node000008" class="edge">
<title>Node4&#45;&gt;Node8</title>
<g id="a_edge8_Node000004_Node000008"><a xlink:title=" ">
<path fill="none" stroke="#63b8ff" d="M431.4,-181.4C471.73,-175.18 521.35,-164 562.12,-144 597.66,-126.57 631.12,-92.6 646.02,-76.24"/>
<polygon fill="#63b8ff" stroke="#63b8ff" points="430.9,-177.93 421.51,-182.84 431.91,-184.86 430.9,-177.93"/>
</a>
</g>
</g>
<!-- Node10 -->
<g id="Node000010" class="node">
<title>Node10</title>
<g id="a_Node000010"><a xlink:href="RssManager_8hpp.html" target="_top" xlink:title=" ">
<polygon fill="white" stroke="#666666" points="553,-138 425.25,-138 425.25,-118 553,-118 553,-138"/>
<text xml:space="preserve" text-anchor="middle" x="489.12" y="-124.5" font-family="Helvetica,sans-Serif" font-size="10.00">src/Rss/RssManager.hpp</text>
</a>
</g>
</g>
<!-- Node4&#45;&gt;Node10 -->
<g id="edge11_Node000004_Node000010" class="edge">
<title>Node4&#45;&gt;Node10</title>
<g id="a_edge11_Node000004_Node000010"><a xlink:title=" ">
<path fill="none" stroke="#63b8ff" d="M387.33,-174.92C412.36,-163.63 446.78,-148.1 468.49,-138.31"/>
<polygon fill="#63b8ff" stroke="#63b8ff" points="385.96,-171.7 378.29,-179 388.84,-178.08 385.96,-171.7"/>
</a>
</g>
</g>
<!-- Node6&#45;&gt;Node5 -->
<g id="edge6_Node000006_Node000005" class="edge">
<title>Node6&#45;&gt;Node5</title>
<g id="a_edge6_Node000006_Node000005"><a xlink:title=" ">
<path fill="none" stroke="#63b8ff" d="M302.12,-100.08C302.12,-91.6 302.12,-82.8 302.12,-76.41"/>
<polygon fill="#63b8ff" stroke="#63b8ff" points="298.63,-100.03 302.13,-110.03 305.63,-100.03 298.63,-100.03"/>
</a>
</g>
</g>
<!-- Node7 -->
<g id="Node000007" class="node">
<title>Node7</title>
<g id="a_Node000007"><a xlink:href="DotNameBotLib_8cpp.html" target="_top" xlink:title=" ">
<polygon fill="white" stroke="#666666" points="464.62,-20 343.62,-20 343.62,0 464.62,0 464.62,-20"/>
<text xml:space="preserve" text-anchor="middle" x="404.12" y="-6.5" font-family="Helvetica,sans-Serif" font-size="10.00">src/DotNameBotLib.cpp</text>
</a>
</g>
</g>
<!-- Node6&#45;&gt;Node7 -->
<g id="edge7_Node000006_Node000007" class="edge">
<title>Node6&#45;&gt;Node7</title>
<g id="a_edge7_Node000006_Node000007"><a xlink:title=" ">
<path fill="none" stroke="#63b8ff" d="M250.91,-106.61C225.75,-93.57 203.82,-75.48 219.12,-56 234.49,-36.44 295.73,-24.33 343.59,-17.66"/>
<polygon fill="#63b8ff" stroke="#63b8ff" points="249.13,-109.64 259.65,-110.87 252.19,-103.35 249.13,-109.64"/>
</a>
</g>
</g>
<!-- Node8&#45;&gt;Node7 -->
<g id="edge10_Node000008_Node000007" class="edge">
<title>Node8&#45;&gt;Node7</title>
<g id="a_edge10_Node000008_Node000007"><a xlink:title=" ">
<path fill="none" stroke="#63b8ff" d="M599.15,-53.13C553.69,-43.31 489.98,-29.54 447.91,-20.46"/>
<polygon fill="#63b8ff" stroke="#63b8ff" points="598.3,-56.52 608.81,-55.21 599.78,-49.68 598.3,-56.52"/>
</a>
</g>
</g>
<!-- Node9 -->
<g id="Node000009" class="node">
<title>Node9</title>
<g id="a_Node000009"><a xlink:href="DiscordBot_8cpp.html" target="_top" xlink:title=" ">
<polygon fill="white" stroke="#666666" points="730,-20 578.25,-20 578.25,0 730,0 730,-20"/>
<text xml:space="preserve" text-anchor="middle" x="654.12" y="-6.5" font-family="Helvetica,sans-Serif" font-size="10.00">src/DiscordBot/DiscordBot.cpp</text>
</a>
</g>
</g>
<!-- Node8&#45;&gt;Node9 -->
<g id="edge9_Node000008_Node000009" class="edge">
<title>Node8&#45;&gt;Node9</title>
<g id="a_edge9_Node000008_Node000009"><a xlink:title=" ">
<path fill="none" stroke="#63b8ff" d="M654.12,-44.13C654.12,-35.9 654.12,-26.85 654.12,-20.3"/>
<polygon fill="#63b8ff" stroke="#63b8ff" points="650.63,-44.08 654.13,-54.08 657.63,-44.08 650.63,-44.08"/>
</a>
</g>
</g>
<!-- Node10&#45;&gt;Node7 -->
<g id="edge13_Node000010_Node000007" class="edge">
<title>Node10&#45;&gt;Node7</title>
<g id="a_edge13_Node000010_Node000007"><a xlink:title=" ">
<path fill="none" stroke="#63b8ff" d="M461.7,-111.51C448.32,-102.68 433.01,-90.49 423.12,-76 411.2,-58.52 406.65,-33.48 405,-20.16"/>
<polygon fill="#63b8ff" stroke="#63b8ff" points="459.82,-114.46 470.15,-116.79 463.52,-108.53 459.82,-114.46"/>
</a>
</g>
</g>
<!-- Node10&#45;&gt;Node8 -->
<g id="edge12_Node000010_Node000008" class="edge">
<title>Node10&#45;&gt;Node8</title>
<g id="a_edge12_Node000010_Node000008"><a xlink:title=" ">
<path fill="none" stroke="#63b8ff" d="M525.32,-113.84C556.45,-102.52 600.57,-86.47 628.25,-76.41"/>
<polygon fill="#63b8ff" stroke="#63b8ff" points="524.53,-110.4 516.33,-117.11 526.92,-116.98 524.53,-110.4"/>
</a>
</g>
</g>
<!-- Node11 -->
<g id="Node000011" class="node">
<title>Node11</title>
<g id="a_Node000011"><a xlink:href="RssManager_8cpp.html" target="_top" xlink:title=" ">
<polygon fill="white" stroke="#666666" points="560,-76 432.25,-76 432.25,-56 560,-56 560,-76"/>
<text xml:space="preserve" text-anchor="middle" x="496.12" y="-62.5" font-family="Helvetica,sans-Serif" font-size="10.00">src/Rss/RssManager.cpp</text>
</a>
</g>
</g>
<!-- Node10&#45;&gt;Node11 -->
<g id="edge14_Node000010_Node000011" class="edge">
<title>Node10&#45;&gt;Node11</title>
<g id="a_edge14_Node000010_Node000011"><a xlink:title=" ">
<path fill="none" stroke="#63b8ff" d="M491.55,-106.25C492.74,-95.97 494.13,-84.09 495.06,-76.11"/>
<polygon fill="#63b8ff" stroke="#63b8ff" points="488.08,-105.78 490.39,-116.12 495.03,-106.59 488.08,-105.78"/>
</a>
</g>
</g>
</g>
</svg>
