<?xml version="1.0" encoding="UTF-8" standalone="no"?>
<!DOCTYPE svg PUBLIC "-//W3C//DTD SVG 1.1//EN"
 "http://www.w3.org/Graphics/SVG/1.1/DTD/svg11.dtd">
<!-- Generated by graphviz version 13.1.2 (20250808.2320)
 -->
<!-- Title: src/Utils/Logger/LoggerFactory.hpp Pages: 1 -->
<svg width="344pt" height="140pt"
 viewBox="0.00 0.00 344.00 140.00" xmlns="http://www.w3.org/2000/svg" xmlns:xlink="http://www.w3.org/1999/xlink">
<g id="graph0" class="graph" transform="scale(1 1) rotate(0) translate(4 136)">
<title>src/Utils/Logger/LoggerFactory.hpp</title>
<!-- Node1 -->
<g id="Node000001" class="node">
<title>Node1</title>
<g id="a_Node000001"><a xlink:title=" ">
<polygon fill="#999999" stroke="#666666" points="168.25,-132 0,-132 0,-112 168.25,-112 168.25,-132"/>
<text xml:space="preserve" text-anchor="middle" x="84.12" y="-118.5" font-family="Helvetica,sans-Serif" font-size="10.00">src/Utils/Logger/LoggerFactory.hpp</text>
</a>
</g>
</g>
<!-- Node2 -->
<g id="Node000002" class="node">
<title>Node2</title>
<g id="a_Node000002"><a xlink:title=" ">
<polygon fill="#e0e0e0" stroke="#999999" points="66.75,-20 15.5,-20 15.5,0 66.75,0 66.75,-20"/>
<text xml:space="preserve" text-anchor="middle" x="41.12" y="-6.5" font-family="Helvetica,sans-Serif" font-size="10.00">memory</text>
</a>
</g>
</g>
<!-- Node1&#45;&gt;Node2 -->
<g id="edge1_Node000001_Node000002" class="edge">
<title>Node1&#45;&gt;Node2</title>
<g id="a_edge1_Node000001_Node000002"><a xlink:title=" ">
<path fill="none" stroke="#63b8ff" d="M80.46,-111.62C73.51,-93.84 58.28,-54.88 48.94,-31"/>
<polygon fill="#63b8ff" stroke="#63b8ff" points="52.23,-29.8 45.33,-21.76 45.71,-32.35 52.23,-29.8"/>
</a>
</g>
</g>
<!-- Node3 -->
<g id="Node000003" class="node">
<title>Node3</title>
<g id="a_Node000003"><a xlink:title=" ">
<polygon fill="#e0e0e0" stroke="#999999" points="125.12,-20 85.12,-20 85.12,0 125.12,0 125.12,-20"/>
<text xml:space="preserve" text-anchor="middle" x="105.12" y="-6.5" font-family="Helvetica,sans-Serif" font-size="10.00">string</text>
</a>
</g>
</g>
<!-- Node1&#45;&gt;Node3 -->
<g id="edge2_Node000001_Node000003" class="edge">
<title>Node1&#45;&gt;Node3</title>
<g id="a_edge2_Node000001_Node000003"><a xlink:title=" ">
<path fill="none" stroke="#63b8ff" d="M85.92,-111.62C89.28,-94.01 96.61,-55.59 101.18,-31.65"/>
<polygon fill="#63b8ff" stroke="#63b8ff" points="104.62,-32.32 103.06,-21.84 97.74,-31.01 104.62,-32.32"/>
</a>
</g>
</g>
<!-- Node4 -->
<g id="Node000004" class="node">
<title>Node4</title>
<g id="a_Node000004"><a xlink:href="ILogger_8hpp.html" target="_top" xlink:title=" ">
<polygon fill="white" stroke="#666666" points="234.38,-76 111.88,-76 111.88,-56 234.38,-56 234.38,-76"/>
<text xml:space="preserve" text-anchor="middle" x="173.12" y="-62.5" font-family="Helvetica,sans-Serif" font-size="10.00">Utils/Logger/ILogger.hpp</text>
</a>
</g>
</g>
<!-- Node1&#45;&gt;Node4 -->
<g id="edge3_Node000001_Node000004" class="edge">
<title>Node1&#45;&gt;Node4</title>
<g id="a_edge3_Node000001_Node000004"><a xlink:title=" ">
<path fill="none" stroke="#63b8ff" d="M99.63,-111.59C112.95,-103.51 132.4,-91.71 147.95,-82.27"/>
<polygon fill="#63b8ff" stroke="#63b8ff" points="149.47,-85.44 156.21,-77.26 145.84,-79.46 149.47,-85.44"/>
</a>
</g>
</g>
<!-- Node4&#45;&gt;Node2 -->
<g id="edge6_Node000004_Node000002" class="edge">
<title>Node4&#45;&gt;Node2</title>
<g id="a_edge6_Node000004_Node000002"><a xlink:title=" ">
<path fill="none" stroke="#63b8ff" d="M150.13,-55.59C129.34,-47.09 98.47,-34.46 74.89,-24.81"/>
<polygon fill="#63b8ff" stroke="#63b8ff" points="76.28,-21.6 65.7,-21.05 73.63,-28.08 76.28,-21.6"/>
</a>
</g>
</g>
<!-- Node4&#45;&gt;Node3 -->
<g id="edge8_Node000004_Node000003" class="edge">
<title>Node4&#45;&gt;Node3</title>
<g id="a_edge8_Node000004_Node000003"><a xlink:title=" ">
<path fill="none" stroke="#63b8ff" d="M161.28,-55.59C151.43,-47.77 137.19,-36.46 125.52,-27.19"/>
<polygon fill="#63b8ff" stroke="#63b8ff" points="128.03,-24.72 118.02,-21.24 123.67,-30.2 128.03,-24.72"/>
</a>
</g>
</g>
<!-- Node5 -->
<g id="Node000005" class="node">
<title>Node5</title>
<g id="a_Node000005"><a xlink:title=" ">
<polygon fill="#e0e0e0" stroke="#999999" points="203.25,-20 143,-20 143,0 203.25,0 203.25,-20"/>
<text xml:space="preserve" text-anchor="middle" x="173.12" y="-6.5" font-family="Helvetica,sans-Serif" font-size="10.00">fmt/core.h</text>
</a>
</g>
</g>
<!-- Node4&#45;&gt;Node5 -->
<g id="edge4_Node000004_Node000005" class="edge">
<title>Node4&#45;&gt;Node5</title>
<g id="a_edge4_Node000004_Node000005"><a xlink:title=" ">
<path fill="none" stroke="#63b8ff" d="M173.12,-55.59C173.12,-49.01 173.12,-39.96 173.12,-31.73"/>
<polygon fill="#63b8ff" stroke="#63b8ff" points="176.63,-31.81 173.13,-21.81 169.63,-31.81 176.63,-31.81"/>
</a>
</g>
</g>
<!-- Node6 -->
<g id="Node000006" class="node">
<title>Node6</title>
<g id="a_Node000006"><a xlink:title=" ">
<polygon fill="#e0e0e0" stroke="#999999" points="266.75,-20 221.5,-20 221.5,0 266.75,0 266.75,-20"/>
<text xml:space="preserve" text-anchor="middle" x="244.12" y="-6.5" font-family="Helvetica,sans-Serif" font-size="10.00">cstdint</text>
</a>
</g>
</g>
<!-- Node4&#45;&gt;Node6 -->
<g id="edge5_Node000004_Node000006" class="edge">
<title>Node4&#45;&gt;Node6</title>
<g id="a_edge5_Node000004_Node000006"><a xlink:title=" ">
<path fill="none" stroke="#63b8ff" d="M185.49,-55.59C195.77,-47.77 210.64,-36.46 222.84,-27.19"/>
<polygon fill="#63b8ff" stroke="#63b8ff" points="224.85,-30.05 230.69,-21.21 220.62,-24.48 224.85,-30.05"/>
</a>
</g>
</g>
<!-- Node7 -->
<g id="Node000007" class="node">
<title>Node7</title>
<g id="a_Node000007"><a xlink:title=" ">
<polygon fill="#e0e0e0" stroke="#999999" points="335.75,-20 284.5,-20 284.5,0 335.75,0 335.75,-20"/>
<text xml:space="preserve" text-anchor="middle" x="310.12" y="-6.5" font-family="Helvetica,sans-Serif" font-size="10.00">sstream</text>
</a>
</g>
</g>
<!-- Node4&#45;&gt;Node7 -->
<g id="edge7_Node000004_Node000007" class="edge">
<title>Node4&#45;&gt;Node7</title>
<g id="a_edge7_Node000004_Node000007"><a xlink:title=" ">
<path fill="none" stroke="#63b8ff" d="M196.99,-55.59C218.66,-47.05 250.89,-34.35 275.42,-24.68"/>
<polygon fill="#63b8ff" stroke="#63b8ff" points="276.65,-27.96 284.67,-21.03 274.08,-21.45 276.65,-27.96"/>
</a>
</g>
</g>
</g>
</svg>
