<?xml version="1.0" encoding="UTF-8" standalone="no"?>
<!DOCTYPE svg PUBLIC "-//W3C//DTD SVG 1.1//EN"
 "http://www.w3.org/Graphics/SVG/1.1/DTD/svg11.dtd">
<!-- Generated by graphviz version 13.1.2 (20250808.2320)
 -->
<!-- Title: src/Utils/Logger/NullLogger.hpp Pages: 1 -->
<svg width="562pt" height="264pt"
 viewBox="0.00 0.00 562.00 264.00" xmlns="http://www.w3.org/2000/svg" xmlns:xlink="http://www.w3.org/1999/xlink">
<g id="graph0" class="graph" transform="scale(1 1) rotate(0) translate(4 260)">
<title>src/Utils/Logger/NullLogger.hpp</title>
<!-- Node1 -->
<g id="Node000001" class="node">
<title>Node1</title>
<g id="a_Node000001"><a xlink:title=" ">
<polygon fill="#999999" stroke="#666666" points="300,-256 146.75,-256 146.75,-236 300,-236 300,-256"/>
<text xml:space="preserve" text-anchor="middle" x="223.38" y="-242.5" font-family="Helvetica,sans-Serif" font-size="10.00">src/Utils/Logger/NullLogger.hpp</text>
</a>
</g>
</g>
<!-- Node2 -->
<g id="Node000002" class="node">
<title>Node2</title>
<g id="a_Node000002"><a xlink:href="LoggerFactory_8cpp.html" target="_top" xlink:title=" ">
<polygon fill="white" stroke="#666666" points="224.5,-200 56.25,-200 56.25,-180 224.5,-180 224.5,-200"/>
<text xml:space="preserve" text-anchor="middle" x="140.38" y="-186.5" font-family="Helvetica,sans-Serif" font-size="10.00">src/Utils/Logger/LoggerFactory.cpp</text>
</a>
</g>
</g>
<!-- Node1&#45;&gt;Node2 -->
<g id="edge1_Node000001_Node000002" class="edge">
<title>Node1&#45;&gt;Node2</title>
<g id="a_edge1_Node000001_Node000002"><a xlink:title=" ">
<path fill="none" stroke="#63b8ff" d="M199.62,-229.54C185.21,-220.17 167.28,-208.51 154.95,-200.48"/>
<polygon fill="#63b8ff" stroke="#63b8ff" points="197.36,-232.25 207.65,-234.77 201.18,-226.38 197.36,-232.25"/>
</a>
</g>
</g>
<!-- Node3 -->
<g id="Node000003" class="node">
<title>Node3</title>
<g id="a_Node000003"><a xlink:href="UtilsFactory_8hpp.html" target="_top" xlink:title=" ">
<polygon fill="white" stroke="#666666" points="369.88,-200 242.88,-200 242.88,-180 369.88,-180 369.88,-200"/>
<text xml:space="preserve" text-anchor="middle" x="306.38" y="-186.5" font-family="Helvetica,sans-Serif" font-size="10.00">src/Utils/UtilsFactory.hpp</text>
</a>
</g>
</g>
<!-- Node1&#45;&gt;Node3 -->
<g id="edge2_Node000001_Node000003" class="edge">
<title>Node1&#45;&gt;Node3</title>
<g id="a_edge2_Node000001_Node000003"><a xlink:title=" ">
<path fill="none" stroke="#63b8ff" d="M247.13,-229.54C261.54,-220.17 279.47,-208.51 291.8,-200.48"/>
<polygon fill="#63b8ff" stroke="#63b8ff" points="245.57,-226.38 239.1,-234.77 249.39,-232.25 245.57,-226.38"/>
</a>
</g>
</g>
<!-- Node4 -->
<g id="Node000004" class="node">
<title>Node4</title>
<g id="a_Node000004"><a xlink:href="Application_8cpp.html" target="_top" xlink:title=" ">
<polygon fill="white" stroke="#666666" points="148.75,-76 0,-76 0,-56 148.75,-56 148.75,-76"/>
<text xml:space="preserve" text-anchor="middle" x="74.38" y="-62.5" font-family="Helvetica,sans-Serif" font-size="10.00">application/src/Application.cpp</text>
</a>
</g>
</g>
<!-- Node3&#45;&gt;Node4 -->
<g id="edge3_Node000003_Node000004" class="edge">
<title>Node3&#45;&gt;Node4</title>
<g id="a_edge3_Node000003_Node000004"><a xlink:title=" ">
<path fill="none" stroke="#63b8ff" d="M235.44,-177.62C178.27,-167.83 105.73,-153.79 95.38,-144 76.34,-126.01 73.97,-92.61 74.03,-76.37"/>
<polygon fill="#63b8ff" stroke="#63b8ff" points="234.71,-181.04 245.16,-179.26 235.88,-174.14 234.71,-181.04"/>
</a>
</g>
</g>
<!-- Node5 -->
<g id="Node000005" class="node">
<title>Node5</title>
<g id="a_Node000005"><a xlink:href="DotNameBotLib_8hpp.html" target="_top" xlink:title=" ">
<polygon fill="white" stroke="#666666" points="224.12,-144 104.62,-144 104.62,-112 224.12,-112 224.12,-144"/>
<text xml:space="preserve" text-anchor="start" x="112.62" y="-130.5" font-family="Helvetica,sans-Serif" font-size="10.00">include/DotNameBotLib</text>
<text xml:space="preserve" text-anchor="middle" x="164.38" y="-118.5" font-family="Helvetica,sans-Serif" font-size="10.00">/DotNameBotLib.hpp</text>
</a>
</g>
</g>
<!-- Node3&#45;&gt;Node5 -->
<g id="edge4_Node000003_Node000005" class="edge">
<title>Node3&#45;&gt;Node5</title>
<g id="a_edge4_Node000003_Node000005"><a xlink:title=" ">
<path fill="none" stroke="#63b8ff" d="M273.84,-175.25C252.13,-166.08 223.55,-154 201.04,-144.49"/>
<polygon fill="#63b8ff" stroke="#63b8ff" points="272.22,-178.37 282.79,-179.04 274.94,-171.92 272.22,-178.37"/>
</a>
</g>
</g>
<!-- Node7 -->
<g id="Node000007" class="node">
<title>Node7</title>
<g id="a_Node000007"><a xlink:href="DiscordBot_8hpp.html" target="_top" xlink:title=" ">
<polygon fill="white" stroke="#666666" points="540.25,-76 388.5,-76 388.5,-56 540.25,-56 540.25,-76"/>
<text xml:space="preserve" text-anchor="middle" x="464.38" y="-62.5" font-family="Helvetica,sans-Serif" font-size="10.00">src/DiscordBot/DiscordBot.hpp</text>
</a>
</g>
</g>
<!-- Node3&#45;&gt;Node7 -->
<g id="edge7_Node000003_Node000007" class="edge">
<title>Node3&#45;&gt;Node7</title>
<g id="a_edge7_Node000003_Node000007"><a xlink:title=" ">
<path fill="none" stroke="#63b8ff" d="M333.12,-174.11C347.28,-165.84 364.72,-155.01 379.38,-144 408.99,-121.76 440.44,-91.19 455.43,-76.13"/>
<polygon fill="#63b8ff" stroke="#63b8ff" points="331.71,-170.88 324.79,-178.9 335.2,-176.95 331.71,-170.88"/>
</a>
</g>
</g>
<!-- Node9 -->
<g id="Node000009" class="node">
<title>Node9</title>
<g id="a_Node000009"><a xlink:href="RssManager_8hpp.html" target="_top" xlink:title=" ">
<polygon fill="white" stroke="#666666" points="370.25,-138 242.5,-138 242.5,-118 370.25,-118 370.25,-138"/>
<text xml:space="preserve" text-anchor="middle" x="306.38" y="-124.5" font-family="Helvetica,sans-Serif" font-size="10.00">src/Rss/RssManager.hpp</text>
</a>
</g>
</g>
<!-- Node3&#45;&gt;Node9 -->
<g id="edge10_Node000003_Node000009" class="edge">
<title>Node3&#45;&gt;Node9</title>
<g id="a_edge10_Node000003_Node000009"><a xlink:title=" ">
<path fill="none" stroke="#63b8ff" d="M306.38,-168.25C306.38,-157.97 306.38,-146.09 306.38,-138.11"/>
<polygon fill="#63b8ff" stroke="#63b8ff" points="302.88,-168.11 306.38,-178.11 309.88,-168.11 302.88,-168.11"/>
</a>
</g>
</g>
<!-- Node11 -->
<g id="Node000011" class="node">
<title>Node11</title>
<g id="a_Node000011"><a xlink:href="UtilsFactory_8cpp.html" target="_top" xlink:title=" ">
<polygon fill="white" stroke="#666666" points="553.88,-138 426.88,-138 426.88,-118 553.88,-118 553.88,-138"/>
<text xml:space="preserve" text-anchor="middle" x="490.38" y="-124.5" font-family="Helvetica,sans-Serif" font-size="10.00">src/Utils/UtilsFactory.cpp</text>
</a>
</g>
</g>
<!-- Node3&#45;&gt;Node11 -->
<g id="edge14_Node000003_Node000011" class="edge">
<title>Node3&#45;&gt;Node11</title>
<g id="a_edge14_Node000003_Node000011"><a xlink:title=" ">
<path fill="none" stroke="#63b8ff" d="M345.84,-176.13C380.59,-164.8 430.38,-148.56 461.52,-138.41"/>
<polygon fill="#63b8ff" stroke="#63b8ff" points="344.99,-172.73 336.56,-179.16 347.16,-179.38 344.99,-172.73"/>
</a>
</g>
</g>
<!-- Node5&#45;&gt;Node4 -->
<g id="edge5_Node000005_Node000004" class="edge">
<title>Node5&#45;&gt;Node4</title>
<g id="a_edge5_Node000005_Node000004"><a xlink:title=" ">
<path fill="none" stroke="#63b8ff" d="M131.78,-105.27C116.9,-95.35 100.06,-84.12 88.49,-76.41"/>
<polygon fill="#63b8ff" stroke="#63b8ff" points="129.68,-108.07 139.94,-110.71 133.56,-102.25 129.68,-108.07"/>
</a>
</g>
</g>
<!-- Node6 -->
<g id="Node000006" class="node">
<title>Node6</title>
<g id="a_Node000006"><a xlink:href="DotNameBotLib_8cpp.html" target="_top" xlink:title=" ">
<polygon fill="white" stroke="#666666" points="274.88,-20 153.88,-20 153.88,0 274.88,0 274.88,-20"/>
<text xml:space="preserve" text-anchor="middle" x="214.38" y="-6.5" font-family="Helvetica,sans-Serif" font-size="10.00">src/DotNameBotLib.cpp</text>
</a>
</g>
</g>
<!-- Node5&#45;&gt;Node6 -->
<g id="edge6_Node000005_Node000006" class="edge">
<title>Node5&#45;&gt;Node6</title>
<g id="a_edge6_Node000005_Node000006"><a xlink:title=" ">
<path fill="none" stroke="#63b8ff" d="M175.41,-101.41C186.43,-75.84 202.78,-37.91 210.31,-20.44"/>
<polygon fill="#63b8ff" stroke="#63b8ff" points="172.25,-99.88 171.51,-110.45 178.68,-102.65 172.25,-99.88"/>
</a>
</g>
</g>
<!-- Node7&#45;&gt;Node6 -->
<g id="edge9_Node000007_Node000006" class="edge">
<title>Node7&#45;&gt;Node6</title>
<g id="a_edge9_Node000007_Node000006"><a xlink:title=" ">
<path fill="none" stroke="#63b8ff" d="M409.4,-53.13C363.94,-43.31 300.23,-29.54 258.16,-20.46"/>
<polygon fill="#63b8ff" stroke="#63b8ff" points="408.55,-56.52 419.06,-55.21 410.03,-49.68 408.55,-56.52"/>
</a>
</g>
</g>
<!-- Node8 -->
<g id="Node000008" class="node">
<title>Node8</title>
<g id="a_Node000008"><a xlink:href="DiscordBot_8cpp.html" target="_top" xlink:title=" ">
<polygon fill="white" stroke="#666666" points="540.25,-20 388.5,-20 388.5,0 540.25,0 540.25,-20"/>
<text xml:space="preserve" text-anchor="middle" x="464.38" y="-6.5" font-family="Helvetica,sans-Serif" font-size="10.00">src/DiscordBot/DiscordBot.cpp</text>
</a>
</g>
</g>
<!-- Node7&#45;&gt;Node8 -->
<g id="edge8_Node000007_Node000008" class="edge">
<title>Node7&#45;&gt;Node8</title>
<g id="a_edge8_Node000007_Node000008"><a xlink:title=" ">
<path fill="none" stroke="#63b8ff" d="M464.38,-44.13C464.38,-35.9 464.38,-26.85 464.38,-20.3"/>
<polygon fill="#63b8ff" stroke="#63b8ff" points="460.88,-44.08 464.38,-54.08 467.88,-44.08 460.88,-44.08"/>
</a>
</g>
</g>
<!-- Node9&#45;&gt;Node6 -->
<g id="edge12_Node000009_Node000006" class="edge">
<title>Node9&#45;&gt;Node6</title>
<g id="a_edge12_Node000009_Node000006"><a xlink:title=" ">
<path fill="none" stroke="#63b8ff" d="M276.01,-112.1C261.21,-103.43 244.29,-91.2 233.38,-76 221.03,-58.81 216.65,-33.66 215.14,-20.24"/>
<polygon fill="#63b8ff" stroke="#63b8ff" points="274.05,-115.02 284.49,-116.79 277.44,-108.89 274.05,-115.02"/>
</a>
</g>
</g>
<!-- Node9&#45;&gt;Node7 -->
<g id="edge11_Node000009_Node000007" class="edge">
<title>Node9&#45;&gt;Node7</title>
<g id="a_edge11_Node000009_Node000007"><a xlink:title=" ">
<path fill="none" stroke="#63b8ff" d="M341.82,-113.54C371.58,-102.24 413.32,-86.39 439.6,-76.41"/>
<polygon fill="#63b8ff" stroke="#63b8ff" points="340.58,-110.27 332.48,-117.09 343.07,-116.81 340.58,-110.27"/>
</a>
</g>
</g>
<!-- Node10 -->
<g id="Node000010" class="node">
<title>Node10</title>
<g id="a_Node000010"><a xlink:href="RssManager_8cpp.html" target="_top" xlink:title=" ">
<polygon fill="white" stroke="#666666" points="370.25,-76 242.5,-76 242.5,-56 370.25,-56 370.25,-76"/>
<text xml:space="preserve" text-anchor="middle" x="306.38" y="-62.5" font-family="Helvetica,sans-Serif" font-size="10.00">src/Rss/RssManager.cpp</text>
</a>
</g>
</g>
<!-- Node9&#45;&gt;Node10 -->
<g id="edge13_Node000009_Node000010" class="edge">
<title>Node9&#45;&gt;Node10</title>
<g id="a_edge13_Node000009_Node000010"><a xlink:title=" ">
<path fill="none" stroke="#63b8ff" d="M306.38,-106.25C306.38,-95.97 306.38,-84.09 306.38,-76.11"/>
<polygon fill="#63b8ff" stroke="#63b8ff" points="302.88,-106.11 306.38,-116.11 309.88,-106.11 302.88,-106.11"/>
</a>
</g>
</g>
</g>
</svg>
