<?xml version="1.0" encoding="UTF-8" standalone="no"?>
<!DOCTYPE svg PUBLIC "-//W3C//DTD SVG 1.1//EN"
 "http://www.w3.org/Graphics/SVG/1.1/DTD/svg11.dtd">
<!-- Generated by graphviz version 13.1.2 (20250808.2320)
 -->
<!-- Title: src/Utils/Logger/NullLogger.hpp Pages: 1 -->
<svg width="647pt" height="208pt"
 viewBox="0.00 0.00 647.00 208.00" xmlns="http://www.w3.org/2000/svg" xmlns:xlink="http://www.w3.org/1999/xlink">
<g id="graph0" class="graph" transform="scale(1 1) rotate(0) translate(4 204)">
<title>src/Utils/Logger/NullLogger.hpp</title>
<!-- Node1 -->
<g id="Node000001" class="node">
<title>Node1</title>
<g id="a_Node000001"><a xlink:title=" ">
<polygon fill="#999999" stroke="#666666" points="266,-200 112.75,-200 112.75,-180 266,-180 266,-200"/>
<text xml:space="preserve" text-anchor="middle" x="189.38" y="-186.5" font-family="Helvetica,sans-Serif" font-size="10.00">src/Utils/Logger/NullLogger.hpp</text>
</a>
</g>
</g>
<!-- Node2 -->
<g id="Node000002" class="node">
<title>Node2</title>
<g id="a_Node000002"><a xlink:href="LoggerFactory_8cpp.html" target="_top" xlink:title=" ">
<polygon fill="white" stroke="#666666" points="190.5,-144 22.25,-144 22.25,-124 190.5,-124 190.5,-144"/>
<text xml:space="preserve" text-anchor="middle" x="106.38" y="-130.5" font-family="Helvetica,sans-Serif" font-size="10.00">src/Utils/Logger/LoggerFactory.cpp</text>
</a>
</g>
</g>
<!-- Node1&#45;&gt;Node2 -->
<g id="edge1_Node000001_Node000002" class="edge">
<title>Node1&#45;&gt;Node2</title>
<g id="a_edge1_Node000001_Node000002"><a xlink:title=" ">
<path fill="none" stroke="#63b8ff" d="M165.62,-173.54C151.21,-164.17 133.28,-152.51 120.95,-144.48"/>
<polygon fill="#63b8ff" stroke="#63b8ff" points="163.36,-176.25 173.65,-178.77 167.18,-170.38 163.36,-176.25"/>
</a>
</g>
</g>
<!-- Node3 -->
<g id="Node000003" class="node">
<title>Node3</title>
<g id="a_Node000003"><a xlink:href="UtilsFactory_8hpp.html" target="_top" xlink:title=" ">
<polygon fill="white" stroke="#666666" points="335.88,-144 208.88,-144 208.88,-124 335.88,-124 335.88,-144"/>
<text xml:space="preserve" text-anchor="middle" x="272.38" y="-130.5" font-family="Helvetica,sans-Serif" font-size="10.00">src/Utils/UtilsFactory.hpp</text>
</a>
</g>
</g>
<!-- Node1&#45;&gt;Node3 -->
<g id="edge2_Node000001_Node000003" class="edge">
<title>Node1&#45;&gt;Node3</title>
<g id="a_edge2_Node000001_Node000003"><a xlink:title=" ">
<path fill="none" stroke="#63b8ff" d="M213.13,-173.54C227.54,-164.17 245.47,-152.51 257.8,-144.48"/>
<polygon fill="#63b8ff" stroke="#63b8ff" points="211.57,-170.38 205.1,-178.77 215.39,-176.25 211.57,-170.38"/>
</a>
</g>
</g>
<!-- Node4 -->
<g id="Node000004" class="node">
<title>Node4</title>
<g id="a_Node000004"><a xlink:href="Application_8cpp.html" target="_top" xlink:title=" ">
<polygon fill="white" stroke="#666666" points="148.75,-20 0,-20 0,0 148.75,0 148.75,-20"/>
<text xml:space="preserve" text-anchor="middle" x="74.38" y="-6.5" font-family="Helvetica,sans-Serif" font-size="10.00">application/src/Application.cpp</text>
</a>
</g>
</g>
<!-- Node3&#45;&gt;Node4 -->
<g id="edge3_Node000003_Node000004" class="edge">
<title>Node3&#45;&gt;Node4</title>
<g id="a_edge3_Node000003_Node000004"><a xlink:title=" ">
<path fill="none" stroke="#63b8ff" d="M197.46,-122.64C136.47,-113.44 58.93,-99.67 49.38,-88 32.73,-67.66 53.74,-35.95 66.28,-20.33"/>
<polygon fill="#63b8ff" stroke="#63b8ff" points="196.74,-126.07 207.14,-124.08 197.77,-119.15 196.74,-126.07"/>
</a>
</g>
</g>
<!-- Node5 -->
<g id="Node000005" class="node">
<title>Node5</title>
<g id="a_Node000005"><a xlink:href="DotNameBotLib_8hpp.html" target="_top" xlink:title=" ">
<polygon fill="white" stroke="#666666" points="178.12,-88 58.62,-88 58.62,-56 178.12,-56 178.12,-88"/>
<text xml:space="preserve" text-anchor="start" x="66.62" y="-74.5" font-family="Helvetica,sans-Serif" font-size="10.00">include/DotNameBotLib</text>
<text xml:space="preserve" text-anchor="middle" x="118.38" y="-62.5" font-family="Helvetica,sans-Serif" font-size="10.00">/DotNameBotLib.hpp</text>
</a>
</g>
</g>
<!-- Node3&#45;&gt;Node5 -->
<g id="edge4_Node000003_Node000005" class="edge">
<title>Node3&#45;&gt;Node5</title>
<g id="a_edge4_Node000003_Node000005"><a xlink:title=" ">
<path fill="none" stroke="#63b8ff" d="M237.73,-119.5C214.11,-110.3 182.77,-98.09 158.13,-88.49"/>
<polygon fill="#63b8ff" stroke="#63b8ff" points="236.31,-122.71 246.9,-123.08 238.86,-116.18 236.31,-122.71"/>
</a>
</g>
</g>
<!-- Node7 -->
<g id="Node000007" class="node">
<title>Node7</title>
<g id="a_Node000007"><a xlink:href="DiscordBot_8hpp.html" target="_top" xlink:title=" ">
<polygon fill="white" stroke="#666666" points="348.25,-82 196.5,-82 196.5,-62 348.25,-62 348.25,-82"/>
<text xml:space="preserve" text-anchor="middle" x="272.38" y="-68.5" font-family="Helvetica,sans-Serif" font-size="10.00">src/DiscordBot/DiscordBot.hpp</text>
</a>
</g>
</g>
<!-- Node3&#45;&gt;Node7 -->
<g id="edge7_Node000003_Node000007" class="edge">
<title>Node3&#45;&gt;Node7</title>
<g id="a_edge7_Node000003_Node000007"><a xlink:title=" ">
<path fill="none" stroke="#63b8ff" d="M272.38,-112.25C272.38,-101.97 272.38,-90.09 272.38,-82.11"/>
<polygon fill="#63b8ff" stroke="#63b8ff" points="268.88,-112.11 272.38,-122.11 275.88,-112.11 268.88,-112.11"/>
</a>
</g>
</g>
<!-- Node9 -->
<g id="Node000009" class="node">
<title>Node9</title>
<g id="a_Node000009"><a xlink:href="RssManager_8hpp.html" target="_top" xlink:title=" ">
<polygon fill="white" stroke="#666666" points="494.25,-82 366.5,-82 366.5,-62 494.25,-62 494.25,-82"/>
<text xml:space="preserve" text-anchor="middle" x="430.38" y="-68.5" font-family="Helvetica,sans-Serif" font-size="10.00">src/Rss/RssManager.hpp</text>
</a>
</g>
</g>
<!-- Node3&#45;&gt;Node9 -->
<g id="edge10_Node000003_Node000009" class="edge">
<title>Node3&#45;&gt;Node9</title>
<g id="a_edge10_Node000003_Node000009"><a xlink:title=" ">
<path fill="none" stroke="#63b8ff" d="M307.82,-119.54C337.58,-108.24 379.32,-92.39 405.6,-82.41"/>
<polygon fill="#63b8ff" stroke="#63b8ff" points="306.58,-116.27 298.48,-123.09 309.07,-122.81 306.58,-116.27"/>
</a>
</g>
</g>
<!-- Node11 -->
<g id="Node000011" class="node">
<title>Node11</title>
<g id="a_Node000011"><a xlink:href="UtilsFactory_8cpp.html" target="_top" xlink:title=" ">
<polygon fill="white" stroke="#666666" points="638.88,-82 511.88,-82 511.88,-62 638.88,-62 638.88,-82"/>
<text xml:space="preserve" text-anchor="middle" x="575.38" y="-68.5" font-family="Helvetica,sans-Serif" font-size="10.00">src/Utils/UtilsFactory.cpp</text>
</a>
</g>
</g>
<!-- Node3&#45;&gt;Node11 -->
<g id="edge14_Node000003_Node000011" class="edge">
<title>Node3&#45;&gt;Node11</title>
<g id="a_edge14_Node000003_Node000011"><a xlink:title=" ">
<path fill="none" stroke="#63b8ff" d="M333.1,-121.39C379.71,-112.43 445.65,-99.63 503.38,-88 512.14,-86.23 521.49,-84.31 530.46,-82.45"/>
<polygon fill="#63b8ff" stroke="#63b8ff" points="332.63,-117.92 323.47,-123.24 333.95,-124.8 332.63,-117.92"/>
</a>
</g>
</g>
<!-- Node5&#45;&gt;Node4 -->
<g id="edge5_Node000005_Node000004" class="edge">
<title>Node5&#45;&gt;Node4</title>
<g id="a_edge5_Node000005_Node000004"><a xlink:title=" ">
<path fill="none" stroke="#63b8ff" d="M100.34,-46.4C93.62,-37.24 86.39,-27.39 81.27,-20.41"/>
<polygon fill="#63b8ff" stroke="#63b8ff" points="97.41,-48.33 106.15,-54.33 103.06,-44.19 97.41,-48.33"/>
</a>
</g>
</g>
<!-- Node6 -->
<g id="Node000006" class="node">
<title>Node6</title>
<g id="a_Node000006"><a xlink:href="DotNameBotLib_8cpp.html" target="_top" xlink:title=" ">
<polygon fill="white" stroke="#666666" points="309.88,-20 188.88,-20 188.88,0 309.88,0 309.88,-20"/>
<text xml:space="preserve" text-anchor="middle" x="249.38" y="-6.5" font-family="Helvetica,sans-Serif" font-size="10.00">src/DotNameBotLib.cpp</text>
</a>
</g>
</g>
<!-- Node5&#45;&gt;Node6 -->
<g id="edge6_Node000005_Node000006" class="edge">
<title>Node5&#45;&gt;Node6</title>
<g id="a_edge6_Node000005_Node000006"><a xlink:title=" ">
<path fill="none" stroke="#63b8ff" d="M162.44,-50.82C184.89,-40.54 211.11,-28.53 228.83,-20.41"/>
<polygon fill="#63b8ff" stroke="#63b8ff" points="161.12,-47.57 153.49,-54.92 164.04,-53.94 161.12,-47.57"/>
</a>
</g>
</g>
<!-- Node7&#45;&gt;Node6 -->
<g id="edge9_Node000007_Node000006" class="edge">
<title>Node7&#45;&gt;Node6</title>
<g id="a_edge9_Node000007_Node000006"><a xlink:title=" ">
<path fill="none" stroke="#63b8ff" d="M264.68,-50.93C260.68,-40.5 255.99,-28.26 252.87,-20.11"/>
<polygon fill="#63b8ff" stroke="#63b8ff" points="261.39,-52.13 268.24,-60.21 267.93,-49.62 261.39,-52.13"/>
</a>
</g>
</g>
<!-- Node8 -->
<g id="Node000008" class="node">
<title>Node8</title>
<g id="a_Node000008"><a xlink:href="DiscordBot_8cpp.html" target="_top" xlink:title=" ">
<polygon fill="white" stroke="#666666" points="479.25,-20 327.5,-20 327.5,0 479.25,0 479.25,-20"/>
<text xml:space="preserve" text-anchor="middle" x="403.38" y="-6.5" font-family="Helvetica,sans-Serif" font-size="10.00">src/DiscordBot/DiscordBot.cpp</text>
</a>
</g>
</g>
<!-- Node7&#45;&gt;Node8 -->
<g id="edge8_Node000007_Node000008" class="edge">
<title>Node7&#45;&gt;Node8</title>
<g id="a_edge8_Node000007_Node000008"><a xlink:title=" ">
<path fill="none" stroke="#63b8ff" d="M303.11,-56.92C327.76,-45.63 361.67,-30.1 383.05,-20.31"/>
<polygon fill="#63b8ff" stroke="#63b8ff" points="301.85,-53.65 294.22,-60.99 304.77,-60.01 301.85,-53.65"/>
</a>
</g>
</g>
<!-- Node9&#45;&gt;Node6 -->
<g id="edge12_Node000009_Node000006" class="edge">
<title>Node9&#45;&gt;Node6</title>
<g id="a_edge12_Node000009_Node000006"><a xlink:title=" ">
<path fill="none" stroke="#63b8ff" d="M391.56,-58.13C357.37,-46.8 308.39,-30.56 277.76,-20.41"/>
<polygon fill="#63b8ff" stroke="#63b8ff" points="390.06,-61.32 400.66,-61.15 392.27,-54.68 390.06,-61.32"/>
</a>
</g>
</g>
<!-- Node9&#45;&gt;Node8 -->
<g id="edge11_Node000009_Node000008" class="edge">
<title>Node9&#45;&gt;Node8</title>
<g id="a_edge11_Node000009_Node000008"><a xlink:title=" ">
<path fill="none" stroke="#63b8ff" d="M421.49,-51.27C416.77,-40.76 411.18,-28.35 407.48,-20.11"/>
<polygon fill="#63b8ff" stroke="#63b8ff" points="418.24,-52.56 425.54,-60.24 424.62,-49.69 418.24,-52.56"/>
</a>
</g>
</g>
<!-- Node10 -->
<g id="Node000010" class="node">
<title>Node10</title>
<g id="a_Node000010"><a xlink:href="RssManager_8cpp.html" target="_top" xlink:title=" ">
<polygon fill="white" stroke="#666666" points="625.25,-20 497.5,-20 497.5,0 625.25,0 625.25,-20"/>
<text xml:space="preserve" text-anchor="middle" x="561.38" y="-6.5" font-family="Helvetica,sans-Serif" font-size="10.00">src/Rss/RssManager.cpp</text>
</a>
</g>
</g>
<!-- Node9&#45;&gt;Node10 -->
<g id="edge13_Node000009_Node000010" class="edge">
<title>Node9&#45;&gt;Node10</title>
<g id="a_edge13_Node000009_Node000010"><a xlink:title=" ">
<path fill="none" stroke="#63b8ff" d="M461.11,-56.92C485.76,-45.63 519.67,-30.1 541.05,-20.31"/>
<polygon fill="#63b8ff" stroke="#63b8ff" points="459.85,-53.65 452.22,-60.99 462.77,-60.01 459.85,-53.65"/>
</a>
</g>
</g>
</g>
</svg>
