<?xml version="1.0" encoding="UTF-8" standalone="no"?>
<!DOCTYPE svg PUBLIC "-//W3C//DTD SVG 1.1//EN"
 "http://www.w3.org/Graphics/SVG/1.1/DTD/svg11.dtd">
<!-- Generated by graphviz version 13.1.2 (20250808.2320)
 -->
<!-- Title: src/Orchestrator/Orchestrator.hpp Pages: 1 -->
<svg width="503pt" height="152pt"
 viewBox="0.00 0.00 503.00 152.00" xmlns="http://www.w3.org/2000/svg" xmlns:xlink="http://www.w3.org/1999/xlink">
<g id="graph0" class="graph" transform="scale(1 1) rotate(0) translate(4 148)">
<title>src/Orchestrator/Orchestrator.hpp</title>
<!-- Node1 -->
<g id="Node000001" class="node">
<title>Node1</title>
<g id="a_Node000001"><a xlink:title=" ">
<polygon fill="#999999" stroke="#666666" points="379.25,-144 217,-144 217,-124 379.25,-124 379.25,-144"/>
<text xml:space="preserve" text-anchor="middle" x="298.12" y="-130.5" font-family="Helvetica,sans-Serif" font-size="10.00">src/Orchestrator/Orchestrator.hpp</text>
</a>
</g>
</g>
<!-- Node2 -->
<g id="Node000002" class="node">
<title>Node2</title>
<g id="a_Node000002"><a xlink:href="ILifeCycle_8hpp.html" target="_top" xlink:title=" ">
<polygon fill="white" stroke="#666666" points="126.25,-82 0,-82 0,-62 126.25,-62 126.25,-82"/>
<text xml:space="preserve" text-anchor="middle" x="63.12" y="-68.5" font-family="Helvetica,sans-Serif" font-size="10.00">ILifeCycle/ILifeCycle.hpp</text>
</a>
</g>
</g>
<!-- Node1&#45;&gt;Node2 -->
<g id="edge1_Node000001_Node000002" class="edge">
<title>Node1&#45;&gt;Node2</title>
<g id="a_edge1_Node000001_Node000002"><a xlink:title=" ">
<path fill="none" stroke="#63b8ff" d="M261.15,-123.56C220.72,-113.24 155.79,-96.66 111.38,-85.32"/>
<polygon fill="#63b8ff" stroke="#63b8ff" points="112.3,-81.94 101.74,-82.86 110.56,-88.72 112.3,-81.94"/>
</a>
</g>
</g>
<!-- Node4 -->
<g id="Node000004" class="node">
<title>Node4</title>
<g id="a_Node000004"><a xlink:href="ServiceContainer_8hpp.html" target="_top" xlink:title=" ">
<polygon fill="white" stroke="#666666" points="309.62,-88 182.62,-88 182.62,-56 309.62,-56 309.62,-88"/>
<text xml:space="preserve" text-anchor="start" x="190.62" y="-74.5" font-family="Helvetica,sans-Serif" font-size="10.00">ServiceContainer/Service</text>
<text xml:space="preserve" text-anchor="middle" x="246.12" y="-62.5" font-family="Helvetica,sans-Serif" font-size="10.00">Container.hpp</text>
</a>
</g>
</g>
<!-- Node1&#45;&gt;Node4 -->
<g id="edge3_Node000001_Node000004" class="edge">
<title>Node1&#45;&gt;Node4</title>
<g id="a_edge3_Node000001_Node000004"><a xlink:title=" ">
<path fill="none" stroke="#63b8ff" d="M290,-123.62C283.77,-116.43 274.87,-106.17 266.72,-96.77"/>
<polygon fill="#63b8ff" stroke="#63b8ff" points="269.43,-94.55 260.24,-89.28 264.14,-99.13 269.43,-94.55"/>
</a>
</g>
</g>
<!-- Node5 -->
<g id="Node000005" class="node">
<title>Node5</title>
<g id="a_Node000005"><a xlink:title=" ">
<polygon fill="#e0e0e0" stroke="#999999" points="179.75,-20 128.5,-20 128.5,0 179.75,0 179.75,-20"/>
<text xml:space="preserve" text-anchor="middle" x="154.12" y="-6.5" font-family="Helvetica,sans-Serif" font-size="10.00">memory</text>
</a>
</g>
</g>
<!-- Node1&#45;&gt;Node5 -->
<g id="edge10_Node000001_Node000005" class="edge">
<title>Node1&#45;&gt;Node5</title>
<g id="a_edge10_Node000001_Node000005"><a xlink:title=" ">
<path fill="none" stroke="#63b8ff" d="M238.09,-123.52C215.22,-117.06 190.7,-106.21 174.12,-88 160.13,-72.62 155.68,-48.7 154.39,-31.6"/>
<polygon fill="#63b8ff" stroke="#63b8ff" points="157.89,-31.7 153.97,-21.86 150.9,-32 157.89,-31.7"/>
</a>
</g>
</g>
<!-- Node9 -->
<g id="Node000009" class="node">
<title>Node9</title>
<g id="a_Node000009"><a xlink:title=" ">
<polygon fill="#e0e0e0" stroke="#999999" points="372.75,-82 327.5,-82 327.5,-62 372.75,-62 372.75,-82"/>
<text xml:space="preserve" text-anchor="middle" x="350.12" y="-68.5" font-family="Helvetica,sans-Serif" font-size="10.00">atomic</text>
</a>
</g>
</g>
<!-- Node1&#45;&gt;Node9 -->
<g id="edge9_Node000001_Node000009" class="edge">
<title>Node1&#45;&gt;Node9</title>
<g id="a_edge9_Node000001_Node000009"><a xlink:title=" ">
<path fill="none" stroke="#63b8ff" d="M306.25,-123.62C313.85,-114.86 325.4,-101.53 334.74,-90.75"/>
<polygon fill="#63b8ff" stroke="#63b8ff" points="337.33,-93.11 341.24,-83.26 332.04,-88.52 337.33,-93.11"/>
</a>
</g>
</g>
<!-- Node10 -->
<g id="Node000010" class="node">
<title>Node10</title>
<g id="a_Node000010"><a xlink:title=" ">
<polygon fill="#e0e0e0" stroke="#999999" points="433.62,-82 390.62,-82 390.62,-62 433.62,-62 433.62,-82"/>
<text xml:space="preserve" text-anchor="middle" x="412.12" y="-68.5" font-family="Helvetica,sans-Serif" font-size="10.00">thread</text>
</a>
</g>
</g>
<!-- Node1&#45;&gt;Node10 -->
<g id="edge11_Node000001_Node000010" class="edge">
<title>Node1&#45;&gt;Node10</title>
<g id="a_edge11_Node000001_Node000010"><a xlink:title=" ">
<path fill="none" stroke="#63b8ff" d="M315.94,-123.62C334.26,-113.98 363.05,-98.83 384.36,-87.61"/>
<polygon fill="#63b8ff" stroke="#63b8ff" points="385.88,-90.77 393.1,-83.01 382.62,-84.57 385.88,-90.77"/>
</a>
</g>
</g>
<!-- Node11 -->
<g id="Node000011" class="node">
<title>Node11</title>
<g id="a_Node000011"><a xlink:title=" ">
<polygon fill="#e0e0e0" stroke="#999999" points="494.62,-82 451.62,-82 451.62,-62 494.62,-62 494.62,-82"/>
<text xml:space="preserve" text-anchor="middle" x="473.12" y="-68.5" font-family="Helvetica,sans-Serif" font-size="10.00">vector</text>
</a>
</g>
</g>
<!-- Node1&#45;&gt;Node11 -->
<g id="edge12_Node000001_Node000011" class="edge">
<title>Node1&#45;&gt;Node11</title>
<g id="a_edge12_Node000001_Node000011"><a xlink:title=" ">
<path fill="none" stroke="#63b8ff" d="M334.45,-123.5C364.12,-115.32 406.93,-102.55 443.12,-88 443.89,-87.69 444.67,-87.37 445.45,-87.04"/>
<polygon fill="#63b8ff" stroke="#63b8ff" points="446.59,-90.37 454.2,-83 443.66,-84.01 446.59,-90.37"/>
</a>
</g>
</g>
<!-- Node3 -->
<g id="Node000003" class="node">
<title>Node3</title>
<g id="a_Node000003"><a xlink:title=" ">
<polygon fill="#e0e0e0" stroke="#999999" points="97.12,-20 57.12,-20 57.12,0 97.12,0 97.12,-20"/>
<text xml:space="preserve" text-anchor="middle" x="77.12" y="-6.5" font-family="Helvetica,sans-Serif" font-size="10.00">string</text>
</a>
</g>
</g>
<!-- Node2&#45;&gt;Node3 -->
<g id="edge2_Node000002_Node000003" class="edge">
<title>Node2&#45;&gt;Node3</title>
<g id="a_edge2_Node000002_Node000003"><a xlink:title=" ">
<path fill="none" stroke="#63b8ff" d="M65.31,-61.62C67.21,-53.48 70.03,-41.39 72.44,-31.07"/>
<polygon fill="#63b8ff" stroke="#63b8ff" points="75.79,-32.12 74.65,-21.59 68.97,-30.53 75.79,-32.12"/>
</a>
</g>
</g>
<!-- Node4&#45;&gt;Node3 -->
<g id="edge6_Node000004_Node000003" class="edge">
<title>Node4&#45;&gt;Node3</title>
<g id="a_edge6_Node000004_Node000003"><a xlink:title=" ">
<path fill="none" stroke="#63b8ff" d="M202.6,-55.55C172.99,-45.04 134.53,-31.38 108.03,-21.97"/>
<polygon fill="#63b8ff" stroke="#63b8ff" points="109.49,-18.78 98.9,-18.73 107.15,-25.37 109.49,-18.78"/>
</a>
</g>
</g>
<!-- Node4&#45;&gt;Node5 -->
<g id="edge4_Node000004_Node000005" class="edge">
<title>Node4&#45;&gt;Node5</title>
<g id="a_edge4_Node000004_Node000005"><a xlink:title=" ">
<path fill="none" stroke="#63b8ff" d="M222.43,-55.55C208.72,-46.61 191.53,-35.39 177.82,-26.45"/>
<polygon fill="#63b8ff" stroke="#63b8ff" points="180.11,-23.77 169.82,-21.23 176.28,-29.63 180.11,-23.77"/>
</a>
</g>
</g>
<!-- Node6 -->
<g id="Node000006" class="node">
<title>Node6</title>
<g id="a_Node000006"><a xlink:title=" ">
<polygon fill="#e0e0e0" stroke="#999999" points="256.5,-20 197.75,-20 197.75,0 256.5,0 256.5,-20"/>
<text xml:space="preserve" text-anchor="middle" x="227.12" y="-6.5" font-family="Helvetica,sans-Serif" font-size="10.00">stdexcept</text>
</a>
</g>
</g>
<!-- Node4&#45;&gt;Node6 -->
<g id="edge5_Node000004_Node000006" class="edge">
<title>Node4&#45;&gt;Node6</title>
<g id="a_edge5_Node000004_Node000006"><a xlink:title=" ">
<path fill="none" stroke="#63b8ff" d="M241.23,-55.55C238.9,-48.17 236.07,-39.24 233.56,-31.32"/>
<polygon fill="#63b8ff" stroke="#63b8ff" points="236.92,-30.33 230.56,-21.85 230.24,-32.44 236.92,-30.33"/>
</a>
</g>
</g>
<!-- Node7 -->
<g id="Node000007" class="node">
<title>Node7</title>
<g id="a_Node000007"><a xlink:title=" ">
<polygon fill="#e0e0e0" stroke="#999999" points="332.12,-20 274.12,-20 274.12,0 332.12,0 332.12,-20"/>
<text xml:space="preserve" text-anchor="middle" x="303.12" y="-6.5" font-family="Helvetica,sans-Serif" font-size="10.00">typeindex</text>
</a>
</g>
</g>
<!-- Node4&#45;&gt;Node7 -->
<g id="edge7_Node000004_Node000007" class="edge">
<title>Node4&#45;&gt;Node7</title>
<g id="a_edge7_Node000004_Node000007"><a xlink:title=" ">
<path fill="none" stroke="#63b8ff" d="M260.8,-55.55C268.64,-47.3 278.31,-37.12 286.43,-28.57"/>
<polygon fill="#63b8ff" stroke="#63b8ff" points="288.79,-31.17 293.14,-21.51 283.72,-26.34 288.79,-31.17"/>
</a>
</g>
</g>
<!-- Node8 -->
<g id="Node000008" class="node">
<title>Node8</title>
<g id="a_Node000008"><a xlink:title=" ">
<polygon fill="#e0e0e0" stroke="#999999" points="432.5,-20 349.75,-20 349.75,0 432.5,0 432.5,-20"/>
<text xml:space="preserve" text-anchor="middle" x="391.12" y="-6.5" font-family="Helvetica,sans-Serif" font-size="10.00">unordered_map</text>
</a>
</g>
</g>
<!-- Node4&#45;&gt;Node8 -->
<g id="edge8_Node000004_Node000008" class="edge">
<title>Node4&#45;&gt;Node8</title>
<g id="a_edge8_Node000004_Node000008"><a xlink:title=" ">
<path fill="none" stroke="#63b8ff" d="M283.47,-55.55C306.44,-46.04 335.62,-33.97 357.81,-24.79"/>
<polygon fill="#63b8ff" stroke="#63b8ff" points="359.09,-28.04 366.99,-20.99 356.41,-21.58 359.09,-28.04"/>
</a>
</g>
</g>
</g>
</svg>
