<?xml version="1.0" encoding="UTF-8" standalone="no"?>
<!DOCTYPE svg PUBLIC "-//W3C//DTD SVG 1.1//EN"
 "http://www.w3.org/Graphics/SVG/1.1/DTD/svg11.dtd">
<!-- Generated by graphviz version 13.1.2 (20250808.2320)
 -->
<!-- Title: src/Rss/RSSFeed.cpp Pages: 1 -->
<svg width="204pt" height="196pt"
 viewBox="0.00 0.00 204.00 196.00" xmlns="http://www.w3.org/2000/svg" xmlns:xlink="http://www.w3.org/1999/xlink">

<svg id="main" version="1.1" xmlns="http://www.w3.org/2000/svg" xmlns:xlink="http://www.w3.org/1999/xlink" xml:space="preserve">

<style type="text/css"><![CDATA[
.node, .edge {opacity: 0.7;}
.node.selected, .edge.selected {opacity: 1;}
.edge:hover path { stroke: red; }
.edge:hover polygon { stroke: red; fill: red; }
]]></style>
<script type="application/ecmascript" xlink:href="svg.min.js"/>
<svg id="graph" class="graph">
<g id="graph0" class="graph" transform="scale(1 1) rotate(0) translate(4 192)">
<title>src/Rss/RSSFeed.cpp</title>
<!-- Node1 -->
<g id="Node000001" class="node">
<title>Node1</title>
<g id="a_Node000001"><a xlink:title=" ">
<polygon fill="#999999" stroke="#666666" points="181.62,-188 66.62,-188 66.62,-168 181.62,-168 181.62,-188"/>
<text xml:space="preserve" text-anchor="middle" x="124.12" y="-174.5" font-family="Helvetica,sans-Serif" font-size="10.00">src/Rss/RSSFeed.cpp</text>
</a>
</g>
</g>
<!-- Node2 -->
<g id="Node000002" class="node">
<title>Node2</title>
<g id="a_Node000002"><a xlink:href="RSSFeed_8hpp.html" target="_top" xlink:title=" ">
<polygon fill="white" stroke="#666666" points="173.38,-132 74.88,-132 74.88,-112 173.38,-112 173.38,-132"/>
<text xml:space="preserve" text-anchor="middle" x="124.12" y="-118.5" font-family="Helvetica,sans-Serif" font-size="10.00">Rss/RSSFeed.hpp</text>
</a>
</g>
</g>
<!-- Node1&#45;&gt;Node2 -->
<g id="edge1_Node000001_Node000002" class="edge">
<title>Node1&#45;&gt;Node2</title>
<g id="a_edge1_Node000001_Node000002"><a xlink:title=" ">
<path fill="none" stroke="#63b8ff" d="M124.12,-167.59C124.12,-161.01 124.12,-151.96 124.12,-143.73"/>
<polygon fill="#63b8ff" stroke="#63b8ff" points="127.63,-143.81 124.13,-133.81 120.63,-143.81 127.63,-143.81"/>
</a>
</g>
</g>
<!-- Node3 -->
<g id="Node000003" class="node">
<title>Node3</title>
<g id="a_Node000003"><a xlink:href="RSSItem_8hpp.html" target="_top" xlink:title=" ">
<polygon fill="white" stroke="#666666" points="96.25,-76 0,-76 0,-56 96.25,-56 96.25,-76"/>
<text xml:space="preserve" text-anchor="middle" x="48.12" y="-62.5" font-family="Helvetica,sans-Serif" font-size="10.00">Rss/RSSItem.hpp</text>
</a>
</g>
</g>
<!-- Node2&#45;&gt;Node3 -->
<g id="edge2_Node000002_Node000003" class="edge">
<title>Node2&#45;&gt;Node3</title>
<g id="a_edge2_Node000002_Node000003"><a xlink:title=" ">
<path fill="none" stroke="#63b8ff" d="M110.89,-111.59C99.84,-103.74 83.84,-92.38 70.77,-83.09"/>
<polygon fill="#63b8ff" stroke="#63b8ff" points="72.88,-80.3 62.7,-77.36 68.82,-86 72.88,-80.3"/>
</a>
</g>
</g>
<!-- Node5 -->
<g id="Node000005" class="node">
<title>Node5</title>
<g id="a_Node000005"><a xlink:title=" ">
<polygon fill="#e0e0e0" stroke="#999999" points="136.12,-20 96.12,-20 96.12,0 136.12,0 136.12,-20"/>
<text xml:space="preserve" text-anchor="middle" x="116.12" y="-6.5" font-family="Helvetica,sans-Serif" font-size="10.00">string</text>
</a>
</g>
</g>
<!-- Node2&#45;&gt;Node5 -->
<g id="edge5_Node000002_Node000005" class="edge">
<title>Node2&#45;&gt;Node5</title>
<g id="a_edge5_Node000002_Node000005"><a xlink:title=" ">
<path fill="none" stroke="#63b8ff" d="M123.44,-111.62C122.16,-94.01 119.37,-55.59 117.63,-31.65"/>
<polygon fill="#63b8ff" stroke="#63b8ff" points="121.13,-31.58 116.92,-21.86 114.15,-32.09 121.13,-31.58"/>
</a>
</g>
</g>
<!-- Node6 -->
<g id="Node000006" class="node">
<title>Node6</title>
<g id="a_Node000006"><a xlink:title=" ">
<polygon fill="#e0e0e0" stroke="#999999" points="195.62,-76 152.62,-76 152.62,-56 195.62,-56 195.62,-76"/>
<text xml:space="preserve" text-anchor="middle" x="174.12" y="-62.5" font-family="Helvetica,sans-Serif" font-size="10.00">vector</text>
</a>
</g>
</g>
<!-- Node2&#45;&gt;Node6 -->
<g id="edge6_Node000002_Node000006" class="edge">
<title>Node2&#45;&gt;Node6</title>
<g id="a_edge6_Node000002_Node000006"><a xlink:title=" ">
<path fill="none" stroke="#63b8ff" d="M132.83,-111.59C139.72,-104.16 149.52,-93.58 157.84,-84.58"/>
<polygon fill="#63b8ff" stroke="#63b8ff" points="160.26,-87.12 164.49,-77.41 155.12,-82.37 160.26,-87.12"/>
</a>
</g>
</g>
<!-- Node4 -->
<g id="Node000004" class="node">
<title>Node4</title>
<g id="a_Node000004"><a xlink:title=" ">
<polygon fill="#e0e0e0" stroke="#999999" points="70.75,-20 25.5,-20 25.5,0 70.75,0 70.75,-20"/>
<text xml:space="preserve" text-anchor="middle" x="48.12" y="-6.5" font-family="Helvetica,sans-Serif" font-size="10.00">cstdint</text>
</a>
</g>
</g>
<!-- Node3&#45;&gt;Node4 -->
<g id="edge3_Node000003_Node000004" class="edge">
<title>Node3&#45;&gt;Node4</title>
<g id="a_edge3_Node000003_Node000004"><a xlink:title=" ">
<path fill="none" stroke="#63b8ff" d="M48.12,-55.59C48.12,-49.01 48.12,-39.96 48.12,-31.73"/>
<polygon fill="#63b8ff" stroke="#63b8ff" points="51.63,-31.81 48.13,-21.81 44.63,-31.81 51.63,-31.81"/>
</a>
</g>
</g>
<!-- Node3&#45;&gt;Node5 -->
<g id="edge4_Node000003_Node000005" class="edge">
<title>Node3&#45;&gt;Node5</title>
<g id="a_edge4_Node000003_Node000005"><a xlink:title=" ">
<path fill="none" stroke="#63b8ff" d="M59.97,-55.59C69.82,-47.77 84.06,-36.46 95.73,-27.19"/>
<polygon fill="#63b8ff" stroke="#63b8ff" points="97.58,-30.2 103.23,-21.24 93.22,-24.72 97.58,-30.2"/>
</a>
</g>
</g>
</g>
</svg>
</svg>

<style type='text/css'>
<![CDATA[
[data-mouse-over-selected='false'] { opacity: 0.7; }
[data-mouse-over-selected='true']  { opacity: 1.0; }
]]>
</style>
<script type="application/ecmascript"><![CDATA[
document.addEventListener('DOMContentLoaded', (event) => {
  highlightEdges();
  highlightAdjacentNodes();
});
]]></script>
</svg>
