<?xml version="1.0" encoding="UTF-8" standalone="no"?>
<!DOCTYPE svg PUBLIC "-//W3C//DTD SVG 1.1//EN"
 "http://www.w3.org/Graphics/SVG/1.1/DTD/svg11.dtd">
<!-- Generated by graphviz version 13.1.2 (20250808.2320)
 -->
<!-- Title: src/Rss/RSSFeed.hpp Pages: 1 -->
<svg width="389pt" height="196pt"
 viewBox="0.00 0.00 389.00 196.00" xmlns="http://www.w3.org/2000/svg" xmlns:xlink="http://www.w3.org/1999/xlink">

<svg id="main" version="1.1" xmlns="http://www.w3.org/2000/svg" xmlns:xlink="http://www.w3.org/1999/xlink" xml:space="preserve">

<style type="text/css"><![CDATA[
.node, .edge {opacity: 0.7;}
.node.selected, .edge.selected {opacity: 1;}
.edge:hover path { stroke: red; }
.edge:hover polygon { stroke: red; fill: red; }
]]></style>
<script type="application/ecmascript" xlink:href="svg.min.js"/>
<svg id="graph" class="graph">
<g id="graph0" class="graph" transform="scale(1 1) rotate(0) translate(4 192)">
<title>src/Rss/RSSFeed.hpp</title>
<!-- Node1 -->
<g id="Node000001" class="node">
<title>Node1</title>
<g id="a_Node000001"><a xlink:title=" ">
<polygon fill="#999999" stroke="#666666" points="367,-188 252,-188 252,-168 367,-168 367,-188"/>
<text xml:space="preserve" text-anchor="middle" x="309.5" y="-174.5" font-family="Helvetica,sans-Serif" font-size="10.00">src/Rss/RSSFeed.hpp</text>
</a>
</g>
</g>
<!-- Node2 -->
<g id="Node000002" class="node">
<title>Node2</title>
<g id="a_Node000002"><a xlink:href="RSSItem_8hpp.html" target="_top" xlink:title=" ">
<polygon fill="white" stroke="#666666" points="230.62,-132 134.38,-132 134.38,-112 230.62,-112 230.62,-132"/>
<text xml:space="preserve" text-anchor="middle" x="182.5" y="-118.5" font-family="Helvetica,sans-Serif" font-size="10.00">Rss/RSSItem.hpp</text>
</a>
</g>
</g>
<!-- Node1&#45;&gt;Node2 -->
<g id="edge1_Node000001_Node000002" class="edge">
<title>Node1&#45;&gt;Node2</title>
<g id="a_edge1_Node000001_Node000002"><a xlink:title=" ">
<path fill="none" stroke="#63b8ff" d="M287.38,-167.59C267.47,-159.13 237.95,-146.58 215.29,-136.94"/>
<polygon fill="#63b8ff" stroke="#63b8ff" points="216.76,-133.76 206.19,-133.07 214.02,-140.21 216.76,-133.76"/>
</a>
</g>
</g>
<!-- Node4 -->
<g id="Node000004" class="node">
<title>Node4</title>
<g id="a_Node000004"><a xlink:title=" ">
<polygon fill="#e0e0e0" stroke="#999999" points="151.5,-20 111.5,-20 111.5,0 151.5,0 151.5,-20"/>
<text xml:space="preserve" text-anchor="middle" x="131.5" y="-6.5" font-family="Helvetica,sans-Serif" font-size="10.00">string</text>
</a>
</g>
</g>
<!-- Node1&#45;&gt;Node4 -->
<g id="edge7_Node000001_Node000004" class="edge">
<title>Node1&#45;&gt;Node4</title>
<g id="a_edge7_Node000001_Node000004"><a xlink:title=" ">
<path fill="none" stroke="#63b8ff" d="M311.08,-167.74C314.3,-145.46 319.14,-88.3 290.5,-56 258.44,-19.84 199.72,-11.78 163.32,-10.5"/>
<polygon fill="#63b8ff" stroke="#63b8ff" points="163.47,-7 153.41,-10.32 163.34,-14 163.47,-7"/>
</a>
</g>
</g>
<!-- Node7 -->
<g id="Node000007" class="node">
<title>Node7</title>
<g id="a_Node000007"><a xlink:title=" ">
<polygon fill="#e0e0e0" stroke="#999999" points="381,-132 338,-132 338,-112 381,-112 381,-132"/>
<text xml:space="preserve" text-anchor="middle" x="359.5" y="-118.5" font-family="Helvetica,sans-Serif" font-size="10.00">vector</text>
</a>
</g>
</g>
<!-- Node1&#45;&gt;Node7 -->
<g id="edge8_Node000001_Node000007" class="edge">
<title>Node1&#45;&gt;Node7</title>
<g id="a_edge8_Node000001_Node000007"><a xlink:title=" ">
<path fill="none" stroke="#63b8ff" d="M318.21,-167.59C325.09,-160.16 334.89,-149.58 343.22,-140.58"/>
<polygon fill="#63b8ff" stroke="#63b8ff" points="345.64,-143.12 349.86,-133.41 340.5,-138.37 345.64,-143.12"/>
</a>
</g>
</g>
<!-- Node3 -->
<g id="Node000003" class="node">
<title>Node3</title>
<g id="a_Node000003"><a xlink:href="RSSMedia_8hpp.html" target="_top" xlink:title=" ">
<polygon fill="white" stroke="#666666" points="103,-76 0,-76 0,-56 103,-56 103,-76"/>
<text xml:space="preserve" text-anchor="middle" x="51.5" y="-62.5" font-family="Helvetica,sans-Serif" font-size="10.00">Rss/RSSMedia.hpp</text>
</a>
</g>
</g>
<!-- Node2&#45;&gt;Node3 -->
<g id="edge2_Node000002_Node000003" class="edge">
<title>Node2&#45;&gt;Node3</title>
<g id="a_edge2_Node000002_Node000003"><a xlink:title=" ">
<path fill="none" stroke="#63b8ff" d="M159.68,-111.59C139.05,-103.09 108.42,-90.46 85.01,-80.81"/>
<polygon fill="#63b8ff" stroke="#63b8ff" points="86.48,-77.63 75.9,-77.06 83.81,-84.1 86.48,-77.63"/>
</a>
</g>
</g>
<!-- Node2&#45;&gt;Node4 -->
<g id="edge6_Node000002_Node000004" class="edge">
<title>Node2&#45;&gt;Node4</title>
<g id="a_edge6_Node000002_Node000004"><a xlink:title=" ">
<path fill="none" stroke="#63b8ff" d="M174.37,-111.59C167.21,-102.87 156.94,-89.29 150.5,-76 143.58,-61.73 138.68,-44.45 135.59,-31.3"/>
<polygon fill="#63b8ff" stroke="#63b8ff" points="139.04,-30.69 133.5,-21.66 132.2,-32.17 139.04,-30.69"/>
</a>
</g>
</g>
<!-- Node5 -->
<g id="Node000005" class="node">
<title>Node5</title>
<g id="a_Node000005"><a xlink:title=" ">
<polygon fill="#e0e0e0" stroke="#999999" points="205.12,-76 159.88,-76 159.88,-56 205.12,-56 205.12,-76"/>
<text xml:space="preserve" text-anchor="middle" x="182.5" y="-62.5" font-family="Helvetica,sans-Serif" font-size="10.00">cstdint</text>
</a>
</g>
</g>
<!-- Node2&#45;&gt;Node5 -->
<g id="edge4_Node000002_Node000005" class="edge">
<title>Node2&#45;&gt;Node5</title>
<g id="a_edge4_Node000002_Node000005"><a xlink:title=" ">
<path fill="none" stroke="#63b8ff" d="M182.5,-111.59C182.5,-105.01 182.5,-95.96 182.5,-87.73"/>
<polygon fill="#63b8ff" stroke="#63b8ff" points="186,-87.81 182.5,-77.81 179,-87.81 186,-87.81"/>
</a>
</g>
</g>
<!-- Node6 -->
<g id="Node000006" class="node">
<title>Node6</title>
<g id="a_Node000006"><a xlink:title=" ">
<polygon fill="#e0e0e0" stroke="#999999" points="281.88,-76 223.12,-76 223.12,-56 281.88,-56 281.88,-76"/>
<text xml:space="preserve" text-anchor="middle" x="252.5" y="-62.5" font-family="Helvetica,sans-Serif" font-size="10.00">dpp/dpp.h</text>
</a>
</g>
</g>
<!-- Node2&#45;&gt;Node6 -->
<g id="edge5_Node000002_Node000006" class="edge">
<title>Node2&#45;&gt;Node6</title>
<g id="a_edge5_Node000002_Node000006"><a xlink:title=" ">
<path fill="none" stroke="#63b8ff" d="M194.69,-111.59C204.83,-103.77 219.49,-92.46 231.51,-83.19"/>
<polygon fill="#63b8ff" stroke="#63b8ff" points="233.47,-86.1 239.25,-77.22 229.19,-80.56 233.47,-86.1"/>
</a>
</g>
</g>
<!-- Node3&#45;&gt;Node4 -->
<g id="edge3_Node000003_Node000004" class="edge">
<title>Node3&#45;&gt;Node4</title>
<g id="a_edge3_Node000003_Node000004"><a xlink:title=" ">
<path fill="none" stroke="#63b8ff" d="M65.43,-55.59C77.18,-47.67 94.23,-36.16 108.07,-26.82"/>
<polygon fill="#63b8ff" stroke="#63b8ff" points="109.87,-29.82 116.2,-21.33 105.96,-24.02 109.87,-29.82"/>
</a>
</g>
</g>
</g>
</svg>
</svg>

<style type='text/css'>
<![CDATA[
[data-mouse-over-selected='false'] { opacity: 0.7; }
[data-mouse-over-selected='true']  { opacity: 1.0; }
]]>
</style>
<script type="application/ecmascript"><![CDATA[
document.addEventListener('DOMContentLoaded', (event) => {
  highlightEdges();
  highlightAdjacentNodes();
});
]]></script>
</svg>
