<?xml version="1.0" encoding="UTF-8" standalone="no"?>
<!DOCTYPE svg PUBLIC "-//W3C//DTD SVG 1.1//EN"
 "http://www.w3.org/Graphics/SVG/1.1/DTD/svg11.dtd">
<!-- Generated by graphviz version 13.1.2 (20250808.2320)
 -->
<!-- Title: src/Rss/RSSItem.hpp Pages: 1 -->
<svg width="426pt" height="252pt"
 viewBox="0.00 0.00 426.00 252.00" xmlns="http://www.w3.org/2000/svg" xmlns:xlink="http://www.w3.org/1999/xlink">

<svg id="main" version="1.1" xmlns="http://www.w3.org/2000/svg" xmlns:xlink="http://www.w3.org/1999/xlink" xml:space="preserve">

<style type="text/css"><![CDATA[
.node, .edge {opacity: 0.7;}
.node.selected, .edge.selected {opacity: 1;}
.edge:hover path { stroke: red; }
.edge:hover polygon { stroke: red; fill: red; }
]]></style>
<script type="application/ecmascript" xlink:href="svg.min.js"/>
<svg id="graph" class="graph">
<g id="graph0" class="graph" transform="scale(1 1) rotate(0) translate(4 248)">
<title>src/Rss/RSSItem.hpp</title>
<!-- Node1 -->
<g id="Node000001" class="node">
<title>Node1</title>
<g id="a_Node000001"><a xlink:title=" ">
<polygon fill="#999999" stroke="#666666" points="291.25,-244 178.5,-244 178.5,-224 291.25,-224 291.25,-244"/>
<text xml:space="preserve" text-anchor="middle" x="234.88" y="-230.5" font-family="Helvetica,sans-Serif" font-size="10.00">src/Rss/RSSItem.hpp</text>
</a>
</g>
</g>
<!-- Node2 -->
<g id="Node000002" class="node">
<title>Node2</title>
<g id="a_Node000002"><a xlink:href="DiscordBot_8hpp.html" target="_top" xlink:title=" ">
<polygon fill="white" stroke="#666666" points="169.75,-76 18,-76 18,-56 169.75,-56 169.75,-76"/>
<text xml:space="preserve" text-anchor="middle" x="93.88" y="-62.5" font-family="Helvetica,sans-Serif" font-size="10.00">src/DiscordBot/DiscordBot.hpp</text>
</a>
</g>
</g>
<!-- Node1&#45;&gt;Node2 -->
<g id="edge1_Node000001_Node000002" class="edge">
<title>Node1&#45;&gt;Node2</title>
<g id="a_edge1_Node000001_Node000002"><a xlink:title=" ">
<path fill="none" stroke="#63b8ff" d="M182.15,-219.9C162.65,-212.97 141.5,-202.75 125.88,-188 93.64,-157.57 92.46,-98.8 93.31,-76.18"/>
<polygon fill="#63b8ff" stroke="#63b8ff" points="181.05,-223.22 191.64,-223.03 183.24,-216.57 181.05,-223.22"/>
</a>
</g>
</g>
<!-- Node5 -->
<g id="Node000005" class="node">
<title>Node5</title>
<g id="a_Node000005"><a xlink:href="RSSFeed_8hpp.html" target="_top" xlink:title=" ">
<polygon fill="white" stroke="#666666" points="249.38,-188 134.38,-188 134.38,-168 249.38,-168 249.38,-188"/>
<text xml:space="preserve" text-anchor="middle" x="191.88" y="-174.5" font-family="Helvetica,sans-Serif" font-size="10.00">src/Rss/RSSFeed.hpp</text>
</a>
</g>
</g>
<!-- Node1&#45;&gt;Node5 -->
<g id="edge4_Node000001_Node000005" class="edge">
<title>Node1&#45;&gt;Node5</title>
<g id="a_edge4_Node000001_Node000005"><a xlink:title=" ">
<path fill="none" stroke="#63b8ff" d="M220.32,-214.72C213.25,-205.84 205.05,-195.55 199.28,-188.3"/>
<polygon fill="#63b8ff" stroke="#63b8ff" points="217.47,-216.77 226.44,-222.41 222.95,-212.41 217.47,-216.77"/>
</a>
</g>
</g>
<!-- Node7 -->
<g id="Node000007" class="node">
<title>Node7</title>
<g id="a_Node000007"><a xlink:href="RssManager_8hpp.html" target="_top" xlink:title=" ">
<polygon fill="white" stroke="#666666" points="368.75,-132 241,-132 241,-112 368.75,-112 368.75,-132"/>
<text xml:space="preserve" text-anchor="middle" x="304.88" y="-118.5" font-family="Helvetica,sans-Serif" font-size="10.00">src/Rss/RssManager.hpp</text>
</a>
</g>
</g>
<!-- Node1&#45;&gt;Node7 -->
<g id="edge11_Node000001_Node000007" class="edge">
<title>Node1&#45;&gt;Node7</title>
<g id="a_edge11_Node000001_Node000007"><a xlink:title=" ">
<path fill="none" stroke="#63b8ff" d="M247,-213.95C262.15,-190.14 287.47,-150.36 298.92,-132.35"/>
<polygon fill="#63b8ff" stroke="#63b8ff" points="244.07,-212.03 241.66,-222.34 249.98,-215.79 244.07,-212.03"/>
</a>
</g>
</g>
<!-- Node9 -->
<g id="Node000009" class="node">
<title>Node9</title>
<g id="a_Node000009"><a xlink:href="RSSItem_8cpp.html" target="_top" xlink:title=" ">
<polygon fill="white" stroke="#666666" points="418.25,-188 305.5,-188 305.5,-168 418.25,-168 418.25,-188"/>
<text xml:space="preserve" text-anchor="middle" x="361.88" y="-174.5" font-family="Helvetica,sans-Serif" font-size="10.00">src/Rss/RSSItem.cpp</text>
</a>
</g>
</g>
<!-- Node1&#45;&gt;Node9 -->
<g id="edge10_Node000001_Node000009" class="edge">
<title>Node1&#45;&gt;Node9</title>
<g id="a_edge10_Node000001_Node000009"><a xlink:title=" ">
<path fill="none" stroke="#63b8ff" d="M267.47,-219.14C290.09,-209.52 319.62,-196.97 339.58,-188.48"/>
<polygon fill="#63b8ff" stroke="#63b8ff" points="266.22,-215.87 258.39,-223 268.96,-222.31 266.22,-215.87"/>
</a>
</g>
</g>
<!-- Node3 -->
<g id="Node000003" class="node">
<title>Node3</title>
<g id="a_Node000003"><a xlink:href="DiscordBot_8cpp.html" target="_top" xlink:title=" ">
<polygon fill="white" stroke="#666666" points="151.75,-20 0,-20 0,0 151.75,0 151.75,-20"/>
<text xml:space="preserve" text-anchor="middle" x="75.88" y="-6.5" font-family="Helvetica,sans-Serif" font-size="10.00">src/DiscordBot/DiscordBot.cpp</text>
</a>
</g>
</g>
<!-- Node2&#45;&gt;Node3 -->
<g id="edge2_Node000002_Node000003" class="edge">
<title>Node2&#45;&gt;Node3</title>
<g id="a_edge2_Node000002_Node000003"><a xlink:title=" ">
<path fill="none" stroke="#63b8ff" d="M87.11,-44.71C84.32,-36.32 81.21,-27.01 78.97,-20.3"/>
<polygon fill="#63b8ff" stroke="#63b8ff" points="83.78,-45.78 90.26,-54.16 90.42,-43.56 83.78,-45.78"/>
</a>
</g>
</g>
<!-- Node4 -->
<g id="Node000004" class="node">
<title>Node4</title>
<g id="a_Node000004"><a xlink:href="DotNameBotLib_8cpp.html" target="_top" xlink:title=" ">
<polygon fill="white" stroke="#666666" points="290.38,-20 169.38,-20 169.38,0 290.38,0 290.38,-20"/>
<text xml:space="preserve" text-anchor="middle" x="229.88" y="-6.5" font-family="Helvetica,sans-Serif" font-size="10.00">src/DotNameBotLib.cpp</text>
</a>
</g>
</g>
<!-- Node2&#45;&gt;Node4 -->
<g id="edge3_Node000002_Node000004" class="edge">
<title>Node2&#45;&gt;Node4</title>
<g id="a_edge3_Node000002_Node000004"><a xlink:title=" ">
<path fill="none" stroke="#63b8ff" d="M128.12,-51.4C152.42,-41.75 184.43,-29.05 206,-20.48"/>
<polygon fill="#63b8ff" stroke="#63b8ff" points="126.97,-48.09 118.97,-55.04 129.56,-54.6 126.97,-48.09"/>
</a>
</g>
</g>
<!-- Node6 -->
<g id="Node000006" class="node">
<title>Node6</title>
<g id="a_Node000006"><a xlink:href="RSSFeed_8cpp.html" target="_top" xlink:title=" ">
<polygon fill="white" stroke="#666666" points="223.38,-132 108.38,-132 108.38,-112 223.38,-112 223.38,-132"/>
<text xml:space="preserve" text-anchor="middle" x="165.88" y="-118.5" font-family="Helvetica,sans-Serif" font-size="10.00">src/Rss/RSSFeed.cpp</text>
</a>
</g>
</g>
<!-- Node5&#45;&gt;Node6 -->
<g id="edge5_Node000005_Node000006" class="edge">
<title>Node5&#45;&gt;Node6</title>
<g id="a_edge5_Node000005_Node000006"><a xlink:title=" ">
<path fill="none" stroke="#63b8ff" d="M182.39,-157.29C178.27,-148.75 173.66,-139.16 170.35,-132.3"/>
<polygon fill="#63b8ff" stroke="#63b8ff" points="179.2,-158.74 186.69,-166.23 185.5,-155.7 179.2,-158.74"/>
</a>
</g>
</g>
<!-- Node5&#45;&gt;Node7 -->
<g id="edge6_Node000005_Node000007" class="edge">
<title>Node5&#45;&gt;Node7</title>
<g id="a_edge6_Node000005_Node000007"><a xlink:title=" ">
<path fill="none" stroke="#63b8ff" d="M221.7,-162.75C241.71,-153.18 267.52,-140.85 285.04,-132.48"/>
<polygon fill="#63b8ff" stroke="#63b8ff" points="220.44,-159.47 212.92,-166.94 223.46,-165.79 220.44,-159.47"/>
</a>
</g>
</g>
<!-- Node7&#45;&gt;Node2 -->
<g id="edge7_Node000007_Node000002" class="edge">
<title>Node7&#45;&gt;Node2</title>
<g id="a_edge7_Node000007_Node000002"><a xlink:title=" ">
<path fill="none" stroke="#63b8ff" d="M257.25,-108.81C219,-99.02 166.05,-85.47 130.92,-76.48"/>
<polygon fill="#63b8ff" stroke="#63b8ff" points="256.1,-112.13 266.66,-111.22 257.84,-105.35 256.1,-112.13"/>
</a>
</g>
</g>
<!-- Node7&#45;&gt;Node4 -->
<g id="edge8_Node000007_Node000004" class="edge">
<title>Node7&#45;&gt;Node4</title>
<g id="a_edge8_Node000007_Node000004"><a xlink:title=" ">
<path fill="none" stroke="#63b8ff" d="M278.96,-105.28C268.28,-97.64 256.62,-87.59 248.88,-76 237.12,-58.41 232.5,-33.42 230.8,-20.13"/>
<polygon fill="#63b8ff" stroke="#63b8ff" points="276.84,-108.08 287.09,-110.76 280.75,-102.27 276.84,-108.08"/>
</a>
</g>
</g>
<!-- Node8 -->
<g id="Node000008" class="node">
<title>Node8</title>
<g id="a_Node000008"><a xlink:href="RssManager_8cpp.html" target="_top" xlink:title=" ">
<polygon fill="white" stroke="#666666" points="385.75,-76 258,-76 258,-56 385.75,-56 385.75,-76"/>
<text xml:space="preserve" text-anchor="middle" x="321.88" y="-62.5" font-family="Helvetica,sans-Serif" font-size="10.00">src/Rss/RssManager.cpp</text>
</a>
</g>
</g>
<!-- Node7&#45;&gt;Node8 -->
<g id="edge9_Node000007_Node000008" class="edge">
<title>Node7&#45;&gt;Node8</title>
<g id="a_edge9_Node000007_Node000008"><a xlink:title=" ">
<path fill="none" stroke="#63b8ff" d="M311.26,-100.71C313.9,-92.32 316.84,-83.01 318.95,-76.3"/>
<polygon fill="#63b8ff" stroke="#63b8ff" points="307.96,-99.56 308.29,-110.15 314.63,-101.66 307.96,-99.56"/>
</a>
</g>
</g>
</g>
</svg>
</svg>

<style type='text/css'>
<![CDATA[
[data-mouse-over-selected='false'] { opacity: 0.7; }
[data-mouse-over-selected='true']  { opacity: 1.0; }
]]>
</style>
<script type="application/ecmascript"><![CDATA[
document.addEventListener('DOMContentLoaded', (event) => {
  highlightEdges();
  highlightAdjacentNodes();
});
]]></script>
</svg>
