<?xml version="1.0" encoding="UTF-8" standalone="no"?>
<!DOCTYPE svg PUBLIC "-//W3C//DTD SVG 1.1//EN"
 "http://www.w3.org/Graphics/SVG/1.1/DTD/svg11.dtd">
<!-- Generated by graphviz version 13.1.2 (20250808.2320)
 -->
<!-- Title: src/Rss/RSSItem.cpp Pages: 1 -->
<svg width="128pt" height="140pt"
 viewBox="0.00 0.00 128.00 140.00" xmlns="http://www.w3.org/2000/svg" xmlns:xlink="http://www.w3.org/1999/xlink">
<g id="graph0" class="graph" transform="scale(1 1) rotate(0) translate(4 136)">
<title>src/Rss/RSSItem.cpp</title>
<!-- Node1 -->
<g id="Node000001" class="node">
<title>Node1</title>
<g id="a_Node000001"><a xlink:title=" ">
<polygon fill="#999999" stroke="#666666" points="116.47,-132 3.72,-132 3.72,-112 116.47,-112 116.47,-132"/>
<text xml:space="preserve" text-anchor="middle" x="60.09" y="-118.5" font-family="Helvetica,sans-Serif" font-size="10.00">src/Rss/RSSItem.cpp</text>
</a>
</g>
</g>
<!-- Node2 -->
<g id="Node000002" class="node">
<title>Node2</title>
<g id="a_Node000002"><a xlink:href="RSSItem_8hpp.html" target="_top" xlink:title=" ">
<polygon fill="white" stroke="#666666" points="108.22,-76 11.97,-76 11.97,-56 108.22,-56 108.22,-76"/>
<text xml:space="preserve" text-anchor="middle" x="60.09" y="-62.5" font-family="Helvetica,sans-Serif" font-size="10.00">Rss/RSSItem.hpp</text>
</a>
</g>
</g>
<!-- Node1&#45;&gt;Node2 -->
<g id="edge1_Node000001_Node000002" class="edge">
<title>Node1&#45;&gt;Node2</title>
<g id="a_edge1_Node000001_Node000002"><a xlink:title=" ">
<path fill="none" stroke="#63b8ff" d="M60.09,-111.59C60.09,-105.01 60.09,-95.96 60.09,-87.73"/>
<polygon fill="#63b8ff" stroke="#63b8ff" points="63.59,-87.81 60.09,-77.81 56.59,-87.81 63.59,-87.81"/>
</a>
</g>
</g>
<!-- Node3 -->
<g id="Node000003" class="node">
<title>Node3</title>
<g id="a_Node000003"><a xlink:title=" ">
<polygon fill="#e0e0e0" stroke="#999999" points="48.72,-20 3.47,-20 3.47,0 48.72,0 48.72,-20"/>
<text xml:space="preserve" text-anchor="middle" x="26.09" y="-6.5" font-family="Helvetica,sans-Serif" font-size="10.00">cstdint</text>
</a>
</g>
</g>
<!-- Node1&#45;&gt;Node3 -->
<g id="edge4_Node000001_Node000003" class="edge">
<title>Node1&#45;&gt;Node3</title>
<g id="a_edge4_Node000001_Node000003"><a xlink:title=" ">
<path fill="none" stroke="#63b8ff" d="M40.61,-111.6C27.35,-104.02 10.84,-92 3.09,-76 -4.31,-60.72 3.55,-42.42 12.03,-29.13"/>
<polygon fill="#63b8ff" stroke="#63b8ff" points="14.64,-31.52 17.53,-21.32 8.91,-27.49 14.64,-31.52"/>
</a>
</g>
</g>
<!-- Node4 -->
<g id="Node000004" class="node">
<title>Node4</title>
<g id="a_Node000004"><a xlink:title=" ">
<polygon fill="#e0e0e0" stroke="#999999" points="114.09,-20 74.09,-20 74.09,0 114.09,0 114.09,-20"/>
<text xml:space="preserve" text-anchor="middle" x="94.09" y="-6.5" font-family="Helvetica,sans-Serif" font-size="10.00">string</text>
</a>
</g>
</g>
<!-- Node1&#45;&gt;Node4 -->
<g id="edge5_Node000001_Node000004" class="edge">
<title>Node1&#45;&gt;Node4</title>
<g id="a_edge5_Node000001_Node000004"><a xlink:title=" ">
<path fill="none" stroke="#63b8ff" d="M79.57,-111.6C92.83,-104.02 109.34,-92 117.09,-76 124.5,-60.72 116.63,-42.42 108.15,-29.13"/>
<polygon fill="#63b8ff" stroke="#63b8ff" points="111.27,-27.49 102.65,-21.32 105.55,-31.52 111.27,-27.49"/>
</a>
</g>
</g>
<!-- Node2&#45;&gt;Node3 -->
<g id="edge2_Node000002_Node000003" class="edge">
<title>Node2&#45;&gt;Node3</title>
<g id="a_edge2_Node000002_Node000003"><a xlink:title=" ">
<path fill="none" stroke="#63b8ff" d="M54.17,-55.59C49.73,-48.55 43.51,-38.67 38.05,-30"/>
<polygon fill="#63b8ff" stroke="#63b8ff" points="41.04,-28.18 32.75,-21.58 35.12,-31.91 41.04,-28.18"/>
</a>
</g>
</g>
<!-- Node2&#45;&gt;Node4 -->
<g id="edge3_Node000002_Node000004" class="edge">
<title>Node2&#45;&gt;Node4</title>
<g id="a_edge3_Node000002_Node000004"><a xlink:title=" ">
<path fill="none" stroke="#63b8ff" d="M66.01,-55.59C70.45,-48.55 76.67,-38.67 82.13,-30"/>
<polygon fill="#63b8ff" stroke="#63b8ff" points="85.06,-31.91 87.43,-21.58 79.14,-28.18 85.06,-31.91"/>
</a>
</g>
</g>
</g>
</svg>
