<?xml version="1.0" encoding="UTF-8" standalone="no"?>
<!DOCTYPE svg PUBLIC "-//W3C//DTD SVG 1.1//EN"
 "http://www.w3.org/Graphics/SVG/1.1/DTD/svg11.dtd">
<!-- Generated by graphviz version 13.1.2 (20250808.2320)
 -->
<!-- Title: src/Rss/RssManager.hpp Pages: 1 -->
<svg width="2084pt" height="264pt"
 viewBox="0.00 0.00 2084.00 264.00" xmlns="http://www.w3.org/2000/svg" xmlns:xlink="http://www.w3.org/1999/xlink">
<g id="graph0" class="graph" transform="scale(1 1) rotate(0) translate(4 260)">
<title>src/Rss/RssManager.hpp</title>
<!-- Node1 -->
<g id="Node000001" class="node">
<title>Node1</title>
<g id="a_Node000001"><a xlink:title=" ">
<polygon fill="#999999" stroke="#666666" points="1746.78,-256 1619.03,-256 1619.03,-236 1746.78,-236 1746.78,-256"/>
<text xml:space="preserve" text-anchor="middle" x="1682.91" y="-242.5" font-family="Helvetica,sans-Serif" font-size="10.00">src/Rss/RssManager.hpp</text>
</a>
</g>
</g>
<!-- Node2 -->
<g id="Node000002" class="node">
<title>Node2</title>
<g id="a_Node000002"><a xlink:href="IRssService_8hpp.html" target="_top" xlink:title=" ">
<polygon fill="white" stroke="#666666" points="1576.78,-76 1467.03,-76 1467.03,-56 1576.78,-56 1576.78,-76"/>
<text xml:space="preserve" text-anchor="middle" x="1521.91" y="-62.5" font-family="Helvetica,sans-Serif" font-size="10.00">Rss/IRssService.hpp</text>
</a>
</g>
</g>
<!-- Node1&#45;&gt;Node2 -->
<g id="edge1_Node000001_Node000002" class="edge">
<title>Node1&#45;&gt;Node2</title>
<g id="a_edge1_Node000001_Node000002"><a xlink:title=" ">
<path fill="none" stroke="#63b8ff" d="M1687.83,-235.75C1699.55,-212.27 1726.08,-149.61 1696.91,-112 1683.38,-94.55 1631.83,-82.69 1588.16,-75.54"/>
<polygon fill="#63b8ff" stroke="#63b8ff" points="1588.88,-72.11 1578.45,-74.02 1587.79,-79.03 1588.88,-72.11"/>
</a>
</g>
</g>
<!-- Node4 -->
<g id="Node000004" class="node">
<title>Node4</title>
<g id="a_Node000004"><a xlink:title=" ">
<polygon fill="#e0e0e0" stroke="#999999" points="1121.91,-20 1081.91,-20 1081.91,0 1121.91,0 1121.91,-20"/>
<text xml:space="preserve" text-anchor="middle" x="1101.91" y="-6.5" font-family="Helvetica,sans-Serif" font-size="10.00">string</text>
</a>
</g>
</g>
<!-- Node1&#45;&gt;Node4 -->
<g id="edge68_Node000001_Node000004" class="edge">
<title>Node1&#45;&gt;Node4</title>
<g id="a_edge68_Node000001_Node000004"><a xlink:title=" ">
<path fill="none" stroke="#63b8ff" d="M1618.88,-244.74C1376.61,-243.51 516.11,-236.58 244.91,-200 139.79,-185.82 78.53,-227.34 12.91,-144 -35.63,-82.35 73.11,-64.94 101.91,-56 291.59,2.87 796.69,-32.33 994.91,-20 1020.22,-18.43 1048.85,-15.98 1070.12,-14.04"/>
<polygon fill="#63b8ff" stroke="#63b8ff" points="1070.28,-17.54 1079.91,-13.13 1069.63,-10.57 1070.28,-17.54"/>
</a>
</g>
</g>
<!-- Node5 -->
<g id="Node000005" class="node">
<title>Node5</title>
<g id="a_Node000005"><a xlink:href="UtilsFactory_8hpp.html" target="_top" xlink:title=" ">
<polygon fill="white" stroke="#666666" points="1270.16,-200 1159.66,-200 1159.66,-180 1270.16,-180 1270.16,-200"/>
<text xml:space="preserve" text-anchor="middle" x="1214.91" y="-186.5" font-family="Helvetica,sans-Serif" font-size="10.00">Utils/UtilsFactory.hpp</text>
</a>
</g>
</g>
<!-- Node1&#45;&gt;Node5 -->
<g id="edge4_Node000001_Node000005" class="edge">
<title>Node1&#45;&gt;Node5</title>
<g id="a_edge4_Node000001_Node000005"><a xlink:title=" ">
<path fill="none" stroke="#63b8ff" d="M1618.82,-237.6C1530.44,-227.41 1371.91,-209.12 1281.99,-198.74"/>
<polygon fill="#63b8ff" stroke="#63b8ff" points="1282.41,-195.27 1272.07,-197.6 1281.61,-202.22 1282.41,-195.27"/>
</a>
</g>
</g>
<!-- Node8 -->
<g id="Node000008" class="node">
<title>Node8</title>
<g id="a_Node000008"><a xlink:title=" ">
<polygon fill="#e0e0e0" stroke="#999999" points="865.41,-76 804.41,-76 804.41,-56 865.41,-56 865.41,-76"/>
<text xml:space="preserve" text-anchor="middle" x="834.91" y="-62.5" font-family="Helvetica,sans-Serif" font-size="10.00">filesystem</text>
</a>
</g>
</g>
<!-- Node1&#45;&gt;Node8 -->
<g id="edge65_Node000001_Node000008" class="edge">
<title>Node1&#45;&gt;Node8</title>
<g id="a_edge65_Node000001_Node000008"><a xlink:title=" ">
<path fill="none" stroke="#63b8ff" d="M1618.71,-244.79C1374.24,-243.35 511.12,-232.02 429.91,-144 420.27,-133.55 420.42,-122.6 429.91,-112 441.92,-98.58 691.21,-78.03 792.59,-70.19"/>
<polygon fill="#63b8ff" stroke="#63b8ff" points="792.7,-73.69 802.4,-69.43 792.16,-66.71 792.7,-73.69"/>
</a>
</g>
</g>
<!-- Node14 -->
<g id="Node000014" class="node">
<title>Node14</title>
<g id="a_Node000014"><a xlink:title=" ">
<polygon fill="#e0e0e0" stroke="#999999" points="1334.41,-76 1291.41,-76 1291.41,-56 1334.41,-56 1334.41,-76"/>
<text xml:space="preserve" text-anchor="middle" x="1312.91" y="-62.5" font-family="Helvetica,sans-Serif" font-size="10.00">vector</text>
</a>
</g>
</g>
<!-- Node1&#45;&gt;Node14 -->
<g id="edge71_Node000001_Node000014" class="edge">
<title>Node1&#45;&gt;Node14</title>
<g id="a_edge71_Node000001_Node000014"><a xlink:title=" ">
<path fill="none" stroke="#63b8ff" d="M1681.98,-235.73C1678.97,-211.07 1667.17,-143.65 1625.91,-112 1614.83,-103.5 1423.48,-80.07 1345.55,-70.82"/>
<polygon fill="#63b8ff" stroke="#63b8ff" points="1346.32,-67.39 1335.98,-69.69 1345.5,-74.34 1346.32,-67.39"/>
</a>
</g>
</g>
<!-- Node19 -->
<g id="Node000019" class="node">
<title>Node19</title>
<g id="a_Node000019"><a xlink:title=" ">
<polygon fill="#e0e0e0" stroke="#999999" points="230.78,-76 133.03,-76 133.03,-56 230.78,-56 230.78,-76"/>
<text xml:space="preserve" text-anchor="middle" x="181.91" y="-62.5" font-family="Helvetica,sans-Serif" font-size="10.00">nlohmann/json.hpp</text>
</a>
</g>
</g>
<!-- Node1&#45;&gt;Node19 -->
<g id="edge66_Node000001_Node000019" class="edge">
<title>Node1&#45;&gt;Node19</title>
<g id="a_edge66_Node000001_Node000019"><a xlink:title=" ">
<path fill="none" stroke="#63b8ff" d="M1618.67,-245.48C1443.01,-246.14 940.09,-243.75 524.91,-200 379.58,-184.68 307.83,-243.61 200.91,-144 185.59,-129.73 181.77,-105.24 181.19,-87.71"/>
<polygon fill="#63b8ff" stroke="#63b8ff" points="184.69,-87.94 181.22,-77.93 177.69,-87.92 184.69,-87.94"/>
</a>
</g>
</g>
<!-- Node29 -->
<g id="Node000029" class="node">
<title>Node29</title>
<g id="a_Node000029"><a xlink:title=" ">
<polygon fill="#e0e0e0" stroke="#999999" points="1797.03,-200 1748.78,-200 1748.78,-180 1797.03,-180 1797.03,-200"/>
<text xml:space="preserve" text-anchor="middle" x="1772.91" y="-186.5" font-family="Helvetica,sans-Serif" font-size="10.00">random</text>
</a>
</g>
</g>
<!-- Node1&#45;&gt;Node29 -->
<g id="edge67_Node000001_Node000029" class="edge">
<title>Node1&#45;&gt;Node29</title>
<g id="a_edge67_Node000001_Node000029"><a xlink:title=" ">
<path fill="none" stroke="#63b8ff" d="M1698.59,-235.59C1712.05,-227.51 1731.73,-215.71 1747.45,-206.27"/>
<polygon fill="#63b8ff" stroke="#63b8ff" points="1749.04,-209.4 1755.81,-201.26 1745.44,-203.4 1749.04,-209.4"/>
</a>
</g>
</g>
<!-- Node30 -->
<g id="Node000030" class="node">
<title>Node30</title>
<g id="a_Node000030"><a xlink:title=" ">
<polygon fill="#e0e0e0" stroke="#999999" points="1876.41,-200 1815.41,-200 1815.41,-180 1876.41,-180 1876.41,-200"/>
<text xml:space="preserve" text-anchor="middle" x="1845.91" y="-186.5" font-family="Helvetica,sans-Serif" font-size="10.00">tinyxml2.h</text>
</a>
</g>
</g>
<!-- Node1&#45;&gt;Node30 -->
<g id="edge69_Node000001_Node000030" class="edge">
<title>Node1&#45;&gt;Node30</title>
<g id="a_edge69_Node000001_Node000030"><a xlink:title=" ">
<path fill="none" stroke="#63b8ff" d="M1711.3,-235.59C1737.67,-226.86 1777.17,-213.77 1806.57,-204.03"/>
<polygon fill="#63b8ff" stroke="#63b8ff" points="1807.47,-207.42 1815.86,-200.96 1805.27,-200.78 1807.47,-207.42"/>
</a>
</g>
</g>
<!-- Node31 -->
<g id="Node000031" class="node">
<title>Node31</title>
<g id="a_Node000031"><a xlink:title=" ">
<polygon fill="#e0e0e0" stroke="#999999" points="1971.66,-200 1894.16,-200 1894.16,-180 1971.66,-180 1971.66,-200"/>
<text xml:space="preserve" text-anchor="middle" x="1932.91" y="-186.5" font-family="Helvetica,sans-Serif" font-size="10.00">unordered_set</text>
</a>
</g>
</g>
<!-- Node1&#45;&gt;Node31 -->
<g id="edge70_Node000001_Node000031" class="edge">
<title>Node1&#45;&gt;Node31</title>
<g id="a_edge70_Node000001_Node000031"><a xlink:title=" ">
<path fill="none" stroke="#63b8ff" d="M1726.74,-235.53C1770.38,-226.11 1837.26,-211.66 1882.93,-201.8"/>
<polygon fill="#63b8ff" stroke="#63b8ff" points="1883.55,-205.24 1892.58,-199.71 1882.07,-198.4 1883.55,-205.24"/>
</a>
</g>
</g>
<!-- Node3 -->
<g id="Node000003" class="node">
<title>Node3</title>
<g id="a_Node000003"><a xlink:title=" ">
<polygon fill="#e0e0e0" stroke="#999999" points="1585.53,-20 1540.28,-20 1540.28,0 1585.53,0 1585.53,-20"/>
<text xml:space="preserve" text-anchor="middle" x="1562.91" y="-6.5" font-family="Helvetica,sans-Serif" font-size="10.00">cstdint</text>
</a>
</g>
</g>
<!-- Node2&#45;&gt;Node3 -->
<g id="edge2_Node000002_Node000003" class="edge">
<title>Node2&#45;&gt;Node3</title>
<g id="a_edge2_Node000002_Node000003"><a xlink:title=" ">
<path fill="none" stroke="#63b8ff" d="M1529.05,-55.59C1534.52,-48.39 1542.23,-38.23 1548.92,-29.43"/>
<polygon fill="#63b8ff" stroke="#63b8ff" points="1551.68,-31.58 1554.93,-21.5 1546.1,-27.35 1551.68,-31.58"/>
</a>
</g>
</g>
<!-- Node2&#45;&gt;Node4 -->
<g id="edge3_Node000002_Node000004" class="edge">
<title>Node2&#45;&gt;Node4</title>
<g id="a_edge3_Node000002_Node000004"><a xlink:title=" ">
<path fill="none" stroke="#63b8ff" d="M1466.55,-57.77C1461.94,-57.17 1457.34,-56.57 1452.91,-56 1334.96,-40.75 1194.67,-22.83 1133.29,-15"/>
<polygon fill="#63b8ff" stroke="#63b8ff" points="1133.96,-11.56 1123.59,-13.76 1133.07,-18.5 1133.96,-11.56"/>
</a>
</g>
</g>
<!-- Node6 -->
<g id="Node000006" class="node">
<title>Node6</title>
<g id="a_Node000006"><a xlink:title=" ">
<polygon fill="#e0e0e0" stroke="#999999" points="578.16,-138 449.66,-138 449.66,-118 578.16,-118 578.16,-138"/>
<text xml:space="preserve" text-anchor="middle" x="513.91" y="-124.5" font-family="Helvetica,sans-Serif" font-size="10.00">DotNameBotLib/version.h</text>
</a>
</g>
</g>
<!-- Node5&#45;&gt;Node6 -->
<g id="edge5_Node000005_Node000006" class="edge">
<title>Node5&#45;&gt;Node6</title>
<g id="a_edge5_Node000005_Node000006"><a xlink:title=" ">
<path fill="none" stroke="#63b8ff" d="M1159.21,-187.46C1049.31,-183.88 796.98,-172.98 586.91,-144 580.18,-143.07 573.14,-141.89 566.19,-140.6"/>
<polygon fill="#63b8ff" stroke="#63b8ff" points="567.03,-137.2 556.54,-138.73 565.69,-144.07 567.03,-137.2"/>
</a>
</g>
</g>
<!-- Node7 -->
<g id="Node000007" class="node">
<title>Node7</title>
<g id="a_Node000007"><a xlink:href="IAssetManager_8hpp.html" target="_top" xlink:title=" ">
<polygon fill="white" stroke="#666666" points="753.78,-138 596.03,-138 596.03,-118 753.78,-118 753.78,-138"/>
<text xml:space="preserve" text-anchor="middle" x="674.91" y="-124.5" font-family="Helvetica,sans-Serif" font-size="10.00">Utils/Assets/IAssetManager.hpp</text>
</a>
</g>
</g>
<!-- Node5&#45;&gt;Node7 -->
<g id="edge6_Node000005_Node000007" class="edge">
<title>Node5&#45;&gt;Node7</title>
<g id="a_edge6_Node000005_Node000007"><a xlink:title=" ">
<path fill="none" stroke="#63b8ff" d="M1159.32,-184.77C1073.74,-177.97 904.64,-163.37 761.91,-144 753.97,-142.92 745.65,-141.66 737.44,-140.33"/>
<polygon fill="#63b8ff" stroke="#63b8ff" points="738.27,-136.92 727.83,-138.74 737.13,-143.83 738.27,-136.92"/>
</a>
</g>
</g>
<!-- Node5&#45;&gt;Node8 -->
<g id="edge63_Node000005_Node000008" class="edge">
<title>Node5&#45;&gt;Node8</title>
<g id="a_edge63_Node000005_Node000008"><a xlink:title=" ">
<path fill="none" stroke="#63b8ff" d="M1159.43,-187.84C986.21,-183.94 465.53,-170.1 440.91,-144 431.15,-133.66 431.44,-122.61 440.91,-112 464.04,-86.08 695.6,-73.06 792.56,-68.71"/>
<polygon fill="#63b8ff" stroke="#63b8ff" points="792.62,-72.21 802.45,-68.28 792.31,-65.22 792.62,-72.21"/>
</a>
</g>
</g>
<!-- Node9 -->
<g id="Node000009" class="node">
<title>Node9</title>
<g id="a_Node000009"><a xlink:href="IDirectoryManager_8hpp.html" target="_top" xlink:title=" ">
<polygon fill="white" stroke="#666666" points="904.41,-144 771.41,-144 771.41,-112 904.41,-112 904.41,-144"/>
<text xml:space="preserve" text-anchor="start" x="779.41" y="-130.5" font-family="Helvetica,sans-Serif" font-size="10.00">Utils/Filesystem/IDirectory</text>
<text xml:space="preserve" text-anchor="middle" x="837.91" y="-118.5" font-family="Helvetica,sans-Serif" font-size="10.00">Manager.hpp</text>
</a>
</g>
</g>
<!-- Node5&#45;&gt;Node9 -->
<g id="edge8_Node000005_Node000009" class="edge">
<title>Node5&#45;&gt;Node9</title>
<g id="a_edge8_Node000005_Node000009"><a xlink:title=" ">
<path fill="none" stroke="#63b8ff" d="M1159.39,-181.57C1101.14,-173.58 1006.63,-160.09 915.87,-144.47"/>
<polygon fill="#63b8ff" stroke="#63b8ff" points="916.48,-141.02 906.03,-142.76 915.28,-147.92 916.48,-141.02"/>
</a>
</g>
</g>
<!-- Node15 -->
<g id="Node000015" class="node">
<title>Node15</title>
<g id="a_Node000015"><a xlink:href="IFileReader_8hpp.html" target="_top" xlink:title=" ">
<polygon fill="white" stroke="#666666" points="1445.53,-138 1286.28,-138 1286.28,-118 1445.53,-118 1445.53,-138"/>
<text xml:space="preserve" text-anchor="middle" x="1365.91" y="-124.5" font-family="Helvetica,sans-Serif" font-size="10.00">Utils/Filesystem/IFileReader.hpp</text>
</a>
</g>
</g>
<!-- Node5&#45;&gt;Node15 -->
<g id="edge17_Node000005_Node000015" class="edge">
<title>Node5&#45;&gt;Node15</title>
<g id="a_edge17_Node000005_Node000015"><a xlink:title=" ">
<path fill="none" stroke="#63b8ff" d="M1238.5,-179.62C1263.55,-169.67 1303.36,-153.85 1331.81,-142.55"/>
<polygon fill="#63b8ff" stroke="#63b8ff" points="1333.07,-145.81 1341.08,-138.87 1330.49,-139.31 1333.07,-145.81"/>
</a>
</g>
</g>
<!-- Node16 -->
<g id="Node000016" class="node">
<title>Node16</title>
<g id="a_Node000016"><a xlink:href="IFileWriter_8hpp.html" target="_top" xlink:title=" ">
<polygon fill="white" stroke="#666666" points="1616.53,-138 1463.28,-138 1463.28,-118 1616.53,-118 1616.53,-138"/>
<text xml:space="preserve" text-anchor="middle" x="1539.91" y="-124.5" font-family="Helvetica,sans-Serif" font-size="10.00">Utils/Filesystem/IFileWriter.hpp</text>
</a>
</g>
</g>
<!-- Node5&#45;&gt;Node16 -->
<g id="edge23_Node000005_Node000016" class="edge">
<title>Node5&#45;&gt;Node16</title>
<g id="a_edge23_Node000005_Node000016"><a xlink:title=" ">
<path fill="none" stroke="#63b8ff" d="M1266.05,-179.56C1323.27,-169 1415.97,-151.88 1477.44,-140.53"/>
<polygon fill="#63b8ff" stroke="#63b8ff" points="1477.85,-144.02 1487.04,-138.76 1476.58,-137.13 1477.85,-144.02"/>
</a>
</g>
</g>
<!-- Node17 -->
<g id="Node000017" class="node">
<title>Node17</title>
<g id="a_Node000017"><a xlink:href="IPathResolver_8hpp.html" target="_top" xlink:title=" ">
<polygon fill="white" stroke="#666666" points="1093.53,-138 922.28,-138 922.28,-118 1093.53,-118 1093.53,-138"/>
<text xml:space="preserve" text-anchor="middle" x="1007.91" y="-124.5" font-family="Helvetica,sans-Serif" font-size="10.00">Utils/Filesystem/IPathResolver.hpp</text>
</a>
</g>
</g>
<!-- Node5&#45;&gt;Node17 -->
<g id="edge29_Node000005_Node000017" class="edge">
<title>Node5&#45;&gt;Node17</title>
<g id="a_edge29_Node000005_Node000017"><a xlink:title=" ">
<path fill="none" stroke="#63b8ff" d="M1182.57,-179.62C1147.28,-169.4 1090.59,-152.97 1051.42,-141.61"/>
<polygon fill="#63b8ff" stroke="#63b8ff" points="1052.4,-138.25 1041.82,-138.83 1050.45,-144.98 1052.4,-138.25"/>
</a>
</g>
</g>
<!-- Node18 -->
<g id="Node000018" class="node">
<title>Node18</title>
<g id="a_Node000018"><a xlink:href="ICustomStringsLoader_8hpp.html" target="_top" xlink:title=" ">
<polygon fill="white" stroke="#666666" points="153.66,-144 22.16,-144 22.16,-112 153.66,-112 153.66,-144"/>
<text xml:space="preserve" text-anchor="start" x="30.16" y="-130.5" font-family="Helvetica,sans-Serif" font-size="10.00">Utils/Json/ICustomStrings</text>
<text xml:space="preserve" text-anchor="middle" x="87.91" y="-118.5" font-family="Helvetica,sans-Serif" font-size="10.00">Loader.hpp</text>
</a>
</g>
</g>
<!-- Node5&#45;&gt;Node18 -->
<g id="edge34_Node000005_Node000018" class="edge">
<title>Node5&#45;&gt;Node18</title>
<g id="a_edge34_Node000005_Node000018"><a xlink:title=" ">
<path fill="none" stroke="#63b8ff" d="M1159.29,-188.24C1006.16,-185.79 565.57,-176.23 200.91,-144 189.41,-142.98 177.28,-141.65 165.4,-140.2"/>
<polygon fill="#63b8ff" stroke="#63b8ff" points="165.99,-136.75 155.63,-138.97 165.11,-143.69 165.99,-136.75"/>
</a>
</g>
</g>
<!-- Node20 -->
<g id="Node000020" class="node">
<title>Node20</title>
<g id="a_Node000020"><a xlink:href="IJsonSerializer_8hpp.html" target="_top" xlink:title=" ">
<polygon fill="white" stroke="#666666" points="356.16,-138 209.66,-138 209.66,-118 356.16,-118 356.16,-138"/>
<text xml:space="preserve" text-anchor="middle" x="282.91" y="-124.5" font-family="Helvetica,sans-Serif" font-size="10.00">Utils/Json/IJsonSerializer.hpp</text>
</a>
</g>
</g>
<!-- Node5&#45;&gt;Node20 -->
<g id="edge39_Node000005_Node000020" class="edge">
<title>Node5&#45;&gt;Node20</title>
<g id="a_edge39_Node000005_Node000020"><a xlink:title=" ">
<path fill="none" stroke="#63b8ff" d="M1159.54,-187.13C1028.65,-182.44 689.92,-168.76 407.91,-144 394.42,-142.82 380.15,-141.33 366.25,-139.75"/>
<polygon fill="#63b8ff" stroke="#63b8ff" points="367.05,-136.32 356.71,-138.64 366.24,-143.27 367.05,-136.32"/>
</a>
</g>
</g>
<!-- Node21 -->
<g id="Node000021" class="node">
<title>Node21</title>
<g id="a_Node000021"><a xlink:href="ILogger_8hpp.html" target="_top" xlink:title=" ">
<polygon fill="white" stroke="#666666" points="1886.16,-76 1763.66,-76 1763.66,-56 1886.16,-56 1886.16,-76"/>
<text xml:space="preserve" text-anchor="middle" x="1824.91" y="-62.5" font-family="Helvetica,sans-Serif" font-size="10.00">Utils/Logger/ILogger.hpp</text>
</a>
</g>
</g>
<!-- Node5&#45;&gt;Node21 -->
<g id="edge44_Node000005_Node000021" class="edge">
<title>Node5&#45;&gt;Node21</title>
<g id="a_edge44_Node000005_Node000021"><a xlink:title=" ">
<path fill="none" stroke="#63b8ff" d="M1270.52,-188.13C1454.98,-184.99 2036.58,-172.82 2063.91,-144 2116.29,-88.77 1986.05,-73.06 1897.93,-68.65"/>
<polygon fill="#63b8ff" stroke="#63b8ff" points="1898.26,-65.17 1888.11,-68.21 1897.94,-72.16 1898.26,-65.17"/>
</a>
</g>
</g>
<!-- Node23 -->
<g id="Node000023" class="node">
<title>Node23</title>
<g id="a_Node000023"><a xlink:title=" ">
<polygon fill="#e0e0e0" stroke="#999999" points="1761.53,-20 1710.28,-20 1710.28,0 1761.53,0 1761.53,-20"/>
<text xml:space="preserve" text-anchor="middle" x="1735.91" y="-6.5" font-family="Helvetica,sans-Serif" font-size="10.00">memory</text>
</a>
</g>
</g>
<!-- Node5&#45;&gt;Node23 -->
<g id="edge64_Node000005_Node000023" class="edge">
<title>Node5&#45;&gt;Node23</title>
<g id="a_edge64_Node000005_Node000023"><a xlink:title=" ">
<path fill="none" stroke="#63b8ff" d="M1270.42,-188.03C1368.04,-185.5 1565.81,-176.4 1625.91,-144 1674.56,-117.78 1710.2,-60.3 1726.33,-30.22"/>
<polygon fill="#63b8ff" stroke="#63b8ff" points="1729.36,-31.99 1730.85,-21.5 1723.14,-28.77 1729.36,-31.99"/>
</a>
</g>
</g>
<!-- Node25 -->
<g id="Node000025" class="node">
<title>Node25</title>
<g id="a_Node000025"><a xlink:href="LoggerFactory_8hpp.html" target="_top" xlink:title=" ">
<polygon fill="white" stroke="#666666" points="1900.78,-138 1749.03,-138 1749.03,-118 1900.78,-118 1900.78,-138"/>
<text xml:space="preserve" text-anchor="middle" x="1824.91" y="-124.5" font-family="Helvetica,sans-Serif" font-size="10.00">Utils/Logger/LoggerFactory.hpp</text>
</a>
</g>
</g>
<!-- Node5&#45;&gt;Node25 -->
<g id="edge50_Node000005_Node000025" class="edge">
<title>Node5&#45;&gt;Node25</title>
<g id="a_edge50_Node000005_Node000025"><a xlink:title=" ">
<path fill="none" stroke="#63b8ff" d="M1270.39,-183.54C1376.73,-173.08 1609.98,-150.14 1737.47,-137.6"/>
<polygon fill="#63b8ff" stroke="#63b8ff" points="1737.6,-141.11 1747.21,-136.64 1736.91,-134.14 1737.6,-141.11"/>
</a>
</g>
</g>
<!-- Node26 -->
<g id="Node000026" class="node">
<title>Node26</title>
<g id="a_Node000026"><a xlink:href="NullLogger_8hpp.html" target="_top" xlink:title=" ">
<polygon fill="white" stroke="#666666" points="2055.28,-138 1918.53,-138 1918.53,-118 2055.28,-118 2055.28,-138"/>
<text xml:space="preserve" text-anchor="middle" x="1986.91" y="-124.5" font-family="Helvetica,sans-Serif" font-size="10.00">Utils/Logger/NullLogger.hpp</text>
</a>
</g>
</g>
<!-- Node5&#45;&gt;Node26 -->
<g id="edge54_Node000005_Node000026" class="edge">
<title>Node5&#45;&gt;Node26</title>
<g id="a_edge54_Node000005_Node000026"><a xlink:title=" ">
<path fill="none" stroke="#63b8ff" d="M1270.55,-187.81C1388.74,-184.75 1673.38,-174.57 1909.91,-144 1917.18,-143.06 1924.79,-141.85 1932.28,-140.53"/>
<polygon fill="#63b8ff" stroke="#63b8ff" points="1932.81,-144 1942.01,-138.74 1931.54,-137.11 1932.81,-144"/>
</a>
</g>
</g>
<!-- Node27 -->
<g id="Node000027" class="node">
<title>Node27</title>
<g id="a_Node000027"><a xlink:href="IPlatformInfo_8hpp.html" target="_top" xlink:title=" ">
<polygon fill="white" stroke="#666666" points="1230.28,-144 1111.53,-144 1111.53,-112 1230.28,-112 1230.28,-144"/>
<text xml:space="preserve" text-anchor="start" x="1119.53" y="-130.5" font-family="Helvetica,sans-Serif" font-size="10.00">Utils/Platform/IPlatform</text>
<text xml:space="preserve" text-anchor="middle" x="1170.91" y="-118.5" font-family="Helvetica,sans-Serif" font-size="10.00">Info.hpp</text>
</a>
</g>
</g>
<!-- Node5&#45;&gt;Node27 -->
<g id="edge56_Node000005_Node000027" class="edge">
<title>Node5&#45;&gt;Node27</title>
<g id="a_edge56_Node000005_Node000027"><a xlink:title=" ">
<path fill="none" stroke="#63b8ff" d="M1208.03,-179.62C1202.87,-172.58 1195.55,-162.59 1188.77,-153.35"/>
<polygon fill="#63b8ff" stroke="#63b8ff" points="1191.64,-151.36 1182.91,-145.36 1186,-155.49 1191.64,-151.36"/>
</a>
</g>
</g>
<!-- Node28 -->
<g id="Node000028" class="node">
<title>Node28</title>
<g id="a_Node000028"><a xlink:href="IStringFormatter_8hpp.html" target="_top" xlink:title=" ">
<polygon fill="white" stroke="#666666" points="1234.41,-76 1077.41,-76 1077.41,-56 1234.41,-56 1234.41,-76"/>
<text xml:space="preserve" text-anchor="middle" x="1155.91" y="-62.5" font-family="Helvetica,sans-Serif" font-size="10.00">Utils/String/IStringFormatter.hpp</text>
</a>
</g>
</g>
<!-- Node5&#45;&gt;Node28 -->
<g id="edge61_Node000005_Node000028" class="edge">
<title>Node5&#45;&gt;Node28</title>
<g id="a_edge61_Node000005_Node000028"><a xlink:title=" ">
<path fill="none" stroke="#63b8ff" d="M1222.3,-179.9C1233.53,-164.89 1252.23,-134.38 1238.91,-112 1230.48,-97.83 1215.86,-87.85 1201.21,-80.95"/>
<polygon fill="#63b8ff" stroke="#63b8ff" points="1202.6,-77.74 1192.03,-77.05 1199.86,-84.18 1202.6,-77.74"/>
</a>
</g>
</g>
<!-- Node7&#45;&gt;Node8 -->
<g id="edge7_Node000007_Node000008" class="edge">
<title>Node7&#45;&gt;Node8</title>
<g id="a_edge7_Node000007_Node000008"><a xlink:title=" ">
<path fill="none" stroke="#63b8ff" d="M699.91,-117.62C726.6,-107.62 769.13,-91.67 799.31,-80.35"/>
<polygon fill="#63b8ff" stroke="#63b8ff" points="800.27,-83.73 808.4,-76.94 797.81,-77.17 800.27,-83.73"/>
</a>
</g>
</g>
<!-- Node9&#45;&gt;Node8 -->
<g id="edge15_Node000009_Node000008" class="edge">
<title>Node9&#45;&gt;Node8</title>
<g id="a_edge15_Node000009_Node000008"><a xlink:title=" ">
<path fill="none" stroke="#63b8ff" d="M837.14,-111.55C836.78,-104.34 836.34,-95.66 835.95,-87.88"/>
<polygon fill="#63b8ff" stroke="#63b8ff" points="839.45,-87.73 835.46,-77.92 832.46,-88.08 839.45,-87.73"/>
</a>
</g>
</g>
<!-- Node10 -->
<g id="Node000010" class="node">
<title>Node10</title>
<g id="a_Node000010"><a xlink:href="UtilsError_8hpp.html" target="_top" xlink:title=" ">
<polygon fill="white" stroke="#666666" points="982.53,-76 883.28,-76 883.28,-56 982.53,-56 982.53,-76"/>
<text xml:space="preserve" text-anchor="middle" x="932.91" y="-62.5" font-family="Helvetica,sans-Serif" font-size="10.00">Utils/UtilsError.hpp</text>
</a>
</g>
</g>
<!-- Node9&#45;&gt;Node10 -->
<g id="edge9_Node000009_Node000010" class="edge">
<title>Node9&#45;&gt;Node10</title>
<g id="a_edge9_Node000009_Node000010"><a xlink:title=" ">
<path fill="none" stroke="#63b8ff" d="M862.37,-111.55C876.53,-102.61 894.29,-91.39 908.45,-82.45"/>
<polygon fill="#63b8ff" stroke="#63b8ff" points="910.15,-85.52 916.73,-77.22 906.41,-79.6 910.15,-85.52"/>
</a>
</g>
</g>
<!-- Node9&#45;&gt;Node14 -->
<g id="edge16_Node000009_Node000014" class="edge">
<title>Node9&#45;&gt;Node14</title>
<g id="a_edge16_Node000009_Node000014"><a xlink:title=" ">
<path fill="none" stroke="#63b8ff" d="M904.51,-113.36C907.35,-112.88 910.15,-112.42 912.91,-112 1059.16,-89.47 1096.98,-93.57 1243.91,-76 1255.66,-74.59 1268.52,-72.95 1279.93,-71.45"/>
<polygon fill="#63b8ff" stroke="#63b8ff" points="1280.22,-74.94 1289.67,-70.16 1279.3,-68 1280.22,-74.94"/>
</a>
</g>
</g>
<!-- Node10&#45;&gt;Node3 -->
<g id="edge10_Node000010_Node000003" class="edge">
<title>Node10&#45;&gt;Node3</title>
<g id="a_edge10_Node000010_Node000003"><a xlink:title=" ">
<path fill="none" stroke="#63b8ff" d="M982.87,-60.72C1106.33,-50.14 1423.38,-22.96 1528.48,-13.95"/>
<polygon fill="#63b8ff" stroke="#63b8ff" points="1528.77,-17.44 1538.44,-13.1 1528.18,-10.46 1528.77,-17.44"/>
</a>
</g>
</g>
<!-- Node10&#45;&gt;Node4 -->
<g id="edge13_Node000010_Node000004" class="edge">
<title>Node10&#45;&gt;Node4</title>
<g id="a_edge13_Node000010_Node000004"><a xlink:title=" ">
<path fill="none" stroke="#63b8ff" d="M962.35,-55.59C992.84,-45.85 1040.27,-30.7 1071.21,-20.81"/>
<polygon fill="#63b8ff" stroke="#63b8ff" points="1071.91,-24.26 1080.37,-17.88 1069.78,-17.59 1071.91,-24.26"/>
</a>
</g>
</g>
<!-- Node11 -->
<g id="Node000011" class="node">
<title>Node11</title>
<g id="a_Node000011"><a xlink:title=" ">
<polygon fill="#e0e0e0" stroke="#999999" points="423.78,-20 374.03,-20 374.03,0 423.78,0 423.78,-20"/>
<text xml:space="preserve" text-anchor="middle" x="398.91" y="-6.5" font-family="Helvetica,sans-Serif" font-size="10.00">optional</text>
</a>
</g>
</g>
<!-- Node10&#45;&gt;Node11 -->
<g id="edge11_Node000010_Node000011" class="edge">
<title>Node10&#45;&gt;Node11</title>
<g id="a_edge11_Node000010_Node000011"><a xlink:title=" ">
<path fill="none" stroke="#63b8ff" d="M883.04,-57.19C879.96,-56.77 876.89,-56.37 873.91,-56 710.87,-35.86 515.38,-19.92 435.56,-13.76"/>
<polygon fill="#63b8ff" stroke="#63b8ff" points="435.94,-10.28 425.71,-13 435.41,-17.26 435.94,-10.28"/>
</a>
</g>
</g>
<!-- Node12 -->
<g id="Node000012" class="node">
<title>Node12</title>
<g id="a_Node000012"><a xlink:title=" ">
<polygon fill="#e0e0e0" stroke="#999999" points="986.28,-20 927.53,-20 927.53,0 986.28,0 986.28,-20"/>
<text xml:space="preserve" text-anchor="middle" x="956.91" y="-6.5" font-family="Helvetica,sans-Serif" font-size="10.00">stdexcept</text>
</a>
</g>
</g>
<!-- Node10&#45;&gt;Node12 -->
<g id="edge12_Node000010_Node000012" class="edge">
<title>Node10&#45;&gt;Node12</title>
<g id="a_edge12_Node000010_Node000012"><a xlink:title=" ">
<path fill="none" stroke="#63b8ff" d="M937.09,-55.59C940.15,-48.7 944.42,-39.1 948.21,-30.57"/>
<polygon fill="#63b8ff" stroke="#63b8ff" points="951.3,-32.24 952.16,-21.68 944.9,-29.4 951.3,-32.24"/>
</a>
</g>
</g>
<!-- Node13 -->
<g id="Node000013" class="node">
<title>Node13</title>
<g id="a_Node000013"><a xlink:title=" ">
<polygon fill="#e0e0e0" stroke="#999999" points="909.53,-20 864.28,-20 864.28,0 909.53,0 909.53,-20"/>
<text xml:space="preserve" text-anchor="middle" x="886.91" y="-6.5" font-family="Helvetica,sans-Serif" font-size="10.00">variant</text>
</a>
</g>
</g>
<!-- Node10&#45;&gt;Node13 -->
<g id="edge14_Node000010_Node000013" class="edge">
<title>Node10&#45;&gt;Node13</title>
<g id="a_edge14_Node000010_Node000013"><a xlink:title=" ">
<path fill="none" stroke="#63b8ff" d="M924.9,-55.59C918.63,-48.24 909.74,-37.8 902.13,-28.87"/>
<polygon fill="#63b8ff" stroke="#63b8ff" points="904.96,-26.79 895.81,-21.45 899.63,-31.33 904.96,-26.79"/>
</a>
</g>
</g>
<!-- Node15&#45;&gt;Node3 -->
<g id="edge19_Node000015_Node000003" class="edge">
<title>Node15&#45;&gt;Node3</title>
<g id="a_edge19_Node000015_Node000003"><a xlink:title=" ">
<path fill="none" stroke="#63b8ff" d="M1422.95,-117.54C1484.66,-106.72 1575.7,-88.85 1585.91,-76 1596.7,-62.43 1587.91,-43.4 1578.25,-29.44"/>
<polygon fill="#63b8ff" stroke="#63b8ff" points="1581.08,-27.38 1572.25,-21.53 1575.51,-31.61 1581.08,-27.38"/>
</a>
</g>
</g>
<!-- Node15&#45;&gt;Node4 -->
<g id="edge21_Node000015_Node000004" class="edge">
<title>Node15&#45;&gt;Node4</title>
<g id="a_edge21_Node000015_Node000004"><a xlink:title=" ">
<path fill="none" stroke="#63b8ff" d="M1365.9,-117.56C1365.33,-102.21 1361.84,-71.95 1343.91,-56 1313.21,-28.69 1192.06,-17.01 1133.68,-12.9"/>
<polygon fill="#63b8ff" stroke="#63b8ff" points="1133.96,-9.41 1123.75,-12.23 1133.49,-16.39 1133.96,-9.41"/>
</a>
</g>
</g>
<!-- Node15&#45;&gt;Node8 -->
<g id="edge20_Node000015_Node000008" class="edge">
<title>Node15&#45;&gt;Node8</title>
<g id="a_edge20_Node000015_Node000008"><a xlink:title=" ">
<path fill="none" stroke="#63b8ff" d="M1287.69,-117.52C1271.57,-115.64 1254.69,-113.71 1238.91,-112 1080.49,-94.83 1036.72,-102.04 876.71,-76.28"/>
<polygon fill="#63b8ff" stroke="#63b8ff" points="877.42,-72.85 866.99,-74.69 876.29,-79.76 877.42,-72.85"/>
</a>
</g>
</g>
<!-- Node15&#45;&gt;Node10 -->
<g id="edge18_Node000015_Node000010" class="edge">
<title>Node15&#45;&gt;Node10</title>
<g id="a_edge18_Node000015_Node000010"><a xlink:title=" ">
<path fill="none" stroke="#63b8ff" d="M1297.78,-117.56C1214.36,-106 1074.31,-86.59 994.16,-75.49"/>
<polygon fill="#63b8ff" stroke="#63b8ff" points="994.66,-72.02 984.28,-74.12 993.7,-78.96 994.66,-72.02"/>
</a>
</g>
</g>
<!-- Node15&#45;&gt;Node14 -->
<g id="edge22_Node000015_Node000014" class="edge">
<title>Node15&#45;&gt;Node14</title>
<g id="a_edge22_Node000015_Node000014"><a xlink:title=" ">
<path fill="none" stroke="#63b8ff" d="M1357.63,-117.62C1349.8,-108.77 1337.87,-95.26 1328.3,-84.43"/>
<polygon fill="#63b8ff" stroke="#63b8ff" points="1331.21,-82.42 1321.96,-77.25 1325.96,-87.06 1331.21,-82.42"/>
</a>
</g>
</g>
<!-- Node16&#45;&gt;Node3 -->
<g id="edge25_Node000016_Node000003" class="edge">
<title>Node16&#45;&gt;Node3</title>
<g id="a_edge25_Node000016_Node000003"><a xlink:title=" ">
<path fill="none" stroke="#63b8ff" d="M1566.75,-117.61C1585.05,-109.63 1607.9,-96.21 1618.91,-76 1629.29,-56.95 1609.74,-38.54 1590.95,-26.21"/>
<polygon fill="#63b8ff" stroke="#63b8ff" points="1593.01,-23.36 1582.65,-21.13 1589.36,-29.34 1593.01,-23.36"/>
</a>
</g>
</g>
<!-- Node16&#45;&gt;Node4 -->
<g id="edge27_Node000016_Node000004" class="edge">
<title>Node16&#45;&gt;Node4</title>
<g id="a_edge27_Node000016_Node000004"><a xlink:title=" ">
<path fill="none" stroke="#63b8ff" d="M1520.71,-117.6C1489.01,-102.45 1423.4,-72.66 1364.91,-56 1283.21,-32.73 1183.61,-19.71 1133.67,-14.19"/>
<polygon fill="#63b8ff" stroke="#63b8ff" points="1134.19,-10.73 1123.87,-13.14 1133.44,-17.69 1134.19,-10.73"/>
</a>
</g>
</g>
<!-- Node16&#45;&gt;Node8 -->
<g id="edge26_Node000016_Node000008" class="edge">
<title>Node16&#45;&gt;Node8</title>
<g id="a_edge26_Node000016_Node000008"><a xlink:title=" ">
<path fill="none" stroke="#63b8ff" d="M1491.95,-117.56C1479.9,-115.46 1466.96,-113.43 1454.91,-112 1201.64,-81.9 1131.9,-112.33 877,-76.23"/>
<polygon fill="#63b8ff" stroke="#63b8ff" points="877.8,-72.81 867.4,-74.85 876.8,-79.74 877.8,-72.81"/>
</a>
</g>
</g>
<!-- Node16&#45;&gt;Node10 -->
<g id="edge24_Node000016_Node000010" class="edge">
<title>Node16&#45;&gt;Node10</title>
<g id="a_edge24_Node000016_Node000010"><a xlink:title=" ">
<path fill="none" stroke="#63b8ff" d="M1490.58,-117.53C1478.92,-115.5 1466.5,-113.52 1454.91,-112 1367.3,-100.52 1112.02,-80.55 994.03,-71.58"/>
<polygon fill="#63b8ff" stroke="#63b8ff" points="994.45,-68.11 984.22,-70.84 993.92,-75.09 994.45,-68.11"/>
</a>
</g>
</g>
<!-- Node16&#45;&gt;Node14 -->
<g id="edge28_Node000016_Node000014" class="edge">
<title>Node16&#45;&gt;Node14</title>
<g id="a_edge28_Node000016_Node000014"><a xlink:title=" ">
<path fill="none" stroke="#63b8ff" d="M1504.19,-117.56C1460.71,-106.07 1387.88,-86.82 1345.75,-75.68"/>
<polygon fill="#63b8ff" stroke="#63b8ff" points="1346.75,-72.32 1336.19,-73.15 1344.96,-79.09 1346.75,-72.32"/>
</a>
</g>
</g>
<!-- Node17&#45;&gt;Node4 -->
<g id="edge32_Node000017_Node000004" class="edge">
<title>Node17&#45;&gt;Node4</title>
<g id="a_edge32_Node000017_Node000004"><a xlink:title=" ">
<path fill="none" stroke="#63b8ff" d="M1014.49,-117.59C1024.24,-103.78 1043.28,-77.35 1060.91,-56 1068.54,-46.76 1077.45,-36.88 1085.01,-28.74"/>
<polygon fill="#63b8ff" stroke="#63b8ff" points="1087.5,-31.2 1091.8,-21.52 1082.4,-26.41 1087.5,-31.2"/>
</a>
</g>
</g>
<!-- Node17&#45;&gt;Node8 -->
<g id="edge31_Node000017_Node000008" class="edge">
<title>Node17&#45;&gt;Node8</title>
<g id="a_edge31_Node000017_Node000008"><a xlink:title=" ">
<path fill="none" stroke="#63b8ff" d="M980.88,-117.62C951.76,-107.53 905.23,-91.39 872.54,-80.05"/>
<polygon fill="#63b8ff" stroke="#63b8ff" points="874.06,-76.87 863.47,-76.9 871.77,-83.49 874.06,-76.87"/>
</a>
</g>
</g>
<!-- Node17&#45;&gt;Node10 -->
<g id="edge30_Node000017_Node000010" class="edge">
<title>Node17&#45;&gt;Node10</title>
<g id="a_edge30_Node000017_Node000010"><a xlink:title=" ">
<path fill="none" stroke="#63b8ff" d="M996.19,-117.62C984.68,-108.41 966.88,-94.17 953.08,-83.14"/>
<polygon fill="#63b8ff" stroke="#63b8ff" points="955.48,-80.57 945.48,-77.06 951.11,-86.04 955.48,-80.57"/>
</a>
</g>
</g>
<!-- Node17&#45;&gt;Node14 -->
<g id="edge33_Node000017_Node000014" class="edge">
<title>Node17&#45;&gt;Node14</title>
<g id="a_edge33_Node000017_Node000014"><a xlink:title=" ">
<path fill="none" stroke="#63b8ff" d="M1055.9,-117.56C1118.42,-105.26 1226.08,-84.08 1280.05,-73.46"/>
<polygon fill="#63b8ff" stroke="#63b8ff" points="1280.41,-76.96 1289.54,-71.6 1279.06,-70.09 1280.41,-76.96"/>
</a>
</g>
</g>
<!-- Node18&#45;&gt;Node4 -->
<g id="edge38_Node000018_Node000004" class="edge">
<title>Node18&#45;&gt;Node4</title>
<g id="a_edge38_Node000018_Node000004"><a xlink:title=" ">
<path fill="none" stroke="#63b8ff" d="M90.9,-111.75C95.09,-94.89 104.5,-68.48 123.91,-56 205.38,-3.62 898.24,-26.06 994.91,-20 1020.22,-18.41 1048.85,-15.97 1070.12,-14.03"/>
<polygon fill="#63b8ff" stroke="#63b8ff" points="1070.27,-17.53 1079.91,-13.12 1069.63,-10.56 1070.27,-17.53"/>
</a>
</g>
</g>
<!-- Node18&#45;&gt;Node10 -->
<g id="edge35_Node000018_Node000010" class="edge">
<title>Node18&#45;&gt;Node10</title>
<g id="a_edge35_Node000018_Node000010"><a xlink:title=" ">
<path fill="none" stroke="#63b8ff" d="M154.14,-117.32C169.47,-115.33 185.74,-113.41 200.91,-112 495.52,-84.61 574.03,-106.08 871.92,-76.09"/>
<polygon fill="#63b8ff" stroke="#63b8ff" points="871.96,-79.6 881.55,-75.11 871.25,-72.64 871.96,-79.6"/>
</a>
</g>
</g>
<!-- Node18&#45;&gt;Node11 -->
<g id="edge37_Node000018_Node000011" class="edge">
<title>Node18&#45;&gt;Node11</title>
<g id="a_edge37_Node000018_Node000011"><a xlink:title=" ">
<path fill="none" stroke="#63b8ff" d="M81.18,-111.72C75.35,-95.84 69.71,-71.21 82.91,-56 118.76,-14.68 287.27,-10.33 362.49,-10.5"/>
<polygon fill="#63b8ff" stroke="#63b8ff" points="362.2,-14 372.22,-10.55 362.24,-7 362.2,-14"/>
</a>
</g>
</g>
<!-- Node18&#45;&gt;Node19 -->
<g id="edge36_Node000018_Node000019" class="edge">
<title>Node18&#45;&gt;Node19</title>
<g id="a_edge36_Node000018_Node000019"><a xlink:title=" ">
<path fill="none" stroke="#63b8ff" d="M112.12,-111.55C126.12,-102.61 143.7,-91.39 157.7,-82.45"/>
<polygon fill="#63b8ff" stroke="#63b8ff" points="159.35,-85.55 165.9,-77.22 155.58,-79.65 159.35,-85.55"/>
</a>
</g>
</g>
<!-- Node20&#45;&gt;Node4 -->
<g id="edge43_Node000020_Node000004" class="edge">
<title>Node20&#45;&gt;Node4</title>
<g id="a_edge43_Node000020_Node000004"><a xlink:title=" ">
<path fill="none" stroke="#63b8ff" d="M336.23,-117.51C347.35,-115.62 359.01,-113.69 369.91,-112 640.35,-70.04 968.38,-27.88 1070.22,-14.99"/>
<polygon fill="#63b8ff" stroke="#63b8ff" points="1070.51,-18.48 1080,-13.75 1069.64,-11.53 1070.51,-18.48"/>
</a>
</g>
</g>
<!-- Node20&#45;&gt;Node8 -->
<g id="edge41_Node000020_Node000008" class="edge">
<title>Node20&#45;&gt;Node8</title>
<g id="a_edge41_Node000020_Node000008"><a xlink:title=" ">
<path fill="none" stroke="#63b8ff" d="M333.88,-117.56C345.68,-115.56 358.21,-113.57 369.91,-112 525.25,-91.12 711.04,-76.12 792.79,-70.02"/>
<polygon fill="#63b8ff" stroke="#63b8ff" points="792.85,-73.53 802.57,-69.3 792.34,-66.55 792.85,-73.53"/>
</a>
</g>
</g>
<!-- Node20&#45;&gt;Node10 -->
<g id="edge40_Node000020_Node000010" class="edge">
<title>Node20&#45;&gt;Node10</title>
<g id="a_edge40_Node000020_Node000010"><a xlink:title=" ">
<path fill="none" stroke="#63b8ff" d="M356.45,-119.84C383.05,-117.3 413.33,-114.46 440.91,-112 629.59,-95.2 680.21,-98.44 871.73,-76.18"/>
<polygon fill="#63b8ff" stroke="#63b8ff" points="872.02,-79.67 881.55,-75.03 871.21,-72.71 872.02,-79.67"/>
</a>
</g>
</g>
<!-- Node20&#45;&gt;Node19 -->
<g id="edge42_Node000020_Node000019" class="edge">
<title>Node20&#45;&gt;Node19</title>
<g id="a_edge42_Node000020_Node000019"><a xlink:title=" ">
<path fill="none" stroke="#63b8ff" d="M267.13,-117.62C251.12,-108.11 226.09,-93.24 207.29,-82.08"/>
<polygon fill="#63b8ff" stroke="#63b8ff" points="209.27,-79.18 198.88,-77.08 205.69,-85.2 209.27,-79.18"/>
</a>
</g>
</g>
<!-- Node21&#45;&gt;Node3 -->
<g id="edge46_Node000021_Node000003" class="edge">
<title>Node21&#45;&gt;Node3</title>
<g id="a_edge46_Node000021_Node000003"><a xlink:title=" ">
<path fill="none" stroke="#63b8ff" d="M1778.97,-55.53C1727,-44.82 1643.54,-27.62 1597.03,-18.03"/>
<polygon fill="#63b8ff" stroke="#63b8ff" points="1597.75,-14.61 1587.25,-16.02 1596.34,-21.46 1597.75,-14.61"/>
</a>
</g>
</g>
<!-- Node21&#45;&gt;Node4 -->
<g id="edge49_Node000021_Node000004" class="edge">
<title>Node21&#45;&gt;Node4</title>
<g id="a_edge49_Node000021_Node000004"><a xlink:title=" ">
<path fill="none" stroke="#63b8ff" d="M1763.27,-60.4C1615.32,-49.35 1244.18,-21.63 1133.53,-13.36"/>
<polygon fill="#63b8ff" stroke="#63b8ff" points="1133.95,-9.88 1123.72,-12.63 1133.43,-16.86 1133.95,-9.88"/>
</a>
</g>
</g>
<!-- Node22 -->
<g id="Node000022" class="node">
<title>Node22</title>
<g id="a_Node000022"><a xlink:title=" ">
<polygon fill="#e0e0e0" stroke="#999999" points="1919.03,-20 1858.78,-20 1858.78,0 1919.03,0 1919.03,-20"/>
<text xml:space="preserve" text-anchor="middle" x="1888.91" y="-6.5" font-family="Helvetica,sans-Serif" font-size="10.00">fmt/core.h</text>
</a>
</g>
</g>
<!-- Node21&#45;&gt;Node22 -->
<g id="edge45_Node000021_Node000022" class="edge">
<title>Node21&#45;&gt;Node22</title>
<g id="a_edge45_Node000021_Node000022"><a xlink:title=" ">
<path fill="none" stroke="#63b8ff" d="M1836.06,-55.59C1845.24,-47.85 1858.46,-36.69 1869.39,-27.47"/>
<polygon fill="#63b8ff" stroke="#63b8ff" points="1871.35,-30.4 1876.73,-21.27 1866.83,-25.05 1871.35,-30.4"/>
</a>
</g>
</g>
<!-- Node21&#45;&gt;Node23 -->
<g id="edge47_Node000021_Node000023" class="edge">
<title>Node21&#45;&gt;Node23</title>
<g id="a_edge47_Node000021_Node000023"><a xlink:title=" ">
<path fill="none" stroke="#63b8ff" d="M1809.41,-55.59C1796.09,-47.51 1776.63,-35.71 1761.08,-26.27"/>
<polygon fill="#63b8ff" stroke="#63b8ff" points="1763.19,-23.46 1752.83,-21.26 1759.56,-29.44 1763.19,-23.46"/>
</a>
</g>
</g>
<!-- Node24 -->
<g id="Node000024" class="node">
<title>Node24</title>
<g id="a_Node000024"><a xlink:title=" ">
<polygon fill="#e0e0e0" stroke="#999999" points="1840.53,-20 1789.28,-20 1789.28,0 1840.53,0 1840.53,-20"/>
<text xml:space="preserve" text-anchor="middle" x="1814.91" y="-6.5" font-family="Helvetica,sans-Serif" font-size="10.00">sstream</text>
</a>
</g>
</g>
<!-- Node21&#45;&gt;Node24 -->
<g id="edge48_Node000021_Node000024" class="edge">
<title>Node21&#45;&gt;Node24</title>
<g id="a_edge48_Node000021_Node000024"><a xlink:title=" ">
<path fill="none" stroke="#63b8ff" d="M1823.17,-55.59C1821.93,-48.93 1820.23,-39.75 1818.7,-31.44"/>
<polygon fill="#63b8ff" stroke="#63b8ff" points="1822.17,-30.98 1816.91,-21.79 1815.29,-32.26 1822.17,-30.98"/>
</a>
</g>
</g>
<!-- Node25&#45;&gt;Node4 -->
<g id="edge52_Node000025_Node000004" class="edge">
<title>Node25&#45;&gt;Node4</title>
<g id="a_edge52_Node000025_Node000004"><a xlink:title=" ">
<path fill="none" stroke="#63b8ff" d="M1749.49,-117.51C1650.33,-104.88 1485.42,-83.3 1457.91,-76 1434.78,-69.86 1431.02,-62.23 1407.91,-56 1309.86,-29.57 1189.67,-17.63 1133.57,-13.2"/>
<polygon fill="#63b8ff" stroke="#63b8ff" points="1134.04,-9.72 1123.8,-12.46 1133.51,-16.7 1134.04,-9.72"/>
</a>
</g>
</g>
<!-- Node25&#45;&gt;Node21 -->
<g id="edge53_Node000025_Node000021" class="edge">
<title>Node25&#45;&gt;Node21</title>
<g id="a_edge53_Node000025_Node000021"><a xlink:title=" ">
<path fill="none" stroke="#63b8ff" d="M1824.91,-117.62C1824.91,-109.56 1824.91,-97.65 1824.91,-87.41"/>
<polygon fill="#63b8ff" stroke="#63b8ff" points="1828.41,-87.63 1824.91,-77.63 1821.41,-87.63 1828.41,-87.63"/>
</a>
</g>
</g>
<!-- Node25&#45;&gt;Node23 -->
<g id="edge51_Node000025_Node000023" class="edge">
<title>Node25&#45;&gt;Node23</title>
<g id="a_edge51_Node000025_Node000023"><a xlink:title=" ">
<path fill="none" stroke="#63b8ff" d="M1805.83,-117.67C1789.98,-108.98 1767.97,-94.57 1754.91,-76 1745.59,-62.75 1740.8,-44.92 1738.36,-31.29"/>
<polygon fill="#63b8ff" stroke="#63b8ff" points="1741.87,-31.08 1736.94,-21.7 1734.94,-32.11 1741.87,-31.08"/>
</a>
</g>
</g>
<!-- Node26&#45;&gt;Node21 -->
<g id="edge55_Node000026_Node000021" class="edge">
<title>Node26&#45;&gt;Node21</title>
<g id="a_edge55_Node000026_Node000021"><a xlink:title=" ">
<path fill="none" stroke="#63b8ff" d="M1961.6,-117.62C1934.57,-107.62 1891.51,-91.67 1860.95,-80.35"/>
<polygon fill="#63b8ff" stroke="#63b8ff" points="1862.32,-77.12 1851.73,-76.93 1859.89,-83.69 1862.32,-77.12"/>
</a>
</g>
</g>
<!-- Node27&#45;&gt;Node3 -->
<g id="edge58_Node000027_Node000003" class="edge">
<title>Node27&#45;&gt;Node3</title>
<g id="a_edge58_Node000027_Node000003"><a xlink:title=" ">
<path fill="none" stroke="#63b8ff" d="M1192.72,-111.67C1219.69,-93 1264.29,-63.06 1282.91,-56 1367.45,-23.97 1474.76,-14.74 1528.69,-12.08"/>
<polygon fill="#63b8ff" stroke="#63b8ff" points="1528.63,-15.58 1538.46,-11.65 1528.32,-8.59 1528.63,-15.58"/>
</a>
</g>
</g>
<!-- Node27&#45;&gt;Node4 -->
<g id="edge60_Node000027_Node000004" class="edge">
<title>Node27&#45;&gt;Node4</title>
<g id="a_edge60_Node000027_Node000004"><a xlink:title=" ">
<path fill="none" stroke="#63b8ff" d="M1113.97,-111.56C1096.45,-103.85 1079.11,-92.5 1068.91,-76 1059.19,-60.28 1071.3,-41.35 1083.49,-27.98"/>
<polygon fill="#63b8ff" stroke="#63b8ff" points="1085.68,-30.74 1090.22,-21.17 1080.71,-25.82 1085.68,-30.74"/>
</a>
</g>
</g>
<!-- Node27&#45;&gt;Node8 -->
<g id="edge59_Node000027_Node000008" class="edge">
<title>Node27&#45;&gt;Node8</title>
<g id="a_edge59_Node000027_Node000008"><a xlink:title=" ">
<path fill="none" stroke="#63b8ff" d="M1111.25,-113.62C1108.43,-113.06 1105.64,-112.52 1102.91,-112 1005.23,-93.57 977.02,-95.43 876.77,-76.44"/>
<polygon fill="#63b8ff" stroke="#63b8ff" points="877.49,-73.01 867.01,-74.57 876.17,-79.89 877.49,-73.01"/>
</a>
</g>
</g>
<!-- Node27&#45;&gt;Node10 -->
<g id="edge57_Node000027_Node000010" class="edge">
<title>Node27&#45;&gt;Node10</title>
<g id="a_edge57_Node000027_Node000010"><a xlink:title=" ">
<path fill="none" stroke="#63b8ff" d="M1111.16,-111.94C1071.1,-101.84 1019.02,-88.71 981.51,-79.25"/>
<polygon fill="#63b8ff" stroke="#63b8ff" points="982.39,-75.86 971.83,-76.81 980.68,-82.65 982.39,-75.86"/>
</a>
</g>
</g>
<!-- Node28&#45;&gt;Node4 -->
<g id="edge62_Node000028_Node000004" class="edge">
<title>Node28&#45;&gt;Node4</title>
<g id="a_edge62_Node000028_Node000004"><a xlink:title=" ">
<path fill="none" stroke="#63b8ff" d="M1146.5,-55.59C1138.99,-48.08 1128.26,-37.35 1119.21,-28.3"/>
<polygon fill="#63b8ff" stroke="#63b8ff" points="1121.82,-25.96 1112.28,-21.37 1116.87,-30.91 1121.82,-25.96"/>
</a>
</g>
</g>
</g>
</svg>
