<?xml version="1.0" encoding="UTF-8" standalone="no"?>
<!DOCTYPE svg PUBLIC "-//W3C//DTD SVG 1.1//EN"
 "http://www.w3.org/Graphics/SVG/1.1/DTD/svg11.dtd">
<!-- Generated by graphviz version 13.1.2 (20250808.2320)
 -->
<!-- Title: src/Rss/RSSMedia.hpp Pages: 1 -->
<svg width="394pt" height="308pt"
 viewBox="0.00 0.00 394.00 308.00" xmlns="http://www.w3.org/2000/svg" xmlns:xlink="http://www.w3.org/1999/xlink">
<g id="graph0" class="graph" transform="scale(1 1) rotate(0) translate(4 304)">
<title>src/Rss/RSSMedia.hpp</title>
<!-- Node1 -->
<g id="Node000001" class="node">
<title>Node1</title>
<g id="a_Node000001"><a xlink:title=" ">
<polygon fill="#999999" stroke="#666666" points="282.62,-300 163.12,-300 163.12,-280 282.62,-280 282.62,-300"/>
<text xml:space="preserve" text-anchor="middle" x="222.88" y="-286.5" font-family="Helvetica,sans-Serif" font-size="10.00">src/Rss/RSSMedia.hpp</text>
</a>
</g>
</g>
<!-- Node2 -->
<g id="Node000002" class="node">
<title>Node2</title>
<g id="a_Node000002"><a xlink:href="RSSItem_8hpp.html" target="_top" xlink:title=" ">
<polygon fill="white" stroke="#666666" points="237.25,-244 124.5,-244 124.5,-224 237.25,-224 237.25,-244"/>
<text xml:space="preserve" text-anchor="middle" x="180.88" y="-230.5" font-family="Helvetica,sans-Serif" font-size="10.00">src/Rss/RSSItem.hpp</text>
</a>
</g>
</g>
<!-- Node1&#45;&gt;Node2 -->
<g id="edge1_Node000001_Node000002" class="edge">
<title>Node1&#45;&gt;Node2</title>
<g id="a_edge1_Node000001_Node000002"><a xlink:title=" ">
<path fill="none" stroke="#63b8ff" d="M208.66,-270.72C201.75,-261.84 193.74,-251.55 188.11,-244.3"/>
<polygon fill="#63b8ff" stroke="#63b8ff" points="205.73,-272.65 214.63,-278.4 211.25,-268.36 205.73,-272.65"/>
</a>
</g>
</g>
<!-- Node7 -->
<g id="Node000007" class="node">
<title>Node7</title>
<g id="a_Node000007"><a xlink:href="RssManager_8hpp.html" target="_top" xlink:title=" ">
<polygon fill="white" stroke="#666666" points="301.75,-132 174,-132 174,-112 301.75,-112 301.75,-132"/>
<text xml:space="preserve" text-anchor="middle" x="237.88" y="-118.5" font-family="Helvetica,sans-Serif" font-size="10.00">src/Rss/RssManager.hpp</text>
</a>
</g>
</g>
<!-- Node1&#45;&gt;Node7 -->
<g id="edge11_Node000001_Node000007" class="edge">
<title>Node1&#45;&gt;Node7</title>
<g id="a_edge11_Node000001_Node000007"><a xlink:title=" ">
<path fill="none" stroke="#63b8ff" d="M235.23,-269.78C239.49,-262.08 243.73,-252.93 245.88,-244 255.68,-203.27 245.41,-152.75 240.35,-132.27"/>
<polygon fill="#63b8ff" stroke="#63b8ff" points="232.31,-267.84 230.19,-278.22 238.32,-271.43 232.31,-267.84"/>
</a>
</g>
</g>
<!-- Node3 -->
<g id="Node000003" class="node">
<title>Node3</title>
<g id="a_Node000003"><a xlink:href="DiscordBot_8hpp.html" target="_top" xlink:title=" ">
<polygon fill="white" stroke="#666666" points="184.75,-76 33,-76 33,-56 184.75,-56 184.75,-76"/>
<text xml:space="preserve" text-anchor="middle" x="108.88" y="-62.5" font-family="Helvetica,sans-Serif" font-size="10.00">src/DiscordBot/DiscordBot.hpp</text>
</a>
</g>
</g>
<!-- Node2&#45;&gt;Node3 -->
<g id="edge2_Node000002_Node000003" class="edge">
<title>Node2&#45;&gt;Node3</title>
<g id="a_edge2_Node000002_Node000003"><a xlink:title=" ">
<path fill="none" stroke="#63b8ff" d="M133.68,-219.28C118.61,-212.42 103.6,-202.41 94.88,-188 72.86,-151.64 94.05,-97.78 104.17,-76.32"/>
<polygon fill="#63b8ff" stroke="#63b8ff" points="132.07,-222.4 142.65,-222.96 134.73,-215.93 132.07,-222.4"/>
</a>
</g>
</g>
<!-- Node6 -->
<g id="Node000006" class="node">
<title>Node6</title>
<g id="a_Node000006"><a xlink:href="RSSFeed_8hpp.html" target="_top" xlink:title=" ">
<polygon fill="white" stroke="#666666" points="218.38,-188 103.38,-188 103.38,-168 218.38,-168 218.38,-188"/>
<text xml:space="preserve" text-anchor="middle" x="160.88" y="-174.5" font-family="Helvetica,sans-Serif" font-size="10.00">src/Rss/RSSFeed.hpp</text>
</a>
</g>
</g>
<!-- Node2&#45;&gt;Node6 -->
<g id="edge5_Node000002_Node000006" class="edge">
<title>Node2&#45;&gt;Node6</title>
<g id="a_edge5_Node000002_Node000006"><a xlink:title=" ">
<path fill="none" stroke="#63b8ff" d="M173.47,-213C170.33,-204.54 166.83,-195.08 164.32,-188.3"/>
<polygon fill="#63b8ff" stroke="#63b8ff" points="170.11,-214.01 176.87,-222.17 176.67,-211.58 170.11,-214.01"/>
</a>
</g>
</g>
<!-- Node2&#45;&gt;Node7 -->
<g id="edge10_Node000002_Node000007" class="edge">
<title>Node2&#45;&gt;Node7</title>
<g id="a_edge10_Node000002_Node000007"><a xlink:title=" ">
<path fill="none" stroke="#63b8ff" d="M203.74,-216.51C212.68,-208.85 222.15,-199.01 227.88,-188 237.26,-169.97 238.43,-145.59 238.27,-132.4"/>
<polygon fill="#63b8ff" stroke="#63b8ff" points="201.61,-213.73 195.97,-222.71 205.97,-219.2 201.61,-213.73"/>
</a>
</g>
</g>
<!-- Node4 -->
<g id="Node000004" class="node">
<title>Node4</title>
<g id="a_Node000004"><a xlink:href="DiscordBot_8cpp.html" target="_top" xlink:title=" ">
<polygon fill="white" stroke="#666666" points="151.75,-20 0,-20 0,0 151.75,0 151.75,-20"/>
<text xml:space="preserve" text-anchor="middle" x="75.88" y="-6.5" font-family="Helvetica,sans-Serif" font-size="10.00">src/DiscordBot/DiscordBot.cpp</text>
</a>
</g>
</g>
<!-- Node3&#45;&gt;Node4 -->
<g id="edge3_Node000003_Node000004" class="edge">
<title>Node3&#45;&gt;Node4</title>
<g id="a_edge3_Node000003_Node000004"><a xlink:title=" ">
<path fill="none" stroke="#63b8ff" d="M97.18,-45.87C91.88,-37.19 85.85,-27.32 81.56,-20.3"/>
<polygon fill="#63b8ff" stroke="#63b8ff" points="94.14,-47.59 102.34,-54.3 100.11,-43.94 94.14,-47.59"/>
</a>
</g>
</g>
<!-- Node5 -->
<g id="Node000005" class="node">
<title>Node5</title>
<g id="a_Node000005"><a xlink:href="DotNameBotLib_8cpp.html" target="_top" xlink:title=" ">
<polygon fill="white" stroke="#666666" points="290.38,-20 169.38,-20 169.38,0 290.38,0 290.38,-20"/>
<text xml:space="preserve" text-anchor="middle" x="229.88" y="-6.5" font-family="Helvetica,sans-Serif" font-size="10.00">src/DotNameBotLib.cpp</text>
</a>
</g>
</g>
<!-- Node3&#45;&gt;Node5 -->
<g id="edge4_Node000003_Node000005" class="edge">
<title>Node3&#45;&gt;Node5</title>
<g id="a_edge4_Node000003_Node000005"><a xlink:title=" ">
<path fill="none" stroke="#63b8ff" d="M140.22,-51.01C161.73,-41.41 189.7,-28.93 208.63,-20.48"/>
<polygon fill="#63b8ff" stroke="#63b8ff" points="139.04,-47.71 131.33,-54.98 141.89,-54.1 139.04,-47.71"/>
</a>
</g>
</g>
<!-- Node6&#45;&gt;Node7 -->
<g id="edge6_Node000006_Node000007" class="edge">
<title>Node6&#45;&gt;Node7</title>
<g id="a_edge6_Node000006_Node000007"><a xlink:title=" ">
<path fill="none" stroke="#63b8ff" d="M183.69,-161C196.92,-151.72 213.13,-140.35 224.36,-132.48"/>
<polygon fill="#63b8ff" stroke="#63b8ff" points="181.7,-158.12 175.53,-166.72 185.72,-163.85 181.7,-158.12"/>
</a>
</g>
</g>
<!-- Node7&#45;&gt;Node3 -->
<g id="edge7_Node000007_Node000003" class="edge">
<title>Node7&#45;&gt;Node3</title>
<g id="a_edge7_Node000007_Node000003"><a xlink:title=" ">
<path fill="none" stroke="#63b8ff" d="M205.08,-107.27C182.07,-97.64 151.89,-85.01 131.52,-76.48"/>
<polygon fill="#63b8ff" stroke="#63b8ff" points="203.43,-110.38 214.01,-111.01 206.14,-103.92 203.43,-110.38"/>
</a>
</g>
</g>
<!-- Node7&#45;&gt;Node5 -->
<g id="edge8_Node000007_Node000005" class="edge">
<title>Node7&#45;&gt;Node5</title>
<g id="a_edge8_Node000007_Node000005"><a xlink:title=" ">
<path fill="none" stroke="#63b8ff" d="M236.37,-100.31C234.63,-76.36 231.84,-37.95 230.56,-20.35"/>
<polygon fill="#63b8ff" stroke="#63b8ff" points="232.87,-100.39 237.08,-110.11 239.85,-99.88 232.87,-100.39"/>
</a>
</g>
</g>
<!-- Node8 -->
<g id="Node000008" class="node">
<title>Node8</title>
<g id="a_Node000008"><a xlink:href="RssManager_8cpp.html" target="_top" xlink:title=" ">
<polygon fill="white" stroke="#666666" points="385.75,-76 258,-76 258,-56 385.75,-56 385.75,-76"/>
<text xml:space="preserve" text-anchor="middle" x="321.88" y="-62.5" font-family="Helvetica,sans-Serif" font-size="10.00">src/Rss/RssManager.cpp</text>
</a>
</g>
</g>
<!-- Node7&#45;&gt;Node8 -->
<g id="edge9_Node000007_Node000008" class="edge">
<title>Node7&#45;&gt;Node8</title>
<g id="a_edge9_Node000007_Node000008"><a xlink:title=" ">
<path fill="none" stroke="#63b8ff" d="M261.92,-105.54C276.5,-96.17 294.64,-84.51 307.13,-76.48"/>
<polygon fill="#63b8ff" stroke="#63b8ff" points="260.3,-102.42 253.78,-110.78 264.08,-108.31 260.3,-102.42"/>
</a>
</g>
</g>
</g>
</svg>
