<?xml version="1.0" encoding="UTF-8" standalone="no"?>
<!DOCTYPE svg PUBLIC "-//W3C//DTD SVG 1.1//EN"
 "http://www.w3.org/Graphics/SVG/1.1/DTD/svg11.dtd">
<!-- Generated by graphviz version 13.1.2 (20250808.2320)
 -->
<!-- Title: src/Rss/RssManager.cpp Pages: 1 -->
<svg width="1996pt" height="320pt"
 viewBox="0.00 0.00 1996.00 320.00" xmlns="http://www.w3.org/2000/svg" xmlns:xlink="http://www.w3.org/1999/xlink">
<g id="graph0" class="graph" transform="scale(1 1) rotate(0) translate(4 316)">
<title>src/Rss/RssManager.cpp</title>
<!-- Node1 -->
<g id="Node000001" class="node">
<title>Node1</title>
<g id="a_Node000001"><a xlink:title=" ">
<polygon fill="#999999" stroke="#666666" points="1872.14,-312 1744.39,-312 1744.39,-292 1872.14,-292 1872.14,-312"/>
<text xml:space="preserve" text-anchor="middle" x="1808.27" y="-298.5" font-family="Helvetica,sans-Serif" font-size="10.00">src/Rss/RssManager.cpp</text>
</a>
</g>
</g>
<!-- Node2 -->
<g id="Node000002" class="node">
<title>Node2</title>
<g id="a_Node000002"><a xlink:href="RssManager_8hpp.html" target="_top" xlink:title=" ">
<polygon fill="white" stroke="#666666" points="1642.39,-256 1552.14,-256 1552.14,-236 1642.39,-236 1642.39,-256"/>
<text xml:space="preserve" text-anchor="middle" x="1597.27" y="-242.5" font-family="Helvetica,sans-Serif" font-size="10.00">RssManager.hpp</text>
</a>
</g>
</g>
<!-- Node1&#45;&gt;Node2 -->
<g id="edge1_Node000001_Node000002" class="edge">
<title>Node1&#45;&gt;Node2</title>
<g id="a_edge1_Node000001_Node000002"><a xlink:title=" ">
<path fill="none" stroke="#63b8ff" d="M1771.51,-291.59C1736.48,-282.63 1683.53,-269.08 1645.2,-259.27"/>
<polygon fill="#63b8ff" stroke="#63b8ff" points="1646.33,-255.94 1635.77,-256.85 1644.59,-262.72 1646.33,-255.94"/>
</a>
</g>
</g>
<!-- Node30 -->
<g id="Node000030" class="node">
<title>Node30</title>
<g id="a_Node000030"><a xlink:title=" ">
<polygon fill="#e0e0e0" stroke="#999999" points="1857.39,-200 1809.14,-200 1809.14,-180 1857.39,-180 1857.39,-200"/>
<text xml:space="preserve" text-anchor="middle" x="1833.27" y="-186.5" font-family="Helvetica,sans-Serif" font-size="10.00">random</text>
</a>
</g>
</g>
<!-- Node1&#45;&gt;Node30 -->
<g id="edge75_Node000001_Node000030" class="edge">
<title>Node1&#45;&gt;Node30</title>
<g id="a_edge75_Node000001_Node000030"><a xlink:title=" ">
<path fill="none" stroke="#63b8ff" d="M1796.12,-291.7C1781.4,-279.25 1759.8,-256.34 1770.27,-236 1776.9,-223.11 1789.12,-213.1 1801.04,-205.83"/>
<polygon fill="#63b8ff" stroke="#63b8ff" points="1802.51,-209.02 1809.54,-201.09 1799.1,-202.9 1802.51,-209.02"/>
</a>
</g>
</g>
<!-- Node33 -->
<g id="Node000033" class="node">
<title>Node33</title>
<g id="a_Node000033"><a xlink:title=" ">
<polygon fill="#e0e0e0" stroke="#999999" points="1837.64,-256 1778.89,-256 1778.89,-236 1837.64,-236 1837.64,-256"/>
<text xml:space="preserve" text-anchor="middle" x="1808.27" y="-242.5" font-family="Helvetica,sans-Serif" font-size="10.00">curl/curl.h</text>
</a>
</g>
</g>
<!-- Node1&#45;&gt;Node33 -->
<g id="edge73_Node000001_Node000033" class="edge">
<title>Node1&#45;&gt;Node33</title>
<g id="a_edge73_Node000001_Node000033"><a xlink:title=" ">
<path fill="none" stroke="#63b8ff" d="M1808.27,-291.59C1808.27,-285.01 1808.27,-275.96 1808.27,-267.73"/>
<polygon fill="#63b8ff" stroke="#63b8ff" points="1811.77,-267.81 1808.27,-257.81 1804.77,-267.81 1811.77,-267.81"/>
</a>
</g>
</g>
<!-- Node34 -->
<g id="Node000034" class="node">
<title>Node34</title>
<g id="a_Node000034"><a xlink:title=" ">
<polygon fill="#e0e0e0" stroke="#999999" points="1904.77,-256 1855.77,-256 1855.77,-236 1904.77,-236 1904.77,-256"/>
<text xml:space="preserve" text-anchor="middle" x="1880.27" y="-242.5" font-family="Helvetica,sans-Serif" font-size="10.00">fstream</text>
</a>
</g>
</g>
<!-- Node1&#45;&gt;Node34 -->
<g id="edge74_Node000001_Node000034" class="edge">
<title>Node1&#45;&gt;Node34</title>
<g id="a_edge74_Node000001_Node000034"><a xlink:title=" ">
<path fill="none" stroke="#63b8ff" d="M1820.81,-291.59C1831.24,-283.77 1846.32,-272.46 1858.68,-263.19"/>
<polygon fill="#63b8ff" stroke="#63b8ff" points="1860.76,-266.01 1866.66,-257.21 1856.56,-260.41 1860.76,-266.01"/>
</a>
</g>
</g>
<!-- Node35 -->
<g id="Node000035" class="node">
<title>Node35</title>
<g id="a_Node000035"><a xlink:title=" ">
<polygon fill="#e0e0e0" stroke="#999999" points="1963.27,-256 1923.27,-256 1923.27,-236 1963.27,-236 1963.27,-256"/>
<text xml:space="preserve" text-anchor="middle" x="1943.27" y="-242.5" font-family="Helvetica,sans-Serif" font-size="10.00">regex</text>
</a>
</g>
</g>
<!-- Node1&#45;&gt;Node35 -->
<g id="edge76_Node000001_Node000035" class="edge">
<title>Node1&#45;&gt;Node35</title>
<g id="a_edge76_Node000001_Node000035"><a xlink:title=" ">
<path fill="none" stroke="#63b8ff" d="M1831.78,-291.59C1854.19,-282.63 1888.04,-269.09 1912.57,-259.28"/>
<polygon fill="#63b8ff" stroke="#63b8ff" points="1913.71,-262.59 1921.7,-255.63 1911.11,-256.09 1913.71,-262.59"/>
</a>
</g>
</g>
<!-- Node3 -->
<g id="Node000003" class="node">
<title>Node3</title>
<g id="a_Node000003"><a xlink:href="IRssService_8hpp.html" target="_top" xlink:title=" ">
<polygon fill="white" stroke="#666666" points="1128.14,-76 1018.39,-76 1018.39,-56 1128.14,-56 1128.14,-76"/>
<text xml:space="preserve" text-anchor="middle" x="1073.27" y="-62.5" font-family="Helvetica,sans-Serif" font-size="10.00">Rss/IRssService.hpp</text>
</a>
</g>
</g>
<!-- Node2&#45;&gt;Node3 -->
<g id="edge2_Node000002_Node000003" class="edge">
<title>Node2&#45;&gt;Node3</title>
<g id="a_edge2_Node000002_Node000003"><a xlink:title=" ">
<path fill="none" stroke="#63b8ff" d="M1642.58,-238.86C1686.24,-231.9 1747.76,-219 1762.27,-200 1786.01,-168.92 1789.01,-140.54 1762.27,-112 1720.3,-67.2 1304.39,-65.28 1139.81,-66.31"/>
<polygon fill="#63b8ff" stroke="#63b8ff" points="1139.89,-62.8 1129.91,-66.37 1139.94,-69.8 1139.89,-62.8"/>
</a>
</g>
</g>
<!-- Node5 -->
<g id="Node000005" class="node">
<title>Node5</title>
<g id="a_Node000005"><a xlink:title=" ">
<polygon fill="#e0e0e0" stroke="#999999" points="760.27,-20 720.27,-20 720.27,0 760.27,0 760.27,-20"/>
<text xml:space="preserve" text-anchor="middle" x="740.27" y="-6.5" font-family="Helvetica,sans-Serif" font-size="10.00">string</text>
</a>
</g>
</g>
<!-- Node2&#45;&gt;Node5 -->
<g id="edge69_Node000002_Node000005" class="edge">
<title>Node2&#45;&gt;Node5</title>
<g id="a_edge69_Node000002_Node000005"><a xlink:title=" ">
<path fill="none" stroke="#63b8ff" d="M1551.96,-244.86C1344.83,-243.99 486.84,-238.14 221.27,-200 122.68,-185.84 65.27,-222.74 4.27,-144 -7.66,-128.6 8.89,-60.75 14.27,-56 70.81,-6.05 617.36,-28.97 692.27,-20 697.67,-19.35 703.37,-18.47 708.89,-17.5"/>
<polygon fill="#63b8ff" stroke="#63b8ff" points="709.13,-21.02 718.32,-15.73 707.84,-14.13 709.13,-21.02"/>
</a>
</g>
</g>
<!-- Node6 -->
<g id="Node000006" class="node">
<title>Node6</title>
<g id="a_Node000006"><a xlink:href="UtilsFactory_8hpp.html" target="_top" xlink:title=" ">
<polygon fill="white" stroke="#666666" points="1141.52,-200 1031.02,-200 1031.02,-180 1141.52,-180 1141.52,-200"/>
<text xml:space="preserve" text-anchor="middle" x="1086.27" y="-186.5" font-family="Helvetica,sans-Serif" font-size="10.00">Utils/UtilsFactory.hpp</text>
</a>
</g>
</g>
<!-- Node2&#45;&gt;Node6 -->
<g id="edge5_Node000002_Node000006" class="edge">
<title>Node2&#45;&gt;Node6</title>
<g id="a_edge5_Node000002_Node000006"><a xlink:title=" ">
<path fill="none" stroke="#63b8ff" d="M1551.92,-240.21C1461.54,-230.66 1258.59,-209.21 1152.98,-198.05"/>
<polygon fill="#63b8ff" stroke="#63b8ff" points="1153.65,-194.6 1143.34,-197.03 1152.92,-201.56 1153.65,-194.6"/>
</a>
</g>
</g>
<!-- Node9 -->
<g id="Node000009" class="node">
<title>Node9</title>
<g id="a_Node000009"><a xlink:title=" ">
<polygon fill="#e0e0e0" stroke="#999999" points="885.77,-76 824.77,-76 824.77,-56 885.77,-56 885.77,-76"/>
<text xml:space="preserve" text-anchor="middle" x="855.27" y="-62.5" font-family="Helvetica,sans-Serif" font-size="10.00">filesystem</text>
</a>
</g>
</g>
<!-- Node2&#45;&gt;Node9 -->
<g id="edge66_Node000002_Node000009" class="edge">
<title>Node2&#45;&gt;Node9</title>
<g id="a_edge66_Node000002_Node000009"><a xlink:title=" ">
<path fill="none" stroke="#63b8ff" d="M1594.9,-235.67C1587.47,-206.73 1564.48,-119.92 1554.27,-112 1502.09,-71.56 1027.1,-80.79 961.27,-76 940.12,-74.46 916.62,-72.49 897.13,-70.79"/>
<polygon fill="#63b8ff" stroke="#63b8ff" points="897.64,-67.32 887.38,-69.93 897.03,-74.29 897.64,-67.32"/>
</a>
</g>
</g>
<!-- Node15 -->
<g id="Node000015" class="node">
<title>Node15</title>
<g id="a_Node000015"><a xlink:title=" ">
<polygon fill="#e0e0e0" stroke="#999999" points="729.77,-76 686.77,-76 686.77,-56 729.77,-56 729.77,-76"/>
<text xml:space="preserve" text-anchor="middle" x="708.27" y="-62.5" font-family="Helvetica,sans-Serif" font-size="10.00">vector</text>
</a>
</g>
</g>
<!-- Node2&#45;&gt;Node15 -->
<g id="edge72_Node000002_Node000015" class="edge">
<title>Node2&#45;&gt;Node15</title>
<g id="a_edge72_Node000002_Node000015"><a xlink:title=" ">
<path fill="none" stroke="#63b8ff" d="M1551.82,-244.83C1339.13,-243.54 448.87,-232.88 367.27,-144 357.65,-133.52 357.81,-122.62 367.27,-112 411.42,-62.44 592.4,-87.47 675.19,-75.96"/>
<polygon fill="#63b8ff" stroke="#63b8ff" points="675.67,-79.43 684.94,-74.29 674.49,-72.53 675.67,-79.43"/>
</a>
</g>
</g>
<!-- Node20 -->
<g id="Node000020" class="node">
<title>Node20</title>
<g id="a_Node000020"><a xlink:title=" ">
<polygon fill="#e0e0e0" stroke="#999999" points="296.14,-76 198.39,-76 198.39,-56 296.14,-56 296.14,-76"/>
<text xml:space="preserve" text-anchor="middle" x="247.27" y="-62.5" font-family="Helvetica,sans-Serif" font-size="10.00">nlohmann/json.hpp</text>
</a>
</g>
</g>
<!-- Node2&#45;&gt;Node20 -->
<g id="edge67_Node000002_Node000020" class="edge">
<title>Node2&#45;&gt;Node20</title>
<g id="a_edge67_Node000002_Node000020"><a xlink:title=" ">
<path fill="none" stroke="#63b8ff" d="M1552.02,-243.89C1298.85,-237.47 67.52,-203.24 15.27,-144 5.86,-133.33 6.22,-122.97 15.27,-112 20.77,-105.32 119.82,-87.9 186.7,-76.79"/>
<polygon fill="#63b8ff" stroke="#63b8ff" points="187.17,-80.26 196.46,-75.18 186.03,-73.36 187.17,-80.26"/>
</a>
</g>
</g>
<!-- Node2&#45;&gt;Node30 -->
<g id="edge68_Node000002_Node000030" class="edge">
<title>Node2&#45;&gt;Node30</title>
<g id="a_edge68_Node000002_Node000030"><a xlink:title=" ">
<path fill="none" stroke="#63b8ff" d="M1639.39,-235.54C1679.5,-226.51 1741.53,-212.47 1795.27,-200 1796.09,-199.81 1796.91,-199.62 1797.75,-199.42"/>
<polygon fill="#63b8ff" stroke="#63b8ff" points="1798.34,-202.88 1807.27,-197.19 1796.74,-196.07 1798.34,-202.88"/>
</a>
</g>
</g>
<!-- Node31 -->
<g id="Node000031" class="node">
<title>Node31</title>
<g id="a_Node000031"><a xlink:title=" ">
<polygon fill="#e0e0e0" stroke="#999999" points="1657.77,-200 1596.77,-200 1596.77,-180 1657.77,-180 1657.77,-200"/>
<text xml:space="preserve" text-anchor="middle" x="1627.27" y="-186.5" font-family="Helvetica,sans-Serif" font-size="10.00">tinyxml2.h</text>
</a>
</g>
</g>
<!-- Node2&#45;&gt;Node31 -->
<g id="edge70_Node000002_Node000031" class="edge">
<title>Node2&#45;&gt;Node31</title>
<g id="a_edge70_Node000002_Node000031"><a xlink:title=" ">
<path fill="none" stroke="#63b8ff" d="M1602.49,-235.59C1606.37,-228.63 1611.78,-218.89 1616.55,-210.29"/>
<polygon fill="#63b8ff" stroke="#63b8ff" points="1619.57,-212.06 1621.37,-201.62 1613.45,-208.66 1619.57,-212.06"/>
</a>
</g>
</g>
<!-- Node32 -->
<g id="Node000032" class="node">
<title>Node32</title>
<g id="a_Node000032"><a xlink:title=" ">
<polygon fill="#e0e0e0" stroke="#999999" points="1753.02,-200 1675.52,-200 1675.52,-180 1753.02,-180 1753.02,-200"/>
<text xml:space="preserve" text-anchor="middle" x="1714.27" y="-186.5" font-family="Helvetica,sans-Serif" font-size="10.00">unordered_set</text>
</a>
</g>
</g>
<!-- Node2&#45;&gt;Node32 -->
<g id="edge71_Node000002_Node000032" class="edge">
<title>Node2&#45;&gt;Node32</title>
<g id="a_edge71_Node000002_Node000032"><a xlink:title=" ">
<path fill="none" stroke="#63b8ff" d="M1617.65,-235.59C1635.82,-227.21 1662.69,-214.8 1683.49,-205.21"/>
<polygon fill="#63b8ff" stroke="#63b8ff" points="1684.74,-208.48 1692.36,-201.11 1681.81,-202.13 1684.74,-208.48"/>
</a>
</g>
</g>
<!-- Node4 -->
<g id="Node000004" class="node">
<title>Node4</title>
<g id="a_Node000004"><a xlink:title=" ">
<polygon fill="#e0e0e0" stroke="#999999" points="1136.89,-20 1091.64,-20 1091.64,0 1136.89,0 1136.89,-20"/>
<text xml:space="preserve" text-anchor="middle" x="1114.27" y="-6.5" font-family="Helvetica,sans-Serif" font-size="10.00">cstdint</text>
</a>
</g>
</g>
<!-- Node3&#45;&gt;Node4 -->
<g id="edge3_Node000003_Node000004" class="edge">
<title>Node3&#45;&gt;Node4</title>
<g id="a_edge3_Node000003_Node000004"><a xlink:title=" ">
<path fill="none" stroke="#63b8ff" d="M1080.41,-55.59C1085.88,-48.39 1093.59,-38.23 1100.27,-29.43"/>
<polygon fill="#63b8ff" stroke="#63b8ff" points="1103.03,-31.58 1106.29,-21.5 1097.46,-27.35 1103.03,-31.58"/>
</a>
</g>
</g>
<!-- Node3&#45;&gt;Node5 -->
<g id="edge4_Node000003_Node000005" class="edge">
<title>Node3&#45;&gt;Node5</title>
<g id="a_edge4_Node000003_Node000005"><a xlink:title=" ">
<path fill="none" stroke="#63b8ff" d="M1017.91,-56.02C947.46,-44.6 828.17,-25.25 771.7,-16.1"/>
<polygon fill="#63b8ff" stroke="#63b8ff" points="772.57,-12.69 762.13,-14.55 771.45,-19.6 772.57,-12.69"/>
</a>
</g>
</g>
<!-- Node7 -->
<g id="Node000007" class="node">
<title>Node7</title>
<g id="a_Node000007"><a xlink:title=" ">
<polygon fill="#e0e0e0" stroke="#999999" points="1369.52,-138 1241.02,-138 1241.02,-118 1369.52,-118 1369.52,-138"/>
<text xml:space="preserve" text-anchor="middle" x="1305.27" y="-124.5" font-family="Helvetica,sans-Serif" font-size="10.00">DotNameBotLib/version.h</text>
</a>
</g>
</g>
<!-- Node6&#45;&gt;Node7 -->
<g id="edge6_Node000006_Node000007" class="edge">
<title>Node6&#45;&gt;Node7</title>
<g id="a_edge6_Node000006_Node000007"><a xlink:title=" ">
<path fill="none" stroke="#63b8ff" d="M1120.49,-179.62C1158.06,-169.33 1218.57,-152.75 1260.04,-141.39"/>
<polygon fill="#63b8ff" stroke="#63b8ff" points="1260.75,-144.83 1269.47,-138.81 1258.9,-138.07 1260.75,-144.83"/>
</a>
</g>
</g>
<!-- Node8 -->
<g id="Node000008" class="node">
<title>Node8</title>
<g id="a_Node000008"><a xlink:href="IAssetManager_8hpp.html" target="_top" xlink:title=" ">
<polygon fill="white" stroke="#666666" points="1545.14,-138 1387.39,-138 1387.39,-118 1545.14,-118 1545.14,-138"/>
<text xml:space="preserve" text-anchor="middle" x="1466.27" y="-124.5" font-family="Helvetica,sans-Serif" font-size="10.00">Utils/Assets/IAssetManager.hpp</text>
</a>
</g>
</g>
<!-- Node6&#45;&gt;Node8 -->
<g id="edge7_Node000006_Node000008" class="edge">
<title>Node6&#45;&gt;Node8</title>
<g id="a_edge7_Node000006_Node000008"><a xlink:title=" ">
<path fill="none" stroke="#63b8ff" d="M1142.02,-180.68C1200.81,-171.84 1296.12,-157.33 1378.27,-144 1385.38,-142.85 1392.81,-141.62 1400.21,-140.38"/>
<polygon fill="#63b8ff" stroke="#63b8ff" points="1400.6,-143.86 1409.88,-138.75 1399.43,-136.96 1400.6,-143.86"/>
</a>
</g>
</g>
<!-- Node6&#45;&gt;Node9 -->
<g id="edge64_Node000006_Node000009" class="edge">
<title>Node6&#45;&gt;Node9</title>
<g id="a_edge64_Node000006_Node000009"><a xlink:title=" ">
<path fill="none" stroke="#63b8ff" d="M1030.58,-181.79C997.48,-175.59 955.76,-164.3 923.27,-144 899.37,-129.07 879.07,-103.24 867.03,-85.65"/>
<polygon fill="#63b8ff" stroke="#63b8ff" points="870.19,-84.08 861.76,-77.66 864.34,-87.93 870.19,-84.08"/>
</a>
</g>
</g>
<!-- Node10 -->
<g id="Node000010" class="node">
<title>Node10</title>
<g id="a_Node000010"><a xlink:href="IDirectoryManager_8hpp.html" target="_top" xlink:title=" ">
<polygon fill="white" stroke="#666666" points="698.77,-144 565.77,-144 565.77,-112 698.77,-112 698.77,-144"/>
<text xml:space="preserve" text-anchor="start" x="573.77" y="-130.5" font-family="Helvetica,sans-Serif" font-size="10.00">Utils/Filesystem/IDirectory</text>
<text xml:space="preserve" text-anchor="middle" x="632.27" y="-118.5" font-family="Helvetica,sans-Serif" font-size="10.00">Manager.hpp</text>
</a>
</g>
</g>
<!-- Node6&#45;&gt;Node10 -->
<g id="edge9_Node000006_Node000010" class="edge">
<title>Node6&#45;&gt;Node10</title>
<g id="a_edge9_Node000006_Node000010"><a xlink:title=" ">
<path fill="none" stroke="#63b8ff" d="M1030.53,-183.78C958.7,-176.74 829.73,-163.06 710.05,-144.37"/>
<polygon fill="#63b8ff" stroke="#63b8ff" points="710.79,-140.94 700.37,-142.84 709.7,-147.86 710.79,-140.94"/>
</a>
</g>
</g>
<!-- Node16 -->
<g id="Node000016" class="node">
<title>Node16</title>
<g id="a_Node000016"><a xlink:href="IFileReader_8hpp.html" target="_top" xlink:title=" ">
<polygon fill="white" stroke="#666666" points="875.89,-138 716.64,-138 716.64,-118 875.89,-118 875.89,-138"/>
<text xml:space="preserve" text-anchor="middle" x="796.27" y="-124.5" font-family="Helvetica,sans-Serif" font-size="10.00">Utils/Filesystem/IFileReader.hpp</text>
</a>
</g>
</g>
<!-- Node6&#45;&gt;Node16 -->
<g id="edge18_Node000006_Node000016" class="edge">
<title>Node6&#45;&gt;Node16</title>
<g id="a_edge18_Node000006_Node000016"><a xlink:title=" ">
<path fill="none" stroke="#63b8ff" d="M1040.64,-179.56C990.01,-169.08 908.23,-152.16 853.39,-140.82"/>
<polygon fill="#63b8ff" stroke="#63b8ff" points="854.1,-137.39 843.59,-138.79 852.68,-144.25 854.1,-137.39"/>
</a>
</g>
</g>
<!-- Node17 -->
<g id="Node000017" class="node">
<title>Node17</title>
<g id="a_Node000017"><a xlink:href="IFileWriter_8hpp.html" target="_top" xlink:title=" ">
<polygon fill="white" stroke="#666666" points="1085.89,-138 932.64,-138 932.64,-118 1085.89,-118 1085.89,-138"/>
<text xml:space="preserve" text-anchor="middle" x="1009.27" y="-124.5" font-family="Helvetica,sans-Serif" font-size="10.00">Utils/Filesystem/IFileWriter.hpp</text>
</a>
</g>
</g>
<!-- Node6&#45;&gt;Node17 -->
<g id="edge24_Node000006_Node000017" class="edge">
<title>Node6&#45;&gt;Node17</title>
<g id="a_edge24_Node000006_Node000017"><a xlink:title=" ">
<path fill="none" stroke="#63b8ff" d="M1074.24,-179.62C1062.48,-170.47 1044.35,-156.34 1030.23,-145.33"/>
<polygon fill="#63b8ff" stroke="#63b8ff" points="1032.45,-142.63 1022.41,-139.24 1028.15,-148.15 1032.45,-142.63"/>
</a>
</g>
</g>
<!-- Node18 -->
<g id="Node000018" class="node">
<title>Node18</title>
<g id="a_Node000018"><a xlink:href="IPathResolver_8hpp.html" target="_top" xlink:title=" ">
<polygon fill="white" stroke="#666666" points="547.89,-138 376.64,-138 376.64,-118 547.89,-118 547.89,-138"/>
<text xml:space="preserve" text-anchor="middle" x="462.27" y="-124.5" font-family="Helvetica,sans-Serif" font-size="10.00">Utils/Filesystem/IPathResolver.hpp</text>
</a>
</g>
</g>
<!-- Node6&#45;&gt;Node18 -->
<g id="edge30_Node000006_Node000018" class="edge">
<title>Node6&#45;&gt;Node18</title>
<g id="a_edge30_Node000006_Node000018"><a xlink:title=" ">
<path fill="none" stroke="#63b8ff" d="M1030.81,-185.64C934.2,-179.48 728.83,-165.06 556.27,-144 547.29,-142.9 537.85,-141.59 528.56,-140.2"/>
<polygon fill="#63b8ff" stroke="#63b8ff" points="529.26,-136.77 518.84,-138.71 528.2,-143.69 529.26,-136.77"/>
</a>
</g>
</g>
<!-- Node19 -->
<g id="Node000019" class="node">
<title>Node19</title>
<g id="a_Node000019"><a xlink:href="ICustomStringsLoader_8hpp.html" target="_top" xlink:title=" ">
<polygon fill="white" stroke="#666666" points="156.02,-144 24.52,-144 24.52,-112 156.02,-112 156.02,-144"/>
<text xml:space="preserve" text-anchor="start" x="32.52" y="-130.5" font-family="Helvetica,sans-Serif" font-size="10.00">Utils/Json/ICustomStrings</text>
<text xml:space="preserve" text-anchor="middle" x="90.27" y="-118.5" font-family="Helvetica,sans-Serif" font-size="10.00">Loader.hpp</text>
</a>
</g>
</g>
<!-- Node6&#45;&gt;Node19 -->
<g id="edge35_Node000006_Node000019" class="edge">
<title>Node6&#45;&gt;Node19</title>
<g id="a_edge35_Node000006_Node000019"><a xlink:title=" ">
<path fill="none" stroke="#63b8ff" d="M1030.74,-189.15C888.69,-188.93 500.41,-184.47 167.75,-144.17"/>
<polygon fill="#63b8ff" stroke="#63b8ff" points="168.29,-140.71 157.94,-142.97 167.44,-147.66 168.29,-140.71"/>
</a>
</g>
</g>
<!-- Node21 -->
<g id="Node000021" class="node">
<title>Node21</title>
<g id="a_Node000021"><a xlink:href="IJsonSerializer_8hpp.html" target="_top" xlink:title=" ">
<polygon fill="white" stroke="#666666" points="320.52,-138 174.02,-138 174.02,-118 320.52,-118 320.52,-138"/>
<text xml:space="preserve" text-anchor="middle" x="247.27" y="-124.5" font-family="Helvetica,sans-Serif" font-size="10.00">Utils/Json/IJsonSerializer.hpp</text>
</a>
</g>
</g>
<!-- Node6&#45;&gt;Node21 -->
<g id="edge40_Node000006_Node000021" class="edge">
<title>Node6&#45;&gt;Node21</title>
<g id="a_edge40_Node000006_Node000021"><a xlink:title=" ">
<path fill="none" stroke="#63b8ff" d="M1030.7,-186.69C909.85,-181.42 614.14,-167.13 367.27,-144 354.74,-142.83 341.5,-141.38 328.56,-139.85"/>
<polygon fill="#63b8ff" stroke="#63b8ff" points="329.15,-136.4 318.81,-138.68 328.32,-143.35 329.15,-136.4"/>
</a>
</g>
</g>
<!-- Node22 -->
<g id="Node000022" class="node">
<title>Node22</title>
<g id="a_Node000022"><a xlink:href="ILogger_8hpp.html" target="_top" xlink:title=" ">
<polygon fill="white" stroke="#666666" points="1738.52,-76 1616.02,-76 1616.02,-56 1738.52,-56 1738.52,-76"/>
<text xml:space="preserve" text-anchor="middle" x="1677.27" y="-62.5" font-family="Helvetica,sans-Serif" font-size="10.00">Utils/Logger/ILogger.hpp</text>
</a>
</g>
</g>
<!-- Node6&#45;&gt;Node22 -->
<g id="edge45_Node000006_Node000022" class="edge">
<title>Node6&#45;&gt;Node22</title>
<g id="a_edge45_Node000006_Node000022"><a xlink:title=" ">
<path fill="none" stroke="#63b8ff" d="M1141.81,-188.2C1328.95,-185.24 1926.25,-173.51 1954.27,-144 2016.57,-78.39 1851.77,-67.09 1750.24,-66.08"/>
<polygon fill="#63b8ff" stroke="#63b8ff" points="1750.33,-62.58 1740.31,-66.02 1750.29,-69.58 1750.33,-62.58"/>
</a>
</g>
</g>
<!-- Node24 -->
<g id="Node000024" class="node">
<title>Node24</title>
<g id="a_Node000024"><a xlink:title=" ">
<polygon fill="#e0e0e0" stroke="#999999" points="1791.89,-20 1740.64,-20 1740.64,0 1791.89,0 1791.89,-20"/>
<text xml:space="preserve" text-anchor="middle" x="1766.27" y="-6.5" font-family="Helvetica,sans-Serif" font-size="10.00">memory</text>
</a>
</g>
</g>
<!-- Node6&#45;&gt;Node24 -->
<g id="edge65_Node000006_Node000024" class="edge">
<title>Node6&#45;&gt;Node24</title>
<g id="a_edge65_Node000006_Node000024"><a xlink:title=" ">
<path fill="none" stroke="#63b8ff" d="M1141.83,-188.27C1331.97,-185.51 1946.49,-174.28 1975.27,-144 2033.77,-82.46 1877.72,-36.73 1803.26,-19.03"/>
<polygon fill="#63b8ff" stroke="#63b8ff" points="1804.06,-15.63 1793.53,-16.78 1802.48,-22.45 1804.06,-15.63"/>
</a>
</g>
</g>
<!-- Node26 -->
<g id="Node000026" class="node">
<title>Node26</title>
<g id="a_Node000026"><a xlink:href="LoggerFactory_8hpp.html" target="_top" xlink:title=" ">
<polygon fill="white" stroke="#666666" points="1753.14,-138 1601.39,-138 1601.39,-118 1753.14,-118 1753.14,-138"/>
<text xml:space="preserve" text-anchor="middle" x="1677.27" y="-124.5" font-family="Helvetica,sans-Serif" font-size="10.00">Utils/Logger/LoggerFactory.hpp</text>
</a>
</g>
</g>
<!-- Node6&#45;&gt;Node26 -->
<g id="edge51_Node000006_Node000026" class="edge">
<title>Node6&#45;&gt;Node26</title>
<g id="a_edge51_Node000006_Node000026"><a xlink:title=" ">
<path fill="none" stroke="#63b8ff" d="M1141.79,-184.12C1229.47,-176.32 1405.37,-160.24 1554.27,-144 1566.14,-142.71 1578.64,-141.27 1590.95,-139.81"/>
<polygon fill="#63b8ff" stroke="#63b8ff" points="1591.16,-143.31 1600.67,-138.65 1590.33,-136.36 1591.16,-143.31"/>
</a>
</g>
</g>
<!-- Node27 -->
<g id="Node000027" class="node">
<title>Node27</title>
<g id="a_Node000027"><a xlink:href="NullLogger_8hpp.html" target="_top" xlink:title=" ">
<polygon fill="white" stroke="#666666" points="1945.64,-138 1808.89,-138 1808.89,-118 1945.64,-118 1945.64,-138"/>
<text xml:space="preserve" text-anchor="middle" x="1877.27" y="-124.5" font-family="Helvetica,sans-Serif" font-size="10.00">Utils/Logger/NullLogger.hpp</text>
</a>
</g>
</g>
<!-- Node6&#45;&gt;Node27 -->
<g id="edge55_Node000006_Node000027" class="edge">
<title>Node6&#45;&gt;Node27</title>
<g id="a_edge55_Node000006_Node000027"><a xlink:title=" ">
<path fill="none" stroke="#63b8ff" d="M1142.01,-186.48C1257.76,-181 1532.55,-166.61 1762.27,-144 1774.16,-142.83 1786.71,-141.4 1798.99,-139.88"/>
<polygon fill="#63b8ff" stroke="#63b8ff" points="1799.17,-143.39 1808.65,-138.67 1798.29,-136.44 1799.17,-143.39"/>
</a>
</g>
</g>
<!-- Node28 -->
<g id="Node000028" class="node">
<title>Node28</title>
<g id="a_Node000028"><a xlink:href="IPlatformInfo_8hpp.html" target="_top" xlink:title=" ">
<polygon fill="white" stroke="#666666" points="1222.64,-144 1103.89,-144 1103.89,-112 1222.64,-112 1222.64,-144"/>
<text xml:space="preserve" text-anchor="start" x="1111.89" y="-130.5" font-family="Helvetica,sans-Serif" font-size="10.00">Utils/Platform/IPlatform</text>
<text xml:space="preserve" text-anchor="middle" x="1163.27" y="-118.5" font-family="Helvetica,sans-Serif" font-size="10.00">Info.hpp</text>
</a>
</g>
</g>
<!-- Node6&#45;&gt;Node28 -->
<g id="edge57_Node000006_Node000028" class="edge">
<title>Node6&#45;&gt;Node28</title>
<g id="a_edge57_Node000006_Node000028"><a xlink:title=" ">
<path fill="none" stroke="#63b8ff" d="M1098.3,-179.62C1108.03,-172.04 1122.14,-161.05 1134.73,-151.24"/>
<polygon fill="#63b8ff" stroke="#63b8ff" points="1136.61,-154.21 1142.34,-145.3 1132.31,-148.69 1136.61,-154.21"/>
</a>
</g>
</g>
<!-- Node29 -->
<g id="Node000029" class="node">
<title>Node29</title>
<g id="a_Node000029"><a xlink:href="IStringFormatter_8hpp.html" target="_top" xlink:title=" ">
<polygon fill="white" stroke="#666666" points="180.77,-76 23.77,-76 23.77,-56 180.77,-56 180.77,-76"/>
<text xml:space="preserve" text-anchor="middle" x="102.27" y="-62.5" font-family="Helvetica,sans-Serif" font-size="10.00">Utils/String/IStringFormatter.hpp</text>
</a>
</g>
</g>
<!-- Node6&#45;&gt;Node29 -->
<g id="edge62_Node000006_Node000029" class="edge">
<title>Node6&#45;&gt;Node29</title>
<g id="a_edge62_Node000006_Node000029"><a xlink:title=" ">
<path fill="none" stroke="#63b8ff" d="M1030.79,-188.77C816.19,-187.62 50.69,-180.94 15.27,-144 5.42,-133.73 7.87,-124.15 15.27,-112 24.1,-97.48 39.3,-87.44 54.54,-80.6"/>
<polygon fill="#63b8ff" stroke="#63b8ff" points="55.67,-83.92 63.62,-76.92 53.04,-77.43 55.67,-83.92"/>
</a>
</g>
</g>
<!-- Node8&#45;&gt;Node9 -->
<g id="edge8_Node000008_Node000009" class="edge">
<title>Node8&#45;&gt;Node9</title>
<g id="a_edge8_Node000008_Node000009"><a xlink:title=" ">
<path fill="none" stroke="#63b8ff" d="M1415.19,-117.56C1403.11,-115.53 1390.26,-113.54 1378.27,-112 1285.37,-100.11 1004.49,-78.3 897.38,-70.17"/>
<polygon fill="#63b8ff" stroke="#63b8ff" points="897.83,-66.69 887.6,-69.43 897.3,-73.67 897.83,-66.69"/>
</a>
</g>
</g>
<!-- Node10&#45;&gt;Node9 -->
<g id="edge16_Node000010_Node000009" class="edge">
<title>Node10&#45;&gt;Node9</title>
<g id="a_edge16_Node000010_Node000009"><a xlink:title=" ">
<path fill="none" stroke="#63b8ff" d="M689.7,-111.55C728.47,-101.12 778.76,-87.58 813.7,-78.19"/>
<polygon fill="#63b8ff" stroke="#63b8ff" points="814.26,-81.66 823,-75.68 812.44,-74.9 814.26,-81.66"/>
</a>
</g>
</g>
<!-- Node11 -->
<g id="Node000011" class="node">
<title>Node11</title>
<g id="a_Node000011"><a xlink:href="UtilsError_8hpp.html" target="_top" xlink:title=" ">
<polygon fill="white" stroke="#666666" points="668.89,-76 569.64,-76 569.64,-56 668.89,-56 668.89,-76"/>
<text xml:space="preserve" text-anchor="middle" x="619.27" y="-62.5" font-family="Helvetica,sans-Serif" font-size="10.00">Utils/UtilsError.hpp</text>
</a>
</g>
</g>
<!-- Node10&#45;&gt;Node11 -->
<g id="edge10_Node000010_Node000011" class="edge">
<title>Node10&#45;&gt;Node11</title>
<g id="a_edge10_Node000010_Node000011"><a xlink:title=" ">
<path fill="none" stroke="#63b8ff" d="M628.92,-111.55C627.34,-104.26 625.43,-95.45 623.73,-87.6"/>
<polygon fill="#63b8ff" stroke="#63b8ff" points="627.17,-86.92 621.63,-77.89 620.32,-88.4 627.17,-86.92"/>
</a>
</g>
</g>
<!-- Node10&#45;&gt;Node15 -->
<g id="edge17_Node000010_Node000015" class="edge">
<title>Node10&#45;&gt;Node15</title>
<g id="a_edge17_Node000010_Node000015"><a xlink:title=" ">
<path fill="none" stroke="#63b8ff" d="M651.84,-111.55C662.73,-102.95 676.27,-92.26 687.36,-83.5"/>
<polygon fill="#63b8ff" stroke="#63b8ff" points="689.48,-86.29 695.16,-77.35 685.15,-80.8 689.48,-86.29"/>
</a>
</g>
</g>
<!-- Node11&#45;&gt;Node4 -->
<g id="edge11_Node000011_Node000004" class="edge">
<title>Node11&#45;&gt;Node4</title>
<g id="a_edge11_Node000011_Node000004"><a xlink:title=" ">
<path fill="none" stroke="#63b8ff" d="M669.23,-57.08C671.95,-56.7 674.64,-56.34 677.27,-56 827.02,-36.68 1006.51,-20.33 1080.18,-13.91"/>
<polygon fill="#63b8ff" stroke="#63b8ff" points="1080.31,-17.41 1089.97,-13.06 1079.7,-10.44 1080.31,-17.41"/>
</a>
</g>
</g>
<!-- Node11&#45;&gt;Node5 -->
<g id="edge14_Node000011_Node000005" class="edge">
<title>Node11&#45;&gt;Node5</title>
<g id="a_edge14_Node000011_Node000005"><a xlink:title=" ">
<path fill="none" stroke="#63b8ff" d="M640.34,-55.59C659.46,-47.06 687.87,-34.38 709.52,-24.72"/>
<polygon fill="#63b8ff" stroke="#63b8ff" points="710.75,-28.01 718.45,-20.74 707.9,-21.61 710.75,-28.01"/>
</a>
</g>
</g>
<!-- Node12 -->
<g id="Node000012" class="node">
<title>Node12</title>
<g id="a_Node000012"><a xlink:title=" ">
<polygon fill="#e0e0e0" stroke="#999999" points="299.14,-20 249.39,-20 249.39,0 299.14,0 299.14,-20"/>
<text xml:space="preserve" text-anchor="middle" x="274.27" y="-6.5" font-family="Helvetica,sans-Serif" font-size="10.00">optional</text>
</a>
</g>
</g>
<!-- Node11&#45;&gt;Node12 -->
<g id="edge12_Node000011_Node000012" class="edge">
<title>Node11&#45;&gt;Node12</title>
<g id="a_edge12_Node000011_Node000012"><a xlink:title=" ">
<path fill="none" stroke="#63b8ff" d="M569.47,-57.21C499.17,-46.2 372.51,-26.38 310.48,-16.67"/>
<polygon fill="#63b8ff" stroke="#63b8ff" points="311.24,-13.24 300.82,-15.16 310.16,-20.16 311.24,-13.24"/>
</a>
</g>
</g>
<!-- Node13 -->
<g id="Node000013" class="node">
<title>Node13</title>
<g id="a_Node000013"><a xlink:title=" ">
<polygon fill="#e0e0e0" stroke="#999999" points="683.64,-20 624.89,-20 624.89,0 683.64,0 683.64,-20"/>
<text xml:space="preserve" text-anchor="middle" x="654.27" y="-6.5" font-family="Helvetica,sans-Serif" font-size="10.00">stdexcept</text>
</a>
</g>
</g>
<!-- Node11&#45;&gt;Node13 -->
<g id="edge13_Node000011_Node000013" class="edge">
<title>Node11&#45;&gt;Node13</title>
<g id="a_edge13_Node000011_Node000013"><a xlink:title=" ">
<path fill="none" stroke="#63b8ff" d="M625.36,-55.59C629.98,-48.47 636.48,-38.45 642.14,-29.72"/>
<polygon fill="#63b8ff" stroke="#63b8ff" points="644.92,-31.86 647.42,-21.57 639.04,-28.06 644.92,-31.86"/>
</a>
</g>
</g>
<!-- Node14 -->
<g id="Node000014" class="node">
<title>Node14</title>
<g id="a_Node000014"><a xlink:title=" ">
<polygon fill="#e0e0e0" stroke="#999999" points="606.89,-20 561.64,-20 561.64,0 606.89,0 606.89,-20"/>
<text xml:space="preserve" text-anchor="middle" x="584.27" y="-6.5" font-family="Helvetica,sans-Serif" font-size="10.00">variant</text>
</a>
</g>
</g>
<!-- Node11&#45;&gt;Node14 -->
<g id="edge15_Node000011_Node000014" class="edge">
<title>Node11&#45;&gt;Node14</title>
<g id="a_edge15_Node000011_Node000014"><a xlink:title=" ">
<path fill="none" stroke="#63b8ff" d="M613.17,-55.59C608.55,-48.47 602.06,-38.45 596.4,-29.72"/>
<polygon fill="#63b8ff" stroke="#63b8ff" points="599.49,-28.06 591.12,-21.57 593.62,-31.86 599.49,-28.06"/>
</a>
</g>
</g>
<!-- Node16&#45;&gt;Node4 -->
<g id="edge20_Node000016_Node000004" class="edge">
<title>Node16&#45;&gt;Node4</title>
<g id="a_edge20_Node000016_Node000004"><a xlink:title=" ">
<path fill="none" stroke="#63b8ff" d="M795.78,-117.53C795.56,-102.13 797.57,-71.82 815.27,-56 853.84,-21.53 1010.26,-13.46 1080.19,-11.58"/>
<polygon fill="#63b8ff" stroke="#63b8ff" points="1079.99,-15.08 1089.91,-11.34 1079.83,-8.08 1079.99,-15.08"/>
</a>
</g>
</g>
<!-- Node16&#45;&gt;Node5 -->
<g id="edge22_Node000016_Node000005" class="edge">
<title>Node16&#45;&gt;Node5</title>
<g id="a_edge22_Node000016_Node000005"><a xlink:title=" ">
<path fill="none" stroke="#63b8ff" d="M791.69,-117.51C782.53,-98.55 761.83,-55.67 749.67,-30.48"/>
<polygon fill="#63b8ff" stroke="#63b8ff" points="752.92,-29.15 745.42,-21.66 746.61,-32.19 752.92,-29.15"/>
</a>
</g>
</g>
<!-- Node16&#45;&gt;Node9 -->
<g id="edge21_Node000016_Node000009" class="edge">
<title>Node16&#45;&gt;Node9</title>
<g id="a_edge21_Node000016_Node000009"><a xlink:title=" ">
<path fill="none" stroke="#63b8ff" d="M805.49,-117.62C814.28,-108.68 827.75,-94.99 838.45,-84.1"/>
<polygon fill="#63b8ff" stroke="#63b8ff" points="840.73,-86.78 845.25,-77.19 835.74,-81.87 840.73,-86.78"/>
</a>
</g>
</g>
<!-- Node16&#45;&gt;Node11 -->
<g id="edge19_Node000016_Node000011" class="edge">
<title>Node16&#45;&gt;Node11</title>
<g id="a_edge19_Node000016_Node000011"><a xlink:title=" ">
<path fill="none" stroke="#63b8ff" d="M768.61,-117.62C738.82,-107.53 691.21,-91.39 657.77,-80.05"/>
<polygon fill="#63b8ff" stroke="#63b8ff" points="659.05,-76.79 648.46,-76.89 656.8,-83.42 659.05,-76.79"/>
</a>
</g>
</g>
<!-- Node16&#45;&gt;Node15 -->
<g id="edge23_Node000016_Node000015" class="edge">
<title>Node16&#45;&gt;Node15</title>
<g id="a_edge23_Node000016_Node000015"><a xlink:title=" ">
<path fill="none" stroke="#63b8ff" d="M782.52,-117.62C768.83,-108.29 747.56,-93.79 731.29,-82.7"/>
<polygon fill="#63b8ff" stroke="#63b8ff" points="733.41,-79.9 723.17,-77.16 729.46,-85.69 733.41,-79.9"/>
</a>
</g>
</g>
<!-- Node17&#45;&gt;Node4 -->
<g id="edge26_Node000017_Node000004" class="edge">
<title>Node17&#45;&gt;Node4</title>
<g id="a_edge26_Node000017_Node000004"><a xlink:title=" ">
<path fill="none" stroke="#63b8ff" d="M1071.94,-117.51C1096.56,-110.37 1122.43,-97.88 1137.27,-76 1147,-61.65 1138.35,-42.73 1129.01,-29.01"/>
<polygon fill="#63b8ff" stroke="#63b8ff" points="1132.04,-27.2 1123.25,-21.28 1126.43,-31.39 1132.04,-27.2"/>
</a>
</g>
</g>
<!-- Node17&#45;&gt;Node5 -->
<g id="edge28_Node000017_Node000005" class="edge">
<title>Node17&#45;&gt;Node5</title>
<g id="a_edge28_Node000017_Node000005"><a xlink:title=" ">
<path fill="none" stroke="#63b8ff" d="M996.79,-117.72C976.32,-102.87 933.93,-73.65 894.27,-56 853.43,-37.82 803.26,-24.75 771.52,-17.53"/>
<polygon fill="#63b8ff" stroke="#63b8ff" points="772.31,-14.12 761.79,-15.37 770.8,-20.95 772.31,-14.12"/>
</a>
</g>
</g>
<!-- Node17&#45;&gt;Node9 -->
<g id="edge27_Node000017_Node000009" class="edge">
<title>Node17&#45;&gt;Node9</title>
<g id="a_edge27_Node000017_Node000009"><a xlink:title=" ">
<path fill="none" stroke="#63b8ff" d="M985.21,-117.62C959.63,-107.66 918.94,-91.81 889.91,-80.5"/>
<polygon fill="#63b8ff" stroke="#63b8ff" points="891.41,-77.33 880.83,-76.96 888.87,-83.85 891.41,-77.33"/>
</a>
</g>
</g>
<!-- Node17&#45;&gt;Node11 -->
<g id="edge25_Node000017_Node000011" class="edge">
<title>Node17&#45;&gt;Node11</title>
<g id="a_edge25_Node000017_Node000011"><a xlink:title=" ">
<path fill="none" stroke="#63b8ff" d="M947.46,-117.53C883.2,-107.69 779.34,-91.75 680.36,-76.48"/>
<polygon fill="#63b8ff" stroke="#63b8ff" points="681.17,-73.06 670.75,-74.99 680.1,-79.98 681.17,-73.06"/>
</a>
</g>
</g>
<!-- Node17&#45;&gt;Node15 -->
<g id="edge29_Node000017_Node000015" class="edge">
<title>Node17&#45;&gt;Node15</title>
<g id="a_edge29_Node000017_Node000015"><a xlink:title=" ">
<path fill="none" stroke="#63b8ff" d="M961.91,-117.56C900.49,-105.32 794.93,-84.28 741.43,-73.61"/>
<polygon fill="#63b8ff" stroke="#63b8ff" points="742.2,-70.2 731.71,-71.67 740.83,-77.06 742.2,-70.2"/>
</a>
</g>
</g>
<!-- Node18&#45;&gt;Node5 -->
<g id="edge33_Node000018_Node000005" class="edge">
<title>Node18&#45;&gt;Node5</title>
<g id="a_edge33_Node000018_Node000005"><a xlink:title=" ">
<path fill="none" stroke="#63b8ff" d="M472.3,-117.68C489.16,-102.51 524.85,-72.5 560.27,-56 586.48,-43.79 664.46,-26.57 708.7,-17.38"/>
<polygon fill="#63b8ff" stroke="#63b8ff" points="709.38,-20.81 718.47,-15.37 707.97,-13.95 709.38,-20.81"/>
</a>
</g>
</g>
<!-- Node18&#45;&gt;Node9 -->
<g id="edge32_Node000018_Node000009" class="edge">
<title>Node18&#45;&gt;Node9</title>
<g id="a_edge32_Node000018_Node000009"><a xlink:title=" ">
<path fill="none" stroke="#63b8ff" d="M521.17,-117.52C532.8,-115.67 544.92,-113.76 556.27,-112 647.99,-97.78 755.65,-81.74 813.47,-73.17"/>
<polygon fill="#63b8ff" stroke="#63b8ff" points="813.82,-76.66 823.2,-71.73 812.79,-69.73 813.82,-76.66"/>
</a>
</g>
</g>
<!-- Node18&#45;&gt;Node11 -->
<g id="edge31_Node000018_Node000011" class="edge">
<title>Node18&#45;&gt;Node11</title>
<g id="a_edge31_Node000018_Node000011"><a xlink:title=" ">
<path fill="none" stroke="#63b8ff" d="M486.8,-117.62C512.88,-107.66 554.35,-91.81 583.95,-80.5"/>
<polygon fill="#63b8ff" stroke="#63b8ff" points="585.15,-83.79 593.24,-76.95 582.65,-77.25 585.15,-83.79"/>
</a>
</g>
</g>
<!-- Node18&#45;&gt;Node15 -->
<g id="edge34_Node000018_Node000015" class="edge">
<title>Node18&#45;&gt;Node15</title>
<g id="a_edge34_Node000018_Node000015"><a xlink:title=" ">
<path fill="none" stroke="#63b8ff" d="M505.9,-117.5C547.27,-108.31 611.41,-93.62 675.28,-76.7"/>
<polygon fill="#63b8ff" stroke="#63b8ff" points="676.14,-80.09 684.89,-74.13 674.33,-73.33 676.14,-80.09"/>
</a>
</g>
</g>
<!-- Node19&#45;&gt;Node5 -->
<g id="edge39_Node000019_Node000005" class="edge">
<title>Node19&#45;&gt;Node5</title>
<g id="a_edge39_Node000019_Node000005"><a xlink:title=" ">
<path fill="none" stroke="#63b8ff" d="M156.37,-112.46C226.77,-97.24 341.56,-73.22 441.27,-56 552.32,-36.82 581.08,-38.39 692.27,-20 697.73,-19.1 703.53,-18.07 709.14,-17.04"/>
<polygon fill="#63b8ff" stroke="#63b8ff" points="709.55,-20.52 718.73,-15.24 708.26,-13.64 709.55,-20.52"/>
</a>
</g>
</g>
<!-- Node19&#45;&gt;Node11 -->
<g id="edge36_Node000019_Node000011" class="edge">
<title>Node19&#45;&gt;Node11</title>
<g id="a_edge36_Node000019_Node000011"><a xlink:title=" ">
<path fill="none" stroke="#63b8ff" d="M156.46,-113.39C159.43,-112.9 162.38,-112.43 165.27,-112 305.09,-91.14 470.63,-77.49 558.06,-71.14"/>
<polygon fill="#63b8ff" stroke="#63b8ff" points="558.12,-74.65 567.85,-70.44 557.62,-67.66 558.12,-74.65"/>
</a>
</g>
</g>
<!-- Node19&#45;&gt;Node12 -->
<g id="edge38_Node000019_Node000012" class="edge">
<title>Node19&#45;&gt;Node12</title>
<g id="a_edge38_Node000019_Node000012"><a xlink:title=" ">
<path fill="none" stroke="#63b8ff" d="M53.81,-111.63C26.5,-97.95 -3.35,-76.93 14.27,-56 42.46,-22.51 173.45,-13.95 238.05,-11.75"/>
<polygon fill="#63b8ff" stroke="#63b8ff" points="237.9,-15.26 247.79,-11.46 237.69,-8.26 237.9,-15.26"/>
</a>
</g>
</g>
<!-- Node19&#45;&gt;Node20 -->
<g id="edge37_Node000019_Node000020" class="edge">
<title>Node19&#45;&gt;Node20</title>
<g id="a_edge37_Node000019_Node000020"><a xlink:title=" ">
<path fill="none" stroke="#63b8ff" d="M130.7,-111.55C155.91,-101.91 188.04,-89.64 212.18,-80.41"/>
<polygon fill="#63b8ff" stroke="#63b8ff" points="213.15,-83.79 221.24,-76.95 210.65,-77.25 213.15,-83.79"/>
</a>
</g>
</g>
<!-- Node21&#45;&gt;Node5 -->
<g id="edge44_Node000021_Node000005" class="edge">
<title>Node21&#45;&gt;Node5</title>
<g id="a_edge44_Node000021_Node000005"><a xlink:title=" ">
<path fill="none" stroke="#63b8ff" d="M281.3,-117.58C332.97,-103.43 434.39,-76.17 521.27,-56 587.65,-40.59 666,-25.15 708.67,-16.97"/>
<polygon fill="#63b8ff" stroke="#63b8ff" points="709.31,-20.41 718.48,-15.1 708,-13.53 709.31,-20.41"/>
</a>
</g>
</g>
<!-- Node21&#45;&gt;Node9 -->
<g id="edge42_Node000021_Node000009" class="edge">
<title>Node21&#45;&gt;Node9</title>
<g id="a_edge42_Node000021_Node000009"><a xlink:title=" ">
<path fill="none" stroke="#63b8ff" d="M319.88,-117.54C335.5,-115.61 351.93,-113.67 367.27,-112 531.9,-94.12 728.28,-77.42 812.97,-70.44"/>
<polygon fill="#63b8ff" stroke="#63b8ff" points="813.21,-73.93 822.89,-69.62 812.64,-66.95 813.21,-73.93"/>
</a>
</g>
</g>
<!-- Node21&#45;&gt;Node11 -->
<g id="edge41_Node000021_Node000011" class="edge">
<title>Node21&#45;&gt;Node11</title>
<g id="a_edge41_Node000021_Node000011"><a xlink:title=" ">
<path fill="none" stroke="#63b8ff" d="M301.55,-117.52C312.38,-115.66 323.68,-113.75 334.27,-112 411.41,-99.26 500.44,-85.33 558.18,-76.39"/>
<polygon fill="#63b8ff" stroke="#63b8ff" points="558.45,-79.89 567.8,-74.9 557.38,-72.97 558.45,-79.89"/>
</a>
</g>
</g>
<!-- Node21&#45;&gt;Node20 -->
<g id="edge43_Node000021_Node000020" class="edge">
<title>Node21&#45;&gt;Node20</title>
<g id="a_edge43_Node000021_Node000020"><a xlink:title=" ">
<path fill="none" stroke="#63b8ff" d="M247.27,-117.62C247.27,-109.56 247.27,-97.65 247.27,-87.41"/>
<polygon fill="#63b8ff" stroke="#63b8ff" points="250.77,-87.63 247.27,-77.63 243.77,-87.63 250.77,-87.63"/>
</a>
</g>
</g>
<!-- Node22&#45;&gt;Node4 -->
<g id="edge47_Node000022_Node000004" class="edge">
<title>Node22&#45;&gt;Node4</title>
<g id="a_edge47_Node000022_Node000004"><a xlink:title=" ">
<path fill="none" stroke="#63b8ff" d="M1615.68,-59.09C1497.18,-47.73 1241.03,-23.16 1148.49,-14.28"/>
<polygon fill="#63b8ff" stroke="#63b8ff" points="1149.09,-10.82 1138.8,-13.35 1148.42,-17.79 1149.09,-10.82"/>
</a>
</g>
</g>
<!-- Node22&#45;&gt;Node5 -->
<g id="edge50_Node000022_Node000005" class="edge">
<title>Node22&#45;&gt;Node5</title>
<g id="a_edge50_Node000022_Node000005"><a xlink:title=" ">
<path fill="none" stroke="#63b8ff" d="M1615.79,-61.46C1434.57,-51.01 906.75,-20.59 771.92,-12.82"/>
<polygon fill="#63b8ff" stroke="#63b8ff" points="772.16,-9.33 761.97,-12.25 771.76,-16.32 772.16,-9.33"/>
</a>
</g>
</g>
<!-- Node23 -->
<g id="Node000023" class="node">
<title>Node23</title>
<g id="a_Node000023"><a xlink:title=" ">
<polygon fill="#e0e0e0" stroke="#999999" points="1714.39,-20 1654.14,-20 1654.14,0 1714.39,0 1714.39,-20"/>
<text xml:space="preserve" text-anchor="middle" x="1684.27" y="-6.5" font-family="Helvetica,sans-Serif" font-size="10.00">fmt/core.h</text>
</a>
</g>
</g>
<!-- Node22&#45;&gt;Node23 -->
<g id="edge46_Node000022_Node000023" class="edge">
<title>Node22&#45;&gt;Node23</title>
<g id="a_edge46_Node000022_Node000023"><a xlink:title=" ">
<path fill="none" stroke="#63b8ff" d="M1678.49,-55.59C1679.35,-48.93 1680.54,-39.75 1681.62,-31.44"/>
<polygon fill="#63b8ff" stroke="#63b8ff" points="1685.05,-32.17 1682.87,-21.8 1678.11,-31.27 1685.05,-32.17"/>
</a>
</g>
</g>
<!-- Node22&#45;&gt;Node24 -->
<g id="edge48_Node000022_Node000024" class="edge">
<title>Node22&#45;&gt;Node24</title>
<g id="a_edge48_Node000022_Node000024"><a xlink:title=" ">
<path fill="none" stroke="#63b8ff" d="M1692.77,-55.59C1706.09,-47.51 1725.55,-35.71 1741.09,-26.27"/>
<polygon fill="#63b8ff" stroke="#63b8ff" points="1742.62,-29.44 1749.35,-21.26 1738.99,-23.46 1742.62,-29.44"/>
</a>
</g>
</g>
<!-- Node25 -->
<g id="Node000025" class="node">
<title>Node25</title>
<g id="a_Node000025"><a xlink:title=" ">
<polygon fill="#e0e0e0" stroke="#999999" points="1635.89,-20 1584.64,-20 1584.64,0 1635.89,0 1635.89,-20"/>
<text xml:space="preserve" text-anchor="middle" x="1610.27" y="-6.5" font-family="Helvetica,sans-Serif" font-size="10.00">sstream</text>
</a>
</g>
</g>
<!-- Node22&#45;&gt;Node25 -->
<g id="edge49_Node000022_Node000025" class="edge">
<title>Node22&#45;&gt;Node25</title>
<g id="a_edge49_Node000022_Node000025"><a xlink:title=" ">
<path fill="none" stroke="#63b8ff" d="M1665.6,-55.59C1655.99,-47.85 1642.14,-36.69 1630.7,-27.47"/>
<polygon fill="#63b8ff" stroke="#63b8ff" points="1632.97,-24.8 1622.98,-21.25 1628.57,-30.25 1632.97,-24.8"/>
</a>
</g>
</g>
<!-- Node26&#45;&gt;Node5 -->
<g id="edge53_Node000026_Node000005" class="edge">
<title>Node26&#45;&gt;Node5</title>
<g id="a_edge53_Node000026_Node000005"><a xlink:title=" ">
<path fill="none" stroke="#63b8ff" d="M1626,-117.52C1613.37,-115.44 1599.86,-113.44 1587.27,-112 1331.54,-82.8 1259.01,-138.28 1009.27,-76 988.43,-70.8 985.71,-62.59 965.27,-56 898.04,-34.32 815.99,-21.08 771.91,-14.99"/>
<polygon fill="#63b8ff" stroke="#63b8ff" points="772.4,-11.53 762.03,-13.67 771.47,-18.47 772.4,-11.53"/>
</a>
</g>
</g>
<!-- Node26&#45;&gt;Node22 -->
<g id="edge54_Node000026_Node000022" class="edge">
<title>Node26&#45;&gt;Node22</title>
<g id="a_edge54_Node000026_Node000022"><a xlink:title=" ">
<path fill="none" stroke="#63b8ff" d="M1677.27,-117.62C1677.27,-109.56 1677.27,-97.65 1677.27,-87.41"/>
<polygon fill="#63b8ff" stroke="#63b8ff" points="1680.77,-87.63 1677.27,-77.63 1673.77,-87.63 1680.77,-87.63"/>
</a>
</g>
</g>
<!-- Node26&#45;&gt;Node24 -->
<g id="edge52_Node000026_Node000024" class="edge">
<title>Node26&#45;&gt;Node24</title>
<g id="a_edge52_Node000026_Node000024"><a xlink:title=" ">
<path fill="none" stroke="#63b8ff" d="M1696.35,-117.67C1712.2,-108.98 1734.21,-94.57 1747.27,-76 1756.59,-62.75 1761.38,-44.92 1763.82,-31.29"/>
<polygon fill="#63b8ff" stroke="#63b8ff" points="1767.23,-32.11 1765.24,-21.7 1760.31,-31.08 1767.23,-32.11"/>
</a>
</g>
</g>
<!-- Node27&#45;&gt;Node22 -->
<g id="edge56_Node000027_Node000022" class="edge">
<title>Node27&#45;&gt;Node22</title>
<g id="a_edge56_Node000027_Node000022"><a xlink:title=" ">
<path fill="none" stroke="#63b8ff" d="M1846.02,-117.62C1811.92,-107.4 1757.15,-90.97 1719.31,-79.61"/>
<polygon fill="#63b8ff" stroke="#63b8ff" points="1720.66,-76.36 1710.08,-76.84 1718.65,-83.07 1720.66,-76.36"/>
</a>
</g>
</g>
<!-- Node28&#45;&gt;Node4 -->
<g id="edge59_Node000028_Node000004" class="edge">
<title>Node28&#45;&gt;Node4</title>
<g id="a_edge59_Node000028_Node000004"><a xlink:title=" ">
<path fill="none" stroke="#63b8ff" d="M1169.28,-111.51C1174.08,-96.56 1178.73,-73.65 1170.27,-56 1164.45,-43.86 1153.58,-33.95 1142.95,-26.56"/>
<polygon fill="#63b8ff" stroke="#63b8ff" points="1145.01,-23.72 1134.69,-21.3 1141.25,-29.62 1145.01,-23.72"/>
</a>
</g>
</g>
<!-- Node28&#45;&gt;Node5 -->
<g id="edge61_Node000028_Node000005" class="edge">
<title>Node28&#45;&gt;Node5</title>
<g id="a_edge61_Node000028_Node000005"><a xlink:title=" ">
<path fill="none" stroke="#63b8ff" d="M1103.79,-112.63C1066.79,-103.23 1018.39,-90.12 976.27,-76 953.57,-68.39 949.07,-63.28 926.27,-56 872.86,-38.95 809.05,-24.83 771.75,-17.18"/>
<polygon fill="#63b8ff" stroke="#63b8ff" points="772.6,-13.78 762.11,-15.23 771.21,-20.64 772.6,-13.78"/>
</a>
</g>
</g>
<!-- Node28&#45;&gt;Node9 -->
<g id="edge60_Node000028_Node000009" class="edge">
<title>Node28&#45;&gt;Node9</title>
<g id="a_edge60_Node000028_Node000009"><a xlink:title=" ">
<path fill="none" stroke="#63b8ff" d="M1103.59,-113.72C1100.78,-113.13 1097.99,-112.56 1095.27,-112 1026,-97.87 945.15,-83.06 897.18,-74.44"/>
<polygon fill="#63b8ff" stroke="#63b8ff" points="897.97,-71.03 887.51,-72.71 896.73,-77.92 897.97,-71.03"/>
</a>
</g>
</g>
<!-- Node28&#45;&gt;Node11 -->
<g id="edge58_Node000028_Node000011" class="edge">
<title>Node28&#45;&gt;Node11</title>
<g id="a_edge58_Node000028_Node000011"><a xlink:title=" ">
<path fill="none" stroke="#63b8ff" d="M1103.65,-113.38C1100.82,-112.89 1098.02,-112.42 1095.27,-112 914.63,-84.42 864.39,-97.75 680.66,-76.33"/>
<polygon fill="#63b8ff" stroke="#63b8ff" points="681.07,-72.85 670.73,-75.15 680.25,-79.81 681.07,-72.85"/>
</a>
</g>
</g>
<!-- Node29&#45;&gt;Node5 -->
<g id="edge63_Node000029_Node000005" class="edge">
<title>Node29&#45;&gt;Node5</title>
<g id="a_edge63_Node000029_Node000005"><a xlink:title=" ">
<path fill="none" stroke="#63b8ff" d="M180.98,-56.74C183.78,-56.49 186.55,-56.24 189.27,-56 412.54,-36.47 469.99,-48.7 692.27,-20 697.66,-19.3 703.36,-18.39 708.88,-17.42"/>
<polygon fill="#63b8ff" stroke="#63b8ff" points="709.12,-20.93 718.31,-15.65 707.83,-14.05 709.12,-20.93"/>
</a>
</g>
</g>
</g>
</svg>
