<?xml version="1.0" encoding="UTF-8" standalone="no"?>
<!DOCTYPE svg PUBLIC "-//W3C//DTD SVG 1.1//EN"
 "http://www.w3.org/Graphics/SVG/1.1/DTD/svg11.dtd">
<!-- Generated by graphviz version 13.1.2 (20250808.2320)
 -->
<!-- Title: src/ServiceContainer/ServiceContainer.hpp Pages: 1 -->
<svg width="370pt" height="96pt"
 viewBox="0.00 0.00 370.00 96.00" xmlns="http://www.w3.org/2000/svg" xmlns:xlink="http://www.w3.org/1999/xlink">
<g id="graph0" class="graph" transform="scale(1 1) rotate(0) translate(4 92)">
<title>src/ServiceContainer/ServiceContainer.hpp</title>
<!-- Node1 -->
<g id="Node000001" class="node">
<title>Node1</title>
<g id="a_Node000001"><a xlink:title=" ">
<polygon fill="#999999" stroke="#666666" points="222,-88 109.25,-88 109.25,-56 222,-56 222,-88"/>
<text xml:space="preserve" text-anchor="start" x="117.25" y="-74.5" font-family="Helvetica,sans-Serif" font-size="10.00">src/ServiceContainer</text>
<text xml:space="preserve" text-anchor="middle" x="165.62" y="-62.5" font-family="Helvetica,sans-Serif" font-size="10.00">/ServiceContainer.hpp</text>
</a>
</g>
</g>
<!-- Node2 -->
<g id="Node000002" class="node">
<title>Node2</title>
<g id="a_Node000002"><a xlink:title=" ">
<polygon fill="#e0e0e0" stroke="#999999" points="51.25,-20 0,-20 0,0 51.25,0 51.25,-20"/>
<text xml:space="preserve" text-anchor="middle" x="25.62" y="-6.5" font-family="Helvetica,sans-Serif" font-size="10.00">memory</text>
</a>
</g>
</g>
<!-- Node1&#45;&gt;Node2 -->
<g id="edge1_Node000001_Node000002" class="edge">
<title>Node1&#45;&gt;Node2</title>
<g id="a_edge1_Node000001_Node000002"><a xlink:title=" ">
<path fill="none" stroke="#63b8ff" d="M129.57,-55.55C107.49,-46.09 79.47,-34.08 58.09,-24.91"/>
<polygon fill="#63b8ff" stroke="#63b8ff" points="59.54,-21.73 48.97,-21 56.78,-28.16 59.54,-21.73"/>
</a>
</g>
</g>
<!-- Node3 -->
<g id="Node000003" class="node">
<title>Node3</title>
<g id="a_Node000003"><a xlink:title=" ">
<polygon fill="#e0e0e0" stroke="#999999" points="128,-20 69.25,-20 69.25,0 128,0 128,-20"/>
<text xml:space="preserve" text-anchor="middle" x="98.62" y="-6.5" font-family="Helvetica,sans-Serif" font-size="10.00">stdexcept</text>
</a>
</g>
</g>
<!-- Node1&#45;&gt;Node3 -->
<g id="edge2_Node000001_Node000003" class="edge">
<title>Node1&#45;&gt;Node3</title>
<g id="a_edge2_Node000001_Node000003"><a xlink:title=" ">
<path fill="none" stroke="#63b8ff" d="M148.37,-55.55C138.97,-47.13 127.31,-36.69 117.65,-28.04"/>
<polygon fill="#63b8ff" stroke="#63b8ff" points="120.04,-25.48 110.26,-21.42 115.37,-30.7 120.04,-25.48"/>
</a>
</g>
</g>
<!-- Node4 -->
<g id="Node000004" class="node">
<title>Node4</title>
<g id="a_Node000004"><a xlink:title=" ">
<polygon fill="#e0e0e0" stroke="#999999" points="185.62,-20 145.62,-20 145.62,0 185.62,0 185.62,-20"/>
<text xml:space="preserve" text-anchor="middle" x="165.62" y="-6.5" font-family="Helvetica,sans-Serif" font-size="10.00">string</text>
</a>
</g>
</g>
<!-- Node1&#45;&gt;Node4 -->
<g id="edge3_Node000001_Node000004" class="edge">
<title>Node1&#45;&gt;Node4</title>
<g id="a_edge3_Node000001_Node000004"><a xlink:title=" ">
<path fill="none" stroke="#63b8ff" d="M165.62,-55.55C165.62,-48.34 165.62,-39.66 165.62,-31.88"/>
<polygon fill="#63b8ff" stroke="#63b8ff" points="169.13,-31.92 165.63,-21.92 162.13,-31.92 169.13,-31.92"/>
</a>
</g>
</g>
<!-- Node5 -->
<g id="Node000005" class="node">
<title>Node5</title>
<g id="a_Node000005"><a xlink:title=" ">
<polygon fill="#e0e0e0" stroke="#999999" points="261.62,-20 203.62,-20 203.62,0 261.62,0 261.62,-20"/>
<text xml:space="preserve" text-anchor="middle" x="232.62" y="-6.5" font-family="Helvetica,sans-Serif" font-size="10.00">typeindex</text>
</a>
</g>
</g>
<!-- Node1&#45;&gt;Node5 -->
<g id="edge4_Node000001_Node000005" class="edge">
<title>Node1&#45;&gt;Node5</title>
<g id="a_edge4_Node000001_Node000005"><a xlink:title=" ">
<path fill="none" stroke="#63b8ff" d="M182.88,-55.55C192.28,-47.13 203.94,-36.69 213.6,-28.04"/>
<polygon fill="#63b8ff" stroke="#63b8ff" points="215.88,-30.7 220.99,-21.42 211.21,-25.48 215.88,-30.7"/>
</a>
</g>
</g>
<!-- Node6 -->
<g id="Node000006" class="node">
<title>Node6</title>
<g id="a_Node000006"><a xlink:title=" ">
<polygon fill="#e0e0e0" stroke="#999999" points="362,-20 279.25,-20 279.25,0 362,0 362,-20"/>
<text xml:space="preserve" text-anchor="middle" x="320.62" y="-6.5" font-family="Helvetica,sans-Serif" font-size="10.00">unordered_map</text>
</a>
</g>
</g>
<!-- Node1&#45;&gt;Node6 -->
<g id="edge5_Node000001_Node000006" class="edge">
<title>Node1&#45;&gt;Node6</title>
<g id="a_edge5_Node000001_Node000006"><a xlink:title=" ">
<path fill="none" stroke="#63b8ff" d="M205.54,-55.55C230.32,-45.96 261.86,-33.75 285.66,-24.54"/>
<polygon fill="#63b8ff" stroke="#63b8ff" points="286.85,-27.83 294.91,-20.95 284.32,-21.3 286.85,-27.83"/>
</a>
</g>
</g>
</g>
</svg>
