<?xml version="1.0" encoding="UTF-8" standalone="no"?>
<!DOCTYPE svg PUBLIC "-//W3C//DTD SVG 1.1//EN"
 "http://www.w3.org/Graphics/SVG/1.1/DTD/svg11.dtd">
<!-- Generated by graphviz version 13.1.2 (20250808.2320)
 -->
<!-- Title: src/ServiceContainer/ServiceContainer.hpp Pages: 1 -->
<svg width="415pt" height="220pt"
 viewBox="0.00 0.00 415.00 220.00" xmlns="http://www.w3.org/2000/svg" xmlns:xlink="http://www.w3.org/1999/xlink">
<g id="graph0" class="graph" transform="scale(1 1) rotate(0) translate(4 216)">
<title>src/ServiceContainer/ServiceContainer.hpp</title>
<!-- Node1 -->
<g id="Node000001" class="node">
<title>Node1</title>
<g id="a_Node000001"><a xlink:title=" ">
<polygon fill="#999999" stroke="#666666" points="187.75,-212 75,-212 75,-180 187.75,-180 187.75,-212"/>
<text xml:space="preserve" text-anchor="start" x="83" y="-198.5" font-family="Helvetica,sans-Serif" font-size="10.00">src/ServiceContainer</text>
<text xml:space="preserve" text-anchor="middle" x="131.38" y="-186.5" font-family="Helvetica,sans-Serif" font-size="10.00">/ServiceContainer.hpp</text>
</a>
</g>
</g>
<!-- Node2 -->
<g id="Node000002" class="node">
<title>Node2</title>
<g id="a_Node000002"><a xlink:href="DotNameBotLib_8hpp.html" target="_top" xlink:title=" ">
<polygon fill="white" stroke="#666666" points="166.12,-88 46.62,-88 46.62,-56 166.12,-56 166.12,-88"/>
<text xml:space="preserve" text-anchor="start" x="54.62" y="-74.5" font-family="Helvetica,sans-Serif" font-size="10.00">include/DotNameBotLib</text>
<text xml:space="preserve" text-anchor="middle" x="106.38" y="-62.5" font-family="Helvetica,sans-Serif" font-size="10.00">/DotNameBotLib.hpp</text>
</a>
</g>
</g>
<!-- Node1&#45;&gt;Node2 -->
<g id="edge1_Node000001_Node000002" class="edge">
<title>Node1&#45;&gt;Node2</title>
<g id="a_edge1_Node000001_Node000002"><a xlink:title=" ">
<path fill="none" stroke="#63b8ff" d="M74.22,-174.43C61.18,-166.93 48.94,-156.98 41.38,-144 28.75,-122.34 53.24,-101.69 75.68,-88.3"/>
<polygon fill="#63b8ff" stroke="#63b8ff" points="72.46,-177.46 82.95,-179 75.71,-171.26 72.46,-177.46"/>
</a>
</g>
</g>
<!-- Node5 -->
<g id="Node000005" class="node">
<title>Node5</title>
<g id="a_Node000005"><a xlink:href="DiscordBot_8hpp.html" target="_top" xlink:title=" ">
<polygon fill="white" stroke="#666666" points="382.25,-144 230.5,-144 230.5,-124 382.25,-124 382.25,-144"/>
<text xml:space="preserve" text-anchor="middle" x="306.38" y="-130.5" font-family="Helvetica,sans-Serif" font-size="10.00">src/DiscordBot/DiscordBot.hpp</text>
</a>
</g>
</g>
<!-- Node1&#45;&gt;Node5 -->
<g id="edge4_Node000001_Node000005" class="edge">
<title>Node1&#45;&gt;Node5</title>
<g id="a_edge4_Node000001_Node000005"><a xlink:title=" ">
<path fill="none" stroke="#63b8ff" d="M186.97,-175.94C217.54,-165.46 254.13,-152.91 278.68,-144.5"/>
<polygon fill="#63b8ff" stroke="#63b8ff" points="186.2,-172.5 177.87,-179.06 188.47,-179.13 186.2,-172.5"/>
</a>
</g>
</g>
<!-- Node7 -->
<g id="Node000007" class="node">
<title>Node7</title>
<g id="a_Node000007"><a xlink:href="Orchestrator_8hpp.html" target="_top" xlink:title=" ">
<polygon fill="white" stroke="#666666" points="212.5,-144 50.25,-144 50.25,-124 212.5,-124 212.5,-144"/>
<text xml:space="preserve" text-anchor="middle" x="131.38" y="-130.5" font-family="Helvetica,sans-Serif" font-size="10.00">src/Orchestrator/Orchestrator.hpp</text>
</a>
</g>
</g>
<!-- Node1&#45;&gt;Node7 -->
<g id="edge7_Node000001_Node000007" class="edge">
<title>Node1&#45;&gt;Node7</title>
<g id="a_edge7_Node000001_Node000007"><a xlink:title=" ">
<path fill="none" stroke="#63b8ff" d="M131.38,-168.08C131.38,-159.6 131.38,-150.8 131.38,-144.41"/>
<polygon fill="#63b8ff" stroke="#63b8ff" points="127.88,-168.03 131.38,-178.03 134.88,-168.03 127.88,-168.03"/>
</a>
</g>
</g>
<!-- Node3 -->
<g id="Node000003" class="node">
<title>Node3</title>
<g id="a_Node000003"><a xlink:href="Application_8cpp.html" target="_top" xlink:title=" ">
<polygon fill="white" stroke="#666666" points="148.75,-20 0,-20 0,0 148.75,0 148.75,-20"/>
<text xml:space="preserve" text-anchor="middle" x="74.38" y="-6.5" font-family="Helvetica,sans-Serif" font-size="10.00">application/src/Application.cpp</text>
</a>
</g>
</g>
<!-- Node2&#45;&gt;Node3 -->
<g id="edge2_Node000002_Node000003" class="edge">
<title>Node2&#45;&gt;Node3</title>
<g id="a_edge2_Node000002_Node000003"><a xlink:title=" ">
<path fill="none" stroke="#63b8ff" d="M92.79,-45.53C88.04,-36.62 83,-27.17 79.39,-20.41"/>
<polygon fill="#63b8ff" stroke="#63b8ff" points="89.63,-47.04 97.42,-54.21 95.8,-43.74 89.63,-47.04"/>
</a>
</g>
</g>
<!-- Node4 -->
<g id="Node000004" class="node">
<title>Node4</title>
<g id="a_Node000004"><a xlink:href="DotNameBotLib_8cpp.html" target="_top" xlink:title=" ">
<polygon fill="white" stroke="#666666" points="287.88,-20 166.88,-20 166.88,0 287.88,0 287.88,-20"/>
<text xml:space="preserve" text-anchor="middle" x="227.38" y="-6.5" font-family="Helvetica,sans-Serif" font-size="10.00">src/DotNameBotLib.cpp</text>
</a>
</g>
</g>
<!-- Node2&#45;&gt;Node4 -->
<g id="edge3_Node000002_Node000004" class="edge">
<title>Node2&#45;&gt;Node4</title>
<g id="a_edge3_Node000002_Node000004"><a xlink:title=" ">
<path fill="none" stroke="#63b8ff" d="M147.64,-50.54C168.25,-40.32 192.18,-28.45 208.4,-20.41"/>
<polygon fill="#63b8ff" stroke="#63b8ff" points="146.3,-47.3 138.89,-54.88 149.41,-53.57 146.3,-47.3"/>
</a>
</g>
</g>
<!-- Node5&#45;&gt;Node4 -->
<g id="edge6_Node000005_Node000004" class="edge">
<title>Node5&#45;&gt;Node4</title>
<g id="a_edge6_Node000005_Node000004"><a xlink:title=" ">
<path fill="none" stroke="#63b8ff" d="M277.99,-117.56C266.6,-110.04 254.32,-100.01 246.38,-88 232.24,-66.64 228.62,-35.67 227.69,-20.33"/>
<polygon fill="#63b8ff" stroke="#63b8ff" points="275.99,-120.45 286.34,-122.72 279.67,-114.49 275.99,-120.45"/>
</a>
</g>
</g>
<!-- Node6 -->
<g id="Node000006" class="node">
<title>Node6</title>
<g id="a_Node000006"><a xlink:href="DiscordBot_8cpp.html" target="_top" xlink:title=" ">
<polygon fill="white" stroke="#666666" points="407.25,-82 255.5,-82 255.5,-62 407.25,-62 407.25,-82"/>
<text xml:space="preserve" text-anchor="middle" x="331.38" y="-68.5" font-family="Helvetica,sans-Serif" font-size="10.00">src/DiscordBot/DiscordBot.cpp</text>
</a>
</g>
</g>
<!-- Node5&#45;&gt;Node6 -->
<g id="edge5_Node000005_Node000006" class="edge">
<title>Node5&#45;&gt;Node6</title>
<g id="a_edge5_Node000005_Node000006"><a xlink:title=" ">
<path fill="none" stroke="#63b8ff" d="M314.6,-113.27C318.97,-102.76 324.15,-90.35 327.58,-82.11"/>
<polygon fill="#63b8ff" stroke="#63b8ff" points="311.48,-111.65 310.86,-122.23 317.94,-114.34 311.48,-111.65"/>
</a>
</g>
</g>
<!-- Node7&#45;&gt;Node2 -->
<g id="edge8_Node000007_Node000002" class="edge">
<title>Node7&#45;&gt;Node2</title>
<g id="a_edge8_Node000007_Node000002"><a xlink:title=" ">
<path fill="none" stroke="#63b8ff" d="M123.11,-113.16C119.71,-105.01 115.84,-95.73 112.68,-88.14"/>
<polygon fill="#63b8ff" stroke="#63b8ff" points="119.81,-114.34 126.89,-122.23 126.27,-111.65 119.81,-114.34"/>
</a>
</g>
</g>
</g>
</svg>
