<?xml version="1.0" encoding="UTF-8" standalone="no"?>
<!DOCTYPE svg PUBLIC "-//W3C//DTD SVG 1.1//EN"
 "http://www.w3.org/Graphics/SVG/1.1/DTD/svg11.dtd">
<!-- Generated by graphviz version 13.1.2 (20250808.2320)
 -->
<!-- Title: dotnamecpp::rss::RSSItem Pages: 1 -->
<svg width="218pt" height="466pt"
 viewBox="0.00 0.00 218.00 466.00" xmlns="http://www.w3.org/2000/svg" xmlns:xlink="http://www.w3.org/1999/xlink">
<g id="graph0" class="graph" transform="scale(1 1) rotate(0) translate(4 462)">
<title>dotnamecpp::rss::RSSItem</title>
<!-- Node1 -->
<g id="Node000001" class="node">
<title>Node1</title>
<g id="a_Node000001"><a xlink:title="Represents a single RSS item.">
<polygon fill="#999999" stroke="none" points="210,-324 0,-324 0,0 210,0 210,-324"/>
<text xml:space="preserve" text-anchor="start" x="45.38" y="-310.5" font-family="Helvetica,sans-Serif" font-size="10.00">dotnamecpp::rss::RSSItem</text>
<text xml:space="preserve" text-anchor="start" x="4" y="-294.5" font-family="Helvetica,sans-Serif" font-size="10.00">+</text>
<text xml:space="preserve" text-anchor="start" x="14" y="-294.5" font-family="Helvetica,sans-Serif" font-size="10.00">std::string title</text>
<text xml:space="preserve" text-anchor="start" x="4" y="-278.5" font-family="Helvetica,sans-Serif" font-size="10.00">+</text>
<text xml:space="preserve" text-anchor="start" x="14" y="-278.5" font-family="Helvetica,sans-Serif" font-size="10.00">std::string url</text>
<text xml:space="preserve" text-anchor="start" x="4" y="-262.5" font-family="Helvetica,sans-Serif" font-size="10.00">+</text>
<text xml:space="preserve" text-anchor="start" x="14" y="-262.5" font-family="Helvetica,sans-Serif" font-size="10.00">std::string description</text>
<text xml:space="preserve" text-anchor="start" x="4" y="-246.5" font-family="Helvetica,sans-Serif" font-size="10.00">+</text>
<text xml:space="preserve" text-anchor="start" x="14" y="-246.5" font-family="Helvetica,sans-Serif" font-size="10.00">std::string pubDate</text>
<text xml:space="preserve" text-anchor="start" x="4" y="-230.5" font-family="Helvetica,sans-Serif" font-size="10.00">+</text>
<text xml:space="preserve" text-anchor="start" x="14" y="-230.5" font-family="Helvetica,sans-Serif" font-size="10.00">std::string hash</text>
<text xml:space="preserve" text-anchor="start" x="4" y="-214.5" font-family="Helvetica,sans-Serif" font-size="10.00">+</text>
<text xml:space="preserve" text-anchor="start" x="14" y="-214.5" font-family="Helvetica,sans-Serif" font-size="10.00">EmbeddedType embeddedType</text>
<text xml:space="preserve" text-anchor="start" x="4" y="-198.5" font-family="Helvetica,sans-Serif" font-size="10.00">+</text>
<text xml:space="preserve" text-anchor="start" x="14" y="-198.5" font-family="Helvetica,sans-Serif" font-size="10.00">uint64_t discordChannelId</text>
<text xml:space="preserve" text-anchor="start" x="4" y="-182.5" font-family="Helvetica,sans-Serif" font-size="10.00">+</text>
<text xml:space="preserve" text-anchor="start" x="14" y="-182.5" font-family="Helvetica,sans-Serif" font-size="10.00">RSSItem()</text>
<text xml:space="preserve" text-anchor="start" x="4" y="-166.5" font-family="Helvetica,sans-Serif" font-size="10.00">+</text>
<text xml:space="preserve" text-anchor="start" x="14" y="-166.5" font-family="Helvetica,sans-Serif" font-size="10.00">RSSItem(std::string</text>
<text xml:space="preserve" text-anchor="start" x="14" y="-154.5" font-family="Helvetica,sans-Serif" font-size="10.00"> &amp;title, std::string</text>
<text xml:space="preserve" text-anchor="start" x="14" y="-142.5" font-family="Helvetica,sans-Serif" font-size="10.00"> &amp;url, std::string &amp;description,</text>
<text xml:space="preserve" text-anchor="start" x="14" y="-130.5" font-family="Helvetica,sans-Serif" font-size="10.00"> RSSMedia &amp;rssMedia, std::string</text>
<text xml:space="preserve" text-anchor="start" x="14" y="-118.5" font-family="Helvetica,sans-Serif" font-size="10.00"> &amp;pubDate, EmbeddedType embeddedType,</text>
<text xml:space="preserve" text-anchor="start" x="14" y="-106.5" font-family="Helvetica,sans-Serif" font-size="10.00"> uint64_t discordChannelId)</text>
<text xml:space="preserve" text-anchor="start" x="4" y="-90.5" font-family="Helvetica,sans-Serif" font-size="10.00">+</text>
<text xml:space="preserve" text-anchor="start" x="14" y="-90.5" font-family="Helvetica,sans-Serif" font-size="10.00">void generateHash()</text>
<text xml:space="preserve" text-anchor="start" x="4" y="-74.5" font-family="Helvetica,sans-Serif" font-size="10.00">+</text>
<text xml:space="preserve" text-anchor="start" x="14" y="-74.5" font-family="Helvetica,sans-Serif" font-size="10.00">std::string toMarkdownLink</text>
<text xml:space="preserve" text-anchor="start" x="14" y="-62.5" font-family="Helvetica,sans-Serif" font-size="10.00">() const</text>
<text xml:space="preserve" text-anchor="start" x="4" y="-46.5" font-family="Helvetica,sans-Serif" font-size="10.00">+</text>
<text xml:space="preserve" text-anchor="start" x="14" y="-46.5" font-family="Helvetica,sans-Serif" font-size="10.00">std::string toDebug</text>
<text xml:space="preserve" text-anchor="start" x="14" y="-34.5" font-family="Helvetica,sans-Serif" font-size="10.00">() const</text>
<text xml:space="preserve" text-anchor="start" x="4" y="-18.5" font-family="Helvetica,sans-Serif" font-size="10.00">+</text>
<text xml:space="preserve" text-anchor="start" x="14" y="-18.5" font-family="Helvetica,sans-Serif" font-size="10.00">dpp::embed toEmbed</text>
<text xml:space="preserve" text-anchor="start" x="14" y="-6.5" font-family="Helvetica,sans-Serif" font-size="10.00">() const</text>
<polygon fill="#666666" stroke="#666666" points="0,-306 0,-306 210,-306 210,-306 0,-306"/>
<polygon fill="#666666" stroke="#666666" points="0,-194 0,-194 12,-194 12,-194 0,-194"/>
<polygon fill="#666666" stroke="#666666" points="12,-194 12,-194 210,-194 210,-194 12,-194"/>
<polygon fill="none" stroke="#666666" points="0,0 0,-324 210,-324 210,0 0,0"/>
</a>
</g>
</g>
<!-- Node2 -->
<g id="Node000002" class="node">
<title>Node2</title>
<g id="a_Node000002"><a xlink:href="structdotnamecpp_1_1rss_1_1RSSMedia.html" target="_top" xlink:title="Represents an media content from a RSS feed item.">
<polygon fill="white" stroke="none" points="172,-458 38,-458 38,-378 172,-378 172,-458"/>
<text xml:space="preserve" text-anchor="start" x="42" y="-444.5" font-family="Helvetica,sans-Serif" font-size="10.00">dotnamecpp::rss::RSSMedia</text>
<text xml:space="preserve" text-anchor="start" x="47.56" y="-428.5" font-family="Helvetica,sans-Serif" font-size="10.00">+</text>
<text xml:space="preserve" text-anchor="start" x="63.12" y="-428.5" font-family="Helvetica,sans-Serif" font-size="10.00">std::string url</text>
<text xml:space="preserve" text-anchor="start" x="47.56" y="-412.5" font-family="Helvetica,sans-Serif" font-size="10.00">+</text>
<text xml:space="preserve" text-anchor="start" x="63.12" y="-412.5" font-family="Helvetica,sans-Serif" font-size="10.00">std::string type</text>
<text xml:space="preserve" text-anchor="start" x="47.56" y="-396.5" font-family="Helvetica,sans-Serif" font-size="10.00">+</text>
<text xml:space="preserve" text-anchor="start" x="63.12" y="-396.5" font-family="Helvetica,sans-Serif" font-size="10.00">RSSMedia(std::string</text>
<text xml:space="preserve" text-anchor="start" x="63.12" y="-384.5" font-family="Helvetica,sans-Serif" font-size="10.00"> u, std::string t)</text>
<polygon fill="#666666" stroke="#666666" points="38,-440 38,-440 172,-440 172,-440 38,-440"/>
<polygon fill="#666666" stroke="#666666" points="38,-408 38,-408 61.12,-408 61.12,-408 38,-408"/>
<polygon fill="#666666" stroke="#666666" points="61.12,-408 61.12,-408 172,-408 172,-408 61.12,-408"/>
<polygon fill="none" stroke="#666666" points="38,-378 38,-458 172,-458 172,-378 38,-378"/>
</a>
</g>
</g>
<!-- Node2&#45;&gt;Node1 -->
<g id="edge1_Node000001_Node000002" class="edge">
<title>Node2&#45;&gt;Node1</title>
<g id="a_edge1_Node000001_Node000002"><a xlink:title=" ">
<path fill="none" stroke="#63b8ff" d="M105,-378.15C105,-366.1 105,-351.95 105,-336.78"/>
<polygon fill="none" stroke="#63b8ff" points="105,-336.71 101,-330.71 105,-324.71 109,-330.71 105,-336.71"/>
</a>
</g>
<text xml:space="preserve" text-anchor="start" x="108" y="-347.5" font-family="Helvetica,sans-Serif" font-size="10.00" fill="grey">+rssMedia</text>
</g>
</g>
</svg>
