<?xml version="1.0" encoding="UTF-8" standalone="no"?>
<!DOCTYPE svg PUBLIC "-//W3C//DTD SVG 1.1//EN"
 "http://www.w3.org/Graphics/SVG/1.1/DTD/svg11.dtd">
<!-- Generated by graphviz version 13.1.2 (20250808.2320)
 -->
<!-- Title: dotnamecpp::rss::RSSFeed Pages: 1 -->
<svg width="138pt" height="164pt"
 viewBox="0.00 0.00 138.00 164.00" xmlns="http://www.w3.org/2000/svg" xmlns:xlink="http://www.w3.org/1999/xlink">
<g id="graph0" class="graph" transform="scale(1 1) rotate(0) translate(4 160)">
<title>dotnamecpp::rss::RSSFeed</title>
<!-- Node1 -->
<g id="Node000001" class="node">
<title>Node1</title>
<g id="a_Node000001"><a xlink:title="Represents a RSS feed containing multiple RSS items.">
<polygon fill="#999999" stroke="none" points="129.5,-156 0,-156 0,0 129.5,0 129.5,-156"/>
<text xml:space="preserve" text-anchor="start" x="4" y="-142.5" font-family="Helvetica,sans-Serif" font-size="10.00">dotnamecpp::rss::RSSFeed</text>
<text xml:space="preserve" text-anchor="start" x="7.88" y="-126.5" font-family="Helvetica,sans-Serif" font-size="10.00">+</text>
<text xml:space="preserve" text-anchor="start" x="21.75" y="-126.5" font-family="Helvetica,sans-Serif" font-size="10.00">std::string title</text>
<text xml:space="preserve" text-anchor="start" x="7.88" y="-110.5" font-family="Helvetica,sans-Serif" font-size="10.00">+</text>
<text xml:space="preserve" text-anchor="start" x="21.75" y="-110.5" font-family="Helvetica,sans-Serif" font-size="10.00">std::string description</text>
<text xml:space="preserve" text-anchor="start" x="7.88" y="-94.5" font-family="Helvetica,sans-Serif" font-size="10.00">+</text>
<text xml:space="preserve" text-anchor="start" x="21.75" y="-94.5" font-family="Helvetica,sans-Serif" font-size="10.00">std::string link</text>
<text xml:space="preserve" text-anchor="start" x="7.88" y="-78.5" font-family="Helvetica,sans-Serif" font-size="10.00">+</text>
<text xml:space="preserve" text-anchor="start" x="21.75" y="-78.5" font-family="Helvetica,sans-Serif" font-size="10.00">std::vector&lt; RSSItem</text>
<text xml:space="preserve" text-anchor="start" x="21.75" y="-66.5" font-family="Helvetica,sans-Serif" font-size="10.00"> &gt; items</text>
<text xml:space="preserve" text-anchor="start" x="7.88" y="-50.5" font-family="Helvetica,sans-Serif" font-size="10.00">+</text>
<text xml:space="preserve" text-anchor="start" x="21.75" y="-50.5" font-family="Helvetica,sans-Serif" font-size="10.00">void addItem(const</text>
<text xml:space="preserve" text-anchor="start" x="21.75" y="-38.5" font-family="Helvetica,sans-Serif" font-size="10.00"> RSSItem &amp;item)</text>
<text xml:space="preserve" text-anchor="start" x="7.88" y="-22.5" font-family="Helvetica,sans-Serif" font-size="10.00">+</text>
<text xml:space="preserve" text-anchor="start" x="21.75" y="-22.5" font-family="Helvetica,sans-Serif" font-size="10.00">size_t size() const</text>
<text xml:space="preserve" text-anchor="start" x="7.88" y="-6.5" font-family="Helvetica,sans-Serif" font-size="10.00">+</text>
<text xml:space="preserve" text-anchor="start" x="21.75" y="-6.5" font-family="Helvetica,sans-Serif" font-size="10.00">void clear()</text>
<polygon fill="#666666" stroke="#666666" points="0,-138 0,-138 129.5,-138 129.5,-138 0,-138"/>
<polygon fill="#666666" stroke="#666666" points="0,-62 0,-62 19.75,-62 19.75,-62 0,-62"/>
<polygon fill="#666666" stroke="#666666" points="19.75,-62 19.75,-62 129.5,-62 129.5,-62 19.75,-62"/>
<polygon fill="none" stroke="#666666" points="0,0 0,-156 129.5,-156 129.5,0 0,0"/>
</a>
</g>
</g>
</g>
</svg>
