<?xml version="1.0" encoding="UTF-8" standalone="no"?>
<!DOCTYPE svg PUBLIC "-//W3C//DTD SVG 1.1//EN"
 "http://www.w3.org/Graphics/SVG/1.1/DTD/svg11.dtd">
<!-- Generated by graphviz version 13.1.2 (20250808.2320)
 -->
<!-- Title: src/Utils/UtilsFactory.hpp Pages: 1 -->
<!--zoomable 208 -->

<svg id="main" version="1.1" xmlns="http://www.w3.org/2000/svg" xmlns:xlink="http://www.w3.org/1999/xlink" xml:space="preserve" onload="init(evt)">

<style type="text/css"><![CDATA[
.node, .edge {opacity: 0.7;}
.node.selected, .edge.selected {opacity: 1;}
.edge:hover path { stroke: red; }
.edge:hover polygon { stroke: red; fill: red; }
]]></style>

<defs>
  <circle id="rim" cx="0" cy="0" r="7"/>
  <circle id="rim2" cx="0" cy="0" r="3.5"/>
  <g id="zoomPlus">
    <use xlink:href="#rim" fill="#404040"><set attributeName="fill" to="#808080" begin="zoomplus.mouseover" end="zoomplus.mouseout"/></use>
    <path d="M-4,0h8M0,-4v8" fill="none" stroke="white" stroke-width="1.5" pointer-events="none"/>
  </g>
  <g id="zoomMin">
    <use xlink:href="#rim" fill="#404040"><set attributeName="fill" to="#808080" begin="zoomminus.mouseover" end="zoomminus.mouseout"/></use>
    <path d="M-4,0h8" fill="none" stroke="white" stroke-width="1.5" pointer-events="none"/>
  </g>
  <g id="arrowUp" transform="translate(30 24)">
    <use xlink:href="#rim"/>
    <path pointer-events="none" fill="none" stroke="white" stroke-width="1.5" d="M0,-3.0v7 M-2.5,-0.5L0,-3.0L2.5,-0.5"/>
  </g>
  <g id="arrowRight" transform="rotate(90) translate(36 -43)">
    <use xlink:href="#rim"/>
    <path pointer-events="none" fill="none" stroke="white" stroke-width="1.5" d="M0,-3.0v7 M-2.5,-0.5L0,-3.0L2.5,-0.5"/>
  </g>
  <g id="arrowDown" transform="rotate(180) translate(-30 -48)">
    <use xlink:href="#rim"/>
    <path pointer-events="none" fill="none" stroke="white" stroke-width="1.5" d="M0,-3.0v7 M-2.5,-0.5L0,-3.0L2.5,-0.5"/>
  </g>
  <g id="arrowLeft" transform="rotate(270) translate(-36 17)">
    <use xlink:href="#rim"/>
    <path pointer-events="none" fill="none" stroke="white" stroke-width="1.5" d="M0,-3.0v7 M-2.5,-0.5L0,-3.0L2.5,-0.5"/>
  </g>
  <g id="resetDef">
    <use xlink:href="#rim2" fill="#404040"><set attributeName="fill" to="#808080" begin="reset.mouseover" end="reset.mouseout"/></use>
  </g>
</defs>
<script type="application/ecmascript">
var viewWidth = 1910;
var viewHeight = 208;
var sectionId = 'dynsection-0';
</script>
<script type="application/ecmascript" xlink:href="svg.min.js"/>
<svg id="graph" class="graph">
<g id="viewport">
<title>src/Utils/UtilsFactory.hpp</title>
<!-- Node1 -->
<g id="Node000001" class="node">
<title>Node1</title>
<g id="a_Node000001"><a xlink:title=" ">
<polygon fill="#999999" stroke="#666666" points="1145.75,-200 1018.75,-200 1018.75,-180 1145.75,-180 1145.75,-200"/>
<text xml:space="preserve" text-anchor="middle" x="1082.25" y="-186.5" font-family="Helvetica,sans-Serif" font-size="10.00">src/Utils/UtilsFactory.hpp</text>
</a>
</g>
</g>
<!-- Node2 -->
<g id="Node000002" class="node">
<title>Node2</title>
<g id="a_Node000002"><a xlink:title=" ">
<polygon fill="#e0e0e0" stroke="#999999" points="128.5,-138 0,-138 0,-118 128.5,-118 128.5,-138"/>
<text xml:space="preserve" text-anchor="middle" x="64.25" y="-124.5" font-family="Helvetica,sans-Serif" font-size="10.00">DotNameBotLib/version.h</text>
</a>
</g>
</g>
<!-- Node1&#45;&gt;Node2 -->
<g id="edge1_Node000001_Node000002" class="edge">
<title>Node1&#45;&gt;Node2</title>
<g id="a_edge1_Node000001_Node000002"><a xlink:title=" ">
<path fill="none" stroke="#63b8ff" d="M1018.43,-189.3C865.74,-189.3 467.55,-184.98 138.25,-144 131.16,-143.12 123.74,-141.93 116.45,-140.61"/>
<polygon fill="#63b8ff" stroke="#63b8ff" points="117.13,-137.18 106.65,-138.74 115.82,-144.05 117.13,-137.18"/>
</a>
</g>
</g>
<!-- Node3 -->
<g id="Node000003" class="node">
<title>Node3</title>
<g id="a_Node000003"><a xlink:href="IAssetManager_8hpp.html" target="_top" xlink:title=" ">
<polygon fill="white" stroke="#666666" points="657.12,-138 499.38,-138 499.38,-118 657.12,-118 657.12,-138"/>
<text xml:space="preserve" text-anchor="middle" x="578.25" y="-124.5" font-family="Helvetica,sans-Serif" font-size="10.00">Utils/Assets/IAssetManager.hpp</text>
</a>
</g>
</g>
<!-- Node1&#45;&gt;Node3 -->
<g id="edge2_Node000001_Node000003" class="edge">
<title>Node1&#45;&gt;Node3</title>
<g id="a_edge2_Node000001_Node000003"><a xlink:title=" ">
<path fill="none" stroke="#63b8ff" d="M1018.32,-183.31C936.52,-175.74 790.54,-161.3 666.25,-144 658.34,-142.9 650.04,-141.63 641.84,-140.31"/>
<polygon fill="#63b8ff" stroke="#63b8ff" points="642.68,-136.9 632.24,-138.73 641.54,-143.81 642.68,-136.9"/>
</a>
</g>
</g>
<!-- Node4 -->
<g id="Node000004" class="node">
<title>Node4</title>
<g id="a_Node000004"><a xlink:title=" ">
<polygon fill="#e0e0e0" stroke="#999999" points="731.75,-76 670.75,-76 670.75,-56 731.75,-56 731.75,-76"/>
<text xml:space="preserve" text-anchor="middle" x="701.25" y="-62.5" font-family="Helvetica,sans-Serif" font-size="10.00">filesystem</text>
</a>
</g>
</g>
<!-- Node1&#45;&gt;Node4 -->
<g id="edge59_Node000001_Node000004" class="edge">
<title>Node1&#45;&gt;Node4</title>
<g id="a_edge59_Node000001_Node000004"><a xlink:title=" ">
<path fill="none" stroke="#63b8ff" d="M1018.25,-188.93C872.48,-188.1 525.57,-182.11 490.25,-144 480.58,-133.57 481.3,-123.06 490.25,-112 500.85,-98.9 600.86,-81.97 659.31,-73.08"/>
<polygon fill="#63b8ff" stroke="#63b8ff" points="659.54,-76.58 668.91,-71.64 658.5,-69.66 659.54,-76.58"/>
</a>
</g>
</g>
<!-- Node5 -->
<g id="Node000005" class="node">
<title>Node5</title>
<g id="a_Node000005"><a xlink:href="IDirectoryManager_8hpp.html" target="_top" xlink:title=" ">
<polygon fill="white" stroke="#666666" points="807.75,-144 674.75,-144 674.75,-112 807.75,-112 807.75,-144"/>
<text xml:space="preserve" text-anchor="start" x="682.75" y="-130.5" font-family="Helvetica,sans-Serif" font-size="10.00">Utils/Filesystem/IDirectory</text>
<text xml:space="preserve" text-anchor="middle" x="741.25" y="-118.5" font-family="Helvetica,sans-Serif" font-size="10.00">Manager.hpp</text>
</a>
</g>
</g>
<!-- Node1&#45;&gt;Node5 -->
<g id="edge4_Node000001_Node000005" class="edge">
<title>Node1&#45;&gt;Node5</title>
<g id="a_edge4_Node000001_Node000005"><a xlink:title=" ">
<path fill="none" stroke="#63b8ff" d="M1023.26,-179.54C971.83,-171.17 894.92,-158.38 819.07,-144.49"/>
<polygon fill="#63b8ff" stroke="#63b8ff" points="819.84,-141.08 809.37,-142.71 818.58,-147.96 819.84,-141.08"/>
</a>
</g>
</g>
<!-- Node13 -->
<g id="Node000013" class="node">
<title>Node13</title>
<g id="a_Node000013"><a xlink:href="IFileReader_8hpp.html" target="_top" xlink:title=" ">
<polygon fill="white" stroke="#666666" points="442.88,-138 283.62,-138 283.62,-118 442.88,-118 442.88,-138"/>
<text xml:space="preserve" text-anchor="middle" x="363.25" y="-124.5" font-family="Helvetica,sans-Serif" font-size="10.00">Utils/Filesystem/IFileReader.hpp</text>
</a>
</g>
</g>
<!-- Node1&#45;&gt;Node13 -->
<g id="edge13_Node000001_Node000013" class="edge">
<title>Node1&#45;&gt;Node13</title>
<g id="a_edge13_Node000001_Node000013"><a xlink:title=" ">
<path fill="none" stroke="#63b8ff" d="M1018.65,-186.24C905.47,-180.92 661.77,-167.64 457.25,-144 447.93,-142.92 438.12,-141.59 428.49,-140.16"/>
<polygon fill="#63b8ff" stroke="#63b8ff" points="429.23,-136.73 418.82,-138.68 428.17,-143.65 429.23,-136.73"/>
</a>
</g>
</g>
<!-- Node14 -->
<g id="Node000014" class="node">
<title>Node14</title>
<g id="a_Node000014"><a xlink:href="IFileWriter_8hpp.html" target="_top" xlink:title=" ">
<polygon fill="white" stroke="#666666" points="978.88,-138 825.62,-138 825.62,-118 978.88,-118 978.88,-138"/>
<text xml:space="preserve" text-anchor="middle" x="902.25" y="-124.5" font-family="Helvetica,sans-Serif" font-size="10.00">Utils/Filesystem/IFileWriter.hpp</text>
</a>
</g>
</g>
<!-- Node1&#45;&gt;Node14 -->
<g id="edge19_Node000001_Node000014" class="edge">
<title>Node1&#45;&gt;Node14</title>
<g id="a_edge19_Node000001_Node000014"><a xlink:title=" ">
<path fill="none" stroke="#63b8ff" d="M1054.12,-179.62C1023.7,-169.48 974.99,-153.25 940.96,-141.9"/>
<polygon fill="#63b8ff" stroke="#63b8ff" points="942.5,-138.73 931.91,-138.89 940.29,-145.37 942.5,-138.73"/>
</a>
</g>
</g>
<!-- Node15 -->
<g id="Node000015" class="node">
<title>Node15</title>
<g id="a_Node000015"><a xlink:href="IPathResolver_8hpp.html" target="_top" xlink:title=" ">
<polygon fill="white" stroke="#666666" points="1167.88,-138 996.62,-138 996.62,-118 1167.88,-118 1167.88,-138"/>
<text xml:space="preserve" text-anchor="middle" x="1082.25" y="-124.5" font-family="Helvetica,sans-Serif" font-size="10.00">Utils/Filesystem/IPathResolver.hpp</text>
</a>
</g>
</g>
<!-- Node1&#45;&gt;Node15 -->
<g id="edge25_Node000001_Node000015" class="edge">
<title>Node1&#45;&gt;Node15</title>
<g id="a_edge25_Node000001_Node000015"><a xlink:title=" ">
<path fill="none" stroke="#63b8ff" d="M1082.25,-179.62C1082.25,-171.56 1082.25,-159.65 1082.25,-149.41"/>
<polygon fill="#63b8ff" stroke="#63b8ff" points="1085.75,-149.63 1082.25,-139.63 1078.75,-149.63 1085.75,-149.63"/>
</a>
</g>
</g>
<!-- Node16 -->
<g id="Node000016" class="node">
<title>Node16</title>
<g id="a_Node000016"><a xlink:href="ICustomStringsLoader_8hpp.html" target="_top" xlink:title=" ">
<polygon fill="white" stroke="#666666" points="1482,-144 1350.5,-144 1350.5,-112 1482,-112 1482,-144"/>
<text xml:space="preserve" text-anchor="start" x="1358.5" y="-130.5" font-family="Helvetica,sans-Serif" font-size="10.00">Utils/Json/ICustomStrings</text>
<text xml:space="preserve" text-anchor="middle" x="1416.25" y="-118.5" font-family="Helvetica,sans-Serif" font-size="10.00">Loader.hpp</text>
</a>
</g>
</g>
<!-- Node1&#45;&gt;Node16 -->
<g id="edge30_Node000001_Node000016" class="edge">
<title>Node1&#45;&gt;Node16</title>
<g id="a_edge30_Node000001_Node000016"><a xlink:title=" ">
<path fill="none" stroke="#63b8ff" d="M1139.17,-179.54C1189.23,-171.12 1264.37,-158.25 1339.01,-144.39"/>
<polygon fill="#63b8ff" stroke="#63b8ff" points="1339.34,-147.89 1348.53,-142.62 1338.05,-141.01 1339.34,-147.89"/>
</a>
</g>
</g>
<!-- Node18 -->
<g id="Node000018" class="node">
<title>Node18</title>
<g id="a_Node000018"><a xlink:href="IJsonSerializer_8hpp.html" target="_top" xlink:title=" ">
<polygon fill="white" stroke="#666666" points="1332.5,-138 1186,-138 1186,-118 1332.5,-118 1332.5,-138"/>
<text xml:space="preserve" text-anchor="middle" x="1259.25" y="-124.5" font-family="Helvetica,sans-Serif" font-size="10.00">Utils/Json/IJsonSerializer.hpp</text>
</a>
</g>
</g>
<!-- Node1&#45;&gt;Node18 -->
<g id="edge35_Node000001_Node000018" class="edge">
<title>Node1&#45;&gt;Node18</title>
<g id="a_edge35_Node000001_Node000018"><a xlink:title=" ">
<path fill="none" stroke="#63b8ff" d="M1109.91,-179.62C1139.69,-169.53 1187.31,-153.39 1220.75,-142.05"/>
<polygon fill="#63b8ff" stroke="#63b8ff" points="1221.72,-145.42 1230.06,-138.89 1219.47,-138.79 1221.72,-145.42"/>
</a>
</g>
</g>
<!-- Node19 -->
<g id="Node000019" class="node">
<title>Node19</title>
<g id="a_Node000019"><a xlink:href="ILogger_8hpp.html" target="_top" xlink:title=" ">
<polygon fill="white" stroke="#666666" points="1738.5,-76 1616,-76 1616,-56 1738.5,-56 1738.5,-76"/>
<text xml:space="preserve" text-anchor="middle" x="1677.25" y="-62.5" font-family="Helvetica,sans-Serif" font-size="10.00">Utils/Logger/ILogger.hpp</text>
</a>
</g>
</g>
<!-- Node1&#45;&gt;Node19 -->
<g id="edge40_Node000001_Node000019" class="edge">
<title>Node1&#45;&gt;Node19</title>
<g id="a_edge40_Node000001_Node000019"><a xlink:title=" ">
<path fill="none" stroke="#63b8ff" d="M1146.14,-189.14C1296.36,-188.82 1662.16,-183.89 1699.25,-144 1714.13,-128 1702.45,-102.62 1691.21,-85.42"/>
<polygon fill="#63b8ff" stroke="#63b8ff" points="1694.33,-83.77 1685.72,-77.6 1688.6,-87.79 1694.33,-83.77"/>
</a>
</g>
</g>
<!-- Node21 -->
<g id="Node000021" class="node">
<title>Node21</title>
<g id="a_Node000021"><a xlink:title=" ">
<polygon fill="#e0e0e0" stroke="#999999" points="1791.88,-20 1740.62,-20 1740.62,0 1791.88,0 1791.88,-20"/>
<text xml:space="preserve" text-anchor="middle" x="1766.25" y="-6.5" font-family="Helvetica,sans-Serif" font-size="10.00">memory</text>
</a>
</g>
</g>
<!-- Node1&#45;&gt;Node21 -->
<g id="edge60_Node000001_Node000021" class="edge">
<title>Node1&#45;&gt;Node21</title>
<g id="a_edge60_Node000001_Node000021"><a xlink:title=" ">
<path fill="none" stroke="#63b8ff" d="M1146.09,-187.82C1332.7,-184.05 1865.75,-170.95 1891.25,-144 1932.03,-100.89 1846.26,-49.69 1797.27,-25.29"/>
<polygon fill="#63b8ff" stroke="#63b8ff" points="1799.03,-22.26 1788.5,-21.03 1795.97,-28.55 1799.03,-22.26"/>
</a>
</g>
</g>
<!-- Node23 -->
<g id="Node000023" class="node">
<title>Node23</title>
<g id="a_Node000023"><a xlink:href="LoggerFactory_8hpp.html" target="_top" xlink:title=" ">
<polygon fill="white" stroke="#666666" points="1690.12,-138 1538.38,-138 1538.38,-118 1690.12,-118 1690.12,-138"/>
<text xml:space="preserve" text-anchor="middle" x="1614.25" y="-124.5" font-family="Helvetica,sans-Serif" font-size="10.00">Utils/Logger/LoggerFactory.hpp</text>
</a>
</g>
</g>
<!-- Node1&#45;&gt;Node23 -->
<g id="edge46_Node000001_Node000023" class="edge">
<title>Node1&#45;&gt;Node23</title>
<g id="a_edge46_Node000001_Node000023"><a xlink:title=" ">
<path fill="none" stroke="#63b8ff" d="M1146.08,-183.79C1232.14,-176.46 1390.08,-161.99 1524.25,-144 1532.55,-142.89 1541.25,-141.6 1549.85,-140.24"/>
<polygon fill="#63b8ff" stroke="#63b8ff" points="1550.22,-143.73 1559.54,-138.69 1549.11,-136.82 1550.22,-143.73"/>
</a>
</g>
</g>
<!-- Node24 -->
<g id="Node000024" class="node">
<title>Node24</title>
<g id="a_Node000024"><a xlink:href="NullLogger_8hpp.html" target="_top" xlink:title=" ">
<polygon fill="white" stroke="#666666" points="1882.62,-138 1745.88,-138 1745.88,-118 1882.62,-118 1882.62,-138"/>
<text xml:space="preserve" text-anchor="middle" x="1814.25" y="-124.5" font-family="Helvetica,sans-Serif" font-size="10.00">Utils/Logger/NullLogger.hpp</text>
</a>
</g>
</g>
<!-- Node1&#45;&gt;Node24 -->
<g id="edge50_Node000001_Node000024" class="edge">
<title>Node1&#45;&gt;Node24</title>
<g id="a_edge50_Node000001_Node000024"><a xlink:title=" ">
<path fill="none" stroke="#63b8ff" d="M1146.14,-186.95C1262.91,-182.67 1518.44,-170.87 1732.25,-144 1740.06,-143.02 1748.25,-141.78 1756.31,-140.43"/>
<polygon fill="#63b8ff" stroke="#63b8ff" points="1756.81,-143.9 1766.07,-138.73 1755.61,-137 1756.81,-143.9"/>
</a>
</g>
</g>
<!-- Node25 -->
<g id="Node000025" class="node">
<title>Node25</title>
<g id="a_Node000025"><a xlink:href="IPlatformInfo_8hpp.html" target="_top" xlink:title=" ">
<polygon fill="white" stroke="#666666" points="265.62,-144 146.88,-144 146.88,-112 265.62,-112 265.62,-144"/>
<text xml:space="preserve" text-anchor="start" x="154.88" y="-130.5" font-family="Helvetica,sans-Serif" font-size="10.00">Utils/Platform/IPlatform</text>
<text xml:space="preserve" text-anchor="middle" x="206.25" y="-118.5" font-family="Helvetica,sans-Serif" font-size="10.00">Info.hpp</text>
</a>
</g>
</g>
<!-- Node1&#45;&gt;Node25 -->
<g id="edge52_Node000001_Node000025" class="edge">
<title>Node1&#45;&gt;Node25</title>
<g id="a_edge52_Node000001_Node000025"><a xlink:title=" ">
<path fill="none" stroke="#63b8ff" d="M1018.28,-188.94C883.03,-188.04 558.04,-181.91 277.09,-144.25"/>
<polygon fill="#63b8ff" stroke="#63b8ff" points="277.74,-140.8 267.36,-142.92 276.79,-147.74 277.74,-140.8"/>
</a>
</g>
</g>
<!-- Node26 -->
<g id="Node000026" class="node">
<title>Node26</title>
<g id="a_Node000026"><a xlink:href="IStringFormatter_8hpp.html" target="_top" xlink:title=" ">
<polygon fill="white" stroke="#666666" points="1559.75,-76 1402.75,-76 1402.75,-56 1559.75,-56 1559.75,-76"/>
<text xml:space="preserve" text-anchor="middle" x="1481.25" y="-62.5" font-family="Helvetica,sans-Serif" font-size="10.00">Utils/String/IStringFormatter.hpp</text>
</a>
</g>
</g>
<!-- Node1&#45;&gt;Node26 -->
<g id="edge57_Node000001_Node000026" class="edge">
<title>Node1&#45;&gt;Node26</title>
<g id="a_edge57_Node000001_Node000026"><a xlink:title=" ">
<path fill="none" stroke="#63b8ff" d="M1146.14,-186.57C1255.41,-181.75 1468.67,-169.2 1491.25,-144 1505.12,-128.52 1498.65,-103.74 1491.31,-86.49"/>
<polygon fill="#63b8ff" stroke="#63b8ff" points="1494.64,-85.34 1487.22,-77.79 1488.31,-88.33 1494.64,-85.34"/>
</a>
</g>
</g>
<!-- Node3&#45;&gt;Node4 -->
<g id="edge3_Node000003_Node000004" class="edge">
<title>Node3&#45;&gt;Node4</title>
<g id="a_edge3_Node000003_Node000004"><a xlink:title=" ">
<path fill="none" stroke="#63b8ff" d="M597.47,-117.62C617.42,-107.89 648.87,-92.55 671.92,-81.31"/>
<polygon fill="#63b8ff" stroke="#63b8ff" points="673.35,-84.5 680.81,-76.97 670.28,-78.21 673.35,-84.5"/>
</a>
</g>
</g>
<!-- Node5&#45;&gt;Node4 -->
<g id="edge11_Node000005_Node000004" class="edge">
<title>Node5&#45;&gt;Node4</title>
<g id="a_edge11_Node000005_Node000004"><a xlink:title=" ">
<path fill="none" stroke="#63b8ff" d="M730.95,-111.55C725.74,-103.74 719.37,-94.19 713.87,-85.94"/>
<polygon fill="#63b8ff" stroke="#63b8ff" points="716.82,-84.05 708.36,-77.67 711,-87.93 716.82,-84.05"/>
</a>
</g>
</g>
<!-- Node6 -->
<g id="Node000006" class="node">
<title>Node6</title>
<g id="a_Node000006"><a xlink:href="UtilsError_8hpp.html" target="_top" xlink:title=" ">
<polygon fill="white" stroke="#666666" points="1047.88,-76 948.62,-76 948.62,-56 1047.88,-56 1047.88,-76"/>
<text xml:space="preserve" text-anchor="middle" x="998.25" y="-62.5" font-family="Helvetica,sans-Serif" font-size="10.00">Utils/UtilsError.hpp</text>
</a>
</g>
</g>
<!-- Node5&#45;&gt;Node6 -->
<g id="edge5_Node000005_Node000006" class="edge">
<title>Node5&#45;&gt;Node6</title>
<g id="a_edge5_Node000005_Node000006"><a xlink:title=" ">
<path fill="none" stroke="#63b8ff" d="M807.43,-111.55C850.71,-101.45 906.42,-88.44 946.46,-79.09"/>
<polygon fill="#63b8ff" stroke="#63b8ff" points="947.16,-82.52 956.1,-76.84 945.57,-75.71 947.16,-82.52"/>
</a>
</g>
</g>
<!-- Node12 -->
<g id="Node000012" class="node">
<title>Node12</title>
<g id="a_Node000012"><a xlink:title=" ">
<polygon fill="#e0e0e0" stroke="#999999" points="801.75,-76 758.75,-76 758.75,-56 801.75,-56 801.75,-76"/>
<text xml:space="preserve" text-anchor="middle" x="780.25" y="-62.5" font-family="Helvetica,sans-Serif" font-size="10.00">vector</text>
</a>
</g>
</g>
<!-- Node5&#45;&gt;Node12 -->
<g id="edge12_Node000005_Node000012" class="edge">
<title>Node5&#45;&gt;Node12</title>
<g id="a_edge12_Node000005_Node000012"><a xlink:title=" ">
<path fill="none" stroke="#63b8ff" d="M751.29,-111.55C756.37,-103.74 762.58,-94.19 767.94,-85.94"/>
<polygon fill="#63b8ff" stroke="#63b8ff" points="770.79,-87.97 773.31,-77.68 764.93,-84.15 770.79,-87.97"/>
</a>
</g>
</g>
<!-- Node7 -->
<g id="Node000007" class="node">
<title>Node7</title>
<g id="a_Node000007"><a xlink:title=" ">
<polygon fill="#e0e0e0" stroke="#999999" points="924.88,-20 879.62,-20 879.62,0 924.88,0 924.88,-20"/>
<text xml:space="preserve" text-anchor="middle" x="902.25" y="-6.5" font-family="Helvetica,sans-Serif" font-size="10.00">cstdint</text>
</a>
</g>
</g>
<!-- Node6&#45;&gt;Node7 -->
<g id="edge6_Node000006_Node000007" class="edge">
<title>Node6&#45;&gt;Node7</title>
<g id="a_edge6_Node000006_Node000007"><a xlink:title=" ">
<path fill="none" stroke="#63b8ff" d="M981.53,-55.59C967.03,-47.44 945.78,-35.48 928.93,-26"/>
<polygon fill="#63b8ff" stroke="#63b8ff" points="930.85,-23.07 920.42,-21.22 927.42,-29.17 930.85,-23.07"/>
</a>
</g>
</g>
<!-- Node8 -->
<g id="Node000008" class="node">
<title>Node8</title>
<g id="a_Node000008"><a xlink:title=" ">
<polygon fill="#e0e0e0" stroke="#999999" points="1141.12,-20 1091.38,-20 1091.38,0 1141.12,0 1141.12,-20"/>
<text xml:space="preserve" text-anchor="middle" x="1116.25" y="-6.5" font-family="Helvetica,sans-Serif" font-size="10.00">optional</text>
</a>
</g>
</g>
<!-- Node6&#45;&gt;Node8 -->
<g id="edge7_Node000006_Node000008" class="edge">
<title>Node6&#45;&gt;Node8</title>
<g id="a_edge7_Node000006_Node000008"><a xlink:title=" ">
<path fill="none" stroke="#63b8ff" d="M1018.8,-55.59C1037.13,-47.21 1064.24,-34.8 1085.21,-25.21"/>
<polygon fill="#63b8ff" stroke="#63b8ff" points="1086.52,-28.45 1094.16,-21.11 1083.61,-22.09 1086.52,-28.45"/>
</a>
</g>
</g>
<!-- Node9 -->
<g id="Node000009" class="node">
<title>Node9</title>
<g id="a_Node000009"><a xlink:title=" ">
<polygon fill="#e0e0e0" stroke="#999999" points="1006.62,-20 947.88,-20 947.88,0 1006.62,0 1006.62,-20"/>
<text xml:space="preserve" text-anchor="middle" x="977.25" y="-6.5" font-family="Helvetica,sans-Serif" font-size="10.00">stdexcept</text>
</a>
</g>
</g>
<!-- Node6&#45;&gt;Node9 -->
<g id="edge8_Node000006_Node000009" class="edge">
<title>Node6&#45;&gt;Node9</title>
<g id="a_edge8_Node000006_Node000009"><a xlink:title=" ">
<path fill="none" stroke="#63b8ff" d="M994.59,-55.59C991.94,-48.78 988.26,-39.32 984.97,-30.86"/>
<polygon fill="#63b8ff" stroke="#63b8ff" points="988.3,-29.76 981.41,-21.71 981.78,-32.3 988.3,-29.76"/>
</a>
</g>
</g>
<!-- Node10 -->
<g id="Node000010" class="node">
<title>Node10</title>
<g id="a_Node000010"><a xlink:title=" ">
<polygon fill="#e0e0e0" stroke="#999999" points="1200.25,-20 1160.25,-20 1160.25,0 1200.25,0 1200.25,-20"/>
<text xml:space="preserve" text-anchor="middle" x="1180.25" y="-6.5" font-family="Helvetica,sans-Serif" font-size="10.00">string</text>
</a>
</g>
</g>
<!-- Node6&#45;&gt;Node10 -->
<g id="edge9_Node000006_Node000010" class="edge">
<title>Node6&#45;&gt;Node10</title>
<g id="a_edge9_Node000006_Node000010"><a xlink:title=" ">
<path fill="none" stroke="#63b8ff" d="M1030.29,-55.55C1058.83,-47.13 1102.02,-34.36 1148.9,-20.39"/>
<polygon fill="#63b8ff" stroke="#63b8ff" points="1149.89,-23.75 1158.47,-17.54 1147.89,-17.04 1149.89,-23.75"/>
</a>
</g>
</g>
<!-- Node11 -->
<g id="Node000011" class="node">
<title>Node11</title>
<g id="a_Node000011"><a xlink:title=" ">
<polygon fill="#e0e0e0" stroke="#999999" points="1069.88,-20 1024.62,-20 1024.62,0 1069.88,0 1069.88,-20"/>
<text xml:space="preserve" text-anchor="middle" x="1047.25" y="-6.5" font-family="Helvetica,sans-Serif" font-size="10.00">variant</text>
</a>
</g>
</g>
<!-- Node6&#45;&gt;Node11 -->
<g id="edge10_Node000006_Node000011" class="edge">
<title>Node6&#45;&gt;Node11</title>
<g id="a_edge10_Node000006_Node000011"><a xlink:title=" ">
<path fill="none" stroke="#63b8ff" d="M1006.79,-55.59C1013.53,-48.16 1023.14,-37.58 1031.29,-28.58"/>
<polygon fill="#63b8ff" stroke="#63b8ff" points="1033.67,-31.18 1037.8,-21.42 1028.48,-26.47 1033.67,-31.18"/>
</a>
</g>
</g>
<!-- Node13&#45;&gt;Node4 -->
<g id="edge16_Node000013_Node000004" class="edge">
<title>Node13&#45;&gt;Node4</title>
<g id="a_edge16_Node000013_Node000004"><a xlink:title=" ">
<path fill="none" stroke="#63b8ff" d="M416.43,-117.56C483.68,-105.62 598.05,-85.32 659.41,-74.43"/>
<polygon fill="#63b8ff" stroke="#63b8ff" points="659.86,-77.9 669.09,-72.71 658.64,-71.01 659.86,-77.9"/>
</a>
</g>
</g>
<!-- Node13&#45;&gt;Node6 -->
<g id="edge14_Node000013_Node000006" class="edge">
<title>Node13&#45;&gt;Node6</title>
<g id="a_edge14_Node000013_Node000006"><a xlink:title=" ">
<path fill="none" stroke="#63b8ff" d="M440.44,-117.52C456.87,-115.6 474.13,-113.67 490.25,-112 651.31,-95.36 841.49,-79.53 937,-71.84"/>
<polygon fill="#63b8ff" stroke="#63b8ff" points="937.25,-75.34 946.94,-71.05 936.69,-68.36 937.25,-75.34"/>
</a>
</g>
</g>
<!-- Node13&#45;&gt;Node7 -->
<g id="edge15_Node000013_Node000007" class="edge">
<title>Node13&#45;&gt;Node7</title>
<g id="a_edge15_Node000013_Node000007"><a xlink:title=" ">
<path fill="none" stroke="#63b8ff" d="M391.47,-117.61C437.04,-102.75 529.85,-73.68 610.25,-56 702.66,-35.68 813.51,-21.28 868.24,-14.82"/>
<polygon fill="#63b8ff" stroke="#63b8ff" points="868.32,-18.33 877.85,-13.7 867.51,-11.38 868.32,-18.33"/>
</a>
</g>
</g>
<!-- Node13&#45;&gt;Node10 -->
<g id="edge17_Node000013_Node000010" class="edge">
<title>Node13&#45;&gt;Node10</title>
<g id="a_edge17_Node000013_Node000010"><a xlink:title=" ">
<path fill="none" stroke="#63b8ff" d="M399.82,-117.51C467.66,-100.03 610.66,-63.84 661.25,-56 873.03,-23.19 933.93,-58.34 1149.04,-19.73"/>
<polygon fill="#63b8ff" stroke="#63b8ff" points="1149.37,-23.22 1158.57,-17.98 1148.11,-16.34 1149.37,-23.22"/>
</a>
</g>
</g>
<!-- Node13&#45;&gt;Node12 -->
<g id="edge18_Node000013_Node000012" class="edge">
<title>Node13&#45;&gt;Node12</title>
<g id="a_edge18_Node000013_Node000012"><a xlink:title=" ">
<path fill="none" stroke="#63b8ff" d="M439.73,-117.53C532.97,-105.84 685.06,-86.25 741.25,-76 743.26,-75.63 745.33,-75.23 747.41,-74.81"/>
<polygon fill="#63b8ff" stroke="#63b8ff" points="747.95,-78.27 756.98,-72.73 746.47,-71.43 747.95,-78.27"/>
</a>
</g>
</g>
<!-- Node14&#45;&gt;Node4 -->
<g id="edge22_Node000014_Node000004" class="edge">
<title>Node14&#45;&gt;Node4</title>
<g id="a_edge22_Node000014_Node000004"><a xlink:title=" ">
<path fill="none" stroke="#63b8ff" d="M870.84,-117.62C836.37,-107.34 780.89,-90.77 742.83,-79.41"/>
<polygon fill="#63b8ff" stroke="#63b8ff" points="744.14,-76.15 733.56,-76.64 742.14,-82.86 744.14,-76.15"/>
</a>
</g>
</g>
<!-- Node14&#45;&gt;Node6 -->
<g id="edge20_Node000014_Node000006" class="edge">
<title>Node14&#45;&gt;Node6</title>
<g id="a_edge20_Node000014_Node000006"><a xlink:title=" ">
<path fill="none" stroke="#63b8ff" d="M917.25,-117.62C932.33,-108.2 955.82,-93.52 973.63,-82.39"/>
<polygon fill="#63b8ff" stroke="#63b8ff" points="975.45,-85.38 982.07,-77.11 971.74,-79.44 975.45,-85.38"/>
</a>
</g>
</g>
<!-- Node14&#45;&gt;Node7 -->
<g id="edge21_Node000014_Node000007" class="edge">
<title>Node14&#45;&gt;Node7</title>
<g id="a_edge21_Node000014_Node000007"><a xlink:title=" ">
<path fill="none" stroke="#63b8ff" d="M902.25,-117.51C902.25,-98.81 902.25,-56.82 902.25,-31.51"/>
<polygon fill="#63b8ff" stroke="#63b8ff" points="905.75,-31.81 902.25,-21.81 898.75,-31.81 905.75,-31.81"/>
</a>
</g>
</g>
<!-- Node14&#45;&gt;Node10 -->
<g id="edge23_Node000014_Node000010" class="edge">
<title>Node14&#45;&gt;Node10</title>
<g id="a_edge23_Node000014_Node000010"><a xlink:title=" ">
<path fill="none" stroke="#63b8ff" d="M936.42,-117.56C968.23,-108.35 1016.71,-93.24 1057.25,-76 1092.1,-61.18 1130.4,-40.13 1154.85,-26.04"/>
<polygon fill="#63b8ff" stroke="#63b8ff" points="1156.55,-29.1 1163.44,-21.05 1153.03,-23.05 1156.55,-29.1"/>
</a>
</g>
</g>
<!-- Node14&#45;&gt;Node12 -->
<g id="edge24_Node000014_Node000012" class="edge">
<title>Node14&#45;&gt;Node12</title>
<g id="a_edge24_Node000014_Node000012"><a xlink:title=" ">
<path fill="none" stroke="#63b8ff" d="M883.19,-117.62C863.4,-107.89 832.21,-92.55 809.34,-81.31"/>
<polygon fill="#63b8ff" stroke="#63b8ff" points="811.05,-78.25 800.54,-76.98 807.97,-84.53 811.05,-78.25"/>
</a>
</g>
</g>
<!-- Node15&#45;&gt;Node4 -->
<g id="edge27_Node000015_Node000004" class="edge">
<title>Node15&#45;&gt;Node4</title>
<g id="a_edge27_Node000015_Node000004"><a xlink:title=" ">
<path fill="none" stroke="#63b8ff" d="M1023.34,-117.52C1011.71,-115.68 999.6,-113.76 988.25,-112 882.54,-95.57 855.76,-93.67 750.25,-76 747.95,-75.62 745.59,-75.21 743.21,-74.8"/>
<polygon fill="#63b8ff" stroke="#63b8ff" points="744.02,-71.39 733.56,-73.08 742.79,-78.28 744.02,-71.39"/>
</a>
</g>
</g>
<!-- Node15&#45;&gt;Node6 -->
<g id="edge26_Node000015_Node000006" class="edge">
<title>Node15&#45;&gt;Node6</title>
<g id="a_edge26_Node000015_Node000006"><a xlink:title=" ">
<path fill="none" stroke="#63b8ff" d="M1069.12,-117.62C1056.06,-108.29 1035.76,-93.79 1020.23,-82.7"/>
<polygon fill="#63b8ff" stroke="#63b8ff" points="1022.69,-80.15 1012.51,-77.19 1018.62,-85.85 1022.69,-80.15"/>
</a>
</g>
</g>
<!-- Node15&#45;&gt;Node10 -->
<g id="edge28_Node000015_Node000010" class="edge">
<title>Node15&#45;&gt;Node10</title>
<g id="a_edge28_Node000015_Node000010"><a xlink:title=" ">
<path fill="none" stroke="#63b8ff" d="M1090.27,-117.51C1106.65,-98.12 1144.16,-53.72 1165.21,-28.8"/>
<polygon fill="#63b8ff" stroke="#63b8ff" points="1167.64,-31.35 1171.42,-21.46 1162.29,-26.84 1167.64,-31.35"/>
</a>
</g>
</g>
<!-- Node15&#45;&gt;Node12 -->
<g id="edge29_Node000015_Node000012" class="edge">
<title>Node15&#45;&gt;Node12</title>
<g id="a_edge29_Node000015_Node000012"><a xlink:title=" ">
<path fill="none" stroke="#63b8ff" d="M1034.73,-117.56C972.96,-105.29 866.67,-84.17 813.12,-73.53"/>
<polygon fill="#63b8ff" stroke="#63b8ff" points="813.89,-70.12 803.4,-71.6 812.53,-76.98 813.89,-70.12"/>
</a>
</g>
</g>
<!-- Node16&#45;&gt;Node6 -->
<g id="edge31_Node000016_Node000006" class="edge">
<title>Node16&#45;&gt;Node6</title>
<g id="a_edge31_Node000016_Node000006"><a xlink:title=" ">
<path fill="none" stroke="#63b8ff" d="M1350.04,-113.51C1347.07,-112.98 1344.13,-112.48 1341.25,-112 1242.88,-95.73 1127.86,-81.64 1059.14,-73.74"/>
<polygon fill="#63b8ff" stroke="#63b8ff" points="1059.94,-70.31 1049.61,-72.65 1059.15,-77.26 1059.94,-70.31"/>
</a>
</g>
</g>
<!-- Node16&#45;&gt;Node8 -->
<g id="edge33_Node000016_Node000008" class="edge">
<title>Node16&#45;&gt;Node8</title>
<g id="a_edge33_Node000016_Node000008"><a xlink:title=" ">
<path fill="none" stroke="#63b8ff" d="M1397.05,-111.79C1373.3,-93.24 1333.97,-63.42 1317.25,-56 1251.35,-26.74 1226.92,-36.41 1152.32,-20.09"/>
<polygon fill="#63b8ff" stroke="#63b8ff" points="1153.46,-16.76 1142.93,-17.94 1151.9,-23.58 1153.46,-16.76"/>
</a>
</g>
</g>
<!-- Node16&#45;&gt;Node10 -->
<g id="edge34_Node000016_Node000010" class="edge">
<title>Node16&#45;&gt;Node10</title>
<g id="a_edge34_Node000016_Node000010"><a xlink:title=" ">
<path fill="none" stroke="#63b8ff" d="M1405.98,-111.58C1394.35,-95.34 1373.92,-70.2 1350.25,-56 1306.5,-29.76 1247.43,-18.6 1211.68,-14.02"/>
<polygon fill="#63b8ff" stroke="#63b8ff" points="1212.35,-10.57 1202.01,-12.88 1211.53,-17.52 1212.35,-10.57"/>
</a>
</g>
</g>
<!-- Node17 -->
<g id="Node000017" class="node">
<title>Node17</title>
<g id="a_Node000017"><a xlink:title=" ">
<polygon fill="#e0e0e0" stroke="#999999" points="1308.12,-76 1210.38,-76 1210.38,-56 1308.12,-56 1308.12,-76"/>
<text xml:space="preserve" text-anchor="middle" x="1259.25" y="-62.5" font-family="Helvetica,sans-Serif" font-size="10.00">nlohmann/json.hpp</text>
</a>
</g>
</g>
<!-- Node16&#45;&gt;Node17 -->
<g id="edge32_Node000016_Node000017" class="edge">
<title>Node16&#45;&gt;Node17</title>
<g id="a_edge32_Node000016_Node000017"><a xlink:title=" ">
<path fill="none" stroke="#63b8ff" d="M1375.82,-111.55C1350.61,-101.91 1318.48,-89.64 1294.34,-80.41"/>
<polygon fill="#63b8ff" stroke="#63b8ff" points="1295.87,-77.25 1285.28,-76.95 1293.37,-83.79 1295.87,-77.25"/>
</a>
</g>
</g>
<!-- Node18&#45;&gt;Node4 -->
<g id="edge37_Node000018_Node000004" class="edge">
<title>Node18&#45;&gt;Node4</title>
<g id="a_edge37_Node000018_Node000004"><a xlink:title=" ">
<path fill="none" stroke="#63b8ff" d="M1212.11,-117.57C1200.73,-115.52 1188.58,-113.51 1177.25,-112 988.47,-86.84 939.02,-101.23 750.25,-76 747.94,-75.69 745.57,-75.35 743.19,-74.98"/>
<polygon fill="#63b8ff" stroke="#63b8ff" points="743.95,-71.56 733.51,-73.37 742.81,-78.46 743.95,-71.56"/>
</a>
</g>
</g>
<!-- Node18&#45;&gt;Node6 -->
<g id="edge36_Node000018_Node000006" class="edge">
<title>Node18&#45;&gt;Node6</title>
<g id="a_edge36_Node000018_Node000006"><a xlink:title=" ">
<path fill="none" stroke="#63b8ff" d="M1218.18,-117.56C1172.9,-107.15 1099.94,-90.38 1050.59,-79.03"/>
<polygon fill="#63b8ff" stroke="#63b8ff" points="1051.51,-75.65 1040.98,-76.82 1049.95,-82.48 1051.51,-75.65"/>
</a>
</g>
</g>
<!-- Node18&#45;&gt;Node10 -->
<g id="edge39_Node000018_Node000010" class="edge">
<title>Node18&#45;&gt;Node10</title>
<g id="a_edge39_Node000018_Node000010"><a xlink:title=" ">
<path fill="none" stroke="#63b8ff" d="M1244.62,-117.56C1231.51,-108.4 1212.66,-93.37 1201.25,-76 1192.28,-62.34 1186.88,-44.55 1183.81,-31.03"/>
<polygon fill="#63b8ff" stroke="#63b8ff" points="1187.31,-30.67 1181.9,-21.55 1180.44,-32.04 1187.31,-30.67"/>
</a>
</g>
</g>
<!-- Node18&#45;&gt;Node17 -->
<g id="edge38_Node000018_Node000017" class="edge">
<title>Node18&#45;&gt;Node17</title>
<g id="a_edge38_Node000018_Node000017"><a xlink:title=" ">
<path fill="none" stroke="#63b8ff" d="M1259.25,-117.62C1259.25,-109.56 1259.25,-97.65 1259.25,-87.41"/>
<polygon fill="#63b8ff" stroke="#63b8ff" points="1262.75,-87.63 1259.25,-77.63 1255.75,-87.63 1262.75,-87.63"/>
</a>
</g>
</g>
<!-- Node19&#45;&gt;Node7 -->
<g id="edge42_Node000019_Node000007" class="edge">
<title>Node19&#45;&gt;Node7</title>
<g id="a_edge42_Node000019_Node000007"><a xlink:title=" ">
<path fill="none" stroke="#63b8ff" d="M1615.59,-59.58C1600.44,-58.33 1584.27,-57.05 1569.25,-56 1289.48,-36.35 1216.65,-61.31 939.25,-20 938.25,-19.85 937.23,-19.69 936.21,-19.51"/>
<polygon fill="#63b8ff" stroke="#63b8ff" points="937.2,-16.14 926.7,-17.57 935.8,-23 937.2,-16.14"/>
</a>
</g>
</g>
<!-- Node19&#45;&gt;Node10 -->
<g id="edge45_Node000019_Node000010" class="edge">
<title>Node19&#45;&gt;Node10</title>
<g id="a_edge45_Node000019_Node000010"><a xlink:title=" ">
<path fill="none" stroke="#63b8ff" d="M1615.86,-57.57C1611.26,-57.03 1606.68,-56.5 1602.25,-56 1456.22,-39.45 1281.57,-21.37 1211.54,-14.19"/>
<polygon fill="#63b8ff" stroke="#63b8ff" points="1212.27,-10.75 1201.97,-13.21 1211.56,-17.71 1212.27,-10.75"/>
</a>
</g>
</g>
<!-- Node20 -->
<g id="Node000020" class="node">
<title>Node20</title>
<g id="a_Node000020"><a xlink:title=" ">
<polygon fill="#e0e0e0" stroke="#999999" points="1643.38,-20 1583.12,-20 1583.12,0 1643.38,0 1643.38,-20"/>
<text xml:space="preserve" text-anchor="middle" x="1613.25" y="-6.5" font-family="Helvetica,sans-Serif" font-size="10.00">fmt/core.h</text>
</a>
</g>
</g>
<!-- Node19&#45;&gt;Node20 -->
<g id="edge41_Node000019_Node000020" class="edge">
<title>Node19&#45;&gt;Node20</title>
<g id="a_edge41_Node000019_Node000020"><a xlink:title=" ">
<path fill="none" stroke="#63b8ff" d="M1666.1,-55.59C1656.92,-47.85 1643.7,-36.69 1632.77,-27.47"/>
<polygon fill="#63b8ff" stroke="#63b8ff" points="1635.33,-25.05 1625.43,-21.27 1630.81,-30.4 1635.33,-25.05"/>
</a>
</g>
</g>
<!-- Node19&#45;&gt;Node21 -->
<g id="edge43_Node000019_Node000021" class="edge">
<title>Node19&#45;&gt;Node21</title>
<g id="a_edge43_Node000019_Node000021"><a xlink:title=" ">
<path fill="none" stroke="#63b8ff" d="M1692.75,-55.59C1706.07,-47.51 1725.53,-35.71 1741.08,-26.27"/>
<polygon fill="#63b8ff" stroke="#63b8ff" points="1742.6,-29.44 1749.33,-21.26 1738.97,-23.46 1742.6,-29.44"/>
</a>
</g>
</g>
<!-- Node22 -->
<g id="Node000022" class="node">
<title>Node22</title>
<g id="a_Node000022"><a xlink:title=" ">
<polygon fill="#e0e0e0" stroke="#999999" points="1712.88,-20 1661.62,-20 1661.62,0 1712.88,0 1712.88,-20"/>
<text xml:space="preserve" text-anchor="middle" x="1687.25" y="-6.5" font-family="Helvetica,sans-Serif" font-size="10.00">sstream</text>
</a>
</g>
</g>
<!-- Node19&#45;&gt;Node22 -->
<g id="edge44_Node000019_Node000022" class="edge">
<title>Node19&#45;&gt;Node22</title>
<g id="a_edge44_Node000019_Node000022"><a xlink:title=" ">
<path fill="none" stroke="#63b8ff" d="M1678.99,-55.59C1680.23,-48.93 1681.93,-39.75 1683.46,-31.44"/>
<polygon fill="#63b8ff" stroke="#63b8ff" points="1686.87,-32.26 1685.25,-21.79 1679.99,-30.98 1686.87,-32.26"/>
</a>
</g>
</g>
<!-- Node23&#45;&gt;Node10 -->
<g id="edge48_Node000023_Node000010" class="edge">
<title>Node23&#45;&gt;Node10</title>
<g id="a_edge48_Node000023_Node000010"><a xlink:title=" ">
<path fill="none" stroke="#63b8ff" d="M1611.33,-117.72C1605.86,-102.04 1592.49,-70.59 1569.25,-56 1509.9,-18.75 1293.9,-12.31 1212.02,-11.22"/>
<polygon fill="#63b8ff" stroke="#63b8ff" points="1212.28,-7.72 1202.24,-11.11 1212.2,-14.72 1212.28,-7.72"/>
</a>
</g>
</g>
<!-- Node23&#45;&gt;Node19 -->
<g id="edge49_Node000023_Node000019" class="edge">
<title>Node23&#45;&gt;Node19</title>
<g id="a_edge49_Node000023_Node000019"><a xlink:title=" ">
<path fill="none" stroke="#63b8ff" d="M1624.09,-117.62C1633.58,-108.59 1648.15,-94.72 1659.63,-83.78"/>
<polygon fill="#63b8ff" stroke="#63b8ff" points="1661.76,-86.59 1666.59,-77.16 1656.93,-81.52 1661.76,-86.59"/>
</a>
</g>
</g>
<!-- Node23&#45;&gt;Node21 -->
<g id="edge47_Node000023_Node000021" class="edge">
<title>Node23&#45;&gt;Node21</title>
<g id="a_edge47_Node000023_Node000021"><a xlink:title=" ">
<path fill="none" stroke="#63b8ff" d="M1670.28,-117.5C1696.91,-110.29 1727.23,-97.73 1747.25,-76 1758.46,-63.83 1763.09,-45.39 1764.98,-31.26"/>
<polygon fill="#63b8ff" stroke="#63b8ff" points="1768.43,-32 1765.9,-21.72 1761.46,-31.34 1768.43,-32"/>
</a>
</g>
</g>
<!-- Node24&#45;&gt;Node19 -->
<g id="edge51_Node000024_Node000019" class="edge">
<title>Node24&#45;&gt;Node19</title>
<g id="a_edge51_Node000024_Node000019"><a xlink:title=" ">
<path fill="none" stroke="#63b8ff" d="M1792.84,-117.62C1770.32,-107.76 1734.64,-92.13 1708.87,-80.85"/>
<polygon fill="#63b8ff" stroke="#63b8ff" points="1710.46,-77.72 1699.89,-76.92 1707.65,-84.13 1710.46,-77.72"/>
</a>
</g>
</g>
<!-- Node25&#45;&gt;Node4 -->
<g id="edge55_Node000025_Node000004" class="edge">
<title>Node25&#45;&gt;Node4</title>
<g id="a_edge55_Node000025_Node000004"><a xlink:title=" ">
<path fill="none" stroke="#63b8ff" d="M265.88,-113.45C268.71,-112.93 271.51,-112.45 274.25,-112 414.4,-89.23 582.38,-75.43 659.19,-69.86"/>
<polygon fill="#63b8ff" stroke="#63b8ff" points="659.05,-73.38 668.77,-69.18 658.55,-66.4 659.05,-73.38"/>
</a>
</g>
</g>
<!-- Node25&#45;&gt;Node6 -->
<g id="edge53_Node000025_Node000006" class="edge">
<title>Node25&#45;&gt;Node6</title>
<g id="a_edge53_Node000025_Node000006"><a xlink:title=" ">
<path fill="none" stroke="#63b8ff" d="M265.86,-113.3C268.69,-112.83 271.5,-112.39 274.25,-112 338.95,-102.91 774.5,-78.99 937.15,-70.25"/>
<polygon fill="#63b8ff" stroke="#63b8ff" points="937.07,-73.76 946.87,-69.73 936.7,-66.77 937.07,-73.76"/>
</a>
</g>
</g>
<!-- Node25&#45;&gt;Node7 -->
<g id="edge54_Node000025_Node000007" class="edge">
<title>Node25&#45;&gt;Node7</title>
<g id="a_edge54_Node000025_Node000007"><a xlink:title=" ">
<path fill="none" stroke="#63b8ff" d="M265.95,-113.82C268.76,-113.21 271.53,-112.6 274.25,-112 388.44,-86.96 415.99,-75.5 531.25,-56 654.41,-35.16 802.15,-20.22 867.84,-14.08"/>
<polygon fill="#63b8ff" stroke="#63b8ff" points="867.99,-17.59 877.62,-13.18 867.34,-10.62 867.99,-17.59"/>
</a>
</g>
</g>
<!-- Node25&#45;&gt;Node10 -->
<g id="edge56_Node000025_Node000010" class="edge">
<title>Node25&#45;&gt;Node10</title>
<g id="a_edge56_Node000025_Node000010"><a xlink:title=" ">
<path fill="none" stroke="#63b8ff" d="M265.92,-113.64C268.73,-113.08 271.52,-112.52 274.25,-112 371.55,-93.32 397.57,-97.65 494.25,-76 525.82,-68.93 532.36,-61.47 564.25,-56 817.79,-12.52 891.29,-64.29 1148.86,-19.72"/>
<polygon fill="#63b8ff" stroke="#63b8ff" points="1149.34,-23.19 1158.58,-18 1148.12,-16.3 1149.34,-23.19"/>
</a>
</g>
</g>
<!-- Node26&#45;&gt;Node10 -->
<g id="edge58_Node000026_Node000010" class="edge">
<title>Node26&#45;&gt;Node10</title>
<g id="a_edge58_Node000026_Node000010"><a xlink:title=" ">
<path fill="none" stroke="#63b8ff" d="M1428.48,-55.53C1365.75,-44.28 1263.13,-25.87 1211.7,-16.64"/>
<polygon fill="#63b8ff" stroke="#63b8ff" points="1212.61,-13.25 1202.15,-14.93 1211.37,-20.14 1212.61,-13.25"/>
</a>
</g>
</g>
</g>
</svg>

<g id="navigator" transform="translate(0 0)" fill="#404254">
  <rect fill="#f2f5e9" fill-opacity="0.5" stroke="#606060" stroke-width=".5" x="0" y="0" width="60" height="60"/>
  <use id="zoomplus" xlink:href="#zoomPlus" x="17" y="9" onmousedown="handleZoom(evt,'in')"/>
  <use id="zoomminus" xlink:href="#zoomMin" x="42" y="9" onmousedown="handleZoom(evt,'out')"/>
  <use id="reset" xlink:href="#resetDef" x="30" y="36" onmousedown="handleReset()"/>
   <use id="arrowup" xlink:href="#arrowUp" x="0" y="0" onmousedown="handlePan(0,-1)"/>
  <use id="arrowright" xlink:href="#arrowRight" x="0" y="0" onmousedown="handlePan(1,0)"/>
  <use id="arrowdown" xlink:href="#arrowDown" x="0" y="0" onmousedown="handlePan(0,1)"/>
  <use id="arrowleft" xlink:href="#arrowLeft" x="0" y="0" onmousedown="handlePan(-1,0)"/>
</g>
<svg viewBox="0 0 15 15" width="100%" height="30px" preserveAspectRatio="xMaxYMin meet">
 <g id="arrow_out" transform="scale(0.3 0.3)">
  <a xlink:href="UtilsFactory_8hpp__incl_org.svg" target="_base">
   <rect id="button" ry="5" rx="5" y="6" x="6" height="38" width="38"
        fill="#f2f5e9" fill-opacity="0.5" stroke="#606060" stroke-width="1.0"/>
   <path id="arrow"
     d="M 11.500037,31.436501 C 11.940474,20.09759 22.043105,11.32322 32.158766,21.979434 L 37.068811,17.246167 C 37.068811,17.246167 37.088388,32 37.088388,32 L 22.160133,31.978069 C 22.160133,31.978069 26.997745,27.140456 26.997745,27.140456 C 18.528582,18.264221 13.291696,25.230495 11.500037,31.436501 z"
     style="fill:#404040;"/>
  </a>
 </g>
</svg>

<style type='text/css'>
<![CDATA[
[data-mouse-over-selected='false'] { opacity: 0.7; }
[data-mouse-over-selected='true']  { opacity: 1.0; }
]]>
</style>
<script type="application/ecmascript"><![CDATA[
document.addEventListener('DOMContentLoaded', (event) => {
  highlightEdges();
  highlightAdjacentNodes();
});
]]></script>
</svg>
