<?xml version="1.0" encoding="UTF-8" standalone="no"?>
<!DOCTYPE svg PUBLIC "-//W3C//DTD SVG 1.1//EN"
 "http://www.w3.org/Graphics/SVG/1.1/DTD/svg11.dtd">
<!-- Generated by graphviz version 13.1.2 (20250808.2320)
 -->
<!-- Title: src/Utils/UtilsError.hpp Pages: 1 -->
<!--zoomable 288 -->

<svg id="main" version="1.1" xmlns="http://www.w3.org/2000/svg" xmlns:xlink="http://www.w3.org/1999/xlink" xml:space="preserve" onload="init(evt)">

<style type="text/css"><![CDATA[
.node, .edge {opacity: 0.7;}
.node.selected, .edge.selected {opacity: 1;}
.edge:hover path { stroke: red; }
.edge:hover polygon { stroke: red; fill: red; }
]]></style>

<defs>
  <circle id="rim" cx="0" cy="0" r="7"/>
  <circle id="rim2" cx="0" cy="0" r="3.5"/>
  <g id="zoomPlus">
    <use xlink:href="#rim" fill="#404040"><set attributeName="fill" to="#808080" begin="zoomplus.mouseover" end="zoomplus.mouseout"/></use>
    <path d="M-4,0h8M0,-4v8" fill="none" stroke="white" stroke-width="1.5" pointer-events="none"/>
  </g>
  <g id="zoomMin">
    <use xlink:href="#rim" fill="#404040"><set attributeName="fill" to="#808080" begin="zoomminus.mouseover" end="zoomminus.mouseout"/></use>
    <path d="M-4,0h8" fill="none" stroke="white" stroke-width="1.5" pointer-events="none"/>
  </g>
  <g id="arrowUp" transform="translate(30 24)">
    <use xlink:href="#rim"/>
    <path pointer-events="none" fill="none" stroke="white" stroke-width="1.5" d="M0,-3.0v7 M-2.5,-0.5L0,-3.0L2.5,-0.5"/>
  </g>
  <g id="arrowRight" transform="rotate(90) translate(36 -43)">
    <use xlink:href="#rim"/>
    <path pointer-events="none" fill="none" stroke="white" stroke-width="1.5" d="M0,-3.0v7 M-2.5,-0.5L0,-3.0L2.5,-0.5"/>
  </g>
  <g id="arrowDown" transform="rotate(180) translate(-30 -48)">
    <use xlink:href="#rim"/>
    <path pointer-events="none" fill="none" stroke="white" stroke-width="1.5" d="M0,-3.0v7 M-2.5,-0.5L0,-3.0L2.5,-0.5"/>
  </g>
  <g id="arrowLeft" transform="rotate(270) translate(-36 17)">
    <use xlink:href="#rim"/>
    <path pointer-events="none" fill="none" stroke="white" stroke-width="1.5" d="M0,-3.0v7 M-2.5,-0.5L0,-3.0L2.5,-0.5"/>
  </g>
  <g id="resetDef">
    <use xlink:href="#rim2" fill="#404040"><set attributeName="fill" to="#808080" begin="reset.mouseover" end="reset.mouseout"/></use>
  </g>
</defs>
<script type="application/ecmascript">
var viewWidth = 2199;
var viewHeight = 288;
var sectionId = 'dynsection-1';
</script>
<script type="application/ecmascript" xlink:href="svg.min.js"/>
<svg id="graph" class="graph">
<g id="viewport">
<title>src/Utils/UtilsError.hpp</title>
<!-- Node1 -->
<g id="Node000001" class="node">
<title>Node1</title>
<g id="a_Node000001"><a xlink:title=" ">
<polygon fill="#999999" stroke="#666666" points="959.62,-280 843.88,-280 843.88,-260 959.62,-260 959.62,-280"/>
<text xml:space="preserve" text-anchor="middle" x="901.75" y="-266.5" font-family="Helvetica,sans-Serif" font-size="10.00">src/Utils/UtilsError.hpp</text>
</a>
</g>
</g>
<!-- Node2 -->
<g id="Node000002" class="node">
<title>Node2</title>
<g id="a_Node000002"><a xlink:href="IDirectoryManager_8hpp.html" target="_top" xlink:title=" ">
<polygon fill="white" stroke="#666666" points="709.75,-224 591.75,-224 591.75,-192 709.75,-192 709.75,-224"/>
<text xml:space="preserve" text-anchor="start" x="599.75" y="-210.5" font-family="Helvetica,sans-Serif" font-size="10.00">src/Utils/Filesystem</text>
<text xml:space="preserve" text-anchor="middle" x="650.75" y="-198.5" font-family="Helvetica,sans-Serif" font-size="10.00">/IDirectoryManager.hpp</text>
</a>
</g>
</g>
<!-- Node1&#45;&gt;Node2 -->
<g id="edge1_Node000001_Node000002" class="edge">
<title>Node1&#45;&gt;Node2</title>
<g id="a_edge1_Node000001_Node000002"><a xlink:title=" ">
<path fill="none" stroke="#63b8ff" d="M851.23,-256.92C810.47,-247.18 753.05,-233.45 710.1,-223.19"/>
<polygon fill="#63b8ff" stroke="#63b8ff" points="850.24,-260.29 860.78,-259.21 851.87,-253.48 850.24,-260.29"/>
</a>
</g>
</g>
<!-- Node14 -->
<g id="Node000014" class="node">
<title>Node14</title>
<g id="a_Node000014"><a xlink:href="IFileReader_8hpp.html" target="_top" xlink:title=" ">
<polygon fill="white" stroke="#666666" points="573.62,-224 469.88,-224 469.88,-192 573.62,-192 573.62,-224"/>
<text xml:space="preserve" text-anchor="start" x="477.88" y="-210.5" font-family="Helvetica,sans-Serif" font-size="10.00">src/Utils/Filesystem</text>
<text xml:space="preserve" text-anchor="middle" x="521.75" y="-198.5" font-family="Helvetica,sans-Serif" font-size="10.00">/IFileReader.hpp</text>
</a>
</g>
</g>
<!-- Node1&#45;&gt;Node14 -->
<g id="edge18_Node000001_Node000014" class="edge">
<title>Node1&#45;&gt;Node14</title>
<g id="a_edge18_Node000001_Node000014"><a xlink:title=" ">
<path fill="none" stroke="#63b8ff" d="M832.24,-261.25C767.39,-253.53 668.1,-240.47 582.75,-224 579.86,-223.44 576.9,-222.83 573.92,-222.2"/>
<polygon fill="#63b8ff" stroke="#63b8ff" points="831.7,-264.71 842.04,-262.4 832.51,-257.75 831.7,-264.71"/>
</a>
</g>
</g>
<!-- Node20 -->
<g id="Node000020" class="node">
<title>Node20</title>
<g id="a_Node000020"><a xlink:href="IFileWriter_8hpp.html" target="_top" xlink:title=" ">
<polygon fill="white" stroke="#666666" points="831.62,-224 727.88,-224 727.88,-192 831.62,-192 831.62,-224"/>
<text xml:space="preserve" text-anchor="start" x="735.88" y="-210.5" font-family="Helvetica,sans-Serif" font-size="10.00">src/Utils/Filesystem</text>
<text xml:space="preserve" text-anchor="middle" x="779.75" y="-198.5" font-family="Helvetica,sans-Serif" font-size="10.00">/IFileWriter.hpp</text>
</a>
</g>
</g>
<!-- Node1&#45;&gt;Node20 -->
<g id="edge27_Node000001_Node000020" class="edge">
<title>Node1&#45;&gt;Node20</title>
<g id="a_edge27_Node000001_Node000020"><a xlink:title=" ">
<path fill="none" stroke="#63b8ff" d="M872.47,-254.6C853.91,-245.47 829.93,-233.68 811.01,-224.37"/>
<polygon fill="#63b8ff" stroke="#63b8ff" points="870.81,-257.68 881.33,-258.96 873.9,-251.4 870.81,-257.68"/>
</a>
</g>
</g>
<!-- Node23 -->
<g id="Node000023" class="node">
<title>Node23</title>
<g id="a_Node000023"><a xlink:href="IPathResolver_8hpp.html" target="_top" xlink:title=" ">
<polygon fill="white" stroke="#666666" points="953.62,-224 849.88,-224 849.88,-192 953.62,-192 953.62,-224"/>
<text xml:space="preserve" text-anchor="start" x="857.88" y="-210.5" font-family="Helvetica,sans-Serif" font-size="10.00">src/Utils/Filesystem</text>
<text xml:space="preserve" text-anchor="middle" x="901.75" y="-198.5" font-family="Helvetica,sans-Serif" font-size="10.00">/IPathResolver.hpp</text>
</a>
</g>
</g>
<!-- Node1&#45;&gt;Node23 -->
<g id="edge33_Node000001_Node000023" class="edge">
<title>Node1&#45;&gt;Node23</title>
<g id="a_edge33_Node000001_Node000023"><a xlink:title=" ">
<path fill="none" stroke="#63b8ff" d="M901.75,-248.31C901.75,-240.37 901.75,-231.46 901.75,-224.14"/>
<polygon fill="#63b8ff" stroke="#63b8ff" points="898.25,-248.11 901.75,-258.11 905.25,-248.11 898.25,-248.11"/>
</a>
</g>
</g>
<!-- Node26 -->
<g id="Node000026" class="node">
<title>Node26</title>
<g id="a_Node000026"><a xlink:href="ICustomStringsLoader_8hpp.html" target="_top" xlink:title=" ">
<polygon fill="white" stroke="#666666" points="1300.75,-224 1152.75,-224 1152.75,-192 1300.75,-192 1300.75,-224"/>
<text xml:space="preserve" text-anchor="start" x="1160.75" y="-210.5" font-family="Helvetica,sans-Serif" font-size="10.00">src/Utils/Json/ICustomStrings</text>
<text xml:space="preserve" text-anchor="middle" x="1226.75" y="-198.5" font-family="Helvetica,sans-Serif" font-size="10.00">Loader.hpp</text>
</a>
</g>
</g>
<!-- Node1&#45;&gt;Node26 -->
<g id="edge38_Node000001_Node000026" class="edge">
<title>Node1&#45;&gt;Node26</title>
<g id="a_edge38_Node000001_Node000026"><a xlink:title=" ">
<path fill="none" stroke="#63b8ff" d="M963.97,-257.51C1017.67,-247.6 1095.38,-233.25 1152.36,-222.73"/>
<polygon fill="#63b8ff" stroke="#63b8ff" points="963.58,-254.03 954.38,-259.28 964.85,-260.91 963.58,-254.03"/>
</a>
</g>
</g>
<!-- Node29 -->
<g id="Node000029" class="node">
<title>Node29</title>
<g id="a_Node000029"><a xlink:href="IJsonSerializer_8hpp.html" target="_top" xlink:title=" ">
<polygon fill="white" stroke="#666666" points="1134.25,-218 971.25,-218 971.25,-198 1134.25,-198 1134.25,-218"/>
<text xml:space="preserve" text-anchor="middle" x="1052.75" y="-204.5" font-family="Helvetica,sans-Serif" font-size="10.00">src/Utils/Json/IJsonSerializer.hpp</text>
</a>
</g>
</g>
<!-- Node1&#45;&gt;Node29 -->
<g id="edge43_Node000001_Node000029" class="edge">
<title>Node1&#45;&gt;Node29</title>
<g id="a_edge43_Node000001_Node000029"><a xlink:title=" ">
<path fill="none" stroke="#63b8ff" d="M936.04,-255.38C964.54,-244.05 1004.34,-228.23 1029.32,-218.31"/>
<polygon fill="#63b8ff" stroke="#63b8ff" points="934.75,-252.12 926.75,-259.07 937.34,-258.63 934.75,-252.12"/>
</a>
</g>
</g>
<!-- Node30 -->
<g id="Node000030" class="node">
<title>Node30</title>
<g id="a_Node000030"><a xlink:href="IPlatformInfo_8hpp.html" target="_top" xlink:title=" ">
<polygon fill="white" stroke="#666666" points="1665.75,-224 1571.75,-224 1571.75,-192 1665.75,-192 1665.75,-224"/>
<text xml:space="preserve" text-anchor="start" x="1579.75" y="-210.5" font-family="Helvetica,sans-Serif" font-size="10.00">src/Utils/Platform</text>
<text xml:space="preserve" text-anchor="middle" x="1618.75" y="-198.5" font-family="Helvetica,sans-Serif" font-size="10.00">/IPlatformInfo.hpp</text>
</a>
</g>
</g>
<!-- Node1&#45;&gt;Node30 -->
<g id="edge47_Node000001_Node000030" class="edge">
<title>Node1&#45;&gt;Node30</title>
<g id="a_edge47_Node000001_Node000030"><a xlink:title=" ">
<path fill="none" stroke="#63b8ff" d="M971.49,-263.16C1116.62,-251.02 1447.85,-223.3 1571.25,-212.97"/>
<polygon fill="#63b8ff" stroke="#63b8ff" points="971.3,-259.67 961.63,-263.99 971.89,-266.64 971.3,-259.67"/>
</a>
</g>
</g>
<!-- Node3 -->
<g id="Node000003" class="node">
<title>Node3</title>
<g id="a_Node000003"><a xlink:href="DirectoryManager_8hpp.html" target="_top" xlink:title=" ">
<polygon fill="white" stroke="#666666" points="531.25,-156 416.25,-156 416.25,-124 531.25,-124 531.25,-156"/>
<text xml:space="preserve" text-anchor="start" x="424.25" y="-142.5" font-family="Helvetica,sans-Serif" font-size="10.00">src/Utils/Filesystem</text>
<text xml:space="preserve" text-anchor="middle" x="473.75" y="-130.5" font-family="Helvetica,sans-Serif" font-size="10.00">/DirectoryManager.hpp</text>
</a>
</g>
</g>
<!-- Node2&#45;&gt;Node3 -->
<g id="edge2_Node000002_Node000003" class="edge">
<title>Node2&#45;&gt;Node3</title>
<g id="a_edge2_Node000002_Node000003"><a xlink:title=" ">
<path fill="none" stroke="#63b8ff" d="M598.6,-187.56C572.04,-177.65 540.18,-165.77 515.29,-156.49"/>
<polygon fill="#63b8ff" stroke="#63b8ff" points="597.24,-190.78 607.83,-191 599.69,-184.22 597.24,-190.78"/>
</a>
</g>
</g>
<!-- Node6 -->
<g id="Node000006" class="node">
<title>Node6</title>
<g id="a_Node000006"><a xlink:href="UtilsFactory_8hpp.html" target="_top" xlink:title=" ">
<polygon fill="white" stroke="#666666" points="1107.25,-150 980.25,-150 980.25,-130 1107.25,-130 1107.25,-150"/>
<text xml:space="preserve" text-anchor="middle" x="1043.75" y="-136.5" font-family="Helvetica,sans-Serif" font-size="10.00">src/Utils/UtilsFactory.hpp</text>
</a>
</g>
</g>
<!-- Node2&#45;&gt;Node6 -->
<g id="edge5_Node000002_Node000006" class="edge">
<title>Node2&#45;&gt;Node6</title>
<g id="a_edge5_Node000002_Node000006"><a xlink:title=" ">
<path fill="none" stroke="#63b8ff" d="M721.36,-191.6C828.51,-172.28 858.21,-173.39 962.75,-156 972.91,-154.31 983.76,-152.39 994.11,-150.49"/>
<polygon fill="#63b8ff" stroke="#63b8ff" points="720.74,-188.15 711.53,-193.39 721.99,-195.04 720.74,-188.15"/>
</a>
</g>
</g>
<!-- Node4 -->
<g id="Node000004" class="node">
<title>Node4</title>
<g id="a_Node000004"><a xlink:href="DirectoryManager_8cpp.html" target="_top" xlink:title=" ">
<polygon fill="white" stroke="#666666" points="392.25,-88 277.25,-88 277.25,-56 392.25,-56 392.25,-88"/>
<text xml:space="preserve" text-anchor="start" x="285.25" y="-74.5" font-family="Helvetica,sans-Serif" font-size="10.00">src/Utils/Filesystem</text>
<text xml:space="preserve" text-anchor="middle" x="334.75" y="-62.5" font-family="Helvetica,sans-Serif" font-size="10.00">/DirectoryManager.cpp</text>
</a>
</g>
</g>
<!-- Node3&#45;&gt;Node4 -->
<g id="edge3_Node000003_Node000004" class="edge">
<title>Node3&#45;&gt;Node4</title>
<g id="a_edge3_Node000003_Node000004"><a xlink:title=" ">
<path fill="none" stroke="#63b8ff" d="M430.8,-118.61C410.27,-108.86 386.09,-97.38 367.14,-88.38"/>
<polygon fill="#63b8ff" stroke="#63b8ff" points="429.26,-121.75 439.79,-122.88 432.26,-115.43 429.26,-121.75"/>
</a>
</g>
</g>
<!-- Node5 -->
<g id="Node000005" class="node">
<title>Node5</title>
<g id="a_Node000005"><a xlink:href="UtilsFactory_8cpp.html" target="_top" xlink:title=" ">
<polygon fill="white" stroke="#666666" points="837.25,-82 710.25,-82 710.25,-62 837.25,-62 837.25,-82"/>
<text xml:space="preserve" text-anchor="middle" x="773.75" y="-68.5" font-family="Helvetica,sans-Serif" font-size="10.00">src/Utils/UtilsFactory.cpp</text>
</a>
</g>
</g>
<!-- Node3&#45;&gt;Node5 -->
<g id="edge4_Node000003_Node000005" class="edge">
<title>Node3&#45;&gt;Node5</title>
<g id="a_edge4_Node000003_Node000005"><a xlink:title=" ">
<path fill="none" stroke="#63b8ff" d="M542.54,-123.61C614.27,-107.75 685.85,-92.12 730.36,-82.43"/>
<polygon fill="#63b8ff" stroke="#63b8ff" points="541.97,-120.15 532.97,-125.73 543.49,-126.98 541.97,-120.15"/>
</a>
</g>
</g>
<!-- Node6&#45;&gt;Node5 -->
<g id="edge17_Node000006_Node000005" class="edge">
<title>Node6&#45;&gt;Node5</title>
<g id="a_edge17_Node000006_Node000005"><a xlink:title=" ">
<path fill="none" stroke="#63b8ff" d="M994.02,-126.84C941.6,-114.03 860.15,-94.12 812.36,-82.44"/>
<polygon fill="#63b8ff" stroke="#63b8ff" points="993.05,-130.21 1003.6,-129.18 994.71,-123.41 993.05,-130.21"/>
</a>
</g>
</g>
<!-- Node7 -->
<g id="Node000007" class="node">
<title>Node7</title>
<g id="a_Node000007"><a xlink:href="Application_8cpp.html" target="_top" xlink:title=" ">
<polygon fill="white" stroke="#666666" points="1105.12,-20 956.38,-20 956.38,0 1105.12,0 1105.12,-20"/>
<text xml:space="preserve" text-anchor="middle" x="1030.75" y="-6.5" font-family="Helvetica,sans-Serif" font-size="10.00">application/src/Application.cpp</text>
</a>
</g>
</g>
<!-- Node6&#45;&gt;Node7 -->
<g id="edge6_Node000006_Node000007" class="edge">
<title>Node6&#45;&gt;Node7</title>
<g id="a_edge6_Node000006_Node000007"><a xlink:title=" ">
<path fill="none" stroke="#63b8ff" d="M1025.96,-121.13C1018.14,-112.02 1009.83,-100.29 1005.75,-88 1001.27,-74.5 1002.18,-69.77 1005.75,-56 1009.2,-42.68 1017.55,-29.1 1023.65,-20.39"/>
<polygon fill="#63b8ff" stroke="#63b8ff" points="1023.35,-123.47 1032.7,-128.47 1028.51,-118.73 1023.35,-123.47"/>
</a>
</g>
</g>
<!-- Node8 -->
<g id="Node000008" class="node">
<title>Node8</title>
<g id="a_Node000008"><a xlink:href="DotNameBotLib_8hpp.html" target="_top" xlink:title=" ">
<polygon fill="white" stroke="#666666" points="1134.5,-88 1015,-88 1015,-56 1134.5,-56 1134.5,-88"/>
<text xml:space="preserve" text-anchor="start" x="1023" y="-74.5" font-family="Helvetica,sans-Serif" font-size="10.00">include/DotNameBotLib</text>
<text xml:space="preserve" text-anchor="middle" x="1074.75" y="-62.5" font-family="Helvetica,sans-Serif" font-size="10.00">/DotNameBotLib.hpp</text>
</a>
</g>
</g>
<!-- Node6&#45;&gt;Node8 -->
<g id="edge7_Node000006_Node000008" class="edge">
<title>Node6&#45;&gt;Node8</title>
<g id="a_edge7_Node000006_Node000008"><a xlink:title=" ">
<path fill="none" stroke="#63b8ff" d="M1052.96,-119.39C1057.63,-109.45 1063.22,-97.56 1067.56,-88.3"/>
<polygon fill="#63b8ff" stroke="#63b8ff" points="1049.92,-117.63 1048.84,-128.17 1056.25,-120.61 1049.92,-117.63"/>
</a>
</g>
</g>
<!-- Node10 -->
<g id="Node000010" class="node">
<title>Node10</title>
<g id="a_Node000010"><a xlink:href="DiscordBot_8hpp.html" target="_top" xlink:title=" ">
<polygon fill="white" stroke="#666666" points="1304.62,-82 1152.88,-82 1152.88,-62 1304.62,-62 1304.62,-82"/>
<text xml:space="preserve" text-anchor="middle" x="1228.75" y="-68.5" font-family="Helvetica,sans-Serif" font-size="10.00">src/DiscordBot/DiscordBot.hpp</text>
</a>
</g>
</g>
<!-- Node6&#45;&gt;Node10 -->
<g id="edge10_Node000006_Node000010" class="edge">
<title>Node6&#45;&gt;Node10</title>
<g id="a_edge10_Node000006_Node000010"><a xlink:title=" ">
<path fill="none" stroke="#63b8ff" d="M1080.8,-125.78C1116.76,-112.95 1170.44,-93.8 1202.29,-82.44"/>
<polygon fill="#63b8ff" stroke="#63b8ff" points="1079.92,-122.38 1071.68,-129.04 1082.28,-128.97 1079.92,-122.38"/>
</a>
</g>
</g>
<!-- Node12 -->
<g id="Node000012" class="node">
<title>Node12</title>
<g id="a_Node000012"><a xlink:href="RssManager_8hpp.html" target="_top" xlink:title=" ">
<polygon fill="white" stroke="#666666" points="1450.62,-82 1322.88,-82 1322.88,-62 1450.62,-62 1450.62,-82"/>
<text xml:space="preserve" text-anchor="middle" x="1386.75" y="-68.5" font-family="Helvetica,sans-Serif" font-size="10.00">src/Rss/RssManager.hpp</text>
</a>
</g>
</g>
<!-- Node6&#45;&gt;Node12 -->
<g id="edge13_Node000006_Node000012" class="edge">
<title>Node6&#45;&gt;Node12</title>
<g id="a_edge13_Node000006_Node000012"><a xlink:title=" ">
<path fill="none" stroke="#63b8ff" d="M1106.57,-127.43C1161.33,-117.27 1242.86,-101.98 1313.75,-88 1322.64,-86.25 1332.12,-84.33 1341.21,-82.47"/>
<polygon fill="#63b8ff" stroke="#63b8ff" points="1105.99,-123.98 1096.79,-129.24 1107.27,-130.86 1105.99,-123.98"/>
</a>
</g>
</g>
<!-- Node8&#45;&gt;Node7 -->
<g id="edge8_Node000008_Node000007" class="edge">
<title>Node8&#45;&gt;Node7</title>
<g id="a_edge8_Node000008_Node000007"><a xlink:title=" ">
<path fill="none" stroke="#63b8ff" d="M1056.71,-46.4C1050,-37.24 1042.77,-27.39 1037.65,-20.41"/>
<polygon fill="#63b8ff" stroke="#63b8ff" points="1053.79,-48.33 1062.52,-54.33 1059.43,-44.19 1053.79,-48.33"/>
</a>
</g>
</g>
<!-- Node9 -->
<g id="Node000009" class="node">
<title>Node9</title>
<g id="a_Node000009"><a xlink:href="DotNameBotLib_8cpp.html" target="_top" xlink:title=" ">
<polygon fill="white" stroke="#666666" points="1266.25,-20 1145.25,-20 1145.25,0 1266.25,0 1266.25,-20"/>
<text xml:space="preserve" text-anchor="middle" x="1205.75" y="-6.5" font-family="Helvetica,sans-Serif" font-size="10.00">src/DotNameBotLib.cpp</text>
</a>
</g>
</g>
<!-- Node8&#45;&gt;Node9 -->
<g id="edge9_Node000008_Node000009" class="edge">
<title>Node8&#45;&gt;Node9</title>
<g id="a_edge9_Node000008_Node000009"><a xlink:title=" ">
<path fill="none" stroke="#63b8ff" d="M1118.82,-50.82C1141.26,-40.54 1167.48,-28.53 1185.21,-20.41"/>
<polygon fill="#63b8ff" stroke="#63b8ff" points="1117.5,-47.57 1109.86,-54.92 1120.41,-53.94 1117.5,-47.57"/>
</a>
</g>
</g>
<!-- Node10&#45;&gt;Node9 -->
<g id="edge12_Node000010_Node000009" class="edge">
<title>Node10&#45;&gt;Node9</title>
<g id="a_edge12_Node000010_Node000009"><a xlink:title=" ">
<path fill="none" stroke="#63b8ff" d="M1221.06,-50.93C1217.06,-40.5 1212.37,-28.26 1209.24,-20.11"/>
<polygon fill="#63b8ff" stroke="#63b8ff" points="1217.77,-52.13 1224.61,-60.21 1224.3,-49.62 1217.77,-52.13"/>
</a>
</g>
</g>
<!-- Node11 -->
<g id="Node000011" class="node">
<title>Node11</title>
<g id="a_Node000011"><a xlink:href="DiscordBot_8cpp.html" target="_top" xlink:title=" ">
<polygon fill="white" stroke="#666666" points="1435.62,-20 1283.88,-20 1283.88,0 1435.62,0 1435.62,-20"/>
<text xml:space="preserve" text-anchor="middle" x="1359.75" y="-6.5" font-family="Helvetica,sans-Serif" font-size="10.00">src/DiscordBot/DiscordBot.cpp</text>
</a>
</g>
</g>
<!-- Node10&#45;&gt;Node11 -->
<g id="edge11_Node000010_Node000011" class="edge">
<title>Node10&#45;&gt;Node11</title>
<g id="a_edge11_Node000010_Node000011"><a xlink:title=" ">
<path fill="none" stroke="#63b8ff" d="M1259.49,-56.92C1284.14,-45.63 1318.04,-30.1 1339.42,-20.31"/>
<polygon fill="#63b8ff" stroke="#63b8ff" points="1258.23,-53.65 1250.59,-60.99 1261.14,-60.01 1258.23,-53.65"/>
</a>
</g>
</g>
<!-- Node12&#45;&gt;Node9 -->
<g id="edge15_Node000012_Node000009" class="edge">
<title>Node12&#45;&gt;Node9</title>
<g id="a_edge15_Node000012_Node000009"><a xlink:title=" ">
<path fill="none" stroke="#63b8ff" d="M1347.93,-58.13C1313.75,-46.8 1264.76,-30.56 1234.13,-20.41"/>
<polygon fill="#63b8ff" stroke="#63b8ff" points="1346.44,-61.32 1357.03,-61.15 1348.64,-54.68 1346.44,-61.32"/>
</a>
</g>
</g>
<!-- Node12&#45;&gt;Node11 -->
<g id="edge14_Node000012_Node000011" class="edge">
<title>Node12&#45;&gt;Node11</title>
<g id="a_edge14_Node000012_Node000011"><a xlink:title=" ">
<path fill="none" stroke="#63b8ff" d="M1377.87,-51.27C1373.14,-40.76 1367.56,-28.35 1363.85,-20.11"/>
<polygon fill="#63b8ff" stroke="#63b8ff" points="1374.61,-52.56 1381.91,-60.24 1381,-49.69 1374.61,-52.56"/>
</a>
</g>
</g>
<!-- Node13 -->
<g id="Node000013" class="node">
<title>Node13</title>
<g id="a_Node000013"><a xlink:href="RssManager_8cpp.html" target="_top" xlink:title=" ">
<polygon fill="white" stroke="#666666" points="1581.62,-20 1453.88,-20 1453.88,0 1581.62,0 1581.62,-20"/>
<text xml:space="preserve" text-anchor="middle" x="1517.75" y="-6.5" font-family="Helvetica,sans-Serif" font-size="10.00">src/Rss/RssManager.cpp</text>
</a>
</g>
</g>
<!-- Node12&#45;&gt;Node13 -->
<g id="edge16_Node000012_Node000013" class="edge">
<title>Node12&#45;&gt;Node13</title>
<g id="a_edge16_Node000012_Node000013"><a xlink:title=" ">
<path fill="none" stroke="#63b8ff" d="M1417.49,-56.92C1442.14,-45.63 1476.04,-30.1 1497.42,-20.31"/>
<polygon fill="#63b8ff" stroke="#63b8ff" points="1416.23,-53.65 1408.59,-60.99 1419.14,-60.01 1416.23,-53.65"/>
</a>
</g>
</g>
<!-- Node14&#45;&gt;Node6 -->
<g id="edge26_Node000014_Node000006" class="edge">
<title>Node14&#45;&gt;Node6</title>
<g id="a_edge26_Node000014_Node000006"><a xlink:title=" ">
<path fill="none" stroke="#63b8ff" d="M585.06,-191.78C751.99,-164.33 798.35,-178.96 962.75,-156 973.8,-154.46 985.63,-152.46 996.75,-150.43"/>
<polygon fill="#63b8ff" stroke="#63b8ff" points="584.67,-188.29 575.38,-193.4 585.82,-195.2 584.67,-188.29"/>
</a>
</g>
</g>
<!-- Node15 -->
<g id="Node000015" class="node">
<title>Node15</title>
<g id="a_Node000015"><a xlink:href="FileReader_8hpp.html" target="_top" xlink:title=" ">
<polygon fill="white" stroke="#666666" points="326.62,-156 222.88,-156 222.88,-124 326.62,-124 326.62,-156"/>
<text xml:space="preserve" text-anchor="start" x="230.88" y="-142.5" font-family="Helvetica,sans-Serif" font-size="10.00">src/Utils/Filesystem</text>
<text xml:space="preserve" text-anchor="middle" x="274.75" y="-130.5" font-family="Helvetica,sans-Serif" font-size="10.00">/FileReader.hpp</text>
</a>
</g>
</g>
<!-- Node14&#45;&gt;Node15 -->
<g id="edge19_Node000014_Node000015" class="edge">
<title>Node14&#45;&gt;Node15</title>
<g id="a_edge19_Node000014_Node000015"><a xlink:title=" ">
<path fill="none" stroke="#63b8ff" d="M458.74,-190.16C417.87,-179.24 365.25,-165.18 326.76,-154.9"/>
<polygon fill="#63b8ff" stroke="#63b8ff" points="457.64,-193.49 468.21,-192.69 459.45,-186.73 457.64,-193.49"/>
</a>
</g>
</g>
<!-- Node18 -->
<g id="Node000018" class="node">
<title>Node18</title>
<g id="a_Node000018"><a xlink:href="JsonSerializer_8hpp.html" target="_top" xlink:title=" ">
<polygon fill="white" stroke="#666666" points="709.75,-150 549.75,-150 549.75,-130 709.75,-130 709.75,-150"/>
<text xml:space="preserve" text-anchor="middle" x="629.75" y="-136.5" font-family="Helvetica,sans-Serif" font-size="10.00">src/Utils/Json/JsonSerializer.hpp</text>
</a>
</g>
</g>
<!-- Node14&#45;&gt;Node18 -->
<g id="edge23_Node000014_Node000018" class="edge">
<title>Node14&#45;&gt;Node18</title>
<g id="a_edge23_Node000014_Node000018"><a xlink:title=" ">
<path fill="none" stroke="#63b8ff" d="M556.81,-185.57C576.21,-173.72 599.34,-159.59 614.27,-150.46"/>
<polygon fill="#63b8ff" stroke="#63b8ff" points="555.07,-182.54 548.36,-190.74 558.72,-188.51 555.07,-182.54"/>
</a>
</g>
</g>
<!-- Node15&#45;&gt;Node5 -->
<g id="edge22_Node000015_Node000005" class="edge">
<title>Node15&#45;&gt;Node5</title>
<g id="a_edge22_Node000015_Node000005"><a xlink:title=" ">
<path fill="none" stroke="#63b8ff" d="M338.24,-131.72C448.44,-119.05 666.75,-93.73 701.75,-88 711.33,-86.43 721.56,-84.48 731.22,-82.5"/>
<polygon fill="#63b8ff" stroke="#63b8ff" points="338,-128.23 328.46,-132.85 338.8,-135.18 338,-128.23"/>
</a>
</g>
</g>
<!-- Node16 -->
<g id="Node000016" class="node">
<title>Node16</title>
<g id="a_Node000016"><a xlink:href="FileReaderTest_8cpp.html" target="_top" xlink:title=" ">
<polygon fill="white" stroke="#666666" points="137.5,-88 0,-88 0,-56 137.5,-56 137.5,-88"/>
<text xml:space="preserve" text-anchor="start" x="8" y="-74.5" font-family="Helvetica,sans-Serif" font-size="10.00">application/tests/FileReader</text>
<text xml:space="preserve" text-anchor="middle" x="68.75" y="-62.5" font-family="Helvetica,sans-Serif" font-size="10.00">Test.cpp</text>
</a>
</g>
</g>
<!-- Node15&#45;&gt;Node16 -->
<g id="edge20_Node000015_Node000016" class="edge">
<title>Node15&#45;&gt;Node16</title>
<g id="a_edge20_Node000015_Node000016"><a xlink:title=" ">
<path fill="none" stroke="#63b8ff" d="M215.7,-120.08C184.46,-110.07 146.58,-97.94 117.1,-88.49"/>
<polygon fill="#63b8ff" stroke="#63b8ff" points="214.42,-123.35 225.01,-123.06 216.56,-116.68 214.42,-123.35"/>
</a>
</g>
</g>
<!-- Node17 -->
<g id="Node000017" class="node">
<title>Node17</title>
<g id="a_Node000017"><a xlink:href="FileReader_8cpp.html" target="_top" xlink:title=" ">
<polygon fill="white" stroke="#666666" points="259.62,-88 155.88,-88 155.88,-56 259.62,-56 259.62,-88"/>
<text xml:space="preserve" text-anchor="start" x="163.88" y="-74.5" font-family="Helvetica,sans-Serif" font-size="10.00">src/Utils/Filesystem</text>
<text xml:space="preserve" text-anchor="middle" x="207.75" y="-62.5" font-family="Helvetica,sans-Serif" font-size="10.00">/FileReader.cpp</text>
</a>
</g>
</g>
<!-- Node15&#45;&gt;Node17 -->
<g id="edge21_Node000015_Node000017" class="edge">
<title>Node15&#45;&gt;Node17</title>
<g id="a_edge21_Node000015_Node000017"><a xlink:title=" ">
<path fill="none" stroke="#63b8ff" d="M251.11,-115.71C241.84,-106.59 231.48,-96.37 223.21,-88.22"/>
<polygon fill="#63b8ff" stroke="#63b8ff" points="248.55,-118.11 258.13,-122.63 253.46,-113.12 248.55,-118.11"/>
</a>
</g>
</g>
<!-- Node18&#45;&gt;Node5 -->
<g id="edge25_Node000018_Node000005" class="edge">
<title>Node18&#45;&gt;Node5</title>
<g id="a_edge25_Node000018_Node000005"><a xlink:title=" ">
<path fill="none" stroke="#63b8ff" d="M660.79,-124.77C688.73,-111.97 729.01,-93.51 753.16,-82.44"/>
<polygon fill="#63b8ff" stroke="#63b8ff" points="659.39,-121.56 651.76,-128.91 662.31,-127.93 659.39,-121.56"/>
</a>
</g>
</g>
<!-- Node19 -->
<g id="Node000019" class="node">
<title>Node19</title>
<g id="a_Node000019"><a xlink:href="JsonSerializer_8cpp.html" target="_top" xlink:title=" ">
<polygon fill="white" stroke="#666666" points="570.75,-82 410.75,-82 410.75,-62 570.75,-62 570.75,-82"/>
<text xml:space="preserve" text-anchor="middle" x="490.75" y="-68.5" font-family="Helvetica,sans-Serif" font-size="10.00">src/Utils/Json/JsonSerializer.cpp</text>
</a>
</g>
</g>
<!-- Node18&#45;&gt;Node19 -->
<g id="edge24_Node000018_Node000019" class="edge">
<title>Node18&#45;&gt;Node19</title>
<g id="a_edge24_Node000018_Node000019"><a xlink:title=" ">
<path fill="none" stroke="#63b8ff" d="M599.79,-124.77C572.82,-111.97 533.94,-93.51 510.63,-82.44"/>
<polygon fill="#63b8ff" stroke="#63b8ff" points="597.93,-127.77 608.47,-128.89 600.94,-121.44 597.93,-127.77"/>
</a>
</g>
</g>
<!-- Node20&#45;&gt;Node6 -->
<g id="edge32_Node000020_Node000006" class="edge">
<title>Node20&#45;&gt;Node6</title>
<g id="a_edge32_Node000020_Node000006"><a xlink:title=" ">
<path fill="none" stroke="#63b8ff" d="M842.76,-191.25C893.52,-178.56 963.23,-161.13 1005.79,-150.49"/>
<polygon fill="#63b8ff" stroke="#63b8ff" points="842.23,-187.77 833.38,-193.59 843.93,-194.56 842.23,-187.77"/>
</a>
</g>
</g>
<!-- Node20&#45;&gt;Node18 -->
<g id="edge31_Node000020_Node000018" class="edge">
<title>Node20&#45;&gt;Node18</title>
<g id="a_edge31_Node000020_Node000018"><a xlink:title=" ">
<path fill="none" stroke="#63b8ff" d="M734.36,-187.03C706.79,-174.9 672.85,-159.96 651.25,-150.46"/>
<polygon fill="#63b8ff" stroke="#63b8ff" points="732.63,-190.09 743.2,-190.92 735.45,-183.69 732.63,-190.09"/>
</a>
</g>
</g>
<!-- Node21 -->
<g id="Node000021" class="node">
<title>Node21</title>
<g id="a_Node000021"><a xlink:href="FileWriter_8hpp.html" target="_top" xlink:title=" ">
<polygon fill="white" stroke="#666666" points="831.62,-156 727.88,-156 727.88,-124 831.62,-124 831.62,-156"/>
<text xml:space="preserve" text-anchor="start" x="735.88" y="-142.5" font-family="Helvetica,sans-Serif" font-size="10.00">src/Utils/Filesystem</text>
<text xml:space="preserve" text-anchor="middle" x="779.75" y="-130.5" font-family="Helvetica,sans-Serif" font-size="10.00">/FileWriter.hpp</text>
</a>
</g>
</g>
<!-- Node20&#45;&gt;Node21 -->
<g id="edge28_Node000020_Node000021" class="edge">
<title>Node20&#45;&gt;Node21</title>
<g id="a_edge28_Node000020_Node000021"><a xlink:title=" ">
<path fill="none" stroke="#63b8ff" d="M779.75,-180.31C779.75,-172.12 779.75,-163.38 779.75,-156.22"/>
<polygon fill="#63b8ff" stroke="#63b8ff" points="776.25,-180.18 779.75,-190.18 783.25,-180.18 776.25,-180.18"/>
</a>
</g>
</g>
<!-- Node21&#45;&gt;Node5 -->
<g id="edge30_Node000021_Node000005" class="edge">
<title>Node21&#45;&gt;Node5</title>
<g id="a_edge30_Node000021_Node000005"><a xlink:title=" ">
<path fill="none" stroke="#63b8ff" d="M777.32,-112.31C776.36,-101.67 775.31,-90.13 774.6,-82.32"/>
<polygon fill="#63b8ff" stroke="#63b8ff" points="773.83,-112.54 778.22,-122.19 780.8,-111.91 773.83,-112.54"/>
</a>
</g>
</g>
<!-- Node22 -->
<g id="Node000022" class="node">
<title>Node22</title>
<g id="a_Node000022"><a xlink:href="FileWriter_8cpp.html" target="_top" xlink:title=" ">
<polygon fill="white" stroke="#666666" points="692.62,-88 588.88,-88 588.88,-56 692.62,-56 692.62,-88"/>
<text xml:space="preserve" text-anchor="start" x="596.88" y="-74.5" font-family="Helvetica,sans-Serif" font-size="10.00">src/Utils/Filesystem</text>
<text xml:space="preserve" text-anchor="middle" x="640.75" y="-62.5" font-family="Helvetica,sans-Serif" font-size="10.00">/FileWriter.cpp</text>
</a>
</g>
</g>
<!-- Node21&#45;&gt;Node22 -->
<g id="edge29_Node000021_Node000022" class="edge">
<title>Node21&#45;&gt;Node22</title>
<g id="a_edge29_Node000021_Node000022"><a xlink:title=" ">
<path fill="none" stroke="#63b8ff" d="M736.8,-118.61C716.27,-108.86 692.09,-97.38 673.14,-88.38"/>
<polygon fill="#63b8ff" stroke="#63b8ff" points="735.26,-121.75 745.79,-122.88 738.26,-115.43 735.26,-121.75"/>
</a>
</g>
</g>
<!-- Node23&#45;&gt;Node6 -->
<g id="edge37_Node000023_Node000006" class="edge">
<title>Node23&#45;&gt;Node6</title>
<g id="a_edge37_Node000023_Node000006"><a xlink:title=" ">
<path fill="none" stroke="#63b8ff" d="M945.41,-186.71C971.39,-174.63 1003.13,-159.88 1023.4,-150.46"/>
<polygon fill="#63b8ff" stroke="#63b8ff" points="944.01,-183.5 936.42,-190.89 946.96,-189.85 944.01,-183.5"/>
</a>
</g>
</g>
<!-- Node24 -->
<g id="Node000024" class="node">
<title>Node24</title>
<g id="a_Node000024"><a xlink:href="PathResolver_8hpp.html" target="_top" xlink:title=" ">
<polygon fill="white" stroke="#666666" points="953.62,-156 849.88,-156 849.88,-124 953.62,-124 953.62,-156"/>
<text xml:space="preserve" text-anchor="start" x="857.88" y="-142.5" font-family="Helvetica,sans-Serif" font-size="10.00">src/Utils/Filesystem</text>
<text xml:space="preserve" text-anchor="middle" x="901.75" y="-130.5" font-family="Helvetica,sans-Serif" font-size="10.00">/PathResolver.hpp</text>
</a>
</g>
</g>
<!-- Node23&#45;&gt;Node24 -->
<g id="edge34_Node000023_Node000024" class="edge">
<title>Node23&#45;&gt;Node24</title>
<g id="a_edge34_Node000023_Node000024"><a xlink:title=" ">
<path fill="none" stroke="#63b8ff" d="M901.75,-180.31C901.75,-172.12 901.75,-163.38 901.75,-156.22"/>
<polygon fill="#63b8ff" stroke="#63b8ff" points="898.25,-180.18 901.75,-190.18 905.25,-180.18 898.25,-180.18"/>
</a>
</g>
</g>
<!-- Node24&#45;&gt;Node5 -->
<g id="edge36_Node000024_Node000005" class="edge">
<title>Node24&#45;&gt;Node5</title>
<g id="a_edge36_Node000024_Node000005"><a xlink:title=" ">
<path fill="none" stroke="#63b8ff" d="M861.77,-118.39C838.47,-106.37 810.2,-91.79 792.1,-82.46"/>
<polygon fill="#63b8ff" stroke="#63b8ff" points="859.9,-121.36 870.39,-122.83 863.11,-115.14 859.9,-121.36"/>
</a>
</g>
</g>
<!-- Node25 -->
<g id="Node000025" class="node">
<title>Node25</title>
<g id="a_Node000025"><a xlink:href="PathResolver_8cpp.html" target="_top" xlink:title=" ">
<polygon fill="white" stroke="#666666" points="958.62,-88 854.88,-88 854.88,-56 958.62,-56 958.62,-88"/>
<text xml:space="preserve" text-anchor="start" x="862.88" y="-74.5" font-family="Helvetica,sans-Serif" font-size="10.00">src/Utils/Filesystem</text>
<text xml:space="preserve" text-anchor="middle" x="906.75" y="-62.5" font-family="Helvetica,sans-Serif" font-size="10.00">/PathResolver.cpp</text>
</a>
</g>
</g>
<!-- Node24&#45;&gt;Node25 -->
<g id="edge35_Node000024_Node000025" class="edge">
<title>Node24&#45;&gt;Node25</title>
<g id="a_edge35_Node000024_Node000025"><a xlink:title=" ">
<path fill="none" stroke="#63b8ff" d="M903.77,-112.31C904.39,-104.12 905.05,-95.38 905.6,-88.22"/>
<polygon fill="#63b8ff" stroke="#63b8ff" points="900.29,-111.95 903.02,-122.18 907.27,-112.48 900.29,-111.95"/>
</a>
</g>
</g>
<!-- Node26&#45;&gt;Node6 -->
<g id="edge42_Node000026_Node000006" class="edge">
<title>Node26&#45;&gt;Node6</title>
<g id="a_edge42_Node000026_Node000006"><a xlink:title=" ">
<path fill="none" stroke="#63b8ff" d="M1173.15,-187.67C1139.2,-175.42 1096.79,-160.13 1069.98,-150.46"/>
<polygon fill="#63b8ff" stroke="#63b8ff" points="1171.83,-190.91 1182.42,-191.01 1174.2,-184.33 1171.83,-190.91"/>
</a>
</g>
</g>
<!-- Node27 -->
<g id="Node000027" class="node">
<title>Node27</title>
<g id="a_Node000027"><a xlink:href="CustomStringsLoader_8hpp.html" target="_top" xlink:title=" ">
<polygon fill="white" stroke="#666666" points="1285.25,-156 1140.25,-156 1140.25,-124 1285.25,-124 1285.25,-156"/>
<text xml:space="preserve" text-anchor="start" x="1148.25" y="-142.5" font-family="Helvetica,sans-Serif" font-size="10.00">src/Utils/Json/CustomStrings</text>
<text xml:space="preserve" text-anchor="middle" x="1212.75" y="-130.5" font-family="Helvetica,sans-Serif" font-size="10.00">Loader.hpp</text>
</a>
</g>
</g>
<!-- Node26&#45;&gt;Node27 -->
<g id="edge39_Node000026_Node000027" class="edge">
<title>Node26&#45;&gt;Node27</title>
<g id="a_edge39_Node000026_Node000027"><a xlink:title=" ">
<path fill="none" stroke="#63b8ff" d="M1221.15,-180.6C1219.39,-172.32 1217.51,-163.46 1215.98,-156.22"/>
<polygon fill="#63b8ff" stroke="#63b8ff" points="1217.69,-181.16 1223.19,-190.21 1224.54,-179.7 1217.69,-181.16"/>
</a>
</g>
</g>
<!-- Node27&#45;&gt;Node5 -->
<g id="edge41_Node000027_Node000005" class="edge">
<title>Node27&#45;&gt;Node5</title>
<g id="a_edge41_Node000027_Node000005"><a xlink:title=" ">
<path fill="none" stroke="#63b8ff" d="M1128.58,-125.74C1124.58,-125.14 1120.62,-124.56 1116.75,-124 996.5,-106.62 965.53,-108.4 845.75,-88 836.31,-86.39 826.22,-84.44 816.67,-82.48"/>
<polygon fill="#63b8ff" stroke="#63b8ff" points="1128.01,-129.19 1138.42,-127.22 1129.05,-122.27 1128.01,-129.19"/>
</a>
</g>
</g>
<!-- Node28 -->
<g id="Node000028" class="node">
<title>Node28</title>
<g id="a_Node000028"><a xlink:href="CustomStringsLoader_8cpp.html" target="_top" xlink:title=" ">
<polygon fill="white" stroke="#666666" points="1613.25,-88 1468.25,-88 1468.25,-56 1613.25,-56 1613.25,-88"/>
<text xml:space="preserve" text-anchor="start" x="1476.25" y="-74.5" font-family="Helvetica,sans-Serif" font-size="10.00">src/Utils/Json/CustomStrings</text>
<text xml:space="preserve" text-anchor="middle" x="1540.75" y="-62.5" font-family="Helvetica,sans-Serif" font-size="10.00">Loader.cpp</text>
</a>
</g>
</g>
<!-- Node27&#45;&gt;Node28 -->
<g id="edge40_Node000027_Node000028" class="edge">
<title>Node27&#45;&gt;Node28</title>
<g id="a_edge40_Node000027_Node000028"><a xlink:title=" ">
<path fill="none" stroke="#63b8ff" d="M1296.6,-122.13C1349.52,-111.48 1417.2,-97.86 1467.88,-87.66"/>
<polygon fill="#63b8ff" stroke="#63b8ff" points="1296.14,-118.65 1287.03,-124.05 1297.52,-125.51 1296.14,-118.65"/>
</a>
</g>
</g>
<!-- Node29&#45;&gt;Node6 -->
<g id="edge46_Node000029_Node000006" class="edge">
<title>Node29&#45;&gt;Node6</title>
<g id="a_edge46_Node000029_Node000006"><a xlink:title=" ">
<path fill="none" stroke="#63b8ff" d="M1049.92,-186.28C1048.29,-174.27 1046.31,-159.74 1045.04,-150.44"/>
<polygon fill="#63b8ff" stroke="#63b8ff" points="1046.44,-186.61 1051.26,-196.04 1053.37,-185.66 1046.44,-186.61"/>
</a>
</g>
</g>
<!-- Node29&#45;&gt;Node18 -->
<g id="edge45_Node000029_Node000018" class="edge">
<title>Node29&#45;&gt;Node18</title>
<g id="a_edge45_Node000029_Node000018"><a xlink:title=" ">
<path fill="none" stroke="#63b8ff" d="M985.79,-195.7C978.02,-194.43 970.21,-193.17 962.75,-192 854.46,-174.99 827.02,-173.11 718.75,-156 707.76,-154.26 696.02,-152.34 684.79,-150.46"/>
<polygon fill="#63b8ff" stroke="#63b8ff" points="985.16,-199.14 995.59,-197.31 986.29,-192.23 985.16,-199.14"/>
</a>
</g>
</g>
<!-- Node29&#45;&gt;Node27 -->
<g id="edge44_Node000029_Node000027" class="edge">
<title>Node29&#45;&gt;Node27</title>
<g id="a_edge44_Node000029_Node000027"><a xlink:title=" ">
<path fill="none" stroke="#63b8ff" d="M1086.16,-193.22C1112.2,-182.48 1148.34,-167.57 1175.35,-156.43"/>
<polygon fill="#63b8ff" stroke="#63b8ff" points="1084.98,-189.92 1077.07,-196.97 1087.65,-196.39 1084.98,-189.92"/>
</a>
</g>
</g>
<!-- Node30&#45;&gt;Node6 -->
<g id="edge60_Node000030_Node000006" class="edge">
<title>Node30&#45;&gt;Node6</title>
<g id="a_edge60_Node000030_Node000006"><a xlink:title=" ">
<path fill="none" stroke="#63b8ff" d="M1560.02,-202.08C1468.36,-194.13 1285.81,-177.17 1131.75,-156 1120.08,-154.4 1107.58,-152.42 1095.78,-150.44"/>
<polygon fill="#63b8ff" stroke="#63b8ff" points="1559.5,-205.55 1569.77,-202.92 1560.1,-198.58 1559.5,-205.55"/>
</a>
</g>
</g>
<!-- Node31 -->
<g id="Node000031" class="node">
<title>Node31</title>
<g id="a_Node000031"><a xlink:href="EmscriptenPlatformInfo_8hpp.html" target="_top" xlink:title=" ">
<polygon fill="white" stroke="#666666" points="1916,-156 1775.5,-156 1775.5,-124 1916,-124 1916,-156"/>
<text xml:space="preserve" text-anchor="start" x="1783.5" y="-142.5" font-family="Helvetica,sans-Serif" font-size="10.00">src/Utils/Platform</text>
<text xml:space="preserve" text-anchor="middle" x="1845.75" y="-130.5" font-family="Helvetica,sans-Serif" font-size="10.00">/EmscriptenPlatformInfo.hpp</text>
</a>
</g>
</g>
<!-- Node30&#45;&gt;Node31 -->
<g id="edge48_Node000030_Node000031" class="edge">
<title>Node30&#45;&gt;Node31</title>
<g id="a_edge48_Node000030_Node000031"><a xlink:title=" ">
<path fill="none" stroke="#63b8ff" d="M1676.79,-190.12C1712.46,-179.75 1757.81,-166.57 1792.54,-156.47"/>
<polygon fill="#63b8ff" stroke="#63b8ff" points="1676.14,-186.67 1667.51,-192.82 1678.09,-193.39 1676.14,-186.67"/>
</a>
</g>
</g>
<!-- Node34 -->
<g id="Node000034" class="node">
<title>Node34</title>
<g id="a_Node000034"><a xlink:href="PlatformInfoFactory_8hpp.html" target="_top" xlink:title=" ">
<polygon fill="white" stroke="#666666" points="1608.38,-156 1485.12,-156 1485.12,-124 1608.38,-124 1608.38,-156"/>
<text xml:space="preserve" text-anchor="start" x="1493.12" y="-142.5" font-family="Helvetica,sans-Serif" font-size="10.00">src/Utils/Platform</text>
<text xml:space="preserve" text-anchor="middle" x="1546.75" y="-130.5" font-family="Helvetica,sans-Serif" font-size="10.00">/PlatformInfoFactory.hpp</text>
</a>
</g>
</g>
<!-- Node30&#45;&gt;Node34 -->
<g id="edge51_Node000030_Node000034" class="edge">
<title>Node30&#45;&gt;Node34</title>
<g id="a_edge51_Node000030_Node000034"><a xlink:title=" ">
<path fill="none" stroke="#63b8ff" d="M1593.65,-183.99C1583.62,-174.79 1572.34,-164.46 1563.36,-156.22"/>
<polygon fill="#63b8ff" stroke="#63b8ff" points="1591.2,-186.49 1600.94,-190.67 1595.93,-181.33 1591.2,-186.49"/>
</a>
</g>
</g>
<!-- Node35 -->
<g id="Node000035" class="node">
<title>Node35</title>
<g id="a_Node000035"><a xlink:href="UnixPlatformInfo_8hpp.html" target="_top" xlink:title=" ">
<polygon fill="white" stroke="#666666" points="2045.38,-156 1934.12,-156 1934.12,-124 2045.38,-124 2045.38,-156"/>
<text xml:space="preserve" text-anchor="start" x="1942.12" y="-142.5" font-family="Helvetica,sans-Serif" font-size="10.00">src/Utils/Platform</text>
<text xml:space="preserve" text-anchor="middle" x="1989.75" y="-130.5" font-family="Helvetica,sans-Serif" font-size="10.00">/UnixPlatformInfo.hpp</text>
</a>
</g>
</g>
<!-- Node30&#45;&gt;Node35 -->
<g id="edge54_Node000030_Node000035" class="edge">
<title>Node30&#45;&gt;Node35</title>
<g id="a_edge54_Node000030_Node000035"><a xlink:title=" ">
<path fill="none" stroke="#63b8ff" d="M1677.16,-198.36C1738.88,-188.98 1838.96,-173.03 1924.75,-156 1927.7,-155.41 1930.73,-154.79 1933.78,-154.15"/>
<polygon fill="#63b8ff" stroke="#63b8ff" points="1676.95,-194.85 1667.59,-199.81 1678,-201.77 1676.95,-194.85"/>
</a>
</g>
</g>
<!-- Node37 -->
<g id="Node000037" class="node">
<title>Node37</title>
<g id="a_Node000037"><a xlink:href="WindowsPlatformInfo_8hpp.html" target="_top" xlink:title=" ">
<polygon fill="white" stroke="#666666" points="1757.5,-156 1626,-156 1626,-124 1757.5,-124 1757.5,-156"/>
<text xml:space="preserve" text-anchor="start" x="1634" y="-142.5" font-family="Helvetica,sans-Serif" font-size="10.00">src/Utils/Platform</text>
<text xml:space="preserve" text-anchor="middle" x="1691.75" y="-130.5" font-family="Helvetica,sans-Serif" font-size="10.00">/WindowsPlatformInfo.hpp</text>
</a>
</g>
</g>
<!-- Node30&#45;&gt;Node37 -->
<g id="edge57_Node000030_Node000037" class="edge">
<title>Node30&#45;&gt;Node37</title>
<g id="a_edge57_Node000030_Node000037"><a xlink:title=" ">
<path fill="none" stroke="#63b8ff" d="M1644.14,-184.05C1654.23,-174.92 1665.57,-164.67 1674.66,-156.45"/>
<polygon fill="#63b8ff" stroke="#63b8ff" points="1641.87,-181.37 1636.8,-190.68 1646.57,-186.57 1641.87,-181.37"/>
</a>
</g>
</g>
<!-- Node32 -->
<g id="Node000032" class="node">
<title>Node32</title>
<g id="a_Node000032"><a xlink:href="EmscriptenPlatformInfo_8cpp.html" target="_top" xlink:title=" ">
<polygon fill="white" stroke="#666666" points="2062,-88 1921.5,-88 1921.5,-56 2062,-56 2062,-88"/>
<text xml:space="preserve" text-anchor="start" x="1929.5" y="-74.5" font-family="Helvetica,sans-Serif" font-size="10.00">src/Utils/Platform</text>
<text xml:space="preserve" text-anchor="middle" x="1991.75" y="-62.5" font-family="Helvetica,sans-Serif" font-size="10.00">/EmscriptenPlatformInfo.cpp</text>
</a>
</g>
</g>
<!-- Node31&#45;&gt;Node32 -->
<g id="edge49_Node000031_Node000032" class="edge">
<title>Node31&#45;&gt;Node32</title>
<g id="a_edge49_Node000031_Node000032"><a xlink:title=" ">
<path fill="none" stroke="#63b8ff" d="M1890.23,-118.89C1911.84,-109.12 1937.41,-97.56 1957.48,-88.49"/>
<polygon fill="#63b8ff" stroke="#63b8ff" points="1889.03,-115.59 1881.36,-122.9 1891.91,-121.97 1889.03,-115.59"/>
</a>
</g>
</g>
<!-- Node33 -->
<g id="Node000033" class="node">
<title>Node33</title>
<g id="a_Node000033"><a xlink:href="PlatformInfoFactory_8cpp.html" target="_top" xlink:title=" ">
<polygon fill="white" stroke="#666666" points="1903.38,-88 1780.12,-88 1780.12,-56 1903.38,-56 1903.38,-88"/>
<text xml:space="preserve" text-anchor="start" x="1788.12" y="-74.5" font-family="Helvetica,sans-Serif" font-size="10.00">src/Utils/Platform</text>
<text xml:space="preserve" text-anchor="middle" x="1841.75" y="-62.5" font-family="Helvetica,sans-Serif" font-size="10.00">/PlatformInfoFactory.cpp</text>
</a>
</g>
</g>
<!-- Node31&#45;&gt;Node33 -->
<g id="edge50_Node000031_Node000033" class="edge">
<title>Node31&#45;&gt;Node33</title>
<g id="a_edge50_Node000031_Node000033"><a xlink:title=" ">
<path fill="none" stroke="#63b8ff" d="M1844.13,-112.31C1843.64,-104.12 1843.11,-95.38 1842.67,-88.22"/>
<polygon fill="#63b8ff" stroke="#63b8ff" points="1840.63,-112.41 1844.73,-122.18 1847.62,-111.99 1840.63,-112.41"/>
</a>
</g>
</g>
<!-- Node34&#45;&gt;Node5 -->
<g id="edge53_Node000034_Node000005" class="edge">
<title>Node34&#45;&gt;Node5</title>
<g id="a_edge53_Node000034_Node000005"><a xlink:title=" ">
<path fill="none" stroke="#63b8ff" d="M1473.28,-134.21C1306.03,-123.23 906.63,-96.52 845.75,-88 835.51,-86.57 824.54,-84.54 814.33,-82.44"/>
<polygon fill="#63b8ff" stroke="#63b8ff" points="1472.96,-137.7 1483.17,-134.86 1473.42,-130.71 1472.96,-137.7"/>
</a>
</g>
</g>
<!-- Node34&#45;&gt;Node33 -->
<g id="edge52_Node000034_Node000033" class="edge">
<title>Node34&#45;&gt;Node33</title>
<g id="a_edge52_Node000034_Node000033"><a xlink:title=" ">
<path fill="none" stroke="#63b8ff" d="M1619.79,-122.66C1668.95,-111.66 1733.06,-97.32 1779.74,-86.87"/>
<polygon fill="#63b8ff" stroke="#63b8ff" points="1619.06,-119.23 1610.07,-124.83 1620.59,-126.07 1619.06,-119.23"/>
</a>
</g>
</g>
<!-- Node35&#45;&gt;Node33 -->
<g id="edge55_Node000035_Node000033" class="edge">
<title>Node35&#45;&gt;Node33</title>
<g id="a_edge55_Node000035_Node000033"><a xlink:title=" ">
<path fill="none" stroke="#63b8ff" d="M1944.66,-118.89C1922.75,-109.12 1896.83,-97.56 1876.49,-88.49"/>
<polygon fill="#63b8ff" stroke="#63b8ff" points="1943.11,-122.03 1953.67,-122.91 1945.96,-115.64 1943.11,-122.03"/>
</a>
</g>
</g>
<!-- Node36 -->
<g id="Node000036" class="node">
<title>Node36</title>
<g id="a_Node000036"><a xlink:href="UnixPlatformInfo_8cpp.html" target="_top" xlink:title=" ">
<polygon fill="white" stroke="#666666" points="2191.38,-88 2080.12,-88 2080.12,-56 2191.38,-56 2191.38,-88"/>
<text xml:space="preserve" text-anchor="start" x="2088.12" y="-74.5" font-family="Helvetica,sans-Serif" font-size="10.00">src/Utils/Platform</text>
<text xml:space="preserve" text-anchor="middle" x="2135.75" y="-62.5" font-family="Helvetica,sans-Serif" font-size="10.00">/UnixPlatformInfo.cpp</text>
</a>
</g>
</g>
<!-- Node35&#45;&gt;Node36 -->
<g id="edge56_Node000035_Node000036" class="edge">
<title>Node35&#45;&gt;Node36</title>
<g id="a_edge56_Node000035_Node000036"><a xlink:title=" ">
<path fill="none" stroke="#63b8ff" d="M2034.23,-118.89C2055.84,-109.12 2081.41,-97.56 2101.48,-88.49"/>
<polygon fill="#63b8ff" stroke="#63b8ff" points="2033.03,-115.59 2025.36,-122.9 2035.91,-121.97 2033.03,-115.59"/>
</a>
</g>
</g>
<!-- Node37&#45;&gt;Node33 -->
<g id="edge58_Node000037_Node000033" class="edge">
<title>Node37&#45;&gt;Node33</title>
<g id="a_edge58_Node000037_Node000033"><a xlink:title=" ">
<path fill="none" stroke="#63b8ff" d="M1737.45,-118.89C1759.65,-109.12 1785.92,-97.56 1806.54,-88.49"/>
<polygon fill="#63b8ff" stroke="#63b8ff" points="1736.05,-115.69 1728.3,-122.92 1738.87,-122.09 1736.05,-115.69"/>
</a>
</g>
</g>
<!-- Node38 -->
<g id="Node000038" class="node">
<title>Node38</title>
<g id="a_Node000038"><a xlink:href="WindowsPlatformInfo_8cpp.html" target="_top" xlink:title=" ">
<polygon fill="white" stroke="#666666" points="1762.5,-88 1631,-88 1631,-56 1762.5,-56 1762.5,-88"/>
<text xml:space="preserve" text-anchor="start" x="1639" y="-74.5" font-family="Helvetica,sans-Serif" font-size="10.00">src/Utils/Platform</text>
<text xml:space="preserve" text-anchor="middle" x="1696.75" y="-62.5" font-family="Helvetica,sans-Serif" font-size="10.00">/WindowsPlatformInfo.cpp</text>
</a>
</g>
</g>
<!-- Node37&#45;&gt;Node38 -->
<g id="edge59_Node000037_Node000038" class="edge">
<title>Node37&#45;&gt;Node38</title>
<g id="a_edge59_Node000037_Node000038"><a xlink:title=" ">
<path fill="none" stroke="#63b8ff" d="M1693.77,-112.31C1694.39,-104.12 1695.05,-95.38 1695.6,-88.22"/>
<polygon fill="#63b8ff" stroke="#63b8ff" points="1690.29,-111.95 1693.02,-122.18 1697.27,-112.48 1690.29,-111.95"/>
</a>
</g>
</g>
</g>
</svg>

<g id="navigator" transform="translate(0 0)" fill="#404254">
  <rect fill="#f2f5e9" fill-opacity="0.5" stroke="#606060" stroke-width=".5" x="0" y="0" width="60" height="60"/>
  <use id="zoomplus" xlink:href="#zoomPlus" x="17" y="9" onmousedown="handleZoom(evt,'in')"/>
  <use id="zoomminus" xlink:href="#zoomMin" x="42" y="9" onmousedown="handleZoom(evt,'out')"/>
  <use id="reset" xlink:href="#resetDef" x="30" y="36" onmousedown="handleReset()"/>
   <use id="arrowup" xlink:href="#arrowUp" x="0" y="0" onmousedown="handlePan(0,-1)"/>
  <use id="arrowright" xlink:href="#arrowRight" x="0" y="0" onmousedown="handlePan(1,0)"/>
  <use id="arrowdown" xlink:href="#arrowDown" x="0" y="0" onmousedown="handlePan(0,1)"/>
  <use id="arrowleft" xlink:href="#arrowLeft" x="0" y="0" onmousedown="handlePan(-1,0)"/>
</g>
<svg viewBox="0 0 15 15" width="100%" height="30px" preserveAspectRatio="xMaxYMin meet">
 <g id="arrow_out" transform="scale(0.3 0.3)">
  <a xlink:href="UtilsError_8hpp__dep__incl_org.svg" target="_base">
   <rect id="button" ry="5" rx="5" y="6" x="6" height="38" width="38"
        fill="#f2f5e9" fill-opacity="0.5" stroke="#606060" stroke-width="1.0"/>
   <path id="arrow"
     d="M 11.500037,31.436501 C 11.940474,20.09759 22.043105,11.32322 32.158766,21.979434 L 37.068811,17.246167 C 37.068811,17.246167 37.088388,32 37.088388,32 L 22.160133,31.978069 C 22.160133,31.978069 26.997745,27.140456 26.997745,27.140456 C 18.528582,18.264221 13.291696,25.230495 11.500037,31.436501 z"
     style="fill:#404040;"/>
  </a>
 </g>
</svg>

<style type='text/css'>
<![CDATA[
[data-mouse-over-selected='false'] { opacity: 0.7; }
[data-mouse-over-selected='true']  { opacity: 1.0; }
]]>
</style>
<script type="application/ecmascript"><![CDATA[
document.addEventListener('DOMContentLoaded', (event) => {
  highlightEdges();
  highlightAdjacentNodes();
});
]]></script>
</svg>
