<?xml version="1.0" encoding="UTF-8" standalone="no"?>
<!DOCTYPE svg PUBLIC "-//W3C//DTD SVG 1.1//EN"
 "http://www.w3.org/Graphics/SVG/1.1/DTD/svg11.dtd">
<!-- Generated by graphviz version 13.1.2 (20250808.2320)
 -->
<!-- Title: src/Utils/UtilsFactory.hpp Pages: 1 -->
<!--zoomable 208 -->

<svg id="main" version="1.1" xmlns="http://www.w3.org/2000/svg" xmlns:xlink="http://www.w3.org/1999/xlink" xml:space="preserve" onload="init(evt)">

<style type="text/css"><![CDATA[
.node, .edge {opacity: 0.7;}
.node.selected, .edge.selected {opacity: 1;}
.edge:hover path { stroke: red; }
.edge:hover polygon { stroke: red; fill: red; }
]]></style>

<defs>
  <circle id="rim" cx="0" cy="0" r="7"/>
  <circle id="rim2" cx="0" cy="0" r="3.5"/>
  <g id="zoomPlus">
    <use xlink:href="#rim" fill="#404040"><set attributeName="fill" to="#808080" begin="zoomplus.mouseover" end="zoomplus.mouseout"/></use>
    <path d="M-4,0h8M0,-4v8" fill="none" stroke="white" stroke-width="1.5" pointer-events="none"/>
  </g>
  <g id="zoomMin">
    <use xlink:href="#rim" fill="#404040"><set attributeName="fill" to="#808080" begin="zoomminus.mouseover" end="zoomminus.mouseout"/></use>
    <path d="M-4,0h8" fill="none" stroke="white" stroke-width="1.5" pointer-events="none"/>
  </g>
  <g id="arrowUp" transform="translate(30 24)">
    <use xlink:href="#rim"/>
    <path pointer-events="none" fill="none" stroke="white" stroke-width="1.5" d="M0,-3.0v7 M-2.5,-0.5L0,-3.0L2.5,-0.5"/>
  </g>
  <g id="arrowRight" transform="rotate(90) translate(36 -43)">
    <use xlink:href="#rim"/>
    <path pointer-events="none" fill="none" stroke="white" stroke-width="1.5" d="M0,-3.0v7 M-2.5,-0.5L0,-3.0L2.5,-0.5"/>
  </g>
  <g id="arrowDown" transform="rotate(180) translate(-30 -48)">
    <use xlink:href="#rim"/>
    <path pointer-events="none" fill="none" stroke="white" stroke-width="1.5" d="M0,-3.0v7 M-2.5,-0.5L0,-3.0L2.5,-0.5"/>
  </g>
  <g id="arrowLeft" transform="rotate(270) translate(-36 17)">
    <use xlink:href="#rim"/>
    <path pointer-events="none" fill="none" stroke="white" stroke-width="1.5" d="M0,-3.0v7 M-2.5,-0.5L0,-3.0L2.5,-0.5"/>
  </g>
  <g id="resetDef">
    <use xlink:href="#rim2" fill="#404040"><set attributeName="fill" to="#808080" begin="reset.mouseover" end="reset.mouseout"/></use>
  </g>
</defs>
<script type="application/ecmascript">
var viewWidth = 562;
var viewHeight = 208;
var sectionId = 'dynsection-1';
</script>
<script type="application/ecmascript" xlink:href="svg.min.js"/>
<svg id="graph" class="graph">
<g id="viewport">
<title>src/Utils/UtilsFactory.hpp</title>
<!-- Node1 -->
<g id="Node000001" class="node">
<title>Node1</title>
<g id="a_Node000001"><a xlink:title=" ">
<polygon fill="#999999" stroke="#666666" points="369.88,-200 242.88,-200 242.88,-180 369.88,-180 369.88,-200"/>
<text xml:space="preserve" text-anchor="middle" x="306.38" y="-186.5" font-family="Helvetica,sans-Serif" font-size="10.00">src/Utils/UtilsFactory.hpp</text>
</a>
</g>
</g>
<!-- Node2 -->
<g id="Node000002" class="node">
<title>Node2</title>
<g id="a_Node000002"><a xlink:href="Application_8cpp.html" target="_top" xlink:title=" ">
<polygon fill="white" stroke="#666666" points="148.75,-76 0,-76 0,-56 148.75,-56 148.75,-76"/>
<text xml:space="preserve" text-anchor="middle" x="74.38" y="-62.5" font-family="Helvetica,sans-Serif" font-size="10.00">application/src/Application.cpp</text>
</a>
</g>
</g>
<!-- Node1&#45;&gt;Node2 -->
<g id="edge1_Node000001_Node000002" class="edge">
<title>Node1&#45;&gt;Node2</title>
<g id="a_edge1_Node000001_Node000002"><a xlink:title=" ">
<path fill="none" stroke="#63b8ff" d="M231.23,-181.26C178.81,-174.36 114.9,-162.46 95.38,-144 76.34,-126.01 73.97,-92.61 74.03,-76.37"/>
<polygon fill="#63b8ff" stroke="#63b8ff" points="230.7,-184.72 241.06,-182.51 231.58,-177.78 230.7,-184.72"/>
</a>
</g>
</g>
<!-- Node3 -->
<g id="Node000003" class="node">
<title>Node3</title>
<g id="a_Node000003"><a xlink:href="DotNameBotLib_8hpp.html" target="_top" xlink:title=" ">
<polygon fill="white" stroke="#666666" points="224.12,-144 104.62,-144 104.62,-112 224.12,-112 224.12,-144"/>
<text xml:space="preserve" text-anchor="start" x="112.62" y="-130.5" font-family="Helvetica,sans-Serif" font-size="10.00">include/DotNameBotLib</text>
<text xml:space="preserve" text-anchor="middle" x="164.38" y="-118.5" font-family="Helvetica,sans-Serif" font-size="10.00">/DotNameBotLib.hpp</text>
</a>
</g>
</g>
<!-- Node1&#45;&gt;Node3 -->
<g id="edge2_Node000001_Node000003" class="edge">
<title>Node1&#45;&gt;Node3</title>
<g id="a_edge2_Node000001_Node000003"><a xlink:title=" ">
<path fill="none" stroke="#63b8ff" d="M273.84,-175.25C252.13,-166.08 223.55,-154 201.04,-144.49"/>
<polygon fill="#63b8ff" stroke="#63b8ff" points="272.22,-178.37 282.79,-179.04 274.94,-171.92 272.22,-178.37"/>
</a>
</g>
</g>
<!-- Node5 -->
<g id="Node000005" class="node">
<title>Node5</title>
<g id="a_Node000005"><a xlink:href="DiscordBot_8hpp.html" target="_top" xlink:title=" ">
<polygon fill="white" stroke="#666666" points="540.25,-76 388.5,-76 388.5,-56 540.25,-56 540.25,-76"/>
<text xml:space="preserve" text-anchor="middle" x="464.38" y="-62.5" font-family="Helvetica,sans-Serif" font-size="10.00">src/DiscordBot/DiscordBot.hpp</text>
</a>
</g>
</g>
<!-- Node1&#45;&gt;Node5 -->
<g id="edge5_Node000001_Node000005" class="edge">
<title>Node1&#45;&gt;Node5</title>
<g id="a_edge5_Node000001_Node000005"><a xlink:title=" ">
<path fill="none" stroke="#63b8ff" d="M333.12,-174.11C347.28,-165.84 364.72,-155.01 379.38,-144 408.99,-121.76 440.44,-91.19 455.43,-76.13"/>
<polygon fill="#63b8ff" stroke="#63b8ff" points="331.71,-170.88 324.79,-178.9 335.2,-176.95 331.71,-170.88"/>
</a>
</g>
</g>
<!-- Node7 -->
<g id="Node000007" class="node">
<title>Node7</title>
<g id="a_Node000007"><a xlink:href="RssManager_8hpp.html" target="_top" xlink:title=" ">
<polygon fill="white" stroke="#666666" points="370.25,-138 242.5,-138 242.5,-118 370.25,-118 370.25,-138"/>
<text xml:space="preserve" text-anchor="middle" x="306.38" y="-124.5" font-family="Helvetica,sans-Serif" font-size="10.00">src/Rss/RssManager.hpp</text>
</a>
</g>
</g>
<!-- Node1&#45;&gt;Node7 -->
<g id="edge8_Node000001_Node000007" class="edge">
<title>Node1&#45;&gt;Node7</title>
<g id="a_edge8_Node000001_Node000007"><a xlink:title=" ">
<path fill="none" stroke="#63b8ff" d="M306.38,-168.25C306.38,-157.97 306.38,-146.09 306.38,-138.11"/>
<polygon fill="#63b8ff" stroke="#63b8ff" points="302.88,-168.11 306.38,-178.11 309.88,-168.11 302.88,-168.11"/>
</a>
</g>
</g>
<!-- Node9 -->
<g id="Node000009" class="node">
<title>Node9</title>
<g id="a_Node000009"><a xlink:href="UtilsFactory_8cpp.html" target="_top" xlink:title=" ">
<polygon fill="white" stroke="#666666" points="553.88,-138 426.88,-138 426.88,-118 553.88,-118 553.88,-138"/>
<text xml:space="preserve" text-anchor="middle" x="490.38" y="-124.5" font-family="Helvetica,sans-Serif" font-size="10.00">src/Utils/UtilsFactory.cpp</text>
</a>
</g>
</g>
<!-- Node1&#45;&gt;Node9 -->
<g id="edge12_Node000001_Node000009" class="edge">
<title>Node1&#45;&gt;Node9</title>
<g id="a_edge12_Node000001_Node000009"><a xlink:title=" ">
<path fill="none" stroke="#63b8ff" d="M345.84,-176.13C380.59,-164.8 430.38,-148.56 461.52,-138.41"/>
<polygon fill="#63b8ff" stroke="#63b8ff" points="344.99,-172.73 336.56,-179.16 347.16,-179.38 344.99,-172.73"/>
</a>
</g>
</g>
<!-- Node3&#45;&gt;Node2 -->
<g id="edge3_Node000003_Node000002" class="edge">
<title>Node3&#45;&gt;Node2</title>
<g id="a_edge3_Node000003_Node000002"><a xlink:title=" ">
<path fill="none" stroke="#63b8ff" d="M131.78,-105.27C116.9,-95.35 100.06,-84.12 88.49,-76.41"/>
<polygon fill="#63b8ff" stroke="#63b8ff" points="129.68,-108.07 139.94,-110.71 133.56,-102.25 129.68,-108.07"/>
</a>
</g>
</g>
<!-- Node4 -->
<g id="Node000004" class="node">
<title>Node4</title>
<g id="a_Node000004"><a xlink:href="DotNameBotLib_8cpp.html" target="_top" xlink:title=" ">
<polygon fill="white" stroke="#666666" points="274.88,-20 153.88,-20 153.88,0 274.88,0 274.88,-20"/>
<text xml:space="preserve" text-anchor="middle" x="214.38" y="-6.5" font-family="Helvetica,sans-Serif" font-size="10.00">src/DotNameBotLib.cpp</text>
</a>
</g>
</g>
<!-- Node3&#45;&gt;Node4 -->
<g id="edge4_Node000003_Node000004" class="edge">
<title>Node3&#45;&gt;Node4</title>
<g id="a_edge4_Node000003_Node000004"><a xlink:title=" ">
<path fill="none" stroke="#63b8ff" d="M175.41,-101.41C186.43,-75.84 202.78,-37.91 210.31,-20.44"/>
<polygon fill="#63b8ff" stroke="#63b8ff" points="172.25,-99.88 171.51,-110.45 178.68,-102.65 172.25,-99.88"/>
</a>
</g>
</g>
<!-- Node5&#45;&gt;Node4 -->
<g id="edge7_Node000005_Node000004" class="edge">
<title>Node5&#45;&gt;Node4</title>
<g id="a_edge7_Node000005_Node000004"><a xlink:title=" ">
<path fill="none" stroke="#63b8ff" d="M409.4,-53.13C363.94,-43.31 300.23,-29.54 258.16,-20.46"/>
<polygon fill="#63b8ff" stroke="#63b8ff" points="408.55,-56.52 419.06,-55.21 410.03,-49.68 408.55,-56.52"/>
</a>
</g>
</g>
<!-- Node6 -->
<g id="Node000006" class="node">
<title>Node6</title>
<g id="a_Node000006"><a xlink:href="DiscordBot_8cpp.html" target="_top" xlink:title=" ">
<polygon fill="white" stroke="#666666" points="540.25,-20 388.5,-20 388.5,0 540.25,0 540.25,-20"/>
<text xml:space="preserve" text-anchor="middle" x="464.38" y="-6.5" font-family="Helvetica,sans-Serif" font-size="10.00">src/DiscordBot/DiscordBot.cpp</text>
</a>
</g>
</g>
<!-- Node5&#45;&gt;Node6 -->
<g id="edge6_Node000005_Node000006" class="edge">
<title>Node5&#45;&gt;Node6</title>
<g id="a_edge6_Node000005_Node000006"><a xlink:title=" ">
<path fill="none" stroke="#63b8ff" d="M464.38,-44.13C464.38,-35.9 464.38,-26.85 464.38,-20.3"/>
<polygon fill="#63b8ff" stroke="#63b8ff" points="460.88,-44.08 464.38,-54.08 467.88,-44.08 460.88,-44.08"/>
</a>
</g>
</g>
<!-- Node7&#45;&gt;Node4 -->
<g id="edge10_Node000007_Node000004" class="edge">
<title>Node7&#45;&gt;Node4</title>
<g id="a_edge10_Node000007_Node000004"><a xlink:title=" ">
<path fill="none" stroke="#63b8ff" d="M276.01,-112.1C261.21,-103.43 244.29,-91.2 233.38,-76 221.03,-58.81 216.65,-33.66 215.14,-20.24"/>
<polygon fill="#63b8ff" stroke="#63b8ff" points="274.05,-115.02 284.49,-116.79 277.44,-108.89 274.05,-115.02"/>
</a>
</g>
</g>
<!-- Node7&#45;&gt;Node5 -->
<g id="edge9_Node000007_Node000005" class="edge">
<title>Node7&#45;&gt;Node5</title>
<g id="a_edge9_Node000007_Node000005"><a xlink:title=" ">
<path fill="none" stroke="#63b8ff" d="M341.82,-113.54C371.58,-102.24 413.32,-86.39 439.6,-76.41"/>
<polygon fill="#63b8ff" stroke="#63b8ff" points="340.58,-110.27 332.48,-117.09 343.07,-116.81 340.58,-110.27"/>
</a>
</g>
</g>
<!-- Node8 -->
<g id="Node000008" class="node">
<title>Node8</title>
<g id="a_Node000008"><a xlink:href="RssManager_8cpp.html" target="_top" xlink:title=" ">
<polygon fill="white" stroke="#666666" points="370.25,-76 242.5,-76 242.5,-56 370.25,-56 370.25,-76"/>
<text xml:space="preserve" text-anchor="middle" x="306.38" y="-62.5" font-family="Helvetica,sans-Serif" font-size="10.00">src/Rss/RssManager.cpp</text>
</a>
</g>
</g>
<!-- Node7&#45;&gt;Node8 -->
<g id="edge11_Node000007_Node000008" class="edge">
<title>Node7&#45;&gt;Node8</title>
<g id="a_edge11_Node000007_Node000008"><a xlink:title=" ">
<path fill="none" stroke="#63b8ff" d="M306.38,-106.25C306.38,-95.97 306.38,-84.09 306.38,-76.11"/>
<polygon fill="#63b8ff" stroke="#63b8ff" points="302.88,-106.11 306.38,-116.11 309.88,-106.11 302.88,-106.11"/>
</a>
</g>
</g>
</g>
</svg>

<g id="navigator" transform="translate(0 0)" fill="#404254">
  <rect fill="#f2f5e9" fill-opacity="0.5" stroke="#606060" stroke-width=".5" x="0" y="0" width="60" height="60"/>
  <use id="zoomplus" xlink:href="#zoomPlus" x="17" y="9" onmousedown="handleZoom(evt,'in')"/>
  <use id="zoomminus" xlink:href="#zoomMin" x="42" y="9" onmousedown="handleZoom(evt,'out')"/>
  <use id="reset" xlink:href="#resetDef" x="30" y="36" onmousedown="handleReset()"/>
   <use id="arrowup" xlink:href="#arrowUp" x="0" y="0" onmousedown="handlePan(0,-1)"/>
  <use id="arrowright" xlink:href="#arrowRight" x="0" y="0" onmousedown="handlePan(1,0)"/>
  <use id="arrowdown" xlink:href="#arrowDown" x="0" y="0" onmousedown="handlePan(0,1)"/>
  <use id="arrowleft" xlink:href="#arrowLeft" x="0" y="0" onmousedown="handlePan(-1,0)"/>
</g>
<svg viewBox="0 0 15 15" width="100%" height="30px" preserveAspectRatio="xMaxYMin meet">
 <g id="arrow_out" transform="scale(0.3 0.3)">
  <a xlink:href="UtilsFactory_8hpp__dep__incl_org.svg" target="_base">
   <rect id="button" ry="5" rx="5" y="6" x="6" height="38" width="38"
        fill="#f2f5e9" fill-opacity="0.5" stroke="#606060" stroke-width="1.0"/>
   <path id="arrow"
     d="M 11.500037,31.436501 C 11.940474,20.09759 22.043105,11.32322 32.158766,21.979434 L 37.068811,17.246167 C 37.068811,17.246167 37.088388,32 37.088388,32 L 22.160133,31.978069 C 22.160133,31.978069 26.997745,27.140456 26.997745,27.140456 C 18.528582,18.264221 13.291696,25.230495 11.500037,31.436501 z"
     style="fill:#404040;"/>
  </a>
 </g>
</svg>

<style type='text/css'>
<![CDATA[
[data-mouse-over-selected='false'] { opacity: 0.7; }
[data-mouse-over-selected='true']  { opacity: 1.0; }
]]>
</style>
<script type="application/ecmascript"><![CDATA[
document.addEventListener('DOMContentLoaded', (event) => {
  highlightEdges();
  highlightAdjacentNodes();
});
]]></script>
</svg>
