<?xml version="1.0" encoding="UTF-8" standalone="no"?>
<!DOCTYPE svg PUBLIC "-//W3C//DTD SVG 1.1//EN"
 "http://www.w3.org/Graphics/SVG/1.1/DTD/svg11.dtd">
<!-- Generated by graphviz version 13.1.2 (20250808.2320)
 -->
<!-- Title: src/Utils/UtilsError.hpp Pages: 1 -->
<svg width="2068pt" height="344pt"
 viewBox="0.00 0.00 2068.00 344.00" xmlns="http://www.w3.org/2000/svg" xmlns:xlink="http://www.w3.org/1999/xlink">
<g id="graph0" class="graph" transform="scale(1 1) rotate(0) translate(4 340)">
<title>src/Utils/UtilsError.hpp</title>
<!-- Node1 -->
<g id="Node000001" class="node">
<title>Node1</title>
<g id="a_Node000001"><a xlink:title=" ">
<polygon fill="#999999" stroke="#666666" points="958.62,-336 842.88,-336 842.88,-316 958.62,-316 958.62,-336"/>
<text xml:space="preserve" text-anchor="middle" x="900.75" y="-322.5" font-family="Helvetica,sans-Serif" font-size="10.00">src/Utils/UtilsError.hpp</text>
</a>
</g>
</g>
<!-- Node2 -->
<g id="Node000002" class="node">
<title>Node2</title>
<g id="a_Node000002"><a xlink:href="IDirectoryManager_8hpp.html" target="_top" xlink:title=" ">
<polygon fill="white" stroke="#666666" points="708.75,-280 590.75,-280 590.75,-248 708.75,-248 708.75,-280"/>
<text xml:space="preserve" text-anchor="start" x="598.75" y="-266.5" font-family="Helvetica,sans-Serif" font-size="10.00">src/Utils/Filesystem</text>
<text xml:space="preserve" text-anchor="middle" x="649.75" y="-254.5" font-family="Helvetica,sans-Serif" font-size="10.00">/IDirectoryManager.hpp</text>
</a>
</g>
</g>
<!-- Node1&#45;&gt;Node2 -->
<g id="edge1_Node000001_Node000002" class="edge">
<title>Node1&#45;&gt;Node2</title>
<g id="a_edge1_Node000001_Node000002"><a xlink:title=" ">
<path fill="none" stroke="#63b8ff" d="M850.23,-312.92C809.47,-303.18 752.05,-289.45 709.1,-279.19"/>
<polygon fill="#63b8ff" stroke="#63b8ff" points="849.24,-316.29 859.78,-315.21 850.87,-309.48 849.24,-316.29"/>
</a>
</g>
</g>
<!-- Node14 -->
<g id="Node000014" class="node">
<title>Node14</title>
<g id="a_Node000014"><a xlink:href="IFileReader_8hpp.html" target="_top" xlink:title=" ">
<polygon fill="white" stroke="#666666" points="572.62,-280 468.88,-280 468.88,-248 572.62,-248 572.62,-280"/>
<text xml:space="preserve" text-anchor="start" x="476.88" y="-266.5" font-family="Helvetica,sans-Serif" font-size="10.00">src/Utils/Filesystem</text>
<text xml:space="preserve" text-anchor="middle" x="520.75" y="-254.5" font-family="Helvetica,sans-Serif" font-size="10.00">/IFileReader.hpp</text>
</a>
</g>
</g>
<!-- Node1&#45;&gt;Node14 -->
<g id="edge18_Node000001_Node000014" class="edge">
<title>Node1&#45;&gt;Node14</title>
<g id="a_edge18_Node000001_Node000014"><a xlink:title=" ">
<path fill="none" stroke="#63b8ff" d="M831.24,-317.25C766.39,-309.53 667.1,-296.47 581.75,-280 578.86,-279.44 575.9,-278.83 572.92,-278.2"/>
<polygon fill="#63b8ff" stroke="#63b8ff" points="830.7,-320.71 841.04,-318.4 831.51,-313.75 830.7,-320.71"/>
</a>
</g>
</g>
<!-- Node20 -->
<g id="Node000020" class="node">
<title>Node20</title>
<g id="a_Node000020"><a xlink:href="IFileWriter_8hpp.html" target="_top" xlink:title=" ">
<polygon fill="white" stroke="#666666" points="830.62,-280 726.88,-280 726.88,-248 830.62,-248 830.62,-280"/>
<text xml:space="preserve" text-anchor="start" x="734.88" y="-266.5" font-family="Helvetica,sans-Serif" font-size="10.00">src/Utils/Filesystem</text>
<text xml:space="preserve" text-anchor="middle" x="778.75" y="-254.5" font-family="Helvetica,sans-Serif" font-size="10.00">/IFileWriter.hpp</text>
</a>
</g>
</g>
<!-- Node1&#45;&gt;Node20 -->
<g id="edge27_Node000001_Node000020" class="edge">
<title>Node1&#45;&gt;Node20</title>
<g id="a_edge27_Node000001_Node000020"><a xlink:title=" ">
<path fill="none" stroke="#63b8ff" d="M871.47,-310.6C852.91,-301.47 828.93,-289.68 810.01,-280.37"/>
<polygon fill="#63b8ff" stroke="#63b8ff" points="869.81,-313.68 880.33,-314.96 872.9,-307.4 869.81,-313.68"/>
</a>
</g>
</g>
<!-- Node23 -->
<g id="Node000023" class="node">
<title>Node23</title>
<g id="a_Node000023"><a xlink:href="IPathResolver_8hpp.html" target="_top" xlink:title=" ">
<polygon fill="white" stroke="#666666" points="952.62,-280 848.88,-280 848.88,-248 952.62,-248 952.62,-280"/>
<text xml:space="preserve" text-anchor="start" x="856.88" y="-266.5" font-family="Helvetica,sans-Serif" font-size="10.00">src/Utils/Filesystem</text>
<text xml:space="preserve" text-anchor="middle" x="900.75" y="-254.5" font-family="Helvetica,sans-Serif" font-size="10.00">/IPathResolver.hpp</text>
</a>
</g>
</g>
<!-- Node1&#45;&gt;Node23 -->
<g id="edge33_Node000001_Node000023" class="edge">
<title>Node1&#45;&gt;Node23</title>
<g id="a_edge33_Node000001_Node000023"><a xlink:title=" ">
<path fill="none" stroke="#63b8ff" d="M900.75,-304.31C900.75,-296.37 900.75,-287.46 900.75,-280.14"/>
<polygon fill="#63b8ff" stroke="#63b8ff" points="897.25,-304.11 900.75,-314.11 904.25,-304.11 897.25,-304.11"/>
</a>
</g>
</g>
<!-- Node26 -->
<g id="Node000026" class="node">
<title>Node26</title>
<g id="a_Node000026"><a xlink:href="ICustomStringsLoader_8hpp.html" target="_top" xlink:title=" ">
<polygon fill="white" stroke="#666666" points="1299.75,-280 1151.75,-280 1151.75,-248 1299.75,-248 1299.75,-280"/>
<text xml:space="preserve" text-anchor="start" x="1159.75" y="-266.5" font-family="Helvetica,sans-Serif" font-size="10.00">src/Utils/Json/ICustomStrings</text>
<text xml:space="preserve" text-anchor="middle" x="1225.75" y="-254.5" font-family="Helvetica,sans-Serif" font-size="10.00">Loader.hpp</text>
</a>
</g>
</g>
<!-- Node1&#45;&gt;Node26 -->
<g id="edge38_Node000001_Node000026" class="edge">
<title>Node1&#45;&gt;Node26</title>
<g id="a_edge38_Node000001_Node000026"><a xlink:title=" ">
<path fill="none" stroke="#63b8ff" d="M962.97,-313.51C1016.67,-303.6 1094.38,-289.25 1151.36,-278.73"/>
<polygon fill="#63b8ff" stroke="#63b8ff" points="962.58,-310.03 953.38,-315.28 963.85,-316.91 962.58,-310.03"/>
</a>
</g>
</g>
<!-- Node29 -->
<g id="Node000029" class="node">
<title>Node29</title>
<g id="a_Node000029"><a xlink:href="IJsonSerializer_8hpp.html" target="_top" xlink:title=" ">
<polygon fill="white" stroke="#666666" points="1133.25,-274 970.25,-274 970.25,-254 1133.25,-254 1133.25,-274"/>
<text xml:space="preserve" text-anchor="middle" x="1051.75" y="-260.5" font-family="Helvetica,sans-Serif" font-size="10.00">src/Utils/Json/IJsonSerializer.hpp</text>
</a>
</g>
</g>
<!-- Node1&#45;&gt;Node29 -->
<g id="edge43_Node000001_Node000029" class="edge">
<title>Node1&#45;&gt;Node29</title>
<g id="a_edge43_Node000001_Node000029"><a xlink:title=" ">
<path fill="none" stroke="#63b8ff" d="M935.04,-311.38C963.54,-300.05 1003.34,-284.23 1028.32,-274.31"/>
<polygon fill="#63b8ff" stroke="#63b8ff" points="933.75,-308.12 925.75,-315.07 936.34,-314.63 933.75,-308.12"/>
</a>
</g>
</g>
<!-- Node30 -->
<g id="Node000030" class="node">
<title>Node30</title>
<g id="a_Node000030"><a xlink:href="IPlatformInfo_8hpp.html" target="_top" xlink:title=" ">
<polygon fill="white" stroke="#666666" points="1534.75,-280 1440.75,-280 1440.75,-248 1534.75,-248 1534.75,-280"/>
<text xml:space="preserve" text-anchor="start" x="1448.75" y="-266.5" font-family="Helvetica,sans-Serif" font-size="10.00">src/Utils/Platform</text>
<text xml:space="preserve" text-anchor="middle" x="1487.75" y="-254.5" font-family="Helvetica,sans-Serif" font-size="10.00">/IPlatformInfo.hpp</text>
</a>
</g>
</g>
<!-- Node1&#45;&gt;Node30 -->
<g id="edge47_Node000001_Node000030" class="edge">
<title>Node1&#45;&gt;Node30</title>
<g id="a_edge47_Node000001_Node000030"><a xlink:title=" ">
<path fill="none" stroke="#63b8ff" d="M970.21,-317.9C1091.06,-305.55 1336.99,-280.41 1440.34,-269.85"/>
<polygon fill="#63b8ff" stroke="#63b8ff" points="970.01,-314.4 960.42,-318.9 970.72,-321.37 970.01,-314.4"/>
</a>
</g>
</g>
<!-- Node3 -->
<g id="Node000003" class="node">
<title>Node3</title>
<g id="a_Node000003"><a xlink:href="DirectoryManager_8hpp.html" target="_top" xlink:title=" ">
<polygon fill="white" stroke="#666666" points="530.25,-212 415.25,-212 415.25,-180 530.25,-180 530.25,-212"/>
<text xml:space="preserve" text-anchor="start" x="423.25" y="-198.5" font-family="Helvetica,sans-Serif" font-size="10.00">src/Utils/Filesystem</text>
<text xml:space="preserve" text-anchor="middle" x="472.75" y="-186.5" font-family="Helvetica,sans-Serif" font-size="10.00">/DirectoryManager.hpp</text>
</a>
</g>
</g>
<!-- Node2&#45;&gt;Node3 -->
<g id="edge2_Node000002_Node000003" class="edge">
<title>Node2&#45;&gt;Node3</title>
<g id="a_edge2_Node000002_Node000003"><a xlink:title=" ">
<path fill="none" stroke="#63b8ff" d="M597.6,-243.56C571.04,-233.65 539.18,-221.77 514.29,-212.49"/>
<polygon fill="#63b8ff" stroke="#63b8ff" points="596.24,-246.78 606.83,-247 598.69,-240.22 596.24,-246.78"/>
</a>
</g>
</g>
<!-- Node6 -->
<g id="Node000006" class="node">
<title>Node6</title>
<g id="a_Node000006"><a xlink:href="UtilsFactory_8hpp.html" target="_top" xlink:title=" ">
<polygon fill="white" stroke="#666666" points="1106.25,-206 979.25,-206 979.25,-186 1106.25,-186 1106.25,-206"/>
<text xml:space="preserve" text-anchor="middle" x="1042.75" y="-192.5" font-family="Helvetica,sans-Serif" font-size="10.00">src/Utils/UtilsFactory.hpp</text>
</a>
</g>
</g>
<!-- Node2&#45;&gt;Node6 -->
<g id="edge5_Node000002_Node000006" class="edge">
<title>Node2&#45;&gt;Node6</title>
<g id="a_edge5_Node000002_Node000006"><a xlink:title=" ">
<path fill="none" stroke="#63b8ff" d="M720.36,-247.6C827.51,-228.28 857.21,-229.39 961.75,-212 971.91,-210.31 982.76,-208.39 993.11,-206.49"/>
<polygon fill="#63b8ff" stroke="#63b8ff" points="719.74,-244.15 710.53,-249.39 720.99,-251.04 719.74,-244.15"/>
</a>
</g>
</g>
<!-- Node4 -->
<g id="Node000004" class="node">
<title>Node4</title>
<g id="a_Node000004"><a xlink:href="DirectoryManager_8cpp.html" target="_top" xlink:title=" ">
<polygon fill="white" stroke="#666666" points="392.25,-144 277.25,-144 277.25,-112 392.25,-112 392.25,-144"/>
<text xml:space="preserve" text-anchor="start" x="285.25" y="-130.5" font-family="Helvetica,sans-Serif" font-size="10.00">src/Utils/Filesystem</text>
<text xml:space="preserve" text-anchor="middle" x="334.75" y="-118.5" font-family="Helvetica,sans-Serif" font-size="10.00">/DirectoryManager.cpp</text>
</a>
</g>
</g>
<!-- Node3&#45;&gt;Node4 -->
<g id="edge3_Node000003_Node000004" class="edge">
<title>Node3&#45;&gt;Node4</title>
<g id="a_edge3_Node000003_Node000004"><a xlink:title=" ">
<path fill="none" stroke="#63b8ff" d="M430.11,-174.61C409.72,-164.86 385.72,-153.38 366.9,-144.38"/>
<polygon fill="#63b8ff" stroke="#63b8ff" points="428.5,-177.72 439.03,-178.87 431.52,-171.4 428.5,-177.72"/>
</a>
</g>
</g>
<!-- Node5 -->
<g id="Node000005" class="node">
<title>Node5</title>
<g id="a_Node000005"><a xlink:href="UtilsFactory_8cpp.html" target="_top" xlink:title=" ">
<polygon fill="white" stroke="#666666" points="837.25,-138 710.25,-138 710.25,-118 837.25,-118 837.25,-138"/>
<text xml:space="preserve" text-anchor="middle" x="773.75" y="-124.5" font-family="Helvetica,sans-Serif" font-size="10.00">src/Utils/UtilsFactory.cpp</text>
</a>
</g>
</g>
<!-- Node3&#45;&gt;Node5 -->
<g id="edge4_Node000003_Node000005" class="edge">
<title>Node3&#45;&gt;Node5</title>
<g id="a_edge4_Node000003_Node000005"><a xlink:title=" ">
<path fill="none" stroke="#63b8ff" d="M541.58,-179.6C613.58,-163.72 685.46,-148.1 730.18,-138.42"/>
<polygon fill="#63b8ff" stroke="#63b8ff" points="540.98,-176.15 531.97,-181.73 542.49,-182.99 540.98,-176.15"/>
</a>
</g>
</g>
<!-- Node6&#45;&gt;Node5 -->
<g id="edge17_Node000006_Node000005" class="edge">
<title>Node6&#45;&gt;Node5</title>
<g id="a_edge17_Node000006_Node000005"><a xlink:title=" ">
<path fill="none" stroke="#63b8ff" d="M993.21,-182.84C940.98,-170.03 859.83,-150.12 812.22,-138.44"/>
<polygon fill="#63b8ff" stroke="#63b8ff" points="992.19,-186.2 1002.74,-185.18 993.86,-179.4 992.19,-186.2"/>
</a>
</g>
</g>
<!-- Node7 -->
<g id="Node000007" class="node">
<title>Node7</title>
<g id="a_Node000007"><a xlink:href="Application_8cpp.html" target="_top" xlink:title=" ">
<polygon fill="white" stroke="#666666" points="1059.12,-76 910.38,-76 910.38,-56 1059.12,-56 1059.12,-76"/>
<text xml:space="preserve" text-anchor="middle" x="984.75" y="-62.5" font-family="Helvetica,sans-Serif" font-size="10.00">application/src/Application.cpp</text>
</a>
</g>
</g>
<!-- Node6&#45;&gt;Node7 -->
<g id="edge6_Node000006_Node000007" class="edge">
<title>Node6&#45;&gt;Node7</title>
<g id="a_edge6_Node000006_Node000007"><a xlink:title=" ">
<path fill="none" stroke="#63b8ff" d="M1027.09,-176.84C1019.73,-167.53 1011.36,-155.71 1005.75,-144 994.73,-121.01 988.7,-91.29 986.18,-76.39"/>
<polygon fill="#63b8ff" stroke="#63b8ff" points="1024.21,-178.86 1033.27,-184.35 1029.62,-174.41 1024.21,-178.86"/>
</a>
</g>
</g>
<!-- Node8 -->
<g id="Node000008" class="node">
<title>Node8</title>
<g id="a_Node000008"><a xlink:href="DotNameBotLib_8hpp.html" target="_top" xlink:title=" ">
<polygon fill="white" stroke="#666666" points="1134.5,-144 1015,-144 1015,-112 1134.5,-112 1134.5,-144"/>
<text xml:space="preserve" text-anchor="start" x="1023" y="-130.5" font-family="Helvetica,sans-Serif" font-size="10.00">include/DotNameBotLib</text>
<text xml:space="preserve" text-anchor="middle" x="1074.75" y="-118.5" font-family="Helvetica,sans-Serif" font-size="10.00">/DotNameBotLib.hpp</text>
</a>
</g>
</g>
<!-- Node6&#45;&gt;Node8 -->
<g id="edge7_Node000006_Node000008" class="edge">
<title>Node6&#45;&gt;Node8</title>
<g id="a_edge7_Node000006_Node000008"><a xlink:title=" ">
<path fill="none" stroke="#63b8ff" d="M1052.26,-175.39C1057.08,-165.45 1062.84,-153.56 1067.33,-144.3"/>
<polygon fill="#63b8ff" stroke="#63b8ff" points="1049.21,-173.66 1048,-184.18 1055.51,-176.71 1049.21,-173.66"/>
</a>
</g>
</g>
<!-- Node10 -->
<g id="Node000010" class="node">
<title>Node10</title>
<g id="a_Node000010"><a xlink:href="DiscordBot_8hpp.html" target="_top" xlink:title=" ">
<polygon fill="white" stroke="#666666" points="1450.62,-76 1298.88,-76 1298.88,-56 1450.62,-56 1450.62,-76"/>
<text xml:space="preserve" text-anchor="middle" x="1374.75" y="-62.5" font-family="Helvetica,sans-Serif" font-size="10.00">src/DiscordBot/DiscordBot.hpp</text>
</a>
</g>
</g>
<!-- Node6&#45;&gt;Node10 -->
<g id="edge10_Node000006_Node000010" class="edge">
<title>Node6&#45;&gt;Node10</title>
<g id="a_edge10_Node000006_Node000010"><a xlink:title=" ">
<path fill="none" stroke="#63b8ff" d="M1107.14,-183.52C1174.77,-171.18 1273.57,-152.22 1289.75,-144 1298.54,-139.54 1344.58,-95.92 1364.99,-76.38"/>
<polygon fill="#63b8ff" stroke="#63b8ff" points="1106.86,-180.02 1097.64,-185.25 1108.11,-186.9 1106.86,-180.02"/>
</a>
</g>
</g>
<!-- Node12 -->
<g id="Node000012" class="node">
<title>Node12</title>
<g id="a_Node000012"><a xlink:href="RssManager_8hpp.html" target="_top" xlink:title=" ">
<polygon fill="white" stroke="#666666" points="1280.62,-138 1152.88,-138 1152.88,-118 1280.62,-118 1280.62,-138"/>
<text xml:space="preserve" text-anchor="middle" x="1216.75" y="-124.5" font-family="Helvetica,sans-Serif" font-size="10.00">src/Rss/RssManager.hpp</text>
</a>
</g>
</g>
<!-- Node6&#45;&gt;Node12 -->
<g id="edge13_Node000006_Node000012" class="edge">
<title>Node6&#45;&gt;Node12</title>
<g id="a_edge13_Node000006_Node000012"><a xlink:title=" ">
<path fill="none" stroke="#63b8ff" d="M1078.04,-181.61C1111.86,-168.79 1162.04,-149.75 1191.87,-138.44"/>
<polygon fill="#63b8ff" stroke="#63b8ff" points="1077.2,-178.19 1069.1,-185.01 1079.69,-184.73 1077.2,-178.19"/>
</a>
</g>
</g>
<!-- Node8&#45;&gt;Node7 -->
<g id="edge8_Node000008_Node000007" class="edge">
<title>Node8&#45;&gt;Node7</title>
<g id="a_edge8_Node000008_Node000007"><a xlink:title=" ">
<path fill="none" stroke="#63b8ff" d="M1042.15,-105.27C1027.28,-95.35 1010.44,-84.12 998.86,-76.41"/>
<polygon fill="#63b8ff" stroke="#63b8ff" points="1040.05,-108.07 1050.31,-110.71 1043.93,-102.25 1040.05,-108.07"/>
</a>
</g>
</g>
<!-- Node9 -->
<g id="Node000009" class="node">
<title>Node9</title>
<g id="a_Node000009"><a xlink:href="DotNameBotLib_8cpp.html" target="_top" xlink:title=" ">
<polygon fill="white" stroke="#666666" points="1185.25,-20 1064.25,-20 1064.25,0 1185.25,0 1185.25,-20"/>
<text xml:space="preserve" text-anchor="middle" x="1124.75" y="-6.5" font-family="Helvetica,sans-Serif" font-size="10.00">src/DotNameBotLib.cpp</text>
</a>
</g>
</g>
<!-- Node8&#45;&gt;Node9 -->
<g id="edge9_Node000008_Node000009" class="edge">
<title>Node8&#45;&gt;Node9</title>
<g id="a_edge9_Node000008_Node000009"><a xlink:title=" ">
<path fill="none" stroke="#63b8ff" d="M1085.78,-101.41C1096.8,-75.84 1113.15,-37.91 1120.68,-20.44"/>
<polygon fill="#63b8ff" stroke="#63b8ff" points="1082.63,-99.88 1081.89,-110.45 1089.06,-102.65 1082.63,-99.88"/>
</a>
</g>
</g>
<!-- Node10&#45;&gt;Node9 -->
<g id="edge12_Node000010_Node000009" class="edge">
<title>Node10&#45;&gt;Node9</title>
<g id="a_edge12_Node000010_Node000009"><a xlink:title=" ">
<path fill="none" stroke="#63b8ff" d="M1319.78,-53.13C1274.31,-43.31 1210.6,-29.54 1168.53,-20.46"/>
<polygon fill="#63b8ff" stroke="#63b8ff" points="1318.92,-56.52 1329.44,-55.21 1320.4,-49.68 1318.92,-56.52"/>
</a>
</g>
</g>
<!-- Node11 -->
<g id="Node000011" class="node">
<title>Node11</title>
<g id="a_Node000011"><a xlink:href="DiscordBot_8cpp.html" target="_top" xlink:title=" ">
<polygon fill="white" stroke="#666666" points="1450.62,-20 1298.88,-20 1298.88,0 1450.62,0 1450.62,-20"/>
<text xml:space="preserve" text-anchor="middle" x="1374.75" y="-6.5" font-family="Helvetica,sans-Serif" font-size="10.00">src/DiscordBot/DiscordBot.cpp</text>
</a>
</g>
</g>
<!-- Node10&#45;&gt;Node11 -->
<g id="edge11_Node000010_Node000011" class="edge">
<title>Node10&#45;&gt;Node11</title>
<g id="a_edge11_Node000010_Node000011"><a xlink:title=" ">
<path fill="none" stroke="#63b8ff" d="M1374.75,-44.13C1374.75,-35.9 1374.75,-26.85 1374.75,-20.3"/>
<polygon fill="#63b8ff" stroke="#63b8ff" points="1371.25,-44.08 1374.75,-54.08 1378.25,-44.08 1371.25,-44.08"/>
</a>
</g>
</g>
<!-- Node12&#45;&gt;Node9 -->
<g id="edge15_Node000012_Node000009" class="edge">
<title>Node12&#45;&gt;Node9</title>
<g id="a_edge15_Node000012_Node000009"><a xlink:title=" ">
<path fill="none" stroke="#63b8ff" d="M1186.38,-112.1C1171.58,-103.43 1154.67,-91.2 1143.75,-76 1131.41,-58.81 1127.03,-33.66 1125.52,-20.24"/>
<polygon fill="#63b8ff" stroke="#63b8ff" points="1184.42,-115.02 1194.87,-116.79 1187.81,-108.89 1184.42,-115.02"/>
</a>
</g>
</g>
<!-- Node12&#45;&gt;Node10 -->
<g id="edge14_Node000012_Node000010" class="edge">
<title>Node12&#45;&gt;Node10</title>
<g id="a_edge14_Node000012_Node000010"><a xlink:title=" ">
<path fill="none" stroke="#63b8ff" d="M1252.2,-113.54C1281.95,-102.24 1323.7,-86.39 1349.98,-76.41"/>
<polygon fill="#63b8ff" stroke="#63b8ff" points="1250.96,-110.27 1242.85,-117.09 1253.44,-116.81 1250.96,-110.27"/>
</a>
</g>
</g>
<!-- Node13 -->
<g id="Node000013" class="node">
<title>Node13</title>
<g id="a_Node000013"><a xlink:href="RssManager_8cpp.html" target="_top" xlink:title=" ">
<polygon fill="white" stroke="#666666" points="1280.62,-76 1152.88,-76 1152.88,-56 1280.62,-56 1280.62,-76"/>
<text xml:space="preserve" text-anchor="middle" x="1216.75" y="-62.5" font-family="Helvetica,sans-Serif" font-size="10.00">src/Rss/RssManager.cpp</text>
</a>
</g>
</g>
<!-- Node12&#45;&gt;Node13 -->
<g id="edge16_Node000012_Node000013" class="edge">
<title>Node12&#45;&gt;Node13</title>
<g id="a_edge16_Node000012_Node000013"><a xlink:title=" ">
<path fill="none" stroke="#63b8ff" d="M1216.75,-106.25C1216.75,-95.97 1216.75,-84.09 1216.75,-76.11"/>
<polygon fill="#63b8ff" stroke="#63b8ff" points="1213.25,-106.11 1216.75,-116.11 1220.25,-106.11 1213.25,-106.11"/>
</a>
</g>
</g>
<!-- Node14&#45;&gt;Node6 -->
<g id="edge26_Node000014_Node000006" class="edge">
<title>Node14&#45;&gt;Node6</title>
<g id="a_edge26_Node000014_Node000006"><a xlink:title=" ">
<path fill="none" stroke="#63b8ff" d="M584.06,-247.78C750.99,-220.33 797.35,-234.96 961.75,-212 972.8,-210.46 984.63,-208.46 995.75,-206.43"/>
<polygon fill="#63b8ff" stroke="#63b8ff" points="583.67,-244.29 574.38,-249.4 584.82,-251.2 583.67,-244.29"/>
</a>
</g>
</g>
<!-- Node15 -->
<g id="Node000015" class="node">
<title>Node15</title>
<g id="a_Node000015"><a xlink:href="FileReader_8hpp.html" target="_top" xlink:title=" ">
<polygon fill="white" stroke="#666666" points="331.62,-212 227.88,-212 227.88,-180 331.62,-180 331.62,-212"/>
<text xml:space="preserve" text-anchor="start" x="235.88" y="-198.5" font-family="Helvetica,sans-Serif" font-size="10.00">src/Utils/Filesystem</text>
<text xml:space="preserve" text-anchor="middle" x="279.75" y="-186.5" font-family="Helvetica,sans-Serif" font-size="10.00">/FileReader.hpp</text>
</a>
</g>
</g>
<!-- Node14&#45;&gt;Node15 -->
<g id="edge19_Node000014_Node000015" class="edge">
<title>Node14&#45;&gt;Node15</title>
<g id="a_edge19_Node000014_Node000015"><a xlink:title=" ">
<path fill="none" stroke="#63b8ff" d="M457.46,-245.67C418.36,-234.96 368.79,-221.38 331.94,-211.29"/>
<polygon fill="#63b8ff" stroke="#63b8ff" points="456.43,-249.01 467,-248.28 458.28,-242.26 456.43,-249.01"/>
</a>
</g>
</g>
<!-- Node18 -->
<g id="Node000018" class="node">
<title>Node18</title>
<g id="a_Node000018"><a xlink:href="JsonSerializer_8hpp.html" target="_top" xlink:title=" ">
<polygon fill="white" stroke="#666666" points="708.75,-206 548.75,-206 548.75,-186 708.75,-186 708.75,-206"/>
<text xml:space="preserve" text-anchor="middle" x="628.75" y="-192.5" font-family="Helvetica,sans-Serif" font-size="10.00">src/Utils/Json/JsonSerializer.hpp</text>
</a>
</g>
</g>
<!-- Node14&#45;&gt;Node18 -->
<g id="edge23_Node000014_Node000018" class="edge">
<title>Node14&#45;&gt;Node18</title>
<g id="a_edge23_Node000014_Node000018"><a xlink:title=" ">
<path fill="none" stroke="#63b8ff" d="M555.81,-241.57C575.21,-229.72 598.34,-215.59 613.27,-206.46"/>
<polygon fill="#63b8ff" stroke="#63b8ff" points="554.07,-238.54 547.36,-246.74 557.72,-244.51 554.07,-238.54"/>
</a>
</g>
</g>
<!-- Node15&#45;&gt;Node5 -->
<g id="edge22_Node000015_Node000005" class="edge">
<title>Node15&#45;&gt;Node5</title>
<g id="a_edge22_Node000015_Node000005"><a xlink:title=" ">
<path fill="none" stroke="#63b8ff" d="M342.99,-187.43C458.58,-173.58 692.98,-145.44 701.75,-144 711.33,-142.43 721.56,-140.47 731.22,-138.49"/>
<polygon fill="#63b8ff" stroke="#63b8ff" points="342.86,-183.92 333.35,-188.58 343.7,-190.87 342.86,-183.92"/>
</a>
</g>
</g>
<!-- Node16 -->
<g id="Node000016" class="node">
<title>Node16</title>
<g id="a_Node000016"><a xlink:href="FileReaderTest_8cpp.html" target="_top" xlink:title=" ">
<polygon fill="white" stroke="#666666" points="137.5,-144 0,-144 0,-112 137.5,-112 137.5,-144"/>
<text xml:space="preserve" text-anchor="start" x="8" y="-130.5" font-family="Helvetica,sans-Serif" font-size="10.00">application/tests/FileReader</text>
<text xml:space="preserve" text-anchor="middle" x="68.75" y="-118.5" font-family="Helvetica,sans-Serif" font-size="10.00">Test.cpp</text>
</a>
</g>
</g>
<!-- Node15&#45;&gt;Node16 -->
<g id="edge20_Node000015_Node000016" class="edge">
<title>Node15&#45;&gt;Node16</title>
<g id="a_edge20_Node000015_Node000016"><a xlink:title=" ">
<path fill="none" stroke="#63b8ff" d="M219.69,-176.21C187.61,-166.18 148.6,-153.98 118.28,-144.49"/>
<polygon fill="#63b8ff" stroke="#63b8ff" points="218.25,-179.43 228.84,-179.07 220.34,-172.75 218.25,-179.43"/>
</a>
</g>
</g>
<!-- Node17 -->
<g id="Node000017" class="node">
<title>Node17</title>
<g id="a_Node000017"><a xlink:href="FileReader_8cpp.html" target="_top" xlink:title=" ">
<polygon fill="white" stroke="#666666" points="259.62,-144 155.88,-144 155.88,-112 259.62,-112 259.62,-144"/>
<text xml:space="preserve" text-anchor="start" x="163.88" y="-130.5" font-family="Helvetica,sans-Serif" font-size="10.00">src/Utils/Filesystem</text>
<text xml:space="preserve" text-anchor="middle" x="207.75" y="-118.5" font-family="Helvetica,sans-Serif" font-size="10.00">/FileReader.cpp</text>
</a>
</g>
</g>
<!-- Node15&#45;&gt;Node17 -->
<g id="edge21_Node000015_Node000017" class="edge">
<title>Node15&#45;&gt;Node17</title>
<g id="a_edge21_Node000015_Node000017"><a xlink:title=" ">
<path fill="none" stroke="#63b8ff" d="M254.65,-171.99C244.62,-162.79 233.34,-152.46 224.36,-144.22"/>
<polygon fill="#63b8ff" stroke="#63b8ff" points="252.2,-174.49 261.94,-178.67 256.93,-169.33 252.2,-174.49"/>
</a>
</g>
</g>
<!-- Node18&#45;&gt;Node5 -->
<g id="edge25_Node000018_Node000005" class="edge">
<title>Node18&#45;&gt;Node5</title>
<g id="a_edge25_Node000018_Node000005"><a xlink:title=" ">
<path fill="none" stroke="#63b8ff" d="M659.63,-180.94C687.78,-168.13 728.59,-149.56 753.01,-138.44"/>
<polygon fill="#63b8ff" stroke="#63b8ff" points="658.55,-177.59 650.9,-184.92 661.45,-183.96 658.55,-177.59"/>
</a>
</g>
</g>
<!-- Node19 -->
<g id="Node000019" class="node">
<title>Node19</title>
<g id="a_Node000019"><a xlink:href="JsonSerializer_8cpp.html" target="_top" xlink:title=" ">
<polygon fill="white" stroke="#666666" points="570.75,-138 410.75,-138 410.75,-118 570.75,-118 570.75,-138"/>
<text xml:space="preserve" text-anchor="middle" x="490.75" y="-124.5" font-family="Helvetica,sans-Serif" font-size="10.00">src/Utils/Json/JsonSerializer.cpp</text>
</a>
</g>
</g>
<!-- Node18&#45;&gt;Node19 -->
<g id="edge24_Node000018_Node000019" class="edge">
<title>Node18&#45;&gt;Node19</title>
<g id="a_edge24_Node000018_Node000019"><a xlink:title=" ">
<path fill="none" stroke="#63b8ff" d="M598.65,-180.6C571.88,-167.8 533.53,-149.46 510.49,-138.44"/>
<polygon fill="#63b8ff" stroke="#63b8ff" points="597.08,-183.73 607.61,-184.89 600.1,-177.42 597.08,-183.73"/>
</a>
</g>
</g>
<!-- Node20&#45;&gt;Node6 -->
<g id="edge32_Node000020_Node000006" class="edge">
<title>Node20&#45;&gt;Node6</title>
<g id="a_edge32_Node000020_Node000006"><a xlink:title=" ">
<path fill="none" stroke="#63b8ff" d="M841.76,-247.25C892.52,-234.56 962.23,-217.13 1004.79,-206.49"/>
<polygon fill="#63b8ff" stroke="#63b8ff" points="841.23,-243.77 832.38,-249.59 842.93,-250.56 841.23,-243.77"/>
</a>
</g>
</g>
<!-- Node20&#45;&gt;Node18 -->
<g id="edge31_Node000020_Node000018" class="edge">
<title>Node20&#45;&gt;Node18</title>
<g id="a_edge31_Node000020_Node000018"><a xlink:title=" ">
<path fill="none" stroke="#63b8ff" d="M733.36,-243.03C705.79,-230.9 671.85,-215.96 650.25,-206.46"/>
<polygon fill="#63b8ff" stroke="#63b8ff" points="731.63,-246.09 742.2,-246.92 734.45,-239.69 731.63,-246.09"/>
</a>
</g>
</g>
<!-- Node21 -->
<g id="Node000021" class="node">
<title>Node21</title>
<g id="a_Node000021"><a xlink:href="FileWriter_8hpp.html" target="_top" xlink:title=" ">
<polygon fill="white" stroke="#666666" points="830.62,-212 726.88,-212 726.88,-180 830.62,-180 830.62,-212"/>
<text xml:space="preserve" text-anchor="start" x="734.88" y="-198.5" font-family="Helvetica,sans-Serif" font-size="10.00">src/Utils/Filesystem</text>
<text xml:space="preserve" text-anchor="middle" x="778.75" y="-186.5" font-family="Helvetica,sans-Serif" font-size="10.00">/FileWriter.hpp</text>
</a>
</g>
</g>
<!-- Node20&#45;&gt;Node21 -->
<g id="edge28_Node000020_Node000021" class="edge">
<title>Node20&#45;&gt;Node21</title>
<g id="a_edge28_Node000020_Node000021"><a xlink:title=" ">
<path fill="none" stroke="#63b8ff" d="M778.75,-236.31C778.75,-228.12 778.75,-219.38 778.75,-212.22"/>
<polygon fill="#63b8ff" stroke="#63b8ff" points="775.25,-236.18 778.75,-246.18 782.25,-236.18 775.25,-236.18"/>
</a>
</g>
</g>
<!-- Node21&#45;&gt;Node5 -->
<g id="edge30_Node000021_Node000005" class="edge">
<title>Node21&#45;&gt;Node5</title>
<g id="a_edge30_Node000021_Node000005"><a xlink:title=" ">
<path fill="none" stroke="#63b8ff" d="M776.73,-168.31C775.92,-157.67 775.05,-146.13 774.46,-138.32"/>
<polygon fill="#63b8ff" stroke="#63b8ff" points="773.23,-168.48 777.48,-178.18 780.21,-167.95 773.23,-168.48"/>
</a>
</g>
</g>
<!-- Node22 -->
<g id="Node000022" class="node">
<title>Node22</title>
<g id="a_Node000022"><a xlink:href="FileWriter_8cpp.html" target="_top" xlink:title=" ">
<polygon fill="white" stroke="#666666" points="692.62,-144 588.88,-144 588.88,-112 692.62,-112 692.62,-144"/>
<text xml:space="preserve" text-anchor="start" x="596.88" y="-130.5" font-family="Helvetica,sans-Serif" font-size="10.00">src/Utils/Filesystem</text>
<text xml:space="preserve" text-anchor="middle" x="640.75" y="-118.5" font-family="Helvetica,sans-Serif" font-size="10.00">/FileWriter.cpp</text>
</a>
</g>
</g>
<!-- Node21&#45;&gt;Node22 -->
<g id="edge29_Node000021_Node000022" class="edge">
<title>Node21&#45;&gt;Node22</title>
<g id="a_edge29_Node000021_Node000022"><a xlink:title=" ">
<path fill="none" stroke="#63b8ff" d="M736.11,-174.61C715.72,-164.86 691.72,-153.38 672.9,-144.38"/>
<polygon fill="#63b8ff" stroke="#63b8ff" points="734.5,-177.72 745.03,-178.87 737.52,-171.4 734.5,-177.72"/>
</a>
</g>
</g>
<!-- Node23&#45;&gt;Node6 -->
<g id="edge37_Node000023_Node000006" class="edge">
<title>Node23&#45;&gt;Node6</title>
<g id="a_edge37_Node000023_Node000006"><a xlink:title=" ">
<path fill="none" stroke="#63b8ff" d="M944.41,-242.71C970.39,-230.63 1002.13,-215.88 1022.4,-206.46"/>
<polygon fill="#63b8ff" stroke="#63b8ff" points="943.01,-239.5 935.42,-246.89 945.96,-245.85 943.01,-239.5"/>
</a>
</g>
</g>
<!-- Node24 -->
<g id="Node000024" class="node">
<title>Node24</title>
<g id="a_Node000024"><a xlink:href="PathResolver_8hpp.html" target="_top" xlink:title=" ">
<polygon fill="white" stroke="#666666" points="952.62,-212 848.88,-212 848.88,-180 952.62,-180 952.62,-212"/>
<text xml:space="preserve" text-anchor="start" x="856.88" y="-198.5" font-family="Helvetica,sans-Serif" font-size="10.00">src/Utils/Filesystem</text>
<text xml:space="preserve" text-anchor="middle" x="900.75" y="-186.5" font-family="Helvetica,sans-Serif" font-size="10.00">/PathResolver.hpp</text>
</a>
</g>
</g>
<!-- Node23&#45;&gt;Node24 -->
<g id="edge34_Node000023_Node000024" class="edge">
<title>Node23&#45;&gt;Node24</title>
<g id="a_edge34_Node000023_Node000024"><a xlink:title=" ">
<path fill="none" stroke="#63b8ff" d="M900.75,-236.31C900.75,-228.12 900.75,-219.38 900.75,-212.22"/>
<polygon fill="#63b8ff" stroke="#63b8ff" points="897.25,-236.18 900.75,-246.18 904.25,-236.18 897.25,-236.18"/>
</a>
</g>
</g>
<!-- Node24&#45;&gt;Node5 -->
<g id="edge36_Node000024_Node000005" class="edge">
<title>Node24&#45;&gt;Node5</title>
<g id="a_edge36_Node000024_Node000005"><a xlink:title=" ">
<path fill="none" stroke="#63b8ff" d="M860.77,-174.22C837.71,-162.24 809.84,-147.75 791.95,-138.46"/>
<polygon fill="#63b8ff" stroke="#63b8ff" points="859.14,-177.32 869.63,-178.83 862.37,-171.11 859.14,-177.32"/>
</a>
</g>
</g>
<!-- Node25 -->
<g id="Node000025" class="node">
<title>Node25</title>
<g id="a_Node000025"><a xlink:href="PathResolver_8cpp.html" target="_top" xlink:title=" ">
<polygon fill="white" stroke="#666666" points="958.62,-144 854.88,-144 854.88,-112 958.62,-112 958.62,-144"/>
<text xml:space="preserve" text-anchor="start" x="862.88" y="-130.5" font-family="Helvetica,sans-Serif" font-size="10.00">src/Utils/Filesystem</text>
<text xml:space="preserve" text-anchor="middle" x="906.75" y="-118.5" font-family="Helvetica,sans-Serif" font-size="10.00">/PathResolver.cpp</text>
</a>
</g>
</g>
<!-- Node24&#45;&gt;Node25 -->
<g id="edge35_Node000024_Node000025" class="edge">
<title>Node24&#45;&gt;Node25</title>
<g id="a_edge35_Node000024_Node000025"><a xlink:title=" ">
<path fill="none" stroke="#63b8ff" d="M903.18,-168.31C903.92,-160.12 904.72,-151.38 905.37,-144.22"/>
<polygon fill="#63b8ff" stroke="#63b8ff" points="899.7,-167.91 902.28,-178.19 906.67,-168.54 899.7,-167.91"/>
</a>
</g>
</g>
<!-- Node26&#45;&gt;Node6 -->
<g id="edge42_Node000026_Node000006" class="edge">
<title>Node26&#45;&gt;Node6</title>
<g id="a_edge42_Node000026_Node000006"><a xlink:title=" ">
<path fill="none" stroke="#63b8ff" d="M1172.15,-243.67C1138.2,-231.42 1095.79,-216.13 1068.98,-206.46"/>
<polygon fill="#63b8ff" stroke="#63b8ff" points="1170.83,-246.91 1181.42,-247.01 1173.2,-240.33 1170.83,-246.91"/>
</a>
</g>
</g>
<!-- Node27 -->
<g id="Node000027" class="node">
<title>Node27</title>
<g id="a_Node000027"><a xlink:href="CustomStringsLoader_8hpp.html" target="_top" xlink:title=" ">
<polygon fill="white" stroke="#666666" points="1284.25,-212 1139.25,-212 1139.25,-180 1284.25,-180 1284.25,-212"/>
<text xml:space="preserve" text-anchor="start" x="1147.25" y="-198.5" font-family="Helvetica,sans-Serif" font-size="10.00">src/Utils/Json/CustomStrings</text>
<text xml:space="preserve" text-anchor="middle" x="1211.75" y="-186.5" font-family="Helvetica,sans-Serif" font-size="10.00">Loader.hpp</text>
</a>
</g>
</g>
<!-- Node26&#45;&gt;Node27 -->
<g id="edge39_Node000026_Node000027" class="edge">
<title>Node26&#45;&gt;Node27</title>
<g id="a_edge39_Node000026_Node000027"><a xlink:title=" ">
<path fill="none" stroke="#63b8ff" d="M1220.15,-236.6C1218.39,-228.32 1216.51,-219.46 1214.98,-212.22"/>
<polygon fill="#63b8ff" stroke="#63b8ff" points="1216.69,-237.16 1222.19,-246.21 1223.54,-235.7 1216.69,-237.16"/>
</a>
</g>
</g>
<!-- Node27&#45;&gt;Node5 -->
<g id="edge41_Node000027_Node000005" class="edge">
<title>Node27&#45;&gt;Node5</title>
<g id="a_edge41_Node000027_Node000005"><a xlink:title=" ">
<path fill="none" stroke="#63b8ff" d="M1127.58,-181.74C1123.58,-181.14 1119.62,-180.56 1115.75,-180 995.94,-162.65 965.09,-164.36 845.75,-144 836.31,-142.39 826.22,-140.44 816.67,-138.48"/>
<polygon fill="#63b8ff" stroke="#63b8ff" points="1127.01,-185.19 1137.42,-183.22 1128.05,-178.27 1127.01,-185.19"/>
</a>
</g>
</g>
<!-- Node28 -->
<g id="Node000028" class="node">
<title>Node28</title>
<g id="a_Node000028"><a xlink:href="CustomStringsLoader_8cpp.html" target="_top" xlink:title=" ">
<polygon fill="white" stroke="#666666" points="1482.25,-144 1337.25,-144 1337.25,-112 1482.25,-112 1482.25,-144"/>
<text xml:space="preserve" text-anchor="start" x="1345.25" y="-130.5" font-family="Helvetica,sans-Serif" font-size="10.00">src/Utils/Json/CustomStrings</text>
<text xml:space="preserve" text-anchor="middle" x="1409.75" y="-118.5" font-family="Helvetica,sans-Serif" font-size="10.00">Loader.cpp</text>
</a>
</g>
</g>
<!-- Node27&#45;&gt;Node28 -->
<g id="edge40_Node000027_Node000028" class="edge">
<title>Node27&#45;&gt;Node28</title>
<g id="a_edge40_Node000027_Node000028"><a xlink:title=" ">
<path fill="none" stroke="#63b8ff" d="M1268.9,-175.95C1298.85,-165.97 1335.07,-153.89 1363.28,-144.49"/>
<polygon fill="#63b8ff" stroke="#63b8ff" points="1267.99,-172.56 1259.61,-179.05 1270.2,-179.21 1267.99,-172.56"/>
</a>
</g>
</g>
<!-- Node29&#45;&gt;Node6 -->
<g id="edge46_Node000029_Node000006" class="edge">
<title>Node29&#45;&gt;Node6</title>
<g id="a_edge46_Node000029_Node000006"><a xlink:title=" ">
<path fill="none" stroke="#63b8ff" d="M1048.92,-242.28C1047.29,-230.27 1045.31,-215.74 1044.04,-206.44"/>
<polygon fill="#63b8ff" stroke="#63b8ff" points="1045.44,-242.61 1050.26,-252.04 1052.37,-241.66 1045.44,-242.61"/>
</a>
</g>
</g>
<!-- Node29&#45;&gt;Node18 -->
<g id="edge45_Node000029_Node000018" class="edge">
<title>Node29&#45;&gt;Node18</title>
<g id="a_edge45_Node000029_Node000018"><a xlink:title=" ">
<path fill="none" stroke="#63b8ff" d="M984.79,-251.7C977.02,-250.43 969.21,-249.17 961.75,-248 853.46,-230.99 826.02,-229.11 717.75,-212 706.76,-210.26 695.02,-208.34 683.79,-206.46"/>
<polygon fill="#63b8ff" stroke="#63b8ff" points="984.16,-255.14 994.59,-253.31 985.29,-248.23 984.16,-255.14"/>
</a>
</g>
</g>
<!-- Node29&#45;&gt;Node27 -->
<g id="edge44_Node000029_Node000027" class="edge">
<title>Node29&#45;&gt;Node27</title>
<g id="a_edge44_Node000029_Node000027"><a xlink:title=" ">
<path fill="none" stroke="#63b8ff" d="M1085.16,-249.22C1111.2,-238.48 1147.34,-223.57 1174.35,-212.43"/>
<polygon fill="#63b8ff" stroke="#63b8ff" points="1083.98,-245.92 1076.07,-252.97 1086.65,-252.39 1083.98,-245.92"/>
</a>
</g>
</g>
<!-- Node30&#45;&gt;Node6 -->
<g id="edge60_Node000030_Node000006" class="edge">
<title>Node30&#45;&gt;Node6</title>
<g id="a_edge60_Node000030_Node000006"><a xlink:title=" ">
<path fill="none" stroke="#63b8ff" d="M1429,-255.1C1358.19,-245.47 1235.63,-228.43 1130.75,-212 1119.73,-210.27 1107.94,-208.33 1096.7,-206.43"/>
<polygon fill="#63b8ff" stroke="#63b8ff" points="1428.46,-258.56 1438.84,-256.44 1429.4,-251.62 1428.46,-258.56"/>
</a>
</g>
</g>
<!-- Node31 -->
<g id="Node000031" class="node">
<title>Node31</title>
<g id="a_Node000031"><a xlink:href="EmscriptenPlatformInfo_8hpp.html" target="_top" xlink:title=" ">
<polygon fill="white" stroke="#666666" points="1785,-212 1644.5,-212 1644.5,-180 1785,-180 1785,-212"/>
<text xml:space="preserve" text-anchor="start" x="1652.5" y="-198.5" font-family="Helvetica,sans-Serif" font-size="10.00">src/Utils/Platform</text>
<text xml:space="preserve" text-anchor="middle" x="1714.75" y="-186.5" font-family="Helvetica,sans-Serif" font-size="10.00">/EmscriptenPlatformInfo.hpp</text>
</a>
</g>
</g>
<!-- Node30&#45;&gt;Node31 -->
<g id="edge48_Node000030_Node000031" class="edge">
<title>Node30&#45;&gt;Node31</title>
<g id="a_edge48_Node000030_Node000031"><a xlink:title=" ">
<path fill="none" stroke="#63b8ff" d="M1545.79,-246.12C1581.46,-235.75 1626.81,-222.57 1661.54,-212.47"/>
<polygon fill="#63b8ff" stroke="#63b8ff" points="1545.14,-242.67 1536.51,-248.82 1547.09,-249.39 1545.14,-242.67"/>
</a>
</g>
</g>
<!-- Node34 -->
<g id="Node000034" class="node">
<title>Node34</title>
<g id="a_Node000034"><a xlink:href="PlatformInfoFactory_8hpp.html" target="_top" xlink:title=" ">
<polygon fill="white" stroke="#666666" points="1477.38,-212 1354.12,-212 1354.12,-180 1477.38,-180 1477.38,-212"/>
<text xml:space="preserve" text-anchor="start" x="1362.12" y="-198.5" font-family="Helvetica,sans-Serif" font-size="10.00">src/Utils/Platform</text>
<text xml:space="preserve" text-anchor="middle" x="1415.75" y="-186.5" font-family="Helvetica,sans-Serif" font-size="10.00">/PlatformInfoFactory.hpp</text>
</a>
</g>
</g>
<!-- Node30&#45;&gt;Node34 -->
<g id="edge51_Node000030_Node000034" class="edge">
<title>Node30&#45;&gt;Node34</title>
<g id="a_edge51_Node000030_Node000034"><a xlink:title=" ">
<path fill="none" stroke="#63b8ff" d="M1462.65,-239.99C1452.62,-230.79 1441.34,-220.46 1432.36,-212.22"/>
<polygon fill="#63b8ff" stroke="#63b8ff" points="1460.2,-242.49 1469.94,-246.67 1464.93,-237.33 1460.2,-242.49"/>
</a>
</g>
</g>
<!-- Node35 -->
<g id="Node000035" class="node">
<title>Node35</title>
<g id="a_Node000035"><a xlink:href="UnixPlatformInfo_8hpp.html" target="_top" xlink:title=" ">
<polygon fill="white" stroke="#666666" points="1914.38,-212 1803.12,-212 1803.12,-180 1914.38,-180 1914.38,-212"/>
<text xml:space="preserve" text-anchor="start" x="1811.12" y="-198.5" font-family="Helvetica,sans-Serif" font-size="10.00">src/Utils/Platform</text>
<text xml:space="preserve" text-anchor="middle" x="1858.75" y="-186.5" font-family="Helvetica,sans-Serif" font-size="10.00">/UnixPlatformInfo.hpp</text>
</a>
</g>
</g>
<!-- Node30&#45;&gt;Node35 -->
<g id="edge54_Node000030_Node000035" class="edge">
<title>Node30&#45;&gt;Node35</title>
<g id="a_edge54_Node000030_Node000035"><a xlink:title=" ">
<path fill="none" stroke="#63b8ff" d="M1546.16,-254.36C1607.88,-244.98 1707.96,-229.03 1793.75,-212 1796.7,-211.41 1799.73,-210.79 1802.78,-210.15"/>
<polygon fill="#63b8ff" stroke="#63b8ff" points="1545.95,-250.85 1536.59,-255.81 1547,-257.77 1545.95,-250.85"/>
</a>
</g>
</g>
<!-- Node37 -->
<g id="Node000037" class="node">
<title>Node37</title>
<g id="a_Node000037"><a xlink:href="WindowsPlatformInfo_8hpp.html" target="_top" xlink:title=" ">
<polygon fill="white" stroke="#666666" points="1626.5,-212 1495,-212 1495,-180 1626.5,-180 1626.5,-212"/>
<text xml:space="preserve" text-anchor="start" x="1503" y="-198.5" font-family="Helvetica,sans-Serif" font-size="10.00">src/Utils/Platform</text>
<text xml:space="preserve" text-anchor="middle" x="1560.75" y="-186.5" font-family="Helvetica,sans-Serif" font-size="10.00">/WindowsPlatformInfo.hpp</text>
</a>
</g>
</g>
<!-- Node30&#45;&gt;Node37 -->
<g id="edge57_Node000030_Node000037" class="edge">
<title>Node30&#45;&gt;Node37</title>
<g id="a_edge57_Node000030_Node000037"><a xlink:title=" ">
<path fill="none" stroke="#63b8ff" d="M1513.14,-240.05C1523.23,-230.92 1534.57,-220.67 1543.66,-212.45"/>
<polygon fill="#63b8ff" stroke="#63b8ff" points="1510.87,-237.37 1505.8,-246.68 1515.57,-242.57 1510.87,-237.37"/>
</a>
</g>
</g>
<!-- Node32 -->
<g id="Node000032" class="node">
<title>Node32</title>
<g id="a_Node000032"><a xlink:href="EmscriptenPlatformInfo_8cpp.html" target="_top" xlink:title=" ">
<polygon fill="white" stroke="#666666" points="1931,-144 1790.5,-144 1790.5,-112 1931,-112 1931,-144"/>
<text xml:space="preserve" text-anchor="start" x="1798.5" y="-130.5" font-family="Helvetica,sans-Serif" font-size="10.00">src/Utils/Platform</text>
<text xml:space="preserve" text-anchor="middle" x="1860.75" y="-118.5" font-family="Helvetica,sans-Serif" font-size="10.00">/EmscriptenPlatformInfo.cpp</text>
</a>
</g>
</g>
<!-- Node31&#45;&gt;Node32 -->
<g id="edge49_Node000031_Node000032" class="edge">
<title>Node31&#45;&gt;Node32</title>
<g id="a_edge49_Node000031_Node000032"><a xlink:title=" ">
<path fill="none" stroke="#63b8ff" d="M1759.23,-174.89C1780.84,-165.12 1806.41,-153.56 1826.48,-144.49"/>
<polygon fill="#63b8ff" stroke="#63b8ff" points="1758.03,-171.59 1750.36,-178.9 1760.91,-177.97 1758.03,-171.59"/>
</a>
</g>
</g>
<!-- Node33 -->
<g id="Node000033" class="node">
<title>Node33</title>
<g id="a_Node000033"><a xlink:href="PlatformInfoFactory_8cpp.html" target="_top" xlink:title=" ">
<polygon fill="white" stroke="#666666" points="1772.38,-144 1649.12,-144 1649.12,-112 1772.38,-112 1772.38,-144"/>
<text xml:space="preserve" text-anchor="start" x="1657.12" y="-130.5" font-family="Helvetica,sans-Serif" font-size="10.00">src/Utils/Platform</text>
<text xml:space="preserve" text-anchor="middle" x="1710.75" y="-118.5" font-family="Helvetica,sans-Serif" font-size="10.00">/PlatformInfoFactory.cpp</text>
</a>
</g>
</g>
<!-- Node31&#45;&gt;Node33 -->
<g id="edge50_Node000031_Node000033" class="edge">
<title>Node31&#45;&gt;Node33</title>
<g id="a_edge50_Node000031_Node000033"><a xlink:title=" ">
<path fill="none" stroke="#63b8ff" d="M1713.13,-168.31C1712.64,-160.12 1712.11,-151.38 1711.67,-144.22"/>
<polygon fill="#63b8ff" stroke="#63b8ff" points="1709.63,-168.41 1713.73,-178.18 1716.62,-167.99 1709.63,-168.41"/>
</a>
</g>
</g>
<!-- Node34&#45;&gt;Node5 -->
<g id="edge53_Node000034_Node000005" class="edge">
<title>Node34&#45;&gt;Node5</title>
<g id="a_edge53_Node000034_Node000005"><a xlink:title=" ">
<path fill="none" stroke="#63b8ff" d="M1342.75,-185.51C1326.62,-183.56 1309.62,-181.61 1293.75,-180 1095.02,-159.81 1043.47,-172.43 845.75,-144 835.64,-142.55 824.82,-140.54 814.71,-138.46"/>
<polygon fill="#63b8ff" stroke="#63b8ff" points="1341.89,-188.94 1352.24,-186.68 1342.74,-181.99 1341.89,-188.94"/>
</a>
</g>
</g>
<!-- Node34&#45;&gt;Node33 -->
<g id="edge52_Node000034_Node000033" class="edge">
<title>Node34&#45;&gt;Node33</title>
<g id="a_edge52_Node000034_Node000033"><a xlink:title=" ">
<path fill="none" stroke="#63b8ff" d="M1488.79,-178.66C1537.95,-167.66 1602.06,-153.32 1648.74,-142.87"/>
<polygon fill="#63b8ff" stroke="#63b8ff" points="1488.06,-175.23 1479.07,-180.83 1489.59,-182.07 1488.06,-175.23"/>
</a>
</g>
</g>
<!-- Node35&#45;&gt;Node33 -->
<g id="edge55_Node000035_Node000033" class="edge">
<title>Node35&#45;&gt;Node33</title>
<g id="a_edge55_Node000035_Node000033"><a xlink:title=" ">
<path fill="none" stroke="#63b8ff" d="M1813.66,-174.89C1791.75,-165.12 1765.83,-153.56 1745.49,-144.49"/>
<polygon fill="#63b8ff" stroke="#63b8ff" points="1812.11,-178.03 1822.67,-178.91 1814.96,-171.64 1812.11,-178.03"/>
</a>
</g>
</g>
<!-- Node36 -->
<g id="Node000036" class="node">
<title>Node36</title>
<g id="a_Node000036"><a xlink:href="UnixPlatformInfo_8cpp.html" target="_top" xlink:title=" ">
<polygon fill="white" stroke="#666666" points="2060.38,-144 1949.12,-144 1949.12,-112 2060.38,-112 2060.38,-144"/>
<text xml:space="preserve" text-anchor="start" x="1957.12" y="-130.5" font-family="Helvetica,sans-Serif" font-size="10.00">src/Utils/Platform</text>
<text xml:space="preserve" text-anchor="middle" x="2004.75" y="-118.5" font-family="Helvetica,sans-Serif" font-size="10.00">/UnixPlatformInfo.cpp</text>
</a>
</g>
</g>
<!-- Node35&#45;&gt;Node36 -->
<g id="edge56_Node000035_Node000036" class="edge">
<title>Node35&#45;&gt;Node36</title>
<g id="a_edge56_Node000035_Node000036"><a xlink:title=" ">
<path fill="none" stroke="#63b8ff" d="M1903.23,-174.89C1924.84,-165.12 1950.41,-153.56 1970.48,-144.49"/>
<polygon fill="#63b8ff" stroke="#63b8ff" points="1902.03,-171.59 1894.36,-178.9 1904.91,-177.97 1902.03,-171.59"/>
</a>
</g>
</g>
<!-- Node37&#45;&gt;Node33 -->
<g id="edge58_Node000037_Node000033" class="edge">
<title>Node37&#45;&gt;Node33</title>
<g id="a_edge58_Node000037_Node000033"><a xlink:title=" ">
<path fill="none" stroke="#63b8ff" d="M1606.45,-174.89C1628.65,-165.12 1654.92,-153.56 1675.54,-144.49"/>
<polygon fill="#63b8ff" stroke="#63b8ff" points="1605.05,-171.69 1597.3,-178.92 1607.87,-178.09 1605.05,-171.69"/>
</a>
</g>
</g>
<!-- Node38 -->
<g id="Node000038" class="node">
<title>Node38</title>
<g id="a_Node000038"><a xlink:href="WindowsPlatformInfo_8cpp.html" target="_top" xlink:title=" ">
<polygon fill="white" stroke="#666666" points="1631.5,-144 1500,-144 1500,-112 1631.5,-112 1631.5,-144"/>
<text xml:space="preserve" text-anchor="start" x="1508" y="-130.5" font-family="Helvetica,sans-Serif" font-size="10.00">src/Utils/Platform</text>
<text xml:space="preserve" text-anchor="middle" x="1565.75" y="-118.5" font-family="Helvetica,sans-Serif" font-size="10.00">/WindowsPlatformInfo.cpp</text>
</a>
</g>
</g>
<!-- Node37&#45;&gt;Node38 -->
<g id="edge59_Node000037_Node000038" class="edge">
<title>Node37&#45;&gt;Node38</title>
<g id="a_edge59_Node000037_Node000038"><a xlink:title=" ">
<path fill="none" stroke="#63b8ff" d="M1562.77,-168.31C1563.39,-160.12 1564.05,-151.38 1564.6,-144.22"/>
<polygon fill="#63b8ff" stroke="#63b8ff" points="1559.29,-167.95 1562.02,-178.18 1566.27,-168.48 1559.29,-167.95"/>
</a>
</g>
</g>
</g>
</svg>
